<?xml version="1.0" encoding="UTF-8" standalone="no"?>
<!DOCTYPE svg PUBLIC "-//W3C//DTD SVG 1.1//EN"
 "http://www.w3.org/Graphics/SVG/1.1/DTD/svg11.dtd">
<!-- Generated by graphviz version 2.43.0 (0)
 -->
<!-- Title: main/include/BLE_Server.hpp Pages: 1 -->
<!--zoomable 357 -->

<svg id="main" version="1.1" xmlns="http://www.w3.org/2000/svg" xmlns:xlink="http://www.w3.org/1999/xlink" xml:space="preserve" onload="init(evt)">
<style type="text/css"><![CDATA[
.node, .edge {opacity: 0.7;}
.node.selected, .edge.selected {opacity: 1;}
.edge:hover path { stroke: red; }
.edge:hover polygon { stroke: red; fill: red; }
]]></style>

<defs>
  <circle id="rim" cx="0" cy="0" r="7"/>
  <circle id="rim2" cx="0" cy="0" r="3.5"/>
  <g id="zoomPlus">
    <use xlink:href="#rim" fill="#404040"><set attributeName="fill" to="#808080" begin="zoomplus.mouseover" end="zoomplus.mouseout"/></use>
    <path d="M-4,0h8M0,-4v8" fill="none" stroke="white" stroke-width="1.5" pointer-events="none"/>
  </g>
  <g id="zoomMin">
    <use xlink:href="#rim" fill="#404040"><set attributeName="fill" to="#808080" begin="zoomminus.mouseover" end="zoomminus.mouseout"/></use>
    <path d="M-4,0h8" fill="none" stroke="white" stroke-width="1.5" pointer-events="none"/>
  </g>
  <g id="arrowUp" transform="translate(30 24)">
    <use xlink:href="#rim"/>
    <path pointer-events="none" fill="none" stroke="white" stroke-width="1.5" d="M0,-3.0v7 M-2.5,-0.5L0,-3.0L2.5,-0.5"/>
  </g>
  <g id="arrowRight" transform="rotate(90) translate(36 -43)">
    <use xlink:href="#rim"/>
    <path pointer-events="none" fill="none" stroke="white" stroke-width="1.5" d="M0,-3.0v7 M-2.5,-0.5L0,-3.0L2.5,-0.5"/>
  </g>
  <g id="arrowDown" transform="rotate(180) translate(-30 -48)">
    <use xlink:href="#rim"/>
    <path pointer-events="none" fill="none" stroke="white" stroke-width="1.5" d="M0,-3.0v7 M-2.5,-0.5L0,-3.0L2.5,-0.5"/>
  </g>
  <g id="arrowLeft" transform="rotate(270) translate(-36 17)">
    <use xlink:href="#rim"/>
    <path pointer-events="none" fill="none" stroke="white" stroke-width="1.5" d="M0,-3.0v7 M-2.5,-0.5L0,-3.0L2.5,-0.5"/>
  </g>
  <g id="resetDef">
    <use xlink:href="#rim2" fill="#404040"><set attributeName="fill" to="#808080" begin="reset.mouseover" end="reset.mouseout"/></use>
  </g>
</defs>
<script type="application/ecmascript">
var viewWidth = 1936;
var viewHeight = 357;
var sectionId = 'dynsection-0';
</script>
<script type="application/ecmascript" xlink:href="svg.min.js"/>
<svg id="graph" class="graph">
<g id="viewport">
<title>main/include/BLE_Server.hpp</title>
<!-- Node1 -->
<g id="Node000001" class="node">
<title>Node1</title>
<g id="a_Node000001"><a xlink:title="Header file for the BLE_Server class, which implements a Bluetooth Low Energy (BLE) server.">
<polygon fill="#999999" stroke="#666666" points="917.08,-349 759.08,-349 759.08,-330 917.08,-330 917.08,-349"/>
<text text-anchor="middle" x="838.08" y="-337" font-family="Helvetica,sans-Serif" font-size="10.00">main/include/BLE_Server.hpp</text>
</a>
</g>
</g>
<!-- Node2 -->
<g id="Node000002" class="node">
<title>Node2</title>
<g id="a_Node000002"><a xlink:href="Bluetooth_8hpp.html" target="_top" xlink:title="Defines the Bluetooth abstract base class for BLE communication.">
<polygon fill="white" stroke="#666666" points="880.58,-294 795.58,-294 795.58,-275 880.58,-275 880.58,-294"/>
<text text-anchor="middle" x="838.08" y="-282" font-family="Helvetica,sans-Serif" font-size="10.00">Bluetooth.hpp</text>
</a>
</g>
</g>
<!-- Node1&#45;&gt;Node2 -->
<g id="edge1_Node000001_Node000002" class="edge">
<title>Node1&#45;&gt;Node2</title>
<g id="a_edge1_Node000001_Node000002"><a xlink:title=" ">
<path fill="none" stroke="#63b8ff" d="M838.08,-329.75C838.08,-322.8 838.08,-312.85 838.08,-304.13"/>
<polygon fill="#63b8ff" stroke="#63b8ff" points="841.58,-304.09 838.08,-294.09 834.58,-304.09 841.58,-304.09"/>
</a>
</g>
</g>
<!-- Node4 -->
<g id="Node000004" class="node">
<title>Node4</title>
<g id="a_Node000004"><a xlink:title=" ">
<polygon fill="#e0e0e0" stroke="#999999" points="568.08,-19 518.08,-19 518.08,0 568.08,0 568.08,-19"/>
<text text-anchor="middle" x="543.08" y="-7" font-family="Helvetica,sans-Serif" font-size="10.00">cstdint</text>
</a>
</g>
</g>
<!-- Node1&#45;&gt;Node4 -->
<g id="edge66_Node000001_Node000004" class="edge">
<title>Node1&#45;&gt;Node4</title>
<g id="a_edge66_Node000001_Node000004"><a xlink:title=" ">
<path fill="none" stroke="#63b8ff" d="M758.97,-334.93C560.51,-325.18 53.79,-294.99 4.08,-239 -1.52,-232.69 -1.04,-226.71 4.08,-220 97.49,-97.74 196.08,-188.21 338.08,-129 409.14,-99.37 485.93,-49.68 522.05,-25.13"/>
<polygon fill="#63b8ff" stroke="#63b8ff" points="524.46,-27.73 530.73,-19.19 520.5,-21.95 524.46,-27.73"/>
</a>
</g>
</g>
<!-- Node16 -->
<g id="Node000016" class="node">
<title>Node16</title>
<g id="a_Node000016"><a xlink:href="MessageHandler_8hpp.html" target="_top" xlink:title="Declaration of the MessageHandler class for managing message queues between components.">
<polygon fill="white" stroke="#666666" points="1398.58,-239 1279.58,-239 1279.58,-220 1398.58,-220 1398.58,-239"/>
<text text-anchor="middle" x="1339.08" y="-227" font-family="Helvetica,sans-Serif" font-size="10.00">MessageHandler.hpp</text>
</a>
</g>
</g>
<!-- Node1&#45;&gt;Node16 -->
<g id="edge65_Node000001_Node000016" class="edge">
<title>Node1&#45;&gt;Node16</title>
<g id="a_edge65_Node000001_Node000016"><a xlink:title=" ">
<path fill="none" stroke="#63b8ff" d="M877.82,-329.94C968.44,-310.4 1190.22,-262.59 1289.56,-241.18"/>
<polygon fill="#63b8ff" stroke="#63b8ff" points="1290.31,-244.59 1299.35,-239.07 1288.84,-237.75 1290.31,-244.59"/>
</a>
</g>
</g>
<!-- Node3 -->
<g id="Node000003" class="node">
<title>Node3</title>
<g id="a_Node000003"><a xlink:title=" ">
<polygon fill="#e0e0e0" stroke="#999999" points="1142.08,-239 1098.08,-239 1098.08,-220 1142.08,-220 1142.08,-239"/>
<text text-anchor="middle" x="1120.08" y="-227" font-family="Helvetica,sans-Serif" font-size="10.00">string</text>
</a>
</g>
</g>
<!-- Node2&#45;&gt;Node3 -->
<g id="edge2_Node000002_Node000003" class="edge">
<title>Node2&#45;&gt;Node3</title>
<g id="a_edge2_Node000002_Node000003"><a xlink:title=" ">
<path fill="none" stroke="#63b8ff" d="M880.96,-277.13C929.06,-269.71 1009.6,-256.48 1087.78,-239.12"/>
<polygon fill="#63b8ff" stroke="#63b8ff" points="1088.81,-242.48 1097.8,-236.88 1087.27,-235.65 1088.81,-242.48"/>
</a>
</g>
</g>
<!-- Node2&#45;&gt;Node4 -->
<g id="edge3_Node000002_Node000004" class="edge">
<title>Node2&#45;&gt;Node4</title>
<g id="a_edge3_Node000002_Node000004"><a xlink:title=" ">
<path fill="none" stroke="#63b8ff" d="M880.82,-284.01C958.17,-283.91 1116.59,-278.74 1151.08,-239 1156.62,-232.62 1156.51,-226.47 1151.08,-220 1001.4,-41.61 852.7,-211.92 635.08,-129 591.63,-112.44 569.68,-114.07 546.08,-74 538.12,-60.48 538.08,-42.39 539.61,-28.97"/>
<polygon fill="#63b8ff" stroke="#63b8ff" points="543.09,-29.43 541.14,-19.01 536.17,-28.37 543.09,-29.43"/>
</a>
</g>
</g>
<!-- Node5 -->
<g id="Node000005" class="node">
<title>Node5</title>
<g id="a_Node000005"><a xlink:title=" ">
<polygon fill="#e0e0e0" stroke="#999999" points="1261.58,-239 1198.58,-239 1198.58,-220 1261.58,-220 1261.58,-239"/>
<text text-anchor="middle" x="1230.08" y="-227" font-family="Helvetica,sans-Serif" font-size="10.00">esp_log.h</text>
</a>
</g>
</g>
<!-- Node2&#45;&gt;Node5 -->
<g id="edge4_Node000002_Node000005" class="edge">
<title>Node2&#45;&gt;Node5</title>
<g id="a_edge4_Node000002_Node000005"><a xlink:title=" ">
<path fill="none" stroke="#63b8ff" d="M880.8,-278.77C946.25,-271.35 1075.18,-256.05 1184.08,-239 1185.54,-238.77 1187.02,-238.53 1188.51,-238.29"/>
<polygon fill="#63b8ff" stroke="#63b8ff" points="1189.19,-241.72 1198.45,-236.58 1188,-234.82 1189.19,-241.72"/>
</a>
</g>
</g>
<!-- Node6 -->
<g id="Node000006" class="node">
<title>Node6</title>
<g id="a_Node000006"><a xlink:title=" ">
<polygon fill="#e0e0e0" stroke="#999999" points="84.58,-239 13.58,-239 13.58,-220 84.58,-220 84.58,-239"/>
<text text-anchor="middle" x="49.08" y="-227" font-family="Helvetica,sans-Serif" font-size="10.00">nvs_flash.h</text>
</a>
</g>
</g>
<!-- Node2&#45;&gt;Node6 -->
<g id="edge5_Node000002_Node000006" class="edge">
<title>Node2&#45;&gt;Node6</title>
<g id="a_edge5_Node000002_Node000006"><a xlink:title=" ">
<path fill="none" stroke="#63b8ff" d="M795.55,-282.84C682.9,-280.7 367.41,-272.09 94.96,-238.93"/>
<polygon fill="#63b8ff" stroke="#63b8ff" points="95.23,-235.43 84.88,-237.69 94.38,-242.38 95.23,-235.43"/>
</a>
</g>
</g>
<!-- Node7 -->
<g id="Node000007" class="node">
<title>Node7</title>
<g id="a_Node000007"><a xlink:title=" ">
<polygon fill="#e0e0e0" stroke="#999999" points="161.08,-239 103.08,-239 103.08,-220 161.08,-220 161.08,-239"/>
<text text-anchor="middle" x="132.08" y="-227" font-family="Helvetica,sans-Serif" font-size="10.00">esp_bt.h</text>
</a>
</g>
</g>
<!-- Node2&#45;&gt;Node7 -->
<g id="edge6_Node000002_Node000007" class="edge">
<title>Node2&#45;&gt;Node7</title>
<g id="a_edge6_Node000002_Node000007"><a xlink:title=" ">
<path fill="none" stroke="#63b8ff" d="M795.33,-282.84C690.62,-280.75 412.95,-272.37 171.41,-238.78"/>
<polygon fill="#63b8ff" stroke="#63b8ff" points="171.78,-235.3 161.39,-237.37 170.8,-242.23 171.78,-235.3"/>
</a>
</g>
</g>
<!-- Node8 -->
<g id="Node000008" class="node">
<title>Node8</title>
<g id="a_Node000008"><a xlink:title=" ">
<polygon fill="#e0e0e0" stroke="#999999" points="286.58,-239 179.58,-239 179.58,-220 286.58,-220 286.58,-239"/>
<text text-anchor="middle" x="233.08" y="-227" font-family="Helvetica,sans-Serif" font-size="10.00">esp_gap_ble_api.h</text>
</a>
</g>
</g>
<!-- Node2&#45;&gt;Node8 -->
<g id="edge7_Node000002_Node000008" class="edge">
<title>Node2&#45;&gt;Node8</title>
<g id="a_edge7_Node000002_Node000008"><a xlink:title=" ">
<path fill="none" stroke="#63b8ff" d="M795.5,-280.76C705.53,-274.82 489.26,-259.66 296.7,-239.01"/>
<polygon fill="#63b8ff" stroke="#63b8ff" points="297,-235.52 286.68,-237.92 296.24,-242.48 297,-235.52"/>
</a>
</g>
</g>
<!-- Node9 -->
<g id="Node000009" class="node">
<title>Node9</title>
<g id="a_Node000009"><a xlink:title=" ">
<polygon fill="#e0e0e0" stroke="#999999" points="399.08,-239 305.08,-239 305.08,-220 399.08,-220 399.08,-239"/>
<text text-anchor="middle" x="352.08" y="-227" font-family="Helvetica,sans-Serif" font-size="10.00">esp_gatt_defs.h</text>
</a>
</g>
</g>
<!-- Node2&#45;&gt;Node9 -->
<g id="edge8_Node000002_Node000009" class="edge">
<title>Node2&#45;&gt;Node9</title>
<g id="a_edge8_Node000002_Node000009"><a xlink:title=" ">
<path fill="none" stroke="#63b8ff" d="M795.28,-279.75C719.62,-272.97 557.05,-257.75 409.28,-239.1"/>
<polygon fill="#63b8ff" stroke="#63b8ff" points="409.48,-235.59 399.12,-237.8 408.59,-242.54 409.48,-235.59"/>
</a>
</g>
</g>
<!-- Node10 -->
<g id="Node000010" class="node">
<title>Node10</title>
<g id="a_Node000010"><a xlink:title=" ">
<polygon fill="#e0e0e0" stroke="#999999" points="553.08,-239 417.08,-239 417.08,-220 553.08,-220 553.08,-239"/>
<text text-anchor="middle" x="485.08" y="-227" font-family="Helvetica,sans-Serif" font-size="10.00">esp_gatt_common_api.h</text>
</a>
</g>
</g>
<!-- Node2&#45;&gt;Node10 -->
<g id="edge9_Node000002_Node000010" class="edge">
<title>Node2&#45;&gt;Node10</title>
<g id="a_edge9_Node000002_Node000010"><a xlink:title=" ">
<path fill="none" stroke="#63b8ff" d="M795.5,-277.11C735.03,-268.03 623.68,-251.31 552.07,-240.56"/>
<polygon fill="#63b8ff" stroke="#63b8ff" points="552.22,-237.04 541.81,-239.02 551.18,-243.96 552.22,-237.04"/>
</a>
</g>
</g>
<!-- Node11 -->
<g id="Node000011" class="node">
<title>Node11</title>
<g id="a_Node000011"><a xlink:title=" ">
<polygon fill="#e0e0e0" stroke="#999999" points="664.58,-239 571.58,-239 571.58,-220 664.58,-220 664.58,-239"/>
<text text-anchor="middle" x="618.08" y="-227" font-family="Helvetica,sans-Serif" font-size="10.00">esp_gatts_api.h</text>
</a>
</g>
</g>
<!-- Node2&#45;&gt;Node11 -->
<g id="edge10_Node000002_Node000011" class="edge">
<title>Node2&#45;&gt;Node11</title>
<g id="a_edge10_Node000002_Node000011"><a xlink:title=" ">
<path fill="none" stroke="#63b8ff" d="M802.74,-274.98C764.92,-265.87 704.82,-251.4 663.52,-241.45"/>
<polygon fill="#63b8ff" stroke="#63b8ff" points="664.25,-238.02 653.71,-239.08 662.61,-244.83 664.25,-238.02"/>
</a>
</g>
</g>
<!-- Node12 -->
<g id="Node000012" class="node">
<title>Node12</title>
<g id="a_Node000012"><a xlink:title=" ">
<polygon fill="#e0e0e0" stroke="#999999" points="775.58,-239 682.58,-239 682.58,-220 775.58,-220 775.58,-239"/>
<text text-anchor="middle" x="729.08" y="-227" font-family="Helvetica,sans-Serif" font-size="10.00">esp_gattc_api.h</text>
</a>
</g>
</g>
<!-- Node2&#45;&gt;Node12 -->
<g id="edge11_Node000002_Node000012" class="edge">
<title>Node2&#45;&gt;Node12</title>
<g id="a_edge11_Node000002_Node000012"><a xlink:title=" ">
<path fill="none" stroke="#63b8ff" d="M820.57,-274.98C803.12,-266.5 776.08,-253.35 755.91,-243.54"/>
<polygon fill="#63b8ff" stroke="#63b8ff" points="757.44,-240.4 746.92,-239.17 754.38,-246.69 757.44,-240.4"/>
</a>
</g>
</g>
<!-- Node13 -->
<g id="Node000013" class="node">
<title>Node13</title>
<g id="a_Node000013"><a xlink:title=" ">
<polygon fill="#e0e0e0" stroke="#999999" points="882.08,-239 794.08,-239 794.08,-220 882.08,-220 882.08,-239"/>
<text text-anchor="middle" x="838.08" y="-227" font-family="Helvetica,sans-Serif" font-size="10.00">esp_bt_main.h</text>
</a>
</g>
</g>
<!-- Node2&#45;&gt;Node13 -->
<g id="edge12_Node000002_Node000013" class="edge">
<title>Node2&#45;&gt;Node13</title>
<g id="a_edge12_Node000002_Node000013"><a xlink:title=" ">
<path fill="none" stroke="#63b8ff" d="M838.08,-274.75C838.08,-267.8 838.08,-257.85 838.08,-249.13"/>
<polygon fill="#63b8ff" stroke="#63b8ff" points="841.58,-249.09 838.08,-239.09 834.58,-249.09 841.58,-249.09"/>
</a>
</g>
</g>
<!-- Node14 -->
<g id="Node000014" class="node">
<title>Node14</title>
<g id="a_Node000014"><a xlink:title=" ">
<polygon fill="#e0e0e0" stroke="#999999" points="969.58,-239 900.58,-239 900.58,-220 969.58,-220 969.58,-239"/>
<text text-anchor="middle" x="935.08" y="-227" font-family="Helvetica,sans-Serif" font-size="10.00">esp_mac.h</text>
</a>
</g>
</g>
<!-- Node2&#45;&gt;Node14 -->
<g id="edge13_Node000002_Node000014" class="edge">
<title>Node2&#45;&gt;Node14</title>
<g id="a_edge13_Node000002_Node000014"><a xlink:title=" ">
<path fill="none" stroke="#63b8ff" d="M853.67,-274.98C868.85,-266.69 892.18,-253.94 909.98,-244.22"/>
<polygon fill="#63b8ff" stroke="#63b8ff" points="912.12,-247.04 919.22,-239.17 908.76,-240.89 912.12,-247.04"/>
</a>
</g>
</g>
<!-- Node15 -->
<g id="Node000015" class="node">
<title>Node15</title>
<g id="a_Node000015"><a xlink:href="BLE__Config_8hpp.html" target="_top" xlink:title="Configuration file containing default values and structures for BLE server and client.">
<polygon fill="white" stroke="#666666" points="1080.08,-239 988.08,-239 988.08,-220 1080.08,-220 1080.08,-239"/>
<text text-anchor="middle" x="1034.08" y="-227" font-family="Helvetica,sans-Serif" font-size="10.00">BLE_Config.hpp</text>
</a>
</g>
</g>
<!-- Node2&#45;&gt;Node15 -->
<g id="edge14_Node000002_Node000015" class="edge">
<title>Node2&#45;&gt;Node15</title>
<g id="a_edge14_Node000002_Node000015"><a xlink:title=" ">
<path fill="none" stroke="#63b8ff" d="M864.46,-274.98C895.94,-265.93 948.85,-251.58 987.29,-241.64"/>
<polygon fill="#63b8ff" stroke="#63b8ff" points="988.4,-244.96 997.22,-239.08 986.66,-238.18 988.4,-244.96"/>
</a>
</g>
</g>
<!-- Node2&#45;&gt;Node16 -->
<g id="edge16_Node000002_Node000016" class="edge">
<title>Node2&#45;&gt;Node16</title>
<g id="a_edge16_Node000002_Node000016"><a xlink:title=" ">
<path fill="none" stroke="#63b8ff" d="M880.83,-279.42C956.82,-272.1 1120.66,-256.01 1269.18,-239.2"/>
<polygon fill="#63b8ff" stroke="#63b8ff" points="1269.85,-242.64 1279.39,-238.04 1269.06,-235.69 1269.85,-242.64"/>
</a>
</g>
</g>
<!-- Node15&#45;&gt;Node2 -->
<g id="edge15_Node000015_Node000002" class="edge">
<title>Node15&#45;&gt;Node2</title>
<g id="a_edge15_Node000015_Node000002"><a xlink:title=" ">
<path fill="none" stroke="#63b8ff" d="M1007.48,-239.08C975.89,-248.16 922.96,-262.52 884.6,-272.44"/>
<polygon fill="#63b8ff" stroke="#63b8ff" points="883.5,-269.11 874.69,-274.98 885.25,-275.89 883.5,-269.11"/>
</a>
</g>
</g>
<!-- Node17 -->
<g id="Node000017" class="node">
<title>Node17</title>
<g id="a_Node000017"><a xlink:title=" ">
<polygon fill="#e0e0e0" stroke="#999999" points="1346.08,-74 1288.08,-74 1288.08,-55 1346.08,-55 1346.08,-74"/>
<text text-anchor="middle" x="1317.08" y="-62" font-family="Helvetica,sans-Serif" font-size="10.00">memory</text>
</a>
</g>
</g>
<!-- Node16&#45;&gt;Node17 -->
<g id="edge17_Node000016_Node000017" class="edge">
<title>Node16&#45;&gt;Node17</title>
<g id="a_edge17_Node000016_Node000017"><a xlink:title=" ">
<path fill="none" stroke="#63b8ff" d="M1337.9,-219.74C1334.46,-194.2 1324.36,-119.43 1319.61,-84.23"/>
<polygon fill="#63b8ff" stroke="#63b8ff" points="1323.08,-83.75 1318.27,-74.31 1316.14,-84.69 1323.08,-83.75"/>
</a>
</g>
</g>
<!-- Node18 -->
<g id="Node000018" class="node">
<title>Node18</title>
<g id="a_Node000018"><a xlink:href="rtos_8h.html" target="_top" xlink:title=" ">
<polygon fill="white" stroke="#666666" points="1386.08,-184 1342.08,-184 1342.08,-165 1386.08,-165 1386.08,-184"/>
<text text-anchor="middle" x="1364.08" y="-172" font-family="Helvetica,sans-Serif" font-size="10.00">rtos.h</text>
</a>
</g>
</g>
<!-- Node16&#45;&gt;Node18 -->
<g id="edge18_Node000016_Node000018" class="edge">
<title>Node16&#45;&gt;Node18</title>
<g id="a_edge18_Node000016_Node000018"><a xlink:title=" ">
<path fill="none" stroke="#63b8ff" d="M1343.21,-219.75C1346.6,-212.57 1351.5,-202.18 1355.7,-193.27"/>
<polygon fill="#63b8ff" stroke="#63b8ff" points="1358.93,-194.63 1360.03,-184.09 1352.6,-191.64 1358.93,-194.63"/>
</a>
</g>
</g>
<!-- Node18&#45;&gt;Node4 -->
<g id="edge64_Node000018_Node000004" class="edge">
<title>Node18&#45;&gt;Node4</title>
<g id="a_edge64_Node000018_Node000004"><a xlink:title=" ">
<path fill="none" stroke="#63b8ff" d="M1341.8,-173.91C1225.04,-175.6 684.62,-177.67 563.08,-74 550.18,-62.99 545.5,-43.73 543.85,-29.3"/>
<polygon fill="#63b8ff" stroke="#63b8ff" points="547.32,-28.73 543.08,-19.02 540.34,-29.25 547.32,-28.73"/>
</a>
</g>
</g>
<!-- Node19 -->
<g id="Node000019" class="node">
<title>Node19</title>
<g id="a_Node000019"><a xlink:href="EventFlags_8h.html" target="_top" xlink:title=" ">
<polygon fill="white" stroke="#666666" points="329.08,-129 249.08,-129 249.08,-110 329.08,-110 329.08,-129"/>
<text text-anchor="middle" x="289.08" y="-117" font-family="Helvetica,sans-Serif" font-size="10.00">EventFlags.h</text>
</a>
</g>
</g>
<!-- Node18&#45;&gt;Node19 -->
<g id="edge19_Node000018_Node000019" class="edge">
<title>Node18&#45;&gt;Node19</title>
<g id="a_edge19_Node000018_Node000019"><a xlink:title=" ">
<path fill="none" stroke="#63b8ff" d="M1341.63,-172.39C1209.29,-165.87 530.32,-132.39 339.2,-122.97"/>
<polygon fill="#63b8ff" stroke="#63b8ff" points="339.31,-119.47 329.15,-122.48 338.97,-126.46 339.31,-119.47"/>
</a>
</g>
</g>
<!-- Node21 -->
<g id="Node000021" class="node">
<title>Node21</title>
<g id="a_Node000021"><a xlink:title=" ">
<polygon fill="#e0e0e0" stroke="#999999" points="1431.58,-19 1318.58,-19 1318.58,0 1431.58,0 1431.58,-19"/>
<text text-anchor="middle" x="1375.08" y="-7" font-family="Helvetica,sans-Serif" font-size="10.00">freertos/FreeRTOS.h</text>
</a>
</g>
</g>
<!-- Node18&#45;&gt;Node21 -->
<g id="edge63_Node000018_Node000021" class="edge">
<title>Node18&#45;&gt;Node21</title>
<g id="a_edge63_Node000018_Node000021"><a xlink:title=" ">
<path fill="none" stroke="#63b8ff" d="M1386.34,-171.85C1461.76,-165.47 1699.18,-138.45 1629.08,-55 1605.6,-27.04 1508.91,-16.64 1441.85,-12.78"/>
<polygon fill="#63b8ff" stroke="#63b8ff" points="1441.94,-9.28 1431.77,-12.24 1441.56,-16.27 1441.94,-9.28"/>
</a>
</g>
</g>
<!-- Node28 -->
<g id="Node000028" class="node">
<title>Node28</title>
<g id="a_Node000028"><a xlink:href="MessageQueue_8h.html" target="_top" xlink:title=" ">
<polygon fill="white" stroke="#666666" points="1044.58,-129 943.58,-129 943.58,-110 1044.58,-110 1044.58,-129"/>
<text text-anchor="middle" x="994.08" y="-117" font-family="Helvetica,sans-Serif" font-size="10.00">MessageQueue.h</text>
</a>
</g>
</g>
<!-- Node18&#45;&gt;Node28 -->
<g id="edge33_Node000018_Node000028" class="edge">
<title>Node18&#45;&gt;Node28</title>
<g id="a_edge33_Node000018_Node000028"><a xlink:title=" ">
<path fill="none" stroke="#63b8ff" d="M1342.05,-170.34C1286.36,-162.37 1138.46,-141.18 1054.51,-129.16"/>
<polygon fill="#63b8ff" stroke="#63b8ff" points="1054.99,-125.69 1044.6,-127.74 1054,-132.62 1054.99,-125.69"/>
</a>
</g>
</g>
<!-- Node33 -->
<g id="Node000033" class="node">
<title>Node33</title>
<g id="a_Node000033"><a xlink:href="Mutex_8h.html" target="_top" xlink:title=" ">
<polygon fill="white" stroke="#666666" points="1867.08,-129 1811.08,-129 1811.08,-110 1867.08,-110 1867.08,-129"/>
<text text-anchor="middle" x="1839.08" y="-117" font-family="Helvetica,sans-Serif" font-size="10.00">Mutex.h</text>
</a>
</g>
</g>
<!-- Node18&#45;&gt;Node33 -->
<g id="edge43_Node000018_Node000033" class="edge">
<title>Node18&#45;&gt;Node33</title>
<g id="a_edge43_Node000018_Node000033"><a xlink:title=" ">
<path fill="none" stroke="#63b8ff" d="M1386.37,-171.1C1447.33,-164.52 1621.97,-145.58 1767.08,-129 1778.08,-127.74 1790.01,-126.35 1800.94,-125.06"/>
<polygon fill="#63b8ff" stroke="#63b8ff" points="1801.53,-128.51 1811.05,-123.86 1800.71,-121.56 1801.53,-128.51"/>
</a>
</g>
</g>
<!-- Node36 -->
<g id="Node000036" class="node">
<title>Node36</title>
<g id="a_Node000036"><a xlink:href="Semaphore_8h.html" target="_top" xlink:title=" ">
<polygon fill="white" stroke="#666666" points="1757.58,-129 1676.58,-129 1676.58,-110 1757.58,-110 1757.58,-129"/>
<text text-anchor="middle" x="1717.08" y="-117" font-family="Helvetica,sans-Serif" font-size="10.00">Semaphore.h</text>
</a>
</g>
</g>
<!-- Node18&#45;&gt;Node36 -->
<g id="edge48_Node000018_Node000036" class="edge">
<title>Node18&#45;&gt;Node36</title>
<g id="a_edge48_Node000018_Node000036"><a xlink:title=" ">
<path fill="none" stroke="#63b8ff" d="M1386.15,-170.24C1435.57,-162.94 1558.91,-144.68 1662.08,-129 1663.55,-128.78 1665.03,-128.55 1666.53,-128.32"/>
<polygon fill="#63b8ff" stroke="#63b8ff" points="1667.18,-131.76 1676.54,-126.79 1666.12,-124.84 1667.18,-131.76"/>
</a>
</g>
</g>
<!-- Node38 -->
<g id="Node000038" class="node">
<title>Node38</title>
<g id="a_Node000038"><a xlink:href="Task_8h.html" target="_top" xlink:title=" ">
<polygon fill="white" stroke="#666666" points="1283.58,-129 1236.58,-129 1236.58,-110 1283.58,-110 1283.58,-129"/>
<text text-anchor="middle" x="1260.08" y="-117" font-family="Helvetica,sans-Serif" font-size="10.00">Task.h</text>
</a>
</g>
</g>
<!-- Node18&#45;&gt;Node38 -->
<g id="edge53_Node000018_Node000038" class="edge">
<title>Node18&#45;&gt;Node38</title>
<g id="a_edge53_Node000018_Node000038"><a xlink:title=" ">
<path fill="none" stroke="#63b8ff" d="M1347.38,-164.98C1330.87,-156.57 1305.39,-143.59 1286.21,-133.81"/>
<polygon fill="#63b8ff" stroke="#63b8ff" points="1287.6,-130.59 1277.1,-129.17 1284.42,-136.83 1287.6,-130.59"/>
</a>
</g>
</g>
<!-- Node40 -->
<g id="Node000040" class="node">
<title>Node40</title>
<g id="a_Node000040"><a xlink:href="Timer_8h.html" target="_top" xlink:title=" ">
<polygon fill="white" stroke="#666666" points="1395.58,-129 1342.58,-129 1342.58,-110 1395.58,-110 1395.58,-129"/>
<text text-anchor="middle" x="1369.08" y="-117" font-family="Helvetica,sans-Serif" font-size="10.00">Timer.h</text>
</a>
</g>
</g>
<!-- Node18&#45;&gt;Node40 -->
<g id="edge58_Node000018_Node000040" class="edge">
<title>Node18&#45;&gt;Node40</title>
<g id="a_edge58_Node000018_Node000040"><a xlink:title=" ">
<path fill="none" stroke="#63b8ff" d="M1364.91,-164.75C1365.57,-157.8 1366.51,-147.85 1367.33,-139.13"/>
<polygon fill="#63b8ff" stroke="#63b8ff" points="1370.82,-139.37 1368.27,-129.09 1363.85,-138.72 1370.82,-139.37"/>
</a>
</g>
</g>
<!-- Node20 -->
<g id="Node000020" class="node">
<title>Node20</title>
<g id="a_Node000020"><a xlink:href="Core_8h.html" target="_top" xlink:title=" ">
<polygon fill="white" stroke="#666666" points="888.58,-74 821.58,-74 821.58,-55 888.58,-55 888.58,-74"/>
<text text-anchor="middle" x="855.08" y="-62" font-family="Helvetica,sans-Serif" font-size="10.00">util/Core.h</text>
</a>
</g>
</g>
<!-- Node19&#45;&gt;Node20 -->
<g id="edge20_Node000019_Node000020" class="edge">
<title>Node19&#45;&gt;Node20</title>
<g id="a_edge20_Node000019_Node000020"><a xlink:title=" ">
<path fill="none" stroke="#63b8ff" d="M329.28,-116.59C415.63,-112.17 625.42,-99.69 811.39,-73.93"/>
<polygon fill="#63b8ff" stroke="#63b8ff" points="811.93,-77.39 821.34,-72.53 810.95,-70.46 811.93,-77.39"/>
</a>
</g>
</g>
<!-- Node19&#45;&gt;Node21 -->
<g id="edge29_Node000019_Node000021" class="edge">
<title>Node19&#45;&gt;Node21</title>
<g id="a_edge29_Node000019_Node000021"><a xlink:title=" ">
<path fill="none" stroke="#63b8ff" d="M318.37,-109.95C368.15,-95.81 472.68,-67.85 563.08,-55 837.52,-15.98 1168.62,-10.64 1308.05,-10.27"/>
<polygon fill="#63b8ff" stroke="#63b8ff" points="1308.16,-13.77 1318.15,-10.25 1308.14,-6.77 1308.16,-13.77"/>
</a>
</g>
</g>
<!-- Node22 -->
<g id="Node000022" class="node">
<title>Node22</title>
<g id="a_Node000022"><a xlink:href="Flags_8h.html" target="_top" xlink:title=" ">
<polygon fill="white" stroke="#666666" points="179.58,-74 108.58,-74 108.58,-55 179.58,-55 179.58,-74"/>
<text text-anchor="middle" x="144.08" y="-62" font-family="Helvetica,sans-Serif" font-size="10.00">util/Flags.h</text>
</a>
</g>
</g>
<!-- Node19&#45;&gt;Node22 -->
<g id="edge22_Node000019_Node000022" class="edge">
<title>Node19&#45;&gt;Node22</title>
<g id="a_edge22_Node000019_Node000022"><a xlink:title=" ">
<path fill="none" stroke="#63b8ff" d="M265.79,-109.98C241.83,-101.23 204.3,-87.51 177.25,-77.62"/>
<polygon fill="#63b8ff" stroke="#63b8ff" points="178.4,-74.32 167.81,-74.17 176,-80.89 178.4,-74.32"/>
</a>
</g>
</g>
<!-- Node23 -->
<g id="Node000023" class="node">
<title>Node23</title>
<g id="a_Node000023"><a xlink:title=" ">
<polygon fill="#e0e0e0" stroke="#999999" points="93.58,-19 10.58,-19 10.58,0 93.58,0 93.58,-19"/>
<text text-anchor="middle" x="52.08" y="-7" font-family="Helvetica,sans-Serif" font-size="10.00">initializer_list</text>
</a>
</g>
</g>
<!-- Node19&#45;&gt;Node23 -->
<g id="edge32_Node000019_Node000023" class="edge">
<title>Node19&#45;&gt;Node23</title>
<g id="a_edge32_Node000019_Node000023"><a xlink:title=" ">
<path fill="none" stroke="#63b8ff" d="M248.9,-118.24C178.97,-116.85 39.44,-109.56 9.08,-74 -4.17,-58.48 13.87,-38.78 30.47,-25.47"/>
<polygon fill="#63b8ff" stroke="#63b8ff" points="32.98,-27.96 38.85,-19.15 28.76,-22.38 32.98,-27.96"/>
</a>
</g>
</g>
<!-- Node25 -->
<g id="Node000025" class="node">
<title>Node25</title>
<g id="a_Node000025"><a xlink:href="Types_8h.html" target="_top" xlink:title=" ">
<polygon fill="white" stroke="#666666" points="90.08,-74 18.08,-74 18.08,-55 90.08,-55 90.08,-74"/>
<text text-anchor="middle" x="54.08" y="-62" font-family="Helvetica,sans-Serif" font-size="10.00">util/Types.h</text>
</a>
</g>
</g>
<!-- Node19&#45;&gt;Node25 -->
<g id="edge26_Node000019_Node000025" class="edge">
<title>Node19&#45;&gt;Node25</title>
<g id="a_edge26_Node000019_Node000025"><a xlink:title=" ">
<path fill="none" stroke="#63b8ff" d="M251.33,-109.98C210.16,-100.7 144.27,-85.84 100.11,-75.88"/>
<polygon fill="#63b8ff" stroke="#63b8ff" points="100.73,-72.43 90.2,-73.65 99.19,-79.26 100.73,-72.43"/>
</a>
</g>
</g>
<!-- Node26 -->
<g id="Node000026" class="node">
<title>Node26</title>
<g id="a_Node000026"><a xlink:title=" ">
<polygon fill="#e0e0e0" stroke="#999999" points="330.58,-74 197.58,-74 197.58,-55 330.58,-55 330.58,-74"/>
<text text-anchor="middle" x="264.08" y="-62" font-family="Helvetica,sans-Serif" font-size="10.00">freertos/event_groups.h</text>
</a>
</g>
</g>
<!-- Node19&#45;&gt;Node26 -->
<g id="edge30_Node000019_Node000026" class="edge">
<title>Node19&#45;&gt;Node26</title>
<g id="a_edge30_Node000019_Node000026"><a xlink:title=" ">
<path fill="none" stroke="#63b8ff" d="M284.96,-109.75C281.57,-102.57 276.67,-92.18 272.47,-83.27"/>
<polygon fill="#63b8ff" stroke="#63b8ff" points="275.57,-81.64 268.14,-74.09 269.24,-84.63 275.57,-81.64"/>
</a>
</g>
</g>
<!-- Node27 -->
<g id="Node000027" class="node">
<title>Node27</title>
<g id="a_Node000027"><a xlink:title=" ">
<polygon fill="#e0e0e0" stroke="#999999" points="401.08,-74 349.08,-74 349.08,-55 401.08,-55 401.08,-74"/>
<text text-anchor="middle" x="375.08" y="-62" font-family="Helvetica,sans-Serif" font-size="10.00">cassert</text>
</a>
</g>
</g>
<!-- Node19&#45;&gt;Node27 -->
<g id="edge31_Node000019_Node000027" class="edge">
<title>Node19&#45;&gt;Node27</title>
<g id="a_edge31_Node000019_Node000027"><a xlink:title=" ">
<path fill="none" stroke="#63b8ff" d="M302.9,-109.98C316.24,-101.77 336.67,-89.18 352.39,-79.49"/>
<polygon fill="#63b8ff" stroke="#63b8ff" points="354.34,-82.4 361.02,-74.17 350.67,-76.44 354.34,-82.4"/>
</a>
</g>
</g>
<!-- Node20&#45;&gt;Node21 -->
<g id="edge21_Node000020_Node000021" class="edge">
<title>Node20&#45;&gt;Node21</title>
<g id="a_edge21_Node000020_Node000021"><a xlink:title=" ">
<path fill="none" stroke="#63b8ff" d="M888.83,-56.49C891.95,-55.95 895.07,-55.44 898.08,-55 1043.67,-33.88 1215.77,-20.7 1308.26,-14.57"/>
<polygon fill="#63b8ff" stroke="#63b8ff" points="1308.57,-18.06 1318.32,-13.91 1308.12,-11.07 1308.57,-18.06"/>
</a>
</g>
</g>
<!-- Node22&#45;&gt;Node4 -->
<g id="edge23_Node000022_Node000004" class="edge">
<title>Node22&#45;&gt;Node4</title>
<g id="a_edge23_Node000022_Node000004"><a xlink:title=" ">
<path fill="none" stroke="#63b8ff" d="M179.91,-56.53C183.01,-55.99 186.1,-55.47 189.08,-55 305.3,-36.74 443.92,-21.08 507.74,-14.21"/>
<polygon fill="#63b8ff" stroke="#63b8ff" points="508.11,-17.69 517.68,-13.15 507.37,-10.73 508.11,-17.69"/>
</a>
</g>
</g>
<!-- Node22&#45;&gt;Node23 -->
<g id="edge24_Node000022_Node000023" class="edge">
<title>Node22&#45;&gt;Node23</title>
<g id="a_edge24_Node000022_Node000023"><a xlink:title=" ">
<path fill="none" stroke="#63b8ff" d="M129.3,-54.98C114.9,-46.69 92.78,-33.94 75.89,-24.22"/>
<polygon fill="#63b8ff" stroke="#63b8ff" points="77.55,-21.13 67.14,-19.17 74.05,-27.19 77.55,-21.13"/>
</a>
</g>
</g>
<!-- Node24 -->
<g id="Node000024" class="node">
<title>Node24</title>
<g id="a_Node000024"><a xlink:title=" ">
<polygon fill="#e0e0e0" stroke="#999999" points="180.58,-19 111.58,-19 111.58,0 180.58,0 180.58,-19"/>
<text text-anchor="middle" x="146.08" y="-7" font-family="Helvetica,sans-Serif" font-size="10.00">type_traits</text>
</a>
</g>
</g>
<!-- Node22&#45;&gt;Node24 -->
<g id="edge25_Node000022_Node000024" class="edge">
<title>Node22&#45;&gt;Node24</title>
<g id="a_edge25_Node000022_Node000024"><a xlink:title=" ">
<path fill="none" stroke="#63b8ff" d="M144.42,-54.75C144.68,-47.8 145.05,-37.85 145.38,-29.13"/>
<polygon fill="#63b8ff" stroke="#63b8ff" points="148.88,-29.21 145.76,-19.09 141.89,-28.95 148.88,-29.21"/>
</a>
</g>
</g>
<!-- Node25&#45;&gt;Node4 -->
<g id="edge27_Node000025_Node000004" class="edge">
<title>Node25&#45;&gt;Node4</title>
<g id="a_edge27_Node000025_Node000004"><a xlink:title=" ">
<path fill="none" stroke="#63b8ff" d="M90.39,-56.36C93.33,-55.87 96.25,-55.41 99.08,-55 250.36,-33.17 432.18,-18.56 507.62,-13"/>
<polygon fill="#63b8ff" stroke="#63b8ff" points="508.24,-16.47 517.96,-12.25 507.73,-9.49 508.24,-16.47"/>
</a>
</g>
</g>
<!-- Node25&#45;&gt;Node23 -->
<g id="edge28_Node000025_Node000023" class="edge">
<title>Node25&#45;&gt;Node23</title>
<g id="a_edge28_Node000025_Node000023"><a xlink:title=" ">
<path fill="none" stroke="#63b8ff" d="M53.75,-54.75C53.49,-47.8 53.12,-37.85 52.79,-29.13"/>
<polygon fill="#63b8ff" stroke="#63b8ff" points="56.28,-28.95 52.41,-19.09 49.29,-29.21 56.28,-28.95"/>
</a>
</g>
</g>
<!-- Node28&#45;&gt;Node17 -->
<g id="edge42_Node000028_Node000017" class="edge">
<title>Node28&#45;&gt;Node17</title>
<g id="a_edge42_Node000028_Node000017"><a xlink:title=" ">
<path fill="none" stroke="#63b8ff" d="M1044.91,-110.16C1109.43,-99.57 1219.37,-81.53 1277.83,-71.94"/>
<polygon fill="#63b8ff" stroke="#63b8ff" points="1278.48,-75.38 1287.78,-70.31 1277.34,-68.47 1278.48,-75.38"/>
</a>
</g>
</g>
<!-- Node28&#45;&gt;Node20 -->
<g id="edge38_Node000028_Node000020" class="edge">
<title>Node28&#45;&gt;Node20</title>
<g id="a_edge38_Node000028_Node000020"><a xlink:title=" ">
<path fill="none" stroke="#63b8ff" d="M971.75,-109.98C948.89,-101.27 913.13,-87.63 887.22,-77.75"/>
<polygon fill="#63b8ff" stroke="#63b8ff" points="888.41,-74.46 877.82,-74.17 885.92,-81 888.41,-74.46"/>
</a>
</g>
</g>
<!-- Node28&#45;&gt;Node21 -->
<g id="edge39_Node000028_Node000021" class="edge">
<title>Node28&#45;&gt;Node21</title>
<g id="a_edge39_Node000028_Node000021"><a xlink:title=" ">
<path fill="none" stroke="#63b8ff" d="M999.08,-109.75C1007.68,-95.58 1026.75,-67.92 1051.08,-55 1094.37,-32.03 1226.59,-19.8 1308.13,-14.28"/>
<polygon fill="#63b8ff" stroke="#63b8ff" points="1308.56,-17.76 1318.31,-13.6 1308.1,-10.77 1308.56,-17.76"/>
</a>
</g>
</g>
<!-- Node29 -->
<g id="Node000029" class="node">
<title>Node29</title>
<g id="a_Node000029"><a xlink:href="IItemReceiver_8h.html" target="_top" xlink:title=" ">
<polygon fill="white" stroke="#666666" points="682.58,-74 571.58,-74 571.58,-55 682.58,-55 682.58,-74"/>
<text text-anchor="middle" x="627.08" y="-62" font-family="Helvetica,sans-Serif" font-size="10.00">api/IItemReceiver.h</text>
</a>
</g>
</g>
<!-- Node28&#45;&gt;Node29 -->
<g id="edge34_Node000028_Node000029" class="edge">
<title>Node28&#45;&gt;Node29</title>
<g id="a_edge34_Node000028_Node000029"><a xlink:title=" ">
<path fill="none" stroke="#63b8ff" d="M943.44,-111.19C878.22,-101.77 764.73,-85.38 692.89,-75"/>
<polygon fill="#63b8ff" stroke="#63b8ff" points="693,-71.48 682.6,-73.52 692,-78.41 693,-71.48"/>
</a>
</g>
</g>
<!-- Node30 -->
<g id="Node000030" class="node">
<title>Node30</title>
<g id="a_Node000030"><a xlink:href="IItemSender_8h.html" target="_top" xlink:title=" ">
<polygon fill="white" stroke="#666666" points="803.08,-74 701.08,-74 701.08,-55 803.08,-55 803.08,-74"/>
<text text-anchor="middle" x="752.08" y="-62" font-family="Helvetica,sans-Serif" font-size="10.00">api/IItemSender.h</text>
</a>
</g>
</g>
<!-- Node28&#45;&gt;Node30 -->
<g id="edge36_Node000028_Node000030" class="edge">
<title>Node28&#45;&gt;Node30</title>
<g id="a_edge36_Node000028_Node000030"><a xlink:title=" ">
<path fill="none" stroke="#63b8ff" d="M955.2,-109.98C913.34,-100.82 846.66,-86.21 801.2,-76.26"/>
<polygon fill="#63b8ff" stroke="#63b8ff" points="801.79,-72.8 791.27,-74.08 800.29,-79.64 801.79,-72.8"/>
</a>
</g>
</g>
<!-- Node31 -->
<g id="Node000031" class="node">
<title>Node31</title>
<g id="a_Node000031"><a xlink:title=" ">
<polygon fill="#e0e0e0" stroke="#999999" points="1003.58,-74 906.58,-74 906.58,-55 1003.58,-55 1003.58,-74"/>
<text text-anchor="middle" x="955.08" y="-62" font-family="Helvetica,sans-Serif" font-size="10.00">freertos/queue.h</text>
</a>
</g>
</g>
<!-- Node28&#45;&gt;Node31 -->
<g id="edge40_Node000028_Node000031" class="edge">
<title>Node28&#45;&gt;Node31</title>
<g id="a_edge40_Node000028_Node000031"><a xlink:title=" ">
<path fill="none" stroke="#63b8ff" d="M987.64,-109.75C982.19,-102.34 974.22,-91.5 967.53,-82.41"/>
<polygon fill="#63b8ff" stroke="#63b8ff" points="970.15,-80.07 961.41,-74.09 964.51,-84.22 970.15,-80.07"/>
</a>
</g>
</g>
<!-- Node32 -->
<g id="Node000032" class="node">
<title>Node32</title>
<g id="a_Node000032"><a xlink:title=" ">
<polygon fill="#e0e0e0" stroke="#999999" points="1231.58,-74 1166.58,-74 1166.58,-55 1231.58,-55 1231.58,-74"/>
<text text-anchor="middle" x="1199.08" y="-62" font-family="Helvetica,sans-Serif" font-size="10.00">functional</text>
</a>
</g>
</g>
<!-- Node28&#45;&gt;Node32 -->
<g id="edge41_Node000028_Node000032" class="edge">
<title>Node28&#45;&gt;Node32</title>
<g id="a_edge41_Node000028_Node000032"><a xlink:title=" ">
<path fill="none" stroke="#63b8ff" d="M1027.02,-109.98C1062.24,-100.88 1118.21,-86.41 1156.7,-76.46"/>
<polygon fill="#63b8ff" stroke="#63b8ff" points="1157.76,-79.8 1166.57,-73.91 1156.01,-73.02 1157.76,-79.8"/>
</a>
</g>
</g>
<!-- Node29&#45;&gt;Node4 -->
<g id="edge35_Node000029_Node000004" class="edge">
<title>Node29&#45;&gt;Node4</title>
<g id="a_edge35_Node000029_Node000004"><a xlink:title=" ">
<path fill="none" stroke="#63b8ff" d="M613.59,-54.98C600.68,-46.84 580.98,-34.41 565.68,-24.76"/>
<polygon fill="#63b8ff" stroke="#63b8ff" points="567.15,-21.55 556.83,-19.17 563.42,-27.47 567.15,-21.55"/>
</a>
</g>
</g>
<!-- Node30&#45;&gt;Node4 -->
<g id="edge37_Node000030_Node000004" class="edge">
<title>Node30&#45;&gt;Node4</title>
<g id="a_edge37_Node000030_Node000004"><a xlink:title=" ">
<path fill="none" stroke="#63b8ff" d="M718.51,-54.98C680.05,-45.23 617.35,-29.33 578.25,-19.42"/>
<polygon fill="#63b8ff" stroke="#63b8ff" points="578.92,-15.98 568.36,-16.91 577.2,-22.76 578.92,-15.98"/>
</a>
</g>
</g>
<!-- Node33&#45;&gt;Node21 -->
<g id="edge46_Node000033_Node000021" class="edge">
<title>Node33&#45;&gt;Node21</title>
<g id="a_edge46_Node000033_Node000021"><a xlink:title=" ">
<path fill="none" stroke="#63b8ff" d="M1866.59,-109.98C1898.24,-98.84 1943.3,-78.01 1922.08,-55 1890.15,-20.36 1581.01,-12.68 1442.09,-10.98"/>
<polygon fill="#63b8ff" stroke="#63b8ff" points="1442.03,-7.48 1431.99,-10.87 1441.95,-14.48 1442.03,-7.48"/>
</a>
</g>
</g>
<!-- Node34 -->
<g id="Node000034" class="node">
<title>Node34</title>
<g id="a_Node000034"><a xlink:href="IMutex_8h.html" target="_top" xlink:title=" ">
<polygon fill="white" stroke="#666666" points="1912.58,-74 1835.58,-74 1835.58,-55 1912.58,-55 1912.58,-74"/>
<text text-anchor="middle" x="1874.08" y="-62" font-family="Helvetica,sans-Serif" font-size="10.00">api/IMutex.h</text>
</a>
</g>
</g>
<!-- Node33&#45;&gt;Node34 -->
<g id="edge44_Node000033_Node000034" class="edge">
<title>Node33&#45;&gt;Node34</title>
<g id="a_edge44_Node000033_Node000034"><a xlink:title=" ">
<path fill="none" stroke="#63b8ff" d="M1844.86,-109.75C1849.71,-102.42 1856.76,-91.73 1862.73,-82.7"/>
<polygon fill="#63b8ff" stroke="#63b8ff" points="1865.82,-84.36 1868.41,-74.09 1859.98,-80.5 1865.82,-84.36"/>
</a>
</g>
</g>
<!-- Node35 -->
<g id="Node000035" class="node">
<title>Node35</title>
<g id="a_Node000035"><a xlink:title=" ">
<polygon fill="#e0e0e0" stroke="#999999" points="1817.58,-74 1714.58,-74 1714.58,-55 1817.58,-55 1817.58,-74"/>
<text text-anchor="middle" x="1766.08" y="-62" font-family="Helvetica,sans-Serif" font-size="10.00">freertos/semphr.h</text>
</a>
</g>
</g>
<!-- Node33&#45;&gt;Node35 -->
<g id="edge47_Node000033_Node000035" class="edge">
<title>Node33&#45;&gt;Node35</title>
<g id="a_edge47_Node000033_Node000035"><a xlink:title=" ">
<path fill="none" stroke="#63b8ff" d="M1827.36,-109.98C1816.35,-102 1799.66,-89.88 1786.48,-80.31"/>
<polygon fill="#63b8ff" stroke="#63b8ff" points="1788.18,-77.21 1778.03,-74.17 1784.06,-82.88 1788.18,-77.21"/>
</a>
</g>
</g>
<!-- Node34&#45;&gt;Node4 -->
<g id="edge45_Node000034_Node000004" class="edge">
<title>Node34&#45;&gt;Node4</title>
<g id="a_edge45_Node000034_Node000004"><a xlink:title=" ">
<path fill="none" stroke="#63b8ff" d="M1835.42,-56.05C1832.61,-55.65 1829.81,-55.29 1827.08,-55 1575.11,-27.99 758.81,-13.87 578.54,-11.04"/>
<polygon fill="#63b8ff" stroke="#63b8ff" points="578.35,-7.53 568.29,-10.88 578.24,-14.53 578.35,-7.53"/>
</a>
</g>
</g>
<!-- Node36&#45;&gt;Node21 -->
<g id="edge51_Node000036_Node000021" class="edge">
<title>Node36&#45;&gt;Node21</title>
<g id="a_edge51_Node000036_Node000021"><a xlink:title=" ">
<path fill="none" stroke="#63b8ff" d="M1712.32,-109.8C1704.1,-95.7 1685.82,-68.13 1662.08,-55 1625.27,-34.63 1514.47,-21.9 1441.8,-15.52"/>
<polygon fill="#63b8ff" stroke="#63b8ff" points="1442.08,-12.03 1431.81,-14.66 1441.48,-19 1442.08,-12.03"/>
</a>
</g>
</g>
<!-- Node36&#45;&gt;Node35 -->
<g id="edge52_Node000036_Node000035" class="edge">
<title>Node36&#45;&gt;Node35</title>
<g id="a_edge52_Node000036_Node000035"><a xlink:title=" ">
<path fill="none" stroke="#63b8ff" d="M1725.18,-109.75C1732.24,-102.11 1742.67,-90.82 1751.23,-81.56"/>
<polygon fill="#63b8ff" stroke="#63b8ff" points="1753.93,-83.81 1758.14,-74.09 1748.79,-79.06 1753.93,-83.81"/>
</a>
</g>
</g>
<!-- Node37 -->
<g id="Node000037" class="node">
<title>Node37</title>
<g id="a_Node000037"><a xlink:href="ISemaphore_8h.html" target="_top" xlink:title=" ">
<polygon fill="white" stroke="#666666" points="1620.08,-74 1518.08,-74 1518.08,-55 1620.08,-55 1620.08,-74"/>
<text text-anchor="middle" x="1569.08" y="-62" font-family="Helvetica,sans-Serif" font-size="10.00">api/ISemaphore.h</text>
</a>
</g>
</g>
<!-- Node36&#45;&gt;Node37 -->
<g id="edge49_Node000036_Node000037" class="edge">
<title>Node36&#45;&gt;Node37</title>
<g id="a_edge49_Node000036_Node000037"><a xlink:title=" ">
<path fill="none" stroke="#63b8ff" d="M1693.31,-109.98C1668.85,-101.23 1630.55,-87.51 1602.94,-77.62"/>
<polygon fill="#63b8ff" stroke="#63b8ff" points="1603.89,-74.25 1593.3,-74.17 1601.53,-80.84 1603.89,-74.25"/>
</a>
</g>
</g>
<!-- Node37&#45;&gt;Node4 -->
<g id="edge50_Node000037_Node000004" class="edge">
<title>Node37&#45;&gt;Node4</title>
<g id="a_edge50_Node000037_Node000004"><a xlink:title=" ">
<path fill="none" stroke="#63b8ff" d="M1518,-58.69C1502.9,-57.37 1486.33,-56.03 1471.08,-55 1123.5,-31.6 701.87,-16.01 578.55,-11.71"/>
<polygon fill="#63b8ff" stroke="#63b8ff" points="578.32,-8.2 568.2,-11.35 578.08,-15.19 578.32,-8.2"/>
</a>
</g>
</g>
<!-- Node38&#45;&gt;Node17 -->
<g id="edge57_Node000038_Node000017" class="edge">
<title>Node38&#45;&gt;Node17</title>
<g id="a_edge57_Node000038_Node000017"><a xlink:title=" ">
<path fill="none" stroke="#63b8ff" d="M1269.24,-109.98C1277.59,-102.23 1290.12,-90.58 1300.26,-81.14"/>
<polygon fill="#63b8ff" stroke="#63b8ff" points="1302.82,-83.54 1307.76,-74.17 1298.05,-78.42 1302.82,-83.54"/>
</a>
</g>
</g>
<!-- Node38&#45;&gt;Node21 -->
<g id="edge54_Node000038_Node000021" class="edge">
<title>Node38&#45;&gt;Node21</title>
<g id="a_edge54_Node000038_Node000021"><a xlink:title=" ">
<path fill="none" stroke="#63b8ff" d="M1260.49,-109.62C1261.56,-96.25 1265.37,-70.83 1279.08,-55 1292.28,-39.77 1311.79,-29.42 1329.78,-22.57"/>
<polygon fill="#63b8ff" stroke="#63b8ff" points="1331.31,-25.74 1339.57,-19.11 1328.98,-19.14 1331.31,-25.74"/>
</a>
</g>
</g>
<!-- Node38&#45;&gt;Node32 -->
<g id="edge56_Node000038_Node000032" class="edge">
<title>Node38&#45;&gt;Node32</title>
<g id="a_edge56_Node000038_Node000032"><a xlink:title=" ">
<path fill="none" stroke="#63b8ff" d="M1250.28,-109.98C1241.27,-102.15 1227.68,-90.34 1216.77,-80.86"/>
<polygon fill="#63b8ff" stroke="#63b8ff" points="1218.91,-78.09 1209.06,-74.17 1214.32,-83.37 1218.91,-78.09"/>
</a>
</g>
</g>
<!-- Node39 -->
<g id="Node000039" class="node">
<title>Node39</title>
<g id="a_Node000039"><a xlink:title=" ">
<polygon fill="#e0e0e0" stroke="#999999" points="1148.08,-74 1060.08,-74 1060.08,-55 1148.08,-55 1148.08,-74"/>
<text text-anchor="middle" x="1104.08" y="-62" font-family="Helvetica,sans-Serif" font-size="10.00">freertos/task.h</text>
</a>
</g>
</g>
<!-- Node38&#45;&gt;Node39 -->
<g id="edge55_Node000038_Node000039" class="edge">
<title>Node38&#45;&gt;Node39</title>
<g id="a_edge55_Node000038_Node000039"><a xlink:title=" ">
<path fill="none" stroke="#63b8ff" d="M1236.39,-110.45C1210.43,-101.63 1168.54,-87.4 1138.85,-77.31"/>
<polygon fill="#63b8ff" stroke="#63b8ff" points="1139.89,-73.97 1129.3,-74.07 1137.64,-80.6 1139.89,-73.97"/>
</a>
</g>
</g>
<!-- Node40&#45;&gt;Node17 -->
<g id="edge62_Node000040_Node000017" class="edge">
<title>Node40&#45;&gt;Node17</title>
<g id="a_edge62_Node000040_Node000017"><a xlink:title=" ">
<path fill="none" stroke="#63b8ff" d="M1360.5,-109.75C1352.93,-102.03 1341.71,-90.6 1332.57,-81.28"/>
<polygon fill="#63b8ff" stroke="#63b8ff" points="1335.01,-78.78 1325.51,-74.09 1330.02,-83.68 1335.01,-78.78"/>
</a>
</g>
</g>
<!-- Node40&#45;&gt;Node21 -->
<g id="edge59_Node000040_Node000021" class="edge">
<title>Node40&#45;&gt;Node21</title>
<g id="a_edge59_Node000040_Node000021"><a xlink:title=" ">
<path fill="none" stroke="#63b8ff" d="M1395.59,-115.07C1419.87,-110.36 1454.47,-99.38 1471.08,-74 1487.11,-49.53 1453.43,-32.29 1421.64,-22"/>
<polygon fill="#63b8ff" stroke="#63b8ff" points="1422.48,-18.6 1411.9,-19.03 1420.44,-25.29 1422.48,-18.6"/>
</a>
</g>
</g>
<!-- Node40&#45;&gt;Node32 -->
<g id="edge61_Node000040_Node000032" class="edge">
<title>Node40&#45;&gt;Node32</title>
<g id="a_edge61_Node000040_Node000032"><a xlink:title=" ">
<path fill="none" stroke="#63b8ff" d="M1342.52,-110.22C1314.04,-101.34 1268.59,-87.17 1236.5,-77.16"/>
<polygon fill="#63b8ff" stroke="#63b8ff" points="1237.18,-73.71 1226.59,-74.07 1235.09,-80.39 1237.18,-73.71"/>
</a>
</g>
</g>
<!-- Node41 -->
<g id="Node000041" class="node">
<title>Node41</title>
<g id="a_Node000041"><a xlink:title=" ">
<polygon fill="#e0e0e0" stroke="#999999" points="1462.08,-74 1364.08,-74 1364.08,-55 1462.08,-55 1462.08,-74"/>
<text text-anchor="middle" x="1413.08" y="-62" font-family="Helvetica,sans-Serif" font-size="10.00">freertos/timers.h</text>
</a>
</g>
</g>
<!-- Node40&#45;&gt;Node41 -->
<g id="edge60_Node000040_Node000041" class="edge">
<title>Node40&#45;&gt;Node41</title>
<g id="a_edge60_Node000040_Node000041"><a xlink:title=" ">
<path fill="none" stroke="#63b8ff" d="M1376.35,-109.75C1382.63,-102.18 1391.87,-91.05 1399.52,-81.84"/>
<polygon fill="#63b8ff" stroke="#63b8ff" points="1402.26,-84.02 1405.95,-74.09 1396.87,-79.55 1402.26,-84.02"/>
</a>
</g>
</g>
</g>
</svg>

<g id="navigator" transform="translate(0 0)" fill="#404254">
  <rect fill="#f2f5e9" fill-opacity="0.5" stroke="#606060" stroke-width=".5" x="0" y="0" width="60" height="60"/>
  <use id="zoomplus" xlink:href="#zoomPlus" x="17" y="9" onmousedown="handleZoom(evt,'in')"/>
  <use id="zoomminus" xlink:href="#zoomMin" x="42" y="9" onmousedown="handleZoom(evt,'out')"/>
  <use id="reset" xlink:href="#resetDef" x="30" y="36" onmousedown="handleReset()"/>
   <use id="arrowup" xlink:href="#arrowUp" x="0" y="0" onmousedown="handlePan(0,-1)"/>
  <use id="arrowright" xlink:href="#arrowRight" x="0" y="0" onmousedown="handlePan(1,0)"/>
  <use id="arrowdown" xlink:href="#arrowDown" x="0" y="0" onmousedown="handlePan(0,1)"/>
  <use id="arrowleft" xlink:href="#arrowLeft" x="0" y="0" onmousedown="handlePan(-1,0)"/>
</g>
<svg viewBox="0 0 15 15" width="100%" height="30px" preserveAspectRatio="xMaxYMin meet">
 <g id="arrow_out" transform="scale(0.3 0.3)">
  <a xlink:href="BLE__Server_8hpp__incl_org.svg" target="_base">
   <rect id="button" ry="5" rx="5" y="6" x="6" height="38" width="38"
        fill="#f2f5e9" fill-opacity="0.5" stroke="#606060" stroke-width="1.0"/>
   <path id="arrow"
     d="M 11.500037,31.436501 C 11.940474,20.09759 22.043105,11.32322 32.158766,21.979434 L 37.068811,17.246167 C 37.068811,17.246167 37.088388,32 37.088388,32 L 22.160133,31.978069 C 22.160133,31.978069 26.997745,27.140456 26.997745,27.140456 C 18.528582,18.264221 13.291696,25.230495 11.500037,31.436501 z"
     style="fill:#404040;"/>
  </a>
 </g>
</svg>

<style type='text/css'>
<![CDATA[
[data-mouse-over-selected='false'] { opacity: 0.7; }
[data-mouse-over-selected='true']  { opacity: 1.0; }
]]>
</style>
<script type="application/ecmascript"><![CDATA[
document.addEventListener('DOMContentLoaded', (event) => {
  highlightEdges();
  highlightAdjacentNodes();
});
]]></script>
</svg>
