<?xml version="1.0" encoding="UTF-8" standalone="no"?>
<!DOCTYPE svg PUBLIC "-//W3C//DTD SVG 1.1//EN"
 "http://www.w3.org/Graphics/SVG/1.1/DTD/svg11.dtd">
<!-- Generated by graphviz version 2.43.0 (0)
 -->
<!-- Title: main/include/BLE_Config.hpp Pages: 1 -->
<svg width="548pt" height="192pt"
 viewBox="0.00 0.00 547.50 192.00" xmlns="http://www.w3.org/2000/svg" xmlns:xlink="http://www.w3.org/1999/xlink">
<g id="graph0" class="graph" transform="scale(1 1) rotate(0) translate(4 188)">
<title>main/include/BLE_Config.hpp</title>
<!-- Node1 -->
<g id="Node000001" class="node">
<title>Node1</title>
<g id="a_Node000001"><a xlink:title="Configuration file containing default values and structures for BLE server and client.">
<polygon fill="#999999" stroke="#666666" points="338,-184 180,-184 180,-165 338,-165 338,-184"/>
<text text-anchor="middle" x="259" y="-172" font-family="Helvetica,sans-Serif" font-size="10.00">main/include/BLE_Config.hpp</text>
</a>
</g>
</g>
<!-- Node2 -->
<g id="Node000002" class="node">
<title>Node2</title>
<g id="a_Node000002"><a xlink:href="Bluetooth_8hpp.html" target="_top" xlink:title="Defines the Bluetooth abstract base class for BLE communication.">
<polygon fill="white" stroke="#666666" points="334.5,-129 183.5,-129 183.5,-110 334.5,-110 334.5,-129"/>
<text text-anchor="middle" x="259" y="-117" font-family="Helvetica,sans-Serif" font-size="10.00">main/include/Bluetooth.hpp</text>
</a>
</g>
</g>
<!-- Node1&#45;&gt;Node2 -->
<g id="edge1_Node000001_Node000002" class="edge">
<title>Node1&#45;&gt;Node2</title>
<g id="a_edge1_Node000001_Node000002"><a xlink:title=" ">
<path fill="none" stroke="#63b8ff" d="M252.51,-154.66C251.91,-145.93 252.36,-135.99 253.87,-129.09"/>
<polygon fill="#63b8ff" stroke="#63b8ff" points="249.06,-155.29 253.83,-164.75 256,-154.38 249.06,-155.29"/>
</a>
</g>
</g>
<!-- Node2&#45;&gt;Node1 -->
<g id="edge5_Node000002_Node000001" class="edge">
<title>Node2&#45;&gt;Node1</title>
<g id="a_edge5_Node000002_Node000001"><a xlink:title=" ">
<path fill="none" stroke="#63b8ff" d="M265.48,-139.13C266.1,-147.85 265.66,-157.8 264.17,-164.75"/>
<polygon fill="#63b8ff" stroke="#63b8ff" points="268.93,-138.53 264.13,-129.09 261.99,-139.47 268.93,-138.53"/>
</a>
</g>
</g>
<!-- Node3 -->
<g id="Node000003" class="node">
<title>Node3</title>
<g id="a_Node000003"><a xlink:href="BLE__Client_8hpp.html" target="_top" xlink:title="Header file for the BLE_Client class, which implements a BLE (Bluetooth Low Energy) client.">
<polygon fill="white" stroke="#666666" points="177.5,-74 22.5,-74 22.5,-55 177.5,-55 177.5,-74"/>
<text text-anchor="middle" x="100" y="-62" font-family="Helvetica,sans-Serif" font-size="10.00">main/include/BLE_Client.hpp</text>
</a>
</g>
</g>
<!-- Node2&#45;&gt;Node3 -->
<g id="edge2_Node000002_Node000003" class="edge">
<title>Node2&#45;&gt;Node3</title>
<g id="a_edge2_Node000002_Node000003"><a xlink:title=" ">
<path fill="none" stroke="#63b8ff" d="M223.9,-106.8C194.22,-96.91 152.4,-82.97 125.75,-74.08"/>
<polygon fill="#63b8ff" stroke="#63b8ff" points="222.86,-110.14 233.45,-109.98 225.07,-103.5 222.86,-110.14"/>
</a>
</g>
</g>
<!-- Node5 -->
<g id="Node000005" class="node">
<title>Node5</title>
<g id="a_Node000005"><a xlink:href="main_8cpp.html" target="_top" xlink:title=" ">
<polygon fill="white" stroke="#666666" points="259.5,-19 152.5,-19 152.5,0 259.5,0 259.5,-19"/>
<text text-anchor="middle" x="206" y="-7" font-family="Helvetica,sans-Serif" font-size="10.00">main/src/main.cpp</text>
</a>
</g>
</g>
<!-- Node2&#45;&gt;Node5 -->
<g id="edge10_Node000002_Node000005" class="edge">
<title>Node2&#45;&gt;Node5</title>
<g id="a_edge10_Node000002_Node000005"><a xlink:title=" ">
<path fill="none" stroke="#63b8ff" d="M244.22,-102.15C237.59,-94.13 230.13,-84.05 225,-74 215.59,-55.55 210.02,-31.65 207.54,-19.09"/>
<polygon fill="#63b8ff" stroke="#63b8ff" points="241.76,-104.65 250.94,-109.95 247.06,-100.09 241.76,-104.65"/>
</a>
</g>
</g>
<!-- Node6 -->
<g id="Node000006" class="node">
<title>Node6</title>
<g id="a_Node000006"><a xlink:href="BLE__Server_8hpp.html" target="_top" xlink:title="Header file for the BLE_Server class, which implements a Bluetooth Low Energy (BLE) server.">
<polygon fill="white" stroke="#666666" points="392,-74 234,-74 234,-55 392,-55 392,-74"/>
<text text-anchor="middle" x="313" y="-62" font-family="Helvetica,sans-Serif" font-size="10.00">main/include/BLE_Server.hpp</text>
</a>
</g>
</g>
<!-- Node2&#45;&gt;Node6 -->
<g id="edge6_Node000002_Node000006" class="edge">
<title>Node2&#45;&gt;Node6</title>
<g id="a_edge6_Node000002_Node000006"><a xlink:title=" ">
<path fill="none" stroke="#63b8ff" d="M275.28,-102.52C284.8,-93.18 296.44,-81.75 304.25,-74.09"/>
<polygon fill="#63b8ff" stroke="#63b8ff" points="272.6,-100.25 267.92,-109.75 277.51,-105.24 272.6,-100.25"/>
</a>
</g>
</g>
<!-- Node8 -->
<g id="Node000008" class="node">
<title>Node8</title>
<g id="a_Node000008"><a xlink:href="Bluetooth_8cpp.html" target="_top" xlink:title="Implementation of the Bluetooth base class.">
<polygon fill="white" stroke="#666666" points="539.5,-74 410.5,-74 410.5,-55 539.5,-55 539.5,-74"/>
<text text-anchor="middle" x="475" y="-62" font-family="Helvetica,sans-Serif" font-size="10.00">main/src/Bluetooth.cpp</text>
</a>
</g>
</g>
<!-- Node2&#45;&gt;Node8 -->
<g id="edge9_Node000002_Node000008" class="edge">
<title>Node2&#45;&gt;Node8</title>
<g id="a_edge9_Node000002_Node000008"><a xlink:title=" ">
<path fill="none" stroke="#63b8ff" d="M303.57,-107.56C344.02,-97.64 402.87,-83.2 440.02,-74.08"/>
<polygon fill="#63b8ff" stroke="#63b8ff" points="302.58,-104.2 293.7,-109.98 304.25,-111 302.58,-104.2"/>
</a>
</g>
</g>
<!-- Node4 -->
<g id="Node000004" class="node">
<title>Node4</title>
<g id="a_Node000004"><a xlink:href="BLE__Client_8cpp.html" target="_top" xlink:title="Implementation of the BLE_Client class for managing BLE client functionality.">
<polygon fill="white" stroke="#666666" points="134,-19 0,-19 0,0 134,0 134,-19"/>
<text text-anchor="middle" x="67" y="-7" font-family="Helvetica,sans-Serif" font-size="10.00">main/src/BLE_Client.cpp</text>
</a>
</g>
</g>
<!-- Node3&#45;&gt;Node4 -->
<g id="edge3_Node000003_Node000004" class="edge">
<title>Node3&#45;&gt;Node4</title>
<g id="a_edge3_Node000003_Node000004"><a xlink:title=" ">
<path fill="none" stroke="#63b8ff" d="M89.17,-46.1C83.53,-37.04 76.88,-26.37 72.35,-19.09"/>
<polygon fill="#63b8ff" stroke="#63b8ff" points="86.29,-48.11 94.55,-54.75 92.24,-44.41 86.29,-48.11"/>
</a>
</g>
</g>
<!-- Node3&#45;&gt;Node5 -->
<g id="edge4_Node000003_Node000005" class="edge">
<title>Node3&#45;&gt;Node5</title>
<g id="a_edge4_Node000003_Node000005"><a xlink:title=" ">
<path fill="none" stroke="#63b8ff" d="M126,-50.5C145.5,-40.75 171.65,-27.68 188.66,-19.17"/>
<polygon fill="#63b8ff" stroke="#63b8ff" points="124.41,-47.38 117.03,-54.98 127.54,-53.64 124.41,-47.38"/>
</a>
</g>
</g>
<!-- Node6&#45;&gt;Node5 -->
<g id="edge8_Node000006_Node000005" class="edge">
<title>Node6&#45;&gt;Node5</title>
<g id="a_edge8_Node000006_Node000005"><a xlink:title=" ">
<path fill="none" stroke="#63b8ff" d="M286.76,-50.5C267.07,-40.75 240.68,-27.68 223.5,-19.17"/>
<polygon fill="#63b8ff" stroke="#63b8ff" points="285.29,-53.68 295.81,-54.98 288.4,-47.41 285.29,-53.68"/>
</a>
</g>
</g>
<!-- Node7 -->
<g id="Node000007" class="node">
<title>Node7</title>
<g id="a_Node000007"><a xlink:href="BLE__Server_8cpp.html" target="_top" xlink:title="Implementation of the BLE_Server class for managing BLE server functionality.">
<polygon fill="white" stroke="#666666" points="414,-19 278,-19 278,0 414,0 414,-19"/>
<text text-anchor="middle" x="346" y="-7" font-family="Helvetica,sans-Serif" font-size="10.00">main/src/BLE_Server.cpp</text>
</a>
</g>
</g>
<!-- Node6&#45;&gt;Node7 -->
<g id="edge7_Node000006_Node000007" class="edge">
<title>Node6&#45;&gt;Node7</title>
<g id="a_edge7_Node000006_Node000007"><a xlink:title=" ">
<path fill="none" stroke="#63b8ff" d="M323.83,-46.1C329.47,-37.04 336.12,-26.37 340.65,-19.09"/>
<polygon fill="#63b8ff" stroke="#63b8ff" points="320.76,-44.41 318.45,-54.75 326.71,-48.11 320.76,-44.41"/>
</a>
</g>
</g>
</g>
</svg>
