<?xml version="1.0" encoding="UTF-8" standalone="no"?>
<!DOCTYPE svg PUBLIC "-//W3C//DTD SVG 1.1//EN"
 "http://www.w3.org/Graphics/SVG/1.1/DTD/svg11.dtd">
<!-- Generated by graphviz version 2.43.0 (0)
 -->
<!-- Title: main/include/BLE_Config.hpp Pages: 1 -->
<svg width="1943pt" height="357pt"
 viewBox="0.00 0.00 1942.50 357.00" xmlns="http://www.w3.org/2000/svg" xmlns:xlink="http://www.w3.org/1999/xlink">
<g id="graph0" class="graph" transform="scale(1 1) rotate(0) translate(4 353)">
<title>main/include/BLE_Config.hpp</title>
<!-- Node1 -->
<g id="Node000001" class="node">
<title>Node1</title>
<g id="a_Node000001"><a xlink:title="Configuration file containing default values and structures for BLE server and client.">
<polygon fill="#999999" stroke="#666666" points="626.5,-349 468.5,-349 468.5,-330 626.5,-330 626.5,-349"/>
<text text-anchor="middle" x="547.5" y="-337" font-family="Helvetica,sans-Serif" font-size="10.00">main/include/BLE_Config.hpp</text>
</a>
</g>
</g>
<!-- Node2 -->
<g id="Node000002" class="node">
<title>Node2</title>
<g id="a_Node000002"><a xlink:href="Bluetooth_8hpp.html" target="_top" xlink:title="Defines the Bluetooth abstract base class for BLE communication.">
<polygon fill="white" stroke="#666666" points="590,-294 505,-294 505,-275 590,-275 590,-294"/>
<text text-anchor="middle" x="547.5" y="-282" font-family="Helvetica,sans-Serif" font-size="10.00">Bluetooth.hpp</text>
</a>
</g>
</g>
<!-- Node1&#45;&gt;Node2 -->
<g id="edge1_Node000001_Node000002" class="edge">
<title>Node1&#45;&gt;Node2</title>
<g id="a_edge1_Node000001_Node000002"><a xlink:title=" ">
<path fill="none" stroke="#63b8ff" d="M542.33,-329.75C540.84,-322.8 540.4,-312.85 541.02,-304.13"/>
<polygon fill="#63b8ff" stroke="#63b8ff" points="544.51,-304.47 542.37,-294.09 537.57,-303.53 544.51,-304.47"/>
</a>
</g>
</g>
<!-- Node2&#45;&gt;Node1 -->
<g id="edge14_Node000002_Node000001" class="edge">
<title>Node2&#45;&gt;Node1</title>
<g id="a_edge14_Node000002_Node000001"><a xlink:title=" ">
<path fill="none" stroke="#63b8ff" d="M552.63,-294.09C554.14,-300.99 554.59,-310.93 553.99,-319.66"/>
<polygon fill="#63b8ff" stroke="#63b8ff" points="550.5,-319.38 552.67,-329.75 557.44,-320.29 550.5,-319.38"/>
</a>
</g>
</g>
<!-- Node3 -->
<g id="Node000003" class="node">
<title>Node3</title>
<g id="a_Node000003"><a xlink:title=" ">
<polygon fill="#e0e0e0" stroke="#999999" points="71.5,-239 27.5,-239 27.5,-220 71.5,-220 71.5,-239"/>
<text text-anchor="middle" x="49.5" y="-227" font-family="Helvetica,sans-Serif" font-size="10.00">string</text>
</a>
</g>
</g>
<!-- Node2&#45;&gt;Node3 -->
<g id="edge2_Node000002_Node000003" class="edge">
<title>Node2&#45;&gt;Node3</title>
<g id="a_edge2_Node000002_Node000003"><a xlink:title=" ">
<path fill="none" stroke="#63b8ff" d="M504.89,-281.34C423.13,-276.75 238.73,-264.35 85.5,-239 84.25,-238.79 82.98,-238.57 81.71,-238.33"/>
<polygon fill="#63b8ff" stroke="#63b8ff" points="82.38,-234.89 71.87,-236.28 80.95,-241.75 82.38,-234.89"/>
</a>
</g>
</g>
<!-- Node4 -->
<g id="Node000004" class="node">
<title>Node4</title>
<g id="a_Node000004"><a xlink:title=" ">
<polygon fill="#e0e0e0" stroke="#999999" points="443.5,-19 393.5,-19 393.5,0 443.5,0 443.5,-19"/>
<text text-anchor="middle" x="418.5" y="-7" font-family="Helvetica,sans-Serif" font-size="10.00">cstdint</text>
</a>
</g>
</g>
<!-- Node2&#45;&gt;Node4 -->
<g id="edge3_Node000002_Node000004" class="edge">
<title>Node2&#45;&gt;Node4</title>
<g id="a_edge3_Node000002_Node000004"><a xlink:title=" ">
<path fill="none" stroke="#63b8ff" d="M504.85,-281.74C402.24,-277.12 147.87,-263.33 118.5,-239 95.81,-220.21 99.5,-204.96 99.5,-175.5 99.5,-175.5 99.5,-175.5 99.5,-118.5 99.5,-80.58 123.29,-73.31 156.5,-55 194.98,-33.79 321.25,-19.51 383.36,-13.58"/>
<polygon fill="#63b8ff" stroke="#63b8ff" points="383.84,-17.06 393.47,-12.64 383.19,-10.09 383.84,-17.06"/>
</a>
</g>
</g>
<!-- Node5 -->
<g id="Node000005" class="node">
<title>Node5</title>
<g id="a_Node000005"><a xlink:title=" ">
<polygon fill="#e0e0e0" stroke="#999999" points="191,-239 128,-239 128,-220 191,-220 191,-239"/>
<text text-anchor="middle" x="159.5" y="-227" font-family="Helvetica,sans-Serif" font-size="10.00">esp_log.h</text>
</a>
</g>
</g>
<!-- Node2&#45;&gt;Node5 -->
<g id="edge4_Node000002_Node000005" class="edge">
<title>Node2&#45;&gt;Node5</title>
<g id="a_edge4_Node000002_Node000005"><a xlink:title=" ">
<path fill="none" stroke="#63b8ff" d="M504.74,-279.18C440.79,-272.46 316.25,-258.42 201.35,-239.2"/>
<polygon fill="#63b8ff" stroke="#63b8ff" points="201.77,-235.73 191.33,-237.51 200.61,-242.63 201.77,-235.73"/>
</a>
</g>
</g>
<!-- Node6 -->
<g id="Node000006" class="node">
<title>Node6</title>
<g id="a_Node000006"><a xlink:title=" ">
<polygon fill="#e0e0e0" stroke="#999999" points="280,-239 209,-239 209,-220 280,-220 280,-239"/>
<text text-anchor="middle" x="244.5" y="-227" font-family="Helvetica,sans-Serif" font-size="10.00">nvs_flash.h</text>
</a>
</g>
</g>
<!-- Node2&#45;&gt;Node6 -->
<g id="edge5_Node000002_Node000006" class="edge">
<title>Node2&#45;&gt;Node6</title>
<g id="a_edge5_Node000002_Node000006"><a xlink:title=" ">
<path fill="none" stroke="#63b8ff" d="M504.55,-276.31C455.32,-268.01 371.93,-253.82 290.3,-239.12"/>
<polygon fill="#63b8ff" stroke="#63b8ff" points="290.81,-235.66 280.35,-237.33 289.57,-242.55 290.81,-235.66"/>
</a>
</g>
</g>
<!-- Node7 -->
<g id="Node000007" class="node">
<title>Node7</title>
<g id="a_Node000007"><a xlink:title=" ">
<polygon fill="#e0e0e0" stroke="#999999" points="356.5,-239 298.5,-239 298.5,-220 356.5,-220 356.5,-239"/>
<text text-anchor="middle" x="327.5" y="-227" font-family="Helvetica,sans-Serif" font-size="10.00">esp_bt.h</text>
</a>
</g>
</g>
<!-- Node2&#45;&gt;Node7 -->
<g id="edge6_Node000002_Node000007" class="edge">
<title>Node2&#45;&gt;Node7</title>
<g id="a_edge6_Node000002_Node000007"><a xlink:title=" ">
<path fill="none" stroke="#63b8ff" d="M512.15,-274.98C472.4,-265.41 408.03,-249.9 366.74,-239.95"/>
<polygon fill="#63b8ff" stroke="#63b8ff" points="367.32,-236.49 356.78,-237.55 365.68,-243.3 367.32,-236.49"/>
</a>
</g>
</g>
<!-- Node8 -->
<g id="Node000008" class="node">
<title>Node8</title>
<g id="a_Node000008"><a xlink:title=" ">
<polygon fill="#e0e0e0" stroke="#999999" points="482,-239 375,-239 375,-220 482,-220 482,-239"/>
<text text-anchor="middle" x="428.5" y="-227" font-family="Helvetica,sans-Serif" font-size="10.00">esp_gap_ble_api.h</text>
</a>
</g>
</g>
<!-- Node2&#45;&gt;Node8 -->
<g id="edge7_Node000002_Node000008" class="edge">
<title>Node2&#45;&gt;Node8</title>
<g id="a_edge7_Node000002_Node000008"><a xlink:title=" ">
<path fill="none" stroke="#63b8ff" d="M528.38,-274.98C509.15,-266.42 479.27,-253.11 457.19,-243.28"/>
<polygon fill="#63b8ff" stroke="#63b8ff" points="458.53,-240.04 447.97,-239.17 455.68,-246.44 458.53,-240.04"/>
</a>
</g>
</g>
<!-- Node9 -->
<g id="Node000009" class="node">
<title>Node9</title>
<g id="a_Node000009"><a xlink:title=" ">
<polygon fill="#e0e0e0" stroke="#999999" points="594.5,-239 500.5,-239 500.5,-220 594.5,-220 594.5,-239"/>
<text text-anchor="middle" x="547.5" y="-227" font-family="Helvetica,sans-Serif" font-size="10.00">esp_gatt_defs.h</text>
</a>
</g>
</g>
<!-- Node2&#45;&gt;Node9 -->
<g id="edge8_Node000002_Node000009" class="edge">
<title>Node2&#45;&gt;Node9</title>
<g id="a_edge8_Node000002_Node000009"><a xlink:title=" ">
<path fill="none" stroke="#63b8ff" d="M547.5,-274.75C547.5,-267.8 547.5,-257.85 547.5,-249.13"/>
<polygon fill="#63b8ff" stroke="#63b8ff" points="551,-249.09 547.5,-239.09 544,-249.09 551,-249.09"/>
</a>
</g>
</g>
<!-- Node10 -->
<g id="Node000010" class="node">
<title>Node10</title>
<g id="a_Node000010"><a xlink:title=" ">
<polygon fill="#e0e0e0" stroke="#999999" points="748.5,-239 612.5,-239 612.5,-220 748.5,-220 748.5,-239"/>
<text text-anchor="middle" x="680.5" y="-227" font-family="Helvetica,sans-Serif" font-size="10.00">esp_gatt_common_api.h</text>
</a>
</g>
</g>
<!-- Node2&#45;&gt;Node10 -->
<g id="edge9_Node000002_Node000010" class="edge">
<title>Node2&#45;&gt;Node10</title>
<g id="a_edge9_Node000002_Node000010"><a xlink:title=" ">
<path fill="none" stroke="#63b8ff" d="M568.87,-274.98C590.65,-266.3 624.66,-252.75 649.42,-242.88"/>
<polygon fill="#63b8ff" stroke="#63b8ff" points="650.75,-246.12 658.74,-239.17 648.16,-239.62 650.75,-246.12"/>
</a>
</g>
</g>
<!-- Node11 -->
<g id="Node000011" class="node">
<title>Node11</title>
<g id="a_Node000011"><a xlink:title=" ">
<polygon fill="#e0e0e0" stroke="#999999" points="860,-239 767,-239 767,-220 860,-220 860,-239"/>
<text text-anchor="middle" x="813.5" y="-227" font-family="Helvetica,sans-Serif" font-size="10.00">esp_gatts_api.h</text>
</a>
</g>
</g>
<!-- Node2&#45;&gt;Node11 -->
<g id="edge10_Node000002_Node000011" class="edge">
<title>Node2&#45;&gt;Node11</title>
<g id="a_edge10_Node000002_Node000011"><a xlink:title=" ">
<path fill="none" stroke="#63b8ff" d="M590.24,-274.98C636.54,-265.76 710.48,-251.03 760.46,-241.07"/>
<polygon fill="#63b8ff" stroke="#63b8ff" points="761.3,-244.47 770.43,-239.08 759.94,-237.6 761.3,-244.47"/>
</a>
</g>
</g>
<!-- Node12 -->
<g id="Node000012" class="node">
<title>Node12</title>
<g id="a_Node000012"><a xlink:title=" ">
<polygon fill="#e0e0e0" stroke="#999999" points="971,-239 878,-239 878,-220 971,-220 971,-239"/>
<text text-anchor="middle" x="924.5" y="-227" font-family="Helvetica,sans-Serif" font-size="10.00">esp_gattc_api.h</text>
</a>
</g>
</g>
<!-- Node2&#45;&gt;Node12 -->
<g id="edge11_Node000002_Node000012" class="edge">
<title>Node2&#45;&gt;Node12</title>
<g id="a_edge11_Node000002_Node000012"><a xlink:title=" ">
<path fill="none" stroke="#63b8ff" d="M590.24,-277.81C650.02,-269.81 762.25,-254.62 867.81,-239.23"/>
<polygon fill="#63b8ff" stroke="#63b8ff" points="868.61,-242.65 878,-237.74 867.6,-235.72 868.61,-242.65"/>
</a>
</g>
</g>
<!-- Node13 -->
<g id="Node000013" class="node">
<title>Node13</title>
<g id="a_Node000013"><a xlink:title=" ">
<polygon fill="#e0e0e0" stroke="#999999" points="1077.5,-239 989.5,-239 989.5,-220 1077.5,-220 1077.5,-239"/>
<text text-anchor="middle" x="1033.5" y="-227" font-family="Helvetica,sans-Serif" font-size="10.00">esp_bt_main.h</text>
</a>
</g>
</g>
<!-- Node2&#45;&gt;Node13 -->
<g id="edge12_Node000002_Node000013" class="edge">
<title>Node2&#45;&gt;Node13</title>
<g id="a_edge12_Node000002_Node000013"><a xlink:title=" ">
<path fill="none" stroke="#63b8ff" d="M590,-279.94C665.94,-273.39 830.17,-258.46 979.04,-239.12"/>
<polygon fill="#63b8ff" stroke="#63b8ff" points="979.82,-242.55 989.28,-237.78 978.91,-235.61 979.82,-242.55"/>
</a>
</g>
</g>
<!-- Node14 -->
<g id="Node000014" class="node">
<title>Node14</title>
<g id="a_Node000014"><a xlink:title=" ">
<polygon fill="#e0e0e0" stroke="#999999" points="1165,-239 1096,-239 1096,-220 1165,-220 1165,-239"/>
<text text-anchor="middle" x="1130.5" y="-227" font-family="Helvetica,sans-Serif" font-size="10.00">esp_mac.h</text>
</a>
</g>
</g>
<!-- Node2&#45;&gt;Node14 -->
<g id="edge13_Node000002_Node000014" class="edge">
<title>Node2&#45;&gt;Node14</title>
<g id="a_edge13_Node000002_Node000014"><a xlink:title=" ">
<path fill="none" stroke="#63b8ff" d="M590.29,-281.55C680.17,-277.1 895.27,-264.69 1086.04,-238.89"/>
<polygon fill="#63b8ff" stroke="#63b8ff" points="1086.54,-242.36 1095.97,-237.54 1085.59,-235.42 1086.54,-242.36"/>
</a>
</g>
</g>
<!-- Node15 -->
<g id="Node000015" class="node">
<title>Node15</title>
<g id="a_Node000015"><a xlink:href="MessageHandler_8hpp.html" target="_top" xlink:title="Declaration of the MessageHandler class for managing message queues between components.">
<polygon fill="white" stroke="#666666" points="1302,-239 1183,-239 1183,-220 1302,-220 1302,-239"/>
<text text-anchor="middle" x="1242.5" y="-227" font-family="Helvetica,sans-Serif" font-size="10.00">MessageHandler.hpp</text>
</a>
</g>
</g>
<!-- Node2&#45;&gt;Node15 -->
<g id="edge15_Node000002_Node000015" class="edge">
<title>Node2&#45;&gt;Node15</title>
<g id="a_edge15_Node000002_Node000015"><a xlink:title=" ">
<path fill="none" stroke="#63b8ff" d="M590.14,-281.26C690.08,-275.85 947.42,-260.93 1172.79,-239.12"/>
<polygon fill="#63b8ff" stroke="#63b8ff" points="1173.2,-242.6 1182.82,-238.14 1172.52,-235.63 1173.2,-242.6"/>
</a>
</g>
</g>
<!-- Node16 -->
<g id="Node000016" class="node">
<title>Node16</title>
<g id="a_Node000016"><a xlink:title=" ">
<polygon fill="#e0e0e0" stroke="#999999" points="1780.5,-74 1722.5,-74 1722.5,-55 1780.5,-55 1780.5,-74"/>
<text text-anchor="middle" x="1751.5" y="-62" font-family="Helvetica,sans-Serif" font-size="10.00">memory</text>
</a>
</g>
</g>
<!-- Node15&#45;&gt;Node16 -->
<g id="edge16_Node000015_Node000016" class="edge">
<title>Node15&#45;&gt;Node16</title>
<g id="a_edge16_Node000015_Node000016"><a xlink:title=" ">
<path fill="none" stroke="#63b8ff" d="M1302.02,-220.8C1384.19,-208.71 1535.8,-181.08 1655.5,-129 1684.76,-116.27 1714.88,-94.71 1733.39,-80.29"/>
<polygon fill="#63b8ff" stroke="#63b8ff" points="1735.61,-83 1741.27,-74.04 1731.26,-77.52 1735.61,-83"/>
</a>
</g>
</g>
<!-- Node17 -->
<g id="Node000017" class="node">
<title>Node17</title>
<g id="a_Node000017"><a xlink:href="rtos_8h.html" target="_top" xlink:title=" ">
<polygon fill="white" stroke="#666666" points="1226.5,-184 1182.5,-184 1182.5,-165 1226.5,-165 1226.5,-184"/>
<text text-anchor="middle" x="1204.5" y="-172" font-family="Helvetica,sans-Serif" font-size="10.00">rtos.h</text>
</a>
</g>
</g>
<!-- Node15&#45;&gt;Node17 -->
<g id="edge17_Node000015_Node000017" class="edge">
<title>Node15&#45;&gt;Node17</title>
<g id="a_edge17_Node000015_Node000017"><a xlink:title=" ">
<path fill="none" stroke="#63b8ff" d="M1236.23,-219.75C1230.91,-212.34 1223.14,-201.5 1216.62,-192.41"/>
<polygon fill="#63b8ff" stroke="#63b8ff" points="1219.33,-190.18 1210.66,-184.09 1213.64,-194.26 1219.33,-190.18"/>
</a>
</g>
</g>
<!-- Node17&#45;&gt;Node4 -->
<g id="edge63_Node000017_Node000004" class="edge">
<title>Node17&#45;&gt;Node4</title>
<g id="a_edge63_Node000017_Node000004"><a xlink:title=" ">
<path fill="none" stroke="#63b8ff" d="M1182.4,-173.03C1057.91,-170.27 446.79,-155.45 367.5,-129 320.93,-113.47 256.82,-94.84 285.5,-55 307.61,-24.29 351.9,-14.46 383.29,-11.49"/>
<polygon fill="#63b8ff" stroke="#63b8ff" points="383.68,-14.97 393.38,-10.72 383.15,-7.99 383.68,-14.97"/>
</a>
</g>
</g>
<!-- Node18 -->
<g id="Node000018" class="node">
<title>Node18</title>
<g id="a_Node000018"><a xlink:href="EventFlags_8h.html" target="_top" xlink:title=" ">
<polygon fill="white" stroke="#666666" points="456.5,-129 376.5,-129 376.5,-110 456.5,-110 456.5,-129"/>
<text text-anchor="middle" x="416.5" y="-117" font-family="Helvetica,sans-Serif" font-size="10.00">EventFlags.h</text>
</a>
</g>
</g>
<!-- Node17&#45;&gt;Node18 -->
<g id="edge18_Node000017_Node000018" class="edge">
<title>Node17&#45;&gt;Node18</title>
<g id="a_edge18_Node000017_Node000018"><a xlink:title=" ">
<path fill="none" stroke="#63b8ff" d="M1182.19,-172C1075.93,-164.85 620.04,-134.19 466.9,-123.89"/>
<polygon fill="#63b8ff" stroke="#63b8ff" points="467.04,-120.39 456.83,-123.21 466.57,-127.38 467.04,-120.39"/>
</a>
</g>
</g>
<!-- Node20 -->
<g id="Node000020" class="node">
<title>Node20</title>
<g id="a_Node000020"><a xlink:title=" ">
<polygon fill="#e0e0e0" stroke="#999999" points="1224,-19 1111,-19 1111,0 1224,0 1224,-19"/>
<text text-anchor="middle" x="1167.5" y="-7" font-family="Helvetica,sans-Serif" font-size="10.00">freertos/FreeRTOS.h</text>
</a>
</g>
</g>
<!-- Node17&#45;&gt;Node20 -->
<g id="edge62_Node000017_Node000020" class="edge">
<title>Node17&#45;&gt;Node20</title>
<g id="a_edge62_Node000017_Node000020"><a xlink:title=" ">
<path fill="none" stroke="#63b8ff" d="M1194.06,-164.87C1185.08,-156.7 1172.76,-143.55 1167.5,-129 1155.37,-95.43 1159.68,-52.92 1163.72,-29.02"/>
<polygon fill="#63b8ff" stroke="#63b8ff" points="1167.17,-29.65 1165.55,-19.17 1160.28,-28.36 1167.17,-29.65"/>
</a>
</g>
</g>
<!-- Node27 -->
<g id="Node000027" class="node">
<title>Node27</title>
<g id="a_Node000027"><a xlink:href="MessageQueue_8h.html" target="_top" xlink:title=" ">
<polygon fill="white" stroke="#666666" points="1055,-129 954,-129 954,-110 1055,-110 1055,-129"/>
<text text-anchor="middle" x="1004.5" y="-117" font-family="Helvetica,sans-Serif" font-size="10.00">MessageQueue.h</text>
</a>
</g>
</g>
<!-- Node17&#45;&gt;Node27 -->
<g id="edge32_Node000017_Node000027" class="edge">
<title>Node17&#45;&gt;Node27</title>
<g id="a_edge32_Node000017_Node000027"><a xlink:title=" ">
<path fill="none" stroke="#63b8ff" d="M1182.33,-167.63C1149.64,-158.96 1087.89,-142.6 1046.46,-131.62"/>
<polygon fill="#63b8ff" stroke="#63b8ff" points="1047.22,-128.2 1036.65,-129.02 1045.42,-134.97 1047.22,-128.2"/>
</a>
</g>
</g>
<!-- Node32 -->
<g id="Node000032" class="node">
<title>Node32</title>
<g id="a_Node000032"><a xlink:href="Mutex_8h.html" target="_top" xlink:title=" ">
<polygon fill="white" stroke="#666666" points="1232.5,-129 1176.5,-129 1176.5,-110 1232.5,-110 1232.5,-129"/>
<text text-anchor="middle" x="1204.5" y="-117" font-family="Helvetica,sans-Serif" font-size="10.00">Mutex.h</text>
</a>
</g>
</g>
<!-- Node17&#45;&gt;Node32 -->
<g id="edge42_Node000017_Node000032" class="edge">
<title>Node17&#45;&gt;Node32</title>
<g id="a_edge42_Node000017_Node000032"><a xlink:title=" ">
<path fill="none" stroke="#63b8ff" d="M1204.5,-164.75C1204.5,-157.8 1204.5,-147.85 1204.5,-139.13"/>
<polygon fill="#63b8ff" stroke="#63b8ff" points="1208,-139.09 1204.5,-129.09 1201,-139.09 1208,-139.09"/>
</a>
</g>
</g>
<!-- Node35 -->
<g id="Node000035" class="node">
<title>Node35</title>
<g id="a_Node000035"><a xlink:href="Semaphore_8h.html" target="_top" xlink:title=" ">
<polygon fill="white" stroke="#666666" points="1380,-129 1299,-129 1299,-110 1380,-110 1380,-129"/>
<text text-anchor="middle" x="1339.5" y="-117" font-family="Helvetica,sans-Serif" font-size="10.00">Semaphore.h</text>
</a>
</g>
</g>
<!-- Node17&#45;&gt;Node35 -->
<g id="edge47_Node000017_Node000035" class="edge">
<title>Node17&#45;&gt;Node35</title>
<g id="a_edge47_Node000017_Node000035"><a xlink:title=" ">
<path fill="none" stroke="#63b8ff" d="M1226.19,-164.98C1248.3,-156.3 1282.82,-142.75 1307.95,-132.88"/>
<polygon fill="#63b8ff" stroke="#63b8ff" points="1309.39,-136.08 1317.42,-129.17 1306.83,-129.57 1309.39,-136.08"/>
</a>
</g>
</g>
<!-- Node37 -->
<g id="Node000037" class="node">
<title>Node37</title>
<g id="a_Node000037"><a xlink:href="Task_8h.html" target="_top" xlink:title=" ">
<polygon fill="white" stroke="#666666" points="1646,-129 1599,-129 1599,-110 1646,-110 1646,-129"/>
<text text-anchor="middle" x="1622.5" y="-117" font-family="Helvetica,sans-Serif" font-size="10.00">Task.h</text>
</a>
</g>
</g>
<!-- Node17&#45;&gt;Node37 -->
<g id="edge52_Node000017_Node000037" class="edge">
<title>Node17&#45;&gt;Node37</title>
<g id="a_edge52_Node000017_Node000037"><a xlink:title=" ">
<path fill="none" stroke="#63b8ff" d="M1226.68,-170.69C1295.56,-161.95 1506.12,-135.26 1588.73,-124.78"/>
<polygon fill="#63b8ff" stroke="#63b8ff" points="1589.35,-128.23 1598.83,-123.5 1588.47,-121.29 1589.35,-128.23"/>
</a>
</g>
</g>
<!-- Node39 -->
<g id="Node000039" class="node">
<title>Node39</title>
<g id="a_Node000039"><a xlink:href="Timer_8h.html" target="_top" xlink:title=" ">
<polygon fill="white" stroke="#666666" points="1778,-129 1725,-129 1725,-110 1778,-110 1778,-129"/>
<text text-anchor="middle" x="1751.5" y="-117" font-family="Helvetica,sans-Serif" font-size="10.00">Timer.h</text>
</a>
</g>
</g>
<!-- Node17&#45;&gt;Node39 -->
<g id="edge57_Node000017_Node000039" class="edge">
<title>Node17&#45;&gt;Node39</title>
<g id="a_edge57_Node000017_Node000039"><a xlink:title=" ">
<path fill="none" stroke="#63b8ff" d="M1226.62,-171.36C1310.49,-163.23 1609.4,-134.27 1714.57,-124.08"/>
<polygon fill="#63b8ff" stroke="#63b8ff" points="1715.09,-127.54 1724.71,-123.1 1714.42,-120.58 1715.09,-127.54"/>
</a>
</g>
</g>
<!-- Node19 -->
<g id="Node000019" class="node">
<title>Node19</title>
<g id="a_Node000019"><a xlink:href="Core_8h.html" target="_top" xlink:title=" ">
<polygon fill="white" stroke="#666666" points="751,-74 684,-74 684,-55 751,-55 751,-74"/>
<text text-anchor="middle" x="717.5" y="-62" font-family="Helvetica,sans-Serif" font-size="10.00">util/Core.h</text>
</a>
</g>
</g>
<!-- Node18&#45;&gt;Node19 -->
<g id="edge19_Node000018_Node000019" class="edge">
<title>Node18&#45;&gt;Node19</title>
<g id="a_edge19_Node000018_Node000019"><a xlink:title=" ">
<path fill="none" stroke="#63b8ff" d="M456.82,-111.42C506.74,-102.66 594.4,-87.25 669.5,-74 670.96,-73.74 672.44,-73.48 673.94,-73.22"/>
<polygon fill="#63b8ff" stroke="#63b8ff" points="674.69,-76.64 683.93,-71.45 673.47,-69.74 674.69,-76.64"/>
</a>
</g>
</g>
<!-- Node18&#45;&gt;Node20 -->
<g id="edge28_Node000018_Node000020" class="edge">
<title>Node18&#45;&gt;Node20</title>
<g id="a_edge28_Node000018_Node000020"><a xlink:title=" ">
<path fill="none" stroke="#63b8ff" d="M456.64,-113.5C501.36,-107.22 575.41,-94.68 636.5,-74 654.76,-67.82 656.93,-60.18 675.5,-55 753.69,-33.21 985.24,-19.31 1100.61,-13.55"/>
<polygon fill="#63b8ff" stroke="#63b8ff" points="1100.91,-17.04 1110.73,-13.05 1100.57,-10.05 1100.91,-17.04"/>
</a>
</g>
</g>
<!-- Node21 -->
<g id="Node000021" class="node">
<title>Node21</title>
<g id="a_Node000021"><a xlink:href="Flags_8h.html" target="_top" xlink:title=" ">
<polygon fill="white" stroke="#666666" points="71,-74 0,-74 0,-55 71,-55 71,-74"/>
<text text-anchor="middle" x="35.5" y="-62" font-family="Helvetica,sans-Serif" font-size="10.00">util/Flags.h</text>
</a>
</g>
</g>
<!-- Node18&#45;&gt;Node21 -->
<g id="edge21_Node000018_Node000021" class="edge">
<title>Node18&#45;&gt;Node21</title>
<g id="a_edge21_Node000018_Node000021"><a xlink:title=" ">
<path fill="none" stroke="#63b8ff" d="M376.45,-112.93C305.1,-103 156.45,-82.33 81.22,-71.86"/>
<polygon fill="#63b8ff" stroke="#63b8ff" points="81.5,-68.36 71.11,-70.45 80.53,-75.3 81.5,-68.36"/>
</a>
</g>
</g>
<!-- Node22 -->
<g id="Node000022" class="node">
<title>Node22</title>
<g id="a_Node000022"><a xlink:title=" ">
<polygon fill="#e0e0e0" stroke="#999999" points="179,-19 96,-19 96,0 179,0 179,-19"/>
<text text-anchor="middle" x="137.5" y="-7" font-family="Helvetica,sans-Serif" font-size="10.00">initializer_list</text>
</a>
</g>
</g>
<!-- Node18&#45;&gt;Node22 -->
<g id="edge31_Node000018_Node000022" class="edge">
<title>Node18&#45;&gt;Node22</title>
<g id="a_edge31_Node000018_Node000022"><a xlink:title=" ">
<path fill="none" stroke="#63b8ff" d="M376.48,-116.7C311.85,-112.99 188.47,-102.31 156.5,-74 143.99,-62.92 139.56,-43.99 138.07,-29.67"/>
<polygon fill="#63b8ff" stroke="#63b8ff" points="141.54,-29.16 137.4,-19.41 134.56,-29.62 141.54,-29.16"/>
</a>
</g>
</g>
<!-- Node24 -->
<g id="Node000024" class="node">
<title>Node24</title>
<g id="a_Node000024"><a xlink:href="Types_8h.html" target="_top" xlink:title=" ">
<polygon fill="white" stroke="#666666" points="237.5,-74 165.5,-74 165.5,-55 237.5,-55 237.5,-74"/>
<text text-anchor="middle" x="201.5" y="-62" font-family="Helvetica,sans-Serif" font-size="10.00">util/Types.h</text>
</a>
</g>
</g>
<!-- Node18&#45;&gt;Node24 -->
<g id="edge25_Node000018_Node000024" class="edge">
<title>Node18&#45;&gt;Node24</title>
<g id="a_edge25_Node000018_Node000024"><a xlink:title=" ">
<path fill="none" stroke="#63b8ff" d="M381.96,-109.98C345.08,-100.89 286.51,-86.46 246.16,-76.51"/>
<polygon fill="#63b8ff" stroke="#63b8ff" points="246.86,-73.08 236.31,-74.08 245.19,-79.87 246.86,-73.08"/>
</a>
</g>
</g>
<!-- Node25 -->
<g id="Node000025" class="node">
<title>Node25</title>
<g id="a_Node000025"><a xlink:title=" ">
<polygon fill="#e0e0e0" stroke="#999999" points="427,-74 294,-74 294,-55 427,-55 427,-74"/>
<text text-anchor="middle" x="360.5" y="-62" font-family="Helvetica,sans-Serif" font-size="10.00">freertos/event_groups.h</text>
</a>
</g>
</g>
<!-- Node18&#45;&gt;Node25 -->
<g id="edge29_Node000018_Node000025" class="edge">
<title>Node18&#45;&gt;Node25</title>
<g id="a_edge29_Node000018_Node000025"><a xlink:title=" ">
<path fill="none" stroke="#63b8ff" d="M407.5,-109.98C399.31,-102.23 386.99,-90.58 377.03,-81.14"/>
<polygon fill="#63b8ff" stroke="#63b8ff" points="379.33,-78.5 369.66,-74.17 374.52,-83.59 379.33,-78.5"/>
</a>
</g>
</g>
<!-- Node26 -->
<g id="Node000026" class="node">
<title>Node26</title>
<g id="a_Node000026"><a xlink:title=" ">
<polygon fill="#e0e0e0" stroke="#999999" points="497.5,-74 445.5,-74 445.5,-55 497.5,-55 497.5,-74"/>
<text text-anchor="middle" x="471.5" y="-62" font-family="Helvetica,sans-Serif" font-size="10.00">cassert</text>
</a>
</g>
</g>
<!-- Node18&#45;&gt;Node26 -->
<g id="edge30_Node000018_Node000026" class="edge">
<title>Node18&#45;&gt;Node26</title>
<g id="a_edge30_Node000018_Node000026"><a xlink:title=" ">
<path fill="none" stroke="#63b8ff" d="M425.58,-109.75C433.59,-102.03 445.46,-90.6 455.12,-81.28"/>
<polygon fill="#63b8ff" stroke="#63b8ff" points="457.81,-83.55 462.59,-74.09 452.96,-78.51 457.81,-83.55"/>
</a>
</g>
</g>
<!-- Node19&#45;&gt;Node20 -->
<g id="edge20_Node000019_Node000020" class="edge">
<title>Node19&#45;&gt;Node20</title>
<g id="a_edge20_Node000019_Node000020"><a xlink:title=" ">
<path fill="none" stroke="#63b8ff" d="M751.25,-56.54C754.37,-55.99 757.49,-55.46 760.5,-55 879.76,-36.73 1019.8,-23.12 1100.63,-16.03"/>
<polygon fill="#63b8ff" stroke="#63b8ff" points="1101.02,-19.51 1110.67,-15.15 1100.41,-12.54 1101.02,-19.51"/>
</a>
</g>
</g>
<!-- Node21&#45;&gt;Node4 -->
<g id="edge22_Node000021_Node000004" class="edge">
<title>Node21&#45;&gt;Node4</title>
<g id="a_edge22_Node000021_Node000004"><a xlink:title=" ">
<path fill="none" stroke="#63b8ff" d="M71.25,-57.26C76.04,-56.47 80.89,-55.7 85.5,-55 193.76,-38.57 322.31,-22.31 383.18,-14.8"/>
<polygon fill="#63b8ff" stroke="#63b8ff" points="383.89,-18.24 393.39,-13.55 383.04,-11.29 383.89,-18.24"/>
</a>
</g>
</g>
<!-- Node21&#45;&gt;Node22 -->
<g id="edge23_Node000021_Node000022" class="edge">
<title>Node21&#45;&gt;Node22</title>
<g id="a_edge23_Node000021_Node000022"><a xlink:title=" ">
<path fill="none" stroke="#63b8ff" d="M51.89,-54.98C68.07,-46.57 93.07,-33.59 111.88,-23.81"/>
<polygon fill="#63b8ff" stroke="#63b8ff" points="113.55,-26.89 120.81,-19.17 110.33,-20.68 113.55,-26.89"/>
</a>
</g>
</g>
<!-- Node23 -->
<g id="Node000023" class="node">
<title>Node23</title>
<g id="a_Node000023"><a xlink:title=" ">
<polygon fill="#e0e0e0" stroke="#999999" points="70,-19 1,-19 1,0 70,0 70,-19"/>
<text text-anchor="middle" x="35.5" y="-7" font-family="Helvetica,sans-Serif" font-size="10.00">type_traits</text>
</a>
</g>
</g>
<!-- Node21&#45;&gt;Node23 -->
<g id="edge24_Node000021_Node000023" class="edge">
<title>Node21&#45;&gt;Node23</title>
<g id="a_edge24_Node000021_Node000023"><a xlink:title=" ">
<path fill="none" stroke="#63b8ff" d="M35.5,-54.75C35.5,-47.8 35.5,-37.85 35.5,-29.13"/>
<polygon fill="#63b8ff" stroke="#63b8ff" points="39,-29.09 35.5,-19.09 32,-29.09 39,-29.09"/>
</a>
</g>
</g>
<!-- Node24&#45;&gt;Node4 -->
<g id="edge26_Node000024_Node000004" class="edge">
<title>Node24&#45;&gt;Node4</title>
<g id="a_edge26_Node000024_Node000004"><a xlink:title=" ">
<path fill="none" stroke="#63b8ff" d="M236.36,-54.98C276.7,-45.13 342.75,-29 383.25,-19.11"/>
<polygon fill="#63b8ff" stroke="#63b8ff" points="384.33,-22.45 393.21,-16.68 382.67,-15.65 384.33,-22.45"/>
</a>
</g>
</g>
<!-- Node24&#45;&gt;Node22 -->
<g id="edge27_Node000024_Node000022" class="edge">
<title>Node24&#45;&gt;Node22</title>
<g id="a_edge27_Node000024_Node000022"><a xlink:title=" ">
<path fill="none" stroke="#63b8ff" d="M191.22,-54.98C181.66,-47.07 167.22,-35.11 155.72,-25.58"/>
<polygon fill="#63b8ff" stroke="#63b8ff" points="157.9,-22.85 147.97,-19.17 153.44,-28.24 157.9,-22.85"/>
</a>
</g>
</g>
<!-- Node27&#45;&gt;Node16 -->
<g id="edge41_Node000027_Node000016" class="edge">
<title>Node27&#45;&gt;Node16</title>
<g id="a_edge41_Node000027_Node000016"><a xlink:title=" ">
<path fill="none" stroke="#63b8ff" d="M1055.06,-115.93C1166.99,-110.06 1444.09,-94.6 1675.5,-74 1687.47,-72.93 1700.47,-71.56 1712.28,-70.23"/>
<polygon fill="#63b8ff" stroke="#63b8ff" points="1712.76,-73.7 1722.3,-69.08 1711.96,-66.74 1712.76,-73.7"/>
</a>
</g>
</g>
<!-- Node27&#45;&gt;Node19 -->
<g id="edge37_Node000027_Node000019" class="edge">
<title>Node27&#45;&gt;Node19</title>
<g id="a_edge37_Node000027_Node000019"><a xlink:title=" ">
<path fill="none" stroke="#63b8ff" d="M956.31,-109.93C909.18,-101.5 835.1,-88.11 761.24,-74.12"/>
<polygon fill="#63b8ff" stroke="#63b8ff" points="761.77,-70.66 751.29,-72.23 760.46,-77.53 761.77,-70.66"/>
</a>
</g>
</g>
<!-- Node27&#45;&gt;Node20 -->
<g id="edge38_Node000027_Node000020" class="edge">
<title>Node27&#45;&gt;Node20</title>
<g id="a_edge38_Node000027_Node000020"><a xlink:title=" ">
<path fill="none" stroke="#63b8ff" d="M1024.2,-109.96C1042.3,-101.76 1069.57,-88.51 1091.5,-74 1113.52,-59.43 1136.47,-39.49 1151.31,-25.87"/>
<polygon fill="#63b8ff" stroke="#63b8ff" points="1153.73,-28.4 1158.66,-19.02 1148.96,-23.28 1153.73,-28.4"/>
</a>
</g>
</g>
<!-- Node28 -->
<g id="Node000028" class="node">
<title>Node28</title>
<g id="a_Node000028"><a xlink:href="IItemReceiver_8h.html" target="_top" xlink:title=" ">
<polygon fill="white" stroke="#666666" points="627,-74 516,-74 516,-55 627,-55 627,-74"/>
<text text-anchor="middle" x="571.5" y="-62" font-family="Helvetica,sans-Serif" font-size="10.00">api/IItemReceiver.h</text>
</a>
</g>
</g>
<!-- Node27&#45;&gt;Node28 -->
<g id="edge33_Node000027_Node000028" class="edge">
<title>Node27&#45;&gt;Node28</title>
<g id="a_edge33_Node000027_Node000028"><a xlink:title=" ">
<path fill="none" stroke="#63b8ff" d="M953.98,-112.32C875.44,-102.7 724.07,-84.17 637.16,-73.54"/>
<polygon fill="#63b8ff" stroke="#63b8ff" points="637.5,-70.05 627.15,-72.31 636.65,-77 637.5,-70.05"/>
</a>
</g>
</g>
<!-- Node29 -->
<g id="Node000029" class="node">
<title>Node29</title>
<g id="a_Node000029"><a xlink:href="IItemSender_8h.html" target="_top" xlink:title=" ">
<polygon fill="white" stroke="#666666" points="871.5,-74 769.5,-74 769.5,-55 871.5,-55 871.5,-74"/>
<text text-anchor="middle" x="820.5" y="-62" font-family="Helvetica,sans-Serif" font-size="10.00">api/IItemSender.h</text>
</a>
</g>
</g>
<!-- Node27&#45;&gt;Node29 -->
<g id="edge35_Node000027_Node000029" class="edge">
<title>Node27&#45;&gt;Node29</title>
<g id="a_edge35_Node000027_Node000029"><a xlink:title=" ">
<path fill="none" stroke="#63b8ff" d="M974.94,-109.98C943.78,-101.01 894.53,-86.82 860.04,-76.89"/>
<polygon fill="#63b8ff" stroke="#63b8ff" points="860.87,-73.49 850.29,-74.08 858.93,-80.21 860.87,-73.49"/>
</a>
</g>
</g>
<!-- Node30 -->
<g id="Node000030" class="node">
<title>Node30</title>
<g id="a_Node000030"><a xlink:title=" ">
<polygon fill="#e0e0e0" stroke="#999999" points="987,-74 890,-74 890,-55 987,-55 987,-74"/>
<text text-anchor="middle" x="938.5" y="-62" font-family="Helvetica,sans-Serif" font-size="10.00">freertos/queue.h</text>
</a>
</g>
</g>
<!-- Node27&#45;&gt;Node30 -->
<g id="edge39_Node000027_Node000030" class="edge">
<title>Node27&#45;&gt;Node30</title>
<g id="a_edge39_Node000027_Node000030"><a xlink:title=" ">
<path fill="none" stroke="#63b8ff" d="M993.9,-109.98C984.04,-102.07 969.15,-90.11 957.28,-80.58"/>
<polygon fill="#63b8ff" stroke="#63b8ff" points="959.29,-77.7 949.3,-74.17 954.9,-83.16 959.29,-77.7"/>
</a>
</g>
</g>
<!-- Node31 -->
<g id="Node000031" class="node">
<title>Node31</title>
<g id="a_Node000031"><a xlink:title=" ">
<polygon fill="#e0e0e0" stroke="#999999" points="1560,-74 1495,-74 1495,-55 1560,-55 1560,-74"/>
<text text-anchor="middle" x="1527.5" y="-62" font-family="Helvetica,sans-Serif" font-size="10.00">functional</text>
</a>
</g>
</g>
<!-- Node27&#45;&gt;Node31 -->
<g id="edge40_Node000027_Node000031" class="edge">
<title>Node27&#45;&gt;Node31</title>
<g id="a_edge40_Node000027_Node000031"><a xlink:title=" ">
<path fill="none" stroke="#63b8ff" d="M1055,-113.52C1137.25,-105.39 1305.26,-88.7 1447.5,-74 1459.53,-72.76 1472.59,-71.38 1484.59,-70.11"/>
<polygon fill="#63b8ff" stroke="#63b8ff" points="1485.24,-73.56 1494.81,-69.02 1484.49,-66.6 1485.24,-73.56"/>
</a>
</g>
</g>
<!-- Node28&#45;&gt;Node4 -->
<g id="edge34_Node000028_Node000004" class="edge">
<title>Node28&#45;&gt;Node4</title>
<g id="a_edge34_Node000028_Node000004"><a xlink:title=" ">
<path fill="none" stroke="#63b8ff" d="M546.92,-54.98C521.45,-46.16 481.46,-32.31 452.87,-22.41"/>
<polygon fill="#63b8ff" stroke="#63b8ff" points="453.87,-19.05 443.27,-19.08 451.58,-25.66 453.87,-19.05"/>
</a>
</g>
</g>
<!-- Node29&#45;&gt;Node4 -->
<g id="edge36_Node000029_Node000004" class="edge">
<title>Node29&#45;&gt;Node4</title>
<g id="a_edge36_Node000029_Node000004"><a xlink:title=" ">
<path fill="none" stroke="#63b8ff" d="M769.44,-56.23C766.42,-55.81 763.42,-55.4 760.5,-55 648.61,-39.8 515.97,-22.84 453.88,-14.97"/>
<polygon fill="#63b8ff" stroke="#63b8ff" points="454.19,-11.48 443.83,-13.7 453.31,-18.42 454.19,-11.48"/>
</a>
</g>
</g>
<!-- Node32&#45;&gt;Node20 -->
<g id="edge45_Node000032_Node000020" class="edge">
<title>Node32&#45;&gt;Node20</title>
<g id="a_edge45_Node000032_Node000020"><a xlink:title=" ">
<path fill="none" stroke="#63b8ff" d="M1201.47,-109.66C1195.43,-92.01 1181.75,-52.09 1173.71,-28.64"/>
<polygon fill="#63b8ff" stroke="#63b8ff" points="1177.02,-27.48 1170.47,-19.16 1170.4,-29.75 1177.02,-27.48"/>
</a>
</g>
</g>
<!-- Node33 -->
<g id="Node000033" class="node">
<title>Node33</title>
<g id="a_Node000033"><a xlink:href="IMutex_8h.html" target="_top" xlink:title=" ">
<polygon fill="white" stroke="#666666" points="1082,-74 1005,-74 1005,-55 1082,-55 1082,-74"/>
<text text-anchor="middle" x="1043.5" y="-62" font-family="Helvetica,sans-Serif" font-size="10.00">api/IMutex.h</text>
</a>
</g>
</g>
<!-- Node32&#45;&gt;Node33 -->
<g id="edge43_Node000032_Node000033" class="edge">
<title>Node32&#45;&gt;Node33</title>
<g id="a_edge43_Node000032_Node000033"><a xlink:title=" ">
<path fill="none" stroke="#63b8ff" d="M1178.63,-109.98C1151.72,-101.13 1109.38,-87.19 1079.27,-77.28"/>
<polygon fill="#63b8ff" stroke="#63b8ff" points="1080.16,-73.88 1069.57,-74.08 1077.97,-80.53 1080.16,-73.88"/>
</a>
</g>
</g>
<!-- Node34 -->
<g id="Node000034" class="node">
<title>Node34</title>
<g id="a_Node000034"><a xlink:title=" ">
<polygon fill="#e0e0e0" stroke="#999999" points="1318,-74 1215,-74 1215,-55 1318,-55 1318,-74"/>
<text text-anchor="middle" x="1266.5" y="-62" font-family="Helvetica,sans-Serif" font-size="10.00">freertos/semphr.h</text>
</a>
</g>
</g>
<!-- Node32&#45;&gt;Node34 -->
<g id="edge46_Node000032_Node000034" class="edge">
<title>Node32&#45;&gt;Node34</title>
<g id="a_edge46_Node000032_Node000034"><a xlink:title=" ">
<path fill="none" stroke="#63b8ff" d="M1214.46,-109.98C1223.63,-102.15 1237.44,-90.34 1248.53,-80.86"/>
<polygon fill="#63b8ff" stroke="#63b8ff" points="1251.03,-83.33 1256.36,-74.17 1246.48,-78.01 1251.03,-83.33"/>
</a>
</g>
</g>
<!-- Node33&#45;&gt;Node4 -->
<g id="edge44_Node000033_Node000004" class="edge">
<title>Node33&#45;&gt;Node4</title>
<g id="a_edge44_Node000033_Node000004"><a xlink:title=" ">
<path fill="none" stroke="#63b8ff" d="M1004.82,-56.18C1002.01,-55.75 999.21,-55.35 996.5,-55 791.94,-28.7 544.52,-15.99 453.92,-11.97"/>
<polygon fill="#63b8ff" stroke="#63b8ff" points="453.81,-8.46 443.66,-11.52 453.5,-15.45 453.81,-8.46"/>
</a>
</g>
</g>
<!-- Node35&#45;&gt;Node20 -->
<g id="edge50_Node000035_Node000020" class="edge">
<title>Node35&#45;&gt;Node20</title>
<g id="a_edge50_Node000035_Node000020"><a xlink:title=" ">
<path fill="none" stroke="#63b8ff" d="M1380.29,-110.3C1419.82,-100.56 1470.66,-82.13 1447.5,-55 1420.64,-23.54 1308.33,-14.21 1234.37,-11.51"/>
<polygon fill="#63b8ff" stroke="#63b8ff" points="1234.31,-8 1224.2,-11.17 1234.08,-15 1234.31,-8"/>
</a>
</g>
</g>
<!-- Node35&#45;&gt;Node34 -->
<g id="edge51_Node000035_Node000034" class="edge">
<title>Node35&#45;&gt;Node34</title>
<g id="a_edge51_Node000035_Node000034"><a xlink:title=" ">
<path fill="none" stroke="#63b8ff" d="M1327.77,-109.98C1316.77,-102 1300.08,-89.88 1286.9,-80.31"/>
<polygon fill="#63b8ff" stroke="#63b8ff" points="1288.59,-77.21 1278.44,-74.17 1284.48,-82.88 1288.59,-77.21"/>
</a>
</g>
</g>
<!-- Node36 -->
<g id="Node000036" class="node">
<title>Node36</title>
<g id="a_Node000036"><a xlink:href="ISemaphore_8h.html" target="_top" xlink:title=" ">
<polygon fill="white" stroke="#666666" points="1438.5,-74 1336.5,-74 1336.5,-55 1438.5,-55 1438.5,-74"/>
<text text-anchor="middle" x="1387.5" y="-62" font-family="Helvetica,sans-Serif" font-size="10.00">api/ISemaphore.h</text>
</a>
</g>
</g>
<!-- Node35&#45;&gt;Node36 -->
<g id="edge48_Node000035_Node000036" class="edge">
<title>Node35&#45;&gt;Node36</title>
<g id="a_edge48_Node000035_Node000036"><a xlink:title=" ">
<path fill="none" stroke="#63b8ff" d="M1347.43,-109.75C1354.35,-102.11 1364.57,-90.82 1372.95,-81.56"/>
<polygon fill="#63b8ff" stroke="#63b8ff" points="1375.6,-83.85 1379.72,-74.09 1370.41,-79.15 1375.6,-83.85"/>
</a>
</g>
</g>
<!-- Node36&#45;&gt;Node4 -->
<g id="edge49_Node000036_Node000004" class="edge">
<title>Node36&#45;&gt;Node4</title>
<g id="a_edge49_Node000036_Node000004"><a xlink:title=" ">
<path fill="none" stroke="#63b8ff" d="M1336.47,-55.95C1333.44,-55.6 1330.43,-55.28 1327.5,-55 988.16,-22.73 575.2,-13.24 453.7,-11.06"/>
<polygon fill="#63b8ff" stroke="#63b8ff" points="453.56,-7.56 443.5,-10.88 453.44,-14.56 453.56,-7.56"/>
</a>
</g>
</g>
<!-- Node37&#45;&gt;Node16 -->
<g id="edge56_Node000037_Node000016" class="edge">
<title>Node37&#45;&gt;Node16</title>
<g id="a_edge56_Node000037_Node000016"><a xlink:title=" ">
<path fill="none" stroke="#63b8ff" d="M1643.23,-109.98C1664.26,-101.34 1697.05,-87.87 1721.04,-78.02"/>
<polygon fill="#63b8ff" stroke="#63b8ff" points="1722.48,-81.21 1730.4,-74.17 1719.82,-74.73 1722.48,-81.21"/>
</a>
</g>
</g>
<!-- Node37&#45;&gt;Node20 -->
<g id="edge53_Node000037_Node000020" class="edge">
<title>Node37&#45;&gt;Node20</title>
<g id="a_edge53_Node000037_Node000020"><a xlink:title=" ">
<path fill="none" stroke="#63b8ff" d="M1638.71,-109.87C1660.03,-97.45 1692.86,-73.95 1675.5,-55 1646.28,-23.1 1365.54,-13.97 1234.4,-11.44"/>
<polygon fill="#63b8ff" stroke="#63b8ff" points="1234.14,-7.93 1224.08,-11.25 1234.01,-14.93 1234.14,-7.93"/>
</a>
</g>
</g>
<!-- Node37&#45;&gt;Node31 -->
<g id="edge55_Node000037_Node000031" class="edge">
<title>Node37&#45;&gt;Node31</title>
<g id="a_edge55_Node000037_Node000031"><a xlink:title=" ">
<path fill="none" stroke="#63b8ff" d="M1607.24,-109.98C1592.37,-101.69 1569.52,-88.94 1552.08,-79.22"/>
<polygon fill="#63b8ff" stroke="#63b8ff" points="1553.48,-75.99 1543.04,-74.17 1550.07,-82.1 1553.48,-75.99"/>
</a>
</g>
</g>
<!-- Node38 -->
<g id="Node000038" class="node">
<title>Node38</title>
<g id="a_Node000038"><a xlink:title=" ">
<polygon fill="#e0e0e0" stroke="#999999" points="1666.5,-74 1578.5,-74 1578.5,-55 1666.5,-55 1666.5,-74"/>
<text text-anchor="middle" x="1622.5" y="-62" font-family="Helvetica,sans-Serif" font-size="10.00">freertos/task.h</text>
</a>
</g>
</g>
<!-- Node37&#45;&gt;Node38 -->
<g id="edge54_Node000037_Node000038" class="edge">
<title>Node37&#45;&gt;Node38</title>
<g id="a_edge54_Node000037_Node000038"><a xlink:title=" ">
<path fill="none" stroke="#63b8ff" d="M1622.5,-109.75C1622.5,-102.8 1622.5,-92.85 1622.5,-84.13"/>
<polygon fill="#63b8ff" stroke="#63b8ff" points="1626,-84.09 1622.5,-74.09 1619,-84.09 1626,-84.09"/>
</a>
</g>
</g>
<!-- Node39&#45;&gt;Node16 -->
<g id="edge61_Node000039_Node000016" class="edge">
<title>Node39&#45;&gt;Node16</title>
<g id="a_edge61_Node000039_Node000016"><a xlink:title=" ">
<path fill="none" stroke="#63b8ff" d="M1751.5,-109.75C1751.5,-102.8 1751.5,-92.85 1751.5,-84.13"/>
<polygon fill="#63b8ff" stroke="#63b8ff" points="1755,-84.09 1751.5,-74.09 1748,-84.09 1755,-84.09"/>
</a>
</g>
</g>
<!-- Node39&#45;&gt;Node20 -->
<g id="edge58_Node000039_Node000020" class="edge">
<title>Node39&#45;&gt;Node20</title>
<g id="a_edge58_Node000039_Node000020"><a xlink:title=" ">
<path fill="none" stroke="#63b8ff" d="M1763.18,-109.94C1779.5,-96.99 1805.43,-72.11 1789.5,-55 1752.27,-15.01 1387.01,-10.42 1234.19,-10.26"/>
<polygon fill="#63b8ff" stroke="#63b8ff" points="1234,-6.76 1224,-10.26 1234,-13.76 1234,-6.76"/>
</a>
</g>
</g>
<!-- Node39&#45;&gt;Node31 -->
<g id="edge60_Node000039_Node000031" class="edge">
<title>Node39&#45;&gt;Node31</title>
<g id="a_edge60_Node000039_Node000031"><a xlink:title=" ">
<path fill="none" stroke="#63b8ff" d="M1724.92,-112.21C1686.68,-103.16 1615.7,-86.37 1570.09,-75.58"/>
<polygon fill="#63b8ff" stroke="#63b8ff" points="1570.74,-72.13 1560.2,-73.24 1569.13,-78.95 1570.74,-72.13"/>
</a>
</g>
</g>
<!-- Node40 -->
<g id="Node000040" class="node">
<title>Node40</title>
<g id="a_Node000040"><a xlink:title=" ">
<polygon fill="#e0e0e0" stroke="#999999" points="1934.5,-74 1836.5,-74 1836.5,-55 1934.5,-55 1934.5,-74"/>
<text text-anchor="middle" x="1885.5" y="-62" font-family="Helvetica,sans-Serif" font-size="10.00">freertos/timers.h</text>
</a>
</g>
</g>
<!-- Node39&#45;&gt;Node40 -->
<g id="edge59_Node000039_Node000040" class="edge">
<title>Node39&#45;&gt;Node40</title>
<g id="a_edge59_Node000039_Node000040"><a xlink:title=" ">
<path fill="none" stroke="#63b8ff" d="M1773.03,-109.98C1794.97,-101.3 1829.24,-87.75 1854.19,-77.88"/>
<polygon fill="#63b8ff" stroke="#63b8ff" points="1855.57,-81.1 1863.58,-74.17 1852.99,-74.59 1855.57,-81.1"/>
</a>
</g>
</g>
</g>
</svg>
