<?xml version="1.0" encoding="UTF-8" standalone="no"?>
<!DOCTYPE svg PUBLIC "-//W3C//DTD SVG 1.1//EN"
 "http://www.w3.org/Graphics/SVG/1.1/DTD/svg11.dtd">
<!-- Generated by graphviz version 2.43.0 (0)
 -->
<!-- Title: main/src/BLE_Client.cpp Pages: 1 -->
<svg width="2397pt" height="412pt"
 viewBox="0.00 0.00 2396.50 412.00" xmlns="http://www.w3.org/2000/svg" xmlns:xlink="http://www.w3.org/1999/xlink">
<g id="graph0" class="graph" transform="scale(1 1) rotate(0) translate(4 408)">
<title>main/src/BLE_Client.cpp</title>
<!-- Node1 -->
<g id="Node000001" class="node">
<title>Node1</title>
<g id="a_Node000001"><a xlink:title="Implementation of the BLE_Client class for managing BLE client functionality.">
<polygon fill="#999999" stroke="#666666" points="887,-404 753,-404 753,-385 887,-385 887,-404"/>
<text text-anchor="middle" x="820" y="-392" font-family="Helvetica,sans-Serif" font-size="10.00">main/src/BLE_Client.cpp</text>
</a>
</g>
</g>
<!-- Node2 -->
<g id="Node000002" class="node">
<title>Node2</title>
<g id="a_Node000002"><a xlink:href="BLE__Client_8hpp.html" target="_top" xlink:title="Header file for the BLE_Client class, which implements a BLE (Bluetooth Low Energy) client.">
<polygon fill="white" stroke="#666666" points="818.5,-349 729.5,-349 729.5,-330 818.5,-330 818.5,-349"/>
<text text-anchor="middle" x="774" y="-337" font-family="Helvetica,sans-Serif" font-size="10.00">BLE_Client.hpp</text>
</a>
</g>
</g>
<!-- Node1&#45;&gt;Node2 -->
<g id="edge1_Node000001_Node000002" class="edge">
<title>Node1&#45;&gt;Node2</title>
<g id="a_edge1_Node000001_Node000002"><a xlink:title=" ">
<path fill="none" stroke="#63b8ff" d="M812.4,-384.75C805.84,-377.18 796.18,-366.05 788.19,-356.84"/>
<polygon fill="#63b8ff" stroke="#63b8ff" points="790.65,-354.35 781.45,-349.09 785.37,-358.94 790.65,-354.35"/>
</a>
</g>
</g>
<!-- Node43 -->
<g id="Node000043" class="node">
<title>Node43</title>
<g id="a_Node000043"><a xlink:title=" ">
<polygon fill="#e0e0e0" stroke="#999999" points="896,-349 836,-349 836,-330 896,-330 896,-349"/>
<text text-anchor="middle" x="866" y="-337" font-family="Helvetica,sans-Serif" font-size="10.00">iostream</text>
</a>
</g>
</g>
<!-- Node1&#45;&gt;Node43 -->
<g id="edge67_Node000001_Node000043" class="edge">
<title>Node1&#45;&gt;Node43</title>
<g id="a_edge67_Node000001_Node000043"><a xlink:title=" ">
<path fill="none" stroke="#63b8ff" d="M827.6,-384.75C834.16,-377.18 843.82,-366.05 851.81,-356.84"/>
<polygon fill="#63b8ff" stroke="#63b8ff" points="854.63,-358.94 858.55,-349.09 849.35,-354.35 854.63,-358.94"/>
</a>
</g>
</g>
<!-- Node3 -->
<g id="Node000003" class="node">
<title>Node3</title>
<g id="a_Node000003"><a xlink:href="Bluetooth_8hpp.html" target="_top" xlink:title="Defines the Bluetooth abstract base class for BLE communication.">
<polygon fill="white" stroke="#666666" points="781.5,-294 696.5,-294 696.5,-275 781.5,-275 781.5,-294"/>
<text text-anchor="middle" x="739" y="-282" font-family="Helvetica,sans-Serif" font-size="10.00">Bluetooth.hpp</text>
</a>
</g>
</g>
<!-- Node2&#45;&gt;Node3 -->
<g id="edge2_Node000002_Node000003" class="edge">
<title>Node2&#45;&gt;Node3</title>
<g id="a_edge2_Node000002_Node000003"><a xlink:title=" ">
<path fill="none" stroke="#63b8ff" d="M768.22,-329.75C763.38,-322.42 756.32,-311.73 750.36,-302.7"/>
<polygon fill="#63b8ff" stroke="#63b8ff" points="753.1,-300.5 744.67,-294.09 747.26,-304.36 753.1,-300.5"/>
</a>
</g>
</g>
<!-- Node17 -->
<g id="Node000017" class="node">
<title>Node17</title>
<g id="a_Node000017"><a xlink:href="MessageHandler_8hpp.html" target="_top" xlink:title="Declaration of the MessageHandler class for managing message queues between components.">
<polygon fill="white" stroke="#666666" points="1347.5,-239 1228.5,-239 1228.5,-220 1347.5,-220 1347.5,-239"/>
<text text-anchor="middle" x="1288" y="-227" font-family="Helvetica,sans-Serif" font-size="10.00">MessageHandler.hpp</text>
</a>
</g>
</g>
<!-- Node2&#45;&gt;Node17 -->
<g id="edge66_Node000002_Node000017" class="edge">
<title>Node2&#45;&gt;Node17</title>
<g id="a_edge66_Node000002_Node000017"><a xlink:title=" ">
<path fill="none" stroke="#63b8ff" d="M814.76,-329.94C907.73,-310.4 1135.28,-262.59 1237.19,-241.18"/>
<polygon fill="#63b8ff" stroke="#63b8ff" points="1238.17,-244.55 1247.23,-239.07 1236.73,-237.7 1238.17,-244.55"/>
</a>
</g>
</g>
<!-- Node4 -->
<g id="Node000004" class="node">
<title>Node4</title>
<g id="a_Node000004"><a xlink:title=" ">
<polygon fill="#e0e0e0" stroke="#999999" points="725,-239 681,-239 681,-220 725,-220 725,-239"/>
<text text-anchor="middle" x="703" y="-227" font-family="Helvetica,sans-Serif" font-size="10.00">string</text>
</a>
</g>
</g>
<!-- Node3&#45;&gt;Node4 -->
<g id="edge3_Node000003_Node000004" class="edge">
<title>Node3&#45;&gt;Node4</title>
<g id="a_edge3_Node000003_Node000004"><a xlink:title=" ">
<path fill="none" stroke="#63b8ff" d="M733.06,-274.75C728.02,-267.34 720.66,-256.5 714.49,-247.41"/>
<polygon fill="#63b8ff" stroke="#63b8ff" points="717.35,-245.39 708.83,-239.09 711.56,-249.33 717.35,-245.39"/>
</a>
</g>
</g>
<!-- Node5 -->
<g id="Node000005" class="node">
<title>Node5</title>
<g id="a_Node000005"><a xlink:title=" ">
<polygon fill="#e0e0e0" stroke="#999999" points="1859,-19 1809,-19 1809,0 1859,0 1859,-19"/>
<text text-anchor="middle" x="1834" y="-7" font-family="Helvetica,sans-Serif" font-size="10.00">cstdint</text>
</a>
</g>
</g>
<!-- Node3&#45;&gt;Node5 -->
<g id="edge4_Node000003_Node000005" class="edge">
<title>Node3&#45;&gt;Node5</title>
<g id="a_edge4_Node000003_Node000005"><a xlink:title=" ">
<path fill="none" stroke="#63b8ff" d="M781.56,-281.9C993.51,-273.67 1925,-234.13 1925,-175.5 1925,-175.5 1925,-175.5 1925,-118.5 1925,-76.65 1884.54,-42.59 1857.58,-24.54"/>
<polygon fill="#63b8ff" stroke="#63b8ff" points="1859.33,-21.51 1849.03,-19.04 1855.55,-27.4 1859.33,-21.51"/>
</a>
</g>
</g>
<!-- Node6 -->
<g id="Node000006" class="node">
<title>Node6</title>
<g id="a_Node000006"><a xlink:title=" ">
<polygon fill="#e0e0e0" stroke="#999999" points="806.5,-239 743.5,-239 743.5,-220 806.5,-220 806.5,-239"/>
<text text-anchor="middle" x="775" y="-227" font-family="Helvetica,sans-Serif" font-size="10.00">esp_log.h</text>
</a>
</g>
</g>
<!-- Node3&#45;&gt;Node6 -->
<g id="edge5_Node000003_Node000006" class="edge">
<title>Node3&#45;&gt;Node6</title>
<g id="a_edge5_Node000003_Node000006"><a xlink:title=" ">
<path fill="none" stroke="#63b8ff" d="M744.94,-274.75C749.98,-267.34 757.34,-256.5 763.51,-247.41"/>
<polygon fill="#63b8ff" stroke="#63b8ff" points="766.44,-249.33 769.17,-239.09 760.65,-245.39 766.44,-249.33"/>
</a>
</g>
</g>
<!-- Node7 -->
<g id="Node000007" class="node">
<title>Node7</title>
<g id="a_Node000007"><a xlink:title=" ">
<polygon fill="#e0e0e0" stroke="#999999" points="895.5,-239 824.5,-239 824.5,-220 895.5,-220 895.5,-239"/>
<text text-anchor="middle" x="860" y="-227" font-family="Helvetica,sans-Serif" font-size="10.00">nvs_flash.h</text>
</a>
</g>
</g>
<!-- Node3&#45;&gt;Node7 -->
<g id="edge6_Node000003_Node000007" class="edge">
<title>Node3&#45;&gt;Node7</title>
<g id="a_edge6_Node000003_Node000007"><a xlink:title=" ">
<path fill="none" stroke="#63b8ff" d="M758.44,-274.98C777.99,-266.42 808.38,-253.11 830.82,-243.28"/>
<polygon fill="#63b8ff" stroke="#63b8ff" points="832.45,-246.39 840.21,-239.17 829.64,-239.98 832.45,-246.39"/>
</a>
</g>
</g>
<!-- Node8 -->
<g id="Node000008" class="node">
<title>Node8</title>
<g id="a_Node000008"><a xlink:title=" ">
<polygon fill="#e0e0e0" stroke="#999999" points="972,-239 914,-239 914,-220 972,-220 972,-239"/>
<text text-anchor="middle" x="943" y="-227" font-family="Helvetica,sans-Serif" font-size="10.00">esp_bt.h</text>
</a>
</g>
</g>
<!-- Node3&#45;&gt;Node8 -->
<g id="edge7_Node000003_Node000008" class="edge">
<title>Node3&#45;&gt;Node8</title>
<g id="a_edge7_Node000003_Node000008"><a xlink:title=" ">
<path fill="none" stroke="#63b8ff" d="M771.78,-274.98C807.86,-265.61 865.83,-250.55 904.16,-240.59"/>
<polygon fill="#63b8ff" stroke="#63b8ff" points="905.14,-243.95 913.94,-238.05 903.38,-237.18 905.14,-243.95"/>
</a>
</g>
</g>
<!-- Node9 -->
<g id="Node000009" class="node">
<title>Node9</title>
<g id="a_Node000009"><a xlink:title=" ">
<polygon fill="#e0e0e0" stroke="#999999" points="1097.5,-239 990.5,-239 990.5,-220 1097.5,-220 1097.5,-239"/>
<text text-anchor="middle" x="1044" y="-227" font-family="Helvetica,sans-Serif" font-size="10.00">esp_gap_ble_api.h</text>
</a>
</g>
</g>
<!-- Node3&#45;&gt;Node9 -->
<g id="edge8_Node000003_Node000009" class="edge">
<title>Node3&#45;&gt;Node9</title>
<g id="a_edge8_Node000003_Node000009"><a xlink:title=" ">
<path fill="none" stroke="#63b8ff" d="M781.73,-276.07C834.73,-266.86 925.37,-251.11 984.98,-240.76"/>
<polygon fill="#63b8ff" stroke="#63b8ff" points="985.75,-244.17 995,-239.01 984.55,-237.28 985.75,-244.17"/>
</a>
</g>
</g>
<!-- Node10 -->
<g id="Node000010" class="node">
<title>Node10</title>
<g id="a_Node000010"><a xlink:title=" ">
<polygon fill="#e0e0e0" stroke="#999999" points="1210,-239 1116,-239 1116,-220 1210,-220 1210,-239"/>
<text text-anchor="middle" x="1163" y="-227" font-family="Helvetica,sans-Serif" font-size="10.00">esp_gatt_defs.h</text>
</a>
</g>
</g>
<!-- Node3&#45;&gt;Node10 -->
<g id="edge9_Node000003_Node000010" class="edge">
<title>Node3&#45;&gt;Node10</title>
<g id="a_edge9_Node000003_Node000010"><a xlink:title=" ">
<path fill="none" stroke="#63b8ff" d="M781.71,-278.71C848.4,-271.14 981.55,-255.68 1105.67,-239.01"/>
<polygon fill="#63b8ff" stroke="#63b8ff" points="1106.29,-242.46 1115.74,-237.65 1105.36,-235.52 1106.29,-242.46"/>
</a>
</g>
</g>
<!-- Node11 -->
<g id="Node000011" class="node">
<title>Node11</title>
<g id="a_Node000011"><a xlink:title=" ">
<polygon fill="#e0e0e0" stroke="#999999" points="136,-239 0,-239 0,-220 136,-220 136,-239"/>
<text text-anchor="middle" x="68" y="-227" font-family="Helvetica,sans-Serif" font-size="10.00">esp_gatt_common_api.h</text>
</a>
</g>
</g>
<!-- Node3&#45;&gt;Node11 -->
<g id="edge10_Node000003_Node000011" class="edge">
<title>Node3&#45;&gt;Node11</title>
<g id="a_edge10_Node000003_Node000011"><a xlink:title=" ">
<path fill="none" stroke="#63b8ff" d="M696.46,-280.83C600.41,-274.69 359.16,-258.64 146.13,-239.07"/>
<polygon fill="#63b8ff" stroke="#63b8ff" points="146.29,-235.57 136.01,-238.14 145.64,-242.54 146.29,-235.57"/>
</a>
</g>
</g>
<!-- Node12 -->
<g id="Node000012" class="node">
<title>Node12</title>
<g id="a_Node000012"><a xlink:title=" ">
<polygon fill="#e0e0e0" stroke="#999999" points="247.5,-239 154.5,-239 154.5,-220 247.5,-220 247.5,-239"/>
<text text-anchor="middle" x="201" y="-227" font-family="Helvetica,sans-Serif" font-size="10.00">esp_gatts_api.h</text>
</a>
</g>
</g>
<!-- Node3&#45;&gt;Node12 -->
<g id="edge11_Node000003_Node000012" class="edge">
<title>Node3&#45;&gt;Node12</title>
<g id="a_edge11_Node000003_Node000012"><a xlink:title=" ">
<path fill="none" stroke="#63b8ff" d="M696.26,-280.45C613.56,-274.35 425.67,-259.57 257.79,-239.16"/>
<polygon fill="#63b8ff" stroke="#63b8ff" points="258.13,-235.67 247.78,-237.93 257.28,-242.62 258.13,-235.67"/>
</a>
</g>
</g>
<!-- Node13 -->
<g id="Node000013" class="node">
<title>Node13</title>
<g id="a_Node000013"><a xlink:title=" ">
<polygon fill="#e0e0e0" stroke="#999999" points="358.5,-239 265.5,-239 265.5,-220 358.5,-220 358.5,-239"/>
<text text-anchor="middle" x="312" y="-227" font-family="Helvetica,sans-Serif" font-size="10.00">esp_gattc_api.h</text>
</a>
</g>
</g>
<!-- Node3&#45;&gt;Node13 -->
<g id="edge12_Node000003_Node000013" class="edge">
<title>Node3&#45;&gt;Node13</title>
<g id="a_edge12_Node000003_Node000013"><a xlink:title=" ">
<path fill="none" stroke="#63b8ff" d="M696.38,-278.83C629.15,-271.36 494.12,-255.97 368.89,-239.08"/>
<polygon fill="#63b8ff" stroke="#63b8ff" points="369.11,-235.58 358.74,-237.71 368.17,-242.52 369.11,-235.58"/>
</a>
</g>
</g>
<!-- Node14 -->
<g id="Node000014" class="node">
<title>Node14</title>
<g id="a_Node000014"><a xlink:title=" ">
<polygon fill="#e0e0e0" stroke="#999999" points="465,-239 377,-239 377,-220 465,-220 465,-239"/>
<text text-anchor="middle" x="421" y="-227" font-family="Helvetica,sans-Serif" font-size="10.00">esp_bt_main.h</text>
</a>
</g>
</g>
<!-- Node3&#45;&gt;Node14 -->
<g id="edge13_Node000003_Node000014" class="edge">
<title>Node3&#45;&gt;Node14</title>
<g id="a_edge13_Node000003_Node000014"><a xlink:title=" ">
<path fill="none" stroke="#63b8ff" d="M696.44,-276.41C639.29,-266.88 537.7,-249.95 475.16,-239.53"/>
<polygon fill="#63b8ff" stroke="#63b8ff" points="475.53,-236.04 465.09,-237.85 474.38,-242.95 475.53,-236.04"/>
</a>
</g>
</g>
<!-- Node15 -->
<g id="Node000015" class="node">
<title>Node15</title>
<g id="a_Node000015"><a xlink:title=" ">
<polygon fill="#e0e0e0" stroke="#999999" points="552.5,-239 483.5,-239 483.5,-220 552.5,-220 552.5,-239"/>
<text text-anchor="middle" x="518" y="-227" font-family="Helvetica,sans-Serif" font-size="10.00">esp_mac.h</text>
</a>
</g>
</g>
<!-- Node3&#45;&gt;Node15 -->
<g id="edge14_Node000003_Node000015" class="edge">
<title>Node3&#45;&gt;Node15</title>
<g id="a_edge14_Node000003_Node000015"><a xlink:title=" ">
<path fill="none" stroke="#63b8ff" d="M703.49,-274.98C665.17,-265.79 604.05,-251.14 562.54,-241.18"/>
<polygon fill="#63b8ff" stroke="#63b8ff" points="563.23,-237.75 552.69,-238.82 561.6,-244.56 563.23,-237.75"/>
</a>
</g>
</g>
<!-- Node16 -->
<g id="Node000016" class="node">
<title>Node16</title>
<g id="a_Node000016"><a xlink:href="BLE__Config_8hpp.html" target="_top" xlink:title="Configuration file containing default values and structures for BLE server and client.">
<polygon fill="white" stroke="#666666" points="663,-239 571,-239 571,-220 663,-220 663,-239"/>
<text text-anchor="middle" x="617" y="-227" font-family="Helvetica,sans-Serif" font-size="10.00">BLE_Config.hpp</text>
</a>
</g>
</g>
<!-- Node3&#45;&gt;Node16 -->
<g id="edge15_Node000003_Node000016" class="edge">
<title>Node3&#45;&gt;Node16</title>
<g id="a_edge15_Node000003_Node000016"><a xlink:title=" ">
<path fill="none" stroke="#63b8ff" d="M714.28,-274.98C692.87,-266.5 662.34,-253.35 641.12,-243.54"/>
<polygon fill="#63b8ff" stroke="#63b8ff" points="642.35,-240.26 631.81,-239.17 639.37,-246.59 642.35,-240.26"/>
</a>
</g>
</g>
<!-- Node3&#45;&gt;Node17 -->
<g id="edge17_Node000003_Node000017" class="edge">
<title>Node3&#45;&gt;Node17</title>
<g id="a_edge17_Node000003_Node000017"><a xlink:title=" ">
<path fill="none" stroke="#63b8ff" d="M781.75,-279.97C864.01,-273.09 1050.32,-257.04 1218.17,-239.06"/>
<polygon fill="#63b8ff" stroke="#63b8ff" points="1218.61,-242.53 1228.17,-237.98 1217.86,-235.57 1218.61,-242.53"/>
</a>
</g>
</g>
<!-- Node16&#45;&gt;Node3 -->
<g id="edge16_Node000016_Node000003" class="edge">
<title>Node16&#45;&gt;Node3</title>
<g id="a_edge16_Node000016_Node000003"><a xlink:title=" ">
<path fill="none" stroke="#63b8ff" d="M642.11,-239.17C663.63,-247.71 694.15,-260.87 715.27,-270.63"/>
<polygon fill="#63b8ff" stroke="#63b8ff" points="713.97,-273.89 724.51,-274.98 716.96,-267.56 713.97,-273.89"/>
</a>
</g>
</g>
<!-- Node18 -->
<g id="Node000018" class="node">
<title>Node18</title>
<g id="a_Node000018"><a xlink:title=" ">
<polygon fill="#e0e0e0" stroke="#999999" points="690,-74 632,-74 632,-55 690,-55 690,-74"/>
<text text-anchor="middle" x="661" y="-62" font-family="Helvetica,sans-Serif" font-size="10.00">memory</text>
</a>
</g>
</g>
<!-- Node17&#45;&gt;Node18 -->
<g id="edge18_Node000017_Node000018" class="edge">
<title>Node17&#45;&gt;Node18</title>
<g id="a_edge18_Node000017_Node000018"><a xlink:title=" ">
<path fill="none" stroke="#63b8ff" d="M1228.27,-220.53C1078.67,-200.35 698.43,-147.48 678,-129 665.71,-117.88 661.9,-98.95 660.89,-84.64"/>
<polygon fill="#63b8ff" stroke="#63b8ff" points="664.38,-84.29 660.58,-74.4 657.39,-84.5 664.38,-84.29"/>
</a>
</g>
</g>
<!-- Node19 -->
<g id="Node000019" class="node">
<title>Node19</title>
<g id="a_Node000019"><a xlink:href="rtos_8h.html" target="_top" xlink:title=" ">
<polygon fill="white" stroke="#666666" points="1310,-184 1266,-184 1266,-165 1310,-165 1310,-184"/>
<text text-anchor="middle" x="1288" y="-172" font-family="Helvetica,sans-Serif" font-size="10.00">rtos.h</text>
</a>
</g>
</g>
<!-- Node17&#45;&gt;Node19 -->
<g id="edge19_Node000017_Node000019" class="edge">
<title>Node17&#45;&gt;Node19</title>
<g id="a_edge19_Node000017_Node000019"><a xlink:title=" ">
<path fill="none" stroke="#63b8ff" d="M1288,-219.75C1288,-212.8 1288,-202.85 1288,-194.13"/>
<polygon fill="#63b8ff" stroke="#63b8ff" points="1291.5,-194.09 1288,-184.09 1284.5,-194.09 1291.5,-194.09"/>
</a>
</g>
</g>
<!-- Node19&#45;&gt;Node5 -->
<g id="edge65_Node000019_Node000005" class="edge">
<title>Node19&#45;&gt;Node5</title>
<g id="a_edge65_Node000019_Node000005"><a xlink:title=" ">
<path fill="none" stroke="#63b8ff" d="M1310.1,-173.75C1373.78,-173.94 1562.64,-170.66 1712,-129 1767.35,-113.56 1796.32,-121.26 1829,-74 1837.94,-61.07 1838.49,-42.91 1837.22,-29.32"/>
<polygon fill="#63b8ff" stroke="#63b8ff" points="1840.66,-28.65 1835.86,-19.2 1833.72,-29.58 1840.66,-28.65"/>
</a>
</g>
</g>
<!-- Node20 -->
<g id="Node000020" class="node">
<title>Node20</title>
<g id="a_Node000020"><a xlink:href="EventFlags_8h.html" target="_top" xlink:title=" ">
<polygon fill="white" stroke="#666666" points="2115,-129 2035,-129 2035,-110 2115,-110 2115,-129"/>
<text text-anchor="middle" x="2075" y="-117" font-family="Helvetica,sans-Serif" font-size="10.00">EventFlags.h</text>
</a>
</g>
</g>
<!-- Node19&#45;&gt;Node20 -->
<g id="edge20_Node000019_Node000020" class="edge">
<title>Node19&#45;&gt;Node20</title>
<g id="a_edge20_Node000019_Node000020"><a xlink:title=" ">
<path fill="none" stroke="#63b8ff" d="M1310.29,-172C1416.41,-164.85 1871.72,-134.19 2024.67,-123.89"/>
<polygon fill="#63b8ff" stroke="#63b8ff" points="2024.98,-127.38 2034.72,-123.21 2024.51,-120.39 2024.98,-127.38"/>
</a>
</g>
</g>
<!-- Node22 -->
<g id="Node000022" class="node">
<title>Node22</title>
<g id="a_Node000022"><a xlink:title=" ">
<polygon fill="#e0e0e0" stroke="#999999" points="1151.5,-19 1038.5,-19 1038.5,0 1151.5,0 1151.5,-19"/>
<text text-anchor="middle" x="1095" y="-7" font-family="Helvetica,sans-Serif" font-size="10.00">freertos/FreeRTOS.h</text>
</a>
</g>
</g>
<!-- Node19&#45;&gt;Node22 -->
<g id="edge64_Node000019_Node000022" class="edge">
<title>Node19&#45;&gt;Node22</title>
<g id="a_edge64_Node000019_Node000022"><a xlink:title=" ">
<path fill="none" stroke="#63b8ff" d="M1265.9,-173.6C1186.01,-173.61 904.92,-170.5 678,-129 593.62,-113.57 544.29,-142.76 493,-74 487.95,-67.23 487.25,-61.19 493,-55 528.78,-16.48 878.41,-11 1027.84,-10.44"/>
<polygon fill="#63b8ff" stroke="#63b8ff" points="1028.25,-13.94 1038.24,-10.41 1028.23,-6.94 1028.25,-13.94"/>
</a>
</g>
</g>
<!-- Node29 -->
<g id="Node000029" class="node">
<title>Node29</title>
<g id="a_Node000029"><a xlink:href="MessageQueue_8h.html" target="_top" xlink:title=" ">
<polygon fill="white" stroke="#666666" points="1132.5,-129 1031.5,-129 1031.5,-110 1132.5,-110 1132.5,-129"/>
<text text-anchor="middle" x="1082" y="-117" font-family="Helvetica,sans-Serif" font-size="10.00">MessageQueue.h</text>
</a>
</g>
</g>
<!-- Node19&#45;&gt;Node29 -->
<g id="edge34_Node000019_Node000029" class="edge">
<title>Node19&#45;&gt;Node29</title>
<g id="a_edge34_Node000019_Node000029"><a xlink:title=" ">
<path fill="none" stroke="#63b8ff" d="M1265.95,-167.83C1232.42,-159.2 1167.95,-142.61 1124.95,-131.55"/>
<polygon fill="#63b8ff" stroke="#63b8ff" points="1125.6,-128.1 1115.05,-129 1123.86,-134.88 1125.6,-128.1"/>
</a>
</g>
</g>
<!-- Node34 -->
<g id="Node000034" class="node">
<title>Node34</title>
<g id="a_Node000034"><a xlink:href="Mutex_8h.html" target="_top" xlink:title=" ">
<polygon fill="white" stroke="#666666" points="1703,-129 1647,-129 1647,-110 1703,-110 1703,-129"/>
<text text-anchor="middle" x="1675" y="-117" font-family="Helvetica,sans-Serif" font-size="10.00">Mutex.h</text>
</a>
</g>
</g>
<!-- Node19&#45;&gt;Node34 -->
<g id="edge44_Node000019_Node000034" class="edge">
<title>Node19&#45;&gt;Node34</title>
<g id="a_edge44_Node000019_Node000034"><a xlink:title=" ">
<path fill="none" stroke="#63b8ff" d="M1310.2,-170.46C1373.68,-161.77 1556.55,-136.72 1636.65,-125.75"/>
<polygon fill="#63b8ff" stroke="#63b8ff" points="1637.36,-129.19 1646.8,-124.36 1636.41,-122.25 1637.36,-129.19"/>
</a>
</g>
</g>
<!-- Node37 -->
<g id="Node000037" class="node">
<title>Node37</title>
<g id="a_Node000037"><a xlink:href="Semaphore_8h.html" target="_top" xlink:title=" ">
<polygon fill="white" stroke="#666666" points="1514.5,-129 1433.5,-129 1433.5,-110 1514.5,-110 1514.5,-129"/>
<text text-anchor="middle" x="1474" y="-117" font-family="Helvetica,sans-Serif" font-size="10.00">Semaphore.h</text>
</a>
</g>
</g>
<!-- Node19&#45;&gt;Node37 -->
<g id="edge49_Node000019_Node000037" class="edge">
<title>Node19&#45;&gt;Node37</title>
<g id="a_edge49_Node000019_Node000037"><a xlink:title=" ">
<path fill="none" stroke="#63b8ff" d="M1310.07,-167.21C1340.63,-158.5 1396.36,-142.62 1434.27,-131.82"/>
<polygon fill="#63b8ff" stroke="#63b8ff" points="1435.32,-135.16 1443.98,-129.05 1433.4,-128.43 1435.32,-135.16"/>
</a>
</g>
</g>
<!-- Node39 -->
<g id="Node000039" class="node">
<title>Node39</title>
<g id="a_Node000039"><a xlink:href="Task_8h.html" target="_top" xlink:title=" ">
<polygon fill="white" stroke="#666666" points="805.5,-129 758.5,-129 758.5,-110 805.5,-110 805.5,-129"/>
<text text-anchor="middle" x="782" y="-117" font-family="Helvetica,sans-Serif" font-size="10.00">Task.h</text>
</a>
</g>
</g>
<!-- Node19&#45;&gt;Node39 -->
<g id="edge54_Node000019_Node000039" class="edge">
<title>Node19&#45;&gt;Node39</title>
<g id="a_edge54_Node000019_Node000039"><a xlink:title=" ">
<path fill="none" stroke="#63b8ff" d="M1265.93,-171.19C1186.09,-162.83 911.89,-134.1 815.68,-124.03"/>
<polygon fill="#63b8ff" stroke="#63b8ff" points="815.94,-120.54 805.63,-122.98 815.22,-127.5 815.94,-120.54"/>
</a>
</g>
</g>
<!-- Node41 -->
<g id="Node000041" class="node">
<title>Node41</title>
<g id="a_Node000041"><a xlink:href="Timer_8h.html" target="_top" xlink:title=" ">
<polygon fill="white" stroke="#666666" points="740.5,-129 687.5,-129 687.5,-110 740.5,-110 740.5,-129"/>
<text text-anchor="middle" x="714" y="-117" font-family="Helvetica,sans-Serif" font-size="10.00">Timer.h</text>
</a>
</g>
</g>
<!-- Node19&#45;&gt;Node41 -->
<g id="edge59_Node000019_Node000041" class="edge">
<title>Node19&#45;&gt;Node41</title>
<g id="a_edge59_Node000019_Node000041"><a xlink:title=" ">
<path fill="none" stroke="#63b8ff" d="M1265.77,-172.91C1193.06,-170.7 955.64,-161.45 750.71,-129.04"/>
<polygon fill="#63b8ff" stroke="#63b8ff" points="751.09,-125.56 740.67,-127.43 749.98,-132.47 751.09,-125.56"/>
</a>
</g>
</g>
<!-- Node21 -->
<g id="Node000021" class="node">
<title>Node21</title>
<g id="a_Node000021"><a xlink:href="Core_8h.html" target="_top" xlink:title=" ">
<polygon fill="white" stroke="#666666" points="1277.5,-74 1210.5,-74 1210.5,-55 1277.5,-55 1277.5,-74"/>
<text text-anchor="middle" x="1244" y="-62" font-family="Helvetica,sans-Serif" font-size="10.00">util/Core.h</text>
</a>
</g>
</g>
<!-- Node20&#45;&gt;Node21 -->
<g id="edge21_Node000020_Node000021" class="edge">
<title>Node20&#45;&gt;Node21</title>
<g id="a_edge21_Node000020_Node000021"><a xlink:title=" ">
<path fill="none" stroke="#63b8ff" d="M2034.99,-118.26C1920.16,-117.16 1579.53,-110.89 1288.2,-74.11"/>
<polygon fill="#63b8ff" stroke="#63b8ff" points="1288.22,-70.58 1277.86,-72.79 1287.33,-77.52 1288.22,-70.58"/>
</a>
</g>
</g>
<!-- Node20&#45;&gt;Node22 -->
<g id="edge30_Node000020_Node000022" class="edge">
<title>Node20&#45;&gt;Node22</title>
<g id="a_edge30_Node000020_Node000022"><a xlink:title=" ">
<path fill="none" stroke="#63b8ff" d="M2048.78,-109.95C2004.18,-95.82 1910.47,-67.86 1829,-55 1585.29,-16.52 1291.22,-10.78 1161.72,-10.28"/>
<polygon fill="#63b8ff" stroke="#63b8ff" points="1161.58,-6.78 1151.57,-10.25 1161.56,-13.78 1161.58,-6.78"/>
</a>
</g>
</g>
<!-- Node23 -->
<g id="Node000023" class="node">
<title>Node23</title>
<g id="a_Node000023"><a xlink:href="Flags_8h.html" target="_top" xlink:title=" ">
<polygon fill="white" stroke="#666666" points="2374.5,-74 2303.5,-74 2303.5,-55 2374.5,-55 2374.5,-74"/>
<text text-anchor="middle" x="2339" y="-62" font-family="Helvetica,sans-Serif" font-size="10.00">util/Flags.h</text>
</a>
</g>
</g>
<!-- Node20&#45;&gt;Node23 -->
<g id="edge23_Node000020_Node000023" class="edge">
<title>Node20&#45;&gt;Node23</title>
<g id="a_edge23_Node000020_Node000023"><a xlink:title=" ">
<path fill="none" stroke="#63b8ff" d="M2115.1,-110.45C2163,-100.83 2242.97,-84.78 2293.25,-74.69"/>
<polygon fill="#63b8ff" stroke="#63b8ff" points="2294.08,-78.09 2303.2,-72.69 2292.7,-71.22 2294.08,-78.09"/>
</a>
</g>
</g>
<!-- Node24 -->
<g id="Node000024" class="node">
<title>Node24</title>
<g id="a_Node000024"><a xlink:title=" ">
<polygon fill="#e0e0e0" stroke="#999999" points="2301.5,-19 2218.5,-19 2218.5,0 2301.5,0 2301.5,-19"/>
<text text-anchor="middle" x="2260" y="-7" font-family="Helvetica,sans-Serif" font-size="10.00">initializer_list</text>
</a>
</g>
</g>
<!-- Node20&#45;&gt;Node24 -->
<g id="edge33_Node000020_Node000024" class="edge">
<title>Node20&#45;&gt;Node24</title>
<g id="a_edge33_Node000020_Node000024"><a xlink:title=" ">
<path fill="none" stroke="#63b8ff" d="M2115.33,-114.11C2163.02,-108.03 2238.2,-95.29 2256,-74 2266.29,-61.7 2266.19,-42.92 2264.18,-28.98"/>
<polygon fill="#63b8ff" stroke="#63b8ff" points="2267.6,-28.23 2262.32,-19.04 2260.72,-29.52 2267.6,-28.23"/>
</a>
</g>
</g>
<!-- Node26 -->
<g id="Node000026" class="node">
<title>Node26</title>
<g id="a_Node000026"><a xlink:href="Types_8h.html" target="_top" xlink:title=" ">
<polygon fill="white" stroke="#666666" points="2247,-74 2175,-74 2175,-55 2247,-55 2247,-74"/>
<text text-anchor="middle" x="2211" y="-62" font-family="Helvetica,sans-Serif" font-size="10.00">util/Types.h</text>
</a>
</g>
</g>
<!-- Node20&#45;&gt;Node26 -->
<g id="edge27_Node000020_Node000026" class="edge">
<title>Node20&#45;&gt;Node26</title>
<g id="a_edge27_Node000020_Node000026"><a xlink:title=" ">
<path fill="none" stroke="#63b8ff" d="M2096.85,-109.98C2119.12,-101.3 2153.9,-87.75 2179.22,-77.88"/>
<polygon fill="#63b8ff" stroke="#63b8ff" points="2180.71,-81.06 2188.75,-74.17 2178.16,-74.54 2180.71,-81.06"/>
</a>
</g>
</g>
<!-- Node27 -->
<g id="Node000027" class="node">
<title>Node27</title>
<g id="a_Node000027"><a xlink:title=" ">
<polygon fill="#e0e0e0" stroke="#999999" points="2086.5,-74 1953.5,-74 1953.5,-55 2086.5,-55 2086.5,-74"/>
<text text-anchor="middle" x="2020" y="-62" font-family="Helvetica,sans-Serif" font-size="10.00">freertos/event_groups.h</text>
</a>
</g>
</g>
<!-- Node20&#45;&gt;Node27 -->
<g id="edge31_Node000020_Node000027" class="edge">
<title>Node20&#45;&gt;Node27</title>
<g id="a_edge31_Node000020_Node000027"><a xlink:title=" ">
<path fill="none" stroke="#63b8ff" d="M2065.92,-109.75C2057.91,-102.03 2046.04,-90.6 2036.38,-81.28"/>
<polygon fill="#63b8ff" stroke="#63b8ff" points="2038.54,-78.51 2028.91,-74.09 2033.69,-83.55 2038.54,-78.51"/>
</a>
</g>
</g>
<!-- Node28 -->
<g id="Node000028" class="node">
<title>Node28</title>
<g id="a_Node000028"><a xlink:title=" ">
<polygon fill="#e0e0e0" stroke="#999999" points="2157,-74 2105,-74 2105,-55 2157,-55 2157,-74"/>
<text text-anchor="middle" x="2131" y="-62" font-family="Helvetica,sans-Serif" font-size="10.00">cassert</text>
</a>
</g>
</g>
<!-- Node20&#45;&gt;Node28 -->
<g id="edge32_Node000020_Node000028" class="edge">
<title>Node20&#45;&gt;Node28</title>
<g id="a_edge32_Node000020_Node000028"><a xlink:title=" ">
<path fill="none" stroke="#63b8ff" d="M2084,-109.98C2092.19,-102.23 2104.51,-90.58 2114.47,-81.14"/>
<polygon fill="#63b8ff" stroke="#63b8ff" points="2116.98,-83.59 2121.84,-74.17 2112.17,-78.5 2116.98,-83.59"/>
</a>
</g>
</g>
<!-- Node21&#45;&gt;Node22 -->
<g id="edge22_Node000021_Node000022" class="edge">
<title>Node21&#45;&gt;Node22</title>
<g id="a_edge22_Node000021_Node000022"><a xlink:title=" ">
<path fill="none" stroke="#63b8ff" d="M1220.06,-54.98C1195.44,-46.23 1156.88,-32.51 1129.08,-22.62"/>
<polygon fill="#63b8ff" stroke="#63b8ff" points="1129.97,-19.22 1119.38,-19.17 1127.62,-25.82 1129.97,-19.22"/>
</a>
</g>
</g>
<!-- Node23&#45;&gt;Node5 -->
<g id="edge24_Node000023_Node000005" class="edge">
<title>Node23&#45;&gt;Node5</title>
<g id="a_edge24_Node000023_Node000005"><a xlink:title=" ">
<path fill="none" stroke="#63b8ff" d="M2303.49,-59.77C2210.64,-50.03 1961.47,-23.88 1869.09,-14.18"/>
<polygon fill="#63b8ff" stroke="#63b8ff" points="1869.44,-10.7 1859.13,-13.14 1868.71,-17.66 1869.44,-10.7"/>
</a>
</g>
</g>
<!-- Node23&#45;&gt;Node24 -->
<g id="edge25_Node000023_Node000024" class="edge">
<title>Node23&#45;&gt;Node24</title>
<g id="a_edge25_Node000023_Node000024"><a xlink:title=" ">
<path fill="none" stroke="#63b8ff" d="M2326.31,-54.98C2314.17,-46.84 2295.64,-34.41 2281.25,-24.76"/>
<polygon fill="#63b8ff" stroke="#63b8ff" points="2283.18,-21.84 2272.92,-19.17 2279.28,-27.65 2283.18,-21.84"/>
</a>
</g>
</g>
<!-- Node25 -->
<g id="Node000025" class="node">
<title>Node25</title>
<g id="a_Node000025"><a xlink:title=" ">
<polygon fill="#e0e0e0" stroke="#999999" points="2388.5,-19 2319.5,-19 2319.5,0 2388.5,0 2388.5,-19"/>
<text text-anchor="middle" x="2354" y="-7" font-family="Helvetica,sans-Serif" font-size="10.00">type_traits</text>
</a>
</g>
</g>
<!-- Node23&#45;&gt;Node25 -->
<g id="edge26_Node000023_Node000025" class="edge">
<title>Node23&#45;&gt;Node25</title>
<g id="a_edge26_Node000023_Node000025"><a xlink:title=" ">
<path fill="none" stroke="#63b8ff" d="M2341.48,-54.75C2343.46,-47.72 2346.32,-37.62 2348.81,-28.84"/>
<polygon fill="#63b8ff" stroke="#63b8ff" points="2352.21,-29.66 2351.57,-19.09 2345.48,-27.76 2352.21,-29.66"/>
</a>
</g>
</g>
<!-- Node26&#45;&gt;Node5 -->
<g id="edge28_Node000026_Node000005" class="edge">
<title>Node26&#45;&gt;Node5</title>
<g id="a_edge28_Node000026_Node000005"><a xlink:title=" ">
<path fill="none" stroke="#63b8ff" d="M2174.68,-56.47C2171.75,-55.95 2168.83,-55.46 2166,-55 2058.22,-37.61 1929.98,-21.8 1869.25,-14.6"/>
<polygon fill="#63b8ff" stroke="#63b8ff" points="1869.4,-11.09 1859.06,-13.39 1868.58,-18.04 1869.4,-11.09"/>
</a>
</g>
</g>
<!-- Node26&#45;&gt;Node24 -->
<g id="edge29_Node000026_Node000024" class="edge">
<title>Node26&#45;&gt;Node24</title>
<g id="a_edge29_Node000026_Node000024"><a xlink:title=" ">
<path fill="none" stroke="#63b8ff" d="M2219.09,-54.75C2226.16,-47.11 2236.59,-35.82 2245.15,-26.56"/>
<polygon fill="#63b8ff" stroke="#63b8ff" points="2247.84,-28.81 2252.06,-19.09 2242.7,-24.06 2247.84,-28.81"/>
</a>
</g>
</g>
<!-- Node29&#45;&gt;Node18 -->
<g id="edge43_Node000029_Node000018" class="edge">
<title>Node29&#45;&gt;Node18</title>
<g id="a_edge43_Node000029_Node000018"><a xlink:title=" ">
<path fill="none" stroke="#63b8ff" d="M1031.22,-112.11C946.21,-101.4 776.88,-80.09 700.27,-70.44"/>
<polygon fill="#63b8ff" stroke="#63b8ff" points="700.45,-66.94 690.09,-69.16 699.58,-73.88 700.45,-66.94"/>
</a>
</g>
</g>
<!-- Node29&#45;&gt;Node21 -->
<g id="edge39_Node000029_Node000021" class="edge">
<title>Node29&#45;&gt;Node21</title>
<g id="a_edge39_Node000029_Node000021"><a xlink:title=" ">
<path fill="none" stroke="#63b8ff" d="M1108.03,-109.98C1135.11,-101.13 1177.71,-87.19 1208.01,-77.28"/>
<polygon fill="#63b8ff" stroke="#63b8ff" points="1209.35,-80.52 1217.77,-74.08 1207.18,-73.87 1209.35,-80.52"/>
</a>
</g>
</g>
<!-- Node29&#45;&gt;Node22 -->
<g id="edge40_Node000029_Node000022" class="edge">
<title>Node29&#45;&gt;Node22</title>
<g id="a_edge40_Node000029_Node000022"><a xlink:title=" ">
<path fill="none" stroke="#63b8ff" d="M1031.22,-110.08C990.85,-101.05 944.31,-83.96 965,-55 979.69,-34.45 1004.47,-23.28 1028.49,-17.26"/>
<polygon fill="#63b8ff" stroke="#63b8ff" points="1029.35,-20.65 1038.34,-15.05 1027.82,-13.82 1029.35,-20.65"/>
</a>
</g>
</g>
<!-- Node30 -->
<g id="Node000030" class="node">
<title>Node30</title>
<g id="a_Node000030"><a xlink:href="IItemReceiver_8h.html" target="_top" xlink:title=" ">
<polygon fill="white" stroke="#666666" points="1406.5,-74 1295.5,-74 1295.5,-55 1406.5,-55 1406.5,-74"/>
<text text-anchor="middle" x="1351" y="-62" font-family="Helvetica,sans-Serif" font-size="10.00">api/IItemReceiver.h</text>
</a>
</g>
</g>
<!-- Node29&#45;&gt;Node30 -->
<g id="edge35_Node000029_Node000030" class="edge">
<title>Node29&#45;&gt;Node30</title>
<g id="a_edge35_Node000029_Node000030"><a xlink:title=" ">
<path fill="none" stroke="#63b8ff" d="M1125.22,-109.98C1172.04,-100.76 1246.81,-86.03 1297.36,-76.07"/>
<polygon fill="#63b8ff" stroke="#63b8ff" points="1298.31,-79.45 1307.44,-74.08 1296.95,-72.58 1298.31,-79.45"/>
</a>
</g>
</g>
<!-- Node31 -->
<g id="Node000031" class="node">
<title>Node31</title>
<g id="a_Node000031"><a xlink:href="IItemSender_8h.html" target="_top" xlink:title=" ">
<polygon fill="white" stroke="#666666" points="1192,-74 1090,-74 1090,-55 1192,-55 1192,-74"/>
<text text-anchor="middle" x="1141" y="-62" font-family="Helvetica,sans-Serif" font-size="10.00">api/IItemSender.h</text>
</a>
</g>
</g>
<!-- Node29&#45;&gt;Node31 -->
<g id="edge37_Node000029_Node000031" class="edge">
<title>Node29&#45;&gt;Node31</title>
<g id="a_edge37_Node000029_Node000031"><a xlink:title=" ">
<path fill="none" stroke="#63b8ff" d="M1091.48,-109.98C1100.2,-102.15 1113.34,-90.34 1123.9,-80.86"/>
<polygon fill="#63b8ff" stroke="#63b8ff" points="1126.25,-83.46 1131.35,-74.17 1121.57,-78.25 1126.25,-83.46"/>
</a>
</g>
</g>
<!-- Node32 -->
<g id="Node000032" class="node">
<title>Node32</title>
<g id="a_Node000032"><a xlink:title=" ">
<polygon fill="#e0e0e0" stroke="#999999" points="1071.5,-74 974.5,-74 974.5,-55 1071.5,-55 1071.5,-74"/>
<text text-anchor="middle" x="1023" y="-62" font-family="Helvetica,sans-Serif" font-size="10.00">freertos/queue.h</text>
</a>
</g>
</g>
<!-- Node29&#45;&gt;Node32 -->
<g id="edge41_Node000029_Node000032" class="edge">
<title>Node29&#45;&gt;Node32</title>
<g id="a_edge41_Node000029_Node000032"><a xlink:title=" ">
<path fill="none" stroke="#63b8ff" d="M1072.52,-109.98C1063.8,-102.15 1050.66,-90.34 1040.1,-80.86"/>
<polygon fill="#63b8ff" stroke="#63b8ff" points="1042.43,-78.25 1032.65,-74.17 1037.75,-83.46 1042.43,-78.25"/>
</a>
</g>
</g>
<!-- Node33 -->
<g id="Node000033" class="node">
<title>Node33</title>
<g id="a_Node000033"><a xlink:title=" ">
<polygon fill="#e0e0e0" stroke="#999999" points="811.5,-74 746.5,-74 746.5,-55 811.5,-55 811.5,-74"/>
<text text-anchor="middle" x="779" y="-62" font-family="Helvetica,sans-Serif" font-size="10.00">functional</text>
</a>
</g>
</g>
<!-- Node29&#45;&gt;Node33 -->
<g id="edge42_Node000029_Node000033" class="edge">
<title>Node29&#45;&gt;Node33</title>
<g id="a_edge42_Node000029_Node000033"><a xlink:title=" ">
<path fill="none" stroke="#63b8ff" d="M1031.4,-110.35C980.91,-102.11 900.88,-88.75 821.69,-74.08"/>
<polygon fill="#63b8ff" stroke="#63b8ff" points="822.01,-70.58 811.54,-72.19 820.73,-77.46 822.01,-70.58"/>
</a>
</g>
</g>
<!-- Node30&#45;&gt;Node5 -->
<g id="edge36_Node000030_Node000005" class="edge">
<title>Node30&#45;&gt;Node5</title>
<g id="a_edge36_Node000030_Node000005"><a xlink:title=" ">
<path fill="none" stroke="#63b8ff" d="M1406.88,-57.37C1507.27,-46.35 1715.42,-23.51 1798.57,-14.39"/>
<polygon fill="#63b8ff" stroke="#63b8ff" points="1799.2,-17.84 1808.76,-13.27 1798.44,-10.88 1799.2,-17.84"/>
</a>
</g>
</g>
<!-- Node31&#45;&gt;Node5 -->
<g id="edge38_Node000031_Node000005" class="edge">
<title>Node31&#45;&gt;Node5</title>
<g id="a_edge38_Node000031_Node000005"><a xlink:title=" ">
<path fill="none" stroke="#63b8ff" d="M1192.03,-56.02C1195.06,-55.65 1198.07,-55.31 1201,-55 1428.3,-30.94 1702.93,-16.65 1798.89,-12.1"/>
<polygon fill="#63b8ff" stroke="#63b8ff" points="1799.09,-15.59 1808.91,-11.63 1798.76,-8.6 1799.09,-15.59"/>
</a>
</g>
</g>
<!-- Node34&#45;&gt;Node22 -->
<g id="edge47_Node000034_Node000022" class="edge">
<title>Node34&#45;&gt;Node22</title>
<g id="a_edge47_Node000034_Node000022"><a xlink:title=" ">
<path fill="none" stroke="#63b8ff" d="M1682.29,-109.95C1692.81,-96.57 1709.47,-70.58 1695,-55 1659.34,-16.6 1310.87,-11.06 1161.94,-10.46"/>
<polygon fill="#63b8ff" stroke="#63b8ff" points="1161.58,-6.96 1151.57,-10.42 1161.56,-13.96 1161.58,-6.96"/>
</a>
</g>
</g>
<!-- Node35 -->
<g id="Node000035" class="node">
<title>Node35</title>
<g id="a_Node000035"><a xlink:href="IMutex_8h.html" target="_top" xlink:title=" ">
<polygon fill="white" stroke="#666666" points="1820.5,-74 1743.5,-74 1743.5,-55 1820.5,-55 1820.5,-74"/>
<text text-anchor="middle" x="1782" y="-62" font-family="Helvetica,sans-Serif" font-size="10.00">api/IMutex.h</text>
</a>
</g>
</g>
<!-- Node34&#45;&gt;Node35 -->
<g id="edge45_Node000034_Node000035" class="edge">
<title>Node34&#45;&gt;Node35</title>
<g id="a_edge45_Node000034_Node000035"><a xlink:title=" ">
<path fill="none" stroke="#63b8ff" d="M1692.19,-109.98C1709.25,-101.54 1735.63,-88.47 1755.4,-78.68"/>
<polygon fill="#63b8ff" stroke="#63b8ff" points="1757.09,-81.75 1764.5,-74.17 1753.98,-75.47 1757.09,-81.75"/>
</a>
</g>
</g>
<!-- Node36 -->
<g id="Node000036" class="node">
<title>Node36</title>
<g id="a_Node000036"><a xlink:title=" ">
<polygon fill="#e0e0e0" stroke="#999999" points="1686.5,-74 1583.5,-74 1583.5,-55 1686.5,-55 1686.5,-74"/>
<text text-anchor="middle" x="1635" y="-62" font-family="Helvetica,sans-Serif" font-size="10.00">freertos/semphr.h</text>
</a>
</g>
</g>
<!-- Node34&#45;&gt;Node36 -->
<g id="edge48_Node000034_Node000036" class="edge">
<title>Node34&#45;&gt;Node36</title>
<g id="a_edge48_Node000034_Node000036"><a xlink:title=" ">
<path fill="none" stroke="#63b8ff" d="M1668.39,-109.75C1662.74,-102.26 1654.46,-91.28 1647.55,-82.13"/>
<polygon fill="#63b8ff" stroke="#63b8ff" points="1650.3,-79.96 1641.48,-74.09 1644.71,-84.18 1650.3,-79.96"/>
</a>
</g>
</g>
<!-- Node35&#45;&gt;Node5 -->
<g id="edge46_Node000035_Node000005" class="edge">
<title>Node35&#45;&gt;Node5</title>
<g id="a_edge46_Node000035_Node000005"><a xlink:title=" ">
<path fill="none" stroke="#63b8ff" d="M1790.59,-54.75C1798.16,-47.03 1809.38,-35.6 1818.51,-26.28"/>
<polygon fill="#63b8ff" stroke="#63b8ff" points="1821.07,-28.68 1825.57,-19.09 1816.07,-23.78 1821.07,-28.68"/>
</a>
</g>
</g>
<!-- Node37&#45;&gt;Node22 -->
<g id="edge52_Node000037_Node000022" class="edge">
<title>Node37&#45;&gt;Node22</title>
<g id="a_edge52_Node000037_Node000022"><a xlink:title=" ">
<path fill="none" stroke="#63b8ff" d="M1468.75,-109.75C1459.72,-95.59 1439.83,-67.93 1415,-55 1372.18,-32.7 1242.26,-20.27 1161.74,-14.52"/>
<polygon fill="#63b8ff" stroke="#63b8ff" points="1161.91,-11.02 1151.69,-13.82 1161.42,-18 1161.91,-11.02"/>
</a>
</g>
</g>
<!-- Node37&#45;&gt;Node36 -->
<g id="edge53_Node000037_Node000036" class="edge">
<title>Node37&#45;&gt;Node36</title>
<g id="a_edge53_Node000037_Node000036"><a xlink:title=" ">
<path fill="none" stroke="#63b8ff" d="M1499.87,-109.98C1526.78,-101.13 1569.12,-87.19 1599.23,-77.28"/>
<polygon fill="#63b8ff" stroke="#63b8ff" points="1600.53,-80.53 1608.93,-74.08 1598.34,-73.88 1600.53,-80.53"/>
</a>
</g>
</g>
<!-- Node38 -->
<g id="Node000038" class="node">
<title>Node38</title>
<g id="a_Node000038"><a xlink:href="ISemaphore_8h.html" target="_top" xlink:title=" ">
<polygon fill="white" stroke="#666666" points="1565,-74 1463,-74 1463,-55 1565,-55 1565,-74"/>
<text text-anchor="middle" x="1514" y="-62" font-family="Helvetica,sans-Serif" font-size="10.00">api/ISemaphore.h</text>
</a>
</g>
</g>
<!-- Node37&#45;&gt;Node38 -->
<g id="edge50_Node000037_Node000038" class="edge">
<title>Node37&#45;&gt;Node38</title>
<g id="a_edge50_Node000037_Node000038"><a xlink:title=" ">
<path fill="none" stroke="#63b8ff" d="M1480.61,-109.75C1486.26,-102.26 1494.54,-91.28 1501.45,-82.13"/>
<polygon fill="#63b8ff" stroke="#63b8ff" points="1504.29,-84.18 1507.52,-74.09 1498.7,-79.96 1504.29,-84.18"/>
</a>
</g>
</g>
<!-- Node38&#45;&gt;Node5 -->
<g id="edge51_Node000038_Node000005" class="edge">
<title>Node38&#45;&gt;Node5</title>
<g id="a_edge51_Node000038_Node000005"><a xlink:title=" ">
<path fill="none" stroke="#63b8ff" d="M1565.06,-55.04C1630.51,-44.2 1742.27,-25.69 1798.9,-16.31"/>
<polygon fill="#63b8ff" stroke="#63b8ff" points="1799.51,-19.76 1808.81,-14.67 1798.37,-12.85 1799.51,-19.76"/>
</a>
</g>
</g>
<!-- Node39&#45;&gt;Node18 -->
<g id="edge58_Node000039_Node000018" class="edge">
<title>Node39&#45;&gt;Node18</title>
<g id="a_edge58_Node000039_Node000018"><a xlink:title=" ">
<path fill="none" stroke="#63b8ff" d="M762.56,-109.98C743.01,-101.42 712.62,-88.11 690.18,-78.28"/>
<polygon fill="#63b8ff" stroke="#63b8ff" points="691.36,-74.98 680.79,-74.17 688.55,-81.39 691.36,-74.98"/>
</a>
</g>
</g>
<!-- Node39&#45;&gt;Node22 -->
<g id="edge55_Node000039_Node000022" class="edge">
<title>Node39&#45;&gt;Node22</title>
<g id="a_edge55_Node000039_Node000022"><a xlink:title=" ">
<path fill="none" stroke="#63b8ff" d="M768.2,-109.85C749.69,-97.22 720.9,-73.23 737,-55 755.92,-33.58 929.88,-20.08 1028.16,-14.1"/>
<polygon fill="#63b8ff" stroke="#63b8ff" points="1028.52,-17.58 1038.3,-13.49 1028.1,-10.6 1028.52,-17.58"/>
</a>
</g>
</g>
<!-- Node39&#45;&gt;Node33 -->
<g id="edge57_Node000039_Node000033" class="edge">
<title>Node39&#45;&gt;Node33</title>
<g id="a_edge57_Node000039_Node000033"><a xlink:title=" ">
<path fill="none" stroke="#63b8ff" d="M781.5,-109.75C781.11,-102.8 780.55,-92.85 780.05,-84.13"/>
<polygon fill="#63b8ff" stroke="#63b8ff" points="783.55,-83.88 779.49,-74.09 776.56,-84.27 783.55,-83.88"/>
</a>
</g>
</g>
<!-- Node40 -->
<g id="Node000040" class="node">
<title>Node40</title>
<g id="a_Node000040"><a xlink:title=" ">
<polygon fill="#e0e0e0" stroke="#999999" points="918,-74 830,-74 830,-55 918,-55 918,-74"/>
<text text-anchor="middle" x="874" y="-62" font-family="Helvetica,sans-Serif" font-size="10.00">freertos/task.h</text>
</a>
</g>
</g>
<!-- Node39&#45;&gt;Node40 -->
<g id="edge56_Node000039_Node000040" class="edge">
<title>Node39&#45;&gt;Node40</title>
<g id="a_edge56_Node000039_Node000040"><a xlink:title=" ">
<path fill="none" stroke="#63b8ff" d="M796.78,-109.98C811.18,-101.69 833.31,-88.94 850.19,-79.22"/>
<polygon fill="#63b8ff" stroke="#63b8ff" points="852.03,-82.19 858.95,-74.17 848.54,-76.13 852.03,-82.19"/>
</a>
</g>
</g>
<!-- Node41&#45;&gt;Node18 -->
<g id="edge63_Node000041_Node000018" class="edge">
<title>Node41&#45;&gt;Node18</title>
<g id="a_edge63_Node000041_Node000018"><a xlink:title=" ">
<path fill="none" stroke="#63b8ff" d="M705.25,-109.75C697.53,-102.03 686.1,-90.6 676.78,-81.28"/>
<polygon fill="#63b8ff" stroke="#63b8ff" points="679.14,-78.69 669.59,-74.09 674.19,-83.64 679.14,-78.69"/>
</a>
</g>
</g>
<!-- Node41&#45;&gt;Node22 -->
<g id="edge60_Node000041_Node000022" class="edge">
<title>Node41&#45;&gt;Node22</title>
<g id="a_edge60_Node000041_Node000022"><a xlink:title=" ">
<path fill="none" stroke="#63b8ff" d="M687.37,-118.68C620.47,-118.3 454.35,-111.78 507,-55 541.82,-17.45 881.36,-11.41 1028.06,-10.57"/>
<polygon fill="#63b8ff" stroke="#63b8ff" points="1028.3,-14.07 1038.28,-10.51 1028.26,-7.07 1028.3,-14.07"/>
</a>
</g>
</g>
<!-- Node41&#45;&gt;Node33 -->
<g id="edge62_Node000041_Node000033" class="edge">
<title>Node41&#45;&gt;Node33</title>
<g id="a_edge62_Node000041_Node000033"><a xlink:title=" ">
<path fill="none" stroke="#63b8ff" d="M724.44,-109.98C734.15,-102.07 748.82,-90.11 760.5,-80.58"/>
<polygon fill="#63b8ff" stroke="#63b8ff" points="762.83,-83.2 768.37,-74.17 758.4,-77.78 762.83,-83.2"/>
</a>
</g>
</g>
<!-- Node42 -->
<g id="Node000042" class="node">
<title>Node42</title>
<g id="a_Node000042"><a xlink:title=" ">
<polygon fill="#e0e0e0" stroke="#999999" points="614,-74 516,-74 516,-55 614,-55 614,-74"/>
<text text-anchor="middle" x="565" y="-62" font-family="Helvetica,sans-Serif" font-size="10.00">freertos/timers.h</text>
</a>
</g>
</g>
<!-- Node41&#45;&gt;Node42 -->
<g id="edge61_Node000041_Node000042" class="edge">
<title>Node41&#45;&gt;Node42</title>
<g id="a_edge61_Node000041_Node000042"><a xlink:title=" ">
<path fill="none" stroke="#63b8ff" d="M690.06,-109.98C665.44,-101.23 626.88,-87.51 599.08,-77.62"/>
<polygon fill="#63b8ff" stroke="#63b8ff" points="599.97,-74.22 589.38,-74.17 597.62,-80.82 599.97,-74.22"/>
</a>
</g>
</g>
</g>
</svg>
