<?xml version="1.0" encoding="UTF-8" standalone="no"?>
<!DOCTYPE svg PUBLIC "-//W3C//DTD SVG 1.1//EN"
 "http://www.w3.org/Graphics/SVG/1.1/DTD/svg11.dtd">
<!-- Generated by graphviz version 2.43.0 (0)
 -->
<!-- Title: main/include/Bluetooth.hpp Pages: 1 -->
<svg width="707pt" height="137pt"
 viewBox="0.00 0.00 706.50 137.00" xmlns="http://www.w3.org/2000/svg" xmlns:xlink="http://www.w3.org/1999/xlink">
<g id="graph0" class="graph" transform="scale(1 1) rotate(0) translate(4 133)">
<title>main/include/Bluetooth.hpp</title>
<!-- Node1 -->
<g id="Node000001" class="node">
<title>Node1</title>
<g id="a_Node000001"><a xlink:title="Defines the Bluetooth abstract base class for BLE communication.">
<polygon fill="#999999" stroke="#666666" points="371.5,-129 220.5,-129 220.5,-110 371.5,-110 371.5,-129"/>
<text text-anchor="middle" x="296" y="-117" font-family="Helvetica,sans-Serif" font-size="10.00">main/include/Bluetooth.hpp</text>
</a>
</g>
</g>
<!-- Node2 -->
<g id="Node000002" class="node">
<title>Node2</title>
<g id="a_Node000002"><a xlink:href="BLE__Client_8hpp.html" target="_top" xlink:title="Header file for the BLE_Client class, which implements a BLE (Bluetooth Low Energy) client.">
<polygon fill="white" stroke="#666666" points="160.5,-74 5.5,-74 5.5,-55 160.5,-55 160.5,-74"/>
<text text-anchor="middle" x="83" y="-62" font-family="Helvetica,sans-Serif" font-size="10.00">main/include/BLE_Client.hpp</text>
</a>
</g>
</g>
<!-- Node1&#45;&gt;Node2 -->
<g id="edge1_Node000001_Node000002" class="edge">
<title>Node1&#45;&gt;Node2</title>
<g id="a_edge1_Node000001_Node000002"><a xlink:title=" ">
<path fill="none" stroke="#63b8ff" d="M252.05,-107.56C212.16,-97.64 154.13,-83.2 117.49,-74.08"/>
<polygon fill="#63b8ff" stroke="#63b8ff" points="251.23,-110.97 261.78,-109.98 252.92,-104.17 251.23,-110.97"/>
</a>
</g>
</g>
<!-- Node4 -->
<g id="Node000004" class="node">
<title>Node4</title>
<g id="a_Node000004"><a xlink:href="main_8cpp.html" target="_top" xlink:title=" ">
<polygon fill="white" stroke="#666666" points="259.5,-19 152.5,-19 152.5,0 259.5,0 259.5,-19"/>
<text text-anchor="middle" x="206" y="-7" font-family="Helvetica,sans-Serif" font-size="10.00">main/src/main.cpp</text>
</a>
</g>
</g>
<!-- Node1&#45;&gt;Node4 -->
<g id="edge10_Node000001_Node000004" class="edge">
<title>Node1&#45;&gt;Node4</title>
<g id="a_edge10_Node000001_Node000004"><a xlink:title=" ">
<path fill="none" stroke="#63b8ff" d="M250.88,-106.37C234.56,-99.6 217.76,-89.33 208,-74 197.22,-57.07 200.76,-32.12 203.7,-19.11"/>
<polygon fill="#63b8ff" stroke="#63b8ff" points="249.79,-109.7 260.38,-109.96 252.27,-103.15 249.79,-109.7"/>
</a>
</g>
</g>
<!-- Node5 -->
<g id="Node000005" class="node">
<title>Node5</title>
<g id="a_Node000005"><a xlink:href="BLE__Config_8hpp.html" target="_top" xlink:title="Configuration file containing default values and structures for BLE server and client.">
<polygon fill="white" stroke="#666666" points="375,-74 217,-74 217,-55 375,-55 375,-74"/>
<text text-anchor="middle" x="296" y="-62" font-family="Helvetica,sans-Serif" font-size="10.00">main/include/BLE_Config.hpp</text>
</a>
</g>
</g>
<!-- Node1&#45;&gt;Node5 -->
<g id="edge4_Node000001_Node000005" class="edge">
<title>Node1&#45;&gt;Node5</title>
<g id="a_edge4_Node000001_Node000005"><a xlink:title=" ">
<path fill="none" stroke="#63b8ff" d="M289.51,-99.66C288.91,-90.93 289.36,-80.99 290.87,-74.09"/>
<polygon fill="#63b8ff" stroke="#63b8ff" points="286.06,-100.29 290.83,-109.75 293,-99.38 286.06,-100.29"/>
</a>
</g>
</g>
<!-- Node6 -->
<g id="Node000006" class="node">
<title>Node6</title>
<g id="a_Node000006"><a xlink:href="BLE__Server_8hpp.html" target="_top" xlink:title="Header file for the BLE_Server class, which implements a Bluetooth Low Energy (BLE) server.">
<polygon fill="white" stroke="#666666" points="551,-74 393,-74 393,-55 551,-55 551,-74"/>
<text text-anchor="middle" x="472" y="-62" font-family="Helvetica,sans-Serif" font-size="10.00">main/include/BLE_Server.hpp</text>
</a>
</g>
</g>
<!-- Node1&#45;&gt;Node6 -->
<g id="edge6_Node000001_Node000006" class="edge">
<title>Node1&#45;&gt;Node6</title>
<g id="a_edge6_Node000001_Node000006"><a xlink:title=" ">
<path fill="none" stroke="#63b8ff" d="M334,-107.06C366.9,-97.15 413.74,-83.04 443.5,-74.08"/>
<polygon fill="#63b8ff" stroke="#63b8ff" points="332.84,-103.75 324.28,-109.98 334.86,-110.45 332.84,-103.75"/>
</a>
</g>
</g>
<!-- Node8 -->
<g id="Node000008" class="node">
<title>Node8</title>
<g id="a_Node000008"><a xlink:href="Bluetooth_8cpp.html" target="_top" xlink:title="Implementation of the Bluetooth base class.">
<polygon fill="white" stroke="#666666" points="698.5,-74 569.5,-74 569.5,-55 698.5,-55 698.5,-74"/>
<text text-anchor="middle" x="634" y="-62" font-family="Helvetica,sans-Serif" font-size="10.00">main/src/Bluetooth.cpp</text>
</a>
</g>
</g>
<!-- Node1&#45;&gt;Node8 -->
<g id="edge9_Node000001_Node000008" class="edge">
<title>Node1&#45;&gt;Node8</title>
<g id="a_edge9_Node000001_Node000008"><a xlink:title=" ">
<path fill="none" stroke="#63b8ff" d="M360.2,-108.43C423.67,-98.48 519.71,-83.42 579.55,-74.04"/>
<polygon fill="#63b8ff" stroke="#63b8ff" points="359.64,-104.98 350.31,-109.98 360.73,-111.89 359.64,-104.98"/>
</a>
</g>
</g>
<!-- Node3 -->
<g id="Node000003" class="node">
<title>Node3</title>
<g id="a_Node000003"><a xlink:href="BLE__Client_8cpp.html" target="_top" xlink:title="Implementation of the BLE_Client class for managing BLE client functionality.">
<polygon fill="white" stroke="#666666" points="134,-19 0,-19 0,0 134,0 134,-19"/>
<text text-anchor="middle" x="67" y="-7" font-family="Helvetica,sans-Serif" font-size="10.00">main/src/BLE_Client.cpp</text>
</a>
</g>
</g>
<!-- Node2&#45;&gt;Node3 -->
<g id="edge2_Node000002_Node000003" class="edge">
<title>Node2&#45;&gt;Node3</title>
<g id="a_edge2_Node000002_Node000003"><a xlink:title=" ">
<path fill="none" stroke="#63b8ff" d="M77.4,-44.95C74.74,-36.15 71.7,-26.06 69.59,-19.09"/>
<polygon fill="#63b8ff" stroke="#63b8ff" points="74.12,-46.19 80.36,-54.75 80.82,-44.16 74.12,-46.19"/>
</a>
</g>
</g>
<!-- Node2&#45;&gt;Node4 -->
<g id="edge3_Node000002_Node000004" class="edge">
<title>Node2&#45;&gt;Node4</title>
<g id="a_edge3_Node000002_Node000004"><a xlink:title=" ">
<path fill="none" stroke="#63b8ff" d="M112.25,-50.9C134.97,-41.11 165.87,-27.79 185.88,-19.17"/>
<polygon fill="#63b8ff" stroke="#63b8ff" points="110.56,-47.81 102.76,-54.98 113.33,-54.24 110.56,-47.81"/>
</a>
</g>
</g>
<!-- Node5&#45;&gt;Node1 -->
<g id="edge5_Node000005_Node000001" class="edge">
<title>Node5&#45;&gt;Node1</title>
<g id="a_edge5_Node000005_Node000001"><a xlink:title=" ">
<path fill="none" stroke="#63b8ff" d="M302.48,-84.13C303.1,-92.85 302.66,-102.8 301.17,-109.75"/>
<polygon fill="#63b8ff" stroke="#63b8ff" points="305.93,-83.53 301.13,-74.09 298.99,-84.47 305.93,-83.53"/>
</a>
</g>
</g>
<!-- Node6&#45;&gt;Node4 -->
<g id="edge8_Node000006_Node000004" class="edge">
<title>Node6&#45;&gt;Node4</title>
<g id="a_edge8_Node000006_Node000004"><a xlink:title=" ">
<path fill="none" stroke="#63b8ff" d="M419.32,-53C369.45,-43.07 295.51,-28.33 249.07,-19.08"/>
<polygon fill="#63b8ff" stroke="#63b8ff" points="418.77,-56.46 429.26,-54.98 420.14,-49.6 418.77,-56.46"/>
</a>
</g>
</g>
<!-- Node7 -->
<g id="Node000007" class="node">
<title>Node7</title>
<g id="a_Node000007"><a xlink:href="BLE__Server_8cpp.html" target="_top" xlink:title="Implementation of the BLE_Server class for managing BLE server functionality.">
<polygon fill="white" stroke="#666666" points="540,-19 404,-19 404,0 540,0 540,-19"/>
<text text-anchor="middle" x="472" y="-7" font-family="Helvetica,sans-Serif" font-size="10.00">main/src/BLE_Server.cpp</text>
</a>
</g>
</g>
<!-- Node6&#45;&gt;Node7 -->
<g id="edge7_Node000006_Node000007" class="edge">
<title>Node6&#45;&gt;Node7</title>
<g id="a_edge7_Node000006_Node000007"><a xlink:title=" ">
<path fill="none" stroke="#63b8ff" d="M472,-44.66C472,-35.93 472,-25.99 472,-19.09"/>
<polygon fill="#63b8ff" stroke="#63b8ff" points="468.5,-44.75 472,-54.75 475.5,-44.75 468.5,-44.75"/>
</a>
</g>
</g>
</g>
</svg>
