<?xml version="1.0" encoding="UTF-8" standalone="no"?>
<!DOCTYPE svg PUBLIC "-//W3C//DTD SVG 1.1//EN"
 "http://www.w3.org/Graphics/SVG/1.1/DTD/svg11.dtd">
<!-- Generated by graphviz version 2.43.0 (0)
 -->
<!-- Title: rtos::Timer::Timer Pages: 1 -->
<svg width="448pt" height="27pt"
 viewBox="0.00 0.00 448.00 27.00" xmlns="http://www.w3.org/2000/svg" xmlns:xlink="http://www.w3.org/1999/xlink">
<g id="graph0" class="graph" transform="scale(1 1) rotate(0) translate(4 23)">
<title>rtos::Timer::Timer</title>
<!-- Node1 -->
<g id="Node000001" class="node">
<title>Node1</title>
<g id="a_Node000001"><a xlink:title=" ">
<polygon fill="#999999" stroke="#666666" points="104,-19 0,-19 0,0 104,0 104,-19"/>
<text text-anchor="middle" x="52" y="-7" font-family="Helvetica,sans-Serif" font-size="10.00">rtos::Timer::Timer</text>
</a>
</g>
</g>
<!-- Node2 -->
<g id="Node000002" class="node">
<title>Node2</title>
<g id="a_Node000002"><a xlink:href="classrtos_1_1Timer.html#aed92336ac21ecf95f7ea9783d708a365" target="_top" xlink:title=" ">
<polygon fill="white" stroke="#666666" points="295,-19 140,-19 140,0 295,0 295,-19"/>
<text text-anchor="middle" x="217.5" y="-7" font-family="Helvetica,sans-Serif" font-size="10.00">rtos::Timer::entryTrampoline</text>
</a>
</g>
</g>
<!-- Node1&#45;&gt;Node2 -->
<g id="edge1_Node000001_Node000002" class="edge">
<title>Node1&#45;&gt;Node2</title>
<g id="a_edge1_Node000001_Node000002"><a xlink:title=" ">
<path fill="none" stroke="#63b8ff" d="M104.28,-9.5C112.43,-9.5 121.04,-9.5 129.74,-9.5"/>
<polygon fill="#63b8ff" stroke="#63b8ff" points="129.95,-13 139.95,-9.5 129.95,-6 129.95,-13"/>
</a>
</g>
</g>
<!-- Node3 -->
<g id="Node000003" class="node">
<title>Node3</title>
<g id="a_Node000003"><a xlink:href="classrtos_1_1Timer.html#a6e17aafe3c7f751383264f6721d8f7f7" target="_top" xlink:title=" ">
<polygon fill="white" stroke="#666666" points="440,-19 331,-19 331,0 440,0 440,-19"/>
<text text-anchor="middle" x="385.5" y="-7" font-family="Helvetica,sans-Serif" font-size="10.00">rtos::Timer::handle</text>
</a>
</g>
</g>
<!-- Node2&#45;&gt;Node3 -->
<g id="edge2_Node000002_Node000003" class="edge">
<title>Node2&#45;&gt;Node3</title>
<g id="a_edge2_Node000002_Node000003"><a xlink:title=" ">
<path fill="none" stroke="#63b8ff" d="M295.18,-9.5C303.76,-9.5 312.43,-9.5 320.81,-9.5"/>
<polygon fill="#63b8ff" stroke="#63b8ff" points="320.88,-13 330.88,-9.5 320.88,-6 320.88,-13"/>
</a>
</g>
</g>
</g>
</svg>
