<?xml version="1.0" encoding="UTF-8" standalone="no"?>
<!DOCTYPE svg PUBLIC "-//W3C//DTD SVG 1.1//EN"
 "http://www.w3.org/Graphics/SVG/1.1/DTD/svg11.dtd">
<!-- Generated by graphviz version 2.43.0 (0)
 -->
<!-- Title: rtos::IMutex Pages: 1 -->
<svg width="172pt" height="351pt"
 viewBox="0.00 0.00 172.00 351.00" xmlns="http://www.w3.org/2000/svg" xmlns:xlink="http://www.w3.org/1999/xlink">

<svg id="main" version="1.1" xmlns="http://www.w3.org/2000/svg" xmlns:xlink="http://www.w3.org/1999/xlink" xml:space="preserve" onload="init(evt)">
<style type="text/css"><![CDATA[
.node, .edge {opacity: 0.7;}
.node.selected, .edge.selected {opacity: 1;}
.edge:hover path { stroke: red; }
.edge:hover polygon { stroke: red; fill: red; }
]]></style>
<script type="application/ecmascript" xlink:href="svg.min.js"/>
<svg id="graph" class="graph">
<g id="graph0" class="graph" transform="scale(1 1) rotate(0) translate(4 347)">
<title>rtos::IMutex</title>
<!-- Node1 -->
<g id="Node000001" class="node">
<title>Node1</title>
<g id="a_Node000001"><a xlink:title=" ">
<polygon fill="#999999" stroke="transparent" points="162,-343 2,-343 2,-223 162,-223 162,-343"/>
<text text-anchor="start" x="52.5" y="-331" font-family="Helvetica,sans-Serif" font-size="10.00">rtos::IMutex</text>
<text text-anchor="start" x="80" y="-316" font-family="Helvetica,sans-Serif" font-size="10.00"> </text>
<text text-anchor="start" x="6" y="-301" font-family="Helvetica,sans-Serif" font-size="10.00">+</text>
<text text-anchor="start" x="19" y="-301" font-family="Helvetica,sans-Serif" font-size="10.00">virtual ~IMutex()=default</text>
<text text-anchor="start" x="6" y="-286" font-family="Helvetica,sans-Serif" font-size="10.00">+</text>
<text text-anchor="start" x="19" y="-286" font-family="Helvetica,sans-Serif" font-size="10.00">virtual void lock()=0</text>
<text text-anchor="start" x="6" y="-271" font-family="Helvetica,sans-Serif" font-size="10.00">+</text>
<text text-anchor="start" x="19" y="-271" font-family="Helvetica,sans-Serif" font-size="10.00">virtual bool tryLock</text>
<text text-anchor="start" x="19" y="-260" font-family="Helvetica,sans-Serif" font-size="10.00">(uint32_t timeoutMs=0U)=0</text>
<text text-anchor="start" x="6" y="-245" font-family="Helvetica,sans-Serif" font-size="10.00">+</text>
<text text-anchor="start" x="19" y="-245" font-family="Helvetica,sans-Serif" font-size="10.00">virtual void unlock()=0</text>
<text text-anchor="start" x="6" y="-230" font-family="Helvetica,sans-Serif" font-size="10.00">#</text>
<text text-anchor="start" x="19" y="-230" font-family="Helvetica,sans-Serif" font-size="10.00">IMutex()=default</text>
<polygon fill="#666666" stroke="#666666" points="2,-326 2,-326 162,-326 162,-326 2,-326"/>
<polygon fill="#666666" stroke="#666666" points="2,-311 2,-311 162,-311 162,-311 2,-311"/>
<polygon fill="none" stroke="#666666" points="2,-223 2,-343 162,-343 162,-223 2,-223"/>
</a>
</g>
</g>
<!-- Node2 -->
<g id="Node000002" class="node">
<title>Node2</title>
<g id="a_Node000002"><a xlink:href="classrtos_1_1Mutex.html" target="_top" xlink:title=" ">
<polygon fill="white" stroke="transparent" points="164,-187 0,-187 0,0 164,0 164,-187"/>
<text text-anchor="start" x="54" y="-174.5" font-family="Helvetica,sans-Serif" font-size="10.00">rtos::Mutex</text>
<text text-anchor="start" x="6.5" y="-159.5" font-family="Helvetica,sans-Serif" font-size="10.00">&#45;</text>
<text text-anchor="start" x="17" y="-159.5" font-family="Helvetica,sans-Serif" font-size="10.00">SemaphoreHandle_t </text>
<text text-anchor="start" x="17" y="-148.5" font-family="Helvetica,sans-Serif" font-size="10.00">_handle</text>
<text text-anchor="start" x="4" y="-133.5" font-family="Helvetica,sans-Serif" font-size="10.00">+</text>
<text text-anchor="start" x="17" y="-133.5" font-family="Helvetica,sans-Serif" font-size="10.00">Mutex()</text>
<text text-anchor="start" x="4" y="-118.5" font-family="Helvetica,sans-Serif" font-size="10.00">+</text>
<text text-anchor="start" x="17" y="-118.5" font-family="Helvetica,sans-Serif" font-size="10.00">~Mutex() override</text>
<text text-anchor="start" x="4" y="-103.5" font-family="Helvetica,sans-Serif" font-size="10.00">+</text>
<text text-anchor="start" x="17" y="-103.5" font-family="Helvetica,sans-Serif" font-size="10.00">Mutex(const Mutex</text>
<text text-anchor="start" x="17" y="-92.5" font-family="Helvetica,sans-Serif" font-size="10.00"> &amp;)=delete</text>
<text text-anchor="start" x="4" y="-77.5" font-family="Helvetica,sans-Serif" font-size="10.00">+</text>
<text text-anchor="start" x="17" y="-77.5" font-family="Helvetica,sans-Serif" font-size="10.00">Mutex(Mutex &amp;&amp;)=delete</text>
<text text-anchor="start" x="4" y="-62.5" font-family="Helvetica,sans-Serif" font-size="10.00">+</text>
<text text-anchor="start" x="17" y="-62.5" font-family="Helvetica,sans-Serif" font-size="10.00">void lock() override</text>
<text text-anchor="start" x="4" y="-47.5" font-family="Helvetica,sans-Serif" font-size="10.00">+</text>
<text text-anchor="start" x="17" y="-47.5" font-family="Helvetica,sans-Serif" font-size="10.00">bool tryLock(uint32</text>
<text text-anchor="start" x="17" y="-36.5" font-family="Helvetica,sans-Serif" font-size="10.00">_t timeoutMs) override</text>
<text text-anchor="start" x="4" y="-21.5" font-family="Helvetica,sans-Serif" font-size="10.00">+</text>
<text text-anchor="start" x="17" y="-21.5" font-family="Helvetica,sans-Serif" font-size="10.00">void unlock() override</text>
<text text-anchor="start" x="4" y="-6.5" font-family="Helvetica,sans-Serif" font-size="10.00">+</text>
<text text-anchor="start" x="17" y="-6.5" font-family="Helvetica,sans-Serif" font-size="10.00">SemaphoreHandle_t handle()</text>
<polygon fill="#666666" stroke="#666666" points="0,-169.5 0,-169.5 164,-169.5 164,-169.5 0,-169.5"/>
<polygon fill="#666666" stroke="#666666" points="0,-143.5 0,-143.5 15,-143.5 15,-143.5 0,-143.5"/>
<polygon fill="#666666" stroke="#666666" points="15,-143.5 15,-143.5 164,-143.5 164,-143.5 15,-143.5"/>
<polygon fill="none" stroke="#666666" points="0,0 0,-187 164,-187 164,0 0,0"/>
</a>
</g>
</g>
<!-- Node1&#45;&gt;Node2 -->
<g id="edge1_Node000001_Node000002" class="edge">
<title>Node1&#45;&gt;Node2</title>
<g id="a_edge1_Node000001_Node000002"><a xlink:title=" ">
<path fill="none" stroke="#63b8ff" d="M82,-212.88C82,-204.52 82,-195.87 82,-187.23"/>
<polygon fill="none" stroke="#63b8ff" points="78.5,-212.93 82,-222.93 85.5,-212.93 78.5,-212.93"/>
</a>
</g>
</g>
</g>
</svg>
</svg>

<style type='text/css'>
<![CDATA[
[data-mouse-over-selected='false'] { opacity: 0.7; }
[data-mouse-over-selected='true']  { opacity: 1.0; }
]]>
</style>
<script type="application/ecmascript"><![CDATA[
document.addEventListener('DOMContentLoaded', (event) => {
  highlightEdges();
  highlightAdjacentNodes();
});
]]></script>
</svg>
