<?xml version="1.0" encoding="UTF-8" standalone="no"?>
<!DOCTYPE svg PUBLIC "-//W3C//DTD SVG 1.1//EN"
 "http://www.w3.org/Graphics/SVG/1.1/DTD/svg11.dtd">
<!-- Generated by graphviz version 2.43.0 (0)
 -->
<!-- Title: BLE_Client::connSetup Pages: 1 -->
<!--zoomable 124 -->

<svg id="main" version="1.1" xmlns="http://www.w3.org/2000/svg" xmlns:xlink="http://www.w3.org/1999/xlink" xml:space="preserve" onload="init(evt)">
<style type="text/css"><![CDATA[
.node, .edge {opacity: 0.7;}
.node.selected, .edge.selected {opacity: 1;}
.edge:hover path { stroke: red; }
.edge:hover polygon { stroke: red; fill: red; }
]]></style>

<defs>
  <circle id="rim" cx="0" cy="0" r="7"/>
  <circle id="rim2" cx="0" cy="0" r="3.5"/>
  <g id="zoomPlus">
    <use xlink:href="#rim" fill="#404040"><set attributeName="fill" to="#808080" begin="zoomplus.mouseover" end="zoomplus.mouseout"/></use>
    <path d="M-4,0h8M0,-4v8" fill="none" stroke="white" stroke-width="1.5" pointer-events="none"/>
  </g>
  <g id="zoomMin">
    <use xlink:href="#rim" fill="#404040"><set attributeName="fill" to="#808080" begin="zoomminus.mouseover" end="zoomminus.mouseout"/></use>
    <path d="M-4,0h8" fill="none" stroke="white" stroke-width="1.5" pointer-events="none"/>
  </g>
  <g id="arrowUp" transform="translate(30 24)">
    <use xlink:href="#rim"/>
    <path pointer-events="none" fill="none" stroke="white" stroke-width="1.5" d="M0,-3.0v7 M-2.5,-0.5L0,-3.0L2.5,-0.5"/>
  </g>
  <g id="arrowRight" transform="rotate(90) translate(36 -43)">
    <use xlink:href="#rim"/>
    <path pointer-events="none" fill="none" stroke="white" stroke-width="1.5" d="M0,-3.0v7 M-2.5,-0.5L0,-3.0L2.5,-0.5"/>
  </g>
  <g id="arrowDown" transform="rotate(180) translate(-30 -48)">
    <use xlink:href="#rim"/>
    <path pointer-events="none" fill="none" stroke="white" stroke-width="1.5" d="M0,-3.0v7 M-2.5,-0.5L0,-3.0L2.5,-0.5"/>
  </g>
  <g id="arrowLeft" transform="rotate(270) translate(-36 17)">
    <use xlink:href="#rim"/>
    <path pointer-events="none" fill="none" stroke="white" stroke-width="1.5" d="M0,-3.0v7 M-2.5,-0.5L0,-3.0L2.5,-0.5"/>
  </g>
  <g id="resetDef">
    <use xlink:href="#rim2" fill="#404040"><set attributeName="fill" to="#808080" begin="reset.mouseover" end="reset.mouseout"/></use>
  </g>
</defs>
<script type="application/ecmascript">
var viewWidth = 796;
var viewHeight = 124;
var sectionId = 'dynsection-2';
</script>
<script type="application/ecmascript" xlink:href="svg.min.js"/>
<svg id="graph" class="graph">
<g id="viewport">
<title>BLE_Client::connSetup</title>
<!-- Node1 -->
<g id="Node000001" class="node">
<title>Node1</title>
<g id="a_Node000001"><a xlink:title="Setup connection to BLE device.">
<polygon fill="#999999" stroke="#666666" points="125,-62 0,-62 0,-43 125,-43 125,-62"/>
<text text-anchor="middle" x="62.5" y="-50" font-family="Helvetica,sans-Serif" font-size="10.00">BLE_Client::connSetup</text>
</a>
</g>
</g>
<!-- Node2 -->
<g id="Node000002" class="node">
<title>Node2</title>
<g id="a_Node000002"><a xlink:href="classBLE__Client.html#a15f30a5983ca2cefe5c5cb15a461f670" target="_top" xlink:title="Static handler for GAP events.">
<polygon fill="white" stroke="#666666" points="289.5,-115.5 164.5,-115.5 164.5,-85.5 289.5,-85.5 289.5,-115.5"/>
<text text-anchor="start" x="172.5" y="-103.5" font-family="Helvetica,sans-Serif" font-size="10.00">BLE_Client::gap_event</text>
<text text-anchor="middle" x="227" y="-92.5" font-family="Helvetica,sans-Serif" font-size="10.00">_handler</text>
</a>
</g>
</g>
<!-- Node1&#45;&gt;Node2 -->
<g id="edge1_Node000001_Node000002" class="edge">
<title>Node1&#45;&gt;Node2</title>
<g id="a_edge1_Node000001_Node000002"><a xlink:title=" ">
<path fill="none" stroke="#63b8ff" d="M95.99,-62.1C115.77,-67.94 141.66,-75.59 165.12,-82.52"/>
<polygon fill="#63b8ff" stroke="#63b8ff" points="164.42,-85.96 175.01,-85.44 166.41,-79.25 164.42,-85.96"/>
</a>
</g>
</g>
<!-- Node5 -->
<g id="Node000005" class="node">
<title>Node5</title>
<g id="a_Node000005"><a xlink:href="classBLE__Client.html#af5183e3a5182ee8fc94f8b7e6446f283" target="_top" xlink:title="Static GATT client event handler.">
<polygon fill="white" stroke="#666666" points="293,-67.5 161,-67.5 161,-37.5 293,-37.5 293,-67.5"/>
<text text-anchor="start" x="169" y="-55.5" font-family="Helvetica,sans-Serif" font-size="10.00">BLE_Client::gattc_event</text>
<text text-anchor="middle" x="227" y="-44.5" font-family="Helvetica,sans-Serif" font-size="10.00">_handler</text>
</a>
</g>
</g>
<!-- Node1&#45;&gt;Node5 -->
<g id="edge4_Node000001_Node000005" class="edge">
<title>Node1&#45;&gt;Node5</title>
<g id="a_edge4_Node000001_Node000005"><a xlink:title=" ">
<path fill="none" stroke="#63b8ff" d="M125.4,-52.5C133.62,-52.5 142.13,-52.5 150.55,-52.5"/>
<polygon fill="#63b8ff" stroke="#63b8ff" points="150.76,-56 160.76,-52.5 150.76,-49 150.76,-56"/>
</a>
</g>
</g>
<!-- Node8 -->
<g id="Node000008" class="node">
<title>Node8</title>
<g id="a_Node000008"><a xlink:href="classMessageHandler.html#a43e563eaac4cb8183d977678d7fdd5aa" target="_top" xlink:title="Sends a message to the specified internal message queue.">
<polygon fill="white" stroke="#666666" points="600,-19 472,-19 472,0 600,0 600,-19"/>
<text text-anchor="middle" x="536" y="-7" font-family="Helvetica,sans-Serif" font-size="10.00">MessageHandler::send</text>
</a>
</g>
</g>
<!-- Node1&#45;&gt;Node8 -->
<g id="edge9_Node000001_Node000008" class="edge">
<title>Node1&#45;&gt;Node8</title>
<g id="a_edge9_Node000001_Node000008"><a xlink:title=" ">
<path fill="none" stroke="#63b8ff" d="M95.69,-42.94C114.55,-37.75 138.92,-31.75 161,-28.5 264.51,-13.27 385.68,-9.68 461.4,-9.11"/>
<polygon fill="#63b8ff" stroke="#63b8ff" points="461.8,-12.61 471.78,-9.05 461.76,-5.61 461.8,-12.61"/>
</a>
</g>
</g>
<!-- Node3 -->
<g id="Node000003" class="node">
<title>Node3</title>
<g id="a_Node000003"><a xlink:href="classBLE__Client.html#aa050530eb94a301df0718feef1b8842c" target="_top" xlink:title="Handles GAP events.">
<polygon fill="white" stroke="#666666" points="436,-115.5 329,-115.5 329,-85.5 436,-85.5 436,-115.5"/>
<text text-anchor="start" x="337" y="-103.5" font-family="Helvetica,sans-Serif" font-size="10.00">BLE_Client::handle</text>
<text text-anchor="middle" x="382.5" y="-92.5" font-family="Helvetica,sans-Serif" font-size="10.00">_event_gap</text>
</a>
</g>
</g>
<!-- Node2&#45;&gt;Node3 -->
<g id="edge2_Node000002_Node000003" class="edge">
<title>Node2&#45;&gt;Node3</title>
<g id="a_edge2_Node000002_Node000003"><a xlink:title=" ">
<path fill="none" stroke="#63b8ff" d="M289.55,-100.5C299.11,-100.5 308.99,-100.5 318.57,-100.5"/>
<polygon fill="#63b8ff" stroke="#63b8ff" points="318.83,-104 328.83,-100.5 318.83,-97 318.83,-104"/>
</a>
</g>
</g>
<!-- Node4 -->
<g id="Node000004" class="node">
<title>Node4</title>
<g id="a_Node000004"><a xlink:href="classBLE__Client.html#a2c5f3f096f90b18ed8260d21d5b90bb7" target="_top" xlink:title="Utility function to get a readable GAP event name.">
<polygon fill="white" stroke="#666666" points="592.5,-115.5 479.5,-115.5 479.5,-85.5 592.5,-85.5 592.5,-115.5"/>
<text text-anchor="start" x="487.5" y="-103.5" font-family="Helvetica,sans-Serif" font-size="10.00">BLE_Client::get_gap</text>
<text text-anchor="middle" x="536" y="-92.5" font-family="Helvetica,sans-Serif" font-size="10.00">_event_name</text>
</a>
</g>
</g>
<!-- Node3&#45;&gt;Node4 -->
<g id="edge3_Node000003_Node000004" class="edge">
<title>Node3&#45;&gt;Node4</title>
<g id="a_edge3_Node000003_Node000004"><a xlink:title=" ">
<path fill="none" stroke="#63b8ff" d="M436.06,-100.5C446.79,-100.5 458.21,-100.5 469.33,-100.5"/>
<polygon fill="#63b8ff" stroke="#63b8ff" points="469.44,-104 479.44,-100.5 469.44,-97 469.44,-104"/>
</a>
</g>
</g>
<!-- Node6 -->
<g id="Node000006" class="node">
<title>Node6</title>
<g id="a_Node000006"><a xlink:href="classBLE__Client.html#a6d1fee70056dbaeccb08d2ca5b34fad8" target="_top" xlink:title="Handle GATT client events.">
<polygon fill="white" stroke="#666666" points="436,-67.5 329,-67.5 329,-37.5 436,-37.5 436,-67.5"/>
<text text-anchor="start" x="337" y="-55.5" font-family="Helvetica,sans-Serif" font-size="10.00">BLE_Client::handle</text>
<text text-anchor="middle" x="382.5" y="-44.5" font-family="Helvetica,sans-Serif" font-size="10.00">_event_gattc</text>
</a>
</g>
</g>
<!-- Node5&#45;&gt;Node6 -->
<g id="edge5_Node000005_Node000006" class="edge">
<title>Node5&#45;&gt;Node6</title>
<g id="a_edge5_Node000005_Node000006"><a xlink:title=" ">
<path fill="none" stroke="#63b8ff" d="M293.1,-52.5C301.58,-52.5 310.26,-52.5 318.7,-52.5"/>
<polygon fill="#63b8ff" stroke="#63b8ff" points="318.85,-56 328.85,-52.5 318.85,-49 318.85,-56"/>
</a>
</g>
</g>
<!-- Node7 -->
<g id="Node000007" class="node">
<title>Node7</title>
<g id="a_Node000007"><a xlink:href="classBLE__Client.html#a99be33718c424a104d0dcf279b72d517" target="_top" xlink:title="Utility function to get a readable GATT client event name.">
<polygon fill="white" stroke="#666666" points="596,-67.5 476,-67.5 476,-37.5 596,-37.5 596,-67.5"/>
<text text-anchor="start" x="484" y="-55.5" font-family="Helvetica,sans-Serif" font-size="10.00">BLE_Client::get_gattc</text>
<text text-anchor="middle" x="536" y="-44.5" font-family="Helvetica,sans-Serif" font-size="10.00">_event_name</text>
</a>
</g>
</g>
<!-- Node6&#45;&gt;Node7 -->
<g id="edge6_Node000006_Node000007" class="edge">
<title>Node6&#45;&gt;Node7</title>
<g id="a_edge6_Node000006_Node000007"><a xlink:title=" ">
<path fill="none" stroke="#63b8ff" d="M436.06,-52.5C445.58,-52.5 455.63,-52.5 465.54,-52.5"/>
<polygon fill="#63b8ff" stroke="#63b8ff" points="465.79,-56 475.79,-52.5 465.79,-49 465.79,-56"/>
</a>
</g>
</g>
<!-- Node6&#45;&gt;Node8 -->
<g id="edge7_Node000006_Node000008" class="edge">
<title>Node6&#45;&gt;Node8</title>
<g id="a_edge7_Node000006_Node000008"><a xlink:title=" ">
<path fill="none" stroke="#63b8ff" d="M436.06,-37.58C454.21,-32.43 474.32,-26.72 491.64,-21.81"/>
<polygon fill="#63b8ff" stroke="#63b8ff" points="492.82,-25.11 501.49,-19.01 490.91,-18.38 492.82,-25.11"/>
</a>
</g>
</g>
<!-- Node9 -->
<g id="Node000009" class="node">
<title>Node9</title>
<g id="a_Node000009"><a xlink:href="classMessageHandler.html#afb781c303001059d81235464ae91e0bd" target="_top" xlink:title="Internal helper to retrieve the appropriate message queue.">
<polygon fill="white" stroke="#666666" points="788,-19 636,-19 636,0 788,0 788,-19"/>
<text text-anchor="middle" x="712" y="-7" font-family="Helvetica,sans-Serif" font-size="10.00">MessageHandler::getQueue</text>
</a>
</g>
</g>
<!-- Node8&#45;&gt;Node9 -->
<g id="edge8_Node000008_Node000009" class="edge">
<title>Node8&#45;&gt;Node9</title>
<g id="a_edge8_Node000008_Node000009"><a xlink:title=" ">
<path fill="none" stroke="#63b8ff" d="M600.31,-9.5C608.62,-9.5 617.24,-9.5 625.84,-9.5"/>
<polygon fill="#63b8ff" stroke="#63b8ff" points="625.91,-13 635.91,-9.5 625.91,-6 625.91,-13"/>
</a>
</g>
</g>
</g>
</svg>

<g id="navigator" transform="translate(0 0)" fill="#404254">
  <rect fill="#f2f5e9" fill-opacity="0.5" stroke="#606060" stroke-width=".5" x="0" y="0" width="60" height="60"/>
  <use id="zoomplus" xlink:href="#zoomPlus" x="17" y="9" onmousedown="handleZoom(evt,'in')"/>
  <use id="zoomminus" xlink:href="#zoomMin" x="42" y="9" onmousedown="handleZoom(evt,'out')"/>
  <use id="reset" xlink:href="#resetDef" x="30" y="36" onmousedown="handleReset()"/>
   <use id="arrowup" xlink:href="#arrowUp" x="0" y="0" onmousedown="handlePan(0,-1)"/>
  <use id="arrowright" xlink:href="#arrowRight" x="0" y="0" onmousedown="handlePan(1,0)"/>
  <use id="arrowdown" xlink:href="#arrowDown" x="0" y="0" onmousedown="handlePan(0,1)"/>
  <use id="arrowleft" xlink:href="#arrowLeft" x="0" y="0" onmousedown="handlePan(-1,0)"/>
</g>
<svg viewBox="0 0 15 15" width="100%" height="30px" preserveAspectRatio="xMaxYMin meet">
 <g id="arrow_out" transform="scale(0.3 0.3)">
  <a xlink:href="classBLE__Client_a5d2a0279434b36e78bddad970082bbd1_cgraph_org.svg" target="_base">
   <rect id="button" ry="5" rx="5" y="6" x="6" height="38" width="38"
        fill="#f2f5e9" fill-opacity="0.5" stroke="#606060" stroke-width="1.0"/>
   <path id="arrow"
     d="M 11.500037,31.436501 C 11.940474,20.09759 22.043105,11.32322 32.158766,21.979434 L 37.068811,17.246167 C 37.068811,17.246167 37.088388,32 37.088388,32 L 22.160133,31.978069 C 22.160133,31.978069 26.997745,27.140456 26.997745,27.140456 C 18.528582,18.264221 13.291696,25.230495 11.500037,31.436501 z"
     style="fill:#404040;"/>
  </a>
 </g>
</svg>

<style type='text/css'>
<![CDATA[
[data-mouse-over-selected='false'] { opacity: 0.7; }
[data-mouse-over-selected='true']  { opacity: 1.0; }
]]>
</style>
<script type="application/ecmascript"><![CDATA[
document.addEventListener('DOMContentLoaded', (event) => {
  highlightEdges();
  highlightAdjacentNodes();
});
]]></script>
</svg>
