<?xml version="1.0" encoding="UTF-8" standalone="no"?>
<!DOCTYPE svg PUBLIC "-//W3C//DTD SVG 1.1//EN"
 "http://www.w3.org/Graphics/SVG/1.1/DTD/svg11.dtd">
<!-- Generated by graphviz version 2.43.0 (0)
 -->
<!-- Title: Uart::send Pages: 1 -->
<svg width="446pt" height="145pt"
 viewBox="0.00 0.00 446.00 144.75" xmlns="http://www.w3.org/2000/svg" xmlns:xlink="http://www.w3.org/1999/xlink">
<g id="graph0" class="graph" transform="scale(1 1) rotate(0) translate(4 140.75)">
<title>Uart::send</title>
<!-- Node1 -->
<g id="Node000001" class="node">
<title>Node1</title>
<g id="a_Node000001"><a xlink:title="Send raw data over UART.">
<polygon fill="#999999" stroke="#666666" points="438,-74.79 371,-74.79 371,-55.79 438,-55.79 438,-74.79"/>
<text text-anchor="middle" x="404.5" y="-62.79" font-family="Helvetica,sans-Serif" font-size="10.00">Uart::send</text>
</a>
</g>
</g>
<!-- Node2 -->
<g id="Node000002" class="node">
<title>Node2</title>
<g id="a_Node000002"><a xlink:href="main_8cpp.html#a630544a7f0a2cc40d8a7fefab7e2fe70" target="_top" xlink:title=" ">
<polygon fill="white" stroke="#666666" points="65,-92.79 0,-92.79 0,-73.79 65,-73.79 65,-92.79"/>
<text text-anchor="middle" x="32.5" y="-80.79" font-family="Helvetica,sans-Serif" font-size="10.00">app_main</text>
</a>
</g>
</g>
<!-- Node1&#45;&gt;Node2 -->
<g id="edge1_Node000001_Node000002" class="edge">
<title>Node1&#45;&gt;Node2</title>
<g id="a_edge1_Node000001_Node000002"><a xlink:title=" ">
<path fill="none" stroke="#63b8ff" d="M381.7,-80.66C368.73,-89.03 351.62,-98.77 335,-104.29 236.04,-137.14 201.87,-147.73 101,-121.29 80.19,-115.83 59.02,-102.36 46.08,-93.01"/>
<polygon fill="#63b8ff" stroke="#63b8ff" points="383.97,-83.36 390.34,-74.89 380.08,-77.53 383.97,-83.36"/>
</a>
</g>
</g>
<!-- Node3 -->
<g id="Node000003" class="node">
<title>Node3</title>
<g id="a_Node000003"><a xlink:href="main_8cpp.html#ac672c86fb27ee5d971791cf8570ec137" target="_top" xlink:title=" ">
<polygon fill="white" stroke="#666666" points="195.5,-111.79 103.5,-111.79 103.5,-92.79 195.5,-92.79 195.5,-111.79"/>
<text text-anchor="middle" x="149.5" y="-99.79" font-family="Helvetica,sans-Serif" font-size="10.00">getBleInterface</text>
</a>
</g>
</g>
<!-- Node1&#45;&gt;Node3 -->
<g id="edge2_Node000001_Node000003" class="edge">
<title>Node1&#45;&gt;Node3</title>
<g id="a_edge2_Node000001_Node000003"><a xlink:title=" ">
<path fill="none" stroke="#63b8ff" d="M363.61,-77.61C354.29,-80.13 344.36,-82.55 335,-84.29 287.86,-93.06 233.09,-97.72 195.54,-100.08"/>
<polygon fill="#63b8ff" stroke="#63b8ff" points="364.74,-80.93 373.42,-74.85 362.84,-74.19 364.74,-80.93"/>
</a>
</g>
</g>
<!-- Node4 -->
<g id="Node000004" class="node">
<title>Node4</title>
<g id="a_Node000004"><a xlink:href="classUart.html#a7e4639969ae7afcfddcf7908e0b29e54" target="_top" xlink:title="Task function to read characters from UART and buffer input.">
<polygon fill="white" stroke="#666666" points="335,-74.79 234,-74.79 234,-55.79 335,-55.79 335,-74.79"/>
<text text-anchor="middle" x="284.5" y="-62.79" font-family="Helvetica,sans-Serif" font-size="10.00">Uart::receiveTask</text>
</a>
</g>
</g>
<!-- Node1&#45;&gt;Node4 -->
<g id="edge4_Node000001_Node000004" class="edge">
<title>Node1&#45;&gt;Node4</title>
<g id="a_edge4_Node000001_Node000004"><a xlink:title=" ">
<path fill="none" stroke="#63b8ff" d="M360.74,-65.29C352.45,-65.29 343.69,-65.29 335.2,-65.29"/>
<polygon fill="#63b8ff" stroke="#63b8ff" points="360.94,-68.79 370.94,-65.29 360.94,-61.79 360.94,-68.79"/>
</a>
</g>
</g>
<!-- Node6 -->
<g id="Node000006" class="node">
<title>Node6</title>
<g id="a_Node000006"><a xlink:href="classUart.html#a1e251525523677bf41341371c4a240f6" target="_top" xlink:title="Task function to transmit data from a queue to UART.">
<polygon fill="white" stroke="#666666" points="329,-37.79 240,-37.79 240,-18.79 329,-18.79 329,-37.79"/>
<text text-anchor="middle" x="284.5" y="-25.79" font-family="Helvetica,sans-Serif" font-size="10.00">Uart::sendTask</text>
</a>
</g>
</g>
<!-- Node1&#45;&gt;Node6 -->
<g id="edge8_Node000001_Node000006" class="edge">
<title>Node1&#45;&gt;Node6</title>
<g id="a_edge8_Node000001_Node000006"><a xlink:title=" ">
<path fill="none" stroke="#63b8ff" d="M363.31,-52.69C347.9,-47.86 330.58,-42.43 316.2,-37.92"/>
<polygon fill="#63b8ff" stroke="#63b8ff" points="362.52,-56.11 373.11,-55.76 364.62,-49.43 362.52,-56.11"/>
</a>
</g>
</g>
<!-- Node7 -->
<g id="Node000007" class="node">
<title>Node7</title>
<g id="a_Node000007"><a xlink:href="main_8cpp.html#a9a1ff8d552650f42d63d78590253bf6d" target="_top" xlink:title=" ">
<polygon fill="white" stroke="#666666" points="190.5,-37.79 108.5,-37.79 108.5,-18.79 190.5,-18.79 190.5,-37.79"/>
<text text-anchor="middle" x="149.5" y="-25.79" font-family="Helvetica,sans-Serif" font-size="10.00">uartSendTask</text>
</a>
</g>
</g>
<!-- Node1&#45;&gt;Node7 -->
<g id="edge11_Node000001_Node000007" class="edge">
<title>Node1&#45;&gt;Node7</title>
<g id="a_edge11_Node000001_Node000007"><a xlink:title=" ">
<path fill="none" stroke="#63b8ff" d="M388.49,-47.72C375.8,-34.31 356.33,-16.9 335,-9.29 281.02,9.97 212.9,-6.74 176.41,-18.71"/>
<polygon fill="#63b8ff" stroke="#63b8ff" points="386.16,-50.36 395.47,-55.42 391.35,-45.66 386.16,-50.36"/>
</a>
</g>
</g>
<!-- Node3&#45;&gt;Node2 -->
<g id="edge3_Node000003_Node000002" class="edge">
<title>Node3&#45;&gt;Node2</title>
<g id="a_edge3_Node000003_Node000002"><a xlink:title=" ">
<path fill="none" stroke="#63b8ff" d="M93.32,-93.17C83.6,-91.57 73.79,-89.95 65,-88.5"/>
<polygon fill="#63b8ff" stroke="#63b8ff" points="92.94,-96.66 103.38,-94.84 94.08,-89.75 92.94,-96.66"/>
</a>
</g>
</g>
<!-- Node4&#45;&gt;Node3 -->
<g id="edge5_Node000004_Node000003" class="edge">
<title>Node4&#45;&gt;Node3</title>
<g id="a_edge5_Node000004_Node000003"><a xlink:title=" ">
<path fill="none" stroke="#63b8ff" d="M239.19,-77.62C221.58,-82.52 201.62,-88.07 185.1,-92.67"/>
<polygon fill="#63b8ff" stroke="#63b8ff" points="240.55,-80.87 249.25,-74.82 238.68,-74.13 240.55,-80.87"/>
</a>
</g>
</g>
<!-- Node5 -->
<g id="Node000005" class="node">
<title>Node5</title>
<g id="a_Node000005"><a xlink:href="main_8cpp.html#ad6d6c8ccee27b130f7eb2c9a3c8765a1" target="_top" xlink:title=" ">
<polygon fill="white" stroke="#666666" points="198,-74.79 101,-74.79 101,-55.79 198,-55.79 198,-74.79"/>
<text text-anchor="middle" x="149.5" y="-62.79" font-family="Helvetica,sans-Serif" font-size="10.00">uartReceiveTask</text>
</a>
</g>
</g>
<!-- Node4&#45;&gt;Node5 -->
<g id="edge6_Node000004_Node000005" class="edge">
<title>Node4&#45;&gt;Node5</title>
<g id="a_edge6_Node000004_Node000005"><a xlink:title=" ">
<path fill="none" stroke="#63b8ff" d="M223.71,-65.29C215.2,-65.29 206.54,-65.29 198.3,-65.29"/>
<polygon fill="#63b8ff" stroke="#63b8ff" points="223.98,-68.79 233.98,-65.29 223.98,-61.79 223.98,-68.79"/>
</a>
</g>
</g>
<!-- Node5&#45;&gt;Node2 -->
<g id="edge7_Node000005_Node000002" class="edge">
<title>Node5&#45;&gt;Node2</title>
<g id="a_edge7_Node000005_Node000002"><a xlink:title=" ">
<path fill="none" stroke="#63b8ff" d="M90.82,-74.32C82.01,-75.7 73.2,-77.08 65.23,-78.32"/>
<polygon fill="#63b8ff" stroke="#63b8ff" points="91.39,-77.77 100.73,-72.77 90.31,-70.86 91.39,-77.77"/>
</a>
</g>
</g>
<!-- Node6&#45;&gt;Node7 -->
<g id="edge9_Node000006_Node000007" class="edge">
<title>Node6&#45;&gt;Node7</title>
<g id="a_edge9_Node000006_Node000007"><a xlink:title=" ">
<path fill="none" stroke="#63b8ff" d="M229.66,-28.29C216.59,-28.29 202.85,-28.29 190.55,-28.29"/>
<polygon fill="#63b8ff" stroke="#63b8ff" points="229.95,-31.79 239.95,-28.29 229.95,-24.79 229.95,-31.79"/>
</a>
</g>
</g>
<!-- Node7&#45;&gt;Node2 -->
<g id="edge10_Node000007_Node000002" class="edge">
<title>Node7&#45;&gt;Node2</title>
<g id="a_edge10_Node000007_Node000002"><a xlink:title=" ">
<path fill="none" stroke="#63b8ff" d="M111.6,-41.69C107.99,-43.18 104.4,-44.72 101,-46.29 82.92,-54.62 63.02,-65.79 49.54,-73.67"/>
<polygon fill="#63b8ff" stroke="#63b8ff" points="113.09,-44.87 121.1,-37.93 110.52,-38.36 113.09,-44.87"/>
</a>
</g>
</g>
</g>
</svg>
