<?xml version="1.0" encoding="UTF-8" standalone="no"?>
<!DOCTYPE svg PUBLIC "-//W3C//DTD SVG 1.1//EN"
 "http://www.w3.org/Graphics/SVG/1.1/DTD/svg11.dtd">
<!-- Generated by graphviz version 2.43.0 (0)
 -->
<!-- Title: BLE_Client::get_gattc_event_name Pages: 1 -->
<svg width="600pt" height="38pt"
 viewBox="0.00 0.00 600.00 38.00" xmlns="http://www.w3.org/2000/svg" xmlns:xlink="http://www.w3.org/1999/xlink">
<g id="graph0" class="graph" transform="scale(1 1) rotate(0) translate(4 34)">
<title>BLE_Client::get_gattc_event_name</title>
<!-- Node1 -->
<g id="Node000001" class="node">
<title>Node1</title>
<g id="a_Node000001"><a xlink:title="Utility function to get a readable GATT client event name.">
<polygon fill="#999999" stroke="#666666" points="592,-30 472,-30 472,0 592,0 592,-30"/>
<text text-anchor="start" x="480" y="-18" font-family="Helvetica,sans-Serif" font-size="10.00">BLE_Client::get_gattc</text>
<text text-anchor="middle" x="532" y="-7" font-family="Helvetica,sans-Serif" font-size="10.00">_event_name</text>
</a>
</g>
</g>
<!-- Node2 -->
<g id="Node000002" class="node">
<title>Node2</title>
<g id="a_Node000002"><a xlink:href="classBLE__Client.html#a6d1fee70056dbaeccb08d2ca5b34fad8" target="_top" xlink:title="Handle GATT client events.">
<polygon fill="white" stroke="#666666" points="436,-30 329,-30 329,0 436,0 436,-30"/>
<text text-anchor="start" x="337" y="-18" font-family="Helvetica,sans-Serif" font-size="10.00">BLE_Client::handle</text>
<text text-anchor="middle" x="382.5" y="-7" font-family="Helvetica,sans-Serif" font-size="10.00">_event_gattc</text>
</a>
</g>
</g>
<!-- Node1&#45;&gt;Node2 -->
<g id="edge1_Node000001_Node000002" class="edge">
<title>Node1&#45;&gt;Node2</title>
<g id="a_edge1_Node000001_Node000002"><a xlink:title=" ">
<path fill="none" stroke="#63b8ff" d="M461.61,-15C453.16,-15 444.62,-15 436.46,-15"/>
<polygon fill="#63b8ff" stroke="#63b8ff" points="461.86,-18.5 471.86,-15 461.86,-11.5 461.86,-18.5"/>
</a>
</g>
</g>
<!-- Node3 -->
<g id="Node000003" class="node">
<title>Node3</title>
<g id="a_Node000003"><a xlink:href="classBLE__Client.html#af5183e3a5182ee8fc94f8b7e6446f283" target="_top" xlink:title="Static GATT client event handler.">
<polygon fill="white" stroke="#666666" points="293,-30 161,-30 161,0 293,0 293,-30"/>
<text text-anchor="start" x="169" y="-18" font-family="Helvetica,sans-Serif" font-size="10.00">BLE_Client::gattc_event</text>
<text text-anchor="middle" x="227" y="-7" font-family="Helvetica,sans-Serif" font-size="10.00">_handler</text>
</a>
</g>
</g>
<!-- Node2&#45;&gt;Node3 -->
<g id="edge2_Node000002_Node000003" class="edge">
<title>Node2&#45;&gt;Node3</title>
<g id="a_edge2_Node000002_Node000003"><a xlink:title=" ">
<path fill="none" stroke="#63b8ff" d="M318.58,-15C310.18,-15 301.56,-15 293.13,-15"/>
<polygon fill="#63b8ff" stroke="#63b8ff" points="318.67,-18.5 328.67,-15 318.67,-11.5 318.67,-18.5"/>
</a>
</g>
</g>
<!-- Node4 -->
<g id="Node000004" class="node">
<title>Node4</title>
<g id="a_Node000004"><a xlink:href="classBLE__Client.html#a5d2a0279434b36e78bddad970082bbd1" target="_top" xlink:title="Setup connection to BLE device.">
<polygon fill="white" stroke="#666666" points="125,-24.5 0,-24.5 0,-5.5 125,-5.5 125,-24.5"/>
<text text-anchor="middle" x="62.5" y="-12.5" font-family="Helvetica,sans-Serif" font-size="10.00">BLE_Client::connSetup</text>
</a>
</g>
</g>
<!-- Node3&#45;&gt;Node4 -->
<g id="edge3_Node000003_Node000004" class="edge">
<title>Node3&#45;&gt;Node4</title>
<g id="a_edge3_Node000003_Node000004"><a xlink:title=" ">
<path fill="none" stroke="#63b8ff" d="M150.57,-15C142.09,-15 133.52,-15 125.24,-15"/>
<polygon fill="#63b8ff" stroke="#63b8ff" points="150.84,-18.5 160.84,-15 150.84,-11.5 150.84,-18.5"/>
</a>
</g>
</g>
</g>
</svg>
