<?xml version="1.0" encoding="UTF-8" standalone="no"?>
<!DOCTYPE svg PUBLIC "-//W3C//DTD SVG 1.1//EN"
 "http://www.w3.org/Graphics/SVG/1.1/DTD/svg11.dtd">
<!-- Generated by graphviz version 2.43.0 (0)
 -->
<!-- Title: rtos::ISemaphore Pages: 1 -->
<svg width="174pt" height="462pt"
 viewBox="0.00 0.00 174.00 462.00" xmlns="http://www.w3.org/2000/svg" xmlns:xlink="http://www.w3.org/1999/xlink">
<g id="graph0" class="graph" transform="scale(1 1) rotate(0) translate(4 458)">
<title>rtos::ISemaphore</title>
<!-- Node1 -->
<g id="Node000001" class="node">
<title>Node1</title>
<g id="a_Node000001"><a xlink:title=" ">
<polygon fill="#999999" stroke="transparent" points="163,-454 3,-454 3,-323 163,-323 163,-454"/>
<text text-anchor="start" x="41" y="-441.5" font-family="Helvetica,sans-Serif" font-size="10.00">rtos::ISemaphore</text>
<text text-anchor="start" x="81" y="-426.5" font-family="Helvetica,sans-Serif" font-size="10.00"> </text>
<text text-anchor="start" x="7" y="-411.5" font-family="Helvetica,sans-Serif" font-size="10.00">+</text>
<text text-anchor="start" x="20" y="-411.5" font-family="Helvetica,sans-Serif" font-size="10.00">virtual ~ISemaphore</text>
<text text-anchor="start" x="20" y="-400.5" font-family="Helvetica,sans-Serif" font-size="10.00">()=default</text>
<text text-anchor="start" x="7" y="-385.5" font-family="Helvetica,sans-Serif" font-size="10.00">+</text>
<text text-anchor="start" x="20" y="-385.5" font-family="Helvetica,sans-Serif" font-size="10.00">virtual void acquire()=0</text>
<text text-anchor="start" x="7" y="-370.5" font-family="Helvetica,sans-Serif" font-size="10.00">+</text>
<text text-anchor="start" x="20" y="-370.5" font-family="Helvetica,sans-Serif" font-size="10.00">virtual bool tryAcquire</text>
<text text-anchor="start" x="20" y="-359.5" font-family="Helvetica,sans-Serif" font-size="10.00">(uint32_t timeoutMs=0U)=0</text>
<text text-anchor="start" x="7" y="-344.5" font-family="Helvetica,sans-Serif" font-size="10.00">+</text>
<text text-anchor="start" x="20" y="-344.5" font-family="Helvetica,sans-Serif" font-size="10.00">virtual void release()=0</text>
<text text-anchor="start" x="7" y="-329.5" font-family="Helvetica,sans-Serif" font-size="10.00">#</text>
<text text-anchor="start" x="20" y="-329.5" font-family="Helvetica,sans-Serif" font-size="10.00">ISemaphore()=default</text>
<polygon fill="#666666" stroke="#666666" points="3,-436.5 3,-436.5 163,-436.5 163,-436.5 3,-436.5"/>
<polygon fill="#666666" stroke="#666666" points="3,-421.5 3,-421.5 163,-421.5 163,-421.5 3,-421.5"/>
<polygon fill="none" stroke="#666666" points="3,-323 3,-454 163,-454 163,-323 3,-323"/>
</a>
</g>
</g>
<!-- Node2 -->
<g id="Node000002" class="node">
<title>Node2</title>
<g id="a_Node000002"><a xlink:href="classrtos_1_1Semaphore.html" target="_top" xlink:title=" ">
<polygon fill="white" stroke="transparent" points="166,-287 0,-287 0,0 166,0 166,-287"/>
<text text-anchor="start" x="42.5" y="-274.5" font-family="Helvetica,sans-Serif" font-size="10.00">rtos::Semaphore</text>
<text text-anchor="start" x="6.5" y="-259.5" font-family="Helvetica,sans-Serif" font-size="10.00">&#45;</text>
<text text-anchor="start" x="17" y="-259.5" font-family="Helvetica,sans-Serif" font-size="10.00">SemaphoreHandle_t </text>
<text text-anchor="start" x="17" y="-248.5" font-family="Helvetica,sans-Serif" font-size="10.00">_handle</text>
<text text-anchor="start" x="4" y="-233.5" font-family="Helvetica,sans-Serif" font-size="10.00">+</text>
<text text-anchor="start" x="17" y="-233.5" font-family="Helvetica,sans-Serif" font-size="10.00">Semaphore()</text>
<text text-anchor="start" x="4" y="-218.5" font-family="Helvetica,sans-Serif" font-size="10.00">+</text>
<text text-anchor="start" x="17" y="-218.5" font-family="Helvetica,sans-Serif" font-size="10.00">Semaphore(uint32_t</text>
<text text-anchor="start" x="17" y="-207.5" font-family="Helvetica,sans-Serif" font-size="10.00"> count, uint32_t initial=0)</text>
<text text-anchor="start" x="4" y="-192.5" font-family="Helvetica,sans-Serif" font-size="10.00">+</text>
<text text-anchor="start" x="17" y="-192.5" font-family="Helvetica,sans-Serif" font-size="10.00">~Semaphore() override</text>
<text text-anchor="start" x="4" y="-177.5" font-family="Helvetica,sans-Serif" font-size="10.00">+</text>
<text text-anchor="start" x="17" y="-177.5" font-family="Helvetica,sans-Serif" font-size="10.00">Semaphore(const Semaphore</text>
<text text-anchor="start" x="17" y="-166.5" font-family="Helvetica,sans-Serif" font-size="10.00"> &amp;)=delete</text>
<text text-anchor="start" x="4" y="-151.5" font-family="Helvetica,sans-Serif" font-size="10.00">+</text>
<text text-anchor="start" x="17" y="-151.5" font-family="Helvetica,sans-Serif" font-size="10.00">Semaphore(Semaphore</text>
<text text-anchor="start" x="17" y="-140.5" font-family="Helvetica,sans-Serif" font-size="10.00"> &amp;&amp;)=delete</text>
<text text-anchor="start" x="4" y="-125.5" font-family="Helvetica,sans-Serif" font-size="10.00">+</text>
<text text-anchor="start" x="17" y="-125.5" font-family="Helvetica,sans-Serif" font-size="10.00">Semaphore &amp; operator</text>
<text text-anchor="start" x="17" y="-114.5" font-family="Helvetica,sans-Serif" font-size="10.00">=(const Semaphore &amp;)</text>
<text text-anchor="start" x="17" y="-103.5" font-family="Helvetica,sans-Serif" font-size="10.00">=delete</text>
<text text-anchor="start" x="4" y="-88.5" font-family="Helvetica,sans-Serif" font-size="10.00">+</text>
<text text-anchor="start" x="17" y="-88.5" font-family="Helvetica,sans-Serif" font-size="10.00">Semaphore &amp;&amp; operator</text>
<text text-anchor="start" x="17" y="-77.5" font-family="Helvetica,sans-Serif" font-size="10.00">=(Semaphore &amp;&amp;)=delete</text>
<text text-anchor="start" x="4" y="-62.5" font-family="Helvetica,sans-Serif" font-size="10.00">+</text>
<text text-anchor="start" x="17" y="-62.5" font-family="Helvetica,sans-Serif" font-size="10.00">void acquire() override</text>
<text text-anchor="start" x="4" y="-47.5" font-family="Helvetica,sans-Serif" font-size="10.00">+</text>
<text text-anchor="start" x="17" y="-47.5" font-family="Helvetica,sans-Serif" font-size="10.00">bool tryAcquire(uint32</text>
<text text-anchor="start" x="17" y="-36.5" font-family="Helvetica,sans-Serif" font-size="10.00">_t timeoutMs=0U) override</text>
<text text-anchor="start" x="4" y="-21.5" font-family="Helvetica,sans-Serif" font-size="10.00">+</text>
<text text-anchor="start" x="17" y="-21.5" font-family="Helvetica,sans-Serif" font-size="10.00">void release() override</text>
<text text-anchor="start" x="4" y="-6.5" font-family="Helvetica,sans-Serif" font-size="10.00">+</text>
<text text-anchor="start" x="17" y="-6.5" font-family="Helvetica,sans-Serif" font-size="10.00">SemaphoreHandle_t handle()</text>
<polygon fill="#666666" stroke="#666666" points="0,-269.5 0,-269.5 166,-269.5 166,-269.5 0,-269.5"/>
<polygon fill="#666666" stroke="#666666" points="0,-243.5 0,-243.5 15,-243.5 15,-243.5 0,-243.5"/>
<polygon fill="#666666" stroke="#666666" points="15,-243.5 15,-243.5 166,-243.5 166,-243.5 15,-243.5"/>
<polygon fill="none" stroke="#666666" points="0,0 0,-287 166,-287 166,0 0,0"/>
</a>
</g>
</g>
<!-- Node1&#45;&gt;Node2 -->
<g id="edge1_Node000001_Node000002" class="edge">
<title>Node1&#45;&gt;Node2</title>
<g id="a_edge1_Node000001_Node000002"><a xlink:title=" ">
<path fill="none" stroke="#63b8ff" d="M83,-312.61C83,-304.49 83,-296.04 83,-287.45"/>
<polygon fill="none" stroke="#63b8ff" points="79.5,-312.7 83,-322.7 86.5,-312.7 79.5,-312.7"/>
</a>
</g>
</g>
</g>
</svg>
