<?xml version="1.0" encoding="UTF-8" standalone="no"?>
<!DOCTYPE svg PUBLIC "-//W3C//DTD SVG 1.1//EN"
 "http://www.w3.org/Graphics/SVG/1.1/DTD/svg11.dtd">
<!-- Generated by graphviz version 2.43.0 (0)
 -->
<!-- Title: MessageHandler::send Pages: 1 -->
<!--zoomable 274 -->

<svg id="main" version="1.1" xmlns="http://www.w3.org/2000/svg" xmlns:xlink="http://www.w3.org/1999/xlink" xml:space="preserve" onload="init(evt)">
<style type="text/css"><![CDATA[
.node, .edge {opacity: 0.7;}
.node.selected, .edge.selected {opacity: 1;}
.edge:hover path { stroke: red; }
.edge:hover polygon { stroke: red; fill: red; }
]]></style>

<defs>
  <circle id="rim" cx="0" cy="0" r="7"/>
  <circle id="rim2" cx="0" cy="0" r="3.5"/>
  <g id="zoomPlus">
    <use xlink:href="#rim" fill="#404040"><set attributeName="fill" to="#808080" begin="zoomplus.mouseover" end="zoomplus.mouseout"/></use>
    <path d="M-4,0h8M0,-4v8" fill="none" stroke="white" stroke-width="1.5" pointer-events="none"/>
  </g>
  <g id="zoomMin">
    <use xlink:href="#rim" fill="#404040"><set attributeName="fill" to="#808080" begin="zoomminus.mouseover" end="zoomminus.mouseout"/></use>
    <path d="M-4,0h8" fill="none" stroke="white" stroke-width="1.5" pointer-events="none"/>
  </g>
  <g id="arrowUp" transform="translate(30 24)">
    <use xlink:href="#rim"/>
    <path pointer-events="none" fill="none" stroke="white" stroke-width="1.5" d="M0,-3.0v7 M-2.5,-0.5L0,-3.0L2.5,-0.5"/>
  </g>
  <g id="arrowRight" transform="rotate(90) translate(36 -43)">
    <use xlink:href="#rim"/>
    <path pointer-events="none" fill="none" stroke="white" stroke-width="1.5" d="M0,-3.0v7 M-2.5,-0.5L0,-3.0L2.5,-0.5"/>
  </g>
  <g id="arrowDown" transform="rotate(180) translate(-30 -48)">
    <use xlink:href="#rim"/>
    <path pointer-events="none" fill="none" stroke="white" stroke-width="1.5" d="M0,-3.0v7 M-2.5,-0.5L0,-3.0L2.5,-0.5"/>
  </g>
  <g id="arrowLeft" transform="rotate(270) translate(-36 17)">
    <use xlink:href="#rim"/>
    <path pointer-events="none" fill="none" stroke="white" stroke-width="1.5" d="M0,-3.0v7 M-2.5,-0.5L0,-3.0L2.5,-0.5"/>
  </g>
  <g id="resetDef">
    <use xlink:href="#rim2" fill="#404040"><set attributeName="fill" to="#808080" begin="reset.mouseover" end="reset.mouseout"/></use>
  </g>
</defs>
<script type="application/ecmascript">
var viewWidth = 656;
var viewHeight = 274;
var sectionId = 'dynsection-6';
</script>
<script type="application/ecmascript" xlink:href="svg.min.js"/>
<svg id="graph" class="graph">
<g id="viewport">
<title>MessageHandler::send</title>
<!-- Node1 -->
<g id="Node000001" class="node">
<title>Node1</title>
<g id="a_Node000001"><a xlink:title="Sends a message to the specified internal message queue.">
<polygon fill="#999999" stroke="#666666" points="648,-157 520,-157 520,-138 648,-138 648,-157"/>
<text text-anchor="middle" x="584" y="-145" font-family="Helvetica,sans-Serif" font-size="10.00">MessageHandler::send</text>
</a>
</g>
</g>
<!-- Node2 -->
<g id="Node000002" class="node">
<title>Node2</title>
<g id="a_Node000002"><a xlink:href="classBLE__Client.html#a5d2a0279434b36e78bddad970082bbd1" target="_top" xlink:title="Setup connection to BLE device.">
<polygon fill="white" stroke="#666666" points="126.5,-238 1.5,-238 1.5,-219 126.5,-219 126.5,-238"/>
<text text-anchor="middle" x="64" y="-226" font-family="Helvetica,sans-Serif" font-size="10.00">BLE_Client::connSetup</text>
</a>
</g>
</g>
<!-- Node1&#45;&gt;Node2 -->
<g id="edge1_Node000001_Node000002" class="edge">
<title>Node1&#45;&gt;Node2</title>
<g id="a_edge1_Node000001_Node000002"><a xlink:title=" ">
<path fill="none" stroke="#63b8ff" d="M518.57,-158.74C507.07,-160.7 495.18,-162.69 484,-164.5 357.25,-185.06 208.61,-207.33 126.82,-219.42"/>
<polygon fill="#63b8ff" stroke="#63b8ff" points="519.3,-162.17 528.56,-157.03 518.12,-155.27 519.3,-162.17"/>
</a>
</g>
</g>
<!-- Node3 -->
<g id="Node000003" class="node">
<title>Node3</title>
<g id="a_Node000003"><a xlink:href="classBLE__Server.html#ac7febc9f3fabef14344b8efeb05c5aa4" target="_top" xlink:title="Set up the BLE connection.">
<polygon fill="white" stroke="#666666" points="128,-157 0,-157 0,-138 128,-138 128,-157"/>
<text text-anchor="middle" x="64" y="-145" font-family="Helvetica,sans-Serif" font-size="10.00">BLE_Server::connSetup</text>
</a>
</g>
</g>
<!-- Node1&#45;&gt;Node3 -->
<g id="edge2_Node000001_Node000003" class="edge">
<title>Node1&#45;&gt;Node3</title>
<g id="a_edge2_Node000001_Node000003"><a xlink:title=" ">
<path fill="none" stroke="#63b8ff" d="M509.76,-149.97C501.08,-150.19 492.34,-150.37 484,-150.5 341.79,-152.65 306.21,-152.65 164,-150.5 152.39,-150.32 140.03,-150.03 128.1,-149.7"/>
<polygon fill="#63b8ff" stroke="#63b8ff" points="509.99,-153.46 519.9,-149.7 509.81,-146.47 509.99,-153.46"/>
</a>
</g>
</g>
<!-- Node4 -->
<g id="Node000004" class="node">
<title>Node4</title>
<g id="a_Node000004"><a xlink:href="classDataParser.html#a456ecb1ff09e80bf9280b628adc47239" target="_top" xlink:title="Runs a continuous task that receives and processes messages from the parser queue.">
<polygon fill="white" stroke="#666666" points="484,-38 335,-38 335,-19 484,-19 484,-38"/>
<text text-anchor="middle" x="409.5" y="-26" font-family="Helvetica,sans-Serif" font-size="10.00">DataParser::dataParserTask</text>
</a>
</g>
</g>
<!-- Node1&#45;&gt;Node4 -->
<g id="edge3_Node000001_Node000004" class="edge">
<title>Node1&#45;&gt;Node4</title>
<g id="a_edge3_Node000001_Node000004"><a xlink:title=" ">
<path fill="none" stroke="#63b8ff" d="M565.95,-130.98C546.99,-113.15 514.93,-84.61 484,-64.5 467.92,-54.04 448.36,-44.6 433.46,-38.02"/>
<polygon fill="#63b8ff" stroke="#63b8ff" points="563.58,-133.55 573.24,-137.91 568.4,-128.48 563.58,-133.55"/>
</a>
</g>
</g>
<!-- Node7 -->
<g id="Node000007" class="node">
<title>Node7</title>
<g id="a_Node000007"><a xlink:href="classBLE__Client.html#a6d1fee70056dbaeccb08d2ca5b34fad8" target="_top" xlink:title="Handle GATT client events.">
<polygon fill="white" stroke="#666666" points="463,-265.5 356,-265.5 356,-235.5 463,-235.5 463,-265.5"/>
<text text-anchor="start" x="364" y="-253.5" font-family="Helvetica,sans-Serif" font-size="10.00">BLE_Client::handle</text>
<text text-anchor="middle" x="409.5" y="-242.5" font-family="Helvetica,sans-Serif" font-size="10.00">_event_gattc</text>
</a>
</g>
</g>
<!-- Node1&#45;&gt;Node7 -->
<g id="edge6_Node000001_Node000007" class="edge">
<title>Node1&#45;&gt;Node7</title>
<g id="a_edge6_Node000001_Node000007"><a xlink:title=" ">
<path fill="none" stroke="#63b8ff" d="M564.43,-163.77C545.27,-179.96 514.04,-204.74 484,-221.5 474.66,-226.71 464.18,-231.44 454.14,-235.5"/>
<polygon fill="#63b8ff" stroke="#63b8ff" points="566.78,-166.37 572.09,-157.2 562.22,-161.05 566.78,-166.37"/>
</a>
</g>
</g>
<!-- Node9 -->
<g id="Node000009" class="node">
<title>Node9</title>
<g id="a_Node000009"><a xlink:href="classBLE__Server.html#a10fb545066a7d87cffc2bc7dcea2af93" target="_top" xlink:title="Handle GATT server events.">
<polygon fill="white" stroke="#666666" points="464.5,-141.5 354.5,-141.5 354.5,-111.5 464.5,-111.5 464.5,-141.5"/>
<text text-anchor="start" x="362.5" y="-129.5" font-family="Helvetica,sans-Serif" font-size="10.00">BLE_Server::handle</text>
<text text-anchor="middle" x="409.5" y="-118.5" font-family="Helvetica,sans-Serif" font-size="10.00">_event_gatts</text>
</a>
</g>
</g>
<!-- Node1&#45;&gt;Node9 -->
<g id="edge9_Node000001_Node000009" class="edge">
<title>Node1&#45;&gt;Node9</title>
<g id="a_edge9_Node000001_Node000009"><a xlink:title=" ">
<path fill="none" stroke="#63b8ff" d="M509.45,-138.55C494.42,-136.72 478.86,-134.82 464.66,-133.09"/>
<polygon fill="#63b8ff" stroke="#63b8ff" points="509.4,-142.07 519.75,-139.8 510.24,-135.12 509.4,-142.07"/>
</a>
</g>
</g>
<!-- Node11 -->
<g id="Node000011" class="node">
<title>Node11</title>
<g id="a_Node000011"><a xlink:href="classUart.html#a7e4639969ae7afcfddcf7908e0b29e54" target="_top" xlink:title="Task function to read characters from UART and buffer input.">
<polygon fill="white" stroke="#666666" points="460,-93 359,-93 359,-74 460,-74 460,-93"/>
<text text-anchor="middle" x="409.5" y="-81" font-family="Helvetica,sans-Serif" font-size="10.00">Uart::receiveTask</text>
</a>
</g>
</g>
<!-- Node1&#45;&gt;Node11 -->
<g id="edge12_Node000001_Node000011" class="edge">
<title>Node1&#45;&gt;Node11</title>
<g id="a_edge12_Node000001_Node000011"><a xlink:title=" ">
<path fill="none" stroke="#63b8ff" d="M555.46,-133.42C535.89,-123.8 508.78,-111.26 484,-102.5 473.93,-98.94 462.88,-95.73 452.47,-93.01"/>
<polygon fill="#63b8ff" stroke="#63b8ff" points="553.91,-136.56 564.42,-137.88 557.03,-130.29 553.91,-136.56"/>
</a>
</g>
</g>
<!-- Node5 -->
<g id="Node000005" class="node">
<title>Node5</title>
<g id="a_Node000005"><a xlink:href="main_8cpp.html#a92ec7e7e48c2ce7af99bb362b83e32a8" target="_top" xlink:title=" ">
<polygon fill="white" stroke="#666666" points="276.5,-19 186.5,-19 186.5,0 276.5,0 276.5,-19"/>
<text text-anchor="middle" x="231.5" y="-7" font-family="Helvetica,sans-Serif" font-size="10.00">dataParserTask</text>
</a>
</g>
</g>
<!-- Node4&#45;&gt;Node5 -->
<g id="edge4_Node000004_Node000005" class="edge">
<title>Node4&#45;&gt;Node5</title>
<g id="a_edge4_Node000004_Node000005"><a xlink:title=" ">
<path fill="none" stroke="#63b8ff" d="M324.61,-19.44C308.05,-17.66 291.29,-15.85 276.69,-14.27"/>
<polygon fill="#63b8ff" stroke="#63b8ff" points="324.56,-22.96 334.88,-20.55 325.31,-16 324.56,-22.96"/>
</a>
</g>
</g>
<!-- Node6 -->
<g id="Node000006" class="node">
<title>Node6</title>
<g id="a_Node000006"><a xlink:href="main_8cpp.html#a630544a7f0a2cc40d8a7fefab7e2fe70" target="_top" xlink:title=" ">
<polygon fill="white" stroke="#666666" points="96.5,-56 31.5,-56 31.5,-37 96.5,-37 96.5,-56"/>
<text text-anchor="middle" x="64" y="-44" font-family="Helvetica,sans-Serif" font-size="10.00">app_main</text>
</a>
</g>
</g>
<!-- Node5&#45;&gt;Node6 -->
<g id="edge5_Node000005_Node000006" class="edge">
<title>Node5&#45;&gt;Node6</title>
<g id="a_edge5_Node000005_Node000006"><a xlink:title=" ">
<path fill="none" stroke="#63b8ff" d="M177.92,-21.26C151.24,-27.22 119.71,-34.27 96.76,-39.4"/>
<polygon fill="#63b8ff" stroke="#63b8ff" points="178.88,-24.63 187.88,-19.03 177.36,-17.79 178.88,-24.63"/>
</a>
</g>
</g>
<!-- Node8 -->
<g id="Node000008" class="node">
<title>Node8</title>
<g id="a_Node000008"><a xlink:href="classBLE__Client.html#af5183e3a5182ee8fc94f8b7e6446f283" target="_top" xlink:title="Static GATT client event handler.">
<polygon fill="white" stroke="#666666" points="297.5,-265.5 165.5,-265.5 165.5,-235.5 297.5,-235.5 297.5,-265.5"/>
<text text-anchor="start" x="173.5" y="-253.5" font-family="Helvetica,sans-Serif" font-size="10.00">BLE_Client::gattc_event</text>
<text text-anchor="middle" x="231.5" y="-242.5" font-family="Helvetica,sans-Serif" font-size="10.00">_handler</text>
</a>
</g>
</g>
<!-- Node7&#45;&gt;Node8 -->
<g id="edge7_Node000007_Node000008" class="edge">
<title>Node7&#45;&gt;Node8</title>
<g id="a_edge7_Node000007_Node000008"><a xlink:title=" ">
<path fill="none" stroke="#63b8ff" d="M345.66,-250.5C330.1,-250.5 313.4,-250.5 297.73,-250.5"/>
<polygon fill="#63b8ff" stroke="#63b8ff" points="345.69,-254 355.69,-250.5 345.69,-247 345.69,-254"/>
</a>
</g>
</g>
<!-- Node8&#45;&gt;Node2 -->
<g id="edge8_Node000008_Node000002" class="edge">
<title>Node8&#45;&gt;Node2</title>
<g id="a_edge8_Node000008_Node000002"><a xlink:title=" ">
<path fill="none" stroke="#63b8ff" d="M154.91,-240.45C145.47,-239.2 135.9,-237.92 126.7,-236.7"/>
<polygon fill="#63b8ff" stroke="#63b8ff" points="154.72,-243.96 165.09,-241.81 155.64,-237.02 154.72,-243.96"/>
</a>
</g>
</g>
<!-- Node10 -->
<g id="Node000010" class="node">
<title>Node10</title>
<g id="a_Node000010"><a xlink:href="classBLE__Server.html#aefba7a76c89cbf2e1a77b6a4803b9480" target="_top" xlink:title="Static handler for GATT server events.">
<polygon fill="white" stroke="#666666" points="299,-141.5 164,-141.5 164,-111.5 299,-111.5 299,-141.5"/>
<text text-anchor="start" x="172" y="-129.5" font-family="Helvetica,sans-Serif" font-size="10.00">BLE_Server::gatts_event</text>
<text text-anchor="middle" x="231.5" y="-118.5" font-family="Helvetica,sans-Serif" font-size="10.00">_handler</text>
</a>
</g>
</g>
<!-- Node9&#45;&gt;Node10 -->
<g id="edge10_Node000009_Node000010" class="edge">
<title>Node9&#45;&gt;Node10</title>
<g id="a_edge10_Node000009_Node000010"><a xlink:title=" ">
<path fill="none" stroke="#63b8ff" d="M343.87,-126.5C329.34,-126.5 313.9,-126.5 299.29,-126.5"/>
<polygon fill="#63b8ff" stroke="#63b8ff" points="344.26,-130 354.26,-126.5 344.26,-123 344.26,-130"/>
</a>
</g>
</g>
<!-- Node10&#45;&gt;Node3 -->
<g id="edge11_Node000010_Node000003" class="edge">
<title>Node10&#45;&gt;Node3</title>
<g id="a_edge11_Node000010_Node000003"><a xlink:title=" ">
<path fill="none" stroke="#63b8ff" d="M153.66,-136.25C145.09,-137.34 136.44,-138.44 128.07,-139.5"/>
<polygon fill="#63b8ff" stroke="#63b8ff" points="154.18,-139.71 163.66,-134.98 153.3,-132.77 154.18,-139.71"/>
</a>
</g>
</g>
<!-- Node12 -->
<g id="Node000012" class="node">
<title>Node12</title>
<g id="a_Node000012"><a xlink:href="main_8cpp.html#ac672c86fb27ee5d971791cf8570ec137" target="_top" xlink:title=" ">
<polygon fill="white" stroke="#666666" points="277.5,-56 185.5,-56 185.5,-37 277.5,-37 277.5,-56"/>
<text text-anchor="middle" x="231.5" y="-44" font-family="Helvetica,sans-Serif" font-size="10.00">getBleInterface</text>
</a>
</g>
</g>
<!-- Node11&#45;&gt;Node12 -->
<g id="edge13_Node000011_Node000012" class="edge">
<title>Node11&#45;&gt;Node12</title>
<g id="a_edge13_Node000011_Node000012"><a xlink:title=" ">
<path fill="none" stroke="#63b8ff" d="M353.36,-71.91C329.01,-66.79 300.74,-60.85 277.67,-56"/>
<polygon fill="#63b8ff" stroke="#63b8ff" points="352.67,-75.34 363.18,-73.97 354.11,-68.49 352.67,-75.34"/>
</a>
</g>
</g>
<!-- Node13 -->
<g id="Node000013" class="node">
<title>Node13</title>
<g id="a_Node000013"><a xlink:href="main_8cpp.html#ad6d6c8ccee27b130f7eb2c9a3c8765a1" target="_top" xlink:title=" ">
<polygon fill="white" stroke="#666666" points="280,-93 183,-93 183,-74 280,-74 280,-93"/>
<text text-anchor="middle" x="231.5" y="-81" font-family="Helvetica,sans-Serif" font-size="10.00">uartReceiveTask</text>
</a>
</g>
</g>
<!-- Node11&#45;&gt;Node13 -->
<g id="edge15_Node000011_Node000013" class="edge">
<title>Node11&#45;&gt;Node13</title>
<g id="a_edge15_Node000011_Node000013"><a xlink:title=" ">
<path fill="none" stroke="#63b8ff" d="M348.5,-83.5C326.2,-83.5 301.22,-83.5 280.16,-83.5"/>
<polygon fill="#63b8ff" stroke="#63b8ff" points="348.54,-87 358.54,-83.5 348.54,-80 348.54,-87"/>
</a>
</g>
</g>
<!-- Node12&#45;&gt;Node6 -->
<g id="edge14_Node000012_Node000006" class="edge">
<title>Node12&#45;&gt;Node6</title>
<g id="a_edge14_Node000012_Node000006"><a xlink:title=" ">
<path fill="none" stroke="#63b8ff" d="M175.11,-46.5C148.97,-46.5 118.71,-46.5 96.54,-46.5"/>
<polygon fill="#63b8ff" stroke="#63b8ff" points="175.28,-50 185.28,-46.5 175.28,-43 175.28,-50"/>
</a>
</g>
</g>
<!-- Node13&#45;&gt;Node6 -->
<g id="edge16_Node000013_Node000006" class="edge">
<title>Node13&#45;&gt;Node6</title>
<g id="a_edge16_Node000013_Node000006"><a xlink:title=" ">
<path fill="none" stroke="#63b8ff" d="M177.92,-71.74C151.24,-65.78 119.71,-58.73 96.76,-53.6"/>
<polygon fill="#63b8ff" stroke="#63b8ff" points="177.36,-75.21 187.88,-73.97 178.88,-68.37 177.36,-75.21"/>
</a>
</g>
</g>
</g>
</svg>

<g id="navigator" transform="translate(0 0)" fill="#404254">
  <rect fill="#f2f5e9" fill-opacity="0.5" stroke="#606060" stroke-width=".5" x="0" y="0" width="60" height="60"/>
  <use id="zoomplus" xlink:href="#zoomPlus" x="17" y="9" onmousedown="handleZoom(evt,'in')"/>
  <use id="zoomminus" xlink:href="#zoomMin" x="42" y="9" onmousedown="handleZoom(evt,'out')"/>
  <use id="reset" xlink:href="#resetDef" x="30" y="36" onmousedown="handleReset()"/>
   <use id="arrowup" xlink:href="#arrowUp" x="0" y="0" onmousedown="handlePan(0,-1)"/>
  <use id="arrowright" xlink:href="#arrowRight" x="0" y="0" onmousedown="handlePan(1,0)"/>
  <use id="arrowdown" xlink:href="#arrowDown" x="0" y="0" onmousedown="handlePan(0,1)"/>
  <use id="arrowleft" xlink:href="#arrowLeft" x="0" y="0" onmousedown="handlePan(-1,0)"/>
</g>
<svg viewBox="0 0 15 15" width="100%" height="30px" preserveAspectRatio="xMaxYMin meet">
 <g id="arrow_out" transform="scale(0.3 0.3)">
  <a xlink:href="classMessageHandler_a43e563eaac4cb8183d977678d7fdd5aa_icgraph_org.svg" target="_base">
   <rect id="button" ry="5" rx="5" y="6" x="6" height="38" width="38"
        fill="#f2f5e9" fill-opacity="0.5" stroke="#606060" stroke-width="1.0"/>
   <path id="arrow"
     d="M 11.500037,31.436501 C 11.940474,20.09759 22.043105,11.32322 32.158766,21.979434 L 37.068811,17.246167 C 37.068811,17.246167 37.088388,32 37.088388,32 L 22.160133,31.978069 C 22.160133,31.978069 26.997745,27.140456 26.997745,27.140456 C 18.528582,18.264221 13.291696,25.230495 11.500037,31.436501 z"
     style="fill:#404040;"/>
  </a>
 </g>
</svg>

<style type='text/css'>
<![CDATA[
[data-mouse-over-selected='false'] { opacity: 0.7; }
[data-mouse-over-selected='true']  { opacity: 1.0; }
]]>
</style>
<script type="application/ecmascript"><![CDATA[
document.addEventListener('DOMContentLoaded', (event) => {
  highlightEdges();
  highlightAdjacentNodes();
});
]]></script>
</svg>
