<?xml version="1.0" encoding="UTF-8" standalone="no"?>
<!DOCTYPE svg PUBLIC "-//W3C//DTD SVG 1.1//EN"
 "http://www.w3.org/Graphics/SVG/1.1/DTD/svg11.dtd">
<!-- Generated by graphviz version 2.43.0 (0)
 -->
<!-- Title: Bluetooth Pages: 1 -->
<!--zoomable 594 -->

<svg id="main" version="1.1" xmlns="http://www.w3.org/2000/svg" xmlns:xlink="http://www.w3.org/1999/xlink" xml:space="preserve" onload="init(evt)">
<style type="text/css"><![CDATA[
.node, .edge {opacity: 0.7;}
.node.selected, .edge.selected {opacity: 1;}
.edge:hover path { stroke: red; }
.edge:hover polygon { stroke: red; fill: red; }
]]></style>

<defs>
  <circle id="rim" cx="0" cy="0" r="7"/>
  <circle id="rim2" cx="0" cy="0" r="3.5"/>
  <g id="zoomPlus">
    <use xlink:href="#rim" fill="#404040"><set attributeName="fill" to="#808080" begin="zoomplus.mouseover" end="zoomplus.mouseout"/></use>
    <path d="M-4,0h8M0,-4v8" fill="none" stroke="white" stroke-width="1.5" pointer-events="none"/>
  </g>
  <g id="zoomMin">
    <use xlink:href="#rim" fill="#404040"><set attributeName="fill" to="#808080" begin="zoomminus.mouseover" end="zoomminus.mouseout"/></use>
    <path d="M-4,0h8" fill="none" stroke="white" stroke-width="1.5" pointer-events="none"/>
  </g>
  <g id="arrowUp" transform="translate(30 24)">
    <use xlink:href="#rim"/>
    <path pointer-events="none" fill="none" stroke="white" stroke-width="1.5" d="M0,-3.0v7 M-2.5,-0.5L0,-3.0L2.5,-0.5"/>
  </g>
  <g id="arrowRight" transform="rotate(90) translate(36 -43)">
    <use xlink:href="#rim"/>
    <path pointer-events="none" fill="none" stroke="white" stroke-width="1.5" d="M0,-3.0v7 M-2.5,-0.5L0,-3.0L2.5,-0.5"/>
  </g>
  <g id="arrowDown" transform="rotate(180) translate(-30 -48)">
    <use xlink:href="#rim"/>
    <path pointer-events="none" fill="none" stroke="white" stroke-width="1.5" d="M0,-3.0v7 M-2.5,-0.5L0,-3.0L2.5,-0.5"/>
  </g>
  <g id="arrowLeft" transform="rotate(270) translate(-36 17)">
    <use xlink:href="#rim"/>
    <path pointer-events="none" fill="none" stroke="white" stroke-width="1.5" d="M0,-3.0v7 M-2.5,-0.5L0,-3.0L2.5,-0.5"/>
  </g>
  <g id="resetDef">
    <use xlink:href="#rim2" fill="#404040"><set attributeName="fill" to="#808080" begin="reset.mouseover" end="reset.mouseout"/></use>
  </g>
</defs>
<script type="application/ecmascript">
var viewWidth = 195;
var viewHeight = 594;
var sectionId = 'dynsection-1';
</script>
<script type="application/ecmascript" xlink:href="svg.min.js"/>
<svg id="graph" class="graph">
<g id="viewport">
<title>Bluetooth</title>
<!-- Node1 -->
<g id="Node000001" class="node">
<title>Node1</title>
<g id="a_Node000001"><a xlink:title="Abstract base class for BLE communication.">
<polygon fill="#999999" stroke="transparent" points="171.5,-146 15.5,-146 15.5,0 171.5,0 171.5,-146"/>
<text text-anchor="start" x="69.5" y="-134" font-family="Helvetica,sans-Serif" font-size="10.00">Bluetooth</text>
<text text-anchor="start" x="91.5" y="-119" font-family="Helvetica,sans-Serif" font-size="10.00"> </text>
<text text-anchor="start" x="19.5" y="-104" font-family="Helvetica,sans-Serif" font-size="10.00">+</text>
<text text-anchor="start" x="32.5" y="-104" font-family="Helvetica,sans-Serif" font-size="10.00">Bluetooth()</text>
<text text-anchor="start" x="19.5" y="-89" font-family="Helvetica,sans-Serif" font-size="10.00">+</text>
<text text-anchor="start" x="32.5" y="-89" font-family="Helvetica,sans-Serif" font-size="10.00">virtual ~Bluetooth()</text>
<text text-anchor="start" x="19.5" y="-74" font-family="Helvetica,sans-Serif" font-size="10.00">+</text>
<text text-anchor="start" x="32.5" y="-74" font-family="Helvetica,sans-Serif" font-size="10.00">virtual void connSetup()=0</text>
<text text-anchor="start" x="19.5" y="-59" font-family="Helvetica,sans-Serif" font-size="10.00">+</text>
<text text-anchor="start" x="32.5" y="-59" font-family="Helvetica,sans-Serif" font-size="10.00">virtual void send(const</text>
<text text-anchor="start" x="32.5" y="-48" font-family="Helvetica,sans-Serif" font-size="10.00"> char *data)=0</text>
<text text-anchor="start" x="19.5" y="-33" font-family="Helvetica,sans-Serif" font-size="10.00">+</text>
<text text-anchor="start" x="32.5" y="-33" font-family="Helvetica,sans-Serif" font-size="10.00">virtual void sendTask()=0</text>
<text text-anchor="start" x="19.5" y="-18" font-family="Helvetica,sans-Serif" font-size="10.00">+</text>
<text text-anchor="start" x="32.5" y="-18" font-family="Helvetica,sans-Serif" font-size="10.00">void setMessageHandler</text>
<text text-anchor="start" x="32.5" y="-7" font-family="Helvetica,sans-Serif" font-size="10.00">(MessageHandler *handler)</text>
<polygon fill="#666666" stroke="#666666" points="15.5,-129 15.5,-129 171.5,-129 171.5,-129 15.5,-129"/>
<polygon fill="#666666" stroke="#666666" points="15.5,-114 15.5,-114 171.5,-114 171.5,-114 15.5,-114"/>
<polygon fill="none" stroke="#666666" points="15.5,0 15.5,-146 171.5,-146 171.5,0 15.5,0"/>
</a>
</g>
</g>
<!-- Node2 -->
<g id="Node000002" class="node">
<title>Node2</title>
<g id="a_Node000002"><a xlink:href="classMessageHandler.html" target="_top" xlink:title="A class to handle message queues for different communication types.">
<polygon fill="white" stroke="transparent" points="187,-586 0,-586 0,-193 187,-193 187,-586"/>
<text text-anchor="start" x="53" y="-573.5" font-family="Helvetica,sans-Serif" font-size="10.00">MessageHandler</text>
<text text-anchor="start" x="4.5" y="-558.5" font-family="Helvetica,sans-Serif" font-size="10.00">+</text>
<text text-anchor="start" x="17.5" y="-558.5" font-family="Helvetica,sans-Serif" font-size="10.00">static constexpr size</text>
<text text-anchor="start" x="17.5" y="-547.5" font-family="Helvetica,sans-Serif" font-size="10.00">_t DefaultQueueSize</text>
<text text-anchor="start" x="4.5" y="-532.5" font-family="Helvetica,sans-Serif" font-size="10.00">+</text>
<text text-anchor="start" x="17.5" y="-532.5" font-family="Helvetica,sans-Serif" font-size="10.00">static constexpr size</text>
<text text-anchor="start" x="17.5" y="-521.5" font-family="Helvetica,sans-Serif" font-size="10.00">_t MaxMessageLength</text>
<text text-anchor="start" x="7" y="-506.5" font-family="Helvetica,sans-Serif" font-size="10.00">&#45;</text>
<text text-anchor="start" x="17.5" y="-506.5" font-family="Helvetica,sans-Serif" font-size="10.00">std::unique_ptr&lt; rtos</text>
<text text-anchor="start" x="17.5" y="-495.5" font-family="Helvetica,sans-Serif" font-size="10.00">::MessageQueue&lt; Message</text>
<text text-anchor="start" x="17.5" y="-484.5" font-family="Helvetica,sans-Serif" font-size="10.00"> &gt; &gt; _uartQueue</text>
<text text-anchor="start" x="7" y="-469.5" font-family="Helvetica,sans-Serif" font-size="10.00">&#45;</text>
<text text-anchor="start" x="17.5" y="-469.5" font-family="Helvetica,sans-Serif" font-size="10.00">std::unique_ptr&lt; rtos</text>
<text text-anchor="start" x="17.5" y="-458.5" font-family="Helvetica,sans-Serif" font-size="10.00">::MessageQueue&lt; Message</text>
<text text-anchor="start" x="17.5" y="-447.5" font-family="Helvetica,sans-Serif" font-size="10.00"> &gt; &gt; _bleQueue</text>
<text text-anchor="start" x="7" y="-432.5" font-family="Helvetica,sans-Serif" font-size="10.00">&#45;</text>
<text text-anchor="start" x="17.5" y="-432.5" font-family="Helvetica,sans-Serif" font-size="10.00">std::unique_ptr&lt; rtos</text>
<text text-anchor="start" x="17.5" y="-421.5" font-family="Helvetica,sans-Serif" font-size="10.00">::MessageQueue&lt; ParserMessage</text>
<text text-anchor="start" x="17.5" y="-410.5" font-family="Helvetica,sans-Serif" font-size="10.00"> &gt; &gt; _dataParserQueue</text>
<text text-anchor="start" x="7" y="-395.5" font-family="Helvetica,sans-Serif" font-size="10.00">&#45;</text>
<text text-anchor="start" x="17.5" y="-395.5" font-family="Helvetica,sans-Serif" font-size="10.00">QueueHandle_t _uartEvent</text>
<text text-anchor="start" x="17.5" y="-384.5" font-family="Helvetica,sans-Serif" font-size="10.00">Queue</text>
<text text-anchor="start" x="4.5" y="-369.5" font-family="Helvetica,sans-Serif" font-size="10.00">+</text>
<text text-anchor="start" x="17.5" y="-369.5" font-family="Helvetica,sans-Serif" font-size="10.00">MessageHandler(size</text>
<text text-anchor="start" x="17.5" y="-358.5" font-family="Helvetica,sans-Serif" font-size="10.00">_t queueSize=DefaultQueueSize)</text>
<text text-anchor="start" x="4.5" y="-343.5" font-family="Helvetica,sans-Serif" font-size="10.00">+</text>
<text text-anchor="start" x="17.5" y="-343.5" font-family="Helvetica,sans-Serif" font-size="10.00">bool send(QueueType</text>
<text text-anchor="start" x="17.5" y="-332.5" font-family="Helvetica,sans-Serif" font-size="10.00"> queueType, const Message</text>
<text text-anchor="start" x="17.5" y="-321.5" font-family="Helvetica,sans-Serif" font-size="10.00"> &amp;message, ParserMessageID</text>
<text text-anchor="start" x="17.5" y="-310.5" font-family="Helvetica,sans-Serif" font-size="10.00"> id=ParserMessageID::OTHER)</text>
<text text-anchor="start" x="4.5" y="-295.5" font-family="Helvetica,sans-Serif" font-size="10.00">+</text>
<text text-anchor="start" x="17.5" y="-295.5" font-family="Helvetica,sans-Serif" font-size="10.00">bool receive(QueueType</text>
<text text-anchor="start" x="17.5" y="-284.5" font-family="Helvetica,sans-Serif" font-size="10.00"> queueType, Message &amp;message,</text>
<text text-anchor="start" x="17.5" y="-273.5" font-family="Helvetica,sans-Serif" font-size="10.00"> ParserMessageID *id=nullptr)</text>
<text text-anchor="start" x="4.5" y="-258.5" font-family="Helvetica,sans-Serif" font-size="10.00">+</text>
<text text-anchor="start" x="17.5" y="-258.5" font-family="Helvetica,sans-Serif" font-size="10.00">QueueHandle_t * getUartEvent</text>
<text text-anchor="start" x="17.5" y="-247.5" font-family="Helvetica,sans-Serif" font-size="10.00">Queue()</text>
<text text-anchor="start" x="7" y="-232.5" font-family="Helvetica,sans-Serif" font-size="10.00">&#45;</text>
<text text-anchor="start" x="17.5" y="-232.5" font-family="Helvetica,sans-Serif" font-size="10.00">std::unique_ptr&lt; rtos</text>
<text text-anchor="start" x="17.5" y="-221.5" font-family="Helvetica,sans-Serif" font-size="10.00">::MessageQueue&lt; Message</text>
<text text-anchor="start" x="17.5" y="-210.5" font-family="Helvetica,sans-Serif" font-size="10.00"> &gt; &gt; &amp; getQueue(QueueType</text>
<text text-anchor="start" x="17.5" y="-199.5" font-family="Helvetica,sans-Serif" font-size="10.00"> queueType)</text>
<polygon fill="#666666" stroke="#666666" points="0.5,-568.5 0.5,-568.5 187.5,-568.5 187.5,-568.5 0.5,-568.5"/>
<polygon fill="#666666" stroke="#666666" points="0.5,-379.5 0.5,-379.5 15.5,-379.5 15.5,-379.5 0.5,-379.5"/>
<polygon fill="#666666" stroke="#666666" points="15.5,-379.5 15.5,-379.5 187.5,-379.5 187.5,-379.5 15.5,-379.5"/>
<polygon fill="none" stroke="#666666" points="0,-193 0,-586 187,-586 187,-193 0,-193"/>
</a>
</g>
</g>
<!-- Node2&#45;&gt;Node1 -->
<g id="edge1_Node000001_Node000002" class="edge">
<title>Node2&#45;&gt;Node1</title>
<g id="a_edge1_Node000001_Node000002"><a xlink:title=" ">
<path fill="none" stroke="#63b8ff" d="M93.5,-192.9C93.5,-180.92 93.5,-169.25 93.5,-158.21"/>
<polygon fill="none" stroke="#63b8ff" points="93.5,-158.02 89.5,-152.02 93.5,-146.02 97.5,-152.02 93.5,-158.02"/>
</a>
</g>
<text text-anchor="middle" x="131.5" y="-167" font-family="Helvetica,sans-Serif" font-size="10.00" fill="grey"> #_msgHandler</text>
</g>
</g>
</svg>

<g id="navigator" transform="translate(0 0)" fill="#404254">
  <rect fill="#f2f5e9" fill-opacity="0.5" stroke="#606060" stroke-width=".5" x="0" y="0" width="60" height="60"/>
  <use id="zoomplus" xlink:href="#zoomPlus" x="17" y="9" onmousedown="handleZoom(evt,'in')"/>
  <use id="zoomminus" xlink:href="#zoomMin" x="42" y="9" onmousedown="handleZoom(evt,'out')"/>
  <use id="reset" xlink:href="#resetDef" x="30" y="36" onmousedown="handleReset()"/>
   <use id="arrowup" xlink:href="#arrowUp" x="0" y="0" onmousedown="handlePan(0,-1)"/>
  <use id="arrowright" xlink:href="#arrowRight" x="0" y="0" onmousedown="handlePan(1,0)"/>
  <use id="arrowdown" xlink:href="#arrowDown" x="0" y="0" onmousedown="handlePan(0,1)"/>
  <use id="arrowleft" xlink:href="#arrowLeft" x="0" y="0" onmousedown="handlePan(-1,0)"/>
</g>
<svg viewBox="0 0 15 15" width="100%" height="30px" preserveAspectRatio="xMaxYMin meet">
 <g id="arrow_out" transform="scale(0.3 0.3)">
  <a xlink:href="classBluetooth__coll__graph_org.svg" target="_base">
   <rect id="button" ry="5" rx="5" y="6" x="6" height="38" width="38"
        fill="#f2f5e9" fill-opacity="0.5" stroke="#606060" stroke-width="1.0"/>
   <path id="arrow"
     d="M 11.500037,31.436501 C 11.940474,20.09759 22.043105,11.32322 32.158766,21.979434 L 37.068811,17.246167 C 37.068811,17.246167 37.088388,32 37.088388,32 L 22.160133,31.978069 C 22.160133,31.978069 26.997745,27.140456 26.997745,27.140456 C 18.528582,18.264221 13.291696,25.230495 11.500037,31.436501 z"
     style="fill:#404040;"/>
  </a>
 </g>
</svg>

<style type='text/css'>
<![CDATA[
[data-mouse-over-selected='false'] { opacity: 0.7; }
[data-mouse-over-selected='true']  { opacity: 1.0; }
]]>
</style>
<script type="application/ecmascript"><![CDATA[
document.addEventListener('DOMContentLoaded', (event) => {
  highlightEdges();
  highlightAdjacentNodes();
});
]]></script>
</svg>
