<?xml version="1.0" encoding="UTF-8" standalone="no"?>
<!DOCTYPE svg PUBLIC "-//W3C//DTD SVG 1.1//EN"
 "http://www.w3.org/Graphics/SVG/1.1/DTD/svg11.dtd">
<!-- Generated by graphviz version 2.43.0 (0)
 -->
<!-- Title: rtos::Task::sleepS Pages: 1 -->
<svg width="406pt" height="76pt"
 viewBox="0.00 0.00 406.00 75.50" xmlns="http://www.w3.org/2000/svg" xmlns:xlink="http://www.w3.org/1999/xlink">
<g id="graph0" class="graph" transform="scale(1 1) rotate(0) translate(4 71.5)">
<title>rtos::Task::sleepS</title>
<!-- Node1 -->
<g id="Node000001" class="node">
<title>Node1</title>
<g id="a_Node000001"><a xlink:title=" ">
<polygon fill="#999999" stroke="#666666" points="101,-40 0,-40 0,-21 101,-21 101,-40"/>
<text text-anchor="middle" x="50.5" y="-28" font-family="Helvetica,sans-Serif" font-size="10.00">rtos::Task::sleepS</text>
</a>
</g>
</g>
<!-- Node2 -->
<g id="Node000002" class="node">
<title>Node2</title>
<g id="a_Node000002"><a xlink:href="classrtos_1_1Task.html#a9dafe565e8f67f1320dc18b9bfde88fe" target="_top" xlink:title=" ">
<polygon fill="white" stroke="#666666" points="232,-40 137,-40 137,-21 232,-21 232,-40"/>
<text text-anchor="middle" x="184.5" y="-28" font-family="Helvetica,sans-Serif" font-size="10.00">rtos::Task::sleep</text>
</a>
</g>
</g>
<!-- Node1&#45;&gt;Node2 -->
<g id="edge1_Node000001_Node000002" class="edge">
<title>Node1&#45;&gt;Node2</title>
<g id="a_edge1_Node000001_Node000002"><a xlink:title=" ">
<path fill="none" stroke="#63b8ff" d="M101.03,-30.5C109.35,-30.5 118.04,-30.5 126.53,-30.5"/>
<polygon fill="#63b8ff" stroke="#63b8ff" points="126.75,-34 136.75,-30.5 126.75,-27 126.75,-34"/>
</a>
</g>
</g>
<!-- Node3 -->
<g id="Node000003" class="node">
<title>Node3</title>
<g id="a_Node000003"><a xlink:href="namespacertos.html#ab639bc0e6fe1767a1615076c0eb588b9" target="_top" xlink:title=" ">
<polygon fill="white" stroke="#666666" points="398,-67.5 268,-67.5 268,-37.5 398,-37.5 398,-67.5"/>
<text text-anchor="start" x="276" y="-55.5" font-family="Helvetica,sans-Serif" font-size="10.00">rtos::isInterruptContext</text>
<text text-anchor="middle" x="333" y="-44.5" font-family="Helvetica,sans-Serif" font-size="10.00">Acive</text>
</a>
</g>
</g>
<!-- Node2&#45;&gt;Node3 -->
<g id="edge2_Node000002_Node000003" class="edge">
<title>Node2&#45;&gt;Node3</title>
<g id="a_edge2_Node000002_Node000003"><a xlink:title=" ">
<path fill="none" stroke="#63b8ff" d="M232.26,-37.52C240.38,-38.74 249.01,-40.04 257.66,-41.34"/>
<polygon fill="#63b8ff" stroke="#63b8ff" points="257.38,-44.83 267.79,-42.86 258.42,-37.91 257.38,-44.83"/>
</a>
</g>
</g>
<!-- Node4 -->
<g id="Node000004" class="node">
<title>Node4</title>
<g id="a_Node000004"><a xlink:href="namespacertos.html#a9743ef165638b180f24529f8b99f48a2" target="_top" xlink:title=" ">
<polygon fill="white" stroke="#666666" points="379,-19 287,-19 287,0 379,0 379,-19"/>
<text text-anchor="middle" x="333" y="-7" font-family="Helvetica,sans-Serif" font-size="10.00">rtos::msToTicks</text>
</a>
</g>
</g>
<!-- Node2&#45;&gt;Node4 -->
<g id="edge3_Node000002_Node000004" class="edge">
<title>Node2&#45;&gt;Node4</title>
<g id="a_edge3_Node000002_Node000004"><a xlink:title=" ">
<path fill="none" stroke="#63b8ff" d="M232.26,-23.8C246.41,-21.77 262.08,-19.52 276.74,-17.42"/>
<polygon fill="#63b8ff" stroke="#63b8ff" points="277.29,-20.88 286.69,-16 276.29,-13.95 277.29,-20.88"/>
</a>
</g>
</g>
</g>
</svg>
