<?xml version="1.0" encoding="UTF-8" standalone="no"?>
<!DOCTYPE svg PUBLIC "-//W3C//DTD SVG 1.1//EN"
 "http://www.w3.org/Graphics/SVG/1.1/DTD/svg11.dtd">
<!-- Generated by graphviz version 2.43.0 (0)
 -->
<!-- Title: BLE_Server::connSetup Pages: 1 -->
<svg width="805pt" height="124pt"
 viewBox="0.00 0.00 805.00 123.50" xmlns="http://www.w3.org/2000/svg" xmlns:xlink="http://www.w3.org/1999/xlink">
<g id="graph0" class="graph" transform="scale(1 1) rotate(0) translate(4 119.5)">
<title>BLE_Server::connSetup</title>
<!-- Node1 -->
<g id="Node000001" class="node">
<title>Node1</title>
<g id="a_Node000001"><a xlink:title="Set up the BLE connection.">
<polygon fill="#999999" stroke="#666666" points="128,-62 0,-62 0,-43 128,-43 128,-62"/>
<text text-anchor="middle" x="64" y="-50" font-family="Helvetica,sans-Serif" font-size="10.00">BLE_Server::connSetup</text>
</a>
</g>
</g>
<!-- Node2 -->
<g id="Node000002" class="node">
<title>Node2</title>
<g id="a_Node000002"><a xlink:href="classBLE__Server.html#a0c6c827e5dc51f30ded0179221a49536" target="_top" xlink:title="Static handler for GAP events.">
<polygon fill="white" stroke="#666666" points="295.5,-115.5 167.5,-115.5 167.5,-85.5 295.5,-85.5 295.5,-115.5"/>
<text text-anchor="start" x="175.5" y="-103.5" font-family="Helvetica,sans-Serif" font-size="10.00">BLE_Server::gap_event</text>
<text text-anchor="middle" x="231.5" y="-92.5" font-family="Helvetica,sans-Serif" font-size="10.00">_handler</text>
</a>
</g>
</g>
<!-- Node1&#45;&gt;Node2 -->
<g id="edge1_Node000001_Node000002" class="edge">
<title>Node1&#45;&gt;Node2</title>
<g id="a_edge1_Node000001_Node000002"><a xlink:title=" ">
<path fill="none" stroke="#63b8ff" d="M98.09,-62.1C118.32,-67.97 144.84,-75.65 168.82,-82.61"/>
<polygon fill="#63b8ff" stroke="#63b8ff" points="167.98,-86.01 178.56,-85.44 169.93,-79.29 167.98,-86.01"/>
</a>
</g>
</g>
<!-- Node5 -->
<g id="Node000005" class="node">
<title>Node5</title>
<g id="a_Node000005"><a xlink:href="classBLE__Server.html#aefba7a76c89cbf2e1a77b6a4803b9480" target="_top" xlink:title="Static handler for GATT server events.">
<polygon fill="white" stroke="#666666" points="299,-67.5 164,-67.5 164,-37.5 299,-37.5 299,-67.5"/>
<text text-anchor="start" x="172" y="-55.5" font-family="Helvetica,sans-Serif" font-size="10.00">BLE_Server::gatts_event</text>
<text text-anchor="middle" x="231.5" y="-44.5" font-family="Helvetica,sans-Serif" font-size="10.00">_handler</text>
</a>
</g>
</g>
<!-- Node1&#45;&gt;Node5 -->
<g id="edge4_Node000001_Node000005" class="edge">
<title>Node1&#45;&gt;Node5</title>
<g id="a_edge4_Node000001_Node000005"><a xlink:title=" ">
<path fill="none" stroke="#63b8ff" d="M128.04,-52.5C136.44,-52.5 145.14,-52.5 153.74,-52.5"/>
<polygon fill="#63b8ff" stroke="#63b8ff" points="153.78,-56 163.78,-52.5 153.78,-49 153.78,-56"/>
</a>
</g>
</g>
<!-- Node8 -->
<g id="Node000008" class="node">
<title>Node8</title>
<g id="a_Node000008"><a xlink:href="classMessageHandler.html#a43e563eaac4cb8183d977678d7fdd5aa" target="_top" xlink:title="Sends a message to the specified internal message queue.">
<polygon fill="white" stroke="#666666" points="609,-19 481,-19 481,0 609,0 609,-19"/>
<text text-anchor="middle" x="545" y="-7" font-family="Helvetica,sans-Serif" font-size="10.00">MessageHandler::send</text>
</a>
</g>
</g>
<!-- Node1&#45;&gt;Node8 -->
<g id="edge9_Node000001_Node000008" class="edge">
<title>Node1&#45;&gt;Node8</title>
<g id="a_edge9_Node000001_Node000008"><a xlink:title=" ">
<path fill="none" stroke="#63b8ff" d="M97.7,-42.93C116.85,-37.75 141.6,-31.75 164,-28.5 269.89,-13.16 393.91,-9.62 470.73,-9.1"/>
<polygon fill="#63b8ff" stroke="#63b8ff" points="470.8,-12.6 480.78,-9.04 470.76,-5.6 470.8,-12.6"/>
</a>
</g>
</g>
<!-- Node3 -->
<g id="Node000003" class="node">
<title>Node3</title>
<g id="a_Node000003"><a xlink:href="classBLE__Server.html#a6040bc87699840fb74f9fab1b251e151" target="_top" xlink:title="Handle GAP events.">
<polygon fill="white" stroke="#666666" points="445,-115.5 335,-115.5 335,-85.5 445,-85.5 445,-115.5"/>
<text text-anchor="start" x="343" y="-103.5" font-family="Helvetica,sans-Serif" font-size="10.00">BLE_Server::handle</text>
<text text-anchor="middle" x="390" y="-92.5" font-family="Helvetica,sans-Serif" font-size="10.00">_event_gap</text>
</a>
</g>
</g>
<!-- Node2&#45;&gt;Node3 -->
<g id="edge2_Node000002_Node000003" class="edge">
<title>Node2&#45;&gt;Node3</title>
<g id="a_edge2_Node000002_Node000003"><a xlink:title=" ">
<path fill="none" stroke="#63b8ff" d="M295.7,-100.5C305.17,-100.5 314.95,-100.5 324.45,-100.5"/>
<polygon fill="#63b8ff" stroke="#63b8ff" points="324.61,-104 334.61,-100.5 324.61,-97 324.61,-104"/>
</a>
</g>
</g>
<!-- Node4 -->
<g id="Node000004" class="node">
<title>Node4</title>
<g id="a_Node000004"><a xlink:href="classBLE__Server.html#abf460cd17c97b2b71c08037663ab8a1f" target="_top" xlink:title="Get the name of a GAP event.">
<polygon fill="white" stroke="#666666" points="603,-115.5 487,-115.5 487,-85.5 603,-85.5 603,-115.5"/>
<text text-anchor="start" x="495" y="-103.5" font-family="Helvetica,sans-Serif" font-size="10.00">BLE_Server::get_gap</text>
<text text-anchor="middle" x="545" y="-92.5" font-family="Helvetica,sans-Serif" font-size="10.00">_event_name</text>
</a>
</g>
</g>
<!-- Node3&#45;&gt;Node4 -->
<g id="edge3_Node000003_Node000004" class="edge">
<title>Node3&#45;&gt;Node4</title>
<g id="a_edge3_Node000003_Node000004"><a xlink:title=" ">
<path fill="none" stroke="#63b8ff" d="M445.37,-100.5C455.59,-100.5 466.39,-100.5 476.94,-100.5"/>
<polygon fill="#63b8ff" stroke="#63b8ff" points="476.96,-104 486.96,-100.5 476.96,-97 476.96,-104"/>
</a>
</g>
</g>
<!-- Node6 -->
<g id="Node000006" class="node">
<title>Node6</title>
<g id="a_Node000006"><a xlink:href="classBLE__Server.html#a10fb545066a7d87cffc2bc7dcea2af93" target="_top" xlink:title="Handle GATT server events.">
<polygon fill="white" stroke="#666666" points="445,-67.5 335,-67.5 335,-37.5 445,-37.5 445,-67.5"/>
<text text-anchor="start" x="343" y="-55.5" font-family="Helvetica,sans-Serif" font-size="10.00">BLE_Server::handle</text>
<text text-anchor="middle" x="390" y="-44.5" font-family="Helvetica,sans-Serif" font-size="10.00">_event_gatts</text>
</a>
</g>
</g>
<!-- Node5&#45;&gt;Node6 -->
<g id="edge5_Node000005_Node000006" class="edge">
<title>Node5&#45;&gt;Node6</title>
<g id="a_edge5_Node000005_Node000006"><a xlink:title=" ">
<path fill="none" stroke="#63b8ff" d="M299.32,-52.5C307.71,-52.5 316.28,-52.5 324.63,-52.5"/>
<polygon fill="#63b8ff" stroke="#63b8ff" points="324.67,-56 334.67,-52.5 324.67,-49 324.67,-56"/>
</a>
</g>
</g>
<!-- Node7 -->
<g id="Node000007" class="node">
<title>Node7</title>
<g id="a_Node000007"><a xlink:href="classBLE__Server.html#aed37e58d3aea41553b836bed10952aea" target="_top" xlink:title="Get the name of a GATT server event.">
<polygon fill="white" stroke="#666666" points="606.5,-67.5 483.5,-67.5 483.5,-37.5 606.5,-37.5 606.5,-67.5"/>
<text text-anchor="start" x="491.5" y="-55.5" font-family="Helvetica,sans-Serif" font-size="10.00">BLE_Server::get_gatts</text>
<text text-anchor="middle" x="545" y="-44.5" font-family="Helvetica,sans-Serif" font-size="10.00">_event_name</text>
</a>
</g>
</g>
<!-- Node6&#45;&gt;Node7 -->
<g id="edge6_Node000006_Node000007" class="edge">
<title>Node6&#45;&gt;Node7</title>
<g id="a_edge6_Node000006_Node000007"><a xlink:title=" ">
<path fill="none" stroke="#63b8ff" d="M445.37,-52.5C454.39,-52.5 463.86,-52.5 473.22,-52.5"/>
<polygon fill="#63b8ff" stroke="#63b8ff" points="473.3,-56 483.3,-52.5 473.3,-49 473.3,-56"/>
</a>
</g>
</g>
<!-- Node6&#45;&gt;Node8 -->
<g id="edge7_Node000006_Node000008" class="edge">
<title>Node6&#45;&gt;Node8</title>
<g id="a_edge7_Node000006_Node000008"><a xlink:title=" ">
<path fill="none" stroke="#63b8ff" d="M444.51,-37.46C462.66,-32.36 482.72,-26.72 500.04,-21.85"/>
<polygon fill="#63b8ff" stroke="#63b8ff" points="501.21,-25.16 509.89,-19.09 499.32,-18.42 501.21,-25.16"/>
</a>
</g>
</g>
<!-- Node9 -->
<g id="Node000009" class="node">
<title>Node9</title>
<g id="a_Node000009"><a xlink:href="classMessageHandler.html#afb781c303001059d81235464ae91e0bd" target="_top" xlink:title="Internal helper to retrieve the appropriate message queue.">
<polygon fill="white" stroke="#666666" points="797,-19 645,-19 645,0 797,0 797,-19"/>
<text text-anchor="middle" x="721" y="-7" font-family="Helvetica,sans-Serif" font-size="10.00">MessageHandler::getQueue</text>
</a>
</g>
</g>
<!-- Node8&#45;&gt;Node9 -->
<g id="edge8_Node000008_Node000009" class="edge">
<title>Node8&#45;&gt;Node9</title>
<g id="a_edge8_Node000008_Node000009"><a xlink:title=" ">
<path fill="none" stroke="#63b8ff" d="M609.31,-9.5C617.62,-9.5 626.24,-9.5 634.84,-9.5"/>
<polygon fill="#63b8ff" stroke="#63b8ff" points="634.91,-13 644.91,-9.5 634.91,-6 634.91,-13"/>
</a>
</g>
</g>
</g>
</svg>
