<?xml version="1.0" encoding="UTF-8" standalone="no"?>
<!DOCTYPE svg PUBLIC "-//W3C//DTD SVG 1.1//EN"
 "http://www.w3.org/Graphics/SVG/1.1/DTD/svg11.dtd">
<!-- Generated by graphviz version 2.43.0 (0)
 -->
<!-- Title: BLE_Server::get_gap_event_name Pages: 1 -->
<svg width="598pt" height="38pt"
 viewBox="0.00 0.00 598.00 38.00" xmlns="http://www.w3.org/2000/svg" xmlns:xlink="http://www.w3.org/1999/xlink">
<g id="graph0" class="graph" transform="scale(1 1) rotate(0) translate(4 34)">
<title>BLE_Server::get_gap_event_name</title>
<!-- Node1 -->
<g id="Node000001" class="node">
<title>Node1</title>
<g id="a_Node000001"><a xlink:title="Get the name of a GAP event.">
<polygon fill="#999999" stroke="#666666" points="590,-30 474,-30 474,0 590,0 590,-30"/>
<text text-anchor="start" x="482" y="-18" font-family="Helvetica,sans-Serif" font-size="10.00">BLE_Server::get_gap</text>
<text text-anchor="middle" x="532" y="-7" font-family="Helvetica,sans-Serif" font-size="10.00">_event_name</text>
</a>
</g>
</g>
<!-- Node2 -->
<g id="Node000002" class="node">
<title>Node2</title>
<g id="a_Node000002"><a xlink:href="classBLE__Server.html#a6040bc87699840fb74f9fab1b251e151" target="_top" xlink:title="Handle GAP events.">
<polygon fill="white" stroke="#666666" points="438,-30 328,-30 328,0 438,0 438,-30"/>
<text text-anchor="start" x="336" y="-18" font-family="Helvetica,sans-Serif" font-size="10.00">BLE_Server::handle</text>
<text text-anchor="middle" x="383" y="-7" font-family="Helvetica,sans-Serif" font-size="10.00">_event_gap</text>
</a>
</g>
</g>
<!-- Node1&#45;&gt;Node2 -->
<g id="edge1_Node000001_Node000002" class="edge">
<title>Node1&#45;&gt;Node2</title>
<g id="a_edge1_Node000001_Node000002"><a xlink:title=" ">
<path fill="none" stroke="#63b8ff" d="M463.57,-15C455.15,-15 446.63,-15 438.45,-15"/>
<polygon fill="#63b8ff" stroke="#63b8ff" points="463.75,-18.5 473.75,-15 463.75,-11.5 463.75,-18.5"/>
</a>
</g>
</g>
<!-- Node3 -->
<g id="Node000003" class="node">
<title>Node3</title>
<g id="a_Node000003"><a xlink:href="classBLE__Server.html#a0c6c827e5dc51f30ded0179221a49536" target="_top" xlink:title="Static handler for GAP events.">
<polygon fill="white" stroke="#666666" points="292,-30 164,-30 164,0 292,0 292,-30"/>
<text text-anchor="start" x="172" y="-18" font-family="Helvetica,sans-Serif" font-size="10.00">BLE_Server::gap_event</text>
<text text-anchor="middle" x="228" y="-7" font-family="Helvetica,sans-Serif" font-size="10.00">_handler</text>
</a>
</g>
</g>
<!-- Node2&#45;&gt;Node3 -->
<g id="edge2_Node000002_Node000003" class="edge">
<title>Node2&#45;&gt;Node3</title>
<g id="a_edge2_Node000002_Node000003"><a xlink:title=" ">
<path fill="none" stroke="#63b8ff" d="M317.49,-15C309.08,-15 300.47,-15 292.08,-15"/>
<polygon fill="#63b8ff" stroke="#63b8ff" points="317.63,-18.5 327.63,-15 317.63,-11.5 317.63,-18.5"/>
</a>
</g>
</g>
<!-- Node4 -->
<g id="Node000004" class="node">
<title>Node4</title>
<g id="a_Node000004"><a xlink:href="classBLE__Server.html#ac7febc9f3fabef14344b8efeb05c5aa4" target="_top" xlink:title="Set up the BLE connection.">
<polygon fill="white" stroke="#666666" points="128,-24.5 0,-24.5 0,-5.5 128,-5.5 128,-24.5"/>
<text text-anchor="middle" x="64" y="-12.5" font-family="Helvetica,sans-Serif" font-size="10.00">BLE_Server::connSetup</text>
</a>
</g>
</g>
<!-- Node3&#45;&gt;Node4 -->
<g id="edge3_Node000003_Node000004" class="edge">
<title>Node3&#45;&gt;Node4</title>
<g id="a_edge3_Node000003_Node000004"><a xlink:title=" ">
<path fill="none" stroke="#63b8ff" d="M153.63,-15C145.14,-15 136.53,-15 128.19,-15"/>
<polygon fill="#63b8ff" stroke="#63b8ff" points="153.9,-18.5 163.9,-15 153.9,-11.5 153.9,-18.5"/>
</a>
</g>
</g>
</g>
</svg>
