<?xml version="1.0" encoding="UTF-8" standalone="no"?>
<!DOCTYPE svg PUBLIC "-//W3C//DTD SVG 1.1//EN"
 "http://www.w3.org/Graphics/SVG/1.1/DTD/svg11.dtd">
<!-- Generated by graphviz version 2.43.0 (0)
 -->
<!-- Title: rtos::IItemReceiver&lt; T &gt; Pages: 1 -->
<svg width="192pt" height="439pt"
 viewBox="0.00 0.00 192.00 439.00" xmlns="http://www.w3.org/2000/svg" xmlns:xlink="http://www.w3.org/1999/xlink">
<g id="graph0" class="graph" transform="scale(1 1) rotate(0) translate(4 435)">
<title>rtos::IItemReceiver&lt; T &gt;</title>
<!-- Node1 -->
<g id="Node000001" class="node">
<title>Node1</title>
<g id="a_Node000001"><a xlink:title=" ">
<polygon fill="#999999" stroke="transparent" points="184,-431 0,-431 0,-304 184,-304 184,-431"/>
<text text-anchor="start" x="31" y="-418.5" font-family="Helvetica,sans-Serif" font-size="10.00">rtos::IItemReceiver&lt; T &gt;</text>
<text text-anchor="start" x="90" y="-403.5" font-family="Helvetica,sans-Serif" font-size="10.00"> </text>
<text text-anchor="start" x="4" y="-388.5" font-family="Helvetica,sans-Serif" font-size="10.00">+</text>
<text text-anchor="start" x="17" y="-388.5" font-family="Helvetica,sans-Serif" font-size="10.00">virtual ~IItemReceiver</text>
<text text-anchor="start" x="17" y="-377.5" font-family="Helvetica,sans-Serif" font-size="10.00">()=default</text>
<text text-anchor="start" x="4" y="-362.5" font-family="Helvetica,sans-Serif" font-size="10.00">+</text>
<text text-anchor="start" x="17" y="-362.5" font-family="Helvetica,sans-Serif" font-size="10.00">virtual bool receive</text>
<text text-anchor="start" x="17" y="-351.5" font-family="Helvetica,sans-Serif" font-size="10.00">(T &amp;item)=0</text>
<text text-anchor="start" x="4" y="-336.5" font-family="Helvetica,sans-Serif" font-size="10.00">+</text>
<text text-anchor="start" x="17" y="-336.5" font-family="Helvetica,sans-Serif" font-size="10.00">virtual bool tryReceive</text>
<text text-anchor="start" x="17" y="-325.5" font-family="Helvetica,sans-Serif" font-size="10.00">(T &amp;item, uint32_t timeoutMs)=0</text>
<text text-anchor="start" x="4" y="-310.5" font-family="Helvetica,sans-Serif" font-size="10.00">#</text>
<text text-anchor="start" x="17" y="-310.5" font-family="Helvetica,sans-Serif" font-size="10.00">IItemReceiver()=default</text>
<polygon fill="#666666" stroke="#666666" points="0,-413.5 0,-413.5 184,-413.5 184,-413.5 0,-413.5"/>
<polygon fill="#666666" stroke="#666666" points="0,-398.5 0,-398.5 184,-398.5 184,-398.5 0,-398.5"/>
<polygon fill="none" stroke="#666666" points="0,-304 0,-431 184,-431 184,-304 0,-304"/>
</a>
</g>
</g>
<!-- Node2 -->
<g id="Node000002" class="node">
<title>Node2</title>
<g id="a_Node000002"><a xlink:href="classrtos_1_1MessageQueue.html" target="_top" xlink:title=" ">
<polygon fill="white" stroke="transparent" points="179.5,-268 4.5,-268 4.5,0 179.5,0 179.5,-268"/>
<text text-anchor="start" x="28" y="-256" font-family="Helvetica,sans-Serif" font-size="10.00">rtos::MessageQueue&lt; T &gt;</text>
<text text-anchor="start" x="11.5" y="-241" font-family="Helvetica,sans-Serif" font-size="10.00">&#45;</text>
<text text-anchor="start" x="22" y="-241" font-family="Helvetica,sans-Serif" font-size="10.00">QueueHandle_t _handle</text>
<text text-anchor="start" x="9" y="-226" font-family="Helvetica,sans-Serif" font-size="10.00">+</text>
<text text-anchor="start" x="22" y="-226" font-family="Helvetica,sans-Serif" font-size="10.00">MessageQueue(size</text>
<text text-anchor="start" x="22" y="-215" font-family="Helvetica,sans-Serif" font-size="10.00">_t length)</text>
<text text-anchor="start" x="9" y="-200" font-family="Helvetica,sans-Serif" font-size="10.00">+</text>
<text text-anchor="start" x="22" y="-200" font-family="Helvetica,sans-Serif" font-size="10.00">~MessageQueue() override</text>
<text text-anchor="start" x="9" y="-185" font-family="Helvetica,sans-Serif" font-size="10.00">+</text>
<text text-anchor="start" x="22" y="-185" font-family="Helvetica,sans-Serif" font-size="10.00">MessageQueue(const</text>
<text text-anchor="start" x="22" y="-174" font-family="Helvetica,sans-Serif" font-size="10.00"> MessageQueue &amp;)=delete</text>
<text text-anchor="start" x="9" y="-159" font-family="Helvetica,sans-Serif" font-size="10.00">+</text>
<text text-anchor="start" x="22" y="-159" font-family="Helvetica,sans-Serif" font-size="10.00">MessageQueue(MessageQueue</text>
<text text-anchor="start" x="22" y="-148" font-family="Helvetica,sans-Serif" font-size="10.00"> &amp;&amp;)=delete</text>
<text text-anchor="start" x="9" y="-133" font-family="Helvetica,sans-Serif" font-size="10.00">+</text>
<text text-anchor="start" x="22" y="-133" font-family="Helvetica,sans-Serif" font-size="10.00">bool send(const T &amp;item)</text>
<text text-anchor="start" x="22" y="-122" font-family="Helvetica,sans-Serif" font-size="10.00"> override</text>
<text text-anchor="start" x="9" y="-107" font-family="Helvetica,sans-Serif" font-size="10.00">+</text>
<text text-anchor="start" x="22" y="-107" font-family="Helvetica,sans-Serif" font-size="10.00">bool trySend(const</text>
<text text-anchor="start" x="22" y="-96" font-family="Helvetica,sans-Serif" font-size="10.00"> T &amp;item, uint32_t timeout</text>
<text text-anchor="start" x="22" y="-85" font-family="Helvetica,sans-Serif" font-size="10.00">Ms=0U) override</text>
<text text-anchor="start" x="9" y="-70" font-family="Helvetica,sans-Serif" font-size="10.00">+</text>
<text text-anchor="start" x="22" y="-70" font-family="Helvetica,sans-Serif" font-size="10.00">bool receive(T &amp;item)</text>
<text text-anchor="start" x="22" y="-59" font-family="Helvetica,sans-Serif" font-size="10.00"> override</text>
<text text-anchor="start" x="9" y="-44" font-family="Helvetica,sans-Serif" font-size="10.00">+</text>
<text text-anchor="start" x="22" y="-44" font-family="Helvetica,sans-Serif" font-size="10.00">bool tryReceive(T &amp;item,</text>
<text text-anchor="start" x="22" y="-33" font-family="Helvetica,sans-Serif" font-size="10.00"> uint32_t timeoutMs=0U)</text>
<text text-anchor="start" x="22" y="-22" font-family="Helvetica,sans-Serif" font-size="10.00"> override</text>
<text text-anchor="start" x="9" y="-7" font-family="Helvetica,sans-Serif" font-size="10.00">+</text>
<text text-anchor="start" x="22" y="-7" font-family="Helvetica,sans-Serif" font-size="10.00">QueueHandle_t handle()</text>
<polygon fill="#666666" stroke="#666666" points="5,-251 5,-251 180,-251 180,-251 5,-251"/>
<polygon fill="#666666" stroke="#666666" points="5,-236 5,-236 20,-236 20,-236 5,-236"/>
<polygon fill="#666666" stroke="#666666" points="20,-236 20,-236 180,-236 180,-236 20,-236"/>
<polygon fill="none" stroke="#666666" points="4.5,0 4.5,-268 179.5,-268 179.5,0 4.5,0"/>
</a>
</g>
</g>
<!-- Node1&#45;&gt;Node2 -->
<g id="edge1_Node000001_Node000002" class="edge">
<title>Node1&#45;&gt;Node2</title>
<g id="a_edge1_Node000001_Node000002"><a xlink:title=" ">
<path fill="none" stroke="#63b8ff" d="M92,-293.62C92,-285.4 92,-276.83 92,-268.13"/>
<polygon fill="none" stroke="#63b8ff" points="88.5,-293.85 92,-303.85 95.5,-293.85 88.5,-293.85"/>
</a>
</g>
</g>
</g>
</svg>
