<?xml version="1.0" encoding="UTF-8" standalone="no"?>
<!DOCTYPE svg PUBLIC "-//W3C//DTD SVG 1.1//EN"
 "http://www.w3.org/Graphics/SVG/1.1/DTD/svg11.dtd">
<!-- Generated by graphviz version 2.43.0 (0)
 -->
<!-- Title: rtos::MessageQueue::trySend Pages: 1 -->
<svg width="290pt" height="76pt"
 viewBox="0.00 0.00 290.00 75.50" xmlns="http://www.w3.org/2000/svg" xmlns:xlink="http://www.w3.org/1999/xlink">
<g id="graph0" class="graph" transform="scale(1 1) rotate(0) translate(4 71.5)">
<title>rtos::MessageQueue::trySend</title>
<!-- Node1 -->
<g id="Node000001" class="node">
<title>Node1</title>
<g id="a_Node000001"><a xlink:title=" ">
<polygon fill="#999999" stroke="#666666" points="116,-45.5 0,-45.5 0,-15.5 116,-15.5 116,-45.5"/>
<text text-anchor="start" x="8" y="-33.5" font-family="Helvetica,sans-Serif" font-size="10.00">rtos::MessageQueue</text>
<text text-anchor="middle" x="58" y="-22.5" font-family="Helvetica,sans-Serif" font-size="10.00">::trySend</text>
</a>
</g>
</g>
<!-- Node2 -->
<g id="Node000002" class="node">
<title>Node2</title>
<g id="a_Node000002"><a xlink:href="namespacertos.html#ab639bc0e6fe1767a1615076c0eb588b9" target="_top" xlink:title=" ">
<polygon fill="white" stroke="#666666" points="282,-67.5 152,-67.5 152,-37.5 282,-37.5 282,-67.5"/>
<text text-anchor="start" x="160" y="-55.5" font-family="Helvetica,sans-Serif" font-size="10.00">rtos::isInterruptContext</text>
<text text-anchor="middle" x="217" y="-44.5" font-family="Helvetica,sans-Serif" font-size="10.00">Acive</text>
</a>
</g>
</g>
<!-- Node1&#45;&gt;Node2 -->
<g id="edge1_Node000001_Node000002" class="edge">
<title>Node1&#45;&gt;Node2</title>
<g id="a_edge1_Node000001_Node000002"><a xlink:title=" ">
<path fill="none" stroke="#63b8ff" d="M116.12,-38.5C124.44,-39.67 133.11,-40.88 141.71,-42.09"/>
<polygon fill="#63b8ff" stroke="#63b8ff" points="141.35,-45.57 151.74,-43.5 142.32,-38.64 141.35,-45.57"/>
</a>
</g>
</g>
<!-- Node3 -->
<g id="Node000003" class="node">
<title>Node3</title>
<g id="a_Node000003"><a xlink:href="namespacertos.html#a9743ef165638b180f24529f8b99f48a2" target="_top" xlink:title=" ">
<polygon fill="white" stroke="#666666" points="263,-19 171,-19 171,0 263,0 263,-19"/>
<text text-anchor="middle" x="217" y="-7" font-family="Helvetica,sans-Serif" font-size="10.00">rtos::msToTicks</text>
</a>
</g>
</g>
<!-- Node1&#45;&gt;Node3 -->
<g id="edge2_Node000001_Node000003" class="edge">
<title>Node1&#45;&gt;Node3</title>
<g id="a_edge2_Node000001_Node000003"><a xlink:title=" ">
<path fill="none" stroke="#63b8ff" d="M116.12,-22.86C130.66,-20.92 146.25,-18.83 160.69,-16.9"/>
<polygon fill="#63b8ff" stroke="#63b8ff" points="161.52,-20.32 170.97,-15.52 160.6,-13.38 161.52,-20.32"/>
</a>
</g>
</g>
</g>
</svg>
