<?xml version="1.0" encoding="UTF-8" standalone="no"?>
<!DOCTYPE svg PUBLIC "-//W3C//DTD SVG 1.1//EN"
 "http://www.w3.org/Graphics/SVG/1.1/DTD/svg11.dtd">
<!-- Generated by graphviz version 2.43.0 (0)
 -->
<!-- Title: MessageHandler::receive Pages: 1 -->
<svg width="562pt" height="177pt"
 viewBox="0.00 0.00 562.00 177.00" xmlns="http://www.w3.org/2000/svg" xmlns:xlink="http://www.w3.org/1999/xlink">
<g id="graph0" class="graph" transform="scale(1 1) rotate(0) translate(4 173)">
<title>MessageHandler::receive</title>
<!-- Node1 -->
<g id="Node000001" class="node">
<title>Node1</title>
<g id="a_Node000001"><a xlink:title="Receives a message from the specified internal queue.">
<polygon fill="#999999" stroke="#666666" points="554,-93 414,-93 414,-74 554,-74 554,-93"/>
<text text-anchor="middle" x="484" y="-81" font-family="Helvetica,sans-Serif" font-size="10.00">MessageHandler::receive</text>
</a>
</g>
</g>
<!-- Node2 -->
<g id="Node000002" class="node">
<title>Node2</title>
<g id="a_Node000002"><a xlink:href="classDataParser.html#a456ecb1ff09e80bf9280b628adc47239" target="_top" xlink:title="Runs a continuous task that receives and processes messages from the parser queue.">
<polygon fill="white" stroke="#666666" points="378,-169 229,-169 229,-150 378,-150 378,-169"/>
<text text-anchor="middle" x="303.5" y="-157" font-family="Helvetica,sans-Serif" font-size="10.00">DataParser::dataParserTask</text>
</a>
</g>
</g>
<!-- Node1&#45;&gt;Node2 -->
<g id="edge1_Node000001_Node000002" class="edge">
<title>Node1&#45;&gt;Node2</title>
<g id="a_edge1_Node000001_Node000002"><a xlink:title=" ">
<path fill="none" stroke="#63b8ff" d="M456.6,-97.9C435.65,-109 405.44,-124.3 378,-135.5 364.83,-140.88 349.96,-145.92 337.06,-149.98"/>
<polygon fill="#63b8ff" stroke="#63b8ff" points="458.36,-100.93 465.52,-93.13 455.05,-94.76 458.36,-100.93"/>
</a>
</g>
</g>
<!-- Node5 -->
<g id="Node000005" class="node">
<title>Node5</title>
<g id="a_Node000005"><a xlink:href="main_8cpp.html#ac672c86fb27ee5d971791cf8570ec137" target="_top" xlink:title=" ">
<polygon fill="white" stroke="#666666" points="193,-131 101,-131 101,-112 193,-112 193,-131"/>
<text text-anchor="middle" x="147" y="-119" font-family="Helvetica,sans-Serif" font-size="10.00">getBleInterface</text>
</a>
</g>
</g>
<!-- Node1&#45;&gt;Node5 -->
<g id="edge4_Node000001_Node000005" class="edge">
<title>Node1&#45;&gt;Node5</title>
<g id="a_edge4_Node000001_Node000005"><a xlink:title=" ">
<path fill="none" stroke="#63b8ff" d="M425.88,-94.87C410.39,-97.67 393.59,-100.45 378,-102.5 314.04,-110.91 239.56,-116.26 193.09,-119.07"/>
<polygon fill="#63b8ff" stroke="#63b8ff" points="426.65,-98.29 435.85,-93.03 425.38,-91.4 426.65,-98.29"/>
</a>
</g>
</g>
<!-- Node6 -->
<g id="Node000006" class="node">
<title>Node6</title>
<g id="a_Node000006"><a xlink:href="classBLE__Client.html#a76b22fa8ec94b8475dfda8e01e36bf64" target="_top" xlink:title="Handles periodic sending tasks using the provided MessageHandler.">
<polygon fill="white" stroke="#666666" points="363,-93 244,-93 244,-74 363,-74 363,-93"/>
<text text-anchor="middle" x="303.5" y="-81" font-family="Helvetica,sans-Serif" font-size="10.00">BLE_Client::sendTask</text>
</a>
</g>
</g>
<!-- Node1&#45;&gt;Node6 -->
<g id="edge6_Node000001_Node000006" class="edge">
<title>Node1&#45;&gt;Node6</title>
<g id="a_edge6_Node000001_Node000006"><a xlink:title=" ">
<path fill="none" stroke="#63b8ff" d="M403.66,-83.5C390.05,-83.5 376.13,-83.5 363.18,-83.5"/>
<polygon fill="#63b8ff" stroke="#63b8ff" points="403.99,-87 413.99,-83.5 403.99,-80 403.99,-87"/>
</a>
</g>
</g>
<!-- Node7 -->
<g id="Node000007" class="node">
<title>Node7</title>
<g id="a_Node000007"><a xlink:href="classBLE__Server.html#abf68e2a971c885eecea8a3f15a5cdd52" target="_top" xlink:title="Task to send data using a message handler.">
<polygon fill="white" stroke="#666666" points="364.5,-56 242.5,-56 242.5,-37 364.5,-37 364.5,-56"/>
<text text-anchor="middle" x="303.5" y="-44" font-family="Helvetica,sans-Serif" font-size="10.00">BLE_Server::sendTask</text>
</a>
</g>
</g>
<!-- Node1&#45;&gt;Node7 -->
<g id="edge7_Node000001_Node000007" class="edge">
<title>Node1&#45;&gt;Node7</title>
<g id="a_edge7_Node000001_Node000007"><a xlink:title=" ">
<path fill="none" stroke="#63b8ff" d="M427.11,-71.92C402.52,-66.82 373.98,-60.9 350.62,-56.06"/>
<polygon fill="#63b8ff" stroke="#63b8ff" points="426.53,-75.37 437.03,-73.97 427.95,-68.51 426.53,-75.37"/>
</a>
</g>
</g>
<!-- Node8 -->
<g id="Node000008" class="node">
<title>Node8</title>
<g id="a_Node000008"><a xlink:href="classUart.html#a1e251525523677bf41341371c4a240f6" target="_top" xlink:title="Task function to transmit data from a queue to UART.">
<polygon fill="white" stroke="#666666" points="348,-19 259,-19 259,0 348,0 348,-19"/>
<text text-anchor="middle" x="303.5" y="-7" font-family="Helvetica,sans-Serif" font-size="10.00">Uart::sendTask</text>
</a>
</g>
</g>
<!-- Node1&#45;&gt;Node8 -->
<g id="edge8_Node000001_Node000008" class="edge">
<title>Node1&#45;&gt;Node8</title>
<g id="a_edge8_Node000001_Node000008"><a xlink:title=" ">
<path fill="none" stroke="#63b8ff" d="M459.16,-68.56C438.39,-56.09 407.12,-38.63 378,-27.5 368.55,-23.89 358.14,-20.82 348.19,-18.3"/>
<polygon fill="#63b8ff" stroke="#63b8ff" points="457.56,-71.68 467.92,-73.89 461.2,-65.7 457.56,-71.68"/>
</a>
</g>
</g>
<!-- Node3 -->
<g id="Node000003" class="node">
<title>Node3</title>
<g id="a_Node000003"><a xlink:href="main_8cpp.html#a92ec7e7e48c2ce7af99bb362b83e32a8" target="_top" xlink:title=" ">
<polygon fill="white" stroke="#666666" points="192,-168 102,-168 102,-149 192,-149 192,-168"/>
<text text-anchor="middle" x="147" y="-156" font-family="Helvetica,sans-Serif" font-size="10.00">dataParserTask</text>
</a>
</g>
</g>
<!-- Node2&#45;&gt;Node3 -->
<g id="edge2_Node000002_Node000003" class="edge">
<title>Node2&#45;&gt;Node3</title>
<g id="a_edge2_Node000002_Node000003"><a xlink:title=" ">
<path fill="none" stroke="#63b8ff" d="M218.83,-158.96C209.61,-158.9 200.5,-158.84 192.05,-158.79"/>
<polygon fill="#63b8ff" stroke="#63b8ff" points="218.85,-162.46 228.87,-159.02 218.89,-155.46 218.85,-162.46"/>
</a>
</g>
</g>
<!-- Node4 -->
<g id="Node000004" class="node">
<title>Node4</title>
<g id="a_Node000004"><a xlink:href="main_8cpp.html#a630544a7f0a2cc40d8a7fefab7e2fe70" target="_top" xlink:title=" ">
<polygon fill="white" stroke="#666666" points="65,-131 0,-131 0,-112 65,-112 65,-131"/>
<text text-anchor="middle" x="32.5" y="-119" font-family="Helvetica,sans-Serif" font-size="10.00">app_main</text>
</a>
</g>
</g>
<!-- Node3&#45;&gt;Node4 -->
<g id="edge3_Node000003_Node000004" class="edge">
<title>Node3&#45;&gt;Node4</title>
<g id="a_edge3_Node000003_Node000004"><a xlink:title=" ">
<path fill="none" stroke="#63b8ff" d="M107.26,-145.76C92.68,-140.96 76.35,-135.59 62.76,-131.12"/>
<polygon fill="#63b8ff" stroke="#63b8ff" points="106.44,-149.17 117.03,-148.97 108.62,-142.52 106.44,-149.17"/>
</a>
</g>
</g>
<!-- Node5&#45;&gt;Node4 -->
<g id="edge5_Node000005_Node000004" class="edge">
<title>Node5&#45;&gt;Node4</title>
<g id="a_edge5_Node000005_Node000004"><a xlink:title=" ">
<path fill="none" stroke="#63b8ff" d="M90.67,-121.5C81.9,-121.5 73.11,-121.5 65.13,-121.5"/>
<polygon fill="#63b8ff" stroke="#63b8ff" points="90.89,-125 100.89,-121.5 90.89,-118 90.89,-125"/>
</a>
</g>
</g>
<!-- Node9 -->
<g id="Node000009" class="node">
<title>Node9</title>
<g id="a_Node000009"><a xlink:href="main_8cpp.html#a9a1ff8d552650f42d63d78590253bf6d" target="_top" xlink:title=" ">
<polygon fill="white" stroke="#666666" points="188,-57 106,-57 106,-38 188,-38 188,-57"/>
<text text-anchor="middle" x="147" y="-45" font-family="Helvetica,sans-Serif" font-size="10.00">uartSendTask</text>
</a>
</g>
</g>
<!-- Node8&#45;&gt;Node9 -->
<g id="edge9_Node000008_Node000009" class="edge">
<title>Node8&#45;&gt;Node9</title>
<g id="a_edge9_Node000008_Node000009"><a xlink:title=" ">
<path fill="none" stroke="#63b8ff" d="M253.69,-21.44C245.45,-23.46 236.98,-25.54 229,-27.5 215.22,-30.89 200.11,-34.62 186.73,-37.92"/>
<polygon fill="#63b8ff" stroke="#63b8ff" points="254.71,-24.79 263.59,-19.01 253.04,-17.99 254.71,-24.79"/>
</a>
</g>
</g>
<!-- Node9&#45;&gt;Node4 -->
<g id="edge10_Node000009_Node000004" class="edge">
<title>Node9&#45;&gt;Node4</title>
<g id="a_edge10_Node000009_Node000004"><a xlink:title=" ">
<path fill="none" stroke="#63b8ff" d="M122.72,-62.82C100.32,-77.54 67.16,-99.36 48.21,-111.82"/>
<polygon fill="#63b8ff" stroke="#63b8ff" points="124.86,-65.59 131.29,-57.17 121.01,-59.75 124.86,-65.59"/>
</a>
</g>
</g>
</g>
</svg>
