<?xml version="1.0" encoding="UTF-8" standalone="no"?>
<!DOCTYPE svg PUBLIC "-//W3C//DTD SVG 1.1//EN"
 "http://www.w3.org/Graphics/SVG/1.1/DTD/svg11.dtd">
<!-- Generated by graphviz version 2.43.0 (0)
 -->
<!-- Title: BLE_Client Pages: 1 -->
<!--zoomable 1353 -->

<svg id="main" version="1.1" xmlns="http://www.w3.org/2000/svg" xmlns:xlink="http://www.w3.org/1999/xlink" xml:space="preserve" onload="init(evt)">
<style type="text/css"><![CDATA[
.node, .edge {opacity: 0.7;}
.node.selected, .edge.selected {opacity: 1;}
.edge:hover path { stroke: red; }
.edge:hover polygon { stroke: red; fill: red; }
]]></style>

<defs>
  <circle id="rim" cx="0" cy="0" r="7"/>
  <circle id="rim2" cx="0" cy="0" r="3.5"/>
  <g id="zoomPlus">
    <use xlink:href="#rim" fill="#404040"><set attributeName="fill" to="#808080" begin="zoomplus.mouseover" end="zoomplus.mouseout"/></use>
    <path d="M-4,0h8M0,-4v8" fill="none" stroke="white" stroke-width="1.5" pointer-events="none"/>
  </g>
  <g id="zoomMin">
    <use xlink:href="#rim" fill="#404040"><set attributeName="fill" to="#808080" begin="zoomminus.mouseover" end="zoomminus.mouseout"/></use>
    <path d="M-4,0h8" fill="none" stroke="white" stroke-width="1.5" pointer-events="none"/>
  </g>
  <g id="arrowUp" transform="translate(30 24)">
    <use xlink:href="#rim"/>
    <path pointer-events="none" fill="none" stroke="white" stroke-width="1.5" d="M0,-3.0v7 M-2.5,-0.5L0,-3.0L2.5,-0.5"/>
  </g>
  <g id="arrowRight" transform="rotate(90) translate(36 -43)">
    <use xlink:href="#rim"/>
    <path pointer-events="none" fill="none" stroke="white" stroke-width="1.5" d="M0,-3.0v7 M-2.5,-0.5L0,-3.0L2.5,-0.5"/>
  </g>
  <g id="arrowDown" transform="rotate(180) translate(-30 -48)">
    <use xlink:href="#rim"/>
    <path pointer-events="none" fill="none" stroke="white" stroke-width="1.5" d="M0,-3.0v7 M-2.5,-0.5L0,-3.0L2.5,-0.5"/>
  </g>
  <g id="arrowLeft" transform="rotate(270) translate(-36 17)">
    <use xlink:href="#rim"/>
    <path pointer-events="none" fill="none" stroke="white" stroke-width="1.5" d="M0,-3.0v7 M-2.5,-0.5L0,-3.0L2.5,-0.5"/>
  </g>
  <g id="resetDef">
    <use xlink:href="#rim2" fill="#404040"><set attributeName="fill" to="#808080" begin="reset.mouseover" end="reset.mouseout"/></use>
  </g>
</defs>
<script type="application/ecmascript">
var viewWidth = 475;
var viewHeight = 1353;
var sectionId = 'dynsection-1';
</script>
<script type="application/ecmascript" xlink:href="svg.min.js"/>
<svg id="graph" class="graph">
<g id="viewport">
<title>BLE_Client</title>
<!-- Node1 -->
<g id="Node000001" class="node">
<title>Node1</title>
<g id="a_Node000001"><a xlink:title="BLE Client implementation.">
<polygon fill="#999999" stroke="transparent" points="366.5,-656 78.5,-656 78.5,0 366.5,0 366.5,-656"/>
<text text-anchor="start" x="196.5" y="-644" font-family="Helvetica,sans-Serif" font-size="10.00">BLE_Client</text>
<text text-anchor="start" x="85" y="-629" font-family="Helvetica,sans-Serif" font-size="10.00">&#45;</text>
<text text-anchor="start" x="95.5" y="-629" font-family="Helvetica,sans-Serif" font-size="10.00">esp_ble_scan_params</text>
<text text-anchor="start" x="95.5" y="-618" font-family="Helvetica,sans-Serif" font-size="10.00">_t _scan_params</text>
<text text-anchor="start" x="85" y="-603" font-family="Helvetica,sans-Serif" font-size="10.00">&#45;</text>
<text text-anchor="start" x="95.5" y="-603" font-family="Helvetica,sans-Serif" font-size="10.00">esp_bt_uuid_t _remote</text>
<text text-anchor="start" x="95.5" y="-592" font-family="Helvetica,sans-Serif" font-size="10.00">_service_uuid</text>
<text text-anchor="start" x="85" y="-577" font-family="Helvetica,sans-Serif" font-size="10.00">&#45;</text>
<text text-anchor="start" x="95.5" y="-577" font-family="Helvetica,sans-Serif" font-size="10.00">esp_bt_uuid_t _remote</text>
<text text-anchor="start" x="95.5" y="-566" font-family="Helvetica,sans-Serif" font-size="10.00">_char_uuid</text>
<text text-anchor="start" x="85" y="-551" font-family="Helvetica,sans-Serif" font-size="10.00">&#45;</text>
<text text-anchor="start" x="95.5" y="-551" font-family="Helvetica,sans-Serif" font-size="10.00">esp_bt_uuid_t _remote</text>
<text text-anchor="start" x="95.5" y="-540" font-family="Helvetica,sans-Serif" font-size="10.00">_descr_uuid</text>
<text text-anchor="start" x="85" y="-525" font-family="Helvetica,sans-Serif" font-size="10.00">&#45;</text>
<text text-anchor="start" x="95.5" y="-525" font-family="Helvetica,sans-Serif" font-size="10.00">uint8_t _char_send</text>
<text text-anchor="start" x="95.5" y="-514" font-family="Helvetica,sans-Serif" font-size="10.00">_buffer</text>
<text text-anchor="start" x="85" y="-499" font-family="Helvetica,sans-Serif" font-size="10.00">&#45;</text>
<text text-anchor="start" x="95.5" y="-499" font-family="Helvetica,sans-Serif" font-size="10.00">uint8_t _char_recv</text>
<text text-anchor="start" x="95.5" y="-488" font-family="Helvetica,sans-Serif" font-size="10.00">_buffer</text>
<text text-anchor="start" x="85" y="-473" font-family="Helvetica,sans-Serif" font-size="10.00">&#45;</text>
<text text-anchor="start" x="95.5" y="-473" font-family="Helvetica,sans-Serif" font-size="10.00">bool _is_connected</text>
<text text-anchor="start" x="85" y="-458" font-family="Helvetica,sans-Serif" font-size="10.00">&#45;</text>
<text text-anchor="start" x="95.5" y="-458" font-family="Helvetica,sans-Serif" font-size="10.00">bool _get_server</text>
<text text-anchor="start" x="82.5" y="-443" font-family="Helvetica,sans-Serif" font-size="10.00">+</text>
<text text-anchor="start" x="95.5" y="-443" font-family="Helvetica,sans-Serif" font-size="10.00">BLE_Client(esp_ble</text>
<text text-anchor="start" x="95.5" y="-432" font-family="Helvetica,sans-Serif" font-size="10.00">_scan_params_t scan</text>
<text text-anchor="start" x="95.5" y="-421" font-family="Helvetica,sans-Serif" font-size="10.00">_params=BLE_Defaults</text>
<text text-anchor="start" x="95.5" y="-410" font-family="Helvetica,sans-Serif" font-size="10.00">::BLE_SCAN_PARAMS_DEFAULT,</text>
<text text-anchor="start" x="95.5" y="-399" font-family="Helvetica,sans-Serif" font-size="10.00"> esp_bt_uuid_t remote_service</text>
<text text-anchor="start" x="95.5" y="-388" font-family="Helvetica,sans-Serif" font-size="10.00">_uuid=BLE_Defaults::REMOTE_FILTER</text>
<text text-anchor="start" x="95.5" y="-377" font-family="Helvetica,sans-Serif" font-size="10.00">_SERVICE_UUID, esp_bt_uuid_t remote</text>
<text text-anchor="start" x="95.5" y="-366" font-family="Helvetica,sans-Serif" font-size="10.00">_char_uuid=BLE_Defaults::REMOTE_FILTER</text>
<text text-anchor="start" x="95.5" y="-355" font-family="Helvetica,sans-Serif" font-size="10.00">_CHAR_UUID, esp_bt_uuid_t remote_descr</text>
<text text-anchor="start" x="95.5" y="-344" font-family="Helvetica,sans-Serif" font-size="10.00">_uuid=BLE_Defaults::REMOTE_DESCR_UUID_DEFAULT,</text>
<text text-anchor="start" x="95.5" y="-333" font-family="Helvetica,sans-Serif" font-size="10.00"> MessageHandler *msgHandler=nullptr)</text>
<text text-anchor="start" x="82.5" y="-318" font-family="Helvetica,sans-Serif" font-size="10.00">+</text>
<text text-anchor="start" x="95.5" y="-318" font-family="Helvetica,sans-Serif" font-size="10.00">~BLE_Client()</text>
<text text-anchor="start" x="82.5" y="-303" font-family="Helvetica,sans-Serif" font-size="10.00">+</text>
<text text-anchor="start" x="95.5" y="-303" font-family="Helvetica,sans-Serif" font-size="10.00">void connSetup() override</text>
<text text-anchor="start" x="82.5" y="-288" font-family="Helvetica,sans-Serif" font-size="10.00">+</text>
<text text-anchor="start" x="95.5" y="-288" font-family="Helvetica,sans-Serif" font-size="10.00">void send(const char</text>
<text text-anchor="start" x="95.5" y="-277" font-family="Helvetica,sans-Serif" font-size="10.00"> *data) override</text>
<text text-anchor="start" x="82.5" y="-262" font-family="Helvetica,sans-Serif" font-size="10.00">+</text>
<text text-anchor="start" x="95.5" y="-262" font-family="Helvetica,sans-Serif" font-size="10.00">void sendTask() override</text>
<text text-anchor="start" x="85" y="-247" font-family="Helvetica,sans-Serif" font-size="10.00">&#45;</text>
<text text-anchor="start" x="95.5" y="-247" font-family="Helvetica,sans-Serif" font-size="10.00">void handle_event_gap</text>
<text text-anchor="start" x="95.5" y="-236" font-family="Helvetica,sans-Serif" font-size="10.00">(esp_gap_ble_cb_event</text>
<text text-anchor="start" x="95.5" y="-225" font-family="Helvetica,sans-Serif" font-size="10.00">_t, esp_ble_gap_cb_param_t *)</text>
<text text-anchor="start" x="85" y="-210" font-family="Helvetica,sans-Serif" font-size="10.00">&#45;</text>
<text text-anchor="start" x="95.5" y="-210" font-family="Helvetica,sans-Serif" font-size="10.00">void handle_event_gattc</text>
<text text-anchor="start" x="95.5" y="-199" font-family="Helvetica,sans-Serif" font-size="10.00">(esp_gattc_cb_event_t,</text>
<text text-anchor="start" x="95.5" y="-188" font-family="Helvetica,sans-Serif" font-size="10.00"> esp_gatt_if_t, esp_ble</text>
<text text-anchor="start" x="95.5" y="-177" font-family="Helvetica,sans-Serif" font-size="10.00">_gattc_cb_param_t *)</text>
<text text-anchor="start" x="85" y="-162" font-family="Helvetica,sans-Serif" font-size="10.00">&#45;</text>
<text text-anchor="start" x="95.5" y="-162" font-family="Helvetica,sans-Serif" font-size="10.00">const char * get_gattc</text>
<text text-anchor="start" x="95.5" y="-151" font-family="Helvetica,sans-Serif" font-size="10.00">_event_name(esp_gattc</text>
<text text-anchor="start" x="95.5" y="-140" font-family="Helvetica,sans-Serif" font-size="10.00">_cb_event_t)</text>
<text text-anchor="start" x="85" y="-125" font-family="Helvetica,sans-Serif" font-size="10.00">&#45;</text>
<text text-anchor="start" x="95.5" y="-125" font-family="Helvetica,sans-Serif" font-size="10.00">const char * get_gap</text>
<text text-anchor="start" x="95.5" y="-114" font-family="Helvetica,sans-Serif" font-size="10.00">_event_name(esp_gap_ble</text>
<text text-anchor="start" x="95.5" y="-103" font-family="Helvetica,sans-Serif" font-size="10.00">_cb_event_t)</text>
<text text-anchor="start" x="85" y="-88" font-family="Helvetica,sans-Serif" font-size="10.00">&#45;</text>
<text text-anchor="start" x="95.5" y="-88" font-family="Helvetica,sans-Serif" font-size="10.00">static void gap_event</text>
<text text-anchor="start" x="95.5" y="-77" font-family="Helvetica,sans-Serif" font-size="10.00">_handler(esp_gap_ble</text>
<text text-anchor="start" x="95.5" y="-66" font-family="Helvetica,sans-Serif" font-size="10.00">_cb_event_t, esp_ble_gap</text>
<text text-anchor="start" x="95.5" y="-55" font-family="Helvetica,sans-Serif" font-size="10.00">_cb_param_t *)</text>
<text text-anchor="start" x="85" y="-40" font-family="Helvetica,sans-Serif" font-size="10.00">&#45;</text>
<text text-anchor="start" x="95.5" y="-40" font-family="Helvetica,sans-Serif" font-size="10.00">static void gattc_event</text>
<text text-anchor="start" x="95.5" y="-29" font-family="Helvetica,sans-Serif" font-size="10.00">_handler(esp_gattc_cb</text>
<text text-anchor="start" x="95.5" y="-18" font-family="Helvetica,sans-Serif" font-size="10.00">_event_t, esp_gatt_if_t,</text>
<text text-anchor="start" x="95.5" y="-7" font-family="Helvetica,sans-Serif" font-size="10.00"> esp_ble_gattc_cb_param_t *)</text>
<polygon fill="#666666" stroke="#666666" points="78.5,-639 78.5,-639 366.5,-639 366.5,-639 78.5,-639"/>
<polygon fill="#666666" stroke="#666666" points="78.5,-453 78.5,-453 93.5,-453 93.5,-453 78.5,-453"/>
<polygon fill="#666666" stroke="#666666" points="93.5,-453 93.5,-453 366.5,-453 366.5,-453 93.5,-453"/>
<polygon fill="none" stroke="#666666" points="78.5,0 78.5,-656 366.5,-656 366.5,0 78.5,0"/>
</a>
</g>
</g>
<!-- Node1&#45;&gt;Node1 -->
<g id="edge3_Node000001_Node000001" class="edge">
<title>Node1&#45;&gt;Node1</title>
<g id="a_edge3_Node000001_Node000001"><a xlink:title=" ">
<path fill="none" stroke="#63b8ff" d="M366.52,-377.47C377.64,-366.54 384.5,-350.05 384.5,-328 384.5,-311.64 380.72,-298.34 374.23,-288.09"/>
<polygon fill="none" stroke="#63b8ff" points="374.05,-287.87 367.17,-285.71 366.52,-278.53 373.4,-280.69 374.05,-287.87"/>
</a>
</g>
<text text-anchor="middle" x="425.5" y="-325.5" font-family="Helvetica,sans-Serif" font-size="10.00" fill="grey"> &#45;Client_instance</text>
</g>
<!-- Node2 -->
<g id="Node000002" class="node">
<title>Node2</title>
<g id="a_Node000002"><a xlink:href="classBluetooth.html" target="_top" xlink:title="Abstract base class for BLE communication.">
<polygon fill="white" stroke="transparent" points="171.5,-877 15.5,-877 15.5,-731 171.5,-731 171.5,-877"/>
<text text-anchor="start" x="69.5" y="-865" font-family="Helvetica,sans-Serif" font-size="10.00">Bluetooth</text>
<text text-anchor="start" x="91.5" y="-850" font-family="Helvetica,sans-Serif" font-size="10.00"> </text>
<text text-anchor="start" x="19.5" y="-835" font-family="Helvetica,sans-Serif" font-size="10.00">+</text>
<text text-anchor="start" x="32.5" y="-835" font-family="Helvetica,sans-Serif" font-size="10.00">Bluetooth()</text>
<text text-anchor="start" x="19.5" y="-820" font-family="Helvetica,sans-Serif" font-size="10.00">+</text>
<text text-anchor="start" x="32.5" y="-820" font-family="Helvetica,sans-Serif" font-size="10.00">virtual ~Bluetooth()</text>
<text text-anchor="start" x="19.5" y="-805" font-family="Helvetica,sans-Serif" font-size="10.00">+</text>
<text text-anchor="start" x="32.5" y="-805" font-family="Helvetica,sans-Serif" font-size="10.00">virtual void connSetup()=0</text>
<text text-anchor="start" x="19.5" y="-790" font-family="Helvetica,sans-Serif" font-size="10.00">+</text>
<text text-anchor="start" x="32.5" y="-790" font-family="Helvetica,sans-Serif" font-size="10.00">virtual void send(const</text>
<text text-anchor="start" x="32.5" y="-779" font-family="Helvetica,sans-Serif" font-size="10.00"> char *data)=0</text>
<text text-anchor="start" x="19.5" y="-764" font-family="Helvetica,sans-Serif" font-size="10.00">+</text>
<text text-anchor="start" x="32.5" y="-764" font-family="Helvetica,sans-Serif" font-size="10.00">virtual void sendTask()=0</text>
<text text-anchor="start" x="19.5" y="-749" font-family="Helvetica,sans-Serif" font-size="10.00">+</text>
<text text-anchor="start" x="32.5" y="-749" font-family="Helvetica,sans-Serif" font-size="10.00">void setMessageHandler</text>
<text text-anchor="start" x="32.5" y="-738" font-family="Helvetica,sans-Serif" font-size="10.00">(MessageHandler *handler)</text>
<polygon fill="#666666" stroke="#666666" points="15.5,-860 15.5,-860 171.5,-860 171.5,-860 15.5,-860"/>
<polygon fill="#666666" stroke="#666666" points="15.5,-845 15.5,-845 171.5,-845 171.5,-845 15.5,-845"/>
<polygon fill="none" stroke="#666666" points="15.5,-731 15.5,-877 171.5,-877 171.5,-731 15.5,-731"/>
</a>
</g>
</g>
<!-- Node2&#45;&gt;Node1 -->
<g id="edge1_Node000001_Node000002" class="edge">
<title>Node2&#45;&gt;Node1</title>
<g id="a_edge1_Node000001_Node000002"><a xlink:title=" ">
<path fill="none" stroke="#63b8ff" d="M115.79,-721.09C121.1,-701.59 127.09,-679.59 133.45,-656.22"/>
<polygon fill="none" stroke="#63b8ff" points="112.41,-720.18 113.16,-730.75 119.17,-722.02 112.41,-720.18"/>
</a>
</g>
</g>
<!-- Node3 -->
<g id="Node000003" class="node">
<title>Node3</title>
<g id="a_Node000003"><a xlink:href="classMessageHandler.html" target="_top" xlink:title="A class to handle message queues for different communication types.">
<polygon fill="white" stroke="transparent" points="187,-1345 0,-1345 0,-952 187,-952 187,-1345"/>
<text text-anchor="start" x="53" y="-1332.5" font-family="Helvetica,sans-Serif" font-size="10.00">MessageHandler</text>
<text text-anchor="start" x="4.5" y="-1317.5" font-family="Helvetica,sans-Serif" font-size="10.00">+</text>
<text text-anchor="start" x="17.5" y="-1317.5" font-family="Helvetica,sans-Serif" font-size="10.00">static constexpr size</text>
<text text-anchor="start" x="17.5" y="-1306.5" font-family="Helvetica,sans-Serif" font-size="10.00">_t DefaultQueueSize</text>
<text text-anchor="start" x="4.5" y="-1291.5" font-family="Helvetica,sans-Serif" font-size="10.00">+</text>
<text text-anchor="start" x="17.5" y="-1291.5" font-family="Helvetica,sans-Serif" font-size="10.00">static constexpr size</text>
<text text-anchor="start" x="17.5" y="-1280.5" font-family="Helvetica,sans-Serif" font-size="10.00">_t MaxMessageLength</text>
<text text-anchor="start" x="7" y="-1265.5" font-family="Helvetica,sans-Serif" font-size="10.00">&#45;</text>
<text text-anchor="start" x="17.5" y="-1265.5" font-family="Helvetica,sans-Serif" font-size="10.00">std::unique_ptr&lt; rtos</text>
<text text-anchor="start" x="17.5" y="-1254.5" font-family="Helvetica,sans-Serif" font-size="10.00">::MessageQueue&lt; Message</text>
<text text-anchor="start" x="17.5" y="-1243.5" font-family="Helvetica,sans-Serif" font-size="10.00"> &gt; &gt; _uartQueue</text>
<text text-anchor="start" x="7" y="-1228.5" font-family="Helvetica,sans-Serif" font-size="10.00">&#45;</text>
<text text-anchor="start" x="17.5" y="-1228.5" font-family="Helvetica,sans-Serif" font-size="10.00">std::unique_ptr&lt; rtos</text>
<text text-anchor="start" x="17.5" y="-1217.5" font-family="Helvetica,sans-Serif" font-size="10.00">::MessageQueue&lt; Message</text>
<text text-anchor="start" x="17.5" y="-1206.5" font-family="Helvetica,sans-Serif" font-size="10.00"> &gt; &gt; _bleQueue</text>
<text text-anchor="start" x="7" y="-1191.5" font-family="Helvetica,sans-Serif" font-size="10.00">&#45;</text>
<text text-anchor="start" x="17.5" y="-1191.5" font-family="Helvetica,sans-Serif" font-size="10.00">std::unique_ptr&lt; rtos</text>
<text text-anchor="start" x="17.5" y="-1180.5" font-family="Helvetica,sans-Serif" font-size="10.00">::MessageQueue&lt; ParserMessage</text>
<text text-anchor="start" x="17.5" y="-1169.5" font-family="Helvetica,sans-Serif" font-size="10.00"> &gt; &gt; _dataParserQueue</text>
<text text-anchor="start" x="7" y="-1154.5" font-family="Helvetica,sans-Serif" font-size="10.00">&#45;</text>
<text text-anchor="start" x="17.5" y="-1154.5" font-family="Helvetica,sans-Serif" font-size="10.00">QueueHandle_t _uartEvent</text>
<text text-anchor="start" x="17.5" y="-1143.5" font-family="Helvetica,sans-Serif" font-size="10.00">Queue</text>
<text text-anchor="start" x="4.5" y="-1128.5" font-family="Helvetica,sans-Serif" font-size="10.00">+</text>
<text text-anchor="start" x="17.5" y="-1128.5" font-family="Helvetica,sans-Serif" font-size="10.00">MessageHandler(size</text>
<text text-anchor="start" x="17.5" y="-1117.5" font-family="Helvetica,sans-Serif" font-size="10.00">_t queueSize=DefaultQueueSize)</text>
<text text-anchor="start" x="4.5" y="-1102.5" font-family="Helvetica,sans-Serif" font-size="10.00">+</text>
<text text-anchor="start" x="17.5" y="-1102.5" font-family="Helvetica,sans-Serif" font-size="10.00">bool send(QueueType</text>
<text text-anchor="start" x="17.5" y="-1091.5" font-family="Helvetica,sans-Serif" font-size="10.00"> queueType, const Message</text>
<text text-anchor="start" x="17.5" y="-1080.5" font-family="Helvetica,sans-Serif" font-size="10.00"> &amp;message, ParserMessageID</text>
<text text-anchor="start" x="17.5" y="-1069.5" font-family="Helvetica,sans-Serif" font-size="10.00"> id=ParserMessageID::OTHER)</text>
<text text-anchor="start" x="4.5" y="-1054.5" font-family="Helvetica,sans-Serif" font-size="10.00">+</text>
<text text-anchor="start" x="17.5" y="-1054.5" font-family="Helvetica,sans-Serif" font-size="10.00">bool receive(QueueType</text>
<text text-anchor="start" x="17.5" y="-1043.5" font-family="Helvetica,sans-Serif" font-size="10.00"> queueType, Message &amp;message,</text>
<text text-anchor="start" x="17.5" y="-1032.5" font-family="Helvetica,sans-Serif" font-size="10.00"> ParserMessageID *id=nullptr)</text>
<text text-anchor="start" x="4.5" y="-1017.5" font-family="Helvetica,sans-Serif" font-size="10.00">+</text>
<text text-anchor="start" x="17.5" y="-1017.5" font-family="Helvetica,sans-Serif" font-size="10.00">QueueHandle_t * getUartEvent</text>
<text text-anchor="start" x="17.5" y="-1006.5" font-family="Helvetica,sans-Serif" font-size="10.00">Queue()</text>
<text text-anchor="start" x="7" y="-991.5" font-family="Helvetica,sans-Serif" font-size="10.00">&#45;</text>
<text text-anchor="start" x="17.5" y="-991.5" font-family="Helvetica,sans-Serif" font-size="10.00">std::unique_ptr&lt; rtos</text>
<text text-anchor="start" x="17.5" y="-980.5" font-family="Helvetica,sans-Serif" font-size="10.00">::MessageQueue&lt; Message</text>
<text text-anchor="start" x="17.5" y="-969.5" font-family="Helvetica,sans-Serif" font-size="10.00"> &gt; &gt; &amp; getQueue(QueueType</text>
<text text-anchor="start" x="17.5" y="-958.5" font-family="Helvetica,sans-Serif" font-size="10.00"> queueType)</text>
<polygon fill="#666666" stroke="#666666" points="0.5,-1327.5 0.5,-1327.5 187.5,-1327.5 187.5,-1327.5 0.5,-1327.5"/>
<polygon fill="#666666" stroke="#666666" points="0.5,-1138.5 0.5,-1138.5 15.5,-1138.5 15.5,-1138.5 0.5,-1138.5"/>
<polygon fill="#666666" stroke="#666666" points="15.5,-1138.5 15.5,-1138.5 187.5,-1138.5 187.5,-1138.5 15.5,-1138.5"/>
<polygon fill="none" stroke="#666666" points="0,-952 0,-1345 187,-1345 187,-952 0,-952"/>
</a>
</g>
</g>
<!-- Node3&#45;&gt;Node2 -->
<g id="edge2_Node000002_Node000003" class="edge">
<title>Node3&#45;&gt;Node2</title>
<g id="a_edge2_Node000002_Node000003"><a xlink:title=" ">
<path fill="none" stroke="#63b8ff" d="M93.5,-951.74C93.5,-929.88 93.5,-908.56 93.5,-889.26"/>
<polygon fill="none" stroke="#63b8ff" points="93.5,-889.19 89.5,-883.19 93.5,-877.19 97.5,-883.19 93.5,-889.19"/>
</a>
</g>
<text text-anchor="middle" x="131.5" y="-926" font-family="Helvetica,sans-Serif" font-size="10.00" fill="grey"> #_msgHandler</text>
</g>
<!-- Node4 -->
<g id="Node000004" class="node">
<title>Node4</title>
<g id="a_Node000004"><a xlink:href="structBLE__Defaults_1_1gattc__profile__inst.html" target="_top" xlink:title="Structure to hold GATT client profile information.">
<polygon fill="white" stroke="transparent" points="343.5,-905 189.5,-905 189.5,-703 343.5,-703 343.5,-905"/>
<text text-anchor="start" x="218.5" y="-893" font-family="Helvetica,sans-Serif" font-size="10.00">BLE_Defaults::gattc</text>
<text text-anchor="start" x="236.5" y="-882" font-family="Helvetica,sans-Serif" font-size="10.00">_profile_inst</text>
<text text-anchor="start" x="193.5" y="-867" font-family="Helvetica,sans-Serif" font-size="10.00">+</text>
<text text-anchor="start" x="206.5" y="-867" font-family="Helvetica,sans-Serif" font-size="10.00">esp_gattc_cb_t gattc_cb</text>
<text text-anchor="start" x="193.5" y="-852" font-family="Helvetica,sans-Serif" font-size="10.00">+</text>
<text text-anchor="start" x="206.5" y="-852" font-family="Helvetica,sans-Serif" font-size="10.00">uint16_t gattc_if</text>
<text text-anchor="start" x="193.5" y="-837" font-family="Helvetica,sans-Serif" font-size="10.00">+</text>
<text text-anchor="start" x="206.5" y="-837" font-family="Helvetica,sans-Serif" font-size="10.00">uint16_t app_id</text>
<text text-anchor="start" x="193.5" y="-822" font-family="Helvetica,sans-Serif" font-size="10.00">+</text>
<text text-anchor="start" x="206.5" y="-822" font-family="Helvetica,sans-Serif" font-size="10.00">uint16_t conn_id</text>
<text text-anchor="start" x="193.5" y="-807" font-family="Helvetica,sans-Serif" font-size="10.00">+</text>
<text text-anchor="start" x="206.5" y="-807" font-family="Helvetica,sans-Serif" font-size="10.00">uint16_t service_start</text>
<text text-anchor="start" x="206.5" y="-796" font-family="Helvetica,sans-Serif" font-size="10.00">_handle</text>
<text text-anchor="start" x="193.5" y="-781" font-family="Helvetica,sans-Serif" font-size="10.00">+</text>
<text text-anchor="start" x="206.5" y="-781" font-family="Helvetica,sans-Serif" font-size="10.00">uint16_t service_end</text>
<text text-anchor="start" x="206.5" y="-770" font-family="Helvetica,sans-Serif" font-size="10.00">_handle</text>
<text text-anchor="start" x="193.5" y="-755" font-family="Helvetica,sans-Serif" font-size="10.00">+</text>
<text text-anchor="start" x="206.5" y="-755" font-family="Helvetica,sans-Serif" font-size="10.00">uint16_t char_handle</text>
<text text-anchor="start" x="193.5" y="-740" font-family="Helvetica,sans-Serif" font-size="10.00">+</text>
<text text-anchor="start" x="206.5" y="-740" font-family="Helvetica,sans-Serif" font-size="10.00">esp_bd_addr_t remote_bda</text>
<text text-anchor="start" x="193.5" y="-725" font-family="Helvetica,sans-Serif" font-size="10.00">+</text>
<text text-anchor="start" x="206.5" y="-725" font-family="Helvetica,sans-Serif" font-size="10.00">uint16_t local_mtu</text>
<text text-anchor="start" x="264.5" y="-710" font-family="Helvetica,sans-Serif" font-size="10.00"> </text>
<polygon fill="#666666" stroke="#666666" points="189.5,-877 189.5,-877 343.5,-877 343.5,-877 189.5,-877"/>
<polygon fill="#666666" stroke="#666666" points="189.5,-720 189.5,-720 204.5,-720 204.5,-720 189.5,-720"/>
<polygon fill="#666666" stroke="#666666" points="204.5,-720 204.5,-720 343.5,-720 343.5,-720 204.5,-720"/>
<polygon fill="none" stroke="#666666" points="189.5,-703 189.5,-905 343.5,-905 343.5,-703 189.5,-703"/>
</a>
</g>
</g>
<!-- Node4&#45;&gt;Node1 -->
<g id="edge4_Node000001_Node000004" class="edge">
<title>Node4&#45;&gt;Node1</title>
<g id="a_edge4_Node000001_Node000004"><a xlink:title=" ">
<path fill="none" stroke="#63b8ff" d="M257.2,-702.77C256.18,-691.87 255.12,-680.38 254.01,-668.46"/>
<polygon fill="none" stroke="#63b8ff" points="254,-668.36 249.46,-662.75 252.89,-656.41 257.43,-662.01 254,-668.36"/>
</a>
</g>
<text text-anchor="middle" x="303" y="-677" font-family="Helvetica,sans-Serif" font-size="10.00" fill="grey"> &#45;_gattc_profile_inst</text>
</g>
</g>
</svg>

<g id="navigator" transform="translate(0 0)" fill="#404254">
  <rect fill="#f2f5e9" fill-opacity="0.5" stroke="#606060" stroke-width=".5" x="0" y="0" width="60" height="60"/>
  <use id="zoomplus" xlink:href="#zoomPlus" x="17" y="9" onmousedown="handleZoom(evt,'in')"/>
  <use id="zoomminus" xlink:href="#zoomMin" x="42" y="9" onmousedown="handleZoom(evt,'out')"/>
  <use id="reset" xlink:href="#resetDef" x="30" y="36" onmousedown="handleReset()"/>
   <use id="arrowup" xlink:href="#arrowUp" x="0" y="0" onmousedown="handlePan(0,-1)"/>
  <use id="arrowright" xlink:href="#arrowRight" x="0" y="0" onmousedown="handlePan(1,0)"/>
  <use id="arrowdown" xlink:href="#arrowDown" x="0" y="0" onmousedown="handlePan(0,1)"/>
  <use id="arrowleft" xlink:href="#arrowLeft" x="0" y="0" onmousedown="handlePan(-1,0)"/>
</g>
<svg viewBox="0 0 15 15" width="100%" height="30px" preserveAspectRatio="xMaxYMin meet">
 <g id="arrow_out" transform="scale(0.3 0.3)">
  <a xlink:href="classBLE__Client__coll__graph_org.svg" target="_base">
   <rect id="button" ry="5" rx="5" y="6" x="6" height="38" width="38"
        fill="#f2f5e9" fill-opacity="0.5" stroke="#606060" stroke-width="1.0"/>
   <path id="arrow"
     d="M 11.500037,31.436501 C 11.940474,20.09759 22.043105,11.32322 32.158766,21.979434 L 37.068811,17.246167 C 37.068811,17.246167 37.088388,32 37.088388,32 L 22.160133,31.978069 C 22.160133,31.978069 26.997745,27.140456 26.997745,27.140456 C 18.528582,18.264221 13.291696,25.230495 11.500037,31.436501 z"
     style="fill:#404040;"/>
  </a>
 </g>
</svg>

<style type='text/css'>
<![CDATA[
[data-mouse-over-selected='false'] { opacity: 0.7; }
[data-mouse-over-selected='true']  { opacity: 1.0; }
]]>
</style>
<script type="application/ecmascript"><![CDATA[
document.addEventListener('DOMContentLoaded', (event) => {
  highlightEdges();
  highlightAdjacentNodes();
});
]]></script>
</svg>
