<?xml version="1.0" encoding="UTF-8" standalone="no"?>
<!DOCTYPE svg PUBLIC "-//W3C//DTD SVG 1.1//EN"
 "http://www.w3.org/Graphics/SVG/1.1/DTD/svg11.dtd">
<!-- Generated by graphviz version 2.43.0 (0)
 -->
<!-- Title: rtos::Flags&lt; T &gt; Pages: 1 -->
<svg width="150pt" height="236pt"
 viewBox="0.00 0.00 150.00 236.00" xmlns="http://www.w3.org/2000/svg" xmlns:xlink="http://www.w3.org/1999/xlink">
<g id="graph0" class="graph" transform="scale(1 1) rotate(0) translate(4 232)">
<title>rtos::Flags&lt; T &gt;</title>
<!-- Node1 -->
<g id="Node000001" class="node">
<title>Node1</title>
<g id="a_Node000001"><a xlink:title=" ">
<polygon fill="#999999" stroke="transparent" points="142,-228 0,-228 0,0 142,0 142,-228"/>
<text text-anchor="start" x="31" y="-216" font-family="Helvetica,sans-Serif" font-size="10.00">rtos::Flags&lt; T &gt;</text>
<text text-anchor="start" x="6.5" y="-201" font-family="Helvetica,sans-Serif" font-size="10.00">&#45;</text>
<text text-anchor="start" x="17" y="-201" font-family="Helvetica,sans-Serif" font-size="10.00">uint32_t _raw</text>
<text text-anchor="start" x="4" y="-186" font-family="Helvetica,sans-Serif" font-size="10.00">+</text>
<text text-anchor="start" x="17" y="-186" font-family="Helvetica,sans-Serif" font-size="10.00">Flags(uint32_t raw)</text>
<text text-anchor="start" x="4" y="-171" font-family="Helvetica,sans-Serif" font-size="10.00">+</text>
<text text-anchor="start" x="17" y="-171" font-family="Helvetica,sans-Serif" font-size="10.00">Flags(T flag)</text>
<text text-anchor="start" x="4" y="-156" font-family="Helvetica,sans-Serif" font-size="10.00">+</text>
<text text-anchor="start" x="17" y="-156" font-family="Helvetica,sans-Serif" font-size="10.00">Flags(std::initializer</text>
<text text-anchor="start" x="17" y="-145" font-family="Helvetica,sans-Serif" font-size="10.00">_list&lt; T &gt; flags)</text>
<text text-anchor="start" x="4" y="-130" font-family="Helvetica,sans-Serif" font-size="10.00">+</text>
<text text-anchor="start" x="17" y="-130" font-family="Helvetica,sans-Serif" font-size="10.00">~Flags()</text>
<text text-anchor="start" x="4" y="-115" font-family="Helvetica,sans-Serif" font-size="10.00">+</text>
<text text-anchor="start" x="17" y="-115" font-family="Helvetica,sans-Serif" font-size="10.00">Flags(const Flags</text>
<text text-anchor="start" x="17" y="-104" font-family="Helvetica,sans-Serif" font-size="10.00"> &amp;)=default</text>
<text text-anchor="start" x="4" y="-89" font-family="Helvetica,sans-Serif" font-size="10.00">+</text>
<text text-anchor="start" x="17" y="-89" font-family="Helvetica,sans-Serif" font-size="10.00">Flags(Flags &amp;&amp;)=default</text>
<text text-anchor="start" x="4" y="-74" font-family="Helvetica,sans-Serif" font-size="10.00">+</text>
<text text-anchor="start" x="17" y="-74" font-family="Helvetica,sans-Serif" font-size="10.00">void set(T flag)</text>
<text text-anchor="start" x="4" y="-59" font-family="Helvetica,sans-Serif" font-size="10.00">+</text>
<text text-anchor="start" x="17" y="-59" font-family="Helvetica,sans-Serif" font-size="10.00">void clear(T flag)</text>
<text text-anchor="start" x="4" y="-44" font-family="Helvetica,sans-Serif" font-size="10.00">+</text>
<text text-anchor="start" x="17" y="-44" font-family="Helvetica,sans-Serif" font-size="10.00">constexpr bool isSet</text>
<text text-anchor="start" x="17" y="-33" font-family="Helvetica,sans-Serif" font-size="10.00">(T flag) const</text>
<text text-anchor="start" x="4" y="-18" font-family="Helvetica,sans-Serif" font-size="10.00">+</text>
<text text-anchor="start" x="17" y="-18" font-family="Helvetica,sans-Serif" font-size="10.00">constexpr uint32_t</text>
<text text-anchor="start" x="17" y="-7" font-family="Helvetica,sans-Serif" font-size="10.00"> raw() const</text>
<polygon fill="#666666" stroke="#666666" points="0,-211 0,-211 142,-211 142,-211 0,-211"/>
<polygon fill="#666666" stroke="#666666" points="0,-196 0,-196 15,-196 15,-196 0,-196"/>
<polygon fill="#666666" stroke="#666666" points="15,-196 15,-196 142,-196 142,-196 15,-196"/>
<polygon fill="none" stroke="#666666" points="0,0 0,-228 142,-228 142,0 0,0"/>
</a>
</g>
</g>
</g>
</svg>
