<?xml version="1.0" encoding="UTF-8" standalone="no"?>
<!DOCTYPE svg PUBLIC "-//W3C//DTD SVG 1.1//EN"
 "http://www.w3.org/Graphics/SVG/1.1/DTD/svg11.dtd">
<!-- Generated by graphviz version 2.43.0 (0)
 -->
<!-- Title: rtos::Task::Task Pages: 1 -->
<svg width="450pt" height="70pt"
 viewBox="0.00 0.00 450.00 69.50" xmlns="http://www.w3.org/2000/svg" xmlns:xlink="http://www.w3.org/1999/xlink">
<g id="graph0" class="graph" transform="scale(1 1) rotate(0) translate(4 65.5)">
<title>rtos::Task::Task</title>
<!-- Node1 -->
<g id="Node000001" class="node">
<title>Node1</title>
<g id="a_Node000001"><a xlink:title=" ">
<polygon fill="#999999" stroke="#666666" points="91,-42.5 0,-42.5 0,-23.5 91,-23.5 91,-42.5"/>
<text text-anchor="middle" x="45.5" y="-30.5" font-family="Helvetica,sans-Serif" font-size="10.00">rtos::Task::Task</text>
</a>
</g>
</g>
<!-- Node2 -->
<g id="Node000002" class="node">
<title>Node2</title>
<g id="a_Node000002"><a xlink:href="classrtos_1_1Task.html#ae68cca6a9b53ef57c67880cce4a60ae0" target="_top" xlink:title=" ">
<polygon fill="white" stroke="#666666" points="276,-61.5 127,-61.5 127,-42.5 276,-42.5 276,-61.5"/>
<text text-anchor="middle" x="201.5" y="-49.5" font-family="Helvetica,sans-Serif" font-size="10.00">rtos::Task::entryTrampoline</text>
</a>
</g>
</g>
<!-- Node1&#45;&gt;Node2 -->
<g id="edge1_Node000001_Node000002" class="edge">
<title>Node1&#45;&gt;Node2</title>
<g id="a_edge1_Node000001_Node000002"><a xlink:title=" ">
<path fill="none" stroke="#63b8ff" d="M91.04,-38.5C99.18,-39.5 107.9,-40.58 116.74,-41.67"/>
<polygon fill="#63b8ff" stroke="#63b8ff" points="116.4,-45.15 126.75,-42.9 117.26,-38.2 116.4,-45.15"/>
</a>
</g>
</g>
<!-- Node3 -->
<g id="Node000003" class="node">
<title>Node3</title>
<g id="a_Node000003"><a xlink:href="classrtos_1_1Task.html#aa207238bc81fd0592bf362edc2a0afca" target="_top" xlink:title=" ">
<polygon fill="white" stroke="#666666" points="253.5,-24.5 149.5,-24.5 149.5,-5.5 253.5,-5.5 253.5,-24.5"/>
<text text-anchor="middle" x="201.5" y="-12.5" font-family="Helvetica,sans-Serif" font-size="10.00">rtos::Task::priority</text>
</a>
</g>
</g>
<!-- Node1&#45;&gt;Node3 -->
<g id="edge2_Node000001_Node000003" class="edge">
<title>Node1&#45;&gt;Node3</title>
<g id="a_edge2_Node000001_Node000003"><a xlink:title=" ">
<path fill="none" stroke="#63b8ff" d="M91.04,-27.79C105.98,-26.05 122.91,-24.07 138.92,-22.2"/>
<polygon fill="#63b8ff" stroke="#63b8ff" points="139.75,-25.62 149.28,-20.99 138.94,-18.67 139.75,-25.62"/>
</a>
</g>
</g>
<!-- Node4 -->
<g id="Node000004" class="node">
<title>Node4</title>
<g id="a_Node000004"><a xlink:href="namespacertos.html#ab639bc0e6fe1767a1615076c0eb588b9" target="_top" xlink:title=" ">
<polygon fill="white" stroke="#666666" points="442,-30 312,-30 312,0 442,0 442,-30"/>
<text text-anchor="start" x="320" y="-18" font-family="Helvetica,sans-Serif" font-size="10.00">rtos::isInterruptContext</text>
<text text-anchor="middle" x="377" y="-7" font-family="Helvetica,sans-Serif" font-size="10.00">Acive</text>
</a>
</g>
</g>
<!-- Node3&#45;&gt;Node4 -->
<g id="edge3_Node000003_Node000004" class="edge">
<title>Node3&#45;&gt;Node4</title>
<g id="a_edge3_Node000003_Node000004"><a xlink:title=" ">
<path fill="none" stroke="#63b8ff" d="M253.62,-15C268.54,-15 285.17,-15 301.23,-15"/>
<polygon fill="#63b8ff" stroke="#63b8ff" points="301.69,-18.5 311.69,-15 301.69,-11.5 301.69,-18.5"/>
</a>
</g>
</g>
</g>
</svg>
