<?xml version="1.0" encoding="UTF-8" standalone="no"?>
<!DOCTYPE svg PUBLIC "-//W3C//DTD SVG 1.1//EN"
 "http://www.w3.org/Graphics/SVG/1.1/DTD/svg11.dtd">
<!-- Generated by graphviz version 2.43.0 (0)
 -->
<!-- Title: MessageHandler::getQueue Pages: 1 -->
<!--zoomable 390 -->

<svg id="main" version="1.1" xmlns="http://www.w3.org/2000/svg" xmlns:xlink="http://www.w3.org/1999/xlink" xml:space="preserve" onload="init(evt)">
<style type="text/css"><![CDATA[
.node, .edge {opacity: 0.7;}
.node.selected, .edge.selected {opacity: 1;}
.edge:hover path { stroke: red; }
.edge:hover polygon { stroke: red; fill: red; }
]]></style>

<defs>
  <circle id="rim" cx="0" cy="0" r="7"/>
  <circle id="rim2" cx="0" cy="0" r="3.5"/>
  <g id="zoomPlus">
    <use xlink:href="#rim" fill="#404040"><set attributeName="fill" to="#808080" begin="zoomplus.mouseover" end="zoomplus.mouseout"/></use>
    <path d="M-4,0h8M0,-4v8" fill="none" stroke="white" stroke-width="1.5" pointer-events="none"/>
  </g>
  <g id="zoomMin">
    <use xlink:href="#rim" fill="#404040"><set attributeName="fill" to="#808080" begin="zoomminus.mouseover" end="zoomminus.mouseout"/></use>
    <path d="M-4,0h8" fill="none" stroke="white" stroke-width="1.5" pointer-events="none"/>
  </g>
  <g id="arrowUp" transform="translate(30 24)">
    <use xlink:href="#rim"/>
    <path pointer-events="none" fill="none" stroke="white" stroke-width="1.5" d="M0,-3.0v7 M-2.5,-0.5L0,-3.0L2.5,-0.5"/>
  </g>
  <g id="arrowRight" transform="rotate(90) translate(36 -43)">
    <use xlink:href="#rim"/>
    <path pointer-events="none" fill="none" stroke="white" stroke-width="1.5" d="M0,-3.0v7 M-2.5,-0.5L0,-3.0L2.5,-0.5"/>
  </g>
  <g id="arrowDown" transform="rotate(180) translate(-30 -48)">
    <use xlink:href="#rim"/>
    <path pointer-events="none" fill="none" stroke="white" stroke-width="1.5" d="M0,-3.0v7 M-2.5,-0.5L0,-3.0L2.5,-0.5"/>
  </g>
  <g id="arrowLeft" transform="rotate(270) translate(-36 17)">
    <use xlink:href="#rim"/>
    <path pointer-events="none" fill="none" stroke="white" stroke-width="1.5" d="M0,-3.0v7 M-2.5,-0.5L0,-3.0L2.5,-0.5"/>
  </g>
  <g id="resetDef">
    <use xlink:href="#rim2" fill="#404040"><set attributeName="fill" to="#808080" begin="reset.mouseover" end="reset.mouseout"/></use>
  </g>
</defs>
<script type="application/ecmascript">
var viewWidth = 856;
var viewHeight = 390;
var sectionId = 'dynsection-1';
</script>
<script type="application/ecmascript" xlink:href="svg.min.js"/>
<svg id="graph" class="graph">
<g id="viewport">
<title>MessageHandler::getQueue</title>
<!-- Node1 -->
<g id="Node000001" class="node">
<title>Node1</title>
<g id="a_Node000001"><a xlink:title="Internal helper to retrieve the appropriate message queue.">
<polygon fill="#999999" stroke="#666666" points="848,-171 696,-171 696,-152 848,-152 848,-171"/>
<text text-anchor="middle" x="772" y="-159" font-family="Helvetica,sans-Serif" font-size="10.00">MessageHandler::getQueue</text>
</a>
</g>
</g>
<!-- Node2 -->
<g id="Node000002" class="node">
<title>Node2</title>
<g id="a_Node000002"><a xlink:href="classMessageHandler.html#a86ae4992eac980513acf1fe723f98238" target="_top" xlink:title="Receives a message from the specified internal queue.">
<polygon fill="white" stroke="#666666" points="660,-112 520,-112 520,-93 660,-93 660,-112"/>
<text text-anchor="middle" x="590" y="-100" font-family="Helvetica,sans-Serif" font-size="10.00">MessageHandler::receive</text>
</a>
</g>
</g>
<!-- Node1&#45;&gt;Node2 -->
<g id="edge1_Node000001_Node000002" class="edge">
<title>Node1&#45;&gt;Node2</title>
<g id="a_edge1_Node000001_Node000002"><a xlink:title=" ">
<path fill="none" stroke="#63b8ff" d="M732.15,-148.77C698.46,-137.72 650.45,-121.99 620.01,-112.01"/>
<polygon fill="#63b8ff" stroke="#63b8ff" points="731.09,-152.1 741.68,-151.89 733.27,-145.45 731.09,-152.1"/>
</a>
</g>
</g>
<!-- Node11 -->
<g id="Node000011" class="node">
<title>Node11</title>
<g id="a_Node000011"><a xlink:href="classMessageHandler.html#a43e563eaac4cb8183d977678d7fdd5aa" target="_top" xlink:title="Sends a message to the specified internal message queue.">
<polygon fill="white" stroke="#666666" points="654,-249 526,-249 526,-230 654,-230 654,-249"/>
<text text-anchor="middle" x="590" y="-237" font-family="Helvetica,sans-Serif" font-size="10.00">MessageHandler::send</text>
</a>
</g>
</g>
<!-- Node1&#45;&gt;Node11 -->
<g id="edge12_Node000001_Node000011" class="edge">
<title>Node1&#45;&gt;Node11</title>
<g id="a_edge12_Node000001_Node000011"><a xlink:title=" ">
<path fill="none" stroke="#63b8ff" d="M739.33,-175.22C703.05,-190.94 644.58,-216.28 612.97,-229.98"/>
<polygon fill="#63b8ff" stroke="#63b8ff" points="741.14,-178.25 748.93,-171.06 738.36,-171.83 741.14,-178.25"/>
</a>
</g>
</g>
<!-- Node3 -->
<g id="Node000003" class="node">
<title>Node3</title>
<g id="a_Node000003"><a xlink:href="classDataParser.html#a456ecb1ff09e80bf9280b628adc47239" target="_top" xlink:title="Runs a continuous task that receives and processes messages from the parser queue.">
<polygon fill="white" stroke="#666666" points="484,-169 335,-169 335,-150 484,-150 484,-169"/>
<text text-anchor="middle" x="409.5" y="-157" font-family="Helvetica,sans-Serif" font-size="10.00">DataParser::dataParserTask</text>
</a>
</g>
</g>
<!-- Node2&#45;&gt;Node3 -->
<g id="edge2_Node000002_Node000003" class="edge">
<title>Node2&#45;&gt;Node3</title>
<g id="a_edge2_Node000002_Node000003"><a xlink:title=" ">
<path fill="none" stroke="#63b8ff" d="M549.37,-115.16C516.46,-125.66 470.37,-140.38 440.47,-149.93"/>
<polygon fill="#63b8ff" stroke="#63b8ff" points="550.66,-118.42 559.12,-112.04 548.53,-111.75 550.66,-118.42"/>
</a>
</g>
</g>
<!-- Node6 -->
<g id="Node000006" class="node">
<title>Node6</title>
<g id="a_Node000006"><a xlink:href="main_8cpp.html#ac672c86fb27ee5d971791cf8570ec137" target="_top" xlink:title=" ">
<polygon fill="white" stroke="#666666" points="277.5,-132 185.5,-132 185.5,-113 277.5,-113 277.5,-132"/>
<text text-anchor="middle" x="231.5" y="-120" font-family="Helvetica,sans-Serif" font-size="10.00">getBleInterface</text>
</a>
</g>
</g>
<!-- Node2&#45;&gt;Node6 -->
<g id="edge5_Node000002_Node000006" class="edge">
<title>Node2&#45;&gt;Node6</title>
<g id="a_edge5_Node000002_Node000006"><a xlink:title=" ">
<path fill="none" stroke="#63b8ff" d="M509.55,-106.96C438.2,-110.96 336,-116.69 277.74,-119.96"/>
<polygon fill="#63b8ff" stroke="#63b8ff" points="510.05,-110.43 519.84,-106.38 509.66,-103.45 510.05,-110.43"/>
</a>
</g>
</g>
<!-- Node7 -->
<g id="Node000007" class="node">
<title>Node7</title>
<g id="a_Node000007"><a xlink:href="classBLE__Client.html#a76b22fa8ec94b8475dfda8e01e36bf64" target="_top" xlink:title="Handles periodic sending tasks using the provided MessageHandler.">
<polygon fill="white" stroke="#666666" points="469,-93 350,-93 350,-74 469,-74 469,-93"/>
<text text-anchor="middle" x="409.5" y="-81" font-family="Helvetica,sans-Serif" font-size="10.00">BLE_Client::sendTask</text>
</a>
</g>
</g>
<!-- Node2&#45;&gt;Node7 -->
<g id="edge7_Node000002_Node000007" class="edge">
<title>Node2&#45;&gt;Node7</title>
<g id="a_edge7_Node000002_Node000007"><a xlink:title=" ">
<path fill="none" stroke="#63b8ff" d="M509.66,-94.05C496.05,-92.61 482.13,-91.12 469.18,-89.75"/>
<polygon fill="#63b8ff" stroke="#63b8ff" points="509.67,-97.58 519.99,-95.15 510.41,-90.62 509.67,-97.58"/>
</a>
</g>
</g>
<!-- Node8 -->
<g id="Node000008" class="node">
<title>Node8</title>
<g id="a_Node000008"><a xlink:href="classBLE__Server.html#abf68e2a971c885eecea8a3f15a5cdd52" target="_top" xlink:title="Task to send data using a message handler.">
<polygon fill="white" stroke="#666666" points="470.5,-19 348.5,-19 348.5,0 470.5,0 470.5,-19"/>
<text text-anchor="middle" x="409.5" y="-7" font-family="Helvetica,sans-Serif" font-size="10.00">BLE_Server::sendTask</text>
</a>
</g>
</g>
<!-- Node2&#45;&gt;Node8 -->
<g id="edge8_Node000002_Node000008" class="edge">
<title>Node2&#45;&gt;Node8</title>
<g id="a_edge8_Node000002_Node000008"><a xlink:title=" ">
<path fill="none" stroke="#63b8ff" d="M570.87,-86.22C550.94,-69.17 517.32,-42.79 484,-27.5 476.72,-24.16 468.73,-21.39 460.79,-19.1"/>
<polygon fill="#63b8ff" stroke="#63b8ff" points="568.69,-88.97 578.53,-92.9 573.29,-83.69 568.69,-88.97"/>
</a>
</g>
</g>
<!-- Node9 -->
<g id="Node000009" class="node">
<title>Node9</title>
<g id="a_Node000009"><a xlink:href="classUart.html#a1e251525523677bf41341371c4a240f6" target="_top" xlink:title="Task function to transmit data from a queue to UART.">
<polygon fill="white" stroke="#666666" points="454,-56 365,-56 365,-37 454,-37 454,-56"/>
<text text-anchor="middle" x="409.5" y="-44" font-family="Helvetica,sans-Serif" font-size="10.00">Uart::sendTask</text>
</a>
</g>
</g>
<!-- Node2&#45;&gt;Node9 -->
<g id="edge9_Node000002_Node000009" class="edge">
<title>Node2&#45;&gt;Node9</title>
<g id="a_edge9_Node000002_Node000009"><a xlink:title=" ">
<path fill="none" stroke="#63b8ff" d="M555.15,-89.21C534.73,-81.45 508.08,-71.78 484,-64.5 473.94,-61.46 462.99,-58.56 452.69,-56.01"/>
<polygon fill="#63b8ff" stroke="#63b8ff" points="554.05,-92.53 564.64,-92.84 556.55,-86 554.05,-92.53"/>
</a>
</g>
</g>
<!-- Node4 -->
<g id="Node000004" class="node">
<title>Node4</title>
<g id="a_Node000004"><a xlink:href="main_8cpp.html#a92ec7e7e48c2ce7af99bb362b83e32a8" target="_top" xlink:title=" ">
<polygon fill="white" stroke="#666666" points="276.5,-169 186.5,-169 186.5,-150 276.5,-150 276.5,-169"/>
<text text-anchor="middle" x="231.5" y="-157" font-family="Helvetica,sans-Serif" font-size="10.00">dataParserTask</text>
</a>
</g>
</g>
<!-- Node3&#45;&gt;Node4 -->
<g id="edge3_Node000003_Node000004" class="edge">
<title>Node3&#45;&gt;Node4</title>
<g id="a_edge3_Node000003_Node000004"><a xlink:title=" ">
<path fill="none" stroke="#63b8ff" d="M324.61,-159.5C308.05,-159.5 291.29,-159.5 276.69,-159.5"/>
<polygon fill="#63b8ff" stroke="#63b8ff" points="324.88,-163 334.88,-159.5 324.88,-156 324.88,-163"/>
</a>
</g>
</g>
<!-- Node5 -->
<g id="Node000005" class="node">
<title>Node5</title>
<g id="a_Node000005"><a xlink:href="main_8cpp.html#a630544a7f0a2cc40d8a7fefab7e2fe70" target="_top" xlink:title=" ">
<polygon fill="white" stroke="#666666" points="96.5,-151 31.5,-151 31.5,-132 96.5,-132 96.5,-151"/>
<text text-anchor="middle" x="64" y="-139" font-family="Helvetica,sans-Serif" font-size="10.00">app_main</text>
</a>
</g>
</g>
<!-- Node4&#45;&gt;Node5 -->
<g id="edge4_Node000004_Node000005" class="edge">
<title>Node4&#45;&gt;Node5</title>
<g id="a_edge4_Node000004_Node000005"><a xlink:title=" ">
<path fill="none" stroke="#63b8ff" d="M175.93,-153.57C149.63,-150.7 119.01,-147.37 96.62,-144.94"/>
<polygon fill="#63b8ff" stroke="#63b8ff" points="175.83,-157.07 186.15,-154.68 176.59,-150.12 175.83,-157.07"/>
</a>
</g>
</g>
<!-- Node6&#45;&gt;Node5 -->
<g id="edge6_Node000006_Node000005" class="edge">
<title>Node6&#45;&gt;Node5</title>
<g id="a_edge6_Node000006_Node000005"><a xlink:title=" ">
<path fill="none" stroke="#63b8ff" d="M175.11,-128.86C148.97,-131.86 118.71,-135.33 96.54,-137.88"/>
<polygon fill="#63b8ff" stroke="#63b8ff" points="175.74,-132.31 185.28,-127.69 174.94,-125.36 175.74,-132.31"/>
</a>
</g>
</g>
<!-- Node10 -->
<g id="Node000010" class="node">
<title>Node10</title>
<g id="a_Node000010"><a xlink:href="main_8cpp.html#a9a1ff8d552650f42d63d78590253bf6d" target="_top" xlink:title=" ">
<polygon fill="white" stroke="#666666" points="272.5,-76 190.5,-76 190.5,-57 272.5,-57 272.5,-76"/>
<text text-anchor="middle" x="231.5" y="-64" font-family="Helvetica,sans-Serif" font-size="10.00">uartSendTask</text>
</a>
</g>
</g>
<!-- Node9&#45;&gt;Node10 -->
<g id="edge10_Node000009_Node000010" class="edge">
<title>Node9&#45;&gt;Node10</title>
<g id="a_edge10_Node000009_Node000010"><a xlink:title=" ">
<path fill="none" stroke="#63b8ff" d="M354.77,-52.61C328.37,-55.61 297.1,-59.16 272.79,-61.92"/>
<polygon fill="#63b8ff" stroke="#63b8ff" points="355.45,-56.05 364.99,-51.44 354.66,-49.1 355.45,-56.05"/>
</a>
</g>
</g>
<!-- Node10&#45;&gt;Node5 -->
<g id="edge11_Node000010_Node000005" class="edge">
<title>Node10&#45;&gt;Node5</title>
<g id="a_edge11_Node000010_Node000005"><a xlink:title=" ">
<path fill="none" stroke="#63b8ff" d="M200.01,-80.32C166.96,-95.29 115.1,-118.8 86.22,-131.89"/>
<polygon fill="#63b8ff" stroke="#63b8ff" points="201.54,-83.47 209.2,-76.15 198.65,-77.09 201.54,-83.47"/>
</a>
</g>
</g>
<!-- Node11&#45;&gt;Node3 -->
<g id="edge15_Node000011_Node000003" class="edge">
<title>Node11&#45;&gt;Node3</title>
<g id="a_edge15_Node000011_Node000003"><a xlink:title=" ">
<path fill="none" stroke="#63b8ff" d="M567.42,-224.19C546.85,-210.24 514.57,-189.95 484,-177.5 475.85,-174.18 466.93,-171.36 458.2,-169.02"/>
<polygon fill="#63b8ff" stroke="#63b8ff" points="565.52,-227.13 575.74,-229.93 569.49,-221.37 565.52,-227.13"/>
</a>
</g>
</g>
<!-- Node12 -->
<g id="Node000012" class="node">
<title>Node12</title>
<g id="a_Node000012"><a xlink:href="classBLE__Client.html#a5d2a0279434b36e78bddad970082bbd1" target="_top" xlink:title="Setup connection to BLE device.">
<polygon fill="white" stroke="#666666" points="126.5,-356 1.5,-356 1.5,-337 126.5,-337 126.5,-356"/>
<text text-anchor="middle" x="64" y="-344" font-family="Helvetica,sans-Serif" font-size="10.00">BLE_Client::connSetup</text>
</a>
</g>
</g>
<!-- Node11&#45;&gt;Node12 -->
<g id="edge13_Node000011_Node000012" class="edge">
<title>Node11&#45;&gt;Node12</title>
<g id="a_edge13_Node000011_Node000012"><a xlink:title=" ">
<path fill="none" stroke="#63b8ff" d="M578.26,-257.93C561.82,-284.07 527.67,-330.81 484,-349.5 352.58,-405.73 176.05,-373.87 101.08,-356.02"/>
<polygon fill="#63b8ff" stroke="#63b8ff" points="581.29,-259.68 583.5,-249.32 575.31,-256.04 581.29,-259.68"/>
</a>
</g>
</g>
<!-- Node13 -->
<g id="Node000013" class="node">
<title>Node13</title>
<g id="a_Node000013"><a xlink:href="classBLE__Server.html#ac7febc9f3fabef14344b8efeb05c5aa4" target="_top" xlink:title="Set up the BLE connection.">
<polygon fill="white" stroke="#666666" points="128,-270 0,-270 0,-251 128,-251 128,-270"/>
<text text-anchor="middle" x="64" y="-258" font-family="Helvetica,sans-Serif" font-size="10.00">BLE_Server::connSetup</text>
</a>
</g>
</g>
<!-- Node11&#45;&gt;Node13 -->
<g id="edge14_Node000011_Node000013" class="edge">
<title>Node11&#45;&gt;Node13</title>
<g id="a_edge14_Node000011_Node000013"><a xlink:title=" ">
<path fill="none" stroke="#63b8ff" d="M545.98,-251.63C527.12,-256.35 504.63,-261.17 484,-263.5 358.4,-277.67 210.28,-271.22 128.07,-265.62"/>
<polygon fill="#63b8ff" stroke="#63b8ff" points="546.94,-255 555.76,-249.11 545.2,-248.22 546.94,-255"/>
</a>
</g>
</g>
<!-- Node14 -->
<g id="Node000014" class="node">
<title>Node14</title>
<g id="a_Node000014"><a xlink:href="classBLE__Client.html#a6d1fee70056dbaeccb08d2ca5b34fad8" target="_top" xlink:title="Handle GATT client events.">
<polygon fill="white" stroke="#666666" points="463,-340.5 356,-340.5 356,-310.5 463,-310.5 463,-340.5"/>
<text text-anchor="start" x="364" y="-328.5" font-family="Helvetica,sans-Serif" font-size="10.00">BLE_Client::handle</text>
<text text-anchor="middle" x="409.5" y="-317.5" font-family="Helvetica,sans-Serif" font-size="10.00">_event_gattc</text>
</a>
</g>
</g>
<!-- Node11&#45;&gt;Node14 -->
<g id="edge16_Node000011_Node000014" class="edge">
<title>Node11&#45;&gt;Node14</title>
<g id="a_edge16_Node000011_Node000014"><a xlink:title=" ">
<path fill="none" stroke="#63b8ff" d="M564.05,-254.16C543.05,-266.23 512.04,-283.42 484,-296.5 473.56,-301.37 462.05,-306.17 451.31,-310.42"/>
<polygon fill="#63b8ff" stroke="#63b8ff" points="566.05,-257.05 572.95,-249.01 562.54,-250.99 566.05,-257.05"/>
</a>
</g>
</g>
<!-- Node16 -->
<g id="Node000016" class="node">
<title>Node16</title>
<g id="a_Node000016"><a xlink:href="classBLE__Server.html#a10fb545066a7d87cffc2bc7dcea2af93" target="_top" xlink:title="Handle GATT server events.">
<polygon fill="white" stroke="#666666" points="464.5,-254.5 354.5,-254.5 354.5,-224.5 464.5,-224.5 464.5,-254.5"/>
<text text-anchor="start" x="362.5" y="-242.5" font-family="Helvetica,sans-Serif" font-size="10.00">BLE_Server::handle</text>
<text text-anchor="middle" x="409.5" y="-231.5" font-family="Helvetica,sans-Serif" font-size="10.00">_event_gatts</text>
</a>
</g>
</g>
<!-- Node11&#45;&gt;Node16 -->
<g id="edge19_Node000011_Node000016" class="edge">
<title>Node11&#45;&gt;Node16</title>
<g id="a_edge19_Node000011_Node000016"><a xlink:title=" ">
<path fill="none" stroke="#63b8ff" d="M515.38,-239.5C498.42,-239.5 480.68,-239.5 464.72,-239.5"/>
<polygon fill="#63b8ff" stroke="#63b8ff" points="515.82,-243 525.82,-239.5 515.82,-236 515.82,-243"/>
</a>
</g>
</g>
<!-- Node18 -->
<g id="Node000018" class="node">
<title>Node18</title>
<g id="a_Node000018"><a xlink:href="classUart.html#a7e4639969ae7afcfddcf7908e0b29e54" target="_top" xlink:title="Task function to read characters from UART and buffer input.">
<polygon fill="white" stroke="#666666" points="460,-206 359,-206 359,-187 460,-187 460,-206"/>
<text text-anchor="middle" x="409.5" y="-194" font-family="Helvetica,sans-Serif" font-size="10.00">Uart::receiveTask</text>
</a>
</g>
</g>
<!-- Node11&#45;&gt;Node18 -->
<g id="edge22_Node000011_Node000018" class="edge">
<title>Node11&#45;&gt;Node18</title>
<g id="a_edge22_Node000011_Node000018"><a xlink:title=" ">
<path fill="none" stroke="#63b8ff" d="M539.32,-227.53C511.13,-220.74 476.33,-212.36 450,-206.02"/>
<polygon fill="#63b8ff" stroke="#63b8ff" points="538.84,-231.02 549.39,-229.96 540.48,-224.21 538.84,-231.02"/>
</a>
</g>
</g>
<!-- Node15 -->
<g id="Node000015" class="node">
<title>Node15</title>
<g id="a_Node000015"><a xlink:href="classBLE__Client.html#af5183e3a5182ee8fc94f8b7e6446f283" target="_top" xlink:title="Static GATT client event handler.">
<polygon fill="white" stroke="#666666" points="297.5,-340.5 165.5,-340.5 165.5,-310.5 297.5,-310.5 297.5,-340.5"/>
<text text-anchor="start" x="173.5" y="-328.5" font-family="Helvetica,sans-Serif" font-size="10.00">BLE_Client::gattc_event</text>
<text text-anchor="middle" x="231.5" y="-317.5" font-family="Helvetica,sans-Serif" font-size="10.00">_handler</text>
</a>
</g>
</g>
<!-- Node14&#45;&gt;Node15 -->
<g id="edge17_Node000014_Node000015" class="edge">
<title>Node14&#45;&gt;Node15</title>
<g id="a_edge17_Node000014_Node000015"><a xlink:title=" ">
<path fill="none" stroke="#63b8ff" d="M345.66,-325.5C330.1,-325.5 313.4,-325.5 297.73,-325.5"/>
<polygon fill="#63b8ff" stroke="#63b8ff" points="345.69,-329 355.69,-325.5 345.69,-322 345.69,-329"/>
</a>
</g>
</g>
<!-- Node15&#45;&gt;Node12 -->
<g id="edge18_Node000015_Node000012" class="edge">
<title>Node15&#45;&gt;Node12</title>
<g id="a_edge18_Node000015_Node000012"><a xlink:title=" ">
<path fill="none" stroke="#63b8ff" d="M154.91,-335.09C145.47,-336.29 135.9,-337.5 126.7,-338.67"/>
<polygon fill="#63b8ff" stroke="#63b8ff" points="155.61,-338.53 165.09,-333.8 154.73,-331.59 155.61,-338.53"/>
</a>
</g>
</g>
<!-- Node17 -->
<g id="Node000017" class="node">
<title>Node17</title>
<g id="a_Node000017"><a xlink:href="classBLE__Server.html#aefba7a76c89cbf2e1a77b6a4803b9480" target="_top" xlink:title="Static handler for GATT server events.">
<polygon fill="white" stroke="#666666" points="299,-254.5 164,-254.5 164,-224.5 299,-224.5 299,-254.5"/>
<text text-anchor="start" x="172" y="-242.5" font-family="Helvetica,sans-Serif" font-size="10.00">BLE_Server::gatts_event</text>
<text text-anchor="middle" x="231.5" y="-231.5" font-family="Helvetica,sans-Serif" font-size="10.00">_handler</text>
</a>
</g>
</g>
<!-- Node16&#45;&gt;Node17 -->
<g id="edge20_Node000016_Node000017" class="edge">
<title>Node16&#45;&gt;Node17</title>
<g id="a_edge20_Node000016_Node000017"><a xlink:title=" ">
<path fill="none" stroke="#63b8ff" d="M343.87,-239.5C329.34,-239.5 313.9,-239.5 299.29,-239.5"/>
<polygon fill="#63b8ff" stroke="#63b8ff" points="344.26,-243 354.26,-239.5 344.26,-236 344.26,-243"/>
</a>
</g>
</g>
<!-- Node17&#45;&gt;Node13 -->
<g id="edge21_Node000017_Node000013" class="edge">
<title>Node17&#45;&gt;Node13</title>
<g id="a_edge21_Node000017_Node000013"><a xlink:title=" ">
<path fill="none" stroke="#63b8ff" d="M153.66,-249.25C145.09,-250.34 136.44,-251.44 128.07,-252.5"/>
<polygon fill="#63b8ff" stroke="#63b8ff" points="154.18,-252.71 163.66,-247.98 153.3,-245.77 154.18,-252.71"/>
</a>
</g>
</g>
<!-- Node18&#45;&gt;Node6 -->
<g id="edge23_Node000018_Node000006" class="edge">
<title>Node18&#45;&gt;Node6</title>
<g id="a_edge23_Node000018_Node000006"><a xlink:title=" ">
<path fill="none" stroke="#63b8ff" d="M349.18,-184.25C344.24,-182.32 339.45,-180.08 335,-177.5 315.16,-165.98 318.78,-152.13 299,-140.5 292.51,-136.68 285.18,-133.65 277.83,-131.25"/>
<polygon fill="#63b8ff" stroke="#63b8ff" points="348.2,-187.62 358.79,-187.62 350.51,-181.01 348.2,-187.62"/>
</a>
</g>
</g>
<!-- Node19 -->
<g id="Node000019" class="node">
<title>Node19</title>
<g id="a_Node000019"><a xlink:href="main_8cpp.html#ad6d6c8ccee27b130f7eb2c9a3c8765a1" target="_top" xlink:title=" ">
<polygon fill="white" stroke="#666666" points="280,-206 183,-206 183,-187 280,-187 280,-206"/>
<text text-anchor="middle" x="231.5" y="-194" font-family="Helvetica,sans-Serif" font-size="10.00">uartReceiveTask</text>
</a>
</g>
</g>
<!-- Node18&#45;&gt;Node19 -->
<g id="edge24_Node000018_Node000019" class="edge">
<title>Node18&#45;&gt;Node19</title>
<g id="a_edge24_Node000018_Node000019"><a xlink:title=" ">
<path fill="none" stroke="#63b8ff" d="M348.5,-196.5C326.2,-196.5 301.22,-196.5 280.16,-196.5"/>
<polygon fill="#63b8ff" stroke="#63b8ff" points="348.54,-200 358.54,-196.5 348.54,-193 348.54,-200"/>
</a>
</g>
</g>
<!-- Node19&#45;&gt;Node5 -->
<g id="edge25_Node000019_Node000005" class="edge">
<title>Node19&#45;&gt;Node5</title>
<g id="a_edge25_Node000019_Node000005"><a xlink:title=" ">
<path fill="none" stroke="#63b8ff" d="M185.48,-184.1C178.27,-181.98 170.91,-179.74 164,-177.5 138.43,-169.21 109.58,-158.57 89.65,-151.01"/>
<polygon fill="#63b8ff" stroke="#63b8ff" points="184.58,-187.49 195.16,-186.9 186.52,-180.76 184.58,-187.49"/>
</a>
</g>
</g>
</g>
</svg>

<g id="navigator" transform="translate(0 0)" fill="#404254">
  <rect fill="#f2f5e9" fill-opacity="0.5" stroke="#606060" stroke-width=".5" x="0" y="0" width="60" height="60"/>
  <use id="zoomplus" xlink:href="#zoomPlus" x="17" y="9" onmousedown="handleZoom(evt,'in')"/>
  <use id="zoomminus" xlink:href="#zoomMin" x="42" y="9" onmousedown="handleZoom(evt,'out')"/>
  <use id="reset" xlink:href="#resetDef" x="30" y="36" onmousedown="handleReset()"/>
   <use id="arrowup" xlink:href="#arrowUp" x="0" y="0" onmousedown="handlePan(0,-1)"/>
  <use id="arrowright" xlink:href="#arrowRight" x="0" y="0" onmousedown="handlePan(1,0)"/>
  <use id="arrowdown" xlink:href="#arrowDown" x="0" y="0" onmousedown="handlePan(0,1)"/>
  <use id="arrowleft" xlink:href="#arrowLeft" x="0" y="0" onmousedown="handlePan(-1,0)"/>
</g>
<svg viewBox="0 0 15 15" width="100%" height="30px" preserveAspectRatio="xMaxYMin meet">
 <g id="arrow_out" transform="scale(0.3 0.3)">
  <a xlink:href="classMessageHandler_afb781c303001059d81235464ae91e0bd_icgraph_org.svg" target="_base">
   <rect id="button" ry="5" rx="5" y="6" x="6" height="38" width="38"
        fill="#f2f5e9" fill-opacity="0.5" stroke="#606060" stroke-width="1.0"/>
   <path id="arrow"
     d="M 11.500037,31.436501 C 11.940474,20.09759 22.043105,11.32322 32.158766,21.979434 L 37.068811,17.246167 C 37.068811,17.246167 37.088388,32 37.088388,32 L 22.160133,31.978069 C 22.160133,31.978069 26.997745,27.140456 26.997745,27.140456 C 18.528582,18.264221 13.291696,25.230495 11.500037,31.436501 z"
     style="fill:#404040;"/>
  </a>
 </g>
</svg>

<style type='text/css'>
<![CDATA[
[data-mouse-over-selected='false'] { opacity: 0.7; }
[data-mouse-over-selected='true']  { opacity: 1.0; }
]]>
</style>
<script type="application/ecmascript"><![CDATA[
document.addEventListener('DOMContentLoaded', (event) => {
  highlightEdges();
  highlightAdjacentNodes();
});
]]></script>
</svg>
