<?xml version="1.0" encoding="UTF-8" standalone="no"?>
<!DOCTYPE svg PUBLIC "-//W3C//DTD SVG 1.1//EN"
 "http://www.w3.org/Graphics/SVG/1.1/DTD/svg11.dtd">
<!-- Generated by graphviz version 2.43.0 (0)
 -->
<!-- Title: BLE_Server::handle_event_gatts Pages: 1 -->
<svg width="470pt" height="76pt"
 viewBox="0.00 0.00 470.00 75.50" xmlns="http://www.w3.org/2000/svg" xmlns:xlink="http://www.w3.org/1999/xlink">
<g id="graph0" class="graph" transform="scale(1 1) rotate(0) translate(4 71.5)">
<title>BLE_Server::handle_event_gatts</title>
<!-- Node1 -->
<g id="Node000001" class="node">
<title>Node1</title>
<g id="a_Node000001"><a xlink:title="Handle GATT server events.">
<polygon fill="#999999" stroke="#666666" points="110,-45.5 0,-45.5 0,-15.5 110,-15.5 110,-45.5"/>
<text text-anchor="start" x="8" y="-33.5" font-family="Helvetica,sans-Serif" font-size="10.00">BLE_Server::handle</text>
<text text-anchor="middle" x="55" y="-22.5" font-family="Helvetica,sans-Serif" font-size="10.00">_event_gatts</text>
</a>
</g>
</g>
<!-- Node2 -->
<g id="Node000002" class="node">
<title>Node2</title>
<g id="a_Node000002"><a xlink:href="classBLE__Server.html#aed37e58d3aea41553b836bed10952aea" target="_top" xlink:title="Get the name of a GATT server event.">
<polygon fill="white" stroke="#666666" points="271.5,-67.5 148.5,-67.5 148.5,-37.5 271.5,-37.5 271.5,-67.5"/>
<text text-anchor="start" x="156.5" y="-55.5" font-family="Helvetica,sans-Serif" font-size="10.00">BLE_Server::get_gatts</text>
<text text-anchor="middle" x="210" y="-44.5" font-family="Helvetica,sans-Serif" font-size="10.00">_event_name</text>
</a>
</g>
</g>
<!-- Node1&#45;&gt;Node2 -->
<g id="edge1_Node000001_Node000002" class="edge">
<title>Node1&#45;&gt;Node2</title>
<g id="a_edge1_Node000001_Node000002"><a xlink:title=" ">
<path fill="none" stroke="#63b8ff" d="M110.37,-38.32C119.39,-39.62 128.86,-40.98 138.22,-42.32"/>
<polygon fill="#63b8ff" stroke="#63b8ff" points="137.9,-45.81 148.3,-43.77 138.9,-38.88 137.9,-45.81"/>
</a>
</g>
</g>
<!-- Node3 -->
<g id="Node000003" class="node">
<title>Node3</title>
<g id="a_Node000003"><a xlink:href="classMessageHandler.html#a43e563eaac4cb8183d977678d7fdd5aa" target="_top" xlink:title="Sends a message to the specified internal message queue.">
<polygon fill="white" stroke="#666666" points="274,-19 146,-19 146,0 274,0 274,-19"/>
<text text-anchor="middle" x="210" y="-7" font-family="Helvetica,sans-Serif" font-size="10.00">MessageHandler::send</text>
</a>
</g>
</g>
<!-- Node1&#45;&gt;Node3 -->
<g id="edge2_Node000001_Node000003" class="edge">
<title>Node1&#45;&gt;Node3</title>
<g id="a_edge2_Node000001_Node000003"><a xlink:title=" ">
<path fill="none" stroke="#63b8ff" d="M110.37,-23.04C118.65,-21.9 127.3,-20.71 135.89,-19.53"/>
<polygon fill="#63b8ff" stroke="#63b8ff" points="136.49,-22.98 145.92,-18.16 135.54,-16.05 136.49,-22.98"/>
</a>
</g>
</g>
<!-- Node4 -->
<g id="Node000004" class="node">
<title>Node4</title>
<g id="a_Node000004"><a xlink:href="classMessageHandler.html#afb781c303001059d81235464ae91e0bd" target="_top" xlink:title="Internal helper to retrieve the appropriate message queue.">
<polygon fill="white" stroke="#666666" points="462,-19 310,-19 310,0 462,0 462,-19"/>
<text text-anchor="middle" x="386" y="-7" font-family="Helvetica,sans-Serif" font-size="10.00">MessageHandler::getQueue</text>
</a>
</g>
</g>
<!-- Node3&#45;&gt;Node4 -->
<g id="edge3_Node000003_Node000004" class="edge">
<title>Node3&#45;&gt;Node4</title>
<g id="a_edge3_Node000003_Node000004"><a xlink:title=" ">
<path fill="none" stroke="#63b8ff" d="M274.31,-9.5C282.62,-9.5 291.24,-9.5 299.84,-9.5"/>
<polygon fill="#63b8ff" stroke="#63b8ff" points="299.91,-13 309.91,-9.5 299.91,-6 299.91,-13"/>
</a>
</g>
</g>
</g>
</svg>
