<?xml version="1.0" encoding="UTF-8" standalone="no"?>
<!DOCTYPE svg PUBLIC "-//W3C//DTD SVG 1.1//EN"
 "http://www.w3.org/Graphics/SVG/1.1/DTD/svg11.dtd">
<!-- Generated by graphviz version 2.43.0 (0)
 -->
<!-- Title: rtos::IItemSender&lt; T &gt; Pages: 1 -->
<svg width="183pt" height="450pt"
 viewBox="0.00 0.00 183.00 450.00" xmlns="http://www.w3.org/2000/svg" xmlns:xlink="http://www.w3.org/1999/xlink">
<g id="graph0" class="graph" transform="scale(1 1) rotate(0) translate(4 446)">
<title>rtos::IItemSender&lt; T &gt;</title>
<!-- Node1 -->
<g id="Node000001" class="node">
<title>Node1</title>
<g id="a_Node000001"><a xlink:title=" ">
<polygon fill="#999999" stroke="transparent" points="154,-442 21,-442 21,-304 154,-304 154,-442"/>
<text text-anchor="start" x="31.5" y="-430" font-family="Helvetica,sans-Serif" font-size="10.00">rtos::IItemSender&lt; T &gt;</text>
<text text-anchor="start" x="86" y="-415" font-family="Helvetica,sans-Serif" font-size="10.00"> </text>
<text text-anchor="start" x="25.5" y="-400" font-family="Helvetica,sans-Serif" font-size="10.00">+</text>
<text text-anchor="start" x="38.5" y="-400" font-family="Helvetica,sans-Serif" font-size="10.00">virtual ~IItemSender</text>
<text text-anchor="start" x="38.5" y="-389" font-family="Helvetica,sans-Serif" font-size="10.00">()=default</text>
<text text-anchor="start" x="25.5" y="-374" font-family="Helvetica,sans-Serif" font-size="10.00">+</text>
<text text-anchor="start" x="38.5" y="-374" font-family="Helvetica,sans-Serif" font-size="10.00">virtual bool send(const</text>
<text text-anchor="start" x="38.5" y="-363" font-family="Helvetica,sans-Serif" font-size="10.00"> T &amp;item)=0</text>
<text text-anchor="start" x="25.5" y="-348" font-family="Helvetica,sans-Serif" font-size="10.00">+</text>
<text text-anchor="start" x="38.5" y="-348" font-family="Helvetica,sans-Serif" font-size="10.00">virtual bool trySend</text>
<text text-anchor="start" x="38.5" y="-337" font-family="Helvetica,sans-Serif" font-size="10.00">(const T &amp;item, uint32</text>
<text text-anchor="start" x="38.5" y="-326" font-family="Helvetica,sans-Serif" font-size="10.00">_t timeoutMs=0U)=0</text>
<text text-anchor="start" x="25.5" y="-311" font-family="Helvetica,sans-Serif" font-size="10.00">#</text>
<text text-anchor="start" x="38.5" y="-311" font-family="Helvetica,sans-Serif" font-size="10.00">IItemSender()=default</text>
<polygon fill="#666666" stroke="#666666" points="21.5,-425 21.5,-425 154.5,-425 154.5,-425 21.5,-425"/>
<polygon fill="#666666" stroke="#666666" points="21.5,-410 21.5,-410 154.5,-410 154.5,-410 21.5,-410"/>
<polygon fill="none" stroke="#666666" points="21,-304 21,-442 154,-442 154,-304 21,-304"/>
</a>
</g>
</g>
<!-- Node2 -->
<g id="Node000002" class="node">
<title>Node2</title>
<g id="a_Node000002"><a xlink:href="classrtos_1_1MessageQueue.html" target="_top" xlink:title=" ">
<polygon fill="white" stroke="transparent" points="175,-268 0,-268 0,0 175,0 175,-268"/>
<text text-anchor="start" x="23.5" y="-256" font-family="Helvetica,sans-Serif" font-size="10.00">rtos::MessageQueue&lt; T &gt;</text>
<text text-anchor="start" x="7" y="-241" font-family="Helvetica,sans-Serif" font-size="10.00">&#45;</text>
<text text-anchor="start" x="17.5" y="-241" font-family="Helvetica,sans-Serif" font-size="10.00">QueueHandle_t _handle</text>
<text text-anchor="start" x="4.5" y="-226" font-family="Helvetica,sans-Serif" font-size="10.00">+</text>
<text text-anchor="start" x="17.5" y="-226" font-family="Helvetica,sans-Serif" font-size="10.00">MessageQueue(size</text>
<text text-anchor="start" x="17.5" y="-215" font-family="Helvetica,sans-Serif" font-size="10.00">_t length)</text>
<text text-anchor="start" x="4.5" y="-200" font-family="Helvetica,sans-Serif" font-size="10.00">+</text>
<text text-anchor="start" x="17.5" y="-200" font-family="Helvetica,sans-Serif" font-size="10.00">~MessageQueue() override</text>
<text text-anchor="start" x="4.5" y="-185" font-family="Helvetica,sans-Serif" font-size="10.00">+</text>
<text text-anchor="start" x="17.5" y="-185" font-family="Helvetica,sans-Serif" font-size="10.00">MessageQueue(const</text>
<text text-anchor="start" x="17.5" y="-174" font-family="Helvetica,sans-Serif" font-size="10.00"> MessageQueue &amp;)=delete</text>
<text text-anchor="start" x="4.5" y="-159" font-family="Helvetica,sans-Serif" font-size="10.00">+</text>
<text text-anchor="start" x="17.5" y="-159" font-family="Helvetica,sans-Serif" font-size="10.00">MessageQueue(MessageQueue</text>
<text text-anchor="start" x="17.5" y="-148" font-family="Helvetica,sans-Serif" font-size="10.00"> &amp;&amp;)=delete</text>
<text text-anchor="start" x="4.5" y="-133" font-family="Helvetica,sans-Serif" font-size="10.00">+</text>
<text text-anchor="start" x="17.5" y="-133" font-family="Helvetica,sans-Serif" font-size="10.00">bool send(const T &amp;item)</text>
<text text-anchor="start" x="17.5" y="-122" font-family="Helvetica,sans-Serif" font-size="10.00"> override</text>
<text text-anchor="start" x="4.5" y="-107" font-family="Helvetica,sans-Serif" font-size="10.00">+</text>
<text text-anchor="start" x="17.5" y="-107" font-family="Helvetica,sans-Serif" font-size="10.00">bool trySend(const</text>
<text text-anchor="start" x="17.5" y="-96" font-family="Helvetica,sans-Serif" font-size="10.00"> T &amp;item, uint32_t timeout</text>
<text text-anchor="start" x="17.5" y="-85" font-family="Helvetica,sans-Serif" font-size="10.00">Ms=0U) override</text>
<text text-anchor="start" x="4.5" y="-70" font-family="Helvetica,sans-Serif" font-size="10.00">+</text>
<text text-anchor="start" x="17.5" y="-70" font-family="Helvetica,sans-Serif" font-size="10.00">bool receive(T &amp;item)</text>
<text text-anchor="start" x="17.5" y="-59" font-family="Helvetica,sans-Serif" font-size="10.00"> override</text>
<text text-anchor="start" x="4.5" y="-44" font-family="Helvetica,sans-Serif" font-size="10.00">+</text>
<text text-anchor="start" x="17.5" y="-44" font-family="Helvetica,sans-Serif" font-size="10.00">bool tryReceive(T &amp;item,</text>
<text text-anchor="start" x="17.5" y="-33" font-family="Helvetica,sans-Serif" font-size="10.00"> uint32_t timeoutMs=0U)</text>
<text text-anchor="start" x="17.5" y="-22" font-family="Helvetica,sans-Serif" font-size="10.00"> override</text>
<text text-anchor="start" x="4.5" y="-7" font-family="Helvetica,sans-Serif" font-size="10.00">+</text>
<text text-anchor="start" x="17.5" y="-7" font-family="Helvetica,sans-Serif" font-size="10.00">QueueHandle_t handle()</text>
<polygon fill="#666666" stroke="#666666" points="0.5,-251 0.5,-251 175.5,-251 175.5,-251 0.5,-251"/>
<polygon fill="#666666" stroke="#666666" points="0.5,-236 0.5,-236 15.5,-236 15.5,-236 0.5,-236"/>
<polygon fill="#666666" stroke="#666666" points="15.5,-236 15.5,-236 175.5,-236 175.5,-236 15.5,-236"/>
<polygon fill="none" stroke="#666666" points="0,0 0,-268 175,-268 175,0 0,0"/>
</a>
</g>
</g>
<!-- Node1&#45;&gt;Node2 -->
<g id="edge1_Node000001_Node000002" class="edge">
<title>Node1&#45;&gt;Node2</title>
<g id="a_edge1_Node000001_Node000002"><a xlink:title=" ">
<path fill="none" stroke="#63b8ff" d="M87.5,-293.6C87.5,-285.44 87.5,-276.99 87.5,-268.44"/>
<polygon fill="none" stroke="#63b8ff" points="84,-293.77 87.5,-303.77 91,-293.77 84,-293.77"/>
</a>
</g>
</g>
</g>
</svg>
