<?xml version="1.0" encoding="UTF-8" standalone="no"?>
<!DOCTYPE svg PUBLIC "-//W3C//DTD SVG 1.1//EN"
 "http://www.w3.org/Graphics/SVG/1.1/DTD/svg11.dtd">
<!-- Generated by graphviz version 2.43.0 (0)
 -->
<!-- Title: DataParser Pages: 1 -->
<svg width="197pt" height="487pt"
 viewBox="0.00 0.00 197.00 487.00" xmlns="http://www.w3.org/2000/svg" xmlns:xlink="http://www.w3.org/1999/xlink">
<g id="graph0" class="graph" transform="scale(1 1) rotate(0) translate(4 483)">
<title>DataParser</title>
<!-- Node1 -->
<g id="Node000001" class="node">
<title>Node1</title>
<g id="a_Node000001"><a xlink:title=" ">
<polygon fill="#999999" stroke="transparent" points="178,-175 0,-175 0,0 178,0 178,-175"/>
<text text-anchor="start" x="62" y="-162.5" font-family="Helvetica,sans-Serif" font-size="10.00">DataParser</text>
<text text-anchor="start" x="87" y="-147.5" font-family="Helvetica,sans-Serif" font-size="10.00"> </text>
<text text-anchor="start" x="4" y="-132.5" font-family="Helvetica,sans-Serif" font-size="10.00">+</text>
<text text-anchor="start" x="17" y="-132.5" font-family="Helvetica,sans-Serif" font-size="10.00">DataParser(CommandHandler</text>
<text text-anchor="start" x="17" y="-121.5" font-family="Helvetica,sans-Serif" font-size="10.00"> &amp;commandHandler)</text>
<text text-anchor="start" x="4" y="-106.5" font-family="Helvetica,sans-Serif" font-size="10.00">+</text>
<text text-anchor="start" x="17" y="-106.5" font-family="Helvetica,sans-Serif" font-size="10.00">~DataParser()=default</text>
<text text-anchor="start" x="4" y="-91.5" font-family="Helvetica,sans-Serif" font-size="10.00">+</text>
<text text-anchor="start" x="17" y="-91.5" font-family="Helvetica,sans-Serif" font-size="10.00">CommandHandler::Command</text>
<text text-anchor="start" x="17" y="-80.5" font-family="Helvetica,sans-Serif" font-size="10.00"> parse(std::string &amp;data)</text>
<text text-anchor="start" x="17" y="-69.5" font-family="Helvetica,sans-Serif" font-size="10.00"> const</text>
<text text-anchor="start" x="4" y="-54.5" font-family="Helvetica,sans-Serif" font-size="10.00">+</text>
<text text-anchor="start" x="17" y="-54.5" font-family="Helvetica,sans-Serif" font-size="10.00">bool executeCommand</text>
<text text-anchor="start" x="17" y="-43.5" font-family="Helvetica,sans-Serif" font-size="10.00">(CommandHandler::Command</text>
<text text-anchor="start" x="17" y="-32.5" font-family="Helvetica,sans-Serif" font-size="10.00"> command, std::string &amp;data)</text>
<text text-anchor="start" x="4" y="-17.5" font-family="Helvetica,sans-Serif" font-size="10.00">+</text>
<text text-anchor="start" x="17" y="-17.5" font-family="Helvetica,sans-Serif" font-size="10.00">void dataParserTask</text>
<text text-anchor="start" x="17" y="-6.5" font-family="Helvetica,sans-Serif" font-size="10.00">(MessageHandler *msgHandler)</text>
<polygon fill="#666666" stroke="#666666" points="0,-157.5 0,-157.5 178,-157.5 178,-157.5 0,-157.5"/>
<polygon fill="#666666" stroke="#666666" points="0,-142.5 0,-142.5 178,-142.5 178,-142.5 0,-142.5"/>
<polygon fill="none" stroke="#666666" points="0,0 0,-175 178,-175 178,0 0,0"/>
</a>
</g>
</g>
<!-- Node2 -->
<g id="Node000002" class="node">
<title>Node2</title>
<g id="a_Node000002"><a xlink:href="classCommandHandler.html" target="_top" xlink:title=" ">
<polygon fill="white" stroke="transparent" points="169.5,-479 8.5,-479 8.5,-222 169.5,-222 169.5,-479"/>
<text text-anchor="start" x="45" y="-466.5" font-family="Helvetica,sans-Serif" font-size="10.00">CommandHandler</text>
<text text-anchor="start" x="87.5" y="-451.5" font-family="Helvetica,sans-Serif" font-size="10.00"> </text>
<text text-anchor="start" x="13" y="-436.5" font-family="Helvetica,sans-Serif" font-size="10.00">+</text>
<text text-anchor="start" x="26" y="-436.5" font-family="Helvetica,sans-Serif" font-size="10.00">CommandHandler()=default</text>
<text text-anchor="start" x="13" y="-421.5" font-family="Helvetica,sans-Serif" font-size="10.00">+</text>
<text text-anchor="start" x="26" y="-421.5" font-family="Helvetica,sans-Serif" font-size="10.00">~CommandHandler()</text>
<text text-anchor="start" x="26" y="-410.5" font-family="Helvetica,sans-Serif" font-size="10.00">=default</text>
<text text-anchor="start" x="13" y="-395.5" font-family="Helvetica,sans-Serif" font-size="10.00">+</text>
<text text-anchor="start" x="26" y="-395.5" font-family="Helvetica,sans-Serif" font-size="10.00">std::string processCommand</text>
<text text-anchor="start" x="26" y="-384.5" font-family="Helvetica,sans-Serif" font-size="10.00">(Command command)</text>
<text text-anchor="start" x="15.5" y="-369.5" font-family="Helvetica,sans-Serif" font-size="10.00">&#45;</text>
<text text-anchor="start" x="26" y="-369.5" font-family="Helvetica,sans-Serif" font-size="10.00">std::string getChipInfo</text>
<text text-anchor="start" x="26" y="-358.5" font-family="Helvetica,sans-Serif" font-size="10.00">() const</text>
<text text-anchor="start" x="15.5" y="-343.5" font-family="Helvetica,sans-Serif" font-size="10.00">&#45;</text>
<text text-anchor="start" x="26" y="-343.5" font-family="Helvetica,sans-Serif" font-size="10.00">std::string getIdfVersion</text>
<text text-anchor="start" x="26" y="-332.5" font-family="Helvetica,sans-Serif" font-size="10.00">() const</text>
<text text-anchor="start" x="15.5" y="-317.5" font-family="Helvetica,sans-Serif" font-size="10.00">&#45;</text>
<text text-anchor="start" x="26" y="-317.5" font-family="Helvetica,sans-Serif" font-size="10.00">std::string getFreeHeap</text>
<text text-anchor="start" x="26" y="-306.5" font-family="Helvetica,sans-Serif" font-size="10.00">() const</text>
<text text-anchor="start" x="15.5" y="-291.5" font-family="Helvetica,sans-Serif" font-size="10.00">&#45;</text>
<text text-anchor="start" x="26" y="-291.5" font-family="Helvetica,sans-Serif" font-size="10.00">std::string getFreeInternal</text>
<text text-anchor="start" x="26" y="-280.5" font-family="Helvetica,sans-Serif" font-size="10.00">Heap() const</text>
<text text-anchor="start" x="15.5" y="-265.5" font-family="Helvetica,sans-Serif" font-size="10.00">&#45;</text>
<text text-anchor="start" x="26" y="-265.5" font-family="Helvetica,sans-Serif" font-size="10.00">std::string getFreeMinHeap</text>
<text text-anchor="start" x="26" y="-254.5" font-family="Helvetica,sans-Serif" font-size="10.00">() const</text>
<text text-anchor="start" x="15.5" y="-239.5" font-family="Helvetica,sans-Serif" font-size="10.00">&#45;</text>
<text text-anchor="start" x="26" y="-239.5" font-family="Helvetica,sans-Serif" font-size="10.00">std::string getClockSpeed</text>
<text text-anchor="start" x="26" y="-228.5" font-family="Helvetica,sans-Serif" font-size="10.00">() const</text>
<polygon fill="#666666" stroke="#666666" points="9,-461.5 9,-461.5 170,-461.5 170,-461.5 9,-461.5"/>
<polygon fill="#666666" stroke="#666666" points="9,-446.5 9,-446.5 170,-446.5 170,-446.5 9,-446.5"/>
<polygon fill="none" stroke="#666666" points="8.5,-222 8.5,-479 169.5,-479 169.5,-222 8.5,-222"/>
</a>
</g>
</g>
<!-- Node2&#45;&gt;Node1 -->
<g id="edge1_Node000001_Node000002" class="edge">
<title>Node2&#45;&gt;Node1</title>
<g id="a_edge1_Node000001_Node000002"><a xlink:title=" ">
<path fill="none" stroke="#63b8ff" d="M89,-221.68C89,-210.1 89,-198.5 89,-187.24"/>
<polygon fill="none" stroke="#63b8ff" points="89,-187.17 85,-181.17 89,-175.17 93,-181.17 89,-187.17"/>
</a>
</g>
<text text-anchor="middle" x="139" y="-196" font-family="Helvetica,sans-Serif" font-size="10.00" fill="grey"> &#45;_commandHandler</text>
</g>
</g>
</svg>
