<?xml version="1.0" encoding="UTF-8" standalone="no"?>
<!DOCTYPE svg PUBLIC "-//W3C//DTD SVG 1.1//EN"
 "http://www.w3.org/Graphics/SVG/1.1/DTD/svg11.dtd">
<!-- Generated by graphviz version 2.43.0 (0)
 -->
<!-- Title: BLE_Client::gattc_event_handler Pages: 1 -->
<svg width="635pt" height="76pt"
 viewBox="0.00 0.00 635.00 75.50" xmlns="http://www.w3.org/2000/svg" xmlns:xlink="http://www.w3.org/1999/xlink">
<g id="graph0" class="graph" transform="scale(1 1) rotate(0) translate(4 71.5)">
<title>BLE_Client::gattc_event_handler</title>
<!-- Node1 -->
<g id="Node000001" class="node">
<title>Node1</title>
<g id="a_Node000001"><a xlink:title="Static GATT client event handler.">
<polygon fill="#999999" stroke="#666666" points="132,-45.5 0,-45.5 0,-15.5 132,-15.5 132,-45.5"/>
<text text-anchor="start" x="8" y="-33.5" font-family="Helvetica,sans-Serif" font-size="10.00">BLE_Client::gattc_event</text>
<text text-anchor="middle" x="66" y="-22.5" font-family="Helvetica,sans-Serif" font-size="10.00">_handler</text>
</a>
</g>
</g>
<!-- Node2 -->
<g id="Node000002" class="node">
<title>Node2</title>
<g id="a_Node000002"><a xlink:href="classBLE__Client.html#a6d1fee70056dbaeccb08d2ca5b34fad8" target="_top" xlink:title="Handle GATT client events.">
<polygon fill="white" stroke="#666666" points="275,-45.5 168,-45.5 168,-15.5 275,-15.5 275,-45.5"/>
<text text-anchor="start" x="176" y="-33.5" font-family="Helvetica,sans-Serif" font-size="10.00">BLE_Client::handle</text>
<text text-anchor="middle" x="221.5" y="-22.5" font-family="Helvetica,sans-Serif" font-size="10.00">_event_gattc</text>
</a>
</g>
</g>
<!-- Node1&#45;&gt;Node2 -->
<g id="edge1_Node000001_Node000002" class="edge">
<title>Node1&#45;&gt;Node2</title>
<g id="a_edge1_Node000001_Node000002"><a xlink:title=" ">
<path fill="none" stroke="#63b8ff" d="M132.1,-30.5C140.58,-30.5 149.26,-30.5 157.7,-30.5"/>
<polygon fill="#63b8ff" stroke="#63b8ff" points="157.85,-34 167.85,-30.5 157.85,-27 157.85,-34"/>
</a>
</g>
</g>
<!-- Node3 -->
<g id="Node000003" class="node">
<title>Node3</title>
<g id="a_Node000003"><a xlink:href="classBLE__Client.html#a99be33718c424a104d0dcf279b72d517" target="_top" xlink:title="Utility function to get a readable GATT client event name.">
<polygon fill="white" stroke="#666666" points="435,-67.5 315,-67.5 315,-37.5 435,-37.5 435,-67.5"/>
<text text-anchor="start" x="323" y="-55.5" font-family="Helvetica,sans-Serif" font-size="10.00">BLE_Client::get_gattc</text>
<text text-anchor="middle" x="375" y="-44.5" font-family="Helvetica,sans-Serif" font-size="10.00">_event_name</text>
</a>
</g>
</g>
<!-- Node2&#45;&gt;Node3 -->
<g id="edge2_Node000002_Node000003" class="edge">
<title>Node2&#45;&gt;Node3</title>
<g id="a_edge2_Node000002_Node000003"><a xlink:title=" ">
<path fill="none" stroke="#63b8ff" d="M275.06,-38.13C284.68,-39.53 294.84,-41.01 304.85,-42.46"/>
<polygon fill="#63b8ff" stroke="#63b8ff" points="304.39,-45.93 314.79,-43.9 305.39,-39 304.39,-45.93"/>
</a>
</g>
</g>
<!-- Node4 -->
<g id="Node000004" class="node">
<title>Node4</title>
<g id="a_Node000004"><a xlink:href="classMessageHandler.html#a43e563eaac4cb8183d977678d7fdd5aa" target="_top" xlink:title="Sends a message to the specified internal message queue.">
<polygon fill="white" stroke="#666666" points="439,-19 311,-19 311,0 439,0 439,-19"/>
<text text-anchor="middle" x="375" y="-7" font-family="Helvetica,sans-Serif" font-size="10.00">MessageHandler::send</text>
</a>
</g>
</g>
<!-- Node2&#45;&gt;Node4 -->
<g id="edge3_Node000002_Node000004" class="edge">
<title>Node2&#45;&gt;Node4</title>
<g id="a_edge3_Node000002_Node000004"><a xlink:title=" ">
<path fill="none" stroke="#63b8ff" d="M275.06,-23.21C283.35,-22.06 292.06,-20.86 300.72,-19.66"/>
<polygon fill="#63b8ff" stroke="#63b8ff" points="301.41,-23.1 310.84,-18.26 300.45,-16.16 301.41,-23.1"/>
</a>
</g>
</g>
<!-- Node5 -->
<g id="Node000005" class="node">
<title>Node5</title>
<g id="a_Node000005"><a xlink:href="classMessageHandler.html#afb781c303001059d81235464ae91e0bd" target="_top" xlink:title="Internal helper to retrieve the appropriate message queue.">
<polygon fill="white" stroke="#666666" points="627,-19 475,-19 475,0 627,0 627,-19"/>
<text text-anchor="middle" x="551" y="-7" font-family="Helvetica,sans-Serif" font-size="10.00">MessageHandler::getQueue</text>
</a>
</g>
</g>
<!-- Node4&#45;&gt;Node5 -->
<g id="edge4_Node000004_Node000005" class="edge">
<title>Node4&#45;&gt;Node5</title>
<g id="a_edge4_Node000004_Node000005"><a xlink:title=" ">
<path fill="none" stroke="#63b8ff" d="M439.31,-9.5C447.62,-9.5 456.24,-9.5 464.84,-9.5"/>
<polygon fill="#63b8ff" stroke="#63b8ff" points="464.91,-13 474.91,-9.5 464.91,-6 464.91,-13"/>
</a>
</g>
</g>
</g>
</svg>
