<?xml version="1.0" encoding="UTF-8" standalone="no"?>
<!DOCTYPE svg PUBLIC "-//W3C//DTD SVG 1.1//EN"
 "http://www.w3.org/Graphics/SVG/1.1/DTD/svg11.dtd">
<!-- Generated by graphviz version 2.43.0 (0)
 -->
<!-- Title: DataParser::dataParserTask Pages: 1 -->
<svg width="839pt" height="243pt"
 viewBox="0.00 0.00 839.00 243.00" xmlns="http://www.w3.org/2000/svg" xmlns:xlink="http://www.w3.org/1999/xlink">
<g id="graph0" class="graph" transform="scale(1 1) rotate(0) translate(4 239)">
<title>DataParser::dataParserTask</title>
<!-- Node1 -->
<g id="Node000001" class="node">
<title>Node1</title>
<g id="a_Node000001"><a xlink:title="Runs a continuous task that receives and processes messages from the parser queue.">
<polygon fill="#999999" stroke="#666666" points="149,-74 0,-74 0,-55 149,-55 149,-74"/>
<text text-anchor="middle" x="74.5" y="-62" font-family="Helvetica,sans-Serif" font-size="10.00">DataParser::dataParserTask</text>
</a>
</g>
</g>
<!-- Node2 -->
<g id="Node000002" class="node">
<title>Node2</title>
<g id="a_Node000002"><a xlink:href="classDataParser.html#ace3045f2c668ba902bad75ab3b30b7ac" target="_top" xlink:title="Executes the given command and stores the result in the output string.">
<polygon fill="white" stroke="#666666" points="349,-130 185,-130 185,-111 349,-111 349,-130"/>
<text text-anchor="middle" x="267" y="-118" font-family="Helvetica,sans-Serif" font-size="10.00">DataParser::executeCommand</text>
</a>
</g>
</g>
<!-- Node1&#45;&gt;Node2 -->
<g id="edge1_Node000001_Node000002" class="edge">
<title>Node1&#45;&gt;Node2</title>
<g id="a_edge1_Node000001_Node000002"><a xlink:title=" ">
<path fill="none" stroke="#63b8ff" d="M100.46,-74.09C122.49,-82.32 155.57,-94.15 185,-102.5 192.69,-104.68 200.84,-106.76 208.9,-108.68"/>
<polygon fill="#63b8ff" stroke="#63b8ff" points="208.12,-112.09 218.66,-110.94 209.7,-105.27 208.12,-112.09"/>
</a>
</g>
</g>
<!-- Node10 -->
<g id="Node000010" class="node">
<title>Node10</title>
<g id="a_Node000010"><a xlink:href="classDataParser.html#a79e5245aac486b566b17e521645d5894" target="_top" xlink:title="Parses the input data string to detect and classify command keywords.">
<polygon fill="white" stroke="#666666" points="318.5,-93 215.5,-93 215.5,-74 318.5,-74 318.5,-93"/>
<text text-anchor="middle" x="267" y="-81" font-family="Helvetica,sans-Serif" font-size="10.00">DataParser::parse</text>
</a>
</g>
</g>
<!-- Node1&#45;&gt;Node10 -->
<g id="edge9_Node000001_Node000010" class="edge">
<title>Node1&#45;&gt;Node10</title>
<g id="a_edge9_Node000001_Node000010"><a xlink:title=" ">
<path fill="none" stroke="#63b8ff" d="M149.15,-71.85C167.62,-73.69 187.23,-75.64 205.01,-77.42"/>
<polygon fill="#63b8ff" stroke="#63b8ff" points="204.94,-80.93 215.24,-78.44 205.63,-73.96 204.94,-80.93"/>
</a>
</g>
</g>
<!-- Node11 -->
<g id="Node000011" class="node">
<title>Node11</title>
<g id="a_Node000011"><a xlink:href="classMessageHandler.html#a86ae4992eac980513acf1fe723f98238" target="_top" xlink:title="Receives a message from the specified internal queue.">
<polygon fill="white" stroke="#666666" points="337,-56 197,-56 197,-37 337,-37 337,-56"/>
<text text-anchor="middle" x="267" y="-44" font-family="Helvetica,sans-Serif" font-size="10.00">MessageHandler::receive</text>
</a>
</g>
</g>
<!-- Node1&#45;&gt;Node11 -->
<g id="edge10_Node000001_Node000011" class="edge">
<title>Node1&#45;&gt;Node11</title>
<g id="a_edge10_Node000001_Node000011"><a xlink:title=" ">
<path fill="none" stroke="#63b8ff" d="M149.15,-57.54C161.42,-56.38 174.2,-55.17 186.6,-54"/>
<polygon fill="#63b8ff" stroke="#63b8ff" points="187.29,-57.45 196.92,-53.03 186.63,-50.48 187.29,-57.45"/>
</a>
</g>
</g>
<!-- Node13 -->
<g id="Node000013" class="node">
<title>Node13</title>
<g id="a_Node000013"><a xlink:href="classMessageHandler.html#a43e563eaac4cb8183d977678d7fdd5aa" target="_top" xlink:title="Sends a message to the specified internal message queue.">
<polygon fill="white" stroke="#666666" points="331,-19 203,-19 203,0 331,0 331,-19"/>
<text text-anchor="middle" x="267" y="-7" font-family="Helvetica,sans-Serif" font-size="10.00">MessageHandler::send</text>
</a>
</g>
</g>
<!-- Node1&#45;&gt;Node13 -->
<g id="edge12_Node000001_Node000013" class="edge">
<title>Node1&#45;&gt;Node13</title>
<g id="a_edge12_Node000001_Node000013"><a xlink:title=" ">
<path fill="none" stroke="#63b8ff" d="M102.3,-54.96C124.34,-47.29 156.49,-36.51 185,-28.5 193.78,-26.03 203.16,-23.62 212.31,-21.4"/>
<polygon fill="#63b8ff" stroke="#63b8ff" points="213.19,-24.79 222.1,-19.06 211.56,-17.98 213.19,-24.79"/>
</a>
</g>
</g>
<!-- Node3 -->
<g id="Node000003" class="node">
<title>Node3</title>
<g id="a_Node000003"><a xlink:href="classCommandHandler.html#a665ecc3d0185cf173d567e00331c0200" target="_top" xlink:title="Processes a command.">
<polygon fill="white" stroke="#666666" points="584,-130 385,-130 385,-111 584,-111 584,-130"/>
<text text-anchor="middle" x="484.5" y="-118" font-family="Helvetica,sans-Serif" font-size="10.00">CommandHandler::processCommand</text>
</a>
</g>
</g>
<!-- Node2&#45;&gt;Node3 -->
<g id="edge2_Node000002_Node000003" class="edge">
<title>Node2&#45;&gt;Node3</title>
<g id="a_edge2_Node000002_Node000003"><a xlink:title=" ">
<path fill="none" stroke="#63b8ff" d="M349.16,-120.5C357.57,-120.5 366.2,-120.5 374.84,-120.5"/>
<polygon fill="#63b8ff" stroke="#63b8ff" points="374.98,-124 384.98,-120.5 374.98,-117 374.98,-124"/>
</a>
</g>
</g>
<!-- Node4 -->
<g id="Node000004" class="node">
<title>Node4</title>
<g id="a_Node000004"><a xlink:href="classCommandHandler.html#ac8beafb4e158b175c60256b58f89fa7f" target="_top" xlink:title="Gets the chip information.">
<polygon fill="white" stroke="#666666" points="809,-235 642,-235 642,-216 809,-216 809,-235"/>
<text text-anchor="middle" x="725.5" y="-223" font-family="Helvetica,sans-Serif" font-size="10.00">CommandHandler::getChipInfo</text>
</a>
</g>
</g>
<!-- Node3&#45;&gt;Node4 -->
<g id="edge3_Node000003_Node000004" class="edge">
<title>Node3&#45;&gt;Node4</title>
<g id="a_edge3_Node000003_Node000004"><a xlink:title=" ">
<path fill="none" stroke="#63b8ff" d="M496.88,-130.01C519.05,-147.99 570.21,-186.94 620,-206.5 626.78,-209.17 633.97,-211.46 641.26,-213.44"/>
<polygon fill="#63b8ff" stroke="#63b8ff" points="640.7,-216.9 651.25,-215.94 642.4,-210.11 640.7,-216.9"/>
</a>
</g>
</g>
<!-- Node5 -->
<g id="Node000005" class="node">
<title>Node5</title>
<g id="a_Node000005"><a xlink:href="classCommandHandler.html#aaa524249c62f3c5bf2fc192575a249d2" target="_top" xlink:title="Gets the clock speed in MHz.">
<polygon fill="white" stroke="#666666" points="802.5,-197.5 648.5,-197.5 648.5,-167.5 802.5,-167.5 802.5,-197.5"/>
<text text-anchor="start" x="656.5" y="-185.5" font-family="Helvetica,sans-Serif" font-size="10.00">CommandHandler::getClock</text>
<text text-anchor="middle" x="725.5" y="-174.5" font-family="Helvetica,sans-Serif" font-size="10.00">Speed</text>
</a>
</g>
</g>
<!-- Node3&#45;&gt;Node5 -->
<g id="edge4_Node000003_Node000005" class="edge">
<title>Node3&#45;&gt;Node5</title>
<g id="a_edge4_Node000003_Node000005"><a xlink:title=" ">
<path fill="none" stroke="#63b8ff" d="M517.45,-130.01C544.62,-137.98 584.74,-149.48 620,-158.5 628.74,-160.74 637.92,-162.99 647.05,-165.17"/>
<polygon fill="#63b8ff" stroke="#63b8ff" points="646.39,-168.6 656.92,-167.5 648,-161.79 646.39,-168.6"/>
</a>
</g>
</g>
<!-- Node6 -->
<g id="Node000006" class="node">
<title>Node6</title>
<g id="a_Node000006"><a xlink:href="classCommandHandler.html#ac790edbe2bf25d3e09ae3b43f0948204" target="_top" xlink:title="Gets the free heap size.">
<polygon fill="white" stroke="#666666" points="812,-149 639,-149 639,-130 812,-130 812,-149"/>
<text text-anchor="middle" x="725.5" y="-137" font-family="Helvetica,sans-Serif" font-size="10.00">CommandHandler::getFreeHeap</text>
</a>
</g>
</g>
<!-- Node3&#45;&gt;Node6 -->
<g id="edge5_Node000003_Node000006" class="edge">
<title>Node3&#45;&gt;Node6</title>
<g id="a_edge5_Node000003_Node000006"><a xlink:title=" ">
<path fill="none" stroke="#63b8ff" d="M584.09,-128.34C598.82,-129.51 613.99,-130.71 628.66,-131.88"/>
<polygon fill="#63b8ff" stroke="#63b8ff" points="628.48,-135.38 638.73,-132.68 629.04,-128.4 628.48,-135.38"/>
</a>
</g>
</g>
<!-- Node7 -->
<g id="Node000007" class="node">
<title>Node7</title>
<g id="a_Node000007"><a xlink:href="classCommandHandler.html#aacc693ccd17d6450b53c11dd8c348fe3" target="_top" xlink:title="Gets the free internal heap size.">
<polygon fill="white" stroke="#666666" points="831,-112 620,-112 620,-93 831,-93 831,-112"/>
<text text-anchor="middle" x="725.5" y="-100" font-family="Helvetica,sans-Serif" font-size="10.00">CommandHandler::getFreeInternalHeap</text>
</a>
</g>
</g>
<!-- Node3&#45;&gt;Node7 -->
<g id="edge6_Node000003_Node000007" class="edge">
<title>Node3&#45;&gt;Node7</title>
<g id="a_edge6_Node000003_Node000007"><a xlink:title=" ">
<path fill="none" stroke="#63b8ff" d="M584.09,-113.07C592.59,-112.43 601.24,-111.78 609.86,-111.13"/>
<polygon fill="#63b8ff" stroke="#63b8ff" points="610.23,-114.62 619.94,-110.37 609.71,-107.64 610.23,-114.62"/>
</a>
</g>
</g>
<!-- Node8 -->
<g id="Node000008" class="node">
<title>Node8</title>
<g id="a_Node000008"><a xlink:href="classCommandHandler.html#a84ae2c9bac0c26056bf404a7e907142a" target="_top" xlink:title="Gets the free minimum heap size.">
<polygon fill="white" stroke="#666666" points="821,-75 630,-75 630,-56 821,-56 821,-75"/>
<text text-anchor="middle" x="725.5" y="-63" font-family="Helvetica,sans-Serif" font-size="10.00">CommandHandler::getFreeMinHeap</text>
</a>
</g>
</g>
<!-- Node3&#45;&gt;Node8 -->
<g id="edge7_Node000003_Node000008" class="edge">
<title>Node3&#45;&gt;Node8</title>
<g id="a_edge7_Node000003_Node000008"><a xlink:title=" ">
<path fill="none" stroke="#63b8ff" d="M518.2,-110.94C545.33,-103.21 584.97,-92.36 620,-84.5 632.07,-81.79 644.98,-79.2 657.48,-76.85"/>
<polygon fill="#63b8ff" stroke="#63b8ff" points="658.19,-80.28 667.38,-75.01 656.91,-73.39 658.19,-80.28"/>
</a>
</g>
</g>
<!-- Node9 -->
<g id="Node000009" class="node">
<title>Node9</title>
<g id="a_Node000009"><a xlink:href="classCommandHandler.html#a85571f4b4a8c2ca92146f167c08c6c94" target="_top" xlink:title="Gets the IDF version.">
<polygon fill="white" stroke="#666666" points="813.5,-38 637.5,-38 637.5,-19 813.5,-19 813.5,-38"/>
<text text-anchor="middle" x="725.5" y="-26" font-family="Helvetica,sans-Serif" font-size="10.00">CommandHandler::getIdfVersion</text>
</a>
</g>
</g>
<!-- Node3&#45;&gt;Node9 -->
<g id="edge8_Node000003_Node000009" class="edge">
<title>Node3&#45;&gt;Node9</title>
<g id="a_edge8_Node000003_Node000009"><a xlink:title=" ">
<path fill="none" stroke="#63b8ff" d="M499.71,-110.79C523.51,-95.01 573.39,-63.91 620,-47.5 627.88,-44.73 636.23,-42.34 644.66,-40.29"/>
<polygon fill="#63b8ff" stroke="#63b8ff" points="645.58,-43.67 654.56,-38.04 644.03,-36.84 645.58,-43.67"/>
</a>
</g>
</g>
<!-- Node12 -->
<g id="Node000012" class="node">
<title>Node12</title>
<g id="a_Node000012"><a xlink:href="classMessageHandler.html#afb781c303001059d81235464ae91e0bd" target="_top" xlink:title="Internal helper to retrieve the appropriate message queue.">
<polygon fill="white" stroke="#666666" points="560.5,-38 408.5,-38 408.5,-19 560.5,-19 560.5,-38"/>
<text text-anchor="middle" x="484.5" y="-26" font-family="Helvetica,sans-Serif" font-size="10.00">MessageHandler::getQueue</text>
</a>
</g>
</g>
<!-- Node11&#45;&gt;Node12 -->
<g id="edge11_Node000011_Node000012" class="edge">
<title>Node11&#45;&gt;Node12</title>
<g id="a_edge11_Node000011_Node000012"><a xlink:title=" ">
<path fill="none" stroke="#63b8ff" d="M337.07,-40.73C356.56,-39.1 377.99,-37.31 398.3,-35.62"/>
<polygon fill="#63b8ff" stroke="#63b8ff" points="398.81,-39.09 408.48,-34.77 398.22,-32.11 398.81,-39.09"/>
</a>
</g>
</g>
<!-- Node13&#45;&gt;Node12 -->
<g id="edge13_Node000013_Node000012" class="edge">
<title>Node13&#45;&gt;Node12</title>
<g id="a_edge13_Node000013_Node000012"><a xlink:title=" ">
<path fill="none" stroke="#63b8ff" d="M331.2,-15.07C352.2,-16.92 375.94,-19.02 398.33,-20.99"/>
<polygon fill="#63b8ff" stroke="#63b8ff" points="398.23,-24.5 408.5,-21.89 398.85,-17.52 398.23,-24.5"/>
</a>
</g>
</g>
</g>
</svg>
