<?xml version="1.0" encoding="UTF-8" standalone="no"?>
<!DOCTYPE svg PUBLIC "-//W3C//DTD SVG 1.1//EN"
 "http://www.w3.org/Graphics/SVG/1.1/DTD/svg11.dtd">
<!-- Generated by graphviz version 2.43.0 (0)
 -->
<!-- Title: rtos::TimerBuilder Pages: 1 -->
<svg width="149pt" height="202pt"
 viewBox="0.00 0.00 149.00 202.00" xmlns="http://www.w3.org/2000/svg" xmlns:xlink="http://www.w3.org/1999/xlink">
<g id="graph0" class="graph" transform="scale(1 1) rotate(0) translate(4 198)">
<title>rtos::TimerBuilder</title>
<!-- Node1 -->
<g id="Node000001" class="node">
<title>Node1</title>
<g id="a_Node000001"><a xlink:title=" ">
<polygon fill="#999999" stroke="transparent" points="141,-194 0,-194 0,0 141,0 141,-194"/>
<text text-anchor="start" x="27" y="-182" font-family="Helvetica,sans-Serif" font-size="10.00">rtos::TimerBuilder</text>
<text text-anchor="start" x="7" y="-167" font-family="Helvetica,sans-Serif" font-size="10.00">&#45;</text>
<text text-anchor="start" x="17.5" y="-167" font-family="Helvetica,sans-Serif" font-size="10.00">const char * _name</text>
<text text-anchor="start" x="7" y="-152" font-family="Helvetica,sans-Serif" font-size="10.00">&#45;</text>
<text text-anchor="start" x="17.5" y="-152" font-family="Helvetica,sans-Serif" font-size="10.00">uint32_t _periodMs</text>
<text text-anchor="start" x="7" y="-137" font-family="Helvetica,sans-Serif" font-size="10.00">&#45;</text>
<text text-anchor="start" x="17.5" y="-137" font-family="Helvetica,sans-Serif" font-size="10.00">Timer::Mode _mode</text>
<text text-anchor="start" x="4.5" y="-122" font-family="Helvetica,sans-Serif" font-size="10.00">+</text>
<text text-anchor="start" x="17.5" y="-122" font-family="Helvetica,sans-Serif" font-size="10.00">TimerBuilder()=default</text>
<text text-anchor="start" x="4.5" y="-107" font-family="Helvetica,sans-Serif" font-size="10.00">+</text>
<text text-anchor="start" x="17.5" y="-107" font-family="Helvetica,sans-Serif" font-size="10.00">TimerBuilder &amp; name</text>
<text text-anchor="start" x="17.5" y="-96" font-family="Helvetica,sans-Serif" font-size="10.00">(const char *name)</text>
<text text-anchor="start" x="4.5" y="-81" font-family="Helvetica,sans-Serif" font-size="10.00">+</text>
<text text-anchor="start" x="17.5" y="-81" font-family="Helvetica,sans-Serif" font-size="10.00">TimerBuilder &amp; period</text>
<text text-anchor="start" x="17.5" y="-70" font-family="Helvetica,sans-Serif" font-size="10.00">(uint32_t periodMs)</text>
<text text-anchor="start" x="4.5" y="-55" font-family="Helvetica,sans-Serif" font-size="10.00">+</text>
<text text-anchor="start" x="17.5" y="-55" font-family="Helvetica,sans-Serif" font-size="10.00">TimerBuilder &amp; mode</text>
<text text-anchor="start" x="17.5" y="-44" font-family="Helvetica,sans-Serif" font-size="10.00">(Timer::Mode mode)</text>
<text text-anchor="start" x="4.5" y="-29" font-family="Helvetica,sans-Serif" font-size="10.00">+</text>
<text text-anchor="start" x="17.5" y="-29" font-family="Helvetica,sans-Serif" font-size="10.00">std::unique_ptr&lt; Timer</text>
<text text-anchor="start" x="17.5" y="-18" font-family="Helvetica,sans-Serif" font-size="10.00"> &gt; callback(std::function</text>
<text text-anchor="start" x="17.5" y="-7" font-family="Helvetica,sans-Serif" font-size="10.00">&lt; void()&gt; callback)</text>
<polygon fill="#666666" stroke="#666666" points="0.5,-177 0.5,-177 141.5,-177 141.5,-177 0.5,-177"/>
<polygon fill="#666666" stroke="#666666" points="0.5,-132 0.5,-132 15.5,-132 15.5,-132 0.5,-132"/>
<polygon fill="#666666" stroke="#666666" points="15.5,-132 15.5,-132 141.5,-132 141.5,-132 15.5,-132"/>
<polygon fill="none" stroke="#666666" points="0,0 0,-194 141,-194 141,0 0,0"/>
</a>
</g>
</g>
</g>
</svg>
