<?xml version="1.0" encoding="UTF-8" standalone="no"?>
<!DOCTYPE svg PUBLIC "-//W3C//DTD SVG 1.1//EN"
 "http://www.w3.org/Graphics/SVG/1.1/DTD/svg11.dtd">
<!-- Generated by graphviz version 2.43.0 (0)
 -->
<!-- Title: rtos::MessageQueue&lt; T &gt; Pages: 1 -->
<svg width="344pt" height="450pt"
 viewBox="0.00 0.00 343.50 450.00" xmlns="http://www.w3.org/2000/svg" xmlns:xlink="http://www.w3.org/1999/xlink">

<svg id="main" version="1.1" xmlns="http://www.w3.org/2000/svg" xmlns:xlink="http://www.w3.org/1999/xlink" xml:space="preserve" onload="init(evt)">
<style type="text/css"><![CDATA[
.node, .edge {opacity: 0.7;}
.node.selected, .edge.selected {opacity: 1;}
.edge:hover path { stroke: red; }
.edge:hover polygon { stroke: red; fill: red; }
]]></style>
<script type="application/ecmascript" xlink:href="svg.min.js"/>
<svg id="graph" class="graph">
<g id="graph0" class="graph" transform="scale(1 1) rotate(0) translate(4 446)">
<title>rtos::MessageQueue&lt; T &gt;</title>
<!-- Node1 -->
<g id="Node000001" class="node">
<title>Node1</title>
<g id="a_Node000001"><a xlink:title=" ">
<polygon fill="#999999" stroke="transparent" points="242,-268 67,-268 67,0 242,0 242,-268"/>
<text text-anchor="start" x="90.5" y="-256" font-family="Helvetica,sans-Serif" font-size="10.00">rtos::MessageQueue&lt; T &gt;</text>
<text text-anchor="start" x="74" y="-241" font-family="Helvetica,sans-Serif" font-size="10.00">&#45;</text>
<text text-anchor="start" x="84.5" y="-241" font-family="Helvetica,sans-Serif" font-size="10.00">QueueHandle_t _handle</text>
<text text-anchor="start" x="71.5" y="-226" font-family="Helvetica,sans-Serif" font-size="10.00">+</text>
<text text-anchor="start" x="84.5" y="-226" font-family="Helvetica,sans-Serif" font-size="10.00">MessageQueue(size</text>
<text text-anchor="start" x="84.5" y="-215" font-family="Helvetica,sans-Serif" font-size="10.00">_t length)</text>
<text text-anchor="start" x="71.5" y="-200" font-family="Helvetica,sans-Serif" font-size="10.00">+</text>
<text text-anchor="start" x="84.5" y="-200" font-family="Helvetica,sans-Serif" font-size="10.00">~MessageQueue() override</text>
<text text-anchor="start" x="71.5" y="-185" font-family="Helvetica,sans-Serif" font-size="10.00">+</text>
<text text-anchor="start" x="84.5" y="-185" font-family="Helvetica,sans-Serif" font-size="10.00">MessageQueue(const</text>
<text text-anchor="start" x="84.5" y="-174" font-family="Helvetica,sans-Serif" font-size="10.00"> MessageQueue &amp;)=delete</text>
<text text-anchor="start" x="71.5" y="-159" font-family="Helvetica,sans-Serif" font-size="10.00">+</text>
<text text-anchor="start" x="84.5" y="-159" font-family="Helvetica,sans-Serif" font-size="10.00">MessageQueue(MessageQueue</text>
<text text-anchor="start" x="84.5" y="-148" font-family="Helvetica,sans-Serif" font-size="10.00"> &amp;&amp;)=delete</text>
<text text-anchor="start" x="71.5" y="-133" font-family="Helvetica,sans-Serif" font-size="10.00">+</text>
<text text-anchor="start" x="84.5" y="-133" font-family="Helvetica,sans-Serif" font-size="10.00">bool send(const T &amp;item)</text>
<text text-anchor="start" x="84.5" y="-122" font-family="Helvetica,sans-Serif" font-size="10.00"> override</text>
<text text-anchor="start" x="71.5" y="-107" font-family="Helvetica,sans-Serif" font-size="10.00">+</text>
<text text-anchor="start" x="84.5" y="-107" font-family="Helvetica,sans-Serif" font-size="10.00">bool trySend(const</text>
<text text-anchor="start" x="84.5" y="-96" font-family="Helvetica,sans-Serif" font-size="10.00"> T &amp;item, uint32_t timeout</text>
<text text-anchor="start" x="84.5" y="-85" font-family="Helvetica,sans-Serif" font-size="10.00">Ms=0U) override</text>
<text text-anchor="start" x="71.5" y="-70" font-family="Helvetica,sans-Serif" font-size="10.00">+</text>
<text text-anchor="start" x="84.5" y="-70" font-family="Helvetica,sans-Serif" font-size="10.00">bool receive(T &amp;item)</text>
<text text-anchor="start" x="84.5" y="-59" font-family="Helvetica,sans-Serif" font-size="10.00"> override</text>
<text text-anchor="start" x="71.5" y="-44" font-family="Helvetica,sans-Serif" font-size="10.00">+</text>
<text text-anchor="start" x="84.5" y="-44" font-family="Helvetica,sans-Serif" font-size="10.00">bool tryReceive(T &amp;item,</text>
<text text-anchor="start" x="84.5" y="-33" font-family="Helvetica,sans-Serif" font-size="10.00"> uint32_t timeoutMs=0U)</text>
<text text-anchor="start" x="84.5" y="-22" font-family="Helvetica,sans-Serif" font-size="10.00"> override</text>
<text text-anchor="start" x="71.5" y="-7" font-family="Helvetica,sans-Serif" font-size="10.00">+</text>
<text text-anchor="start" x="84.5" y="-7" font-family="Helvetica,sans-Serif" font-size="10.00">QueueHandle_t handle()</text>
<polygon fill="#666666" stroke="#666666" points="67.5,-251 67.5,-251 242.5,-251 242.5,-251 67.5,-251"/>
<polygon fill="#666666" stroke="#666666" points="67.5,-236 67.5,-236 82.5,-236 82.5,-236 67.5,-236"/>
<polygon fill="#666666" stroke="#666666" points="82.5,-236 82.5,-236 242.5,-236 242.5,-236 82.5,-236"/>
<polygon fill="none" stroke="#666666" points="67,0 67,-268 242,-268 242,0 67,0"/>
</a>
</g>
</g>
<!-- Node2 -->
<g id="Node000002" class="node">
<title>Node2</title>
<g id="a_Node000002"><a xlink:href="classrtos_1_1IItemSender.html" target="_top" xlink:title=" ">
<polygon fill="white" stroke="transparent" points="133,-442 0,-442 0,-304 133,-304 133,-442"/>
<text text-anchor="start" x="10.5" y="-430" font-family="Helvetica,sans-Serif" font-size="10.00">rtos::IItemSender&lt; T &gt;</text>
<text text-anchor="start" x="65" y="-415" font-family="Helvetica,sans-Serif" font-size="10.00"> </text>
<text text-anchor="start" x="4.5" y="-400" font-family="Helvetica,sans-Serif" font-size="10.00">+</text>
<text text-anchor="start" x="17.5" y="-400" font-family="Helvetica,sans-Serif" font-size="10.00">virtual ~IItemSender</text>
<text text-anchor="start" x="17.5" y="-389" font-family="Helvetica,sans-Serif" font-size="10.00">()=default</text>
<text text-anchor="start" x="4.5" y="-374" font-family="Helvetica,sans-Serif" font-size="10.00">+</text>
<text text-anchor="start" x="17.5" y="-374" font-family="Helvetica,sans-Serif" font-size="10.00">virtual bool send(const</text>
<text text-anchor="start" x="17.5" y="-363" font-family="Helvetica,sans-Serif" font-size="10.00"> T &amp;item)=0</text>
<text text-anchor="start" x="4.5" y="-348" font-family="Helvetica,sans-Serif" font-size="10.00">+</text>
<text text-anchor="start" x="17.5" y="-348" font-family="Helvetica,sans-Serif" font-size="10.00">virtual bool trySend</text>
<text text-anchor="start" x="17.5" y="-337" font-family="Helvetica,sans-Serif" font-size="10.00">(const T &amp;item, uint32</text>
<text text-anchor="start" x="17.5" y="-326" font-family="Helvetica,sans-Serif" font-size="10.00">_t timeoutMs=0U)=0</text>
<text text-anchor="start" x="4.5" y="-311" font-family="Helvetica,sans-Serif" font-size="10.00">#</text>
<text text-anchor="start" x="17.5" y="-311" font-family="Helvetica,sans-Serif" font-size="10.00">IItemSender()=default</text>
<polygon fill="#666666" stroke="#666666" points="0.5,-425 0.5,-425 133.5,-425 133.5,-425 0.5,-425"/>
<polygon fill="#666666" stroke="#666666" points="0.5,-410 0.5,-410 133.5,-410 133.5,-410 0.5,-410"/>
<polygon fill="none" stroke="#666666" points="0,-304 0,-442 133,-442 133,-304 0,-304"/>
</a>
</g>
</g>
<!-- Node2&#45;&gt;Node1 -->
<g id="edge1_Node000001_Node000002" class="edge">
<title>Node2&#45;&gt;Node1</title>
<g id="a_edge1_Node000001_Node000002"><a xlink:title=" ">
<path fill="none" stroke="#63b8ff" d="M95.41,-294.14C98.5,-285.82 101.71,-277.18 104.95,-268.44"/>
<polygon fill="none" stroke="#63b8ff" points="92.03,-293.17 91.84,-303.77 98.6,-295.61 92.03,-293.17"/>
</a>
</g>
</g>
<!-- Node3 -->
<g id="Node000003" class="node">
<title>Node3</title>
<g id="a_Node000003"><a xlink:href="classrtos_1_1IItemReceiver.html" target="_top" xlink:title=" ">
<polygon fill="white" stroke="transparent" points="335.5,-436.5 151.5,-436.5 151.5,-309.5 335.5,-309.5 335.5,-436.5"/>
<text text-anchor="start" x="182.5" y="-424" font-family="Helvetica,sans-Serif" font-size="10.00">rtos::IItemReceiver&lt; T &gt;</text>
<text text-anchor="start" x="241.5" y="-409" font-family="Helvetica,sans-Serif" font-size="10.00"> </text>
<text text-anchor="start" x="155.5" y="-394" font-family="Helvetica,sans-Serif" font-size="10.00">+</text>
<text text-anchor="start" x="168.5" y="-394" font-family="Helvetica,sans-Serif" font-size="10.00">virtual ~IItemReceiver</text>
<text text-anchor="start" x="168.5" y="-383" font-family="Helvetica,sans-Serif" font-size="10.00">()=default</text>
<text text-anchor="start" x="155.5" y="-368" font-family="Helvetica,sans-Serif" font-size="10.00">+</text>
<text text-anchor="start" x="168.5" y="-368" font-family="Helvetica,sans-Serif" font-size="10.00">virtual bool receive</text>
<text text-anchor="start" x="168.5" y="-357" font-family="Helvetica,sans-Serif" font-size="10.00">(T &amp;item)=0</text>
<text text-anchor="start" x="155.5" y="-342" font-family="Helvetica,sans-Serif" font-size="10.00">+</text>
<text text-anchor="start" x="168.5" y="-342" font-family="Helvetica,sans-Serif" font-size="10.00">virtual bool tryReceive</text>
<text text-anchor="start" x="168.5" y="-331" font-family="Helvetica,sans-Serif" font-size="10.00">(T &amp;item, uint32_t timeoutMs)=0</text>
<text text-anchor="start" x="155.5" y="-316" font-family="Helvetica,sans-Serif" font-size="10.00">#</text>
<text text-anchor="start" x="168.5" y="-316" font-family="Helvetica,sans-Serif" font-size="10.00">IItemReceiver()=default</text>
<polygon fill="#666666" stroke="#666666" points="151.5,-419 151.5,-419 335.5,-419 335.5,-419 151.5,-419"/>
<polygon fill="#666666" stroke="#666666" points="151.5,-404 151.5,-404 335.5,-404 335.5,-404 151.5,-404"/>
<polygon fill="none" stroke="#666666" points="151.5,-309.5 151.5,-436.5 335.5,-436.5 335.5,-309.5 151.5,-309.5"/>
</a>
</g>
</g>
<!-- Node3&#45;&gt;Node1 -->
<g id="edge2_Node000001_Node000003" class="edge">
<title>Node3&#45;&gt;Node1</title>
<g id="a_edge2_Node000001_Node000003"><a xlink:title=" ">
<path fill="none" stroke="#63b8ff" d="M216.41,-299.87C212.6,-289.71 208.58,-279.02 204.51,-268.17"/>
<polygon fill="none" stroke="#63b8ff" points="213.21,-301.29 220,-309.42 219.76,-298.83 213.21,-301.29"/>
</a>
</g>
</g>
</g>
</svg>
</svg>

<style type='text/css'>
<![CDATA[
[data-mouse-over-selected='false'] { opacity: 0.7; }
[data-mouse-over-selected='true']  { opacity: 1.0; }
]]>
</style>
<script type="application/ecmascript"><![CDATA[
document.addEventListener('DOMContentLoaded', (event) => {
  highlightEdges();
  highlightAdjacentNodes();
});
]]></script>
</svg>
