<?xml version="1.0" encoding="UTF-8" standalone="no"?>
<!DOCTYPE svg PUBLIC "-//W3C//DTD SVG 1.1//EN"
 "http://www.w3.org/Graphics/SVG/1.1/DTD/svg11.dtd">
<!-- Generated by graphviz version 2.43.0 (0)
 -->
<!-- Title: rtos::IItemReceiver&lt; T &gt; Pages: 1 -->
<svg width="192pt" height="135pt"
 viewBox="0.00 0.00 192.00 135.00" xmlns="http://www.w3.org/2000/svg" xmlns:xlink="http://www.w3.org/1999/xlink">
<g id="graph0" class="graph" transform="scale(1 1) rotate(0) translate(4 131)">
<title>rtos::IItemReceiver&lt; T &gt;</title>
<!-- Node1 -->
<g id="Node000001" class="node">
<title>Node1</title>
<g id="a_Node000001"><a xlink:title=" ">
<polygon fill="#999999" stroke="transparent" points="184,-127 0,-127 0,0 184,0 184,-127"/>
<text text-anchor="start" x="31" y="-114.5" font-family="Helvetica,sans-Serif" font-size="10.00">rtos::IItemReceiver&lt; T &gt;</text>
<text text-anchor="start" x="90" y="-99.5" font-family="Helvetica,sans-Serif" font-size="10.00"> </text>
<text text-anchor="start" x="4" y="-84.5" font-family="Helvetica,sans-Serif" font-size="10.00">+</text>
<text text-anchor="start" x="17" y="-84.5" font-family="Helvetica,sans-Serif" font-size="10.00">virtual ~IItemReceiver</text>
<text text-anchor="start" x="17" y="-73.5" font-family="Helvetica,sans-Serif" font-size="10.00">()=default</text>
<text text-anchor="start" x="4" y="-58.5" font-family="Helvetica,sans-Serif" font-size="10.00">+</text>
<text text-anchor="start" x="17" y="-58.5" font-family="Helvetica,sans-Serif" font-size="10.00">virtual bool receive</text>
<text text-anchor="start" x="17" y="-47.5" font-family="Helvetica,sans-Serif" font-size="10.00">(T &amp;item)=0</text>
<text text-anchor="start" x="4" y="-32.5" font-family="Helvetica,sans-Serif" font-size="10.00">+</text>
<text text-anchor="start" x="17" y="-32.5" font-family="Helvetica,sans-Serif" font-size="10.00">virtual bool tryReceive</text>
<text text-anchor="start" x="17" y="-21.5" font-family="Helvetica,sans-Serif" font-size="10.00">(T &amp;item, uint32_t timeoutMs)=0</text>
<text text-anchor="start" x="4" y="-6.5" font-family="Helvetica,sans-Serif" font-size="10.00">#</text>
<text text-anchor="start" x="17" y="-6.5" font-family="Helvetica,sans-Serif" font-size="10.00">IItemReceiver()=default</text>
<polygon fill="#666666" stroke="#666666" points="0,-109.5 0,-109.5 184,-109.5 184,-109.5 0,-109.5"/>
<polygon fill="#666666" stroke="#666666" points="0,-94.5 0,-94.5 184,-94.5 184,-94.5 0,-94.5"/>
<polygon fill="none" stroke="#666666" points="0,0 0,-127 184,-127 184,0 0,0"/>
</a>
</g>
</g>
</g>
</svg>
