<?xml version="1.0" encoding="UTF-8" standalone="no"?>
<!DOCTYPE svg PUBLIC "-//W3C//DTD SVG 1.1//EN"
 "http://www.w3.org/Graphics/SVG/1.1/DTD/svg11.dtd">
<!-- Generated by graphviz version 2.43.0 (0)
 -->
<!-- Title: CommandHandler::processCommand Pages: 1 -->
<svg width="454pt" height="224pt"
 viewBox="0.00 0.00 454.00 224.00" xmlns="http://www.w3.org/2000/svg" xmlns:xlink="http://www.w3.org/1999/xlink">

<svg id="main" version="1.1" xmlns="http://www.w3.org/2000/svg" xmlns:xlink="http://www.w3.org/1999/xlink" xml:space="preserve" onload="init(evt)">
<style type="text/css"><![CDATA[
.node, .edge {opacity: 0.7;}
.node.selected, .edge.selected {opacity: 1;}
.edge:hover path { stroke: red; }
.edge:hover polygon { stroke: red; fill: red; }
]]></style>
<script type="application/ecmascript" xlink:href="svg.min.js"/>
<svg id="graph" class="graph">
<g id="graph0" class="graph" transform="scale(1 1) rotate(0) translate(4 220)">
<title>CommandHandler::processCommand</title>
<!-- Node1 -->
<g id="Node000001" class="node">
<title>Node1</title>
<g id="a_Node000001"><a xlink:title="Processes a command.">
<polygon fill="#999999" stroke="#666666" points="199,-111 0,-111 0,-92 199,-92 199,-111"/>
<text text-anchor="middle" x="99.5" y="-99" font-family="Helvetica,sans-Serif" font-size="10.00">CommandHandler::processCommand</text>
</a>
</g>
</g>
<!-- Node2 -->
<g id="Node000002" class="node">
<title>Node2</title>
<g id="a_Node000002"><a xlink:href="classCommandHandler.html#ac8beafb4e158b175c60256b58f89fa7f" target="_top" xlink:title="Gets the chip information.">
<polygon fill="white" stroke="#666666" points="424,-216 257,-216 257,-197 424,-197 424,-216"/>
<text text-anchor="middle" x="340.5" y="-204" font-family="Helvetica,sans-Serif" font-size="10.00">CommandHandler::getChipInfo</text>
</a>
</g>
</g>
<!-- Node1&#45;&gt;Node2 -->
<g id="edge1_Node000001_Node000002" class="edge">
<title>Node1&#45;&gt;Node2</title>
<g id="a_edge1_Node000001_Node000002"><a xlink:title=" ">
<path fill="none" stroke="#63b8ff" d="M111.88,-111.01C134.05,-128.99 185.21,-167.94 235,-187.5 241.78,-190.17 248.97,-192.46 256.26,-194.44"/>
<polygon fill="#63b8ff" stroke="#63b8ff" points="255.7,-197.9 266.25,-196.94 257.4,-191.11 255.7,-197.9"/>
</a>
</g>
</g>
<!-- Node3 -->
<g id="Node000003" class="node">
<title>Node3</title>
<g id="a_Node000003"><a xlink:href="classCommandHandler.html#aaa524249c62f3c5bf2fc192575a249d2" target="_top" xlink:title="Gets the clock speed in MHz.">
<polygon fill="white" stroke="#666666" points="417.5,-178.5 263.5,-178.5 263.5,-148.5 417.5,-148.5 417.5,-178.5"/>
<text text-anchor="start" x="271.5" y="-166.5" font-family="Helvetica,sans-Serif" font-size="10.00">CommandHandler::getClock</text>
<text text-anchor="middle" x="340.5" y="-155.5" font-family="Helvetica,sans-Serif" font-size="10.00">Speed</text>
</a>
</g>
</g>
<!-- Node1&#45;&gt;Node3 -->
<g id="edge2_Node000001_Node000003" class="edge">
<title>Node1&#45;&gt;Node3</title>
<g id="a_edge2_Node000001_Node000003"><a xlink:title=" ">
<path fill="none" stroke="#63b8ff" d="M132.45,-111.01C159.62,-118.98 199.74,-130.48 235,-139.5 243.74,-141.74 252.92,-143.99 262.05,-146.17"/>
<polygon fill="#63b8ff" stroke="#63b8ff" points="261.39,-149.6 271.92,-148.5 263,-142.79 261.39,-149.6"/>
</a>
</g>
</g>
<!-- Node4 -->
<g id="Node000004" class="node">
<title>Node4</title>
<g id="a_Node000004"><a xlink:href="classCommandHandler.html#ac790edbe2bf25d3e09ae3b43f0948204" target="_top" xlink:title="Gets the free heap size.">
<polygon fill="white" stroke="#666666" points="427,-130 254,-130 254,-111 427,-111 427,-130"/>
<text text-anchor="middle" x="340.5" y="-118" font-family="Helvetica,sans-Serif" font-size="10.00">CommandHandler::getFreeHeap</text>
</a>
</g>
</g>
<!-- Node1&#45;&gt;Node4 -->
<g id="edge3_Node000001_Node000004" class="edge">
<title>Node1&#45;&gt;Node4</title>
<g id="a_edge3_Node000001_Node000004"><a xlink:title=" ">
<path fill="none" stroke="#63b8ff" d="M199.09,-109.34C213.82,-110.51 228.99,-111.71 243.66,-112.88"/>
<polygon fill="#63b8ff" stroke="#63b8ff" points="243.48,-116.38 253.73,-113.68 244.04,-109.4 243.48,-116.38"/>
</a>
</g>
</g>
<!-- Node5 -->
<g id="Node000005" class="node">
<title>Node5</title>
<g id="a_Node000005"><a xlink:href="classCommandHandler.html#aacc693ccd17d6450b53c11dd8c348fe3" target="_top" xlink:title="Gets the free internal heap size.">
<polygon fill="white" stroke="#666666" points="446,-93 235,-93 235,-74 446,-74 446,-93"/>
<text text-anchor="middle" x="340.5" y="-81" font-family="Helvetica,sans-Serif" font-size="10.00">CommandHandler::getFreeInternalHeap</text>
</a>
</g>
</g>
<!-- Node1&#45;&gt;Node5 -->
<g id="edge4_Node000001_Node000005" class="edge">
<title>Node1&#45;&gt;Node5</title>
<g id="a_edge4_Node000001_Node000005"><a xlink:title=" ">
<path fill="none" stroke="#63b8ff" d="M199.09,-94.07C207.59,-93.43 216.24,-92.78 224.86,-92.13"/>
<polygon fill="#63b8ff" stroke="#63b8ff" points="225.23,-95.62 234.94,-91.37 224.71,-88.64 225.23,-95.62"/>
</a>
</g>
</g>
<!-- Node6 -->
<g id="Node000006" class="node">
<title>Node6</title>
<g id="a_Node000006"><a xlink:href="classCommandHandler.html#a84ae2c9bac0c26056bf404a7e907142a" target="_top" xlink:title="Gets the free minimum heap size.">
<polygon fill="white" stroke="#666666" points="436,-56 245,-56 245,-37 436,-37 436,-56"/>
<text text-anchor="middle" x="340.5" y="-44" font-family="Helvetica,sans-Serif" font-size="10.00">CommandHandler::getFreeMinHeap</text>
</a>
</g>
</g>
<!-- Node1&#45;&gt;Node6 -->
<g id="edge5_Node000001_Node000006" class="edge">
<title>Node1&#45;&gt;Node6</title>
<g id="a_edge5_Node000001_Node000006"><a xlink:title=" ">
<path fill="none" stroke="#63b8ff" d="M133.2,-91.94C160.33,-84.21 199.97,-73.36 235,-65.5 247.07,-62.79 259.98,-60.2 272.48,-57.85"/>
<polygon fill="#63b8ff" stroke="#63b8ff" points="273.19,-61.28 282.38,-56.01 271.91,-54.39 273.19,-61.28"/>
</a>
</g>
</g>
<!-- Node7 -->
<g id="Node000007" class="node">
<title>Node7</title>
<g id="a_Node000007"><a xlink:href="classCommandHandler.html#a85571f4b4a8c2ca92146f167c08c6c94" target="_top" xlink:title="Gets the IDF version.">
<polygon fill="white" stroke="#666666" points="428.5,-19 252.5,-19 252.5,0 428.5,0 428.5,-19"/>
<text text-anchor="middle" x="340.5" y="-7" font-family="Helvetica,sans-Serif" font-size="10.00">CommandHandler::getIdfVersion</text>
</a>
</g>
</g>
<!-- Node1&#45;&gt;Node7 -->
<g id="edge6_Node000001_Node000007" class="edge">
<title>Node1&#45;&gt;Node7</title>
<g id="a_edge6_Node000001_Node000007"><a xlink:title=" ">
<path fill="none" stroke="#63b8ff" d="M114.71,-91.79C138.51,-76.01 188.39,-44.91 235,-28.5 242.88,-25.73 251.23,-23.34 259.66,-21.29"/>
<polygon fill="#63b8ff" stroke="#63b8ff" points="260.58,-24.67 269.56,-19.04 259.03,-17.84 260.58,-24.67"/>
</a>
</g>
</g>
</g>
</svg>
</svg>

<style type='text/css'>
<![CDATA[
[data-mouse-over-selected='false'] { opacity: 0.7; }
[data-mouse-over-selected='true']  { opacity: 1.0; }
]]>
</style>
<script type="application/ecmascript"><![CDATA[
document.addEventListener('DOMContentLoaded', (event) => {
  highlightEdges();
  highlightAdjacentNodes();
});
]]></script>
</svg>
