<?xml version="1.0" encoding="UTF-8" standalone="no"?>
<!DOCTYPE svg PUBLIC "-//W3C//DTD SVG 1.1//EN"
 "http://www.w3.org/Graphics/SVG/1.1/DTD/svg11.dtd">
<!-- Generated by graphviz version 2.43.0 (0)
 -->
<!-- Title: DataParser::executeCommand Pages: 1 -->
<!--zoomable 224 -->

<svg id="main" version="1.1" xmlns="http://www.w3.org/2000/svg" xmlns:xlink="http://www.w3.org/1999/xlink" xml:space="preserve" onload="init(evt)">
<style type="text/css"><![CDATA[
.node, .edge {opacity: 0.7;}
.node.selected, .edge.selected {opacity: 1;}
.edge:hover path { stroke: red; }
.edge:hover polygon { stroke: red; fill: red; }
]]></style>

<defs>
  <circle id="rim" cx="0" cy="0" r="7"/>
  <circle id="rim2" cx="0" cy="0" r="3.5"/>
  <g id="zoomPlus">
    <use xlink:href="#rim" fill="#404040"><set attributeName="fill" to="#808080" begin="zoomplus.mouseover" end="zoomplus.mouseout"/></use>
    <path d="M-4,0h8M0,-4v8" fill="none" stroke="white" stroke-width="1.5" pointer-events="none"/>
  </g>
  <g id="zoomMin">
    <use xlink:href="#rim" fill="#404040"><set attributeName="fill" to="#808080" begin="zoomminus.mouseover" end="zoomminus.mouseout"/></use>
    <path d="M-4,0h8" fill="none" stroke="white" stroke-width="1.5" pointer-events="none"/>
  </g>
  <g id="arrowUp" transform="translate(30 24)">
    <use xlink:href="#rim"/>
    <path pointer-events="none" fill="none" stroke="white" stroke-width="1.5" d="M0,-3.0v7 M-2.5,-0.5L0,-3.0L2.5,-0.5"/>
  </g>
  <g id="arrowRight" transform="rotate(90) translate(36 -43)">
    <use xlink:href="#rim"/>
    <path pointer-events="none" fill="none" stroke="white" stroke-width="1.5" d="M0,-3.0v7 M-2.5,-0.5L0,-3.0L2.5,-0.5"/>
  </g>
  <g id="arrowDown" transform="rotate(180) translate(-30 -48)">
    <use xlink:href="#rim"/>
    <path pointer-events="none" fill="none" stroke="white" stroke-width="1.5" d="M0,-3.0v7 M-2.5,-0.5L0,-3.0L2.5,-0.5"/>
  </g>
  <g id="arrowLeft" transform="rotate(270) translate(-36 17)">
    <use xlink:href="#rim"/>
    <path pointer-events="none" fill="none" stroke="white" stroke-width="1.5" d="M0,-3.0v7 M-2.5,-0.5L0,-3.0L2.5,-0.5"/>
  </g>
  <g id="resetDef">
    <use xlink:href="#rim2" fill="#404040"><set attributeName="fill" to="#808080" begin="reset.mouseover" end="reset.mouseout"/></use>
  </g>
</defs>
<script type="application/ecmascript">
var viewWidth = 654;
var viewHeight = 224;
var sectionId = 'dynsection-3';
</script>
<script type="application/ecmascript" xlink:href="svg.min.js"/>
<svg id="graph" class="graph">
<g id="viewport">
<title>DataParser::executeCommand</title>
<!-- Node1 -->
<g id="Node000001" class="node">
<title>Node1</title>
<g id="a_Node000001"><a xlink:title="Executes the given command and stores the result in the output string.">
<polygon fill="#999999" stroke="#666666" points="164,-111 0,-111 0,-92 164,-92 164,-111"/>
<text text-anchor="middle" x="82" y="-99" font-family="Helvetica,sans-Serif" font-size="10.00">DataParser::executeCommand</text>
</a>
</g>
</g>
<!-- Node2 -->
<g id="Node000002" class="node">
<title>Node2</title>
<g id="a_Node000002"><a xlink:href="classCommandHandler.html#a665ecc3d0185cf173d567e00331c0200" target="_top" xlink:title="Processes a command.">
<polygon fill="white" stroke="#666666" points="399,-111 200,-111 200,-92 399,-92 399,-111"/>
<text text-anchor="middle" x="299.5" y="-99" font-family="Helvetica,sans-Serif" font-size="10.00">CommandHandler::processCommand</text>
</a>
</g>
</g>
<!-- Node1&#45;&gt;Node2 -->
<g id="edge1_Node000001_Node000002" class="edge">
<title>Node1&#45;&gt;Node2</title>
<g id="a_edge1_Node000001_Node000002"><a xlink:title=" ">
<path fill="none" stroke="#63b8ff" d="M164.16,-101.5C172.57,-101.5 181.2,-101.5 189.84,-101.5"/>
<polygon fill="#63b8ff" stroke="#63b8ff" points="189.98,-105 199.98,-101.5 189.98,-98 189.98,-105"/>
</a>
</g>
</g>
<!-- Node3 -->
<g id="Node000003" class="node">
<title>Node3</title>
<g id="a_Node000003"><a xlink:href="classCommandHandler.html#ac8beafb4e158b175c60256b58f89fa7f" target="_top" xlink:title="Gets the chip information.">
<polygon fill="white" stroke="#666666" points="624,-216 457,-216 457,-197 624,-197 624,-216"/>
<text text-anchor="middle" x="540.5" y="-204" font-family="Helvetica,sans-Serif" font-size="10.00">CommandHandler::getChipInfo</text>
</a>
</g>
</g>
<!-- Node2&#45;&gt;Node3 -->
<g id="edge2_Node000002_Node000003" class="edge">
<title>Node2&#45;&gt;Node3</title>
<g id="a_edge2_Node000002_Node000003"><a xlink:title=" ">
<path fill="none" stroke="#63b8ff" d="M311.88,-111.01C334.05,-128.99 385.21,-167.94 435,-187.5 441.78,-190.17 448.97,-192.46 456.26,-194.44"/>
<polygon fill="#63b8ff" stroke="#63b8ff" points="455.7,-197.9 466.25,-196.94 457.4,-191.11 455.7,-197.9"/>
</a>
</g>
</g>
<!-- Node4 -->
<g id="Node000004" class="node">
<title>Node4</title>
<g id="a_Node000004"><a xlink:href="classCommandHandler.html#aaa524249c62f3c5bf2fc192575a249d2" target="_top" xlink:title="Gets the clock speed in MHz.">
<polygon fill="white" stroke="#666666" points="617.5,-178.5 463.5,-178.5 463.5,-148.5 617.5,-148.5 617.5,-178.5"/>
<text text-anchor="start" x="471.5" y="-166.5" font-family="Helvetica,sans-Serif" font-size="10.00">CommandHandler::getClock</text>
<text text-anchor="middle" x="540.5" y="-155.5" font-family="Helvetica,sans-Serif" font-size="10.00">Speed</text>
</a>
</g>
</g>
<!-- Node2&#45;&gt;Node4 -->
<g id="edge3_Node000002_Node000004" class="edge">
<title>Node2&#45;&gt;Node4</title>
<g id="a_edge3_Node000002_Node000004"><a xlink:title=" ">
<path fill="none" stroke="#63b8ff" d="M332.45,-111.01C359.62,-118.98 399.74,-130.48 435,-139.5 443.74,-141.74 452.92,-143.99 462.05,-146.17"/>
<polygon fill="#63b8ff" stroke="#63b8ff" points="461.39,-149.6 471.92,-148.5 463,-142.79 461.39,-149.6"/>
</a>
</g>
</g>
<!-- Node5 -->
<g id="Node000005" class="node">
<title>Node5</title>
<g id="a_Node000005"><a xlink:href="classCommandHandler.html#ac790edbe2bf25d3e09ae3b43f0948204" target="_top" xlink:title="Gets the free heap size.">
<polygon fill="white" stroke="#666666" points="627,-130 454,-130 454,-111 627,-111 627,-130"/>
<text text-anchor="middle" x="540.5" y="-118" font-family="Helvetica,sans-Serif" font-size="10.00">CommandHandler::getFreeHeap</text>
</a>
</g>
</g>
<!-- Node2&#45;&gt;Node5 -->
<g id="edge4_Node000002_Node000005" class="edge">
<title>Node2&#45;&gt;Node5</title>
<g id="a_edge4_Node000002_Node000005"><a xlink:title=" ">
<path fill="none" stroke="#63b8ff" d="M399.09,-109.34C413.82,-110.51 428.99,-111.71 443.66,-112.88"/>
<polygon fill="#63b8ff" stroke="#63b8ff" points="443.48,-116.38 453.73,-113.68 444.04,-109.4 443.48,-116.38"/>
</a>
</g>
</g>
<!-- Node6 -->
<g id="Node000006" class="node">
<title>Node6</title>
<g id="a_Node000006"><a xlink:href="classCommandHandler.html#aacc693ccd17d6450b53c11dd8c348fe3" target="_top" xlink:title="Gets the free internal heap size.">
<polygon fill="white" stroke="#666666" points="646,-93 435,-93 435,-74 646,-74 646,-93"/>
<text text-anchor="middle" x="540.5" y="-81" font-family="Helvetica,sans-Serif" font-size="10.00">CommandHandler::getFreeInternalHeap</text>
</a>
</g>
</g>
<!-- Node2&#45;&gt;Node6 -->
<g id="edge5_Node000002_Node000006" class="edge">
<title>Node2&#45;&gt;Node6</title>
<g id="a_edge5_Node000002_Node000006"><a xlink:title=" ">
<path fill="none" stroke="#63b8ff" d="M399.09,-94.07C407.59,-93.43 416.24,-92.78 424.86,-92.13"/>
<polygon fill="#63b8ff" stroke="#63b8ff" points="425.23,-95.62 434.94,-91.37 424.71,-88.64 425.23,-95.62"/>
</a>
</g>
</g>
<!-- Node7 -->
<g id="Node000007" class="node">
<title>Node7</title>
<g id="a_Node000007"><a xlink:href="classCommandHandler.html#a84ae2c9bac0c26056bf404a7e907142a" target="_top" xlink:title="Gets the free minimum heap size.">
<polygon fill="white" stroke="#666666" points="636,-56 445,-56 445,-37 636,-37 636,-56"/>
<text text-anchor="middle" x="540.5" y="-44" font-family="Helvetica,sans-Serif" font-size="10.00">CommandHandler::getFreeMinHeap</text>
</a>
</g>
</g>
<!-- Node2&#45;&gt;Node7 -->
<g id="edge6_Node000002_Node000007" class="edge">
<title>Node2&#45;&gt;Node7</title>
<g id="a_edge6_Node000002_Node000007"><a xlink:title=" ">
<path fill="none" stroke="#63b8ff" d="M333.2,-91.94C360.33,-84.21 399.97,-73.36 435,-65.5 447.07,-62.79 459.98,-60.2 472.48,-57.85"/>
<polygon fill="#63b8ff" stroke="#63b8ff" points="473.19,-61.28 482.38,-56.01 471.91,-54.39 473.19,-61.28"/>
</a>
</g>
</g>
<!-- Node8 -->
<g id="Node000008" class="node">
<title>Node8</title>
<g id="a_Node000008"><a xlink:href="classCommandHandler.html#a85571f4b4a8c2ca92146f167c08c6c94" target="_top" xlink:title="Gets the IDF version.">
<polygon fill="white" stroke="#666666" points="628.5,-19 452.5,-19 452.5,0 628.5,0 628.5,-19"/>
<text text-anchor="middle" x="540.5" y="-7" font-family="Helvetica,sans-Serif" font-size="10.00">CommandHandler::getIdfVersion</text>
</a>
</g>
</g>
<!-- Node2&#45;&gt;Node8 -->
<g id="edge7_Node000002_Node000008" class="edge">
<title>Node2&#45;&gt;Node8</title>
<g id="a_edge7_Node000002_Node000008"><a xlink:title=" ">
<path fill="none" stroke="#63b8ff" d="M314.71,-91.79C338.51,-76.01 388.39,-44.91 435,-28.5 442.88,-25.73 451.23,-23.34 459.66,-21.29"/>
<polygon fill="#63b8ff" stroke="#63b8ff" points="460.58,-24.67 469.56,-19.04 459.03,-17.84 460.58,-24.67"/>
</a>
</g>
</g>
</g>
</svg>

<g id="navigator" transform="translate(0 0)" fill="#404254">
  <rect fill="#f2f5e9" fill-opacity="0.5" stroke="#606060" stroke-width=".5" x="0" y="0" width="60" height="60"/>
  <use id="zoomplus" xlink:href="#zoomPlus" x="17" y="9" onmousedown="handleZoom(evt,'in')"/>
  <use id="zoomminus" xlink:href="#zoomMin" x="42" y="9" onmousedown="handleZoom(evt,'out')"/>
  <use id="reset" xlink:href="#resetDef" x="30" y="36" onmousedown="handleReset()"/>
   <use id="arrowup" xlink:href="#arrowUp" x="0" y="0" onmousedown="handlePan(0,-1)"/>
  <use id="arrowright" xlink:href="#arrowRight" x="0" y="0" onmousedown="handlePan(1,0)"/>
  <use id="arrowdown" xlink:href="#arrowDown" x="0" y="0" onmousedown="handlePan(0,1)"/>
  <use id="arrowleft" xlink:href="#arrowLeft" x="0" y="0" onmousedown="handlePan(-1,0)"/>
</g>
<svg viewBox="0 0 15 15" width="100%" height="30px" preserveAspectRatio="xMaxYMin meet">
 <g id="arrow_out" transform="scale(0.3 0.3)">
  <a xlink:href="classDataParser_ace3045f2c668ba902bad75ab3b30b7ac_cgraph_org.svg" target="_base">
   <rect id="button" ry="5" rx="5" y="6" x="6" height="38" width="38"
        fill="#f2f5e9" fill-opacity="0.5" stroke="#606060" stroke-width="1.0"/>
   <path id="arrow"
     d="M 11.500037,31.436501 C 11.940474,20.09759 22.043105,11.32322 32.158766,21.979434 L 37.068811,17.246167 C 37.068811,17.246167 37.088388,32 37.088388,32 L 22.160133,31.978069 C 22.160133,31.978069 26.997745,27.140456 26.997745,27.140456 C 18.528582,18.264221 13.291696,25.230495 11.500037,31.436501 z"
     style="fill:#404040;"/>
  </a>
 </g>
</svg>

<style type='text/css'>
<![CDATA[
[data-mouse-over-selected='false'] { opacity: 0.7; }
[data-mouse-over-selected='true']  { opacity: 1.0; }
]]>
</style>
<script type="application/ecmascript"><![CDATA[
document.addEventListener('DOMContentLoaded', (event) => {
  highlightEdges();
  highlightAdjacentNodes();
});
]]></script>
</svg>
