<?xml version="1.0" encoding="UTF-8" standalone="no"?>
<!DOCTYPE svg PUBLIC "-//W3C//DTD SVG 1.1//EN"
 "http://www.w3.org/Graphics/SVG/1.1/DTD/svg11.dtd">
<!-- Generated by graphviz version 2.43.0 (0)
 -->
<!-- Title: BLE_Server::handle_event_gatts Pages: 1 -->
<svg width="453pt" height="38pt"
 viewBox="0.00 0.00 453.00 38.00" xmlns="http://www.w3.org/2000/svg" xmlns:xlink="http://www.w3.org/1999/xlink">
<g id="graph0" class="graph" transform="scale(1 1) rotate(0) translate(4 34)">
<title>BLE_Server::handle_event_gatts</title>
<!-- Node1 -->
<g id="Node000001" class="node">
<title>Node1</title>
<g id="a_Node000001"><a xlink:title="Handle GATT server events.">
<polygon fill="#999999" stroke="#666666" points="445,-30 335,-30 335,0 445,0 445,-30"/>
<text text-anchor="start" x="343" y="-18" font-family="Helvetica,sans-Serif" font-size="10.00">BLE_Server::handle</text>
<text text-anchor="middle" x="390" y="-7" font-family="Helvetica,sans-Serif" font-size="10.00">_event_gatts</text>
</a>
</g>
</g>
<!-- Node2 -->
<g id="Node000002" class="node">
<title>Node2</title>
<g id="a_Node000002"><a xlink:href="classBLE__Server.html#aefba7a76c89cbf2e1a77b6a4803b9480" target="_top" xlink:title="Static handler for GATT server events.">
<polygon fill="white" stroke="#666666" points="299,-30 164,-30 164,0 299,0 299,-30"/>
<text text-anchor="start" x="172" y="-18" font-family="Helvetica,sans-Serif" font-size="10.00">BLE_Server::gatts_event</text>
<text text-anchor="middle" x="231.5" y="-7" font-family="Helvetica,sans-Serif" font-size="10.00">_handler</text>
</a>
</g>
</g>
<!-- Node1&#45;&gt;Node2 -->
<g id="edge1_Node000001_Node000002" class="edge">
<title>Node1&#45;&gt;Node2</title>
<g id="a_edge1_Node000001_Node000002"><a xlink:title=" ">
<path fill="none" stroke="#63b8ff" d="M324.59,-15C316.18,-15 307.56,-15 299.12,-15"/>
<polygon fill="#63b8ff" stroke="#63b8ff" points="324.7,-18.5 334.7,-15 324.7,-11.5 324.7,-18.5"/>
</a>
</g>
</g>
<!-- Node3 -->
<g id="Node000003" class="node">
<title>Node3</title>
<g id="a_Node000003"><a xlink:href="classBLE__Server.html#ac7febc9f3fabef14344b8efeb05c5aa4" target="_top" xlink:title="Set up the BLE connection.">
<polygon fill="white" stroke="#666666" points="128,-24.5 0,-24.5 0,-5.5 128,-5.5 128,-24.5"/>
<text text-anchor="middle" x="64" y="-12.5" font-family="Helvetica,sans-Serif" font-size="10.00">BLE_Server::connSetup</text>
</a>
</g>
</g>
<!-- Node2&#45;&gt;Node3 -->
<g id="edge2_Node000002_Node000003" class="edge">
<title>Node2&#45;&gt;Node3</title>
<g id="a_edge2_Node000002_Node000003"><a xlink:title=" ">
<path fill="none" stroke="#63b8ff" d="M153.38,-15C144.9,-15 136.35,-15 128.07,-15"/>
<polygon fill="#63b8ff" stroke="#63b8ff" points="153.66,-18.5 163.66,-15 153.66,-11.5 153.66,-18.5"/>
</a>
</g>
</g>
</g>
</svg>
