<?xml version="1.0" encoding="UTF-8" standalone="no"?>
<!DOCTYPE svg PUBLIC "-//W3C//DTD SVG 1.1//EN"
 "http://www.w3.org/Graphics/SVG/1.1/DTD/svg11.dtd">
<!-- Generated by graphviz version 2.43.0 (0)
 -->
<!-- Title: rtos::Semaphore::tryAcquire Pages: 1 -->
<svg width="327pt" height="76pt"
 viewBox="0.00 0.00 327.00 75.50" xmlns="http://www.w3.org/2000/svg" xmlns:xlink="http://www.w3.org/1999/xlink">
<g id="graph0" class="graph" transform="scale(1 1) rotate(0) translate(4 71.5)">
<title>rtos::Semaphore::tryAcquire</title>
<!-- Node1 -->
<g id="Node000001" class="node">
<title>Node1</title>
<g id="a_Node000001"><a xlink:title=" ">
<polygon fill="#999999" stroke="#666666" points="153,-40 0,-40 0,-21 153,-21 153,-40"/>
<text text-anchor="middle" x="76.5" y="-28" font-family="Helvetica,sans-Serif" font-size="10.00">rtos::Semaphore::tryAcquire</text>
</a>
</g>
</g>
<!-- Node2 -->
<g id="Node000002" class="node">
<title>Node2</title>
<g id="a_Node000002"><a xlink:href="namespacertos.html#ab639bc0e6fe1767a1615076c0eb588b9" target="_top" xlink:title=" ">
<polygon fill="white" stroke="#666666" points="319,-67.5 189,-67.5 189,-37.5 319,-37.5 319,-67.5"/>
<text text-anchor="start" x="197" y="-55.5" font-family="Helvetica,sans-Serif" font-size="10.00">rtos::isInterruptContext</text>
<text text-anchor="middle" x="254" y="-44.5" font-family="Helvetica,sans-Serif" font-size="10.00">Acive</text>
</a>
</g>
</g>
<!-- Node1&#45;&gt;Node2 -->
<g id="edge1_Node000001_Node000002" class="edge">
<title>Node1&#45;&gt;Node2</title>
<g id="a_edge1_Node000001_Node000002"><a xlink:title=" ">
<path fill="none" stroke="#63b8ff" d="M153.2,-39.99C161.64,-41.05 170.24,-42.13 178.66,-43.18"/>
<polygon fill="#63b8ff" stroke="#63b8ff" points="178.48,-46.69 188.83,-44.46 179.35,-39.74 178.48,-46.69"/>
</a>
</g>
</g>
<!-- Node3 -->
<g id="Node000003" class="node">
<title>Node3</title>
<g id="a_Node000003"><a xlink:href="namespacertos.html#a9743ef165638b180f24529f8b99f48a2" target="_top" xlink:title=" ">
<polygon fill="white" stroke="#666666" points="300,-19 208,-19 208,0 300,0 300,-19"/>
<text text-anchor="middle" x="254" y="-7" font-family="Helvetica,sans-Serif" font-size="10.00">rtos::msToTicks</text>
</a>
</g>
</g>
<!-- Node1&#45;&gt;Node3 -->
<g id="edge2_Node000001_Node000003" class="edge">
<title>Node1&#45;&gt;Node3</title>
<g id="a_edge2_Node000001_Node000003"><a xlink:title=" ">
<path fill="none" stroke="#63b8ff" d="M153.2,-21.44C168.13,-19.66 183.54,-17.81 197.64,-16.12"/>
<polygon fill="#63b8ff" stroke="#63b8ff" points="198.14,-19.59 207.66,-14.93 197.31,-12.64 198.14,-19.59"/>
</a>
</g>
</g>
</g>
</svg>
