<?xml version="1.0" encoding="UTF-8" standalone="no"?>
<!DOCTYPE svg PUBLIC "-//W3C//DTD SVG 1.1//EN"
 "http://www.w3.org/Graphics/SVG/1.1/DTD/svg11.dtd">
<!-- Generated by graphviz version 2.43.0 (0)
 -->
<!-- Title: BLE_Server::gatts_event_handler Pages: 1 -->
<svg width="641pt" height="76pt"
 viewBox="0.00 0.00 641.00 75.50" xmlns="http://www.w3.org/2000/svg" xmlns:xlink="http://www.w3.org/1999/xlink">
<g id="graph0" class="graph" transform="scale(1 1) rotate(0) translate(4 71.5)">
<title>BLE_Server::gatts_event_handler</title>
<!-- Node1 -->
<g id="Node000001" class="node">
<title>Node1</title>
<g id="a_Node000001"><a xlink:title="Static handler for GATT server events.">
<polygon fill="#999999" stroke="#666666" points="135,-45.5 0,-45.5 0,-15.5 135,-15.5 135,-45.5"/>
<text text-anchor="start" x="8" y="-33.5" font-family="Helvetica,sans-Serif" font-size="10.00">BLE_Server::gatts_event</text>
<text text-anchor="middle" x="67.5" y="-22.5" font-family="Helvetica,sans-Serif" font-size="10.00">_handler</text>
</a>
</g>
</g>
<!-- Node2 -->
<g id="Node000002" class="node">
<title>Node2</title>
<g id="a_Node000002"><a xlink:href="classBLE__Server.html#a10fb545066a7d87cffc2bc7dcea2af93" target="_top" xlink:title="Handle GATT server events.">
<polygon fill="white" stroke="#666666" points="281,-45.5 171,-45.5 171,-15.5 281,-15.5 281,-45.5"/>
<text text-anchor="start" x="179" y="-33.5" font-family="Helvetica,sans-Serif" font-size="10.00">BLE_Server::handle</text>
<text text-anchor="middle" x="226" y="-22.5" font-family="Helvetica,sans-Serif" font-size="10.00">_event_gatts</text>
</a>
</g>
</g>
<!-- Node1&#45;&gt;Node2 -->
<g id="edge1_Node000001_Node000002" class="edge">
<title>Node1&#45;&gt;Node2</title>
<g id="a_edge1_Node000001_Node000002"><a xlink:title=" ">
<path fill="none" stroke="#63b8ff" d="M135.32,-30.5C143.71,-30.5 152.28,-30.5 160.63,-30.5"/>
<polygon fill="#63b8ff" stroke="#63b8ff" points="160.67,-34 170.67,-30.5 160.67,-27 160.67,-34"/>
</a>
</g>
</g>
<!-- Node3 -->
<g id="Node000003" class="node">
<title>Node3</title>
<g id="a_Node000003"><a xlink:href="classBLE__Server.html#aed37e58d3aea41553b836bed10952aea" target="_top" xlink:title="Get the name of a GATT server event.">
<polygon fill="white" stroke="#666666" points="442.5,-67.5 319.5,-67.5 319.5,-37.5 442.5,-37.5 442.5,-67.5"/>
<text text-anchor="start" x="327.5" y="-55.5" font-family="Helvetica,sans-Serif" font-size="10.00">BLE_Server::get_gatts</text>
<text text-anchor="middle" x="381" y="-44.5" font-family="Helvetica,sans-Serif" font-size="10.00">_event_name</text>
</a>
</g>
</g>
<!-- Node2&#45;&gt;Node3 -->
<g id="edge2_Node000002_Node000003" class="edge">
<title>Node2&#45;&gt;Node3</title>
<g id="a_edge2_Node000002_Node000003"><a xlink:title=" ">
<path fill="none" stroke="#63b8ff" d="M281.37,-38.32C290.39,-39.62 299.86,-40.98 309.22,-42.32"/>
<polygon fill="#63b8ff" stroke="#63b8ff" points="308.9,-45.81 319.3,-43.77 309.9,-38.88 308.9,-45.81"/>
</a>
</g>
</g>
<!-- Node4 -->
<g id="Node000004" class="node">
<title>Node4</title>
<g id="a_Node000004"><a xlink:href="classMessageHandler.html#a43e563eaac4cb8183d977678d7fdd5aa" target="_top" xlink:title="Sends a message to the specified internal message queue.">
<polygon fill="white" stroke="#666666" points="445,-19 317,-19 317,0 445,0 445,-19"/>
<text text-anchor="middle" x="381" y="-7" font-family="Helvetica,sans-Serif" font-size="10.00">MessageHandler::send</text>
</a>
</g>
</g>
<!-- Node2&#45;&gt;Node4 -->
<g id="edge3_Node000002_Node000004" class="edge">
<title>Node2&#45;&gt;Node4</title>
<g id="a_edge3_Node000002_Node000004"><a xlink:title=" ">
<path fill="none" stroke="#63b8ff" d="M281.37,-23.04C289.65,-21.9 298.3,-20.71 306.89,-19.53"/>
<polygon fill="#63b8ff" stroke="#63b8ff" points="307.49,-22.98 316.92,-18.16 306.54,-16.05 307.49,-22.98"/>
</a>
</g>
</g>
<!-- Node5 -->
<g id="Node000005" class="node">
<title>Node5</title>
<g id="a_Node000005"><a xlink:href="classMessageHandler.html#afb781c303001059d81235464ae91e0bd" target="_top" xlink:title="Internal helper to retrieve the appropriate message queue.">
<polygon fill="white" stroke="#666666" points="633,-19 481,-19 481,0 633,0 633,-19"/>
<text text-anchor="middle" x="557" y="-7" font-family="Helvetica,sans-Serif" font-size="10.00">MessageHandler::getQueue</text>
</a>
</g>
</g>
<!-- Node4&#45;&gt;Node5 -->
<g id="edge4_Node000004_Node000005" class="edge">
<title>Node4&#45;&gt;Node5</title>
<g id="a_edge4_Node000004_Node000005"><a xlink:title=" ">
<path fill="none" stroke="#63b8ff" d="M445.31,-9.5C453.62,-9.5 462.24,-9.5 470.84,-9.5"/>
<polygon fill="#63b8ff" stroke="#63b8ff" points="470.91,-13 480.91,-9.5 470.91,-6 470.91,-13"/>
</a>
</g>
</g>
</g>
</svg>
