<?xml version="1.0" encoding="UTF-8" standalone="no"?>
<!DOCTYPE svg PUBLIC "-//W3C//DTD SVG 1.1//EN"
 "http://www.w3.org/Graphics/SVG/1.1/DTD/svg11.dtd">
<!-- Generated by graphviz version 2.43.0 (0)
 -->
<!-- Title: MessageHandler::receive Pages: 1 -->
<!--zoomable 177 -->

<svg id="main" version="1.1" xmlns="http://www.w3.org/2000/svg" xmlns:xlink="http://www.w3.org/1999/xlink" xml:space="preserve" onload="init(evt)">
<style type="text/css"><![CDATA[
.node, .edge {opacity: 0.7;}
.node.selected, .edge.selected {opacity: 1;}
.edge:hover path { stroke: red; }
.edge:hover polygon { stroke: red; fill: red; }
]]></style>

<defs>
  <circle id="rim" cx="0" cy="0" r="7"/>
  <circle id="rim2" cx="0" cy="0" r="3.5"/>
  <g id="zoomPlus">
    <use xlink:href="#rim" fill="#404040"><set attributeName="fill" to="#808080" begin="zoomplus.mouseover" end="zoomplus.mouseout"/></use>
    <path d="M-4,0h8M0,-4v8" fill="none" stroke="white" stroke-width="1.5" pointer-events="none"/>
  </g>
  <g id="zoomMin">
    <use xlink:href="#rim" fill="#404040"><set attributeName="fill" to="#808080" begin="zoomminus.mouseover" end="zoomminus.mouseout"/></use>
    <path d="M-4,0h8" fill="none" stroke="white" stroke-width="1.5" pointer-events="none"/>
  </g>
  <g id="arrowUp" transform="translate(30 24)">
    <use xlink:href="#rim"/>
    <path pointer-events="none" fill="none" stroke="white" stroke-width="1.5" d="M0,-3.0v7 M-2.5,-0.5L0,-3.0L2.5,-0.5"/>
  </g>
  <g id="arrowRight" transform="rotate(90) translate(36 -43)">
    <use xlink:href="#rim"/>
    <path pointer-events="none" fill="none" stroke="white" stroke-width="1.5" d="M0,-3.0v7 M-2.5,-0.5L0,-3.0L2.5,-0.5"/>
  </g>
  <g id="arrowDown" transform="rotate(180) translate(-30 -48)">
    <use xlink:href="#rim"/>
    <path pointer-events="none" fill="none" stroke="white" stroke-width="1.5" d="M0,-3.0v7 M-2.5,-0.5L0,-3.0L2.5,-0.5"/>
  </g>
  <g id="arrowLeft" transform="rotate(270) translate(-36 17)">
    <use xlink:href="#rim"/>
    <path pointer-events="none" fill="none" stroke="white" stroke-width="1.5" d="M0,-3.0v7 M-2.5,-0.5L0,-3.0L2.5,-0.5"/>
  </g>
  <g id="resetDef">
    <use xlink:href="#rim2" fill="#404040"><set attributeName="fill" to="#808080" begin="reset.mouseover" end="reset.mouseout"/></use>
  </g>
</defs>
<script type="application/ecmascript">
var viewWidth = 562;
var viewHeight = 177;
var sectionId = 'dynsection-4';
</script>
<script type="application/ecmascript" xlink:href="svg.min.js"/>
<svg id="graph" class="graph">
<g id="viewport">
<title>MessageHandler::receive</title>
<!-- Node1 -->
<g id="Node000001" class="node">
<title>Node1</title>
<g id="a_Node000001"><a xlink:title="Receives a message from the specified internal queue.">
<polygon fill="#999999" stroke="#666666" points="554,-93 414,-93 414,-74 554,-74 554,-93"/>
<text text-anchor="middle" x="484" y="-81" font-family="Helvetica,sans-Serif" font-size="10.00">MessageHandler::receive</text>
</a>
</g>
</g>
<!-- Node2 -->
<g id="Node000002" class="node">
<title>Node2</title>
<g id="a_Node000002"><a xlink:href="classDataParser.html#a456ecb1ff09e80bf9280b628adc47239" target="_top" xlink:title="Runs a continuous task that receives and processes messages from the parser queue.">
<polygon fill="white" stroke="#666666" points="378,-169 229,-169 229,-150 378,-150 378,-169"/>
<text text-anchor="middle" x="303.5" y="-157" font-family="Helvetica,sans-Serif" font-size="10.00">DataParser::dataParserTask</text>
</a>
</g>
</g>
<!-- Node1&#45;&gt;Node2 -->
<g id="edge1_Node000001_Node000002" class="edge">
<title>Node1&#45;&gt;Node2</title>
<g id="a_edge1_Node000001_Node000002"><a xlink:title=" ">
<path fill="none" stroke="#63b8ff" d="M456.6,-97.9C435.65,-109 405.44,-124.3 378,-135.5 364.83,-140.88 349.96,-145.92 337.06,-149.98"/>
<polygon fill="#63b8ff" stroke="#63b8ff" points="458.36,-100.93 465.52,-93.13 455.05,-94.76 458.36,-100.93"/>
</a>
</g>
</g>
<!-- Node5 -->
<g id="Node000005" class="node">
<title>Node5</title>
<g id="a_Node000005"><a xlink:href="main_8cpp.html#ac672c86fb27ee5d971791cf8570ec137" target="_top" xlink:title=" ">
<polygon fill="white" stroke="#666666" points="193,-131 101,-131 101,-112 193,-112 193,-131"/>
<text text-anchor="middle" x="147" y="-119" font-family="Helvetica,sans-Serif" font-size="10.00">getBleInterface</text>
</a>
</g>
</g>
<!-- Node1&#45;&gt;Node5 -->
<g id="edge4_Node000001_Node000005" class="edge">
<title>Node1&#45;&gt;Node5</title>
<g id="a_edge4_Node000001_Node000005"><a xlink:title=" ">
<path fill="none" stroke="#63b8ff" d="M425.88,-94.87C410.39,-97.67 393.59,-100.45 378,-102.5 314.04,-110.91 239.56,-116.26 193.09,-119.07"/>
<polygon fill="#63b8ff" stroke="#63b8ff" points="426.65,-98.29 435.85,-93.03 425.38,-91.4 426.65,-98.29"/>
</a>
</g>
</g>
<!-- Node6 -->
<g id="Node000006" class="node">
<title>Node6</title>
<g id="a_Node000006"><a xlink:href="classBLE__Client.html#a76b22fa8ec94b8475dfda8e01e36bf64" target="_top" xlink:title="Handles periodic sending tasks using the provided MessageHandler.">
<polygon fill="white" stroke="#666666" points="363,-93 244,-93 244,-74 363,-74 363,-93"/>
<text text-anchor="middle" x="303.5" y="-81" font-family="Helvetica,sans-Serif" font-size="10.00">BLE_Client::sendTask</text>
</a>
</g>
</g>
<!-- Node1&#45;&gt;Node6 -->
<g id="edge6_Node000001_Node000006" class="edge">
<title>Node1&#45;&gt;Node6</title>
<g id="a_edge6_Node000001_Node000006"><a xlink:title=" ">
<path fill="none" stroke="#63b8ff" d="M403.66,-83.5C390.05,-83.5 376.13,-83.5 363.18,-83.5"/>
<polygon fill="#63b8ff" stroke="#63b8ff" points="403.99,-87 413.99,-83.5 403.99,-80 403.99,-87"/>
</a>
</g>
</g>
<!-- Node7 -->
<g id="Node000007" class="node">
<title>Node7</title>
<g id="a_Node000007"><a xlink:href="classBLE__Server.html#abf68e2a971c885eecea8a3f15a5cdd52" target="_top" xlink:title="Task to send data using a message handler.">
<polygon fill="white" stroke="#666666" points="364.5,-56 242.5,-56 242.5,-37 364.5,-37 364.5,-56"/>
<text text-anchor="middle" x="303.5" y="-44" font-family="Helvetica,sans-Serif" font-size="10.00">BLE_Server::sendTask</text>
</a>
</g>
</g>
<!-- Node1&#45;&gt;Node7 -->
<g id="edge7_Node000001_Node000007" class="edge">
<title>Node1&#45;&gt;Node7</title>
<g id="a_edge7_Node000001_Node000007"><a xlink:title=" ">
<path fill="none" stroke="#63b8ff" d="M427.11,-71.92C402.52,-66.82 373.98,-60.9 350.62,-56.06"/>
<polygon fill="#63b8ff" stroke="#63b8ff" points="426.53,-75.37 437.03,-73.97 427.95,-68.51 426.53,-75.37"/>
</a>
</g>
</g>
<!-- Node8 -->
<g id="Node000008" class="node">
<title>Node8</title>
<g id="a_Node000008"><a xlink:href="classUart.html#a1e251525523677bf41341371c4a240f6" target="_top" xlink:title="Task function to transmit data from a queue to UART.">
<polygon fill="white" stroke="#666666" points="348,-19 259,-19 259,0 348,0 348,-19"/>
<text text-anchor="middle" x="303.5" y="-7" font-family="Helvetica,sans-Serif" font-size="10.00">Uart::sendTask</text>
</a>
</g>
</g>
<!-- Node1&#45;&gt;Node8 -->
<g id="edge8_Node000001_Node000008" class="edge">
<title>Node1&#45;&gt;Node8</title>
<g id="a_edge8_Node000001_Node000008"><a xlink:title=" ">
<path fill="none" stroke="#63b8ff" d="M459.16,-68.56C438.39,-56.09 407.12,-38.63 378,-27.5 368.55,-23.89 358.14,-20.82 348.19,-18.3"/>
<polygon fill="#63b8ff" stroke="#63b8ff" points="457.56,-71.68 467.92,-73.89 461.2,-65.7 457.56,-71.68"/>
</a>
</g>
</g>
<!-- Node3 -->
<g id="Node000003" class="node">
<title>Node3</title>
<g id="a_Node000003"><a xlink:href="main_8cpp.html#a92ec7e7e48c2ce7af99bb362b83e32a8" target="_top" xlink:title=" ">
<polygon fill="white" stroke="#666666" points="192,-168 102,-168 102,-149 192,-149 192,-168"/>
<text text-anchor="middle" x="147" y="-156" font-family="Helvetica,sans-Serif" font-size="10.00">dataParserTask</text>
</a>
</g>
</g>
<!-- Node2&#45;&gt;Node3 -->
<g id="edge2_Node000002_Node000003" class="edge">
<title>Node2&#45;&gt;Node3</title>
<g id="a_edge2_Node000002_Node000003"><a xlink:title=" ">
<path fill="none" stroke="#63b8ff" d="M218.83,-158.96C209.61,-158.9 200.5,-158.84 192.05,-158.79"/>
<polygon fill="#63b8ff" stroke="#63b8ff" points="218.85,-162.46 228.87,-159.02 218.89,-155.46 218.85,-162.46"/>
</a>
</g>
</g>
<!-- Node4 -->
<g id="Node000004" class="node">
<title>Node4</title>
<g id="a_Node000004"><a xlink:href="main_8cpp.html#a630544a7f0a2cc40d8a7fefab7e2fe70" target="_top" xlink:title=" ">
<polygon fill="white" stroke="#666666" points="65,-131 0,-131 0,-112 65,-112 65,-131"/>
<text text-anchor="middle" x="32.5" y="-119" font-family="Helvetica,sans-Serif" font-size="10.00">app_main</text>
</a>
</g>
</g>
<!-- Node3&#45;&gt;Node4 -->
<g id="edge3_Node000003_Node000004" class="edge">
<title>Node3&#45;&gt;Node4</title>
<g id="a_edge3_Node000003_Node000004"><a xlink:title=" ">
<path fill="none" stroke="#63b8ff" d="M107.26,-145.76C92.68,-140.96 76.35,-135.59 62.76,-131.12"/>
<polygon fill="#63b8ff" stroke="#63b8ff" points="106.44,-149.17 117.03,-148.97 108.62,-142.52 106.44,-149.17"/>
</a>
</g>
</g>
<!-- Node5&#45;&gt;Node4 -->
<g id="edge5_Node000005_Node000004" class="edge">
<title>Node5&#45;&gt;Node4</title>
<g id="a_edge5_Node000005_Node000004"><a xlink:title=" ">
<path fill="none" stroke="#63b8ff" d="M90.67,-121.5C81.9,-121.5 73.11,-121.5 65.13,-121.5"/>
<polygon fill="#63b8ff" stroke="#63b8ff" points="90.89,-125 100.89,-121.5 90.89,-118 90.89,-125"/>
</a>
</g>
</g>
<!-- Node9 -->
<g id="Node000009" class="node">
<title>Node9</title>
<g id="a_Node000009"><a xlink:href="main_8cpp.html#a9a1ff8d552650f42d63d78590253bf6d" target="_top" xlink:title=" ">
<polygon fill="white" stroke="#666666" points="188,-57 106,-57 106,-38 188,-38 188,-57"/>
<text text-anchor="middle" x="147" y="-45" font-family="Helvetica,sans-Serif" font-size="10.00">uartSendTask</text>
</a>
</g>
</g>
<!-- Node8&#45;&gt;Node9 -->
<g id="edge9_Node000008_Node000009" class="edge">
<title>Node8&#45;&gt;Node9</title>
<g id="a_edge9_Node000008_Node000009"><a xlink:title=" ">
<path fill="none" stroke="#63b8ff" d="M253.69,-21.44C245.45,-23.46 236.98,-25.54 229,-27.5 215.22,-30.89 200.11,-34.62 186.73,-37.92"/>
<polygon fill="#63b8ff" stroke="#63b8ff" points="254.71,-24.79 263.59,-19.01 253.04,-17.99 254.71,-24.79"/>
</a>
</g>
</g>
<!-- Node9&#45;&gt;Node4 -->
<g id="edge10_Node000009_Node000004" class="edge">
<title>Node9&#45;&gt;Node4</title>
<g id="a_edge10_Node000009_Node000004"><a xlink:title=" ">
<path fill="none" stroke="#63b8ff" d="M122.72,-62.82C100.32,-77.54 67.16,-99.36 48.21,-111.82"/>
<polygon fill="#63b8ff" stroke="#63b8ff" points="124.86,-65.59 131.29,-57.17 121.01,-59.75 124.86,-65.59"/>
</a>
</g>
</g>
</g>
</svg>

<g id="navigator" transform="translate(0 0)" fill="#404254">
  <rect fill="#f2f5e9" fill-opacity="0.5" stroke="#606060" stroke-width=".5" x="0" y="0" width="60" height="60"/>
  <use id="zoomplus" xlink:href="#zoomPlus" x="17" y="9" onmousedown="handleZoom(evt,'in')"/>
  <use id="zoomminus" xlink:href="#zoomMin" x="42" y="9" onmousedown="handleZoom(evt,'out')"/>
  <use id="reset" xlink:href="#resetDef" x="30" y="36" onmousedown="handleReset()"/>
   <use id="arrowup" xlink:href="#arrowUp" x="0" y="0" onmousedown="handlePan(0,-1)"/>
  <use id="arrowright" xlink:href="#arrowRight" x="0" y="0" onmousedown="handlePan(1,0)"/>
  <use id="arrowdown" xlink:href="#arrowDown" x="0" y="0" onmousedown="handlePan(0,1)"/>
  <use id="arrowleft" xlink:href="#arrowLeft" x="0" y="0" onmousedown="handlePan(-1,0)"/>
</g>
<svg viewBox="0 0 15 15" width="100%" height="30px" preserveAspectRatio="xMaxYMin meet">
 <g id="arrow_out" transform="scale(0.3 0.3)">
  <a xlink:href="classMessageHandler_a86ae4992eac980513acf1fe723f98238_icgraph_org.svg" target="_base">
   <rect id="button" ry="5" rx="5" y="6" x="6" height="38" width="38"
        fill="#f2f5e9" fill-opacity="0.5" stroke="#606060" stroke-width="1.0"/>
   <path id="arrow"
     d="M 11.500037,31.436501 C 11.940474,20.09759 22.043105,11.32322 32.158766,21.979434 L 37.068811,17.246167 C 37.068811,17.246167 37.088388,32 37.088388,32 L 22.160133,31.978069 C 22.160133,31.978069 26.997745,27.140456 26.997745,27.140456 C 18.528582,18.264221 13.291696,25.230495 11.500037,31.436501 z"
     style="fill:#404040;"/>
  </a>
 </g>
</svg>

<style type='text/css'>
<![CDATA[
[data-mouse-over-selected='false'] { opacity: 0.7; }
[data-mouse-over-selected='true']  { opacity: 1.0; }
]]>
</style>
<script type="application/ecmascript"><![CDATA[
document.addEventListener('DOMContentLoaded', (event) => {
  highlightEdges();
  highlightAdjacentNodes();
});
]]></script>
</svg>
