<?xml version="1.0" encoding="UTF-8" standalone="no"?>
<!DOCTYPE svg PUBLIC "-//W3C//DTD SVG 1.1//EN"
 "http://www.w3.org/Graphics/SVG/1.1/DTD/svg11.dtd">
<!-- Generated by graphviz version 2.43.0 (0)
 -->
<!-- Title: Uart::receive Pages: 1 -->
<svg width="459pt" height="64pt"
 viewBox="0.00 0.00 459.00 64.00" xmlns="http://www.w3.org/2000/svg" xmlns:xlink="http://www.w3.org/1999/xlink">
<g id="graph0" class="graph" transform="scale(1 1) rotate(0) translate(4 60)">
<title>Uart::receive</title>
<!-- Node1 -->
<g id="Node000001" class="node">
<title>Node1</title>
<g id="a_Node000001"><a xlink:title="Receive data from UART event.">
<polygon fill="#999999" stroke="#666666" points="451,-37 371,-37 371,-18 451,-18 451,-37"/>
<text text-anchor="middle" x="411" y="-25" font-family="Helvetica,sans-Serif" font-size="10.00">Uart::receive</text>
</a>
</g>
</g>
<!-- Node2 -->
<g id="Node000002" class="node">
<title>Node2</title>
<g id="a_Node000002"><a xlink:href="classUart.html#a7e4639969ae7afcfddcf7908e0b29e54" target="_top" xlink:title="Task function to read characters from UART and buffer input.">
<polygon fill="white" stroke="#666666" points="335,-37 234,-37 234,-18 335,-18 335,-37"/>
<text text-anchor="middle" x="284.5" y="-25" font-family="Helvetica,sans-Serif" font-size="10.00">Uart::receiveTask</text>
</a>
</g>
</g>
<!-- Node1&#45;&gt;Node2 -->
<g id="edge1_Node000001_Node000002" class="edge">
<title>Node1&#45;&gt;Node2</title>
<g id="a_edge1_Node000001_Node000002"><a xlink:title=" ">
<path fill="none" stroke="#63b8ff" d="M360.93,-27.5C352.54,-27.5 343.81,-27.5 335.4,-27.5"/>
<polygon fill="#63b8ff" stroke="#63b8ff" points="360.95,-31 370.95,-27.5 360.95,-24 360.95,-31"/>
</a>
</g>
</g>
<!-- Node3 -->
<g id="Node000003" class="node">
<title>Node3</title>
<g id="a_Node000003"><a xlink:href="main_8cpp.html#ac672c86fb27ee5d971791cf8570ec137" target="_top" xlink:title=" ">
<polygon fill="white" stroke="#666666" points="195.5,-56 103.5,-56 103.5,-37 195.5,-37 195.5,-56"/>
<text text-anchor="middle" x="149.5" y="-44" font-family="Helvetica,sans-Serif" font-size="10.00">getBleInterface</text>
</a>
</g>
</g>
<!-- Node2&#45;&gt;Node3 -->
<g id="edge2_Node000002_Node000003" class="edge">
<title>Node2&#45;&gt;Node3</title>
<g id="a_edge2_Node000002_Node000003"><a xlink:title=" ">
<path fill="none" stroke="#63b8ff" d="M223.82,-36.03C214.37,-37.38 204.73,-38.75 195.67,-40.05"/>
<polygon fill="#63b8ff" stroke="#63b8ff" points="224.57,-39.45 233.98,-34.57 223.58,-32.52 224.57,-39.45"/>
</a>
</g>
</g>
<!-- Node5 -->
<g id="Node000005" class="node">
<title>Node5</title>
<g id="a_Node000005"><a xlink:href="main_8cpp.html#ad6d6c8ccee27b130f7eb2c9a3c8765a1" target="_top" xlink:title=" ">
<polygon fill="white" stroke="#666666" points="198,-19 101,-19 101,0 198,0 198,-19"/>
<text text-anchor="middle" x="149.5" y="-7" font-family="Helvetica,sans-Serif" font-size="10.00">uartReceiveTask</text>
</a>
</g>
</g>
<!-- Node2&#45;&gt;Node5 -->
<g id="edge4_Node000002_Node000005" class="edge">
<title>Node2&#45;&gt;Node5</title>
<g id="a_edge4_Node000002_Node000005"><a xlink:title=" ">
<path fill="none" stroke="#63b8ff" d="M223.99,-19.45C215.39,-18.28 206.63,-17.1 198.3,-15.97"/>
<polygon fill="#63b8ff" stroke="#63b8ff" points="223.6,-22.92 233.98,-20.8 224.54,-15.99 223.6,-22.92"/>
</a>
</g>
</g>
<!-- Node4 -->
<g id="Node000004" class="node">
<title>Node4</title>
<g id="a_Node000004"><a xlink:href="main_8cpp.html#a630544a7f0a2cc40d8a7fefab7e2fe70" target="_top" xlink:title=" ">
<polygon fill="white" stroke="#666666" points="65,-37 0,-37 0,-18 65,-18 65,-37"/>
<text text-anchor="middle" x="32.5" y="-25" font-family="Helvetica,sans-Serif" font-size="10.00">app_main</text>
</a>
</g>
</g>
<!-- Node3&#45;&gt;Node4 -->
<g id="edge3_Node000003_Node000004" class="edge">
<title>Node3&#45;&gt;Node4</title>
<g id="a_edge3_Node000003_Node000004"><a xlink:title=" ">
<path fill="none" stroke="#63b8ff" d="M93.32,-37.38C83.6,-35.78 73.79,-34.16 65,-32.7"/>
<polygon fill="#63b8ff" stroke="#63b8ff" points="92.94,-40.87 103.38,-39.05 94.08,-33.96 92.94,-40.87"/>
</a>
</g>
</g>
<!-- Node5&#45;&gt;Node4 -->
<g id="edge5_Node000005_Node000004" class="edge">
<title>Node5&#45;&gt;Node4</title>
<g id="a_edge5_Node000005_Node000004"><a xlink:title=" ">
<path fill="none" stroke="#63b8ff" d="M90.82,-18.53C82.01,-19.91 73.2,-21.29 65.23,-22.53"/>
<polygon fill="#63b8ff" stroke="#63b8ff" points="91.39,-21.98 100.73,-16.98 90.31,-15.07 91.39,-21.98"/>
</a>
</g>
</g>
</g>
</svg>
