<?xml version="1.0" encoding="UTF-8" standalone="no"?>
<!DOCTYPE svg PUBLIC "-//W3C//DTD SVG 1.1//EN"
 "http://www.w3.org/Graphics/SVG/1.1/DTD/svg11.dtd">
<!-- Generated by graphviz version 2.43.0 (0)
 -->
<!-- Title: components/rtos_cpp/include/util/Core.h Pages: 1 -->
<!--zoomable 401 -->

<svg id="main" version="1.1" xmlns="http://www.w3.org/2000/svg" xmlns:xlink="http://www.w3.org/1999/xlink" xml:space="preserve" onload="init(evt)">
<style type="text/css"><![CDATA[
.node, .edge {opacity: 0.7;}
.node.selected, .edge.selected {opacity: 1;}
.edge:hover path { stroke: red; }
.edge:hover polygon { stroke: red; fill: red; }
]]></style>

<defs>
  <circle id="rim" cx="0" cy="0" r="7"/>
  <circle id="rim2" cx="0" cy="0" r="3.5"/>
  <g id="zoomPlus">
    <use xlink:href="#rim" fill="#404040"><set attributeName="fill" to="#808080" begin="zoomplus.mouseover" end="zoomplus.mouseout"/></use>
    <path d="M-4,0h8M0,-4v8" fill="none" stroke="white" stroke-width="1.5" pointer-events="none"/>
  </g>
  <g id="zoomMin">
    <use xlink:href="#rim" fill="#404040"><set attributeName="fill" to="#808080" begin="zoomminus.mouseover" end="zoomminus.mouseout"/></use>
    <path d="M-4,0h8" fill="none" stroke="white" stroke-width="1.5" pointer-events="none"/>
  </g>
  <g id="arrowUp" transform="translate(30 24)">
    <use xlink:href="#rim"/>
    <path pointer-events="none" fill="none" stroke="white" stroke-width="1.5" d="M0,-3.0v7 M-2.5,-0.5L0,-3.0L2.5,-0.5"/>
  </g>
  <g id="arrowRight" transform="rotate(90) translate(36 -43)">
    <use xlink:href="#rim"/>
    <path pointer-events="none" fill="none" stroke="white" stroke-width="1.5" d="M0,-3.0v7 M-2.5,-0.5L0,-3.0L2.5,-0.5"/>
  </g>
  <g id="arrowDown" transform="rotate(180) translate(-30 -48)">
    <use xlink:href="#rim"/>
    <path pointer-events="none" fill="none" stroke="white" stroke-width="1.5" d="M0,-3.0v7 M-2.5,-0.5L0,-3.0L2.5,-0.5"/>
  </g>
  <g id="arrowLeft" transform="rotate(270) translate(-36 17)">
    <use xlink:href="#rim"/>
    <path pointer-events="none" fill="none" stroke="white" stroke-width="1.5" d="M0,-3.0v7 M-2.5,-0.5L0,-3.0L2.5,-0.5"/>
  </g>
  <g id="resetDef">
    <use xlink:href="#rim2" fill="#404040"><set attributeName="fill" to="#808080" begin="reset.mouseover" end="reset.mouseout"/></use>
  </g>
</defs>
<script type="application/ecmascript">
var viewWidth = 1269;
var viewHeight = 401;
var sectionId = 'dynsection-1';
</script>
<script type="application/ecmascript" xlink:href="svg.min.js"/>
<svg id="graph" class="graph">
<g id="viewport">
<title>components/rtos_cpp/include/util/Core.h</title>
<!-- Node1 -->
<g id="Node000001" class="node">
<title>Node1</title>
<g id="a_Node000001"><a xlink:title=" ">
<polygon fill="#999999" stroke="#666666" points="797,-393 676,-393 676,-363 797,-363 797,-393"/>
<text text-anchor="start" x="684" y="-381" font-family="Helvetica,sans-Serif" font-size="10.00">components/rtos_cpp</text>
<text text-anchor="middle" x="736.5" y="-370" font-family="Helvetica,sans-Serif" font-size="10.00">/include/util/Core.h</text>
</a>
</g>
</g>
<!-- Node2 -->
<g id="Node000002" class="node">
<title>Node2</title>
<g id="a_Node000002"><a xlink:href="EventFlags_8h.html" target="_top" xlink:title=" ">
<polygon fill="white" stroke="#666666" points="598,-327 477,-327 477,-297 598,-297 598,-327"/>
<text text-anchor="start" x="485" y="-315" font-family="Helvetica,sans-Serif" font-size="10.00">components/rtos_cpp</text>
<text text-anchor="middle" x="537.5" y="-304" font-family="Helvetica,sans-Serif" font-size="10.00">/include/EventFlags.h</text>
</a>
</g>
</g>
<!-- Node1&#45;&gt;Node2 -->
<g id="edge1_Node000001_Node000002" class="edge">
<title>Node1&#45;&gt;Node2</title>
<g id="a_edge1_Node000001_Node000002"><a xlink:title=" ">
<path fill="none" stroke="#63b8ff" d="M683.19,-359.86C651.24,-349.58 611.12,-336.68 581.07,-327.01"/>
<polygon fill="#63b8ff" stroke="#63b8ff" points="682.24,-363.23 692.83,-362.95 684.38,-356.56 682.24,-363.23"/>
</a>
</g>
</g>
<!-- Node4 -->
<g id="Node000004" class="node">
<title>Node4</title>
<g id="a_Node000004"><a xlink:href="Mutex_8cpp.html" target="_top" xlink:title=" ">
<polygon fill="white" stroke="#666666" points="472,-195 351,-195 351,-165 472,-165 472,-195"/>
<text text-anchor="start" x="359" y="-183" font-family="Helvetica,sans-Serif" font-size="10.00">components/rtos_cpp</text>
<text text-anchor="middle" x="411.5" y="-172" font-family="Helvetica,sans-Serif" font-size="10.00">/src/Mutex.cpp</text>
</a>
</g>
</g>
<!-- Node1&#45;&gt;Node4 -->
<g id="edge30_Node000001_Node000004" class="edge">
<title>Node1&#45;&gt;Node4</title>
<g id="a_edge30_Node000001_Node000004"><a xlink:title=" ">
<path fill="none" stroke="#63b8ff" d="M665.72,-371.63C596.39,-365.02 496.99,-351.55 467.5,-327 426.39,-292.79 415.39,-224.77 412.5,-195.24"/>
<polygon fill="#63b8ff" stroke="#63b8ff" points="665.44,-375.12 675.72,-372.55 666.08,-368.15 665.44,-375.12"/>
</a>
</g>
</g>
<!-- Node5 -->
<g id="Node000005" class="node">
<title>Node5</title>
<g id="a_Node000005"><a xlink:href="Semaphore_8cpp.html" target="_top" xlink:title=" ">
<polygon fill="white" stroke="#666666" points="953,-195 832,-195 832,-165 953,-165 953,-195"/>
<text text-anchor="start" x="840" y="-183" font-family="Helvetica,sans-Serif" font-size="10.00">components/rtos_cpp</text>
<text text-anchor="middle" x="892.5" y="-172" font-family="Helvetica,sans-Serif" font-size="10.00">/src/Semaphore.cpp</text>
</a>
</g>
</g>
<!-- Node1&#45;&gt;Node5 -->
<g id="edge31_Node000001_Node000005" class="edge">
<title>Node1&#45;&gt;Node5</title>
<g id="a_edge31_Node000001_Node000005"><a xlink:title=" ">
<path fill="none" stroke="#63b8ff" d="M754.04,-354.97C786.31,-314.42 854.26,-229.05 881.17,-195.23"/>
<polygon fill="#63b8ff" stroke="#63b8ff" points="751.21,-352.9 747.72,-362.9 756.69,-357.26 751.21,-352.9"/>
</a>
</g>
</g>
<!-- Node21 -->
<g id="Node000021" class="node">
<title>Node21</title>
<g id="a_Node000021"><a xlink:href="MessageQueue_8h.html" target="_top" xlink:title=" ">
<polygon fill="white" stroke="#666666" points="758.5,-327 616.5,-327 616.5,-297 758.5,-297 758.5,-327"/>
<text text-anchor="start" x="624.5" y="-315" font-family="Helvetica,sans-Serif" font-size="10.00">components/rtos_cpp</text>
<text text-anchor="middle" x="687.5" y="-304" font-family="Helvetica,sans-Serif" font-size="10.00">/include/MessageQueue.h</text>
</a>
</g>
</g>
<!-- Node1&#45;&gt;Node21 -->
<g id="edge28_Node000001_Node000021" class="edge">
<title>Node1&#45;&gt;Node21</title>
<g id="a_edge28_Node000001_Node000021"><a xlink:title=" ">
<path fill="none" stroke="#63b8ff" d="M719.51,-354.81C712.49,-345.64 704.56,-335.28 698.34,-327.16"/>
<polygon fill="#63b8ff" stroke="#63b8ff" points="716.77,-356.98 725.63,-362.8 722.33,-352.73 716.77,-356.98"/>
</a>
</g>
</g>
<!-- Node22 -->
<g id="Node000022" class="node">
<title>Node22</title>
<g id="a_Node000022"><a xlink:href="Task_8cpp.html" target="_top" xlink:title=" ">
<polygon fill="white" stroke="#666666" points="936,-327 815,-327 815,-297 936,-297 936,-327"/>
<text text-anchor="start" x="823" y="-315" font-family="Helvetica,sans-Serif" font-size="10.00">components/rtos_cpp</text>
<text text-anchor="middle" x="875.5" y="-304" font-family="Helvetica,sans-Serif" font-size="10.00">/src/Task.cpp</text>
</a>
</g>
</g>
<!-- Node1&#45;&gt;Node22 -->
<g id="edge32_Node000001_Node000022" class="edge">
<title>Node1&#45;&gt;Node22</title>
<g id="a_edge32_Node000001_Node000022"><a xlink:title=" ">
<path fill="none" stroke="#63b8ff" d="M776.36,-358.65C798.22,-348.58 824.89,-336.3 845.07,-327.01"/>
<polygon fill="#63b8ff" stroke="#63b8ff" points="774.62,-355.59 767,-362.95 777.55,-361.95 774.62,-355.59"/>
</a>
</g>
</g>
<!-- Node23 -->
<g id="Node000023" class="node">
<title>Node23</title>
<g id="a_Node000023"><a xlink:href="CoreStub_8cpp.html" target="_top" xlink:title=" ">
<polygon fill="white" stroke="#666666" points="1075,-327 954,-327 954,-297 1075,-297 1075,-327"/>
<text text-anchor="start" x="962" y="-315" font-family="Helvetica,sans-Serif" font-size="10.00">components/rtos_cpp</text>
<text text-anchor="middle" x="1014.5" y="-304" font-family="Helvetica,sans-Serif" font-size="10.00">/src/util/CoreStub.cpp</text>
</a>
</g>
</g>
<!-- Node1&#45;&gt;Node23 -->
<g id="edge33_Node000001_Node000023" class="edge">
<title>Node1&#45;&gt;Node23</title>
<g id="a_edge33_Node000001_Node000023"><a xlink:title=" ">
<path fill="none" stroke="#63b8ff" d="M806.93,-360.79C852.3,-350.34 910.68,-336.9 953.96,-326.94"/>
<polygon fill="#63b8ff" stroke="#63b8ff" points="806.12,-357.38 797.16,-363.03 807.7,-364.2 806.12,-357.38"/>
</a>
</g>
</g>
<!-- Node3 -->
<g id="Node000003" class="node">
<title>Node3</title>
<g id="a_Node000003"><a xlink:href="rtos_8h.html" target="_top" xlink:title=" ">
<polygon fill="white" stroke="#666666" points="679,-261 558,-261 558,-231 679,-231 679,-261"/>
<text text-anchor="start" x="566" y="-249" font-family="Helvetica,sans-Serif" font-size="10.00">components/rtos_cpp</text>
<text text-anchor="middle" x="618.5" y="-238" font-family="Helvetica,sans-Serif" font-size="10.00">/include/rtos.h</text>
</a>
</g>
</g>
<!-- Node2&#45;&gt;Node3 -->
<g id="edge2_Node000002_Node000003" class="edge">
<title>Node2&#45;&gt;Node3</title>
<g id="a_edge2_Node000002_Node000003"><a xlink:title=" ">
<path fill="none" stroke="#63b8ff" d="M563.47,-290.48C575.58,-280.91 589.68,-269.77 600.57,-261.16"/>
<polygon fill="#63b8ff" stroke="#63b8ff" points="561.15,-287.85 555.48,-296.8 565.49,-293.34 561.15,-287.85"/>
</a>
</g>
</g>
<!-- Node3&#45;&gt;Node4 -->
<g id="edge3_Node000003_Node000004" class="edge">
<title>Node3&#45;&gt;Node4</title>
<g id="a_edge3_Node000003_Node000004"><a xlink:title=" ">
<path fill="none" stroke="#63b8ff" d="M563.48,-227.99C530.17,-217.69 488.21,-204.72 456.82,-195.01"/>
<polygon fill="#63b8ff" stroke="#63b8ff" points="562.49,-231.34 573.07,-230.95 564.55,-224.66 562.49,-231.34"/>
</a>
</g>
</g>
<!-- Node3&#45;&gt;Node5 -->
<g id="edge4_Node000003_Node000005" class="edge">
<title>Node3&#45;&gt;Node5</title>
<g id="a_edge4_Node000003_Node000005"><a xlink:title=" ">
<path fill="none" stroke="#63b8ff" d="M688.51,-228.65C733.03,-218.25 790.07,-204.93 832.51,-195.01"/>
<polygon fill="#63b8ff" stroke="#63b8ff" points="687.57,-225.27 678.63,-230.95 689.16,-232.09 687.57,-225.27"/>
</a>
</g>
</g>
<!-- Node6 -->
<g id="Node000006" class="node">
<title>Node6</title>
<g id="a_Node000006"><a xlink:href="rtos_8cpp.html" target="_top" xlink:title=" ">
<polygon fill="white" stroke="#666666" points="611,-195 490,-195 490,-165 611,-165 611,-195"/>
<text text-anchor="start" x="498" y="-183" font-family="Helvetica,sans-Serif" font-size="10.00">components/rtos_cpp</text>
<text text-anchor="middle" x="550.5" y="-172" font-family="Helvetica,sans-Serif" font-size="10.00">/src/rtos.cpp</text>
</a>
</g>
</g>
<!-- Node3&#45;&gt;Node6 -->
<g id="edge5_Node000003_Node000006" class="edge">
<title>Node3&#45;&gt;Node6</title>
<g id="a_edge5_Node000003_Node000006"><a xlink:title=" ">
<path fill="none" stroke="#63b8ff" d="M596.11,-223.92C586.08,-214.49 574.52,-203.61 565.55,-195.16"/>
<polygon fill="#63b8ff" stroke="#63b8ff" points="593.73,-226.49 603.41,-230.8 598.53,-221.39 593.73,-226.49"/>
</a>
</g>
</g>
<!-- Node7 -->
<g id="Node000007" class="node">
<title>Node7</title>
<g id="a_Node000007"><a xlink:href="MessageHandler_8hpp.html" target="_top" xlink:title="Declaration of the MessageHandler class for managing message queues between components.">
<polygon fill="white" stroke="#666666" points="814,-189.5 629,-189.5 629,-170.5 814,-170.5 814,-189.5"/>
<text text-anchor="middle" x="721.5" y="-177.5" font-family="Helvetica,sans-Serif" font-size="10.00">main/include/MessageHandler.hpp</text>
</a>
</g>
</g>
<!-- Node3&#45;&gt;Node7 -->
<g id="edge6_Node000003_Node000007" class="edge">
<title>Node3&#45;&gt;Node7</title>
<g id="a_edge6_Node000003_Node000007"><a xlink:title=" ">
<path fill="none" stroke="#63b8ff" d="M649.64,-225.65C669.04,-213.6 693.03,-198.69 707.79,-189.52"/>
<polygon fill="#63b8ff" stroke="#63b8ff" points="647.75,-222.7 641.1,-230.95 651.44,-228.65 647.75,-222.7"/>
</a>
</g>
</g>
<!-- Node8 -->
<g id="Node000008" class="node">
<title>Node8</title>
<g id="a_Node000008"><a xlink:href="BLE__Client_8hpp.html" target="_top" xlink:title="Header file for the BLE_Client class, which implements a BLE (Bluetooth Low Energy) client.">
<polygon fill="white" stroke="#666666" points="155,-74 0,-74 0,-55 155,-55 155,-74"/>
<text text-anchor="middle" x="77.5" y="-62" font-family="Helvetica,sans-Serif" font-size="10.00">main/include/BLE_Client.hpp</text>
</a>
</g>
</g>
<!-- Node7&#45;&gt;Node8 -->
<g id="edge7_Node000007_Node000008" class="edge">
<title>Node7&#45;&gt;Node8</title>
<g id="a_edge7_Node000007_Node000008"><a xlink:title=" ">
<path fill="none" stroke="#63b8ff" d="M651.07,-169.12C640.49,-167.7 629.71,-166.29 619.5,-165 480.13,-147.45 443.36,-155.93 305.5,-129 230.89,-114.43 145.05,-87.76 103.17,-74.08"/>
<polygon fill="#63b8ff" stroke="#63b8ff" points="650.74,-172.61 661.12,-170.49 651.68,-165.68 650.74,-172.61"/>
</a>
</g>
</g>
<!-- Node10 -->
<g id="Node000010" class="node">
<title>Node10</title>
<g id="a_Node000010"><a xlink:href="main_8cpp.html" target="_top" xlink:title=" ">
<polygon fill="white" stroke="#666666" points="756,-19 649,-19 649,0 756,0 756,-19"/>
<text text-anchor="middle" x="702.5" y="-7" font-family="Helvetica,sans-Serif" font-size="10.00">main/src/main.cpp</text>
</a>
</g>
</g>
<!-- Node7&#45;&gt;Node10 -->
<g id="edge27_Node000007_Node000010" class="edge">
<title>Node7&#45;&gt;Node10</title>
<g id="a_edge27_Node000007_Node000010"><a xlink:title=" ">
<path fill="none" stroke="#63b8ff" d="M785.1,-168.82C846.35,-158.51 934.32,-142.25 966.5,-129 1012.51,-110.06 1083.37,-92.35 1050.5,-55 1031.38,-33.28 848.95,-19.29 756.15,-13.52"/>
<polygon fill="#63b8ff" stroke="#63b8ff" points="784.42,-165.38 775.13,-170.48 785.57,-172.29 784.42,-165.38"/>
</a>
</g>
</g>
<!-- Node11 -->
<g id="Node000011" class="node">
<title>Node11</title>
<g id="a_Node000011"><a xlink:href="BLE__Server_8hpp.html" target="_top" xlink:title="Header file for the BLE_Server class, which implements a Bluetooth Low Energy (BLE) server.">
<polygon fill="white" stroke="#666666" points="331.5,-74 173.5,-74 173.5,-55 331.5,-55 331.5,-74"/>
<text text-anchor="middle" x="252.5" y="-62" font-family="Helvetica,sans-Serif" font-size="10.00">main/include/BLE_Server.hpp</text>
</a>
</g>
</g>
<!-- Node7&#45;&gt;Node11 -->
<g id="edge10_Node000007_Node000011" class="edge">
<title>Node7&#45;&gt;Node11</title>
<g id="a_edge10_Node000007_Node000011"><a xlink:title=" ">
<path fill="none" stroke="#63b8ff" d="M649.9,-169.11C639.7,-167.72 629.33,-166.32 619.5,-165 496.89,-148.59 458.86,-173.67 343.5,-129 310.09,-116.06 277.19,-88.4 261.7,-74.24"/>
<polygon fill="#63b8ff" stroke="#63b8ff" points="649.64,-172.61 660.02,-170.49 650.59,-165.67 649.64,-172.61"/>
</a>
</g>
</g>
<!-- Node13 -->
<g id="Node000013" class="node">
<title>Node13</title>
<g id="a_Node000013"><a xlink:href="Bluetooth_8hpp.html" target="_top" xlink:title="Defines the Bluetooth abstract base class for BLE communication.">
<polygon fill="white" stroke="#666666" points="504,-129 353,-129 353,-110 504,-110 504,-129"/>
<text text-anchor="middle" x="428.5" y="-117" font-family="Helvetica,sans-Serif" font-size="10.00">main/include/Bluetooth.hpp</text>
</a>
</g>
</g>
<!-- Node7&#45;&gt;Node13 -->
<g id="edge13_Node000007_Node000013" class="edge">
<title>Node7&#45;&gt;Node13</title>
<g id="a_edge13_Node000007_Node000013"><a xlink:title=" ">
<path fill="none" stroke="#63b8ff" d="M669.08,-168.53C612.53,-157.24 523.58,-139.48 471.16,-129.02"/>
<polygon fill="#63b8ff" stroke="#63b8ff" points="668.4,-171.97 678.9,-170.49 669.77,-165.1 668.4,-171.97"/>
</a>
</g>
</g>
<!-- Node16 -->
<g id="Node000016" class="node">
<title>Node16</title>
<g id="a_Node000016"><a xlink:href="DataParser_8hpp.html" target="_top" xlink:title="Declaration of the DataParser class for parsing and executing commands.">
<polygon fill="white" stroke="#666666" points="957.5,-129 801.5,-129 801.5,-110 957.5,-110 957.5,-129"/>
<text text-anchor="middle" x="879.5" y="-117" font-family="Helvetica,sans-Serif" font-size="10.00">main/include/DataParser.hpp</text>
</a>
</g>
</g>
<!-- Node7&#45;&gt;Node16 -->
<g id="edge20_Node000007_Node000016" class="edge">
<title>Node7&#45;&gt;Node16</title>
<g id="a_edge20_Node000007_Node000016"><a xlink:title=" ">
<path fill="none" stroke="#63b8ff" d="M754.24,-166.88C784.78,-155.57 829.57,-138.99 856.5,-129.02"/>
<polygon fill="#63b8ff" stroke="#63b8ff" points="752.64,-163.74 744.47,-170.49 755.07,-170.3 752.64,-163.74"/>
</a>
</g>
</g>
<!-- Node18 -->
<g id="Node000018" class="node">
<title>Node18</title>
<g id="a_Node000018"><a xlink:href="uart_8hpp.html" target="_top" xlink:title="Declaration of the Uart class for managing UART communication on the ESP32&#45;C6.">
<polygon fill="white" stroke="#666666" points="783,-129 660,-129 660,-110 783,-110 783,-129"/>
<text text-anchor="middle" x="721.5" y="-117" font-family="Helvetica,sans-Serif" font-size="10.00">main/include/uart.hpp</text>
</a>
</g>
</g>
<!-- Node7&#45;&gt;Node18 -->
<g id="edge23_Node000007_Node000018" class="edge">
<title>Node7&#45;&gt;Node18</title>
<g id="a_edge23_Node000007_Node000018"><a xlink:title=" ">
<path fill="none" stroke="#63b8ff" d="M721.5,-160.16C721.5,-149.74 721.5,-137.3 721.5,-129.17"/>
<polygon fill="#63b8ff" stroke="#63b8ff" points="718,-160.37 721.5,-170.37 725,-160.37 718,-160.37"/>
</a>
</g>
</g>
<!-- Node20 -->
<g id="Node000020" class="node">
<title>Node20</title>
<g id="a_Node000020"><a xlink:href="MessageHandler_8cpp.html" target="_top" xlink:title="Implementation of the MessageHandler class.">
<polygon fill="white" stroke="#666666" points="1261,-129 1098,-129 1098,-110 1261,-110 1261,-129"/>
<text text-anchor="middle" x="1179.5" y="-117" font-family="Helvetica,sans-Serif" font-size="10.00">main/src/MessageHandler.cpp</text>
</a>
</g>
</g>
<!-- Node7&#45;&gt;Node20 -->
<g id="edge26_Node000007_Node000020" class="edge">
<title>Node7&#45;&gt;Node20</title>
<g id="a_edge26_Node000007_Node000020"><a xlink:title=" ">
<path fill="none" stroke="#63b8ff" d="M791.98,-169.1C802.22,-167.7 812.63,-166.3 822.5,-165 921.73,-151.94 1036.62,-137.79 1108.68,-129.04"/>
<polygon fill="#63b8ff" stroke="#63b8ff" points="791.26,-165.67 781.83,-170.5 792.22,-172.6 791.26,-165.67"/>
</a>
</g>
</g>
<!-- Node9 -->
<g id="Node000009" class="node">
<title>Node9</title>
<g id="a_Node000009"><a xlink:href="BLE__Client_8cpp.html" target="_top" xlink:title="Implementation of the BLE_Client class for managing BLE client functionality.">
<polygon fill="white" stroke="#666666" points="144.5,-19 10.5,-19 10.5,0 144.5,0 144.5,-19"/>
<text text-anchor="middle" x="77.5" y="-7" font-family="Helvetica,sans-Serif" font-size="10.00">main/src/BLE_Client.cpp</text>
</a>
</g>
</g>
<!-- Node8&#45;&gt;Node9 -->
<g id="edge8_Node000008_Node000009" class="edge">
<title>Node8&#45;&gt;Node9</title>
<g id="a_edge8_Node000008_Node000009"><a xlink:title=" ">
<path fill="none" stroke="#63b8ff" d="M77.5,-44.66C77.5,-35.93 77.5,-25.99 77.5,-19.09"/>
<polygon fill="#63b8ff" stroke="#63b8ff" points="74,-44.75 77.5,-54.75 81,-44.75 74,-44.75"/>
</a>
</g>
</g>
<!-- Node8&#45;&gt;Node10 -->
<g id="edge9_Node000008_Node000010" class="edge">
<title>Node8&#45;&gt;Node10</title>
<g id="a_edge9_Node000008_Node000010"><a xlink:title=" ">
<path fill="none" stroke="#63b8ff" d="M165.4,-54.93C349.17,-38.42 553.5,-22.15 648.64,-14.69"/>
<polygon fill="#63b8ff" stroke="#63b8ff" points="164.93,-51.46 155.28,-55.84 165.56,-58.43 164.93,-51.46"/>
</a>
</g>
</g>
<!-- Node11&#45;&gt;Node10 -->
<g id="edge12_Node000011_Node000010" class="edge">
<title>Node11&#45;&gt;Node10</title>
<g id="a_edge12_Node000011_Node000010"><a xlink:title=" ">
<path fill="none" stroke="#63b8ff" d="M334.84,-53.8C426.18,-43.04 570.9,-26 648.74,-16.83"/>
<polygon fill="#63b8ff" stroke="#63b8ff" points="334.32,-50.34 324.8,-54.98 335.14,-57.29 334.32,-50.34"/>
</a>
</g>
</g>
<!-- Node12 -->
<g id="Node000012" class="node">
<title>Node12</title>
<g id="a_Node000012"><a xlink:href="BLE__Server_8cpp.html" target="_top" xlink:title="Implementation of the BLE_Server class for managing BLE server functionality.">
<polygon fill="white" stroke="#666666" points="320.5,-19 184.5,-19 184.5,0 320.5,0 320.5,-19"/>
<text text-anchor="middle" x="252.5" y="-7" font-family="Helvetica,sans-Serif" font-size="10.00">main/src/BLE_Server.cpp</text>
</a>
</g>
</g>
<!-- Node11&#45;&gt;Node12 -->
<g id="edge11_Node000011_Node000012" class="edge">
<title>Node11&#45;&gt;Node12</title>
<g id="a_edge11_Node000011_Node000012"><a xlink:title=" ">
<path fill="none" stroke="#63b8ff" d="M252.5,-44.66C252.5,-35.93 252.5,-25.99 252.5,-19.09"/>
<polygon fill="#63b8ff" stroke="#63b8ff" points="249,-44.75 252.5,-54.75 256,-44.75 249,-44.75"/>
</a>
</g>
</g>
<!-- Node13&#45;&gt;Node8 -->
<g id="edge14_Node000013_Node000008" class="edge">
<title>Node13&#45;&gt;Node8</title>
<g id="a_edge14_Node000013_Node000008"><a xlink:title=" ">
<path fill="none" stroke="#63b8ff" d="M361.83,-108.43C295.92,-98.48 196.19,-83.42 134.04,-74.04"/>
<polygon fill="#63b8ff" stroke="#63b8ff" points="361.7,-111.95 372.11,-109.98 362.74,-105.03 361.7,-111.95"/>
</a>
</g>
</g>
<!-- Node13&#45;&gt;Node10 -->
<g id="edge19_Node000013_Node000010" class="edge">
<title>Node13&#45;&gt;Node10</title>
<g id="a_edge19_Node000013_Node000010"><a xlink:title=" ">
<path fill="none" stroke="#63b8ff" d="M514.39,-109.58C571.21,-102.31 639.51,-90.54 663.5,-74 683.31,-60.34 694.92,-33.01 699.79,-19.08"/>
<polygon fill="#63b8ff" stroke="#63b8ff" points="513.78,-106.13 504.29,-110.84 514.65,-113.08 513.78,-106.13"/>
</a>
</g>
</g>
<!-- Node13&#45;&gt;Node11 -->
<g id="edge17_Node000013_Node000011" class="edge">
<title>Node13&#45;&gt;Node11</title>
<g id="a_edge17_Node000013_Node000011"><a xlink:title=" ">
<path fill="none" stroke="#63b8ff" d="M390.5,-107.06C357.6,-97.15 310.76,-83.04 281,-74.08"/>
<polygon fill="#63b8ff" stroke="#63b8ff" points="389.64,-110.45 400.22,-109.98 391.66,-103.75 389.64,-110.45"/>
</a>
</g>
</g>
<!-- Node14 -->
<g id="Node000014" class="node">
<title>Node14</title>
<g id="a_Node000014"><a xlink:href="BLE__Config_8hpp.html" target="_top" xlink:title="Configuration file containing default values and structures for BLE server and client.">
<polygon fill="white" stroke="#666666" points="507.5,-74 349.5,-74 349.5,-55 507.5,-55 507.5,-74"/>
<text text-anchor="middle" x="428.5" y="-62" font-family="Helvetica,sans-Serif" font-size="10.00">main/include/BLE_Config.hpp</text>
</a>
</g>
</g>
<!-- Node13&#45;&gt;Node14 -->
<g id="edge15_Node000013_Node000014" class="edge">
<title>Node13&#45;&gt;Node14</title>
<g id="a_edge15_Node000013_Node000014"><a xlink:title=" ">
<path fill="none" stroke="#63b8ff" d="M422.01,-99.66C421.41,-90.93 421.86,-80.99 423.37,-74.09"/>
<polygon fill="#63b8ff" stroke="#63b8ff" points="418.56,-100.29 423.33,-109.75 425.5,-99.38 418.56,-100.29"/>
</a>
</g>
</g>
<!-- Node15 -->
<g id="Node000015" class="node">
<title>Node15</title>
<g id="a_Node000015"><a xlink:href="Bluetooth_8cpp.html" target="_top" xlink:title="Implementation of the Bluetooth base class.">
<polygon fill="white" stroke="#666666" points="655,-74 526,-74 526,-55 655,-55 655,-74"/>
<text text-anchor="middle" x="590.5" y="-62" font-family="Helvetica,sans-Serif" font-size="10.00">main/src/Bluetooth.cpp</text>
</a>
</g>
</g>
<!-- Node13&#45;&gt;Node15 -->
<g id="edge18_Node000013_Node000015" class="edge">
<title>Node13&#45;&gt;Node15</title>
<g id="a_edge18_Node000013_Node000015"><a xlink:title=" ">
<path fill="none" stroke="#63b8ff" d="M464.27,-106.8C494.5,-96.91 537.11,-82.97 564.27,-74.08"/>
<polygon fill="#63b8ff" stroke="#63b8ff" points="462.94,-103.55 454.53,-109.98 465.12,-110.2 462.94,-103.55"/>
</a>
</g>
</g>
<!-- Node14&#45;&gt;Node13 -->
<g id="edge16_Node000014_Node000013" class="edge">
<title>Node14&#45;&gt;Node13</title>
<g id="a_edge16_Node000014_Node000013"><a xlink:title=" ">
<path fill="none" stroke="#63b8ff" d="M434.98,-84.13C435.6,-92.85 435.16,-102.8 433.67,-109.75"/>
<polygon fill="#63b8ff" stroke="#63b8ff" points="438.43,-83.53 433.63,-74.09 431.49,-84.47 438.43,-83.53"/>
</a>
</g>
</g>
<!-- Node16&#45;&gt;Node10 -->
<g id="edge22_Node000016_Node000010" class="edge">
<title>Node16&#45;&gt;Node10</title>
<g id="a_edge22_Node000016_Node000010"><a xlink:title=" ">
<path fill="none" stroke="#63b8ff" d="M878.27,-99.68C876.35,-85.55 871.54,-66.69 859.5,-55 832.07,-28.35 789.91,-17.43 756.18,-13.07"/>
<polygon fill="#63b8ff" stroke="#63b8ff" points="874.8,-100.17 879.26,-109.77 881.76,-99.48 874.8,-100.17"/>
</a>
</g>
</g>
<!-- Node17 -->
<g id="Node000017" class="node">
<title>Node17</title>
<g id="a_Node000017"><a xlink:href="DataParser_8cpp.html" target="_top" xlink:title="Implementation of the DataParser class.">
<polygon fill="white" stroke="#666666" points="1041.5,-74 907.5,-74 907.5,-55 1041.5,-55 1041.5,-74"/>
<text text-anchor="middle" x="974.5" y="-62" font-family="Helvetica,sans-Serif" font-size="10.00">main/src/DataParser.cpp</text>
</a>
</g>
</g>
<!-- Node16&#45;&gt;Node17 -->
<g id="edge21_Node000016_Node000017" class="edge">
<title>Node16&#45;&gt;Node17</title>
<g id="a_edge21_Node000016_Node000017"><a xlink:title=" ">
<path fill="none" stroke="#63b8ff" d="M903.76,-104.97C921.13,-95.28 943.99,-82.52 958.96,-74.17"/>
<polygon fill="#63b8ff" stroke="#63b8ff" points="901.79,-102.06 894.76,-109.98 905.2,-108.17 901.79,-102.06"/>
</a>
</g>
</g>
<!-- Node18&#45;&gt;Node10 -->
<g id="edge24_Node000018_Node000010" class="edge">
<title>Node18&#45;&gt;Node10</title>
<g id="a_edge24_Node000018_Node000010"><a xlink:title=" ">
<path fill="none" stroke="#63b8ff" d="M718.21,-99.8C714.06,-76.2 707.09,-36.58 704.02,-19.16"/>
<polygon fill="#63b8ff" stroke="#63b8ff" points="714.77,-100.42 719.95,-109.66 721.66,-99.21 714.77,-100.42"/>
</a>
</g>
</g>
<!-- Node19 -->
<g id="Node000019" class="node">
<title>Node19</title>
<g id="a_Node000019"><a xlink:href="uart_8cpp.html" target="_top" xlink:title="Implementation of the Uart class for UART communication on ESP32&#45;C6.">
<polygon fill="white" stroke="#666666" points="851,-74 750,-74 750,-55 851,-55 851,-74"/>
<text text-anchor="middle" x="800.5" y="-62" font-family="Helvetica,sans-Serif" font-size="10.00">main/src/uart.cpp</text>
</a>
</g>
</g>
<!-- Node18&#45;&gt;Node19 -->
<g id="edge25_Node000018_Node000019" class="edge">
<title>Node18&#45;&gt;Node19</title>
<g id="a_edge25_Node000018_Node000019"><a xlink:title=" ">
<path fill="none" stroke="#63b8ff" d="M742.89,-104.15C757.17,-94.57 775.47,-82.29 787.58,-74.17"/>
<polygon fill="#63b8ff" stroke="#63b8ff" points="740.55,-101.51 734.19,-109.98 744.45,-107.32 740.55,-101.51"/>
</a>
</g>
</g>
<!-- Node21&#45;&gt;Node3 -->
<g id="edge29_Node000021_Node000003" class="edge">
<title>Node21&#45;&gt;Node3</title>
<g id="a_edge29_Node000021_Node000003"><a xlink:title=" ">
<path fill="none" stroke="#63b8ff" d="M664.78,-289.92C654.6,-280.49 642.87,-269.61 633.77,-261.16"/>
<polygon fill="#63b8ff" stroke="#63b8ff" points="662.47,-292.56 672.19,-296.8 667.24,-287.43 662.47,-292.56"/>
</a>
</g>
</g>
</g>
</svg>

<g id="navigator" transform="translate(0 0)" fill="#404254">
  <rect fill="#f2f5e9" fill-opacity="0.5" stroke="#606060" stroke-width=".5" x="0" y="0" width="60" height="60"/>
  <use id="zoomplus" xlink:href="#zoomPlus" x="17" y="9" onmousedown="handleZoom(evt,'in')"/>
  <use id="zoomminus" xlink:href="#zoomMin" x="42" y="9" onmousedown="handleZoom(evt,'out')"/>
  <use id="reset" xlink:href="#resetDef" x="30" y="36" onmousedown="handleReset()"/>
   <use id="arrowup" xlink:href="#arrowUp" x="0" y="0" onmousedown="handlePan(0,-1)"/>
  <use id="arrowright" xlink:href="#arrowRight" x="0" y="0" onmousedown="handlePan(1,0)"/>
  <use id="arrowdown" xlink:href="#arrowDown" x="0" y="0" onmousedown="handlePan(0,1)"/>
  <use id="arrowleft" xlink:href="#arrowLeft" x="0" y="0" onmousedown="handlePan(-1,0)"/>
</g>
<svg viewBox="0 0 15 15" width="100%" height="30px" preserveAspectRatio="xMaxYMin meet">
 <g id="arrow_out" transform="scale(0.3 0.3)">
  <a xlink:href="Core_8h__dep__incl_org.svg" target="_base">
   <rect id="button" ry="5" rx="5" y="6" x="6" height="38" width="38"
        fill="#f2f5e9" fill-opacity="0.5" stroke="#606060" stroke-width="1.0"/>
   <path id="arrow"
     d="M 11.500037,31.436501 C 11.940474,20.09759 22.043105,11.32322 32.158766,21.979434 L 37.068811,17.246167 C 37.068811,17.246167 37.088388,32 37.088388,32 L 22.160133,31.978069 C 22.160133,31.978069 26.997745,27.140456 26.997745,27.140456 C 18.528582,18.264221 13.291696,25.230495 11.500037,31.436501 z"
     style="fill:#404040;"/>
  </a>
 </g>
</svg>

<style type='text/css'>
<![CDATA[
[data-mouse-over-selected='false'] { opacity: 0.7; }
[data-mouse-over-selected='true']  { opacity: 1.0; }
]]>
</style>
<script type="application/ecmascript"><![CDATA[
document.addEventListener('DOMContentLoaded', (event) => {
  highlightEdges();
  highlightAdjacentNodes();
});
]]></script>
</svg>
