<?xml version="1.0" encoding="UTF-8" standalone="no"?>
<!DOCTYPE svg PUBLIC "-//W3C//DTD SVG 1.1//EN"
 "http://www.w3.org/Graphics/SVG/1.1/DTD/svg11.dtd">
<!-- Generated by graphviz version 2.43.0 (0)
 -->
<!-- Title: main/src/DataParser.cpp Pages: 1 -->
<!--zoomable 357 -->

<svg id="main" version="1.1" xmlns="http://www.w3.org/2000/svg" xmlns:xlink="http://www.w3.org/1999/xlink" xml:space="preserve" onload="init(evt)">
<style type="text/css"><![CDATA[
.node, .edge {opacity: 0.7;}
.node.selected, .edge.selected {opacity: 1;}
.edge:hover path { stroke: red; }
.edge:hover polygon { stroke: red; fill: red; }
]]></style>

<defs>
  <circle id="rim" cx="0" cy="0" r="7"/>
  <circle id="rim2" cx="0" cy="0" r="3.5"/>
  <g id="zoomPlus">
    <use xlink:href="#rim" fill="#404040"><set attributeName="fill" to="#808080" begin="zoomplus.mouseover" end="zoomplus.mouseout"/></use>
    <path d="M-4,0h8M0,-4v8" fill="none" stroke="white" stroke-width="1.5" pointer-events="none"/>
  </g>
  <g id="zoomMin">
    <use xlink:href="#rim" fill="#404040"><set attributeName="fill" to="#808080" begin="zoomminus.mouseover" end="zoomminus.mouseout"/></use>
    <path d="M-4,0h8" fill="none" stroke="white" stroke-width="1.5" pointer-events="none"/>
  </g>
  <g id="arrowUp" transform="translate(30 24)">
    <use xlink:href="#rim"/>
    <path pointer-events="none" fill="none" stroke="white" stroke-width="1.5" d="M0,-3.0v7 M-2.5,-0.5L0,-3.0L2.5,-0.5"/>
  </g>
  <g id="arrowRight" transform="rotate(90) translate(36 -43)">
    <use xlink:href="#rim"/>
    <path pointer-events="none" fill="none" stroke="white" stroke-width="1.5" d="M0,-3.0v7 M-2.5,-0.5L0,-3.0L2.5,-0.5"/>
  </g>
  <g id="arrowDown" transform="rotate(180) translate(-30 -48)">
    <use xlink:href="#rim"/>
    <path pointer-events="none" fill="none" stroke="white" stroke-width="1.5" d="M0,-3.0v7 M-2.5,-0.5L0,-3.0L2.5,-0.5"/>
  </g>
  <g id="arrowLeft" transform="rotate(270) translate(-36 17)">
    <use xlink:href="#rim"/>
    <path pointer-events="none" fill="none" stroke="white" stroke-width="1.5" d="M0,-3.0v7 M-2.5,-0.5L0,-3.0L2.5,-0.5"/>
  </g>
  <g id="resetDef">
    <use xlink:href="#rim2" fill="#404040"><set attributeName="fill" to="#808080" begin="reset.mouseover" end="reset.mouseout"/></use>
  </g>
</defs>
<script type="application/ecmascript">
var viewWidth = 2090;
var viewHeight = 357;
var sectionId = 'dynsection-0';
</script>
<script type="application/ecmascript" xlink:href="svg.min.js"/>
<svg id="graph" class="graph">
<g id="viewport">
<title>main/src/DataParser.cpp</title>
<!-- Node1 -->
<g id="Node000001" class="node">
<title>Node1</title>
<g id="a_Node000001"><a xlink:title="Implementation of the DataParser class.">
<polygon fill="#999999" stroke="#666666" points="294.5,-349 160.5,-349 160.5,-330 294.5,-330 294.5,-349"/>
<text text-anchor="middle" x="227.5" y="-337" font-family="Helvetica,sans-Serif" font-size="10.00">main/src/DataParser.cpp</text>
</a>
</g>
</g>
<!-- Node2 -->
<g id="Node000002" class="node">
<title>Node2</title>
<g id="a_Node000002"><a xlink:href="DataParser_8hpp.html" target="_top" xlink:title="Declaration of the DataParser class for parsing and executing commands.">
<polygon fill="white" stroke="#666666" points="177.5,-294 87.5,-294 87.5,-275 177.5,-275 177.5,-294"/>
<text text-anchor="middle" x="132.5" y="-282" font-family="Helvetica,sans-Serif" font-size="10.00">DataParser.hpp</text>
</a>
</g>
</g>
<!-- Node1&#45;&gt;Node2 -->
<g id="edge1_Node000001_Node000002" class="edge">
<title>Node1&#45;&gt;Node2</title>
<g id="a_edge1_Node000001_Node000002"><a xlink:title=" ">
<path fill="none" stroke="#63b8ff" d="M212.24,-329.98C197.37,-321.69 174.52,-308.94 157.08,-299.22"/>
<polygon fill="#63b8ff" stroke="#63b8ff" points="158.48,-295.99 148.04,-294.17 155.07,-302.1 158.48,-295.99"/>
</a>
</g>
</g>
<!-- Node32 -->
<g id="Node000032" class="node">
<title>Node32</title>
<g id="a_Node000032"><a xlink:title=" ">
<polygon fill="#e0e0e0" stroke="#999999" points="259,-294 196,-294 196,-275 259,-275 259,-294"/>
<text text-anchor="middle" x="227.5" y="-282" font-family="Helvetica,sans-Serif" font-size="10.00">esp_log.h</text>
</a>
</g>
</g>
<!-- Node1&#45;&gt;Node32 -->
<g id="edge53_Node000001_Node000032" class="edge">
<title>Node1&#45;&gt;Node32</title>
<g id="a_edge53_Node000001_Node000032"><a xlink:title=" ">
<path fill="none" stroke="#63b8ff" d="M227.5,-329.75C227.5,-322.8 227.5,-312.85 227.5,-304.13"/>
<polygon fill="#63b8ff" stroke="#63b8ff" points="231,-304.09 227.5,-294.09 224,-304.09 231,-304.09"/>
</a>
</g>
</g>
<!-- Node33 -->
<g id="Node000033" class="node">
<title>Node33</title>
<g id="a_Node000033"><a xlink:title=" ">
<polygon fill="#e0e0e0" stroke="#999999" points="341.5,-294 277.5,-294 277.5,-275 341.5,-275 341.5,-294"/>
<text text-anchor="middle" x="309.5" y="-282" font-family="Helvetica,sans-Serif" font-size="10.00">algorithm</text>
</a>
</g>
</g>
<!-- Node1&#45;&gt;Node33 -->
<g id="edge54_Node000001_Node000033" class="edge">
<title>Node1&#45;&gt;Node33</title>
<g id="a_edge54_Node000001_Node000033"><a xlink:title=" ">
<path fill="none" stroke="#63b8ff" d="M240.67,-329.98C253.27,-321.84 272.5,-309.41 287.44,-299.76"/>
<polygon fill="#63b8ff" stroke="#63b8ff" points="289.59,-302.54 296.09,-294.17 285.79,-296.66 289.59,-302.54"/>
</a>
</g>
</g>
<!-- Node3 -->
<g id="Node000003" class="node">
<title>Node3</title>
<g id="a_Node000003"><a xlink:href="CommandHandler_8hpp.html" target="_top" xlink:title="Declaration of the CommandHandler class, which provides methods to process commands and retrieve syst...">
<polygon fill="white" stroke="#666666" points="125,-239 0,-239 0,-220 125,-220 125,-239"/>
<text text-anchor="middle" x="62.5" y="-227" font-family="Helvetica,sans-Serif" font-size="10.00">CommandHandler.hpp</text>
</a>
</g>
</g>
<!-- Node2&#45;&gt;Node3 -->
<g id="edge2_Node000002_Node000003" class="edge">
<title>Node2&#45;&gt;Node3</title>
<g id="a_edge2_Node000002_Node000003"><a xlink:title=" ">
<path fill="none" stroke="#63b8ff" d="M121.25,-274.98C110.7,-267 94.7,-254.88 82.06,-245.31"/>
<polygon fill="#63b8ff" stroke="#63b8ff" points="84.04,-242.42 73.95,-239.17 79.81,-248 84.04,-242.42"/>
</a>
</g>
</g>
<!-- Node5 -->
<g id="Node000005" class="node">
<title>Node5</title>
<g id="a_Node000005"><a xlink:href="MessageHandler_8hpp.html" target="_top" xlink:title="Declaration of the MessageHandler class for managing message queues between components.">
<polygon fill="white" stroke="#666666" points="262,-239 143,-239 143,-220 262,-220 262,-239"/>
<text text-anchor="middle" x="202.5" y="-227" font-family="Helvetica,sans-Serif" font-size="10.00">MessageHandler.hpp</text>
</a>
</g>
</g>
<!-- Node2&#45;&gt;Node5 -->
<g id="edge4_Node000002_Node000005" class="edge">
<title>Node2&#45;&gt;Node5</title>
<g id="a_edge4_Node000002_Node000005"><a xlink:title=" ">
<path fill="none" stroke="#63b8ff" d="M143.75,-274.98C154.3,-267 170.3,-254.88 182.94,-245.31"/>
<polygon fill="#63b8ff" stroke="#63b8ff" points="185.19,-248 191.05,-239.17 180.96,-242.42 185.19,-248"/>
</a>
</g>
</g>
<!-- Node4 -->
<g id="Node000004" class="node">
<title>Node4</title>
<g id="a_Node000004"><a xlink:title=" ">
<polygon fill="#e0e0e0" stroke="#999999" points="84.5,-184 40.5,-184 40.5,-165 84.5,-165 84.5,-184"/>
<text text-anchor="middle" x="62.5" y="-172" font-family="Helvetica,sans-Serif" font-size="10.00">string</text>
</a>
</g>
</g>
<!-- Node3&#45;&gt;Node4 -->
<g id="edge3_Node000003_Node000004" class="edge">
<title>Node3&#45;&gt;Node4</title>
<g id="a_edge3_Node000003_Node000004"><a xlink:title=" ">
<path fill="none" stroke="#63b8ff" d="M62.5,-219.75C62.5,-212.8 62.5,-202.85 62.5,-194.13"/>
<polygon fill="#63b8ff" stroke="#63b8ff" points="66,-194.09 62.5,-184.09 59,-194.09 66,-194.09"/>
</a>
</g>
</g>
<!-- Node6 -->
<g id="Node000006" class="node">
<title>Node6</title>
<g id="a_Node000006"><a xlink:title=" ">
<polygon fill="#e0e0e0" stroke="#999999" points="425.5,-74 367.5,-74 367.5,-55 425.5,-55 425.5,-74"/>
<text text-anchor="middle" x="396.5" y="-62" font-family="Helvetica,sans-Serif" font-size="10.00">memory</text>
</a>
</g>
</g>
<!-- Node5&#45;&gt;Node6 -->
<g id="edge5_Node000005_Node000006" class="edge">
<title>Node5&#45;&gt;Node6</title>
<g id="a_edge5_Node000005_Node000006"><a xlink:title=" ">
<path fill="none" stroke="#63b8ff" d="M212.66,-219.97C243.81,-193.79 338.31,-114.39 378.31,-80.79"/>
<polygon fill="#63b8ff" stroke="#63b8ff" points="380.57,-83.46 385.97,-74.34 376.07,-78.1 380.57,-83.46"/>
</a>
</g>
</g>
<!-- Node7 -->
<g id="Node000007" class="node">
<title>Node7</title>
<g id="a_Node000007"><a xlink:href="rtos_8h.html" target="_top" xlink:title=" ">
<polygon fill="white" stroke="#666666" points="790.5,-184 746.5,-184 746.5,-165 790.5,-165 790.5,-184"/>
<text text-anchor="middle" x="768.5" y="-172" font-family="Helvetica,sans-Serif" font-size="10.00">rtos.h</text>
</a>
</g>
</g>
<!-- Node5&#45;&gt;Node7 -->
<g id="edge6_Node000005_Node000007" class="edge">
<title>Node5&#45;&gt;Node7</title>
<g id="a_edge6_Node000005_Node000007"><a xlink:title=" ">
<path fill="none" stroke="#63b8ff" d="M262,-222.93C380.9,-211.79 644.3,-187.13 736.15,-178.53"/>
<polygon fill="#63b8ff" stroke="#63b8ff" points="736.61,-182 746.24,-177.58 735.95,-175.03 736.61,-182"/>
</a>
</g>
</g>
<!-- Node8 -->
<g id="Node000008" class="node">
<title>Node8</title>
<g id="a_Node000008"><a xlink:href="EventFlags_8h.html" target="_top" xlink:title=" ">
<polygon fill="white" stroke="#666666" points="1768.5,-129 1688.5,-129 1688.5,-110 1768.5,-110 1768.5,-129"/>
<text text-anchor="middle" x="1728.5" y="-117" font-family="Helvetica,sans-Serif" font-size="10.00">EventFlags.h</text>
</a>
</g>
</g>
<!-- Node7&#45;&gt;Node8 -->
<g id="edge7_Node000007_Node000008" class="edge">
<title>Node7&#45;&gt;Node8</title>
<g id="a_edge7_Node000007_Node000008"><a xlink:title=" ">
<path fill="none" stroke="#63b8ff" d="M790.57,-172.48C887.3,-167.95 1283.46,-149.12 1608.5,-129 1631.34,-127.59 1656.61,-125.83 1678.05,-124.27"/>
<polygon fill="#63b8ff" stroke="#63b8ff" points="1678.52,-127.75 1688.24,-123.53 1678.01,-120.77 1678.52,-127.75"/>
</a>
</g>
</g>
<!-- Node10 -->
<g id="Node000010" class="node">
<title>Node10</title>
<g id="a_Node000010"><a xlink:title=" ">
<polygon fill="#e0e0e0" stroke="#999999" points="890,-19 777,-19 777,0 890,0 890,-19"/>
<text text-anchor="middle" x="833.5" y="-7" font-family="Helvetica,sans-Serif" font-size="10.00">freertos/FreeRTOS.h</text>
</a>
</g>
</g>
<!-- Node7&#45;&gt;Node10 -->
<g id="edge51_Node000007_Node000010" class="edge">
<title>Node7&#45;&gt;Node10</title>
<g id="a_edge51_Node000007_Node000010"><a xlink:title=" ">
<path fill="none" stroke="#63b8ff" d="M746.24,-172.24C637.39,-165.71 169.27,-132.86 241.5,-55 276.6,-17.16 619.25,-11.29 766.64,-10.53"/>
<polygon fill="#63b8ff" stroke="#63b8ff" points="766.93,-14.03 776.91,-10.48 766.89,-7.03 766.93,-14.03"/>
</a>
</g>
</g>
<!-- Node12 -->
<g id="Node000012" class="node">
<title>Node12</title>
<g id="a_Node000012"><a xlink:title=" ">
<polygon fill="#e0e0e0" stroke="#999999" points="1552.5,-19 1502.5,-19 1502.5,0 1552.5,0 1552.5,-19"/>
<text text-anchor="middle" x="1527.5" y="-7" font-family="Helvetica,sans-Serif" font-size="10.00">cstdint</text>
</a>
</g>
</g>
<!-- Node7&#45;&gt;Node12 -->
<g id="edge52_Node000007_Node000012" class="edge">
<title>Node7&#45;&gt;Node12</title>
<g id="a_edge52_Node000007_Node000012"><a xlink:title=" ">
<path fill="none" stroke="#63b8ff" d="M790.62,-173.17C893.62,-171.47 1326.85,-162.41 1457.5,-129 1513.56,-114.67 1544.41,-122.8 1575.5,-74 1586.69,-56.43 1568.07,-37.54 1550.85,-24.97"/>
<polygon fill="#63b8ff" stroke="#63b8ff" points="1552.38,-21.77 1542.15,-19.02 1548.43,-27.55 1552.38,-21.77"/>
</a>
</g>
</g>
<!-- Node18 -->
<g id="Node000018" class="node">
<title>Node18</title>
<g id="a_Node000018"><a xlink:href="MessageQueue_8h.html" target="_top" xlink:title=" ">
<polygon fill="white" stroke="#666666" points="819,-129 718,-129 718,-110 819,-110 819,-129"/>
<text text-anchor="middle" x="768.5" y="-117" font-family="Helvetica,sans-Serif" font-size="10.00">MessageQueue.h</text>
</a>
</g>
</g>
<!-- Node7&#45;&gt;Node18 -->
<g id="edge21_Node000007_Node000018" class="edge">
<title>Node7&#45;&gt;Node18</title>
<g id="a_edge21_Node000007_Node000018"><a xlink:title=" ">
<path fill="none" stroke="#63b8ff" d="M768.5,-164.75C768.5,-157.8 768.5,-147.85 768.5,-139.13"/>
<polygon fill="#63b8ff" stroke="#63b8ff" points="772,-139.09 768.5,-129.09 765,-139.09 772,-139.09"/>
</a>
</g>
</g>
<!-- Node23 -->
<g id="Node000023" class="node">
<title>Node23</title>
<g id="a_Node000023"><a xlink:href="Mutex_8h.html" target="_top" xlink:title=" ">
<polygon fill="white" stroke="#666666" points="1448.5,-129 1392.5,-129 1392.5,-110 1448.5,-110 1448.5,-129"/>
<text text-anchor="middle" x="1420.5" y="-117" font-family="Helvetica,sans-Serif" font-size="10.00">Mutex.h</text>
</a>
</g>
</g>
<!-- Node7&#45;&gt;Node23 -->
<g id="edge31_Node000007_Node000023" class="edge">
<title>Node7&#45;&gt;Node23</title>
<g id="a_edge31_Node000007_Node000023"><a xlink:title=" ">
<path fill="none" stroke="#63b8ff" d="M790.57,-171.71C885.58,-163.98 1260.43,-133.51 1382.13,-123.62"/>
<polygon fill="#63b8ff" stroke="#63b8ff" points="1382.76,-127.08 1392.44,-122.78 1382.19,-120.1 1382.76,-127.08"/>
</a>
</g>
</g>
<!-- Node26 -->
<g id="Node000026" class="node">
<title>Node26</title>
<g id="a_Node000026"><a xlink:href="Semaphore_8h.html" target="_top" xlink:title=" ">
<polygon fill="white" stroke="#666666" points="1157,-129 1076,-129 1076,-110 1157,-110 1157,-129"/>
<text text-anchor="middle" x="1116.5" y="-117" font-family="Helvetica,sans-Serif" font-size="10.00">Semaphore.h</text>
</a>
</g>
</g>
<!-- Node7&#45;&gt;Node26 -->
<g id="edge36_Node000007_Node000026" class="edge">
<title>Node7&#45;&gt;Node26</title>
<g id="a_edge36_Node000007_Node000026"><a xlink:title=" ">
<path fill="none" stroke="#63b8ff" d="M790.53,-170.14C845.3,-161.8 988.71,-139.96 1065.78,-128.22"/>
<polygon fill="#63b8ff" stroke="#63b8ff" points="1066.39,-131.67 1075.75,-126.71 1065.33,-124.75 1066.39,-131.67"/>
</a>
</g>
</g>
<!-- Node28 -->
<g id="Node000028" class="node">
<title>Node28</title>
<g id="a_Node000028"><a xlink:href="Task_8h.html" target="_top" xlink:title=" ">
<polygon fill="white" stroke="#666666" points="420,-129 373,-129 373,-110 420,-110 420,-129"/>
<text text-anchor="middle" x="396.5" y="-117" font-family="Helvetica,sans-Serif" font-size="10.00">Task.h</text>
</a>
</g>
</g>
<!-- Node7&#45;&gt;Node28 -->
<g id="edge41_Node000007_Node000028" class="edge">
<title>Node7&#45;&gt;Node28</title>
<g id="a_edge41_Node000007_Node000028"><a xlink:title=" ">
<path fill="none" stroke="#63b8ff" d="M746.34,-170.34C683.88,-161.44 506.01,-136.1 430.78,-125.38"/>
<polygon fill="#63b8ff" stroke="#63b8ff" points="430.84,-121.86 420.45,-123.91 429.85,-128.79 430.84,-121.86"/>
</a>
</g>
</g>
<!-- Node30 -->
<g id="Node000030" class="node">
<title>Node30</title>
<g id="a_Node000030"><a xlink:href="Timer_8h.html" target="_top" xlink:title=" ">
<polygon fill="white" stroke="#666666" points="564,-129 511,-129 511,-110 564,-110 564,-129"/>
<text text-anchor="middle" x="537.5" y="-117" font-family="Helvetica,sans-Serif" font-size="10.00">Timer.h</text>
</a>
</g>
</g>
<!-- Node7&#45;&gt;Node30 -->
<g id="edge46_Node000007_Node000030" class="edge">
<title>Node7&#45;&gt;Node30</title>
<g id="a_edge46_Node000007_Node000030"><a xlink:title=" ">
<path fill="none" stroke="#63b8ff" d="M746.35,-168.42C706.5,-159.27 622.36,-139.97 573.92,-128.86"/>
<polygon fill="#63b8ff" stroke="#63b8ff" points="574.69,-125.44 564.16,-126.62 573.12,-132.26 574.69,-125.44"/>
</a>
</g>
</g>
<!-- Node9 -->
<g id="Node000009" class="node">
<title>Node9</title>
<g id="a_Node000009"><a xlink:href="Core_8h.html" target="_top" xlink:title=" ">
<polygon fill="white" stroke="#666666" points="1070,-74 1003,-74 1003,-55 1070,-55 1070,-74"/>
<text text-anchor="middle" x="1036.5" y="-62" font-family="Helvetica,sans-Serif" font-size="10.00">util/Core.h</text>
</a>
</g>
</g>
<!-- Node8&#45;&gt;Node9 -->
<g id="edge8_Node000008_Node000009" class="edge">
<title>Node8&#45;&gt;Node9</title>
<g id="a_edge8_Node000008_Node000009"><a xlink:title=" ">
<path fill="none" stroke="#63b8ff" d="M1688.44,-117.52C1587.89,-114.68 1316.56,-104.68 1080.39,-73.93"/>
<polygon fill="#63b8ff" stroke="#63b8ff" points="1080.61,-70.42 1070.23,-72.59 1079.69,-77.36 1080.61,-70.42"/>
</a>
</g>
</g>
<!-- Node8&#45;&gt;Node10 -->
<g id="edge17_Node000008_Node000010" class="edge">
<title>Node8&#45;&gt;Node10</title>
<g id="a_edge17_Node000008_Node000010"><a xlink:title=" ">
<path fill="none" stroke="#63b8ff" d="M1712.57,-109.78C1685.39,-95.4 1627.9,-67.09 1575.5,-55 1448.07,-25.61 1057.33,-14.87 900.08,-11.66"/>
<polygon fill="#63b8ff" stroke="#63b8ff" points="900.14,-8.16 890.07,-11.46 900,-15.16 900.14,-8.16"/>
</a>
</g>
</g>
<!-- Node11 -->
<g id="Node000011" class="node">
<title>Node11</title>
<g id="a_Node000011"><a xlink:href="Flags_8h.html" target="_top" xlink:title=" ">
<polygon fill="white" stroke="#666666" points="2082,-74 2011,-74 2011,-55 2082,-55 2082,-74"/>
<text text-anchor="middle" x="2046.5" y="-62" font-family="Helvetica,sans-Serif" font-size="10.00">util/Flags.h</text>
</a>
</g>
</g>
<!-- Node8&#45;&gt;Node11 -->
<g id="edge10_Node000008_Node000011" class="edge">
<title>Node8&#45;&gt;Node11</title>
<g id="a_edge10_Node000008_Node000011"><a xlink:title=" ">
<path fill="none" stroke="#63b8ff" d="M1768.8,-112.26C1820.18,-104.22 1912.03,-89.62 2000.7,-74.1"/>
<polygon fill="#63b8ff" stroke="#63b8ff" points="2001.41,-77.53 2010.65,-72.35 2000.2,-70.64 2001.41,-77.53"/>
</a>
</g>
</g>
<!-- Node13 -->
<g id="Node000013" class="node">
<title>Node13</title>
<g id="a_Node000013"><a xlink:title=" ">
<polygon fill="#e0e0e0" stroke="#999999" points="1802,-19 1719,-19 1719,0 1802,0 1802,-19"/>
<text text-anchor="middle" x="1760.5" y="-7" font-family="Helvetica,sans-Serif" font-size="10.00">initializer_list</text>
</a>
</g>
</g>
<!-- Node8&#45;&gt;Node13 -->
<g id="edge20_Node000008_Node000013" class="edge">
<title>Node8&#45;&gt;Node13</title>
<g id="a_edge20_Node000008_Node000013"><a xlink:title=" ">
<path fill="none" stroke="#63b8ff" d="M1731.12,-109.66C1736.32,-92.09 1748.07,-52.45 1755.03,-28.95"/>
<polygon fill="#63b8ff" stroke="#63b8ff" points="1758.45,-29.74 1757.93,-19.16 1751.74,-27.75 1758.45,-29.74"/>
</a>
</g>
</g>
<!-- Node15 -->
<g id="Node000015" class="node">
<title>Node15</title>
<g id="a_Node000015"><a xlink:href="Types_8h.html" target="_top" xlink:title=" ">
<polygon fill="white" stroke="#666666" points="1732.5,-74 1660.5,-74 1660.5,-55 1732.5,-55 1732.5,-74"/>
<text text-anchor="middle" x="1696.5" y="-62" font-family="Helvetica,sans-Serif" font-size="10.00">util/Types.h</text>
</a>
</g>
</g>
<!-- Node8&#45;&gt;Node15 -->
<g id="edge14_Node000008_Node000015" class="edge">
<title>Node8&#45;&gt;Node15</title>
<g id="a_edge14_Node000008_Node000015"><a xlink:title=" ">
<path fill="none" stroke="#63b8ff" d="M1723.22,-109.75C1718.79,-102.42 1712.34,-91.73 1706.88,-82.7"/>
<polygon fill="#63b8ff" stroke="#63b8ff" points="1709.85,-80.84 1701.69,-74.09 1703.86,-84.46 1709.85,-80.84"/>
</a>
</g>
</g>
<!-- Node16 -->
<g id="Node000016" class="node">
<title>Node16</title>
<g id="a_Node000016"><a xlink:title=" ">
<polygon fill="#e0e0e0" stroke="#999999" points="1922,-74 1789,-74 1789,-55 1922,-55 1922,-74"/>
<text text-anchor="middle" x="1855.5" y="-62" font-family="Helvetica,sans-Serif" font-size="10.00">freertos/event_groups.h</text>
</a>
</g>
</g>
<!-- Node8&#45;&gt;Node16 -->
<g id="edge18_Node000008_Node000016" class="edge">
<title>Node8&#45;&gt;Node16</title>
<g id="a_edge18_Node000008_Node000016"><a xlink:title=" ">
<path fill="none" stroke="#63b8ff" d="M1748.9,-109.98C1769.52,-101.38 1801.61,-87.99 1825.19,-78.15"/>
<polygon fill="#63b8ff" stroke="#63b8ff" points="1826.84,-81.25 1834.72,-74.17 1824.15,-74.79 1826.84,-81.25"/>
</a>
</g>
</g>
<!-- Node17 -->
<g id="Node000017" class="node">
<title>Node17</title>
<g id="a_Node000017"><a xlink:title=" ">
<polygon fill="#e0e0e0" stroke="#999999" points="1992.5,-74 1940.5,-74 1940.5,-55 1992.5,-55 1992.5,-74"/>
<text text-anchor="middle" x="1966.5" y="-62" font-family="Helvetica,sans-Serif" font-size="10.00">cassert</text>
</a>
</g>
</g>
<!-- Node8&#45;&gt;Node17 -->
<g id="edge19_Node000008_Node000017" class="edge">
<title>Node8&#45;&gt;Node17</title>
<g id="a_edge19_Node000008_Node000017"><a xlink:title=" ">
<path fill="none" stroke="#63b8ff" d="M1768.62,-109.98C1807.53,-101.66 1868.49,-88.46 1930.23,-74.26"/>
<polygon fill="#63b8ff" stroke="#63b8ff" points="1931.19,-77.63 1940.14,-71.97 1929.61,-70.81 1931.19,-77.63"/>
</a>
</g>
</g>
<!-- Node9&#45;&gt;Node10 -->
<g id="edge9_Node000009_Node000010" class="edge">
<title>Node9&#45;&gt;Node10</title>
<g id="a_edge9_Node000009_Node000010"><a xlink:title=" ">
<path fill="none" stroke="#63b8ff" d="M1003.88,-54.98C969.21,-45.93 914.24,-31.58 876.15,-21.64"/>
<polygon fill="#63b8ff" stroke="#63b8ff" points="876.93,-18.22 866.37,-19.08 875.16,-24.99 876.93,-18.22"/>
</a>
</g>
</g>
<!-- Node11&#45;&gt;Node12 -->
<g id="edge11_Node000011_Node000012" class="edge">
<title>Node11&#45;&gt;Node12</title>
<g id="a_edge11_Node000011_Node000012"><a xlink:title=" ">
<path fill="none" stroke="#63b8ff" d="M2010.69,-56.42C2007.59,-55.91 2004.49,-55.42 2001.5,-55 1838.33,-31.98 1641.82,-17.83 1562.87,-12.69"/>
<polygon fill="#63b8ff" stroke="#63b8ff" points="1562.73,-9.17 1552.52,-12.03 1562.28,-16.16 1562.73,-9.17"/>
</a>
</g>
</g>
<!-- Node11&#45;&gt;Node13 -->
<g id="edge12_Node000011_Node000013" class="edge">
<title>Node11&#45;&gt;Node13</title>
<g id="a_edge12_Node000011_Node000013"><a xlink:title=" ">
<path fill="none" stroke="#63b8ff" d="M2010.64,-56.71C2007.55,-56.13 2004.47,-55.55 2001.5,-55 1936.29,-42.82 1861.12,-28.97 1812.31,-20"/>
<polygon fill="#63b8ff" stroke="#63b8ff" points="1812.77,-16.53 1802.31,-18.17 1811.51,-23.41 1812.77,-16.53"/>
</a>
</g>
</g>
<!-- Node14 -->
<g id="Node000014" class="node">
<title>Node14</title>
<g id="a_Node000014"><a xlink:title=" ">
<polygon fill="#e0e0e0" stroke="#999999" points="2081,-19 2012,-19 2012,0 2081,0 2081,-19"/>
<text text-anchor="middle" x="2046.5" y="-7" font-family="Helvetica,sans-Serif" font-size="10.00">type_traits</text>
</a>
</g>
</g>
<!-- Node11&#45;&gt;Node14 -->
<g id="edge13_Node000011_Node000014" class="edge">
<title>Node11&#45;&gt;Node14</title>
<g id="a_edge13_Node000011_Node000014"><a xlink:title=" ">
<path fill="none" stroke="#63b8ff" d="M2046.5,-54.75C2046.5,-47.8 2046.5,-37.85 2046.5,-29.13"/>
<polygon fill="#63b8ff" stroke="#63b8ff" points="2050,-29.09 2046.5,-19.09 2043,-29.09 2050,-29.09"/>
</a>
</g>
</g>
<!-- Node15&#45;&gt;Node12 -->
<g id="edge15_Node000015_Node000012" class="edge">
<title>Node15&#45;&gt;Node12</title>
<g id="a_edge15_Node000015_Node000012"><a xlink:title=" ">
<path fill="none" stroke="#63b8ff" d="M1669.35,-54.98C1640.3,-45.88 1594.14,-31.4 1562.41,-21.45"/>
<polygon fill="#63b8ff" stroke="#63b8ff" points="1563.24,-18.04 1552.65,-18.39 1561.15,-24.72 1563.24,-18.04"/>
</a>
</g>
</g>
<!-- Node15&#45;&gt;Node13 -->
<g id="edge16_Node000015_Node000013" class="edge">
<title>Node15&#45;&gt;Node13</title>
<g id="a_edge16_Node000015_Node000013"><a xlink:title=" ">
<path fill="none" stroke="#63b8ff" d="M1706.78,-54.98C1716.34,-47.07 1730.78,-35.11 1742.28,-25.58"/>
<polygon fill="#63b8ff" stroke="#63b8ff" points="1744.56,-28.24 1750.03,-19.17 1740.1,-22.85 1744.56,-28.24"/>
</a>
</g>
</g>
<!-- Node18&#45;&gt;Node6 -->
<g id="edge30_Node000018_Node000006" class="edge">
<title>Node18&#45;&gt;Node6</title>
<g id="a_edge30_Node000018_Node000006"><a xlink:title=" ">
<path fill="none" stroke="#63b8ff" d="M717.93,-113.16C654.3,-106.13 541.51,-92.65 435.79,-74.1"/>
<polygon fill="#63b8ff" stroke="#63b8ff" points="436.36,-70.64 425.91,-72.34 435.14,-77.54 436.36,-70.64"/>
</a>
</g>
</g>
<!-- Node18&#45;&gt;Node9 -->
<g id="edge26_Node000018_Node000009" class="edge">
<title>Node18&#45;&gt;Node9</title>
<g id="a_edge26_Node000018_Node000009"><a xlink:title=" ">
<path fill="none" stroke="#63b8ff" d="M811.56,-109.98C861.39,-100.13 943,-83.99 993.01,-74.1"/>
<polygon fill="#63b8ff" stroke="#63b8ff" points="993.75,-77.52 1002.88,-72.15 992.39,-70.66 993.75,-77.52"/>
</a>
</g>
</g>
<!-- Node18&#45;&gt;Node10 -->
<g id="edge27_Node000018_Node000010" class="edge">
<title>Node18&#45;&gt;Node10</title>
<g id="a_edge27_Node000018_Node000010"><a xlink:title=" ">
<path fill="none" stroke="#63b8ff" d="M750.25,-109.88C728.11,-98.21 695.49,-76.39 710.5,-55 723.62,-36.3 745.42,-25.43 767.06,-19.11"/>
<polygon fill="#63b8ff" stroke="#63b8ff" points="768.16,-22.44 776.95,-16.52 766.39,-15.67 768.16,-22.44"/>
</a>
</g>
</g>
<!-- Node19 -->
<g id="Node000019" class="node">
<title>Node19</title>
<g id="a_Node000019"><a xlink:href="IItemReceiver_8h.html" target="_top" xlink:title=" ">
<polygon fill="white" stroke="#666666" points="946,-74 835,-74 835,-55 946,-55 946,-74"/>
<text text-anchor="middle" x="890.5" y="-62" font-family="Helvetica,sans-Serif" font-size="10.00">api/IItemReceiver.h</text>
</a>
</g>
</g>
<!-- Node18&#45;&gt;Node19 -->
<g id="edge22_Node000018_Node000019" class="edge">
<title>Node18&#45;&gt;Node19</title>
<g id="a_edge22_Node000018_Node000019"><a xlink:title=" ">
<path fill="none" stroke="#63b8ff" d="M788.1,-109.98C807.82,-101.42 838.45,-88.11 861.08,-78.28"/>
<polygon fill="#63b8ff" stroke="#63b8ff" points="862.76,-81.37 870.54,-74.17 859.98,-74.94 862.76,-81.37"/>
</a>
</g>
</g>
<!-- Node20 -->
<g id="Node000020" class="node">
<title>Node20</title>
<g id="a_Node000020"><a xlink:href="IItemSender_8h.html" target="_top" xlink:title=" ">
<polygon fill="white" stroke="#666666" points="1190.5,-74 1088.5,-74 1088.5,-55 1190.5,-55 1190.5,-74"/>
<text text-anchor="middle" x="1139.5" y="-62" font-family="Helvetica,sans-Serif" font-size="10.00">api/IItemSender.h</text>
</a>
</g>
</g>
<!-- Node18&#45;&gt;Node20 -->
<g id="edge24_Node000018_Node000020" class="edge">
<title>Node18&#45;&gt;Node20</title>
<g id="a_edge24_Node000018_Node000020"><a xlink:title=" ">
<path fill="none" stroke="#63b8ff" d="M819.31,-111.24C886.74,-101.61 1005.69,-84.62 1078.08,-74.27"/>
<polygon fill="#63b8ff" stroke="#63b8ff" points="1079.01,-77.68 1088.41,-72.8 1078.02,-70.75 1079.01,-77.68"/>
</a>
</g>
</g>
<!-- Node21 -->
<g id="Node000021" class="node">
<title>Node21</title>
<g id="a_Node000021"><a xlink:title=" ">
<polygon fill="#e0e0e0" stroke="#999999" points="817,-74 720,-74 720,-55 817,-55 817,-74"/>
<text text-anchor="middle" x="768.5" y="-62" font-family="Helvetica,sans-Serif" font-size="10.00">freertos/queue.h</text>
</a>
</g>
</g>
<!-- Node18&#45;&gt;Node21 -->
<g id="edge28_Node000018_Node000021" class="edge">
<title>Node18&#45;&gt;Node21</title>
<g id="a_edge28_Node000018_Node000021"><a xlink:title=" ">
<path fill="none" stroke="#63b8ff" d="M768.5,-109.75C768.5,-102.8 768.5,-92.85 768.5,-84.13"/>
<polygon fill="#63b8ff" stroke="#63b8ff" points="772,-84.09 768.5,-74.09 765,-84.09 772,-84.09"/>
</a>
</g>
</g>
<!-- Node22 -->
<g id="Node000022" class="node">
<title>Node22</title>
<g id="a_Node000022"><a xlink:title=" ">
<polygon fill="#e0e0e0" stroke="#999999" points="509,-74 444,-74 444,-55 509,-55 509,-74"/>
<text text-anchor="middle" x="476.5" y="-62" font-family="Helvetica,sans-Serif" font-size="10.00">functional</text>
</a>
</g>
</g>
<!-- Node18&#45;&gt;Node22 -->
<g id="edge29_Node000018_Node000022" class="edge">
<title>Node18&#45;&gt;Node22</title>
<g id="a_edge29_Node000018_Node000022"><a xlink:title=" ">
<path fill="none" stroke="#63b8ff" d="M721.59,-109.98C665.7,-99.84 573.14,-83.04 519.18,-73.25"/>
<polygon fill="#63b8ff" stroke="#63b8ff" points="519.72,-69.79 509.25,-71.45 518.47,-76.67 519.72,-69.79"/>
</a>
</g>
</g>
<!-- Node19&#45;&gt;Node12 -->
<g id="edge23_Node000019_Node000012" class="edge">
<title>Node19&#45;&gt;Node12</title>
<g id="a_edge23_Node000019_Node000012"><a xlink:title=" ">
<path fill="none" stroke="#63b8ff" d="M946.19,-58.87C1074.27,-48.21 1386.8,-22.21 1492.16,-13.44"/>
<polygon fill="#63b8ff" stroke="#63b8ff" points="1492.59,-16.92 1502.26,-12.6 1492.01,-9.94 1492.59,-16.92"/>
</a>
</g>
</g>
<!-- Node20&#45;&gt;Node12 -->
<g id="edge25_Node000020_Node000012" class="edge">
<title>Node20&#45;&gt;Node12</title>
<g id="a_edge25_Node000020_Node000012"><a xlink:title=" ">
<path fill="none" stroke="#63b8ff" d="M1190.56,-56.25C1193.58,-55.82 1196.58,-55.4 1199.5,-55 1306.09,-40.22 1432.24,-23.25 1492.31,-15.21"/>
<polygon fill="#63b8ff" stroke="#63b8ff" points="1492.94,-18.65 1502.39,-13.86 1492.02,-11.71 1492.94,-18.65"/>
</a>
</g>
</g>
<!-- Node23&#45;&gt;Node10 -->
<g id="edge34_Node000023_Node000010" class="edge">
<title>Node23&#45;&gt;Node10</title>
<g id="a_edge34_Node000023_Node000010"><a xlink:title=" ">
<path fill="none" stroke="#63b8ff" d="M1428,-109.97C1438.83,-96.61 1456.05,-70.65 1441.5,-55 1405.25,-16 1050.24,-10.82 900.06,-10.38"/>
<polygon fill="#63b8ff" stroke="#63b8ff" points="900.04,-6.88 890.03,-10.36 900.03,-13.88 900.04,-6.88"/>
</a>
</g>
</g>
<!-- Node24 -->
<g id="Node000024" class="node">
<title>Node24</title>
<g id="a_Node000024"><a xlink:href="IMutex_8h.html" target="_top" xlink:title=" ">
<polygon fill="white" stroke="#666666" points="1566,-74 1489,-74 1489,-55 1566,-55 1566,-74"/>
<text text-anchor="middle" x="1527.5" y="-62" font-family="Helvetica,sans-Serif" font-size="10.00">api/IMutex.h</text>
</a>
</g>
</g>
<!-- Node23&#45;&gt;Node24 -->
<g id="edge32_Node000023_Node000024" class="edge">
<title>Node23&#45;&gt;Node24</title>
<g id="a_edge32_Node000023_Node000024"><a xlink:title=" ">
<path fill="none" stroke="#63b8ff" d="M1437.69,-109.98C1454.75,-101.54 1481.13,-88.47 1500.9,-78.68"/>
<polygon fill="#63b8ff" stroke="#63b8ff" points="1502.59,-81.75 1510,-74.17 1499.48,-75.47 1502.59,-81.75"/>
</a>
</g>
</g>
<!-- Node25 -->
<g id="Node000025" class="node">
<title>Node25</title>
<g id="a_Node000025"><a xlink:title=" ">
<polygon fill="#e0e0e0" stroke="#999999" points="1432,-74 1329,-74 1329,-55 1432,-55 1432,-74"/>
<text text-anchor="middle" x="1380.5" y="-62" font-family="Helvetica,sans-Serif" font-size="10.00">freertos/semphr.h</text>
</a>
</g>
</g>
<!-- Node23&#45;&gt;Node25 -->
<g id="edge35_Node000023_Node000025" class="edge">
<title>Node23&#45;&gt;Node25</title>
<g id="a_edge35_Node000023_Node000025"><a xlink:title=" ">
<path fill="none" stroke="#63b8ff" d="M1413.89,-109.75C1408.24,-102.26 1399.96,-91.28 1393.05,-82.13"/>
<polygon fill="#63b8ff" stroke="#63b8ff" points="1395.8,-79.96 1386.98,-74.09 1390.21,-84.18 1395.8,-79.96"/>
</a>
</g>
</g>
<!-- Node24&#45;&gt;Node12 -->
<g id="edge33_Node000024_Node000012" class="edge">
<title>Node24&#45;&gt;Node12</title>
<g id="a_edge33_Node000024_Node000012"><a xlink:title=" ">
<path fill="none" stroke="#63b8ff" d="M1527.5,-54.75C1527.5,-47.8 1527.5,-37.85 1527.5,-29.13"/>
<polygon fill="#63b8ff" stroke="#63b8ff" points="1531,-29.09 1527.5,-19.09 1524,-29.09 1531,-29.09"/>
</a>
</g>
</g>
<!-- Node26&#45;&gt;Node10 -->
<g id="edge39_Node000026_Node000010" class="edge">
<title>Node26&#45;&gt;Node10</title>
<g id="a_edge39_Node000026_Node000010"><a xlink:title=" ">
<path fill="none" stroke="#63b8ff" d="M1090.49,-109.89C1065.59,-101.44 1027.08,-87.83 994.5,-74 976.75,-66.46 973.25,-62.54 955.5,-55 926.86,-42.84 893.65,-30.86 869.12,-22.4"/>
<polygon fill="#63b8ff" stroke="#63b8ff" points="870.1,-19.04 859.51,-19.11 867.84,-25.66 870.1,-19.04"/>
</a>
</g>
</g>
<!-- Node26&#45;&gt;Node25 -->
<g id="edge40_Node000026_Node000025" class="edge">
<title>Node26&#45;&gt;Node25</title>
<g id="a_edge40_Node000026_Node000025"><a xlink:title=" ">
<path fill="none" stroke="#63b8ff" d="M1157.17,-110.33C1203.04,-101.13 1277.78,-86.12 1328.02,-76.04"/>
<polygon fill="#63b8ff" stroke="#63b8ff" points="1328.92,-79.43 1338.03,-74.03 1327.54,-72.56 1328.92,-79.43"/>
</a>
</g>
</g>
<!-- Node27 -->
<g id="Node000027" class="node">
<title>Node27</title>
<g id="a_Node000027"><a xlink:href="ISemaphore_8h.html" target="_top" xlink:title=" ">
<polygon fill="white" stroke="#666666" points="1310.5,-74 1208.5,-74 1208.5,-55 1310.5,-55 1310.5,-74"/>
<text text-anchor="middle" x="1259.5" y="-62" font-family="Helvetica,sans-Serif" font-size="10.00">api/ISemaphore.h</text>
</a>
</g>
</g>
<!-- Node26&#45;&gt;Node27 -->
<g id="edge37_Node000026_Node000027" class="edge">
<title>Node26&#45;&gt;Node27</title>
<g id="a_edge37_Node000026_Node000027"><a xlink:title=" ">
<path fill="none" stroke="#63b8ff" d="M1139.48,-109.98C1163,-101.27 1199.79,-87.63 1226.44,-77.75"/>
<polygon fill="#63b8ff" stroke="#63b8ff" points="1227.95,-80.93 1236.11,-74.17 1225.51,-74.36 1227.95,-80.93"/>
</a>
</g>
</g>
<!-- Node27&#45;&gt;Node12 -->
<g id="edge38_Node000027_Node000012" class="edge">
<title>Node27&#45;&gt;Node12</title>
<g id="a_edge38_Node000027_Node000012"><a xlink:title=" ">
<path fill="none" stroke="#63b8ff" d="M1302.56,-54.98C1355.22,-44.57 1443.35,-27.14 1492.2,-17.48"/>
<polygon fill="#63b8ff" stroke="#63b8ff" points="1493.16,-20.86 1502.29,-15.49 1491.8,-13.99 1493.16,-20.86"/>
</a>
</g>
</g>
<!-- Node28&#45;&gt;Node6 -->
<g id="edge45_Node000028_Node000006" class="edge">
<title>Node28&#45;&gt;Node6</title>
<g id="a_edge45_Node000028_Node000006"><a xlink:title=" ">
<path fill="none" stroke="#63b8ff" d="M396.5,-109.75C396.5,-102.8 396.5,-92.85 396.5,-84.13"/>
<polygon fill="#63b8ff" stroke="#63b8ff" points="400,-84.09 396.5,-74.09 393,-84.09 400,-84.09"/>
</a>
</g>
</g>
<!-- Node28&#45;&gt;Node10 -->
<g id="edge42_Node000028_Node000010" class="edge">
<title>Node28&#45;&gt;Node10</title>
<g id="a_edge42_Node000028_Node000010"><a xlink:title=" ">
<path fill="none" stroke="#63b8ff" d="M372.77,-116.39C323.06,-111.13 215.55,-94.89 252.5,-55 286.84,-17.92 621.58,-11.62 766.82,-10.63"/>
<polygon fill="#63b8ff" stroke="#63b8ff" points="766.97,-14.13 776.94,-10.57 766.92,-7.13 766.97,-14.13"/>
</a>
</g>
</g>
<!-- Node28&#45;&gt;Node22 -->
<g id="edge44_Node000028_Node000022" class="edge">
<title>Node28&#45;&gt;Node22</title>
<g id="a_edge44_Node000028_Node000022"><a xlink:title=" ">
<path fill="none" stroke="#63b8ff" d="M409.35,-109.98C421.64,-101.84 440.41,-89.41 454.98,-79.76"/>
<polygon fill="#63b8ff" stroke="#63b8ff" points="457.01,-82.61 463.41,-74.17 453.14,-76.78 457.01,-82.61"/>
</a>
</g>
</g>
<!-- Node29 -->
<g id="Node000029" class="node">
<title>Node29</title>
<g id="a_Node000029"><a xlink:title=" ">
<polygon fill="#e0e0e0" stroke="#999999" points="349.5,-74 261.5,-74 261.5,-55 349.5,-55 349.5,-74"/>
<text text-anchor="middle" x="305.5" y="-62" font-family="Helvetica,sans-Serif" font-size="10.00">freertos/task.h</text>
</a>
</g>
</g>
<!-- Node28&#45;&gt;Node29 -->
<g id="edge43_Node000028_Node000029" class="edge">
<title>Node28&#45;&gt;Node29</title>
<g id="a_edge43_Node000028_Node000029"><a xlink:title=" ">
<path fill="none" stroke="#63b8ff" d="M381.88,-109.98C367.64,-101.69 345.75,-88.94 329.05,-79.22"/>
<polygon fill="#63b8ff" stroke="#63b8ff" points="330.79,-76.18 320.39,-74.17 327.27,-82.23 330.79,-76.18"/>
</a>
</g>
</g>
<!-- Node30&#45;&gt;Node6 -->
<g id="edge50_Node000030_Node000006" class="edge">
<title>Node30&#45;&gt;Node6</title>
<g id="a_edge50_Node000030_Node000006"><a xlink:title=" ">
<path fill="none" stroke="#63b8ff" d="M514.85,-109.98C491.65,-101.27 455.38,-87.63 429.1,-77.75"/>
<polygon fill="#63b8ff" stroke="#63b8ff" points="430.16,-74.41 419.57,-74.17 427.7,-80.97 430.16,-74.41"/>
</a>
</g>
</g>
<!-- Node30&#45;&gt;Node10 -->
<g id="edge47_Node000030_Node000010" class="edge">
<title>Node30&#45;&gt;Node10</title>
<g id="a_edge47_Node000030_Node000010"><a xlink:title=" ">
<path fill="none" stroke="#63b8ff" d="M537.38,-109.57C537.73,-95.65 540.58,-68.96 556.5,-55 586.96,-28.3 694.76,-17.51 766.55,-13.23"/>
<polygon fill="#63b8ff" stroke="#63b8ff" points="767.08,-16.7 776.87,-12.64 766.69,-9.71 767.08,-16.7"/>
</a>
</g>
</g>
<!-- Node30&#45;&gt;Node22 -->
<g id="edge49_Node000030_Node000022" class="edge">
<title>Node30&#45;&gt;Node22</title>
<g id="a_edge49_Node000030_Node000022"><a xlink:title=" ">
<path fill="none" stroke="#63b8ff" d="M527.7,-109.98C518.68,-102.15 505.09,-90.34 494.18,-80.86"/>
<polygon fill="#63b8ff" stroke="#63b8ff" points="496.32,-78.09 486.48,-74.17 491.73,-83.37 496.32,-78.09"/>
</a>
</g>
</g>
<!-- Node31 -->
<g id="Node000031" class="node">
<title>Node31</title>
<g id="a_Node000031"><a xlink:title=" ">
<polygon fill="#e0e0e0" stroke="#999999" points="663.5,-74 565.5,-74 565.5,-55 663.5,-55 663.5,-74"/>
<text text-anchor="middle" x="614.5" y="-62" font-family="Helvetica,sans-Serif" font-size="10.00">freertos/timers.h</text>
</a>
</g>
</g>
<!-- Node30&#45;&gt;Node31 -->
<g id="edge48_Node000030_Node000031" class="edge">
<title>Node30&#45;&gt;Node31</title>
<g id="a_edge48_Node000030_Node000031"><a xlink:title=" ">
<path fill="none" stroke="#63b8ff" d="M549.87,-109.98C561.59,-101.92 579.42,-89.65 593.39,-80.03"/>
<polygon fill="#63b8ff" stroke="#63b8ff" points="595.65,-82.72 601.9,-74.17 591.68,-76.96 595.65,-82.72"/>
</a>
</g>
</g>
</g>
</svg>

<g id="navigator" transform="translate(0 0)" fill="#404254">
  <rect fill="#f2f5e9" fill-opacity="0.5" stroke="#606060" stroke-width=".5" x="0" y="0" width="60" height="60"/>
  <use id="zoomplus" xlink:href="#zoomPlus" x="17" y="9" onmousedown="handleZoom(evt,'in')"/>
  <use id="zoomminus" xlink:href="#zoomMin" x="42" y="9" onmousedown="handleZoom(evt,'out')"/>
  <use id="reset" xlink:href="#resetDef" x="30" y="36" onmousedown="handleReset()"/>
   <use id="arrowup" xlink:href="#arrowUp" x="0" y="0" onmousedown="handlePan(0,-1)"/>
  <use id="arrowright" xlink:href="#arrowRight" x="0" y="0" onmousedown="handlePan(1,0)"/>
  <use id="arrowdown" xlink:href="#arrowDown" x="0" y="0" onmousedown="handlePan(0,1)"/>
  <use id="arrowleft" xlink:href="#arrowLeft" x="0" y="0" onmousedown="handlePan(-1,0)"/>
</g>
<svg viewBox="0 0 15 15" width="100%" height="30px" preserveAspectRatio="xMaxYMin meet">
 <g id="arrow_out" transform="scale(0.3 0.3)">
  <a xlink:href="DataParser_8cpp__incl_org.svg" target="_base">
   <rect id="button" ry="5" rx="5" y="6" x="6" height="38" width="38"
        fill="#f2f5e9" fill-opacity="0.5" stroke="#606060" stroke-width="1.0"/>
   <path id="arrow"
     d="M 11.500037,31.436501 C 11.940474,20.09759 22.043105,11.32322 32.158766,21.979434 L 37.068811,17.246167 C 37.068811,17.246167 37.088388,32 37.088388,32 L 22.160133,31.978069 C 22.160133,31.978069 26.997745,27.140456 26.997745,27.140456 C 18.528582,18.264221 13.291696,25.230495 11.500037,31.436501 z"
     style="fill:#404040;"/>
  </a>
 </g>
</svg>

<style type='text/css'>
<![CDATA[
[data-mouse-over-selected='false'] { opacity: 0.7; }
[data-mouse-over-selected='true']  { opacity: 1.0; }
]]>
</style>
<script type="application/ecmascript"><![CDATA[
document.addEventListener('DOMContentLoaded', (event) => {
  highlightEdges();
  highlightAdjacentNodes();
});
]]></script>
</svg>
