<?xml version="1.0" encoding="UTF-8" standalone="no"?>
<!DOCTYPE svg PUBLIC "-//W3C//DTD SVG 1.1//EN"
 "http://www.w3.org/Graphics/SVG/1.1/DTD/svg11.dtd">
<!-- Generated by graphviz version 2.43.0 (0)
 -->
<!-- Title: components/rtos_cpp/include/util/Flags.h Pages: 1 -->
<svg width="1269pt" height="401pt"
 viewBox="0.00 0.00 1269.00 401.00" xmlns="http://www.w3.org/2000/svg" xmlns:xlink="http://www.w3.org/1999/xlink">
<g id="graph0" class="graph" transform="scale(1 1) rotate(0) translate(4 397)">
<title>components/rtos_cpp/include/util/Flags.h</title>
<!-- Node1 -->
<g id="Node000001" class="node">
<title>Node1</title>
<g id="a_Node000001"><a xlink:title=" ">
<polygon fill="#999999" stroke="#666666" points="541,-393 420,-393 420,-363 541,-363 541,-393"/>
<text text-anchor="start" x="428" y="-381" font-family="Helvetica,sans-Serif" font-size="10.00">components/rtos_cpp</text>
<text text-anchor="middle" x="480.5" y="-370" font-family="Helvetica,sans-Serif" font-size="10.00">/include/util/Flags.h</text>
</a>
</g>
</g>
<!-- Node2 -->
<g id="Node000002" class="node">
<title>Node2</title>
<g id="a_Node000002"><a xlink:href="EventFlags_8h.html" target="_top" xlink:title=" ">
<polygon fill="white" stroke="#666666" points="541,-327 420,-327 420,-297 541,-297 541,-327"/>
<text text-anchor="start" x="428" y="-315" font-family="Helvetica,sans-Serif" font-size="10.00">components/rtos_cpp</text>
<text text-anchor="middle" x="480.5" y="-304" font-family="Helvetica,sans-Serif" font-size="10.00">/include/EventFlags.h</text>
</a>
</g>
</g>
<!-- Node1&#45;&gt;Node2 -->
<g id="edge1_Node000001_Node000002" class="edge">
<title>Node1&#45;&gt;Node2</title>
<g id="a_edge1_Node000001_Node000002"><a xlink:title=" ">
<path fill="none" stroke="#63b8ff" d="M480.5,-352.54C480.5,-343.96 480.5,-334.61 480.5,-327.16"/>
<polygon fill="#63b8ff" stroke="#63b8ff" points="477,-352.8 480.5,-362.8 484,-352.8 477,-352.8"/>
</a>
</g>
</g>
<!-- Node3 -->
<g id="Node000003" class="node">
<title>Node3</title>
<g id="a_Node000003"><a xlink:href="rtos_8h.html" target="_top" xlink:title=" ">
<polygon fill="white" stroke="#666666" points="541,-261 420,-261 420,-231 541,-231 541,-261"/>
<text text-anchor="start" x="428" y="-249" font-family="Helvetica,sans-Serif" font-size="10.00">components/rtos_cpp</text>
<text text-anchor="middle" x="480.5" y="-238" font-family="Helvetica,sans-Serif" font-size="10.00">/include/rtos.h</text>
</a>
</g>
</g>
<!-- Node2&#45;&gt;Node3 -->
<g id="edge2_Node000002_Node000003" class="edge">
<title>Node2&#45;&gt;Node3</title>
<g id="a_edge2_Node000002_Node000003"><a xlink:title=" ">
<path fill="none" stroke="#63b8ff" d="M480.5,-286.54C480.5,-277.96 480.5,-268.61 480.5,-261.16"/>
<polygon fill="#63b8ff" stroke="#63b8ff" points="477,-286.8 480.5,-296.8 484,-286.8 477,-286.8"/>
</a>
</g>
</g>
<!-- Node4 -->
<g id="Node000004" class="node">
<title>Node4</title>
<g id="a_Node000004"><a xlink:href="Mutex_8cpp.html" target="_top" xlink:title=" ">
<polygon fill="white" stroke="#666666" points="333,-195 212,-195 212,-165 333,-165 333,-195"/>
<text text-anchor="start" x="220" y="-183" font-family="Helvetica,sans-Serif" font-size="10.00">components/rtos_cpp</text>
<text text-anchor="middle" x="272.5" y="-172" font-family="Helvetica,sans-Serif" font-size="10.00">/src/Mutex.cpp</text>
</a>
</g>
</g>
<!-- Node3&#45;&gt;Node4 -->
<g id="edge3_Node000003_Node000004" class="edge">
<title>Node3&#45;&gt;Node4</title>
<g id="a_edge3_Node000003_Node000004"><a xlink:title=" ">
<path fill="none" stroke="#63b8ff" d="M425.21,-227.99C391.75,-217.69 349.58,-204.72 318.04,-195.01"/>
<polygon fill="#63b8ff" stroke="#63b8ff" points="424.27,-231.36 434.85,-230.95 426.33,-224.67 424.27,-231.36"/>
</a>
</g>
</g>
<!-- Node5 -->
<g id="Node000005" class="node">
<title>Node5</title>
<g id="a_Node000005"><a xlink:href="Semaphore_8cpp.html" target="_top" xlink:title=" ">
<polygon fill="white" stroke="#666666" points="472,-195 351,-195 351,-165 472,-165 472,-195"/>
<text text-anchor="start" x="359" y="-183" font-family="Helvetica,sans-Serif" font-size="10.00">components/rtos_cpp</text>
<text text-anchor="middle" x="411.5" y="-172" font-family="Helvetica,sans-Serif" font-size="10.00">/src/Semaphore.cpp</text>
</a>
</g>
</g>
<!-- Node3&#45;&gt;Node5 -->
<g id="edge4_Node000003_Node000005" class="edge">
<title>Node3&#45;&gt;Node5</title>
<g id="a_edge4_Node000003_Node000005"><a xlink:title=" ">
<path fill="none" stroke="#63b8ff" d="M457.78,-223.92C447.6,-214.49 435.87,-203.61 426.77,-195.16"/>
<polygon fill="#63b8ff" stroke="#63b8ff" points="455.47,-226.56 465.19,-230.8 460.24,-221.43 455.47,-226.56"/>
</a>
</g>
</g>
<!-- Node6 -->
<g id="Node000006" class="node">
<title>Node6</title>
<g id="a_Node000006"><a xlink:href="rtos_8cpp.html" target="_top" xlink:title=" ">
<polygon fill="white" stroke="#666666" points="611,-195 490,-195 490,-165 611,-165 611,-195"/>
<text text-anchor="start" x="498" y="-183" font-family="Helvetica,sans-Serif" font-size="10.00">components/rtos_cpp</text>
<text text-anchor="middle" x="550.5" y="-172" font-family="Helvetica,sans-Serif" font-size="10.00">/src/rtos.cpp</text>
</a>
</g>
</g>
<!-- Node3&#45;&gt;Node6 -->
<g id="edge5_Node000003_Node000006" class="edge">
<title>Node3&#45;&gt;Node6</title>
<g id="a_edge5_Node000003_Node000006"><a xlink:title=" ">
<path fill="none" stroke="#63b8ff" d="M503.55,-223.92C513.87,-214.49 525.77,-203.61 535.01,-195.16"/>
<polygon fill="#63b8ff" stroke="#63b8ff" points="501.05,-221.47 496.04,-230.8 505.78,-226.63 501.05,-221.47"/>
</a>
</g>
</g>
<!-- Node7 -->
<g id="Node000007" class="node">
<title>Node7</title>
<g id="a_Node000007"><a xlink:href="MessageHandler_8hpp.html" target="_top" xlink:title="Declaration of the MessageHandler class for managing message queues between components.">
<polygon fill="white" stroke="#666666" points="814,-189.5 629,-189.5 629,-170.5 814,-170.5 814,-189.5"/>
<text text-anchor="middle" x="721.5" y="-177.5" font-family="Helvetica,sans-Serif" font-size="10.00">main/include/MessageHandler.hpp</text>
</a>
</g>
</g>
<!-- Node3&#45;&gt;Node7 -->
<g id="edge6_Node000003_Node000007" class="edge">
<title>Node3&#45;&gt;Node7</title>
<g id="a_edge6_Node000003_Node000007"><a xlink:title=" ">
<path fill="none" stroke="#63b8ff" d="M543.15,-228.36C590.03,-215.91 652.23,-199.4 689.43,-189.52"/>
<polygon fill="#63b8ff" stroke="#63b8ff" points="542.16,-225.01 533.39,-230.95 543.95,-231.77 542.16,-225.01"/>
</a>
</g>
</g>
<!-- Node8 -->
<g id="Node000008" class="node">
<title>Node8</title>
<g id="a_Node000008"><a xlink:href="BLE__Client_8hpp.html" target="_top" xlink:title="Header file for the BLE_Client class, which implements a BLE (Bluetooth Low Energy) client.">
<polygon fill="white" stroke="#666666" points="155,-74 0,-74 0,-55 155,-55 155,-74"/>
<text text-anchor="middle" x="77.5" y="-62" font-family="Helvetica,sans-Serif" font-size="10.00">main/include/BLE_Client.hpp</text>
</a>
</g>
</g>
<!-- Node7&#45;&gt;Node8 -->
<g id="edge7_Node000007_Node000008" class="edge">
<title>Node7&#45;&gt;Node8</title>
<g id="a_edge7_Node000007_Node000008"><a xlink:title=" ">
<path fill="none" stroke="#63b8ff" d="M651.07,-169.12C640.49,-167.7 629.71,-166.29 619.5,-165 480.13,-147.45 443.36,-155.93 305.5,-129 230.89,-114.43 145.05,-87.76 103.17,-74.08"/>
<polygon fill="#63b8ff" stroke="#63b8ff" points="650.74,-172.61 661.12,-170.49 651.68,-165.68 650.74,-172.61"/>
</a>
</g>
</g>
<!-- Node10 -->
<g id="Node000010" class="node">
<title>Node10</title>
<g id="a_Node000010"><a xlink:href="main_8cpp.html" target="_top" xlink:title=" ">
<polygon fill="white" stroke="#666666" points="756,-19 649,-19 649,0 756,0 756,-19"/>
<text text-anchor="middle" x="702.5" y="-7" font-family="Helvetica,sans-Serif" font-size="10.00">main/src/main.cpp</text>
</a>
</g>
</g>
<!-- Node7&#45;&gt;Node10 -->
<g id="edge27_Node000007_Node000010" class="edge">
<title>Node7&#45;&gt;Node10</title>
<g id="a_edge27_Node000007_Node000010"><a xlink:title=" ">
<path fill="none" stroke="#63b8ff" d="M824.04,-173.41C944.74,-163.15 1120.43,-134.44 1050.5,-55 1031.38,-33.28 848.95,-19.29 756.15,-13.52"/>
<polygon fill="#63b8ff" stroke="#63b8ff" points="823.68,-169.93 814,-174.23 824.25,-176.91 823.68,-169.93"/>
</a>
</g>
</g>
<!-- Node11 -->
<g id="Node000011" class="node">
<title>Node11</title>
<g id="a_Node000011"><a xlink:href="BLE__Server_8hpp.html" target="_top" xlink:title="Header file for the BLE_Server class, which implements a Bluetooth Low Energy (BLE) server.">
<polygon fill="white" stroke="#666666" points="331.5,-74 173.5,-74 173.5,-55 331.5,-55 331.5,-74"/>
<text text-anchor="middle" x="252.5" y="-62" font-family="Helvetica,sans-Serif" font-size="10.00">main/include/BLE_Server.hpp</text>
</a>
</g>
</g>
<!-- Node7&#45;&gt;Node11 -->
<g id="edge10_Node000007_Node000011" class="edge">
<title>Node7&#45;&gt;Node11</title>
<g id="a_edge10_Node000007_Node000011"><a xlink:title=" ">
<path fill="none" stroke="#63b8ff" d="M649.9,-169.11C639.7,-167.72 629.33,-166.32 619.5,-165 496.89,-148.59 458.86,-173.67 343.5,-129 310.09,-116.06 277.19,-88.4 261.7,-74.24"/>
<polygon fill="#63b8ff" stroke="#63b8ff" points="649.64,-172.61 660.02,-170.49 650.59,-165.67 649.64,-172.61"/>
</a>
</g>
</g>
<!-- Node13 -->
<g id="Node000013" class="node">
<title>Node13</title>
<g id="a_Node000013"><a xlink:href="Bluetooth_8hpp.html" target="_top" xlink:title="Defines the Bluetooth abstract base class for BLE communication.">
<polygon fill="white" stroke="#666666" points="504,-129 353,-129 353,-110 504,-110 504,-129"/>
<text text-anchor="middle" x="428.5" y="-117" font-family="Helvetica,sans-Serif" font-size="10.00">main/include/Bluetooth.hpp</text>
</a>
</g>
</g>
<!-- Node7&#45;&gt;Node13 -->
<g id="edge13_Node000007_Node000013" class="edge">
<title>Node7&#45;&gt;Node13</title>
<g id="a_edge13_Node000007_Node000013"><a xlink:title=" ">
<path fill="none" stroke="#63b8ff" d="M669.08,-168.53C612.53,-157.24 523.58,-139.48 471.16,-129.02"/>
<polygon fill="#63b8ff" stroke="#63b8ff" points="668.4,-171.97 678.9,-170.49 669.77,-165.1 668.4,-171.97"/>
</a>
</g>
</g>
<!-- Node16 -->
<g id="Node000016" class="node">
<title>Node16</title>
<g id="a_Node000016"><a xlink:href="DataParser_8hpp.html" target="_top" xlink:title="Declaration of the DataParser class for parsing and executing commands.">
<polygon fill="white" stroke="#666666" points="957.5,-129 801.5,-129 801.5,-110 957.5,-110 957.5,-129"/>
<text text-anchor="middle" x="879.5" y="-117" font-family="Helvetica,sans-Serif" font-size="10.00">main/include/DataParser.hpp</text>
</a>
</g>
</g>
<!-- Node7&#45;&gt;Node16 -->
<g id="edge20_Node000007_Node000016" class="edge">
<title>Node7&#45;&gt;Node16</title>
<g id="a_edge20_Node000007_Node000016"><a xlink:title=" ">
<path fill="none" stroke="#63b8ff" d="M754.24,-166.88C784.78,-155.57 829.57,-138.99 856.5,-129.02"/>
<polygon fill="#63b8ff" stroke="#63b8ff" points="752.64,-163.74 744.47,-170.49 755.07,-170.3 752.64,-163.74"/>
</a>
</g>
</g>
<!-- Node18 -->
<g id="Node000018" class="node">
<title>Node18</title>
<g id="a_Node000018"><a xlink:href="uart_8hpp.html" target="_top" xlink:title="Declaration of the Uart class for managing UART communication on the ESP32&#45;C6.">
<polygon fill="white" stroke="#666666" points="783,-129 660,-129 660,-110 783,-110 783,-129"/>
<text text-anchor="middle" x="721.5" y="-117" font-family="Helvetica,sans-Serif" font-size="10.00">main/include/uart.hpp</text>
</a>
</g>
</g>
<!-- Node7&#45;&gt;Node18 -->
<g id="edge23_Node000007_Node000018" class="edge">
<title>Node7&#45;&gt;Node18</title>
<g id="a_edge23_Node000007_Node000018"><a xlink:title=" ">
<path fill="none" stroke="#63b8ff" d="M721.5,-160.16C721.5,-149.74 721.5,-137.3 721.5,-129.17"/>
<polygon fill="#63b8ff" stroke="#63b8ff" points="718,-160.37 721.5,-170.37 725,-160.37 718,-160.37"/>
</a>
</g>
</g>
<!-- Node20 -->
<g id="Node000020" class="node">
<title>Node20</title>
<g id="a_Node000020"><a xlink:href="MessageHandler_8cpp.html" target="_top" xlink:title="Implementation of the MessageHandler class.">
<polygon fill="white" stroke="#666666" points="1261,-129 1098,-129 1098,-110 1261,-110 1261,-129"/>
<text text-anchor="middle" x="1179.5" y="-117" font-family="Helvetica,sans-Serif" font-size="10.00">main/src/MessageHandler.cpp</text>
</a>
</g>
</g>
<!-- Node7&#45;&gt;Node20 -->
<g id="edge26_Node000007_Node000020" class="edge">
<title>Node7&#45;&gt;Node20</title>
<g id="a_edge26_Node000007_Node000020"><a xlink:title=" ">
<path fill="none" stroke="#63b8ff" d="M798.02,-169.23C886.05,-157.98 1029.17,-139.7 1112.82,-129.02"/>
<polygon fill="#63b8ff" stroke="#63b8ff" points="797.57,-165.75 788.1,-170.49 798.46,-172.7 797.57,-165.75"/>
</a>
</g>
</g>
<!-- Node9 -->
<g id="Node000009" class="node">
<title>Node9</title>
<g id="a_Node000009"><a xlink:href="BLE__Client_8cpp.html" target="_top" xlink:title="Implementation of the BLE_Client class for managing BLE client functionality.">
<polygon fill="white" stroke="#666666" points="144.5,-19 10.5,-19 10.5,0 144.5,0 144.5,-19"/>
<text text-anchor="middle" x="77.5" y="-7" font-family="Helvetica,sans-Serif" font-size="10.00">main/src/BLE_Client.cpp</text>
</a>
</g>
</g>
<!-- Node8&#45;&gt;Node9 -->
<g id="edge8_Node000008_Node000009" class="edge">
<title>Node8&#45;&gt;Node9</title>
<g id="a_edge8_Node000008_Node000009"><a xlink:title=" ">
<path fill="none" stroke="#63b8ff" d="M77.5,-44.66C77.5,-35.93 77.5,-25.99 77.5,-19.09"/>
<polygon fill="#63b8ff" stroke="#63b8ff" points="74,-44.75 77.5,-54.75 81,-44.75 74,-44.75"/>
</a>
</g>
</g>
<!-- Node8&#45;&gt;Node10 -->
<g id="edge9_Node000008_Node000010" class="edge">
<title>Node8&#45;&gt;Node10</title>
<g id="a_edge9_Node000008_Node000010"><a xlink:title=" ">
<path fill="none" stroke="#63b8ff" d="M165.4,-54.93C349.17,-38.42 553.5,-22.15 648.64,-14.69"/>
<polygon fill="#63b8ff" stroke="#63b8ff" points="164.93,-51.46 155.28,-55.84 165.56,-58.43 164.93,-51.46"/>
</a>
</g>
</g>
<!-- Node11&#45;&gt;Node10 -->
<g id="edge12_Node000011_Node000010" class="edge">
<title>Node11&#45;&gt;Node10</title>
<g id="a_edge12_Node000011_Node000010"><a xlink:title=" ">
<path fill="none" stroke="#63b8ff" d="M334.84,-53.8C426.18,-43.04 570.9,-26 648.74,-16.83"/>
<polygon fill="#63b8ff" stroke="#63b8ff" points="334.32,-50.34 324.8,-54.98 335.14,-57.29 334.32,-50.34"/>
</a>
</g>
</g>
<!-- Node12 -->
<g id="Node000012" class="node">
<title>Node12</title>
<g id="a_Node000012"><a xlink:href="BLE__Server_8cpp.html" target="_top" xlink:title="Implementation of the BLE_Server class for managing BLE server functionality.">
<polygon fill="white" stroke="#666666" points="320.5,-19 184.5,-19 184.5,0 320.5,0 320.5,-19"/>
<text text-anchor="middle" x="252.5" y="-7" font-family="Helvetica,sans-Serif" font-size="10.00">main/src/BLE_Server.cpp</text>
</a>
</g>
</g>
<!-- Node11&#45;&gt;Node12 -->
<g id="edge11_Node000011_Node000012" class="edge">
<title>Node11&#45;&gt;Node12</title>
<g id="a_edge11_Node000011_Node000012"><a xlink:title=" ">
<path fill="none" stroke="#63b8ff" d="M252.5,-44.66C252.5,-35.93 252.5,-25.99 252.5,-19.09"/>
<polygon fill="#63b8ff" stroke="#63b8ff" points="249,-44.75 252.5,-54.75 256,-44.75 249,-44.75"/>
</a>
</g>
</g>
<!-- Node13&#45;&gt;Node8 -->
<g id="edge14_Node000013_Node000008" class="edge">
<title>Node13&#45;&gt;Node8</title>
<g id="a_edge14_Node000013_Node000008"><a xlink:title=" ">
<path fill="none" stroke="#63b8ff" d="M361.83,-108.43C295.92,-98.48 196.19,-83.42 134.04,-74.04"/>
<polygon fill="#63b8ff" stroke="#63b8ff" points="361.7,-111.95 372.11,-109.98 362.74,-105.03 361.7,-111.95"/>
</a>
</g>
</g>
<!-- Node13&#45;&gt;Node10 -->
<g id="edge19_Node000013_Node000010" class="edge">
<title>Node13&#45;&gt;Node10</title>
<g id="a_edge19_Node000013_Node000010"><a xlink:title=" ">
<path fill="none" stroke="#63b8ff" d="M514.39,-109.58C571.21,-102.31 639.51,-90.54 663.5,-74 683.31,-60.34 694.92,-33.01 699.79,-19.08"/>
<polygon fill="#63b8ff" stroke="#63b8ff" points="513.78,-106.13 504.29,-110.84 514.65,-113.08 513.78,-106.13"/>
</a>
</g>
</g>
<!-- Node13&#45;&gt;Node11 -->
<g id="edge17_Node000013_Node000011" class="edge">
<title>Node13&#45;&gt;Node11</title>
<g id="a_edge17_Node000013_Node000011"><a xlink:title=" ">
<path fill="none" stroke="#63b8ff" d="M390.5,-107.06C357.6,-97.15 310.76,-83.04 281,-74.08"/>
<polygon fill="#63b8ff" stroke="#63b8ff" points="389.64,-110.45 400.22,-109.98 391.66,-103.75 389.64,-110.45"/>
</a>
</g>
</g>
<!-- Node14 -->
<g id="Node000014" class="node">
<title>Node14</title>
<g id="a_Node000014"><a xlink:href="BLE__Config_8hpp.html" target="_top" xlink:title="Configuration file containing default values and structures for BLE server and client.">
<polygon fill="white" stroke="#666666" points="507.5,-74 349.5,-74 349.5,-55 507.5,-55 507.5,-74"/>
<text text-anchor="middle" x="428.5" y="-62" font-family="Helvetica,sans-Serif" font-size="10.00">main/include/BLE_Config.hpp</text>
</a>
</g>
</g>
<!-- Node13&#45;&gt;Node14 -->
<g id="edge15_Node000013_Node000014" class="edge">
<title>Node13&#45;&gt;Node14</title>
<g id="a_edge15_Node000013_Node000014"><a xlink:title=" ">
<path fill="none" stroke="#63b8ff" d="M422.01,-99.66C421.41,-90.93 421.86,-80.99 423.37,-74.09"/>
<polygon fill="#63b8ff" stroke="#63b8ff" points="418.56,-100.29 423.33,-109.75 425.5,-99.38 418.56,-100.29"/>
</a>
</g>
</g>
<!-- Node15 -->
<g id="Node000015" class="node">
<title>Node15</title>
<g id="a_Node000015"><a xlink:href="Bluetooth_8cpp.html" target="_top" xlink:title="Implementation of the Bluetooth base class.">
<polygon fill="white" stroke="#666666" points="655,-74 526,-74 526,-55 655,-55 655,-74"/>
<text text-anchor="middle" x="590.5" y="-62" font-family="Helvetica,sans-Serif" font-size="10.00">main/src/Bluetooth.cpp</text>
</a>
</g>
</g>
<!-- Node13&#45;&gt;Node15 -->
<g id="edge18_Node000013_Node000015" class="edge">
<title>Node13&#45;&gt;Node15</title>
<g id="a_edge18_Node000013_Node000015"><a xlink:title=" ">
<path fill="none" stroke="#63b8ff" d="M464.27,-106.8C494.5,-96.91 537.11,-82.97 564.27,-74.08"/>
<polygon fill="#63b8ff" stroke="#63b8ff" points="462.94,-103.55 454.53,-109.98 465.12,-110.2 462.94,-103.55"/>
</a>
</g>
</g>
<!-- Node14&#45;&gt;Node13 -->
<g id="edge16_Node000014_Node000013" class="edge">
<title>Node14&#45;&gt;Node13</title>
<g id="a_edge16_Node000014_Node000013"><a xlink:title=" ">
<path fill="none" stroke="#63b8ff" d="M434.98,-84.13C435.6,-92.85 435.16,-102.8 433.67,-109.75"/>
<polygon fill="#63b8ff" stroke="#63b8ff" points="438.43,-83.53 433.63,-74.09 431.49,-84.47 438.43,-83.53"/>
</a>
</g>
</g>
<!-- Node16&#45;&gt;Node10 -->
<g id="edge22_Node000016_Node000010" class="edge">
<title>Node16&#45;&gt;Node10</title>
<g id="a_edge22_Node000016_Node000010"><a xlink:title=" ">
<path fill="none" stroke="#63b8ff" d="M878.6,-99.69C876.92,-85.57 872.41,-66.72 860.5,-55 832.98,-27.92 790.32,-17.04 756.27,-12.8"/>
<polygon fill="#63b8ff" stroke="#63b8ff" points="875.12,-100.1 879.42,-109.78 882.09,-99.53 875.12,-100.1"/>
</a>
</g>
</g>
<!-- Node17 -->
<g id="Node000017" class="node">
<title>Node17</title>
<g id="a_Node000017"><a xlink:href="DataParser_8cpp.html" target="_top" xlink:title="Implementation of the DataParser class.">
<polygon fill="white" stroke="#666666" points="1041.5,-74 907.5,-74 907.5,-55 1041.5,-55 1041.5,-74"/>
<text text-anchor="middle" x="974.5" y="-62" font-family="Helvetica,sans-Serif" font-size="10.00">main/src/DataParser.cpp</text>
</a>
</g>
</g>
<!-- Node16&#45;&gt;Node17 -->
<g id="edge21_Node000016_Node000017" class="edge">
<title>Node16&#45;&gt;Node17</title>
<g id="a_edge21_Node000016_Node000017"><a xlink:title=" ">
<path fill="none" stroke="#63b8ff" d="M903.76,-104.97C921.13,-95.28 943.99,-82.52 958.96,-74.17"/>
<polygon fill="#63b8ff" stroke="#63b8ff" points="901.79,-102.06 894.76,-109.98 905.2,-108.17 901.79,-102.06"/>
</a>
</g>
</g>
<!-- Node18&#45;&gt;Node10 -->
<g id="edge24_Node000018_Node000010" class="edge">
<title>Node18&#45;&gt;Node10</title>
<g id="a_edge24_Node000018_Node000010"><a xlink:title=" ">
<path fill="none" stroke="#63b8ff" d="M718.21,-99.8C714.06,-76.2 707.09,-36.58 704.02,-19.16"/>
<polygon fill="#63b8ff" stroke="#63b8ff" points="714.77,-100.42 719.95,-109.66 721.66,-99.21 714.77,-100.42"/>
</a>
</g>
</g>
<!-- Node19 -->
<g id="Node000019" class="node">
<title>Node19</title>
<g id="a_Node000019"><a xlink:href="uart_8cpp.html" target="_top" xlink:title="Implementation of the Uart class for UART communication on ESP32&#45;C6.">
<polygon fill="white" stroke="#666666" points="851,-74 750,-74 750,-55 851,-55 851,-74"/>
<text text-anchor="middle" x="800.5" y="-62" font-family="Helvetica,sans-Serif" font-size="10.00">main/src/uart.cpp</text>
</a>
</g>
</g>
<!-- Node18&#45;&gt;Node19 -->
<g id="edge25_Node000018_Node000019" class="edge">
<title>Node18&#45;&gt;Node19</title>
<g id="a_edge25_Node000018_Node000019"><a xlink:title=" ">
<path fill="none" stroke="#63b8ff" d="M742.89,-104.15C757.17,-94.57 775.47,-82.29 787.58,-74.17"/>
<polygon fill="#63b8ff" stroke="#63b8ff" points="740.55,-101.51 734.19,-109.98 744.45,-107.32 740.55,-101.51"/>
</a>
</g>
</g>
</g>
</svg>
