<?xml version="1.0" encoding="UTF-8" standalone="no"?>
<!DOCTYPE svg PUBLIC "-//W3C//DTD SVG 1.1//EN"
 "http://www.w3.org/Graphics/SVG/1.1/DTD/svg11.dtd">
<!-- Generated by graphviz version 2.43.0 (0)
 -->
<!-- Title: Graphical Class Hierarchy Pages: 1 -->
<svg width="327pt" height="64pt"
 viewBox="0.00 0.00 327.00 64.00" xmlns="http://www.w3.org/2000/svg" xmlns:xlink="http://www.w3.org/1999/xlink">
<g id="graph0" class="graph" transform="scale(1 1) rotate(0) translate(4 60)">
<title>Graphical Class Hierarchy</title>
<!-- Node0 -->
<g id="Node000000" class="node">
<title>Node0</title>
<g id="a_Node000000"><a xlink:href="classrtos_1_1IItemReceiver.html" target="_top" xlink:title=" ">
<polygon fill="white" stroke="#666666" points="138,-56 0,-56 0,-37 138,-37 138,-56"/>
<text text-anchor="middle" x="69" y="-44" font-family="Helvetica,sans-Serif" font-size="10.00">rtos::IItemReceiver&lt; T &gt;</text>
</a>
</g>
</g>
<!-- Node1 -->
<g id="Node000001" class="node">
<title>Node1</title>
<g id="a_Node000001"><a xlink:href="classrtos_1_1MessageQueue.html" target="_top" xlink:title=" ">
<polygon fill="white" stroke="#666666" points="319,-37 174,-37 174,-18 319,-18 319,-37"/>
<text text-anchor="middle" x="246.5" y="-25" font-family="Helvetica,sans-Serif" font-size="10.00">rtos::MessageQueue&lt; T &gt;</text>
</a>
</g>
</g>
<!-- Node0&#45;&gt;Node1 -->
<g id="edge3_Node000000_Node000001" class="edge">
<title>Node0&#45;&gt;Node1</title>
<g id="a_edge3_Node000000_Node000001"><a xlink:title=" ">
<path fill="none" stroke="#63b8ff" d="M148.12,-38.04C156.72,-37.11 165.44,-36.17 173.95,-35.25"/>
<polygon fill="#63b8ff" stroke="#63b8ff" points="147.67,-34.57 138.1,-39.13 148.42,-41.53 147.67,-34.57"/>
</a>
</g>
</g>
<!-- Node2 -->
<g id="Node000002" class="node">
<title>Node2</title>
<g id="a_Node000002"><a xlink:href="classrtos_1_1IItemSender.html" target="_top" xlink:title=" ">
<polygon fill="white" stroke="#666666" points="133.5,-19 4.5,-19 4.5,0 133.5,0 133.5,-19"/>
<text text-anchor="middle" x="69" y="-7" font-family="Helvetica,sans-Serif" font-size="10.00">rtos::IItemSender&lt; T &gt;</text>
</a>
</g>
</g>
<!-- Node2&#45;&gt;Node1 -->
<g id="edge4_Node000002_Node000001" class="edge">
<title>Node2&#45;&gt;Node1</title>
<g id="a_edge4_Node000002_Node000001"><a xlink:title=" ">
<path fill="none" stroke="#63b8ff" d="M144.07,-17.1C153.97,-18.11 164.11,-19.15 173.97,-20.16"/>
<polygon fill="#63b8ff" stroke="#63b8ff" points="144.16,-13.59 133.86,-16.05 143.45,-20.55 144.16,-13.59"/>
</a>
</g>
</g>
</g>
</svg>
