<?xml version="1.0" encoding="UTF-8" standalone="no"?>
<!DOCTYPE svg PUBLIC "-//W3C//DTD SVG 1.1//EN"
 "http://www.w3.org/Graphics/SVG/1.1/DTD/svg11.dtd">
<!-- Generated by graphviz version 2.43.0 (0)
 -->
<!-- Title: Graphical Class Hierarchy Pages: 1 -->
<svg width="179pt" height="64pt"
 viewBox="0.00 0.00 179.00 64.00" xmlns="http://www.w3.org/2000/svg" xmlns:xlink="http://www.w3.org/1999/xlink">
<g id="graph0" class="graph" transform="scale(1 1) rotate(0) translate(4 60)">
<title>Graphical Class Hierarchy</title>
<!-- Node0 -->
<g id="Node000000" class="node">
<title>Node0</title>
<g id="a_Node000000"><a xlink:href="classBluetooth.html" target="_top" xlink:title="Abstract base class for BLE communication.">
<polygon fill="white" stroke="#666666" points="64,-37 0,-37 0,-18 64,-18 64,-37"/>
<text text-anchor="middle" x="32" y="-25" font-family="Helvetica,sans-Serif" font-size="10.00">Bluetooth</text>
</a>
</g>
</g>
<!-- Node1 -->
<g id="Node000001" class="node">
<title>Node1</title>
<g id="a_Node000001"><a xlink:href="classBLE__Client.html" target="_top" xlink:title="BLE Client implementation.">
<polygon fill="white" stroke="#666666" points="169.5,-56 101.5,-56 101.5,-37 169.5,-37 169.5,-56"/>
<text text-anchor="middle" x="135.5" y="-44" font-family="Helvetica,sans-Serif" font-size="10.00">BLE_Client</text>
</a>
</g>
</g>
<!-- Node0&#45;&gt;Node1 -->
<g id="edge1_Node000000_Node000001" class="edge">
<title>Node0&#45;&gt;Node1</title>
<g id="a_edge1_Node000000_Node000001"><a xlink:title=" ">
<path fill="none" stroke="#63b8ff" d="M73.98,-35.17C83.03,-36.87 92.51,-38.64 101.22,-40.27"/>
<polygon fill="#63b8ff" stroke="#63b8ff" points="74.48,-31.7 64,-33.3 73.19,-38.58 74.48,-31.7"/>
</a>
</g>
</g>
<!-- Node2 -->
<g id="Node000002" class="node">
<title>Node2</title>
<g id="a_Node000002"><a xlink:href="classBLE__Server.html" target="_top" xlink:title="A class that implements a Bluetooth Low Energy (BLE) server.">
<polygon fill="white" stroke="#666666" points="171,-19 100,-19 100,0 171,0 171,-19"/>
<text text-anchor="middle" x="135.5" y="-7" font-family="Helvetica,sans-Serif" font-size="10.00">BLE_Server</text>
</a>
</g>
</g>
<!-- Node0&#45;&gt;Node2 -->
<g id="edge2_Node000000_Node000002" class="edge">
<title>Node0&#45;&gt;Node2</title>
<g id="a_edge2_Node000000_Node000002"><a xlink:title=" ">
<path fill="none" stroke="#63b8ff" d="M73.85,-20.26C82.45,-18.73 91.44,-17.14 99.79,-15.66"/>
<polygon fill="#63b8ff" stroke="#63b8ff" points="73.24,-16.81 64,-22 74.46,-23.7 73.24,-16.81"/>
</a>
</g>
</g>
</g>
</svg>
