<?xml version="1.0" encoding="UTF-8" standalone="no"?>
<!DOCTYPE svg PUBLIC "-//W3C//DTD SVG 1.1//EN"
 "http://www.w3.org/Graphics/SVG/1.1/DTD/svg11.dtd">
<!-- Generated by graphviz version 2.43.0 (0)
 -->
<!-- Title: dataParserTask Pages: 1 -->
<svg width="965pt" height="243pt"
 viewBox="0.00 0.00 965.00 243.00" xmlns="http://www.w3.org/2000/svg" xmlns:xlink="http://www.w3.org/1999/xlink">
<g id="graph0" class="graph" transform="scale(1 1) rotate(0) translate(4 239)">
<title>dataParserTask</title>
<!-- Node1 -->
<g id="Node000001" class="node">
<title>Node1</title>
<g id="a_Node000001"><a xlink:title=" ">
<polygon fill="#999999" stroke="#666666" points="90,-74 0,-74 0,-55 90,-55 90,-74"/>
<text text-anchor="middle" x="45" y="-62" font-family="Helvetica,sans-Serif" font-size="10.00">dataParserTask</text>
</a>
</g>
</g>
<!-- Node2 -->
<g id="Node000002" class="node">
<title>Node2</title>
<g id="a_Node000002"><a xlink:href="classDataParser.html#a456ecb1ff09e80bf9280b628adc47239" target="_top" xlink:title="Runs a continuous task that receives and processes messages from the parser queue.">
<polygon fill="white" stroke="#666666" points="275,-74 126,-74 126,-55 275,-55 275,-74"/>
<text text-anchor="middle" x="200.5" y="-62" font-family="Helvetica,sans-Serif" font-size="10.00">DataParser::dataParserTask</text>
</a>
</g>
</g>
<!-- Node1&#45;&gt;Node2 -->
<g id="edge1_Node000001_Node000002" class="edge">
<title>Node1&#45;&gt;Node2</title>
<g id="a_edge1_Node000001_Node000002"><a xlink:title=" ">
<path fill="none" stroke="#63b8ff" d="M90.4,-64.5C98.42,-64.5 107.01,-64.5 115.73,-64.5"/>
<polygon fill="#63b8ff" stroke="#63b8ff" points="115.99,-68 125.99,-64.5 115.99,-61 115.99,-68"/>
</a>
</g>
</g>
<!-- Node3 -->
<g id="Node000003" class="node">
<title>Node3</title>
<g id="a_Node000003"><a xlink:href="classDataParser.html#ace3045f2c668ba902bad75ab3b30b7ac" target="_top" xlink:title="Executes the given command and stores the result in the output string.">
<polygon fill="white" stroke="#666666" points="475,-130 311,-130 311,-111 475,-111 475,-130"/>
<text text-anchor="middle" x="393" y="-118" font-family="Helvetica,sans-Serif" font-size="10.00">DataParser::executeCommand</text>
</a>
</g>
</g>
<!-- Node2&#45;&gt;Node3 -->
<g id="edge2_Node000002_Node000003" class="edge">
<title>Node2&#45;&gt;Node3</title>
<g id="a_edge2_Node000002_Node000003"><a xlink:title=" ">
<path fill="none" stroke="#63b8ff" d="M226.46,-74.09C248.49,-82.32 281.57,-94.15 311,-102.5 318.69,-104.68 326.84,-106.76 334.9,-108.68"/>
<polygon fill="#63b8ff" stroke="#63b8ff" points="334.12,-112.09 344.66,-110.94 335.7,-105.27 334.12,-112.09"/>
</a>
</g>
</g>
<!-- Node11 -->
<g id="Node000011" class="node">
<title>Node11</title>
<g id="a_Node000011"><a xlink:href="classDataParser.html#a79e5245aac486b566b17e521645d5894" target="_top" xlink:title="Parses the input data string to detect and classify command keywords.">
<polygon fill="white" stroke="#666666" points="444.5,-93 341.5,-93 341.5,-74 444.5,-74 444.5,-93"/>
<text text-anchor="middle" x="393" y="-81" font-family="Helvetica,sans-Serif" font-size="10.00">DataParser::parse</text>
</a>
</g>
</g>
<!-- Node2&#45;&gt;Node11 -->
<g id="edge10_Node000002_Node000011" class="edge">
<title>Node2&#45;&gt;Node11</title>
<g id="a_edge10_Node000002_Node000011"><a xlink:title=" ">
<path fill="none" stroke="#63b8ff" d="M275.15,-71.85C293.62,-73.69 313.23,-75.64 331.01,-77.42"/>
<polygon fill="#63b8ff" stroke="#63b8ff" points="330.94,-80.93 341.24,-78.44 331.63,-73.96 330.94,-80.93"/>
</a>
</g>
</g>
<!-- Node12 -->
<g id="Node000012" class="node">
<title>Node12</title>
<g id="a_Node000012"><a xlink:href="classMessageHandler.html#a86ae4992eac980513acf1fe723f98238" target="_top" xlink:title="Receives a message from the specified internal queue.">
<polygon fill="white" stroke="#666666" points="463,-56 323,-56 323,-37 463,-37 463,-56"/>
<text text-anchor="middle" x="393" y="-44" font-family="Helvetica,sans-Serif" font-size="10.00">MessageHandler::receive</text>
</a>
</g>
</g>
<!-- Node2&#45;&gt;Node12 -->
<g id="edge11_Node000002_Node000012" class="edge">
<title>Node2&#45;&gt;Node12</title>
<g id="a_edge11_Node000002_Node000012"><a xlink:title=" ">
<path fill="none" stroke="#63b8ff" d="M275.15,-57.54C287.42,-56.38 300.2,-55.17 312.6,-54"/>
<polygon fill="#63b8ff" stroke="#63b8ff" points="313.29,-57.45 322.92,-53.03 312.63,-50.48 313.29,-57.45"/>
</a>
</g>
</g>
<!-- Node14 -->
<g id="Node000014" class="node">
<title>Node14</title>
<g id="a_Node000014"><a xlink:href="classMessageHandler.html#a43e563eaac4cb8183d977678d7fdd5aa" target="_top" xlink:title="Sends a message to the specified internal message queue.">
<polygon fill="white" stroke="#666666" points="457,-19 329,-19 329,0 457,0 457,-19"/>
<text text-anchor="middle" x="393" y="-7" font-family="Helvetica,sans-Serif" font-size="10.00">MessageHandler::send</text>
</a>
</g>
</g>
<!-- Node2&#45;&gt;Node14 -->
<g id="edge13_Node000002_Node000014" class="edge">
<title>Node2&#45;&gt;Node14</title>
<g id="a_edge13_Node000002_Node000014"><a xlink:title=" ">
<path fill="none" stroke="#63b8ff" d="M228.3,-54.96C250.34,-47.29 282.49,-36.51 311,-28.5 319.78,-26.03 329.16,-23.62 338.31,-21.4"/>
<polygon fill="#63b8ff" stroke="#63b8ff" points="339.19,-24.79 348.1,-19.06 337.56,-17.98 339.19,-24.79"/>
</a>
</g>
</g>
<!-- Node4 -->
<g id="Node000004" class="node">
<title>Node4</title>
<g id="a_Node000004"><a xlink:href="classCommandHandler.html#a665ecc3d0185cf173d567e00331c0200" target="_top" xlink:title="Processes a command.">
<polygon fill="white" stroke="#666666" points="710,-130 511,-130 511,-111 710,-111 710,-130"/>
<text text-anchor="middle" x="610.5" y="-118" font-family="Helvetica,sans-Serif" font-size="10.00">CommandHandler::processCommand</text>
</a>
</g>
</g>
<!-- Node3&#45;&gt;Node4 -->
<g id="edge3_Node000003_Node000004" class="edge">
<title>Node3&#45;&gt;Node4</title>
<g id="a_edge3_Node000003_Node000004"><a xlink:title=" ">
<path fill="none" stroke="#63b8ff" d="M475.16,-120.5C483.57,-120.5 492.2,-120.5 500.84,-120.5"/>
<polygon fill="#63b8ff" stroke="#63b8ff" points="500.98,-124 510.98,-120.5 500.98,-117 500.98,-124"/>
</a>
</g>
</g>
<!-- Node5 -->
<g id="Node000005" class="node">
<title>Node5</title>
<g id="a_Node000005"><a xlink:href="classCommandHandler.html#ac8beafb4e158b175c60256b58f89fa7f" target="_top" xlink:title="Gets the chip information.">
<polygon fill="white" stroke="#666666" points="935,-235 768,-235 768,-216 935,-216 935,-235"/>
<text text-anchor="middle" x="851.5" y="-223" font-family="Helvetica,sans-Serif" font-size="10.00">CommandHandler::getChipInfo</text>
</a>
</g>
</g>
<!-- Node4&#45;&gt;Node5 -->
<g id="edge4_Node000004_Node000005" class="edge">
<title>Node4&#45;&gt;Node5</title>
<g id="a_edge4_Node000004_Node000005"><a xlink:title=" ">
<path fill="none" stroke="#63b8ff" d="M622.88,-130.01C645.05,-147.99 696.21,-186.94 746,-206.5 752.78,-209.17 759.97,-211.46 767.26,-213.44"/>
<polygon fill="#63b8ff" stroke="#63b8ff" points="766.7,-216.9 777.25,-215.94 768.4,-210.11 766.7,-216.9"/>
</a>
</g>
</g>
<!-- Node6 -->
<g id="Node000006" class="node">
<title>Node6</title>
<g id="a_Node000006"><a xlink:href="classCommandHandler.html#aaa524249c62f3c5bf2fc192575a249d2" target="_top" xlink:title="Gets the clock speed in MHz.">
<polygon fill="white" stroke="#666666" points="928.5,-197.5 774.5,-197.5 774.5,-167.5 928.5,-167.5 928.5,-197.5"/>
<text text-anchor="start" x="782.5" y="-185.5" font-family="Helvetica,sans-Serif" font-size="10.00">CommandHandler::getClock</text>
<text text-anchor="middle" x="851.5" y="-174.5" font-family="Helvetica,sans-Serif" font-size="10.00">Speed</text>
</a>
</g>
</g>
<!-- Node4&#45;&gt;Node6 -->
<g id="edge5_Node000004_Node000006" class="edge">
<title>Node4&#45;&gt;Node6</title>
<g id="a_edge5_Node000004_Node000006"><a xlink:title=" ">
<path fill="none" stroke="#63b8ff" d="M643.45,-130.01C670.62,-137.98 710.74,-149.48 746,-158.5 754.74,-160.74 763.92,-162.99 773.05,-165.17"/>
<polygon fill="#63b8ff" stroke="#63b8ff" points="772.39,-168.6 782.92,-167.5 774,-161.79 772.39,-168.6"/>
</a>
</g>
</g>
<!-- Node7 -->
<g id="Node000007" class="node">
<title>Node7</title>
<g id="a_Node000007"><a xlink:href="classCommandHandler.html#ac790edbe2bf25d3e09ae3b43f0948204" target="_top" xlink:title="Gets the free heap size.">
<polygon fill="white" stroke="#666666" points="938,-149 765,-149 765,-130 938,-130 938,-149"/>
<text text-anchor="middle" x="851.5" y="-137" font-family="Helvetica,sans-Serif" font-size="10.00">CommandHandler::getFreeHeap</text>
</a>
</g>
</g>
<!-- Node4&#45;&gt;Node7 -->
<g id="edge6_Node000004_Node000007" class="edge">
<title>Node4&#45;&gt;Node7</title>
<g id="a_edge6_Node000004_Node000007"><a xlink:title=" ">
<path fill="none" stroke="#63b8ff" d="M710.09,-128.34C724.82,-129.51 739.99,-130.71 754.66,-131.88"/>
<polygon fill="#63b8ff" stroke="#63b8ff" points="754.48,-135.38 764.73,-132.68 755.04,-128.4 754.48,-135.38"/>
</a>
</g>
</g>
<!-- Node8 -->
<g id="Node000008" class="node">
<title>Node8</title>
<g id="a_Node000008"><a xlink:href="classCommandHandler.html#aacc693ccd17d6450b53c11dd8c348fe3" target="_top" xlink:title="Gets the free internal heap size.">
<polygon fill="white" stroke="#666666" points="957,-112 746,-112 746,-93 957,-93 957,-112"/>
<text text-anchor="middle" x="851.5" y="-100" font-family="Helvetica,sans-Serif" font-size="10.00">CommandHandler::getFreeInternalHeap</text>
</a>
</g>
</g>
<!-- Node4&#45;&gt;Node8 -->
<g id="edge7_Node000004_Node000008" class="edge">
<title>Node4&#45;&gt;Node8</title>
<g id="a_edge7_Node000004_Node000008"><a xlink:title=" ">
<path fill="none" stroke="#63b8ff" d="M710.09,-113.07C718.59,-112.43 727.24,-111.78 735.86,-111.13"/>
<polygon fill="#63b8ff" stroke="#63b8ff" points="736.23,-114.62 745.94,-110.37 735.71,-107.64 736.23,-114.62"/>
</a>
</g>
</g>
<!-- Node9 -->
<g id="Node000009" class="node">
<title>Node9</title>
<g id="a_Node000009"><a xlink:href="classCommandHandler.html#a84ae2c9bac0c26056bf404a7e907142a" target="_top" xlink:title="Gets the free minimum heap size.">
<polygon fill="white" stroke="#666666" points="947,-75 756,-75 756,-56 947,-56 947,-75"/>
<text text-anchor="middle" x="851.5" y="-63" font-family="Helvetica,sans-Serif" font-size="10.00">CommandHandler::getFreeMinHeap</text>
</a>
</g>
</g>
<!-- Node4&#45;&gt;Node9 -->
<g id="edge8_Node000004_Node000009" class="edge">
<title>Node4&#45;&gt;Node9</title>
<g id="a_edge8_Node000004_Node000009"><a xlink:title=" ">
<path fill="none" stroke="#63b8ff" d="M644.2,-110.94C671.33,-103.21 710.97,-92.36 746,-84.5 758.07,-81.79 770.98,-79.2 783.48,-76.85"/>
<polygon fill="#63b8ff" stroke="#63b8ff" points="784.19,-80.28 793.38,-75.01 782.91,-73.39 784.19,-80.28"/>
</a>
</g>
</g>
<!-- Node10 -->
<g id="Node000010" class="node">
<title>Node10</title>
<g id="a_Node000010"><a xlink:href="classCommandHandler.html#a85571f4b4a8c2ca92146f167c08c6c94" target="_top" xlink:title="Gets the IDF version.">
<polygon fill="white" stroke="#666666" points="939.5,-38 763.5,-38 763.5,-19 939.5,-19 939.5,-38"/>
<text text-anchor="middle" x="851.5" y="-26" font-family="Helvetica,sans-Serif" font-size="10.00">CommandHandler::getIdfVersion</text>
</a>
</g>
</g>
<!-- Node4&#45;&gt;Node10 -->
<g id="edge9_Node000004_Node000010" class="edge">
<title>Node4&#45;&gt;Node10</title>
<g id="a_edge9_Node000004_Node000010"><a xlink:title=" ">
<path fill="none" stroke="#63b8ff" d="M625.71,-110.79C649.51,-95.01 699.39,-63.91 746,-47.5 753.88,-44.73 762.23,-42.34 770.66,-40.29"/>
<polygon fill="#63b8ff" stroke="#63b8ff" points="771.58,-43.67 780.56,-38.04 770.03,-36.84 771.58,-43.67"/>
</a>
</g>
</g>
<!-- Node13 -->
<g id="Node000013" class="node">
<title>Node13</title>
<g id="a_Node000013"><a xlink:href="classMessageHandler.html#afb781c303001059d81235464ae91e0bd" target="_top" xlink:title="Internal helper to retrieve the appropriate message queue.">
<polygon fill="white" stroke="#666666" points="686.5,-38 534.5,-38 534.5,-19 686.5,-19 686.5,-38"/>
<text text-anchor="middle" x="610.5" y="-26" font-family="Helvetica,sans-Serif" font-size="10.00">MessageHandler::getQueue</text>
</a>
</g>
</g>
<!-- Node12&#45;&gt;Node13 -->
<g id="edge12_Node000012_Node000013" class="edge">
<title>Node12&#45;&gt;Node13</title>
<g id="a_edge12_Node000012_Node000013"><a xlink:title=" ">
<path fill="none" stroke="#63b8ff" d="M463.07,-40.73C482.56,-39.1 503.99,-37.31 524.3,-35.62"/>
<polygon fill="#63b8ff" stroke="#63b8ff" points="524.81,-39.09 534.48,-34.77 524.22,-32.11 524.81,-39.09"/>
</a>
</g>
</g>
<!-- Node14&#45;&gt;Node13 -->
<g id="edge14_Node000014_Node000013" class="edge">
<title>Node14&#45;&gt;Node13</title>
<g id="a_edge14_Node000014_Node000013"><a xlink:title=" ">
<path fill="none" stroke="#63b8ff" d="M457.2,-15.07C478.2,-16.92 501.94,-19.02 524.33,-20.99"/>
<polygon fill="#63b8ff" stroke="#63b8ff" points="524.23,-24.5 534.5,-21.89 524.85,-17.52 524.23,-24.5"/>
</a>
</g>
</g>
</g>
</svg>
