<?xml version="1.0" encoding="UTF-8" standalone="no"?>
<!DOCTYPE svg PUBLIC "-//W3C//DTD SVG 1.1//EN"
 "http://www.w3.org/Graphics/SVG/1.1/DTD/svg11.dtd">
<!-- Generated by graphviz version 2.43.0 (0)
 -->
<!-- Title: app_main Pages: 1 -->
<!--zoomable 430 -->

<svg id="main" version="1.1" xmlns="http://www.w3.org/2000/svg" xmlns:xlink="http://www.w3.org/1999/xlink" xml:space="preserve" onload="init(evt)">
<style type="text/css"><![CDATA[
.node, .edge {opacity: 0.7;}
.node.selected, .edge.selected {opacity: 1;}
.edge:hover path { stroke: red; }
.edge:hover polygon { stroke: red; fill: red; }
]]></style>

<defs>
  <circle id="rim" cx="0" cy="0" r="7"/>
  <circle id="rim2" cx="0" cy="0" r="3.5"/>
  <g id="zoomPlus">
    <use xlink:href="#rim" fill="#404040"><set attributeName="fill" to="#808080" begin="zoomplus.mouseover" end="zoomplus.mouseout"/></use>
    <path d="M-4,0h8M0,-4v8" fill="none" stroke="white" stroke-width="1.5" pointer-events="none"/>
  </g>
  <g id="zoomMin">
    <use xlink:href="#rim" fill="#404040"><set attributeName="fill" to="#808080" begin="zoomminus.mouseover" end="zoomminus.mouseout"/></use>
    <path d="M-4,0h8" fill="none" stroke="white" stroke-width="1.5" pointer-events="none"/>
  </g>
  <g id="arrowUp" transform="translate(30 24)">
    <use xlink:href="#rim"/>
    <path pointer-events="none" fill="none" stroke="white" stroke-width="1.5" d="M0,-3.0v7 M-2.5,-0.5L0,-3.0L2.5,-0.5"/>
  </g>
  <g id="arrowRight" transform="rotate(90) translate(36 -43)">
    <use xlink:href="#rim"/>
    <path pointer-events="none" fill="none" stroke="white" stroke-width="1.5" d="M0,-3.0v7 M-2.5,-0.5L0,-3.0L2.5,-0.5"/>
  </g>
  <g id="arrowDown" transform="rotate(180) translate(-30 -48)">
    <use xlink:href="#rim"/>
    <path pointer-events="none" fill="none" stroke="white" stroke-width="1.5" d="M0,-3.0v7 M-2.5,-0.5L0,-3.0L2.5,-0.5"/>
  </g>
  <g id="arrowLeft" transform="rotate(270) translate(-36 17)">
    <use xlink:href="#rim"/>
    <path pointer-events="none" fill="none" stroke="white" stroke-width="1.5" d="M0,-3.0v7 M-2.5,-0.5L0,-3.0L2.5,-0.5"/>
  </g>
  <g id="resetDef">
    <use xlink:href="#rim2" fill="#404040"><set attributeName="fill" to="#808080" begin="reset.mouseover" end="reset.mouseout"/></use>
  </g>
</defs>
<script type="application/ecmascript">
var viewWidth = 1145;
var viewHeight = 430;
var sectionId = 'dynsection-1';
</script>
<script type="application/ecmascript" xlink:href="svg.min.js"/>
<svg id="graph" class="graph">
<g id="viewport">
<title>app_main</title>
<!-- Node1 -->
<g id="Node000001" class="node">
<title>Node1</title>
<g id="a_Node000001"><a xlink:title=" ">
<polygon fill="#999999" stroke="#666666" points="65,-189.34 0,-189.34 0,-170.34 65,-170.34 65,-189.34"/>
<text text-anchor="middle" x="32.5" y="-177.34" font-family="Helvetica,sans-Serif" font-size="10.00">app_main</text>
</a>
</g>
</g>
<!-- Node2 -->
<g id="Node000002" class="node">
<title>Node2</title>
<g id="a_Node000002"><a xlink:href="main_8cpp.html#a656d2a2008560a0c59a7da1e97a3985f" target="_top" xlink:title=" ">
<polygon fill="white" stroke="#666666" points="224,-337.34 147,-337.34 147,-318.34 224,-318.34 224,-337.34"/>
<text text-anchor="middle" x="185.5" y="-325.34" font-family="Helvetica,sans-Serif" font-size="10.00">bleSendTask</text>
</a>
</g>
</g>
<!-- Node1&#45;&gt;Node2 -->
<g id="edge1_Node000001_Node000002" class="edge">
<title>Node1&#45;&gt;Node2</title>
<g id="a_edge1_Node000001_Node000002"><a xlink:title=" ">
<path fill="none" stroke="#63b8ff" d="M35.54,-189.49C41.21,-213.87 59.56,-278.2 101,-309.84 111.23,-317.65 124.12,-322.23 136.69,-324.88"/>
<polygon fill="#63b8ff" stroke="#63b8ff" points="136.2,-328.35 146.65,-326.61 137.4,-321.45 136.2,-328.35"/>
</a>
</g>
</g>
<!-- Node4 -->
<g id="Node000004" class="node">
<title>Node4</title>
<g id="a_Node000004"><a xlink:href="main_8cpp.html#a8b7770dfc4f526899320fd15691b32c4" target="_top" xlink:title=" ">
<polygon fill="white" stroke="#666666" points="226.5,-300.34 144.5,-300.34 144.5,-281.34 226.5,-281.34 226.5,-300.34"/>
<text text-anchor="middle" x="185.5" y="-288.34" font-family="Helvetica,sans-Serif" font-size="10.00">create_config</text>
</a>
</g>
</g>
<!-- Node1&#45;&gt;Node4 -->
<g id="edge3_Node000001_Node000004" class="edge">
<title>Node1&#45;&gt;Node4</title>
<g id="a_edge3_Node000001_Node000004"><a xlink:title=" ">
<path fill="none" stroke="#63b8ff" d="M37.62,-189.54C46.3,-208.75 68.41,-251.59 101,-272.84 110.9,-279.29 122.72,-283.47 134.31,-286.16"/>
<polygon fill="#63b8ff" stroke="#63b8ff" points="133.89,-289.65 144.39,-288.17 135.26,-282.79 133.89,-289.65"/>
</a>
</g>
</g>
<!-- Node5 -->
<g id="Node000005" class="node">
<title>Node5</title>
<g id="a_Node000005"><a xlink:href="main_8cpp.html#a92ec7e7e48c2ce7af99bb362b83e32a8" target="_top" xlink:title=" ">
<polygon fill="white" stroke="#666666" points="230.5,-263.34 140.5,-263.34 140.5,-244.34 230.5,-244.34 230.5,-263.34"/>
<text text-anchor="middle" x="185.5" y="-251.34" font-family="Helvetica,sans-Serif" font-size="10.00">dataParserTask</text>
</a>
</g>
</g>
<!-- Node1&#45;&gt;Node5 -->
<g id="edge4_Node000001_Node000005" class="edge">
<title>Node1&#45;&gt;Node5</title>
<g id="a_edge4_Node000001_Node000005"><a xlink:title=" ">
<path fill="none" stroke="#63b8ff" d="M42.09,-189.39C54.03,-202.05 76.9,-224.12 101,-235.84 110.1,-240.26 120.29,-243.61 130.33,-246.13"/>
<polygon fill="#63b8ff" stroke="#63b8ff" points="129.75,-249.59 140.28,-248.4 131.3,-242.77 129.75,-249.59"/>
</a>
</g>
</g>
<!-- Node19 -->
<g id="Node000019" class="node">
<title>Node19</title>
<g id="a_Node000019"><a xlink:href="main_8cpp.html#ac672c86fb27ee5d971791cf8570ec137" target="_top" xlink:title=" ">
<polygon fill="white" stroke="#666666" points="231.5,-226.34 139.5,-226.34 139.5,-207.34 231.5,-207.34 231.5,-226.34"/>
<text text-anchor="middle" x="185.5" y="-214.34" font-family="Helvetica,sans-Serif" font-size="10.00">getBleInterface</text>
</a>
</g>
</g>
<!-- Node1&#45;&gt;Node19 -->
<g id="edge19_Node000001_Node000019" class="edge">
<title>Node1&#45;&gt;Node19</title>
<g id="a_edge19_Node000001_Node000019"><a xlink:title=" ">
<path fill="none" stroke="#63b8ff" d="M65.32,-189.23C76.56,-192.43 89.3,-195.93 101,-198.84 110.19,-201.12 119.98,-203.38 129.51,-205.49"/>
<polygon fill="#63b8ff" stroke="#63b8ff" points="128.8,-208.92 139.31,-207.63 130.29,-202.08 128.8,-208.92"/>
</a>
</g>
</g>
<!-- Node23 -->
<g id="Node000023" class="node">
<title>Node23</title>
<g id="a_Node000023"><a xlink:href="classUart.html#a27d16b401f6af6f830a5da8993d09ad3" target="_top" xlink:title="Send raw data over UART.">
<polygon fill="white" stroke="#666666" points="606.5,-107.34 539.5,-107.34 539.5,-88.34 606.5,-88.34 606.5,-107.34"/>
<text text-anchor="middle" x="573" y="-95.34" font-family="Helvetica,sans-Serif" font-size="10.00">Uart::send</text>
</a>
</g>
</g>
<!-- Node1&#45;&gt;Node23 -->
<g id="edge29_Node000001_Node000023" class="edge">
<title>Node1&#45;&gt;Node23</title>
<g id="a_edge29_Node000001_Node000023"><a xlink:title=" ">
<path fill="none" stroke="#63b8ff" d="M34.69,-170C38.53,-143.2 53.24,-68.93 101,-38.84 247.11,53.2 469.58,-44.96 545.53,-83.62"/>
<polygon fill="#63b8ff" stroke="#63b8ff" points="543.96,-86.75 554.45,-88.23 547.17,-80.53 543.96,-86.75"/>
</a>
</g>
</g>
<!-- Node24 -->
<g id="Node000024" class="node">
<title>Node24</title>
<g id="a_Node000024"><a xlink:href="classMessageHandler.html#ac4caf644b2113c686482da7a168dacf5" target="_top" xlink:title="Gets the UART event queue.">
<polygon fill="white" stroke="#666666" points="270,-151.84 101,-151.84 101,-121.84 270,-121.84 270,-151.84"/>
<text text-anchor="start" x="109" y="-139.84" font-family="Helvetica,sans-Serif" font-size="10.00">MessageHandler::getUartEvent</text>
<text text-anchor="middle" x="185.5" y="-128.84" font-family="Helvetica,sans-Serif" font-size="10.00">Queue</text>
</a>
</g>
</g>
<!-- Node1&#45;&gt;Node24 -->
<g id="edge27_Node000001_Node000024" class="edge">
<title>Node1&#45;&gt;Node24</title>
<g id="a_edge27_Node000001_Node000024"><a xlink:title=" ">
<path fill="none" stroke="#63b8ff" d="M65.15,-170.82C81.65,-166.13 102.42,-160.21 122,-154.64"/>
<polygon fill="#63b8ff" stroke="#63b8ff" points="123.13,-157.95 131.79,-151.85 121.21,-151.22 123.13,-157.95"/>
</a>
</g>
</g>
<!-- Node25 -->
<g id="Node000025" class="node">
<title>Node25</title>
<g id="a_Node000025"><a xlink:href="classUart.html#a61b526991bd3b2bf3d01db9486b06b22" target="_top" xlink:title="Initializes the UART interface and installs the driver.">
<polygon fill="white" stroke="#666666" points="215,-103.34 156,-103.34 156,-84.34 215,-84.34 215,-103.34"/>
<text text-anchor="middle" x="185.5" y="-91.34" font-family="Helvetica,sans-Serif" font-size="10.00">Uart::init</text>
</a>
</g>
</g>
<!-- Node1&#45;&gt;Node25 -->
<g id="edge28_Node000001_Node000025" class="edge">
<title>Node1&#45;&gt;Node25</title>
<g id="a_edge28_Node000001_Node000025"><a xlink:title=" ">
<path fill="none" stroke="#63b8ff" d="M40.56,-169.91C51.66,-155.07 74.67,-127.32 101,-112.84 114.52,-105.4 130.81,-100.87 145.39,-98.12"/>
<polygon fill="#63b8ff" stroke="#63b8ff" points="146.36,-101.5 155.65,-96.4 145.21,-94.6 146.36,-101.5"/>
</a>
</g>
</g>
<!-- Node26 -->
<g id="Node000026" class="node">
<title>Node26</title>
<g id="a_Node000026"><a xlink:href="main_8cpp.html#ad6d6c8ccee27b130f7eb2c9a3c8765a1" target="_top" xlink:title=" ">
<polygon fill="white" stroke="#666666" points="234,-189.34 137,-189.34 137,-170.34 234,-170.34 234,-189.34"/>
<text text-anchor="middle" x="185.5" y="-177.34" font-family="Helvetica,sans-Serif" font-size="10.00">uartReceiveTask</text>
</a>
</g>
</g>
<!-- Node1&#45;&gt;Node26 -->
<g id="edge30_Node000001_Node000026" class="edge">
<title>Node1&#45;&gt;Node26</title>
<g id="a_edge30_Node000001_Node000026"><a xlink:title=" ">
<path fill="none" stroke="#63b8ff" d="M65.15,-179.84C82.99,-179.84 105.82,-179.84 126.73,-179.84"/>
<polygon fill="#63b8ff" stroke="#63b8ff" points="126.81,-183.34 136.81,-179.84 126.81,-176.34 126.81,-183.34"/>
</a>
</g>
</g>
<!-- Node27 -->
<g id="Node000027" class="node">
<title>Node27</title>
<g id="a_Node000027"><a xlink:href="main_8cpp.html#a9a1ff8d552650f42d63d78590253bf6d" target="_top" xlink:title=" ">
<polygon fill="white" stroke="#666666" points="226.5,-66.34 144.5,-66.34 144.5,-47.34 226.5,-47.34 226.5,-66.34"/>
<text text-anchor="middle" x="185.5" y="-54.34" font-family="Helvetica,sans-Serif" font-size="10.00">uartSendTask</text>
</a>
</g>
</g>
<!-- Node1&#45;&gt;Node27 -->
<g id="edge32_Node000001_Node000027" class="edge">
<title>Node1&#45;&gt;Node27</title>
<g id="a_edge32_Node000001_Node000027"><a xlink:title=" ">
<path fill="none" stroke="#63b8ff" d="M36.83,-170.31C44.57,-149.6 65.88,-100.36 101,-75.84 110.71,-69.06 122.46,-64.66 134.05,-61.81"/>
<polygon fill="#63b8ff" stroke="#63b8ff" points="135.06,-65.18 144.13,-59.69 133.62,-58.33 135.06,-65.18"/>
</a>
</g>
</g>
<!-- Node3 -->
<g id="Node000003" class="node">
<title>Node3</title>
<g id="a_Node000003"><a xlink:href="classBluetooth.html#a3eea28e42d7ddc3eec9f4f11ad79d4c1" target="_top" xlink:title="Pure virtual method for sending a task to the message handler.">
<polygon fill="white" stroke="#666666" points="438,-337.34 323,-337.34 323,-318.34 438,-318.34 438,-337.34"/>
<text text-anchor="middle" x="380.5" y="-325.34" font-family="Helvetica,sans-Serif" font-size="10.00">Bluetooth::sendTask</text>
</a>
</g>
</g>
<!-- Node2&#45;&gt;Node3 -->
<g id="edge2_Node000002_Node000003" class="edge">
<title>Node2&#45;&gt;Node3</title>
<g id="a_edge2_Node000002_Node000003"><a xlink:title=" ">
<path fill="none" stroke="#63b8ff" d="M224.17,-327.84C249.29,-327.84 283.01,-327.84 312.62,-327.84"/>
<polygon fill="#63b8ff" stroke="#63b8ff" points="312.9,-331.34 322.9,-327.84 312.9,-324.34 312.9,-331.34"/>
</a>
</g>
</g>
<!-- Node6 -->
<g id="Node000006" class="node">
<title>Node6</title>
<g id="a_Node000006"><a xlink:href="classDataParser.html#a456ecb1ff09e80bf9280b628adc47239" target="_top" xlink:title="Runs a continuous task that receives and processes messages from the parser queue.">
<polygon fill="white" stroke="#666666" points="455,-263.34 306,-263.34 306,-244.34 455,-244.34 455,-263.34"/>
<text text-anchor="middle" x="380.5" y="-251.34" font-family="Helvetica,sans-Serif" font-size="10.00">DataParser::dataParserTask</text>
</a>
</g>
</g>
<!-- Node5&#45;&gt;Node6 -->
<g id="edge5_Node000005_Node000006" class="edge">
<title>Node5&#45;&gt;Node6</title>
<g id="a_edge5_Node000005_Node000006"><a xlink:title=" ">
<path fill="none" stroke="#63b8ff" d="M230.78,-253.84C250.08,-253.84 273.37,-253.84 295.73,-253.84"/>
<polygon fill="#63b8ff" stroke="#63b8ff" points="295.92,-257.34 305.92,-253.84 295.92,-250.34 295.92,-257.34"/>
</a>
</g>
</g>
<!-- Node7 -->
<g id="Node000007" class="node">
<title>Node7</title>
<g id="a_Node000007"><a xlink:href="classDataParser.html#ace3045f2c668ba902bad75ab3b30b7ac" target="_top" xlink:title="Executes the given command and stores the result in the output string.">
<polygon fill="white" stroke="#666666" points="655,-317.34 491,-317.34 491,-298.34 655,-298.34 655,-317.34"/>
<text text-anchor="middle" x="573" y="-305.34" font-family="Helvetica,sans-Serif" font-size="10.00">DataParser::executeCommand</text>
</a>
</g>
</g>
<!-- Node6&#45;&gt;Node7 -->
<g id="edge6_Node000006_Node000007" class="edge">
<title>Node6&#45;&gt;Node7</title>
<g id="a_edge6_Node000006_Node000007"><a xlink:title=" ">
<path fill="none" stroke="#63b8ff" d="M408.27,-263.46C430.31,-271.18 462.44,-281.99 491,-289.84 498.8,-291.98 507.08,-294.05 515.25,-295.98"/>
<polygon fill="#63b8ff" stroke="#63b8ff" points="514.59,-299.42 525.12,-298.25 516.16,-292.59 514.59,-299.42"/>
</a>
</g>
</g>
<!-- Node15 -->
<g id="Node000015" class="node">
<title>Node15</title>
<g id="a_Node000015"><a xlink:href="classDataParser.html#a79e5245aac486b566b17e521645d5894" target="_top" xlink:title="Parses the input data string to detect and classify command keywords.">
<polygon fill="white" stroke="#666666" points="624.5,-280.34 521.5,-280.34 521.5,-261.34 624.5,-261.34 624.5,-280.34"/>
<text text-anchor="middle" x="573" y="-268.34" font-family="Helvetica,sans-Serif" font-size="10.00">DataParser::parse</text>
</a>
</g>
</g>
<!-- Node6&#45;&gt;Node15 -->
<g id="edge14_Node000006_Node000015" class="edge">
<title>Node6&#45;&gt;Node15</title>
<g id="a_edge14_Node000006_Node000015"><a xlink:title=" ">
<path fill="none" stroke="#63b8ff" d="M455.15,-260.41C473.62,-262.06 493.23,-263.81 511.01,-265.39"/>
<polygon fill="#63b8ff" stroke="#63b8ff" points="510.96,-268.91 521.24,-266.31 511.59,-261.93 510.96,-268.91"/>
</a>
</g>
</g>
<!-- Node16 -->
<g id="Node000016" class="node">
<title>Node16</title>
<g id="a_Node000016"><a xlink:href="classMessageHandler.html#a86ae4992eac980513acf1fe723f98238" target="_top" xlink:title="Receives a message from the specified internal queue.">
<polygon fill="white" stroke="#666666" points="643,-206.34 503,-206.34 503,-187.34 643,-187.34 643,-206.34"/>
<text text-anchor="middle" x="573" y="-194.34" font-family="Helvetica,sans-Serif" font-size="10.00">MessageHandler::receive</text>
</a>
</g>
</g>
<!-- Node6&#45;&gt;Node16 -->
<g id="edge15_Node000006_Node000016" class="edge">
<title>Node6&#45;&gt;Node16</title>
<g id="a_edge15_Node000006_Node000016"><a xlink:title=" ">
<path fill="none" stroke="#63b8ff" d="M412.02,-244.29C425.29,-240.03 440.97,-234.85 455,-229.84 471.17,-224.06 474.6,-220.92 491,-215.84 499.13,-213.32 507.81,-210.95 516.36,-208.8"/>
<polygon fill="#63b8ff" stroke="#63b8ff" points="517.4,-212.15 526.29,-206.38 515.74,-205.35 517.4,-212.15"/>
</a>
</g>
</g>
<!-- Node18 -->
<g id="Node000018" class="node">
<title>Node18</title>
<g id="a_Node000018"><a xlink:href="classMessageHandler.html#a43e563eaac4cb8183d977678d7fdd5aa" target="_top" xlink:title="Sends a message to the specified internal message queue.">
<polygon fill="white" stroke="#666666" points="637,-243.34 509,-243.34 509,-224.34 637,-224.34 637,-243.34"/>
<text text-anchor="middle" x="573" y="-231.34" font-family="Helvetica,sans-Serif" font-size="10.00">MessageHandler::send</text>
</a>
</g>
</g>
<!-- Node6&#45;&gt;Node18 -->
<g id="edge17_Node000006_Node000018" class="edge">
<title>Node6&#45;&gt;Node18</title>
<g id="a_edge17_Node000006_Node000018"><a xlink:title=" ">
<path fill="none" stroke="#63b8ff" d="M455.15,-246.11C469.39,-244.61 484.31,-243.04 498.54,-241.55"/>
<polygon fill="#63b8ff" stroke="#63b8ff" points="499.18,-245 508.76,-240.48 498.45,-238.04 499.18,-245"/>
</a>
</g>
</g>
<!-- Node8 -->
<g id="Node000008" class="node">
<title>Node8</title>
<g id="a_Node000008"><a xlink:href="classCommandHandler.html#a665ecc3d0185cf173d567e00331c0200" target="_top" xlink:title="Processes a command.">
<polygon fill="white" stroke="#666666" points="890,-317.34 691,-317.34 691,-298.34 890,-298.34 890,-317.34"/>
<text text-anchor="middle" x="790.5" y="-305.34" font-family="Helvetica,sans-Serif" font-size="10.00">CommandHandler::processCommand</text>
</a>
</g>
</g>
<!-- Node7&#45;&gt;Node8 -->
<g id="edge7_Node000007_Node000008" class="edge">
<title>Node7&#45;&gt;Node8</title>
<g id="a_edge7_Node000007_Node000008"><a xlink:title=" ">
<path fill="none" stroke="#63b8ff" d="M655.16,-307.84C663.57,-307.84 672.2,-307.84 680.84,-307.84"/>
<polygon fill="#63b8ff" stroke="#63b8ff" points="680.98,-311.34 690.98,-307.84 680.98,-304.34 680.98,-311.34"/>
</a>
</g>
</g>
<!-- Node9 -->
<g id="Node000009" class="node">
<title>Node9</title>
<g id="a_Node000009"><a xlink:href="classCommandHandler.html#ac8beafb4e158b175c60256b58f89fa7f" target="_top" xlink:title="Gets the chip information.">
<polygon fill="white" stroke="#666666" points="1115,-422.34 948,-422.34 948,-403.34 1115,-403.34 1115,-422.34"/>
<text text-anchor="middle" x="1031.5" y="-410.34" font-family="Helvetica,sans-Serif" font-size="10.00">CommandHandler::getChipInfo</text>
</a>
</g>
</g>
<!-- Node8&#45;&gt;Node9 -->
<g id="edge8_Node000008_Node000009" class="edge">
<title>Node8&#45;&gt;Node9</title>
<g id="a_edge8_Node000008_Node000009"><a xlink:title=" ">
<path fill="none" stroke="#63b8ff" d="M802.88,-317.35C825.05,-335.33 876.21,-374.28 926,-393.84 932.78,-396.5 939.97,-398.8 947.26,-400.78"/>
<polygon fill="#63b8ff" stroke="#63b8ff" points="946.7,-404.24 957.25,-403.28 948.4,-397.45 946.7,-404.24"/>
</a>
</g>
</g>
<!-- Node10 -->
<g id="Node000010" class="node">
<title>Node10</title>
<g id="a_Node000010"><a xlink:href="classCommandHandler.html#aaa524249c62f3c5bf2fc192575a249d2" target="_top" xlink:title="Gets the clock speed in MHz.">
<polygon fill="white" stroke="#666666" points="1108.5,-384.84 954.5,-384.84 954.5,-354.84 1108.5,-354.84 1108.5,-384.84"/>
<text text-anchor="start" x="962.5" y="-372.84" font-family="Helvetica,sans-Serif" font-size="10.00">CommandHandler::getClock</text>
<text text-anchor="middle" x="1031.5" y="-361.84" font-family="Helvetica,sans-Serif" font-size="10.00">Speed</text>
</a>
</g>
</g>
<!-- Node8&#45;&gt;Node10 -->
<g id="edge9_Node000008_Node000010" class="edge">
<title>Node8&#45;&gt;Node10</title>
<g id="a_edge9_Node000008_Node000010"><a xlink:title=" ">
<path fill="none" stroke="#63b8ff" d="M823.45,-317.35C850.62,-325.32 890.74,-336.81 926,-345.84 934.74,-348.07 943.92,-350.33 953.05,-352.5"/>
<polygon fill="#63b8ff" stroke="#63b8ff" points="952.39,-355.94 962.92,-354.83 954,-349.13 952.39,-355.94"/>
</a>
</g>
</g>
<!-- Node11 -->
<g id="Node000011" class="node">
<title>Node11</title>
<g id="a_Node000011"><a xlink:href="classCommandHandler.html#ac790edbe2bf25d3e09ae3b43f0948204" target="_top" xlink:title="Gets the free heap size.">
<polygon fill="white" stroke="#666666" points="1118,-336.34 945,-336.34 945,-317.34 1118,-317.34 1118,-336.34"/>
<text text-anchor="middle" x="1031.5" y="-324.34" font-family="Helvetica,sans-Serif" font-size="10.00">CommandHandler::getFreeHeap</text>
</a>
</g>
</g>
<!-- Node8&#45;&gt;Node11 -->
<g id="edge10_Node000008_Node000011" class="edge">
<title>Node8&#45;&gt;Node11</title>
<g id="a_edge10_Node000008_Node000011"><a xlink:title=" ">
<path fill="none" stroke="#63b8ff" d="M890.09,-315.68C904.82,-316.85 919.99,-318.05 934.66,-319.22"/>
<polygon fill="#63b8ff" stroke="#63b8ff" points="934.48,-322.72 944.73,-320.02 935.04,-315.74 934.48,-322.72"/>
</a>
</g>
</g>
<!-- Node12 -->
<g id="Node000012" class="node">
<title>Node12</title>
<g id="a_Node000012"><a xlink:href="classCommandHandler.html#aacc693ccd17d6450b53c11dd8c348fe3" target="_top" xlink:title="Gets the free internal heap size.">
<polygon fill="white" stroke="#666666" points="1137,-299.34 926,-299.34 926,-280.34 1137,-280.34 1137,-299.34"/>
<text text-anchor="middle" x="1031.5" y="-287.34" font-family="Helvetica,sans-Serif" font-size="10.00">CommandHandler::getFreeInternalHeap</text>
</a>
</g>
</g>
<!-- Node8&#45;&gt;Node12 -->
<g id="edge11_Node000008_Node000012" class="edge">
<title>Node8&#45;&gt;Node12</title>
<g id="a_edge11_Node000008_Node000012"><a xlink:title=" ">
<path fill="none" stroke="#63b8ff" d="M890.09,-300.41C898.59,-299.77 907.24,-299.12 915.86,-298.47"/>
<polygon fill="#63b8ff" stroke="#63b8ff" points="916.23,-301.95 925.94,-297.71 915.71,-294.97 916.23,-301.95"/>
</a>
</g>
</g>
<!-- Node13 -->
<g id="Node000013" class="node">
<title>Node13</title>
<g id="a_Node000013"><a xlink:href="classCommandHandler.html#a84ae2c9bac0c26056bf404a7e907142a" target="_top" xlink:title="Gets the free minimum heap size.">
<polygon fill="white" stroke="#666666" points="1127,-262.34 936,-262.34 936,-243.34 1127,-243.34 1127,-262.34"/>
<text text-anchor="middle" x="1031.5" y="-250.34" font-family="Helvetica,sans-Serif" font-size="10.00">CommandHandler::getFreeMinHeap</text>
</a>
</g>
</g>
<!-- Node8&#45;&gt;Node13 -->
<g id="edge12_Node000008_Node000013" class="edge">
<title>Node8&#45;&gt;Node13</title>
<g id="a_edge12_Node000008_Node000013"><a xlink:title=" ">
<path fill="none" stroke="#63b8ff" d="M824.2,-298.28C851.33,-290.55 890.97,-279.7 926,-271.84 938.07,-269.13 950.98,-266.54 963.48,-264.19"/>
<polygon fill="#63b8ff" stroke="#63b8ff" points="964.19,-267.61 973.38,-262.35 962.91,-260.73 964.19,-267.61"/>
</a>
</g>
</g>
<!-- Node14 -->
<g id="Node000014" class="node">
<title>Node14</title>
<g id="a_Node000014"><a xlink:href="classCommandHandler.html#a85571f4b4a8c2ca92146f167c08c6c94" target="_top" xlink:title="Gets the IDF version.">
<polygon fill="white" stroke="#666666" points="1119.5,-225.34 943.5,-225.34 943.5,-206.34 1119.5,-206.34 1119.5,-225.34"/>
<text text-anchor="middle" x="1031.5" y="-213.34" font-family="Helvetica,sans-Serif" font-size="10.00">CommandHandler::getIdfVersion</text>
</a>
</g>
</g>
<!-- Node8&#45;&gt;Node14 -->
<g id="edge13_Node000008_Node000014" class="edge">
<title>Node8&#45;&gt;Node14</title>
<g id="a_edge13_Node000008_Node000014"><a xlink:title=" ">
<path fill="none" stroke="#63b8ff" d="M805.71,-298.13C829.51,-282.35 879.39,-251.25 926,-234.84 933.88,-232.06 942.23,-229.68 950.66,-227.63"/>
<polygon fill="#63b8ff" stroke="#63b8ff" points="951.58,-231.01 960.56,-225.37 950.03,-224.18 951.58,-231.01"/>
</a>
</g>
</g>
<!-- Node17 -->
<g id="Node000017" class="node">
<title>Node17</title>
<g id="a_Node000017"><a xlink:href="classMessageHandler.html#afb781c303001059d81235464ae91e0bd" target="_top" xlink:title="Internal helper to retrieve the appropriate message queue.">
<polygon fill="white" stroke="#666666" points="866.5,-224.34 714.5,-224.34 714.5,-205.34 866.5,-205.34 866.5,-224.34"/>
<text text-anchor="middle" x="790.5" y="-212.34" font-family="Helvetica,sans-Serif" font-size="10.00">MessageHandler::getQueue</text>
</a>
</g>
</g>
<!-- Node16&#45;&gt;Node17 -->
<g id="edge16_Node000016_Node000017" class="edge">
<title>Node16&#45;&gt;Node17</title>
<g id="a_edge16_Node000016_Node000017"><a xlink:title=" ">
<path fill="none" stroke="#63b8ff" d="M643.07,-202.61C662.56,-204.23 683.99,-206.02 704.3,-207.72"/>
<polygon fill="#63b8ff" stroke="#63b8ff" points="704.22,-211.23 714.48,-208.57 704.81,-204.25 704.22,-211.23"/>
</a>
</g>
</g>
<!-- Node18&#45;&gt;Node17 -->
<g id="edge18_Node000018_Node000017" class="edge">
<title>Node18&#45;&gt;Node17</title>
<g id="a_edge18_Node000018_Node000017"><a xlink:title=" ">
<path fill="none" stroke="#63b8ff" d="M637.2,-228.27C658.2,-226.41 681.94,-224.32 704.33,-222.35"/>
<polygon fill="#63b8ff" stroke="#63b8ff" points="704.85,-225.82 714.5,-221.45 704.23,-218.84 704.85,-225.82"/>
</a>
</g>
</g>
<!-- Node19&#45;&gt;Node16 -->
<g id="edge20_Node000019_Node000016" class="edge">
<title>Node19&#45;&gt;Node16</title>
<g id="a_edge20_Node000019_Node000016"><a xlink:title=" ">
<path fill="none" stroke="#63b8ff" d="M231.86,-214.48C295.86,-211.16 413.64,-205.05 492.4,-200.97"/>
<polygon fill="#63b8ff" stroke="#63b8ff" points="492.96,-204.44 502.76,-200.43 492.59,-197.45 492.96,-204.44"/>
</a>
</g>
</g>
<!-- Node20 -->
<g id="Node000020" class="node">
<title>Node20</title>
<g id="a_Node000020"><a xlink:href="classUart.html#a7e4639969ae7afcfddcf7908e0b29e54" target="_top" xlink:title="Task function to read characters from UART and buffer input.">
<polygon fill="white" stroke="#666666" points="431,-187.34 330,-187.34 330,-168.34 431,-168.34 431,-187.34"/>
<text text-anchor="middle" x="380.5" y="-175.34" font-family="Helvetica,sans-Serif" font-size="10.00">Uart::receiveTask</text>
</a>
</g>
</g>
<!-- Node19&#45;&gt;Node20 -->
<g id="edge21_Node000019_Node000020" class="edge">
<title>Node19&#45;&gt;Node20</title>
<g id="a_edge21_Node000019_Node000020"><a xlink:title=" ">
<path fill="none" stroke="#63b8ff" d="M231.75,-207.69C258.76,-202.24 293.31,-195.25 322.21,-189.41"/>
<polygon fill="#63b8ff" stroke="#63b8ff" points="323.07,-192.81 332.18,-187.4 321.68,-185.95 323.07,-192.81"/>
</a>
</g>
</g>
<!-- Node19&#45;&gt;Node23 -->
<g id="edge26_Node000019_Node000023" class="edge">
<title>Node19&#45;&gt;Node23</title>
<g id="a_edge26_Node000019_Node000023"><a xlink:title=" ">
<path fill="none" stroke="#63b8ff" d="M231.68,-212.3C244.65,-209.65 258.41,-205.46 270,-198.84 290.48,-187.14 285.61,-171.71 306,-159.84 343.63,-137.93 464.19,-115.54 529.31,-104.64"/>
<polygon fill="#63b8ff" stroke="#63b8ff" points="529.97,-108.08 539.27,-102.99 528.83,-101.17 529.97,-108.08"/>
</a>
</g>
</g>
<!-- Node20&#45;&gt;Node18 -->
<g id="edge25_Node000020_Node000018" class="edge">
<title>Node20&#45;&gt;Node18</title>
<g id="a_edge25_Node000020_Node000018"><a xlink:title=" ">
<path fill="none" stroke="#63b8ff" d="M406.46,-187.42C428.49,-195.66 461.57,-207.49 491,-215.84 498.69,-218.02 506.84,-220.1 514.9,-222.02"/>
<polygon fill="#63b8ff" stroke="#63b8ff" points="514.12,-225.43 524.66,-224.28 515.7,-218.61 514.12,-225.43"/>
</a>
</g>
</g>
<!-- Node21 -->
<g id="Node000021" class="node">
<title>Node21</title>
<g id="a_Node000021"><a xlink:href="classUart.html#af8aea729bcd4c5d755f9547727255706" target="_top" xlink:title="Receive data from UART event.">
<polygon fill="white" stroke="#666666" points="613,-169.34 533,-169.34 533,-150.34 613,-150.34 613,-169.34"/>
<text text-anchor="middle" x="573" y="-157.34" font-family="Helvetica,sans-Serif" font-size="10.00">Uart::receive</text>
</a>
</g>
</g>
<!-- Node20&#45;&gt;Node21 -->
<g id="edge22_Node000020_Node000021" class="edge">
<title>Node20&#45;&gt;Node21</title>
<g id="a_edge22_Node000020_Node000021"><a xlink:title=" ">
<path fill="none" stroke="#63b8ff" d="M431.05,-173.16C459.33,-170.48 494.65,-167.15 522.86,-164.48"/>
<polygon fill="#63b8ff" stroke="#63b8ff" points="523.28,-167.96 532.9,-163.53 522.62,-160.99 523.28,-167.96"/>
</a>
</g>
</g>
<!-- Node20&#45;&gt;Node23 -->
<g id="edge24_Node000020_Node000023" class="edge">
<title>Node20&#45;&gt;Node23</title>
<g id="a_edge24_Node000020_Node000023"><a xlink:title=" ">
<path fill="none" stroke="#63b8ff" d="M412.18,-168.25C425.47,-163.88 441.13,-158.44 455,-152.84 486.1,-140.29 520.75,-123.65 544.22,-111.97"/>
<polygon fill="#63b8ff" stroke="#63b8ff" points="545.87,-115.06 553.24,-107.45 542.73,-108.8 545.87,-115.06"/>
</a>
</g>
</g>
<!-- Node22 -->
<g id="Node000022" class="node">
<title>Node22</title>
<g id="a_Node000022"><a xlink:href="classUart.html#acb4c1007450e416d51f7099cb314597b" target="_top" xlink:title="Internal UART event handler that reads data on RX events.">
<polygon fill="white" stroke="#666666" points="859.5,-169.34 721.5,-169.34 721.5,-150.34 859.5,-150.34 859.5,-169.34"/>
<text text-anchor="middle" x="790.5" y="-157.34" font-family="Helvetica,sans-Serif" font-size="10.00">Uart::uart_event_handler</text>
</a>
</g>
</g>
<!-- Node21&#45;&gt;Node22 -->
<g id="edge23_Node000021_Node000022" class="edge">
<title>Node21&#45;&gt;Node22</title>
<g id="a_edge23_Node000021_Node000022"><a xlink:title=" ">
<path fill="none" stroke="#63b8ff" d="M613.03,-159.84C640.29,-159.84 677.62,-159.84 710.93,-159.84"/>
<polygon fill="#63b8ff" stroke="#63b8ff" points="711.12,-163.34 721.12,-159.84 711.12,-156.34 711.12,-163.34"/>
</a>
</g>
</g>
<!-- Node26&#45;&gt;Node20 -->
<g id="edge31_Node000026_Node000020" class="edge">
<title>Node26&#45;&gt;Node20</title>
<g id="a_edge31_Node000026_Node000020"><a xlink:title=" ">
<path fill="none" stroke="#63b8ff" d="M234.21,-179.34C260.04,-179.08 292.21,-178.74 319.7,-178.46"/>
<polygon fill="#63b8ff" stroke="#63b8ff" points="320.02,-181.95 329.99,-178.35 319.95,-174.95 320.02,-181.95"/>
</a>
</g>
</g>
<!-- Node27&#45;&gt;Node23 -->
<g id="edge33_Node000027_Node000023" class="edge">
<title>Node27&#45;&gt;Node23</title>
<g id="a_edge33_Node000027_Node000023"><a xlink:title=" ">
<path fill="none" stroke="#63b8ff" d="M226.62,-59.43C279.18,-63.02 374.17,-70.17 455,-79.84 479.66,-82.79 507.12,-86.96 529.23,-90.55"/>
<polygon fill="#63b8ff" stroke="#63b8ff" points="528.86,-94.04 539.3,-92.2 530,-87.13 528.86,-94.04"/>
</a>
</g>
</g>
<!-- Node28 -->
<g id="Node000028" class="node">
<title>Node28</title>
<g id="a_Node000028"><a xlink:href="classUart.html#a1e251525523677bf41341371c4a240f6" target="_top" xlink:title="Task function to transmit data from a queue to UART.">
<polygon fill="white" stroke="#666666" points="425,-107.34 336,-107.34 336,-88.34 425,-88.34 425,-107.34"/>
<text text-anchor="middle" x="380.5" y="-95.34" font-family="Helvetica,sans-Serif" font-size="10.00">Uart::sendTask</text>
</a>
</g>
</g>
<!-- Node27&#45;&gt;Node28 -->
<g id="edge34_Node000027_Node000028" class="edge">
<title>Node27&#45;&gt;Node28</title>
<g id="a_edge34_Node000027_Node000028"><a xlink:title=" ">
<path fill="none" stroke="#63b8ff" d="M226.96,-65.43C255.68,-71.54 294.55,-79.79 325.86,-86.44"/>
<polygon fill="#63b8ff" stroke="#63b8ff" points="325.23,-89.89 335.74,-88.54 326.68,-83.04 325.23,-89.89"/>
</a>
</g>
</g>
<!-- Node28&#45;&gt;Node16 -->
<g id="edge35_Node000028_Node000016" class="edge">
<title>Node28&#45;&gt;Node16</title>
<g id="a_edge35_Node000028_Node000016"><a xlink:title=" ">
<path fill="none" stroke="#63b8ff" d="M391.43,-107.5C409.6,-124.61 450.12,-160.2 491,-178.84 495.44,-180.86 500.11,-182.66 504.89,-184.27"/>
<polygon fill="#63b8ff" stroke="#63b8ff" points="504.22,-187.72 514.8,-187.29 506.26,-181.03 504.22,-187.72"/>
</a>
</g>
</g>
<!-- Node28&#45;&gt;Node23 -->
<g id="edge36_Node000028_Node000023" class="edge">
<title>Node28&#45;&gt;Node23</title>
<g id="a_edge36_Node000028_Node000023"><a xlink:title=" ">
<path fill="none" stroke="#63b8ff" d="M425.2,-97.84C456.49,-97.84 498.39,-97.84 529.42,-97.84"/>
<polygon fill="#63b8ff" stroke="#63b8ff" points="529.49,-101.34 539.49,-97.84 529.49,-94.34 529.49,-101.34"/>
</a>
</g>
</g>
</g>
</svg>

<g id="navigator" transform="translate(0 0)" fill="#404254">
  <rect fill="#f2f5e9" fill-opacity="0.5" stroke="#606060" stroke-width=".5" x="0" y="0" width="60" height="60"/>
  <use id="zoomplus" xlink:href="#zoomPlus" x="17" y="9" onmousedown="handleZoom(evt,'in')"/>
  <use id="zoomminus" xlink:href="#zoomMin" x="42" y="9" onmousedown="handleZoom(evt,'out')"/>
  <use id="reset" xlink:href="#resetDef" x="30" y="36" onmousedown="handleReset()"/>
   <use id="arrowup" xlink:href="#arrowUp" x="0" y="0" onmousedown="handlePan(0,-1)"/>
  <use id="arrowright" xlink:href="#arrowRight" x="0" y="0" onmousedown="handlePan(1,0)"/>
  <use id="arrowdown" xlink:href="#arrowDown" x="0" y="0" onmousedown="handlePan(0,1)"/>
  <use id="arrowleft" xlink:href="#arrowLeft" x="0" y="0" onmousedown="handlePan(-1,0)"/>
</g>
<svg viewBox="0 0 15 15" width="100%" height="30px" preserveAspectRatio="xMaxYMin meet">
 <g id="arrow_out" transform="scale(0.3 0.3)">
  <a xlink:href="main_8cpp_a630544a7f0a2cc40d8a7fefab7e2fe70_cgraph_org.svg" target="_base">
   <rect id="button" ry="5" rx="5" y="6" x="6" height="38" width="38"
        fill="#f2f5e9" fill-opacity="0.5" stroke="#606060" stroke-width="1.0"/>
   <path id="arrow"
     d="M 11.500037,31.436501 C 11.940474,20.09759 22.043105,11.32322 32.158766,21.979434 L 37.068811,17.246167 C 37.068811,17.246167 37.088388,32 37.088388,32 L 22.160133,31.978069 C 22.160133,31.978069 26.997745,27.140456 26.997745,27.140456 C 18.528582,18.264221 13.291696,25.230495 11.500037,31.436501 z"
     style="fill:#404040;"/>
  </a>
 </g>
</svg>

<style type='text/css'>
<![CDATA[
[data-mouse-over-selected='false'] { opacity: 0.7; }
[data-mouse-over-selected='true']  { opacity: 1.0; }
]]>
</style>
<script type="application/ecmascript"><![CDATA[
document.addEventListener('DOMContentLoaded', (event) => {
  highlightEdges();
  highlightAdjacentNodes();
});
]]></script>
</svg>
