<?xml version="1.0" encoding="UTF-8" standalone="no"?>
<!DOCTYPE svg PUBLIC "-//W3C//DTD SVG 1.1//EN"
 "http://www.w3.org/Graphics/SVG/1.1/DTD/svg11.dtd">
<!-- Generated by graphviz version 2.43.0 (0)
 -->
<!-- Title: uartReceiveTask Pages: 1 -->
<!--zoomable 101 -->

<svg id="main" version="1.1" xmlns="http://www.w3.org/2000/svg" xmlns:xlink="http://www.w3.org/1999/xlink" xml:space="preserve" onload="init(evt)">
<style type="text/css"><![CDATA[
.node, .edge {opacity: 0.7;}
.node.selected, .edge.selected {opacity: 1;}
.edge:hover path { stroke: red; }
.edge:hover polygon { stroke: red; fill: red; }
]]></style>

<defs>
  <circle id="rim" cx="0" cy="0" r="7"/>
  <circle id="rim2" cx="0" cy="0" r="3.5"/>
  <g id="zoomPlus">
    <use xlink:href="#rim" fill="#404040"><set attributeName="fill" to="#808080" begin="zoomplus.mouseover" end="zoomplus.mouseout"/></use>
    <path d="M-4,0h8M0,-4v8" fill="none" stroke="white" stroke-width="1.5" pointer-events="none"/>
  </g>
  <g id="zoomMin">
    <use xlink:href="#rim" fill="#404040"><set attributeName="fill" to="#808080" begin="zoomminus.mouseover" end="zoomminus.mouseout"/></use>
    <path d="M-4,0h8" fill="none" stroke="white" stroke-width="1.5" pointer-events="none"/>
  </g>
  <g id="arrowUp" transform="translate(30 24)">
    <use xlink:href="#rim"/>
    <path pointer-events="none" fill="none" stroke="white" stroke-width="1.5" d="M0,-3.0v7 M-2.5,-0.5L0,-3.0L2.5,-0.5"/>
  </g>
  <g id="arrowRight" transform="rotate(90) translate(36 -43)">
    <use xlink:href="#rim"/>
    <path pointer-events="none" fill="none" stroke="white" stroke-width="1.5" d="M0,-3.0v7 M-2.5,-0.5L0,-3.0L2.5,-0.5"/>
  </g>
  <g id="arrowDown" transform="rotate(180) translate(-30 -48)">
    <use xlink:href="#rim"/>
    <path pointer-events="none" fill="none" stroke="white" stroke-width="1.5" d="M0,-3.0v7 M-2.5,-0.5L0,-3.0L2.5,-0.5"/>
  </g>
  <g id="arrowLeft" transform="rotate(270) translate(-36 17)">
    <use xlink:href="#rim"/>
    <path pointer-events="none" fill="none" stroke="white" stroke-width="1.5" d="M0,-3.0v7 M-2.5,-0.5L0,-3.0L2.5,-0.5"/>
  </g>
  <g id="resetDef">
    <use xlink:href="#rim2" fill="#404040"><set attributeName="fill" to="#808080" begin="reset.mouseover" end="reset.mouseout"/></use>
  </g>
</defs>
<script type="application/ecmascript">
var viewWidth = 594;
var viewHeight = 101;
var sectionId = 'dynsection-9';
</script>
<script type="application/ecmascript" xlink:href="svg.min.js"/>
<svg id="graph" class="graph">
<g id="viewport">
<title>uartReceiveTask</title>
<!-- Node1 -->
<g id="Node000001" class="node">
<title>Node1</title>
<g id="a_Node000001"><a xlink:title=" ">
<polygon fill="#999999" stroke="#666666" points="97,-56 0,-56 0,-37 97,-37 97,-56"/>
<text text-anchor="middle" x="48.5" y="-44" font-family="Helvetica,sans-Serif" font-size="10.00">uartReceiveTask</text>
</a>
</g>
</g>
<!-- Node2 -->
<g id="Node000002" class="node">
<title>Node2</title>
<g id="a_Node000002"><a xlink:href="classUart.html#a7e4639969ae7afcfddcf7908e0b29e54" target="_top" xlink:title="Task function to read characters from UART and buffer input.">
<polygon fill="white" stroke="#666666" points="234,-56 133,-56 133,-37 234,-37 234,-56"/>
<text text-anchor="middle" x="183.5" y="-44" font-family="Helvetica,sans-Serif" font-size="10.00">Uart::receiveTask</text>
</a>
</g>
</g>
<!-- Node1&#45;&gt;Node2 -->
<g id="edge1_Node000001_Node000002" class="edge">
<title>Node1&#45;&gt;Node2</title>
<g id="a_edge1_Node000001_Node000002"><a xlink:title=" ">
<path fill="none" stroke="#63b8ff" d="M97.14,-46.5C105.5,-46.5 114.29,-46.5 122.92,-46.5"/>
<polygon fill="#63b8ff" stroke="#63b8ff" points="122.95,-50 132.95,-46.5 122.95,-43 122.95,-50"/>
</a>
</g>
</g>
<!-- Node3 -->
<g id="Node000003" class="node">
<title>Node3</title>
<g id="a_Node000003"><a xlink:href="classUart.html#af8aea729bcd4c5d755f9547727255706" target="_top" xlink:title="Receive data from UART event.">
<polygon fill="white" stroke="#666666" points="374,-93 294,-93 294,-74 374,-74 374,-93"/>
<text text-anchor="middle" x="334" y="-81" font-family="Helvetica,sans-Serif" font-size="10.00">Uart::receive</text>
</a>
</g>
</g>
<!-- Node2&#45;&gt;Node3 -->
<g id="edge2_Node000002_Node000003" class="edge">
<title>Node2&#45;&gt;Node3</title>
<g id="a_edge2_Node000002_Node000003"><a xlink:title=" ">
<path fill="none" stroke="#63b8ff" d="M222.74,-56.03C241.64,-60.74 264.63,-66.47 284.73,-71.47"/>
<polygon fill="#63b8ff" stroke="#63b8ff" points="284.08,-74.92 294.63,-73.94 285.77,-68.13 284.08,-74.92"/>
</a>
</g>
</g>
<!-- Node5 -->
<g id="Node000005" class="node">
<title>Node5</title>
<g id="a_Node000005"><a xlink:href="classUart.html#a27d16b401f6af6f830a5da8993d09ad3" target="_top" xlink:title="Send raw data over UART.">
<polygon fill="white" stroke="#666666" points="367.5,-56 300.5,-56 300.5,-37 367.5,-37 367.5,-56"/>
<text text-anchor="middle" x="334" y="-44" font-family="Helvetica,sans-Serif" font-size="10.00">Uart::send</text>
</a>
</g>
</g>
<!-- Node2&#45;&gt;Node5 -->
<g id="edge4_Node000002_Node000005" class="edge">
<title>Node2&#45;&gt;Node5</title>
<g id="a_edge4_Node000002_Node000005"><a xlink:title=" ">
<path fill="none" stroke="#63b8ff" d="M234.36,-46.5C252.36,-46.5 272.52,-46.5 289.89,-46.5"/>
<polygon fill="#63b8ff" stroke="#63b8ff" points="290.31,-50 300.31,-46.5 290.31,-43 290.31,-50"/>
</a>
</g>
</g>
<!-- Node6 -->
<g id="Node000006" class="node">
<title>Node6</title>
<g id="a_Node000006"><a xlink:href="classMessageHandler.html#a43e563eaac4cb8183d977678d7fdd5aa" target="_top" xlink:title="Sends a message to the specified internal message queue.">
<polygon fill="white" stroke="#666666" points="398,-19 270,-19 270,0 398,0 398,-19"/>
<text text-anchor="middle" x="334" y="-7" font-family="Helvetica,sans-Serif" font-size="10.00">MessageHandler::send</text>
</a>
</g>
</g>
<!-- Node2&#45;&gt;Node6 -->
<g id="edge5_Node000002_Node000006" class="edge">
<title>Node2&#45;&gt;Node6</title>
<g id="a_edge5_Node000002_Node000006"><a xlink:title=" ">
<path fill="none" stroke="#63b8ff" d="M222.74,-36.97C241.64,-32.26 264.63,-26.53 284.73,-21.53"/>
<polygon fill="#63b8ff" stroke="#63b8ff" points="285.77,-24.87 294.63,-19.06 284.08,-18.08 285.77,-24.87"/>
</a>
</g>
</g>
<!-- Node4 -->
<g id="Node000004" class="node">
<title>Node4</title>
<g id="a_Node000004"><a xlink:href="classUart.html#acb4c1007450e416d51f7099cb314597b" target="_top" xlink:title="Internal UART event handler that reads data on RX events.">
<polygon fill="white" stroke="#666666" points="579,-93 441,-93 441,-74 579,-74 579,-93"/>
<text text-anchor="middle" x="510" y="-81" font-family="Helvetica,sans-Serif" font-size="10.00">Uart::uart_event_handler</text>
</a>
</g>
</g>
<!-- Node3&#45;&gt;Node4 -->
<g id="edge3_Node000003_Node000004" class="edge">
<title>Node3&#45;&gt;Node4</title>
<g id="a_edge3_Node000003_Node000004"><a xlink:title=" ">
<path fill="none" stroke="#63b8ff" d="M374.05,-83.5C390.77,-83.5 410.93,-83.5 430.51,-83.5"/>
<polygon fill="#63b8ff" stroke="#63b8ff" points="430.68,-87 440.68,-83.5 430.68,-80 430.68,-87"/>
</a>
</g>
</g>
<!-- Node7 -->
<g id="Node000007" class="node">
<title>Node7</title>
<g id="a_Node000007"><a xlink:href="classMessageHandler.html#afb781c303001059d81235464ae91e0bd" target="_top" xlink:title="Internal helper to retrieve the appropriate message queue.">
<polygon fill="white" stroke="#666666" points="586,-19 434,-19 434,0 586,0 586,-19"/>
<text text-anchor="middle" x="510" y="-7" font-family="Helvetica,sans-Serif" font-size="10.00">MessageHandler::getQueue</text>
</a>
</g>
</g>
<!-- Node6&#45;&gt;Node7 -->
<g id="edge6_Node000006_Node000007" class="edge">
<title>Node6&#45;&gt;Node7</title>
<g id="a_edge6_Node000006_Node000007"><a xlink:title=" ">
<path fill="none" stroke="#63b8ff" d="M398.31,-9.5C406.62,-9.5 415.24,-9.5 423.84,-9.5"/>
<polygon fill="#63b8ff" stroke="#63b8ff" points="423.91,-13 433.91,-9.5 423.91,-6 423.91,-13"/>
</a>
</g>
</g>
</g>
</svg>

<g id="navigator" transform="translate(0 0)" fill="#404254">
  <rect fill="#f2f5e9" fill-opacity="0.5" stroke="#606060" stroke-width=".5" x="0" y="0" width="60" height="60"/>
  <use id="zoomplus" xlink:href="#zoomPlus" x="17" y="9" onmousedown="handleZoom(evt,'in')"/>
  <use id="zoomminus" xlink:href="#zoomMin" x="42" y="9" onmousedown="handleZoom(evt,'out')"/>
  <use id="reset" xlink:href="#resetDef" x="30" y="36" onmousedown="handleReset()"/>
   <use id="arrowup" xlink:href="#arrowUp" x="0" y="0" onmousedown="handlePan(0,-1)"/>
  <use id="arrowright" xlink:href="#arrowRight" x="0" y="0" onmousedown="handlePan(1,0)"/>
  <use id="arrowdown" xlink:href="#arrowDown" x="0" y="0" onmousedown="handlePan(0,1)"/>
  <use id="arrowleft" xlink:href="#arrowLeft" x="0" y="0" onmousedown="handlePan(-1,0)"/>
</g>
<svg viewBox="0 0 15 15" width="100%" height="30px" preserveAspectRatio="xMaxYMin meet">
 <g id="arrow_out" transform="scale(0.3 0.3)">
  <a xlink:href="main_8cpp_ad6d6c8ccee27b130f7eb2c9a3c8765a1_cgraph_org.svg" target="_base">
   <rect id="button" ry="5" rx="5" y="6" x="6" height="38" width="38"
        fill="#f2f5e9" fill-opacity="0.5" stroke="#606060" stroke-width="1.0"/>
   <path id="arrow"
     d="M 11.500037,31.436501 C 11.940474,20.09759 22.043105,11.32322 32.158766,21.979434 L 37.068811,17.246167 C 37.068811,17.246167 37.088388,32 37.088388,32 L 22.160133,31.978069 C 22.160133,31.978069 26.997745,27.140456 26.997745,27.140456 C 18.528582,18.264221 13.291696,25.230495 11.500037,31.436501 z"
     style="fill:#404040;"/>
  </a>
 </g>
</svg>

<style type='text/css'>
<![CDATA[
[data-mouse-over-selected='false'] { opacity: 0.7; }
[data-mouse-over-selected='true']  { opacity: 1.0; }
]]>
</style>
<script type="application/ecmascript"><![CDATA[
document.addEventListener('DOMContentLoaded', (event) => {
  highlightEdges();
  highlightAdjacentNodes();
});
]]></script>
</svg>
