<?xml version="1.0" encoding="UTF-8" standalone="no"?>
<!DOCTYPE svg PUBLIC "-//W3C//DTD SVG 1.1//EN"
 "http://www.w3.org/Graphics/SVG/1.1/DTD/svg11.dtd">
<!-- Generated by graphviz version 2.43.0 (0)
 -->
<!-- Title: getBleInterface Pages: 1 -->
<svg width="628pt" height="120pt"
 viewBox="0.00 0.00 628.00 120.00" xmlns="http://www.w3.org/2000/svg" xmlns:xlink="http://www.w3.org/1999/xlink">
<g id="graph0" class="graph" transform="scale(1 1) rotate(0) translate(4 116)">
<title>getBleInterface</title>
<!-- Node1 -->
<g id="Node000001" class="node">
<title>Node1</title>
<g id="a_Node000001"><a xlink:title=" ">
<polygon fill="#999999" stroke="#666666" points="92,-57 0,-57 0,-38 92,-38 92,-57"/>
<text text-anchor="middle" x="46" y="-45" font-family="Helvetica,sans-Serif" font-size="10.00">getBleInterface</text>
</a>
</g>
</g>
<!-- Node2 -->
<g id="Node000002" class="node">
<title>Node2</title>
<g id="a_Node000002"><a xlink:href="classMessageHandler.html#a86ae4992eac980513acf1fe723f98238" target="_top" xlink:title="Receives a message from the specified internal queue.">
<polygon fill="white" stroke="#666666" points="268,-112 128,-112 128,-93 268,-93 268,-112"/>
<text text-anchor="middle" x="198" y="-100" font-family="Helvetica,sans-Serif" font-size="10.00">MessageHandler::receive</text>
</a>
</g>
</g>
<!-- Node1&#45;&gt;Node2 -->
<g id="edge1_Node000001_Node000002" class="edge">
<title>Node1&#45;&gt;Node2</title>
<g id="a_edge1_Node000001_Node000002"><a xlink:title=" ">
<path fill="none" stroke="#63b8ff" d="M73.13,-57.08C97.57,-66.04 134.29,-79.51 161.4,-89.45"/>
<polygon fill="#63b8ff" stroke="#63b8ff" points="160.33,-92.78 170.92,-92.94 162.74,-86.21 160.33,-92.78"/>
</a>
</g>
</g>
<!-- Node4 -->
<g id="Node000004" class="node">
<title>Node4</title>
<g id="a_Node000004"><a xlink:href="classUart.html#a7e4639969ae7afcfddcf7908e0b29e54" target="_top" xlink:title="Task function to read characters from UART and buffer input.">
<polygon fill="white" stroke="#666666" points="248.5,-57 147.5,-57 147.5,-38 248.5,-38 248.5,-57"/>
<text text-anchor="middle" x="198" y="-45" font-family="Helvetica,sans-Serif" font-size="10.00">Uart::receiveTask</text>
</a>
</g>
</g>
<!-- Node1&#45;&gt;Node4 -->
<g id="edge3_Node000001_Node000004" class="edge">
<title>Node1&#45;&gt;Node4</title>
<g id="a_edge3_Node000001_Node000004"><a xlink:title=" ">
<path fill="none" stroke="#63b8ff" d="M92,-47.5C106.17,-47.5 122.04,-47.5 137.07,-47.5"/>
<polygon fill="#63b8ff" stroke="#63b8ff" points="137.31,-51 147.31,-47.5 137.31,-44 137.31,-51"/>
</a>
</g>
</g>
<!-- Node7 -->
<g id="Node000007" class="node">
<title>Node7</title>
<g id="a_Node000007"><a xlink:href="classUart.html#a27d16b401f6af6f830a5da8993d09ad3" target="_top" xlink:title="Send raw data over UART.">
<polygon fill="white" stroke="#666666" points="401.5,-19 334.5,-19 334.5,0 401.5,0 401.5,-19"/>
<text text-anchor="middle" x="368" y="-7" font-family="Helvetica,sans-Serif" font-size="10.00">Uart::send</text>
</a>
</g>
</g>
<!-- Node1&#45;&gt;Node7 -->
<g id="edge9_Node000001_Node000007" class="edge">
<title>Node1&#45;&gt;Node7</title>
<g id="a_edge9_Node000001_Node000007"><a xlink:title=" ">
<path fill="none" stroke="#63b8ff" d="M82.66,-37.91C96.7,-34.46 113.02,-30.84 128,-28.5 196.2,-17.85 276.33,-13.03 324.32,-10.95"/>
<polygon fill="#63b8ff" stroke="#63b8ff" points="324.5,-14.44 334.35,-10.53 324.21,-7.45 324.5,-14.44"/>
</a>
</g>
</g>
<!-- Node3 -->
<g id="Node000003" class="node">
<title>Node3</title>
<g id="a_Node000003"><a xlink:href="classMessageHandler.html#afb781c303001059d81235464ae91e0bd" target="_top" xlink:title="Internal helper to retrieve the appropriate message queue.">
<polygon fill="white" stroke="#666666" points="620,-112 468,-112 468,-93 620,-93 620,-112"/>
<text text-anchor="middle" x="544" y="-100" font-family="Helvetica,sans-Serif" font-size="10.00">MessageHandler::getQueue</text>
</a>
</g>
</g>
<!-- Node2&#45;&gt;Node3 -->
<g id="edge2_Node000002_Node000003" class="edge">
<title>Node2&#45;&gt;Node3</title>
<g id="a_edge2_Node000002_Node000003"><a xlink:title=" ">
<path fill="none" stroke="#63b8ff" d="M268.2,-102.5C322.8,-102.5 399.23,-102.5 457.63,-102.5"/>
<polygon fill="#63b8ff" stroke="#63b8ff" points="457.95,-106 467.95,-102.5 457.95,-99 457.95,-106"/>
</a>
</g>
</g>
<!-- Node5 -->
<g id="Node000005" class="node">
<title>Node5</title>
<g id="a_Node000005"><a xlink:href="classUart.html#af8aea729bcd4c5d755f9547727255706" target="_top" xlink:title="Receive data from UART event.">
<polygon fill="white" stroke="#666666" points="408,-56 328,-56 328,-37 408,-37 408,-56"/>
<text text-anchor="middle" x="368" y="-44" font-family="Helvetica,sans-Serif" font-size="10.00">Uart::receive</text>
</a>
</g>
</g>
<!-- Node4&#45;&gt;Node5 -->
<g id="edge4_Node000004_Node000005" class="edge">
<title>Node4&#45;&gt;Node5</title>
<g id="a_edge4_Node000004_Node000005"><a xlink:title=" ">
<path fill="none" stroke="#63b8ff" d="M248.95,-47.2C270.65,-47.07 295.99,-46.92 317.62,-46.79"/>
<polygon fill="#63b8ff" stroke="#63b8ff" points="317.93,-50.29 327.91,-46.73 317.88,-43.29 317.93,-50.29"/>
</a>
</g>
</g>
<!-- Node4&#45;&gt;Node7 -->
<g id="edge6_Node000004_Node000007" class="edge">
<title>Node4&#45;&gt;Node7</title>
<g id="a_edge6_Node000004_Node000007"><a xlink:title=" ">
<path fill="none" stroke="#63b8ff" d="M241.39,-37.91C266.77,-32.17 298.92,-24.9 324.34,-19.15"/>
<polygon fill="#63b8ff" stroke="#63b8ff" points="325.45,-22.49 334.43,-16.87 323.9,-15.66 325.45,-22.49"/>
</a>
</g>
</g>
<!-- Node8 -->
<g id="Node000008" class="node">
<title>Node8</title>
<g id="a_Node000008"><a xlink:href="classMessageHandler.html#a43e563eaac4cb8183d977678d7fdd5aa" target="_top" xlink:title="Sends a message to the specified internal message queue.">
<polygon fill="white" stroke="#666666" points="432,-93 304,-93 304,-74 432,-74 432,-93"/>
<text text-anchor="middle" x="368" y="-81" font-family="Helvetica,sans-Serif" font-size="10.00">MessageHandler::send</text>
</a>
</g>
</g>
<!-- Node4&#45;&gt;Node8 -->
<g id="edge7_Node000004_Node000008" class="edge">
<title>Node4&#45;&gt;Node8</title>
<g id="a_edge7_Node000004_Node000008"><a xlink:title=" ">
<path fill="none" stroke="#63b8ff" d="M243.58,-57.05C264.74,-61.59 290.21,-67.05 312.51,-71.82"/>
<polygon fill="#63b8ff" stroke="#63b8ff" points="311.99,-75.29 322.5,-73.97 313.46,-68.45 311.99,-75.29"/>
</a>
</g>
</g>
<!-- Node6 -->
<g id="Node000006" class="node">
<title>Node6</title>
<g id="a_Node000006"><a xlink:href="classUart.html#acb4c1007450e416d51f7099cb314597b" target="_top" xlink:title="Internal UART event handler that reads data on RX events.">
<polygon fill="white" stroke="#666666" points="613,-56 475,-56 475,-37 613,-37 613,-56"/>
<text text-anchor="middle" x="544" y="-44" font-family="Helvetica,sans-Serif" font-size="10.00">Uart::uart_event_handler</text>
</a>
</g>
</g>
<!-- Node5&#45;&gt;Node6 -->
<g id="edge5_Node000005_Node000006" class="edge">
<title>Node5&#45;&gt;Node6</title>
<g id="a_edge5_Node000005_Node000006"><a xlink:title=" ">
<path fill="none" stroke="#63b8ff" d="M408.05,-46.5C424.77,-46.5 444.93,-46.5 464.51,-46.5"/>
<polygon fill="#63b8ff" stroke="#63b8ff" points="464.68,-50 474.68,-46.5 464.68,-43 464.68,-50"/>
</a>
</g>
</g>
<!-- Node8&#45;&gt;Node3 -->
<g id="edge8_Node000008_Node000003" class="edge">
<title>Node8&#45;&gt;Node3</title>
<g id="a_edge8_Node000008_Node000003"><a xlink:title=" ">
<path fill="none" stroke="#63b8ff" d="M432.31,-90.41C440.62,-91.32 449.24,-92.26 457.84,-93.2"/>
<polygon fill="#63b8ff" stroke="#63b8ff" points="457.59,-96.69 467.91,-94.3 458.35,-89.74 457.59,-96.69"/>
</a>
</g>
</g>
</g>
</svg>
