<?xml version="1.0" encoding="UTF-8" standalone="no"?>
<!DOCTYPE svg PUBLIC "-//W3C//DTD SVG 1.1//EN"
 "http://www.w3.org/Graphics/SVG/1.1/DTD/svg11.dtd">
<!-- Generated by graphviz version 2.43.0 (0)
 -->
<!-- Title: main/src/MessageHandler.cpp Pages: 1 -->
<svg width="1835pt" height="302pt"
 viewBox="0.00 0.00 1834.58 302.00" xmlns="http://www.w3.org/2000/svg" xmlns:xlink="http://www.w3.org/1999/xlink">
<g id="graph0" class="graph" transform="scale(1 1) rotate(0) translate(4 298)">
<title>main/src/MessageHandler.cpp</title>
<!-- Node1 -->
<g id="Node000001" class="node">
<title>Node1</title>
<g id="a_Node000001"><a xlink:title="Implementation of the MessageHandler class.">
<polygon fill="#999999" stroke="#666666" points="1199.21,-294 1036.21,-294 1036.21,-275 1199.21,-275 1199.21,-294"/>
<text text-anchor="middle" x="1117.71" y="-282" font-family="Helvetica,sans-Serif" font-size="10.00">main/src/MessageHandler.cpp</text>
</a>
</g>
</g>
<!-- Node2 -->
<g id="Node000002" class="node">
<title>Node2</title>
<g id="a_Node000002"><a xlink:href="MessageHandler_8hpp.html" target="_top" xlink:title="Declaration of the MessageHandler class for managing message queues between components.">
<polygon fill="white" stroke="#666666" points="1123.21,-239 1004.21,-239 1004.21,-220 1123.21,-220 1123.21,-239"/>
<text text-anchor="middle" x="1063.71" y="-227" font-family="Helvetica,sans-Serif" font-size="10.00">MessageHandler.hpp</text>
</a>
</g>
</g>
<!-- Node1&#45;&gt;Node2 -->
<g id="edge1_Node000001_Node000002" class="edge">
<title>Node1&#45;&gt;Node2</title>
<g id="a_edge1_Node000001_Node000002"><a xlink:title=" ">
<path fill="none" stroke="#63b8ff" d="M1108.79,-274.75C1100.93,-267.03 1089.28,-255.6 1079.79,-246.28"/>
<polygon fill="#63b8ff" stroke="#63b8ff" points="1082.05,-243.6 1072.46,-239.09 1077.15,-248.59 1082.05,-243.6"/>
</a>
</g>
</g>
<!-- Node29 -->
<g id="Node000029" class="node">
<title>Node29</title>
<g id="a_Node000029"><a xlink:title=" ">
<polygon fill="#e0e0e0" stroke="#999999" points="1204.21,-239 1141.21,-239 1141.21,-220 1204.21,-220 1204.21,-239"/>
<text text-anchor="middle" x="1172.71" y="-227" font-family="Helvetica,sans-Serif" font-size="10.00">esp_log.h</text>
</a>
</g>
</g>
<!-- Node1&#45;&gt;Node29 -->
<g id="edge50_Node000001_Node000029" class="edge">
<title>Node1&#45;&gt;Node29</title>
<g id="a_edge50_Node000001_Node000029"><a xlink:title=" ">
<path fill="none" stroke="#63b8ff" d="M1126.79,-274.75C1134.8,-267.03 1146.67,-255.6 1156.33,-246.28"/>
<polygon fill="#63b8ff" stroke="#63b8ff" points="1159.02,-248.55 1163.8,-239.09 1154.17,-243.51 1159.02,-248.55"/>
</a>
</g>
</g>
<!-- Node3 -->
<g id="Node000003" class="node">
<title>Node3</title>
<g id="a_Node000003"><a xlink:title=" ">
<polygon fill="#e0e0e0" stroke="#999999" points="1038.71,-74 980.71,-74 980.71,-55 1038.71,-55 1038.71,-74"/>
<text text-anchor="middle" x="1009.71" y="-62" font-family="Helvetica,sans-Serif" font-size="10.00">memory</text>
</a>
</g>
</g>
<!-- Node2&#45;&gt;Node3 -->
<g id="edge2_Node000002_Node000003" class="edge">
<title>Node2&#45;&gt;Node3</title>
<g id="a_edge2_Node000002_Node000003"><a xlink:title=" ">
<path fill="none" stroke="#63b8ff" d="M1060.81,-219.74C1052.35,-194.2 1027.58,-119.43 1015.92,-84.23"/>
<polygon fill="#63b8ff" stroke="#63b8ff" points="1019.1,-82.7 1012.63,-74.31 1012.45,-84.9 1019.1,-82.7"/>
</a>
</g>
</g>
<!-- Node4 -->
<g id="Node000004" class="node">
<title>Node4</title>
<g id="a_Node000004"><a xlink:href="rtos_8h.html" target="_top" xlink:title=" ">
<polygon fill="white" stroke="#666666" points="1111.71,-184 1067.71,-184 1067.71,-165 1111.71,-165 1111.71,-184"/>
<text text-anchor="middle" x="1089.71" y="-172" font-family="Helvetica,sans-Serif" font-size="10.00">rtos.h</text>
</a>
</g>
</g>
<!-- Node2&#45;&gt;Node4 -->
<g id="edge3_Node000002_Node000004" class="edge">
<title>Node2&#45;&gt;Node4</title>
<g id="a_edge3_Node000002_Node000004"><a xlink:title=" ">
<path fill="none" stroke="#63b8ff" d="M1068,-219.75C1071.52,-212.57 1076.62,-202.18 1080.99,-193.27"/>
<polygon fill="#63b8ff" stroke="#63b8ff" points="1084.23,-194.61 1085.5,-184.09 1077.95,-191.53 1084.23,-194.61"/>
</a>
</g>
</g>
<!-- Node5 -->
<g id="Node000005" class="node">
<title>Node5</title>
<g id="a_Node000005"><a xlink:href="EventFlags_8h.html" target="_top" xlink:title=" ">
<polygon fill="white" stroke="#666666" points="348.71,-129 268.71,-129 268.71,-110 348.71,-110 348.71,-129"/>
<text text-anchor="middle" x="308.71" y="-117" font-family="Helvetica,sans-Serif" font-size="10.00">EventFlags.h</text>
</a>
</g>
</g>
<!-- Node4&#45;&gt;Node5 -->
<g id="edge4_Node000004_Node000005" class="edge">
<title>Node4&#45;&gt;Node5</title>
<g id="a_edge4_Node000004_Node000005"><a xlink:title=" ">
<path fill="none" stroke="#63b8ff" d="M1067.43,-172.18C982.2,-167.12 668.71,-148.2 410.71,-129 393.83,-127.74 375.4,-126.25 358.9,-124.86"/>
<polygon fill="#63b8ff" stroke="#63b8ff" points="359.17,-121.37 348.91,-124.01 358.58,-128.35 359.17,-121.37"/>
</a>
</g>
</g>
<!-- Node7 -->
<g id="Node000007" class="node">
<title>Node7</title>
<g id="a_Node000007"><a xlink:title=" ">
<polygon fill="#e0e0e0" stroke="#999999" points="1390.21,-19 1277.21,-19 1277.21,0 1390.21,0 1390.21,-19"/>
<text text-anchor="middle" x="1333.71" y="-7" font-family="Helvetica,sans-Serif" font-size="10.00">freertos/FreeRTOS.h</text>
</a>
</g>
</g>
<!-- Node4&#45;&gt;Node7 -->
<g id="edge48_Node000004_Node000007" class="edge">
<title>Node4&#45;&gt;Node7</title>
<g id="a_edge48_Node000004_Node000007"><a xlink:title=" ">
<path fill="none" stroke="#63b8ff" d="M1111.82,-173.41C1210.99,-172.77 1615.13,-167.8 1734.71,-129 1778.58,-114.77 1800.35,-114.34 1822.71,-74 1826.8,-66.61 1828.4,-61.24 1822.71,-55 1794.8,-24.43 1527.72,-14.63 1400.49,-11.68"/>
<polygon fill="#63b8ff" stroke="#63b8ff" points="1400.54,-8.18 1390.46,-11.46 1400.38,-15.18 1400.54,-8.18"/>
</a>
</g>
</g>
<!-- Node9 -->
<g id="Node000009" class="node">
<title>Node9</title>
<g id="a_Node000009"><a xlink:title=" ">
<polygon fill="#e0e0e0" stroke="#999999" points="533.71,-19 483.71,-19 483.71,0 533.71,0 533.71,-19"/>
<text text-anchor="middle" x="508.71" y="-7" font-family="Helvetica,sans-Serif" font-size="10.00">cstdint</text>
</a>
</g>
</g>
<!-- Node4&#45;&gt;Node9 -->
<g id="edge49_Node000004_Node000009" class="edge">
<title>Node4&#45;&gt;Node9</title>
<g id="a_edge49_Node000004_Node000009"><a xlink:title=" ">
<path fill="none" stroke="#63b8ff" d="M1067.59,-173.74C963.83,-174.34 526.92,-171 443.71,-74 427.75,-55.39 455.11,-35.98 479.08,-23.6"/>
<polygon fill="#63b8ff" stroke="#63b8ff" points="480.9,-26.6 488.34,-19.05 477.82,-20.32 480.9,-26.6"/>
</a>
</g>
</g>
<!-- Node15 -->
<g id="Node000015" class="node">
<title>Node15</title>
<g id="a_Node000015"><a xlink:href="MessageQueue_8h.html" target="_top" xlink:title=" ">
<polygon fill="white" stroke="#666666" points="960.21,-129 859.21,-129 859.21,-110 960.21,-110 960.21,-129"/>
<text text-anchor="middle" x="909.71" y="-117" font-family="Helvetica,sans-Serif" font-size="10.00">MessageQueue.h</text>
</a>
</g>
</g>
<!-- Node4&#45;&gt;Node15 -->
<g id="edge18_Node000004_Node000015" class="edge">
<title>Node4&#45;&gt;Node15</title>
<g id="a_edge18_Node000004_Node000015"><a xlink:title=" ">
<path fill="none" stroke="#63b8ff" d="M1067.64,-167C1038.03,-158.28 984.99,-142.66 948.6,-131.95"/>
<polygon fill="#63b8ff" stroke="#63b8ff" points="949.4,-128.54 938.82,-129.07 947.42,-135.25 949.4,-128.54"/>
</a>
</g>
</g>
<!-- Node20 -->
<g id="Node000020" class="node">
<title>Node20</title>
<g id="a_Node000020"><a xlink:href="Mutex_8h.html" target="_top" xlink:title=" ">
<polygon fill="white" stroke="#666666" points="1535.71,-129 1479.71,-129 1479.71,-110 1535.71,-110 1535.71,-129"/>
<text text-anchor="middle" x="1507.71" y="-117" font-family="Helvetica,sans-Serif" font-size="10.00">Mutex.h</text>
</a>
</g>
</g>
<!-- Node4&#45;&gt;Node20 -->
<g id="edge28_Node000004_Node000020" class="edge">
<title>Node4&#45;&gt;Node20</title>
<g id="a_edge28_Node000004_Node000020"><a xlink:title=" ">
<path fill="none" stroke="#63b8ff" d="M1111.89,-170.69C1179.53,-162.11 1383.81,-136.21 1469.37,-125.36"/>
<polygon fill="#63b8ff" stroke="#63b8ff" points="1469.96,-128.82 1479.44,-124.08 1469.08,-121.87 1469.96,-128.82"/>
</a>
</g>
</g>
<!-- Node23 -->
<g id="Node000023" class="node">
<title>Node23</title>
<g id="a_Node000023"><a xlink:href="Semaphore_8h.html" target="_top" xlink:title=" ">
<polygon fill="white" stroke="#666666" points="1725.21,-129 1644.21,-129 1644.21,-110 1725.21,-110 1725.21,-129"/>
<text text-anchor="middle" x="1684.71" y="-117" font-family="Helvetica,sans-Serif" font-size="10.00">Semaphore.h</text>
</a>
</g>
</g>
<!-- Node4&#45;&gt;Node23 -->
<g id="edge33_Node000004_Node000023" class="edge">
<title>Node4&#45;&gt;Node23</title>
<g id="a_edge33_Node000004_Node000023"><a xlink:title=" ">
<path fill="none" stroke="#63b8ff" d="M1111.95,-171.52C1197.94,-163.86 1510.04,-136.06 1633.72,-125.04"/>
<polygon fill="#63b8ff" stroke="#63b8ff" points="1634.4,-128.5 1644.05,-124.12 1633.78,-121.52 1634.4,-128.5"/>
</a>
</g>
</g>
<!-- Node25 -->
<g id="Node000025" class="node">
<title>Node25</title>
<g id="a_Node000025"><a xlink:href="Task_8h.html" target="_top" xlink:title=" ">
<polygon fill="white" stroke="#666666" points="1113.21,-129 1066.21,-129 1066.21,-110 1113.21,-110 1113.21,-129"/>
<text text-anchor="middle" x="1089.71" y="-117" font-family="Helvetica,sans-Serif" font-size="10.00">Task.h</text>
</a>
</g>
</g>
<!-- Node4&#45;&gt;Node25 -->
<g id="edge38_Node000004_Node000025" class="edge">
<title>Node4&#45;&gt;Node25</title>
<g id="a_edge38_Node000004_Node000025"><a xlink:title=" ">
<path fill="none" stroke="#63b8ff" d="M1089.71,-164.75C1089.71,-157.8 1089.71,-147.85 1089.71,-139.13"/>
<polygon fill="#63b8ff" stroke="#63b8ff" points="1093.21,-139.09 1089.71,-129.09 1086.21,-139.09 1093.21,-139.09"/>
</a>
</g>
</g>
<!-- Node27 -->
<g id="Node000027" class="node">
<title>Node27</title>
<g id="a_Node000027"><a xlink:href="Timer_8h.html" target="_top" xlink:title=" ">
<polygon fill="white" stroke="#666666" points="1184.21,-129 1131.21,-129 1131.21,-110 1184.21,-110 1184.21,-129"/>
<text text-anchor="middle" x="1157.71" y="-117" font-family="Helvetica,sans-Serif" font-size="10.00">Timer.h</text>
</a>
</g>
</g>
<!-- Node4&#45;&gt;Node27 -->
<g id="edge43_Node000004_Node000027" class="edge">
<title>Node4&#45;&gt;Node27</title>
<g id="a_edge43_Node000004_Node000027"><a xlink:title=" ">
<path fill="none" stroke="#63b8ff" d="M1100.64,-164.98C1110.79,-157.07 1126.13,-145.11 1138.36,-135.58"/>
<polygon fill="#63b8ff" stroke="#63b8ff" points="1140.85,-138.08 1146.59,-129.17 1136.55,-132.56 1140.85,-138.08"/>
</a>
</g>
</g>
<!-- Node6 -->
<g id="Node000006" class="node">
<title>Node6</title>
<g id="a_Node000006"><a xlink:href="Core_8h.html" target="_top" xlink:title=" ">
<polygon fill="white" stroke="#666666" points="688.21,-74 621.21,-74 621.21,-55 688.21,-55 688.21,-74"/>
<text text-anchor="middle" x="654.71" y="-62" font-family="Helvetica,sans-Serif" font-size="10.00">util/Core.h</text>
</a>
</g>
</g>
<!-- Node5&#45;&gt;Node6 -->
<g id="edge5_Node000005_Node000006" class="edge">
<title>Node5&#45;&gt;Node6</title>
<g id="a_edge5_Node000005_Node000006"><a xlink:title=" ">
<path fill="none" stroke="#63b8ff" d="M348.77,-112.87C406.03,-104.74 514.56,-89.04 606.71,-74 608.17,-73.76 609.66,-73.52 611.16,-73.27"/>
<polygon fill="#63b8ff" stroke="#63b8ff" points="611.89,-76.69 621.16,-71.56 610.71,-69.79 611.89,-76.69"/>
</a>
</g>
</g>
<!-- Node5&#45;&gt;Node7 -->
<g id="edge14_Node000005_Node000007" class="edge">
<title>Node5&#45;&gt;Node7</title>
<g id="a_edge14_Node000005_Node000007"><a xlink:title=" ">
<path fill="none" stroke="#63b8ff" d="M348.91,-115.33C401.41,-110.37 495.69,-98.68 572.71,-74 591.07,-68.12 593.06,-59.91 611.71,-55 734.21,-22.75 1112.01,-13.69 1266.66,-11.3"/>
<polygon fill="#63b8ff" stroke="#63b8ff" points="1267.02,-14.8 1276.96,-11.15 1266.91,-7.8 1267.02,-14.8"/>
</a>
</g>
</g>
<!-- Node8 -->
<g id="Node000008" class="node">
<title>Node8</title>
<g id="a_Node000008"><a xlink:href="Flags_8h.html" target="_top" xlink:title=" ">
<polygon fill="white" stroke="#666666" points="175.21,-74 104.21,-74 104.21,-55 175.21,-55 175.21,-74"/>
<text text-anchor="middle" x="139.71" y="-62" font-family="Helvetica,sans-Serif" font-size="10.00">util/Flags.h</text>
</a>
</g>
</g>
<!-- Node5&#45;&gt;Node8 -->
<g id="edge7_Node000005_Node000008" class="edge">
<title>Node5&#45;&gt;Node8</title>
<g id="a_edge7_Node000005_Node000008"><a xlink:title=" ">
<path fill="none" stroke="#63b8ff" d="M281.56,-109.98C253.18,-101.09 208.48,-87.07 176.85,-77.15"/>
<polygon fill="#63b8ff" stroke="#63b8ff" points="177.66,-73.73 167.08,-74.08 175.57,-80.41 177.66,-73.73"/>
</a>
</g>
</g>
<!-- Node10 -->
<g id="Node000010" class="node">
<title>Node10</title>
<g id="a_Node000010"><a xlink:title=" ">
<polygon fill="#e0e0e0" stroke="#999999" points="89.21,-19 6.21,-19 6.21,0 89.21,0 89.21,-19"/>
<text text-anchor="middle" x="47.71" y="-7" font-family="Helvetica,sans-Serif" font-size="10.00">initializer_list</text>
</a>
</g>
</g>
<!-- Node5&#45;&gt;Node10 -->
<g id="edge17_Node000005_Node000010" class="edge">
<title>Node5&#45;&gt;Node10</title>
<g id="a_edge17_Node000005_Node000010"><a xlink:title=" ">
<path fill="none" stroke="#63b8ff" d="M268.65,-118.82C194.06,-118.46 38.37,-112.94 4.71,-74 -8.63,-58.56 9.42,-38.84 26.05,-25.51"/>
<polygon fill="#63b8ff" stroke="#63b8ff" points="28.57,-27.99 34.45,-19.17 24.36,-22.4 28.57,-27.99"/>
</a>
</g>
</g>
<!-- Node12 -->
<g id="Node000012" class="node">
<title>Node12</title>
<g id="a_Node000012"><a xlink:href="Types_8h.html" target="_top" xlink:title=" ">
<polygon fill="white" stroke="#666666" points="85.71,-74 13.71,-74 13.71,-55 85.71,-55 85.71,-74"/>
<text text-anchor="middle" x="49.71" y="-62" font-family="Helvetica,sans-Serif" font-size="10.00">util/Types.h</text>
</a>
</g>
</g>
<!-- Node5&#45;&gt;Node12 -->
<g id="edge11_Node000005_Node000012" class="edge">
<title>Node5&#45;&gt;Node12</title>
<g id="a_edge11_Node000005_Node000012"><a xlink:title=" ">
<path fill="none" stroke="#63b8ff" d="M268.53,-110.28C221.83,-100.72 144.93,-84.99 95.84,-74.94"/>
<polygon fill="#63b8ff" stroke="#63b8ff" points="96.31,-71.46 85.81,-72.89 94.9,-78.32 96.31,-71.46"/>
</a>
</g>
</g>
<!-- Node13 -->
<g id="Node000013" class="node">
<title>Node13</title>
<g id="a_Node000013"><a xlink:title=" ">
<polygon fill="#e0e0e0" stroke="#999999" points="326.21,-74 193.21,-74 193.21,-55 326.21,-55 326.21,-74"/>
<text text-anchor="middle" x="259.71" y="-62" font-family="Helvetica,sans-Serif" font-size="10.00">freertos/event_groups.h</text>
</a>
</g>
</g>
<!-- Node5&#45;&gt;Node13 -->
<g id="edge15_Node000005_Node000013" class="edge">
<title>Node5&#45;&gt;Node13</title>
<g id="a_edge15_Node000005_Node000013"><a xlink:title=" ">
<path fill="none" stroke="#63b8ff" d="M300.62,-109.75C293.55,-102.11 283.12,-90.82 274.56,-81.56"/>
<polygon fill="#63b8ff" stroke="#63b8ff" points="277.01,-79.06 267.65,-74.09 271.87,-83.81 277.01,-79.06"/>
</a>
</g>
</g>
<!-- Node14 -->
<g id="Node000014" class="node">
<title>Node14</title>
<g id="a_Node000014"><a xlink:title=" ">
<polygon fill="#e0e0e0" stroke="#999999" points="396.71,-74 344.71,-74 344.71,-55 396.71,-55 396.71,-74"/>
<text text-anchor="middle" x="370.71" y="-62" font-family="Helvetica,sans-Serif" font-size="10.00">cassert</text>
</a>
</g>
</g>
<!-- Node5&#45;&gt;Node14 -->
<g id="edge16_Node000005_Node000014" class="edge">
<title>Node5&#45;&gt;Node14</title>
<g id="a_edge16_Node000005_Node000014"><a xlink:title=" ">
<path fill="none" stroke="#63b8ff" d="M318.67,-109.98C327.84,-102.15 341.65,-90.34 352.74,-80.86"/>
<polygon fill="#63b8ff" stroke="#63b8ff" points="355.24,-83.33 360.57,-74.17 350.69,-78.01 355.24,-83.33"/>
</a>
</g>
</g>
<!-- Node6&#45;&gt;Node7 -->
<g id="edge6_Node000006_Node000007" class="edge">
<title>Node6&#45;&gt;Node7</title>
<g id="a_edge6_Node000006_Node000007"><a xlink:title=" ">
<path fill="none" stroke="#63b8ff" d="M688.44,-56.42C691.57,-55.89 694.69,-55.4 697.71,-55 904.06,-27.5 1150.48,-16.39 1266.72,-12.43"/>
<polygon fill="#63b8ff" stroke="#63b8ff" points="1267.01,-15.92 1276.89,-12.09 1266.78,-8.92 1267.01,-15.92"/>
</a>
</g>
</g>
<!-- Node8&#45;&gt;Node9 -->
<g id="edge8_Node000008_Node000009" class="edge">
<title>Node8&#45;&gt;Node9</title>
<g id="a_edge8_Node000008_Node000009"><a xlink:title=" ">
<path fill="none" stroke="#63b8ff" d="M175.22,-56.47C178.09,-55.95 180.95,-55.46 183.71,-55 288.67,-37.69 413.48,-21.95 473.3,-14.7"/>
<polygon fill="#63b8ff" stroke="#63b8ff" points="473.85,-18.16 483.35,-13.49 473.01,-11.21 473.85,-18.16"/>
</a>
</g>
</g>
<!-- Node8&#45;&gt;Node10 -->
<g id="edge9_Node000008_Node000010" class="edge">
<title>Node8&#45;&gt;Node10</title>
<g id="a_edge9_Node000008_Node000010"><a xlink:title=" ">
<path fill="none" stroke="#63b8ff" d="M124.93,-54.98C110.53,-46.69 88.4,-33.94 71.52,-24.22"/>
<polygon fill="#63b8ff" stroke="#63b8ff" points="73.17,-21.13 62.76,-19.17 69.68,-27.19 73.17,-21.13"/>
</a>
</g>
</g>
<!-- Node11 -->
<g id="Node000011" class="node">
<title>Node11</title>
<g id="a_Node000011"><a xlink:title=" ">
<polygon fill="#e0e0e0" stroke="#999999" points="176.21,-19 107.21,-19 107.21,0 176.21,0 176.21,-19"/>
<text text-anchor="middle" x="141.71" y="-7" font-family="Helvetica,sans-Serif" font-size="10.00">type_traits</text>
</a>
</g>
</g>
<!-- Node8&#45;&gt;Node11 -->
<g id="edge10_Node000008_Node000011" class="edge">
<title>Node8&#45;&gt;Node11</title>
<g id="a_edge10_Node000008_Node000011"><a xlink:title=" ">
<path fill="none" stroke="#63b8ff" d="M140.04,-54.75C140.3,-47.8 140.68,-37.85 141.01,-29.13"/>
<polygon fill="#63b8ff" stroke="#63b8ff" points="144.51,-29.21 141.39,-19.09 137.51,-28.95 144.51,-29.21"/>
</a>
</g>
</g>
<!-- Node12&#45;&gt;Node9 -->
<g id="edge12_Node000012_Node000009" class="edge">
<title>Node12&#45;&gt;Node9</title>
<g id="a_edge12_Node000012_Node000009"><a xlink:title=" ">
<path fill="none" stroke="#63b8ff" d="M86.02,-56.39C88.95,-55.89 91.88,-55.42 94.71,-55 234.15,-34.37 401.36,-19.35 473.14,-13.36"/>
<polygon fill="#63b8ff" stroke="#63b8ff" points="473.74,-16.82 483.42,-12.51 473.16,-9.85 473.74,-16.82"/>
</a>
</g>
</g>
<!-- Node12&#45;&gt;Node10 -->
<g id="edge13_Node000012_Node000010" class="edge">
<title>Node12&#45;&gt;Node10</title>
<g id="a_edge13_Node000012_Node000010"><a xlink:title=" ">
<path fill="none" stroke="#63b8ff" d="M49.38,-54.75C49.12,-47.8 48.74,-37.85 48.41,-29.13"/>
<polygon fill="#63b8ff" stroke="#63b8ff" points="51.91,-28.95 48.03,-19.09 44.91,-29.21 51.91,-28.95"/>
</a>
</g>
</g>
<!-- Node15&#45;&gt;Node3 -->
<g id="edge27_Node000015_Node000003" class="edge">
<title>Node15&#45;&gt;Node3</title>
<g id="a_edge27_Node000015_Node000003"><a xlink:title=" ">
<path fill="none" stroke="#63b8ff" d="M925.78,-109.98C941.57,-101.61 965.93,-88.7 984.34,-78.95"/>
<polygon fill="#63b8ff" stroke="#63b8ff" points="986.15,-81.95 993.35,-74.17 982.88,-75.76 986.15,-81.95"/>
</a>
</g>
</g>
<!-- Node15&#45;&gt;Node6 -->
<g id="edge23_Node000015_Node000006" class="edge">
<title>Node15&#45;&gt;Node6</title>
<g id="a_edge23_Node000015_Node000006"><a xlink:title=" ">
<path fill="none" stroke="#63b8ff" d="M868.74,-109.98C822.05,-100.28 746.04,-84.48 698.28,-74.56"/>
<polygon fill="#63b8ff" stroke="#63b8ff" points="698.75,-71.08 688.25,-72.47 697.33,-77.93 698.75,-71.08"/>
</a>
</g>
</g>
<!-- Node15&#45;&gt;Node7 -->
<g id="edge24_Node000015_Node000007" class="edge">
<title>Node15&#45;&gt;Node7</title>
<g id="a_edge24_Node000015_Node000007"><a xlink:title=" ">
<path fill="none" stroke="#63b8ff" d="M915.32,-109.71C924.94,-95.48 946.03,-67.72 971.71,-55 1022.11,-30.04 1176.89,-18.29 1266.91,-13.44"/>
<polygon fill="#63b8ff" stroke="#63b8ff" points="1267.22,-16.93 1277.02,-12.91 1266.85,-9.94 1267.22,-16.93"/>
</a>
</g>
</g>
<!-- Node16 -->
<g id="Node000016" class="node">
<title>Node16</title>
<g id="a_Node000016"><a xlink:href="IItemReceiver_8h.html" target="_top" xlink:title=" ">
<polygon fill="white" stroke="#666666" points="564.21,-74 453.21,-74 453.21,-55 564.21,-55 564.21,-74"/>
<text text-anchor="middle" x="508.71" y="-62" font-family="Helvetica,sans-Serif" font-size="10.00">api/IItemReceiver.h</text>
</a>
</g>
</g>
<!-- Node15&#45;&gt;Node16 -->
<g id="edge19_Node000015_Node000016" class="edge">
<title>Node15&#45;&gt;Node16</title>
<g id="a_edge19_Node000015_Node000016"><a xlink:title=" ">
<path fill="none" stroke="#63b8ff" d="M858.92,-111.79C786.57,-102.22 653.78,-84.67 574.14,-74.15"/>
<polygon fill="#63b8ff" stroke="#63b8ff" points="574.6,-70.68 564.22,-72.84 573.68,-77.62 574.6,-70.68"/>
</a>
</g>
</g>
<!-- Node17 -->
<g id="Node000017" class="node">
<title>Node17</title>
<g id="a_Node000017"><a xlink:href="IItemSender_8h.html" target="_top" xlink:title=" ">
<polygon fill="white" stroke="#666666" points="808.71,-74 706.71,-74 706.71,-55 808.71,-55 808.71,-74"/>
<text text-anchor="middle" x="757.71" y="-62" font-family="Helvetica,sans-Serif" font-size="10.00">api/IItemSender.h</text>
</a>
</g>
</g>
<!-- Node15&#45;&gt;Node17 -->
<g id="edge21_Node000015_Node000017" class="edge">
<title>Node15&#45;&gt;Node17</title>
<g id="a_edge21_Node000015_Node000017"><a xlink:title=" ">
<path fill="none" stroke="#63b8ff" d="M885.29,-109.98C859.99,-101.16 820.26,-87.31 791.85,-77.41"/>
<polygon fill="#63b8ff" stroke="#63b8ff" points="792.92,-74.07 782.32,-74.08 790.61,-80.68 792.92,-74.07"/>
</a>
</g>
</g>
<!-- Node18 -->
<g id="Node000018" class="node">
<title>Node18</title>
<g id="a_Node000018"><a xlink:title=" ">
<polygon fill="#e0e0e0" stroke="#999999" points="924.21,-74 827.21,-74 827.21,-55 924.21,-55 924.21,-74"/>
<text text-anchor="middle" x="875.71" y="-62" font-family="Helvetica,sans-Serif" font-size="10.00">freertos/queue.h</text>
</a>
</g>
</g>
<!-- Node15&#45;&gt;Node18 -->
<g id="edge25_Node000015_Node000018" class="edge">
<title>Node15&#45;&gt;Node18</title>
<g id="a_edge25_Node000015_Node000018"><a xlink:title=" ">
<path fill="none" stroke="#63b8ff" d="M904.1,-109.75C899.39,-102.42 892.54,-91.73 886.74,-82.7"/>
<polygon fill="#63b8ff" stroke="#63b8ff" points="889.57,-80.62 881.22,-74.09 883.67,-84.4 889.57,-80.62"/>
</a>
</g>
</g>
<!-- Node19 -->
<g id="Node000019" class="node">
<title>Node19</title>
<g id="a_Node000019"><a xlink:title=" ">
<polygon fill="#e0e0e0" stroke="#999999" points="1122.21,-74 1057.21,-74 1057.21,-55 1122.21,-55 1122.21,-74"/>
<text text-anchor="middle" x="1089.71" y="-62" font-family="Helvetica,sans-Serif" font-size="10.00">functional</text>
</a>
</g>
</g>
<!-- Node15&#45;&gt;Node19 -->
<g id="edge26_Node000015_Node000019" class="edge">
<title>Node15&#45;&gt;Node19</title>
<g id="a_edge26_Node000015_Node000019"><a xlink:title=" ">
<path fill="none" stroke="#63b8ff" d="M938.63,-109.98C968.98,-101.05 1016.88,-86.94 1050.59,-77.02"/>
<polygon fill="#63b8ff" stroke="#63b8ff" points="1051.96,-80.26 1060.56,-74.08 1049.98,-73.55 1051.96,-80.26"/>
</a>
</g>
</g>
<!-- Node16&#45;&gt;Node9 -->
<g id="edge20_Node000016_Node000009" class="edge">
<title>Node16&#45;&gt;Node9</title>
<g id="a_edge20_Node000016_Node000009"><a xlink:title=" ">
<path fill="none" stroke="#63b8ff" d="M508.71,-54.75C508.71,-47.8 508.71,-37.85 508.71,-29.13"/>
<polygon fill="#63b8ff" stroke="#63b8ff" points="512.21,-29.09 508.71,-19.09 505.21,-29.09 512.21,-29.09"/>
</a>
</g>
</g>
<!-- Node17&#45;&gt;Node9 -->
<g id="edge22_Node000017_Node000009" class="edge">
<title>Node17&#45;&gt;Node9</title>
<g id="a_edge22_Node000017_Node000009"><a xlink:title=" ">
<path fill="none" stroke="#63b8ff" d="M717.7,-54.98C669.62,-44.75 589.7,-27.74 543.88,-17.99"/>
<polygon fill="#63b8ff" stroke="#63b8ff" points="544.34,-14.5 533.83,-15.85 542.88,-21.35 544.34,-14.5"/>
</a>
</g>
</g>
<!-- Node20&#45;&gt;Node7 -->
<g id="edge31_Node000020_Node000007" class="edge">
<title>Node20&#45;&gt;Node7</title>
<g id="a_edge31_Node000020_Node000007"><a xlink:title=" ">
<path fill="none" stroke="#63b8ff" d="M1514.61,-109.74C1524.11,-96.53 1538.69,-71.33 1525.71,-55 1510.13,-35.39 1449.56,-23.65 1400.57,-17.2"/>
<polygon fill="#63b8ff" stroke="#63b8ff" points="1400.99,-13.73 1390.63,-15.94 1400.11,-20.67 1400.99,-13.73"/>
</a>
</g>
</g>
<!-- Node21 -->
<g id="Node000021" class="node">
<title>Node21</title>
<g id="a_Node000021"><a xlink:href="IMutex_8h.html" target="_top" xlink:title=" ">
<polygon fill="white" stroke="#666666" points="1516.21,-74 1439.21,-74 1439.21,-55 1516.21,-55 1516.21,-74"/>
<text text-anchor="middle" x="1477.71" y="-62" font-family="Helvetica,sans-Serif" font-size="10.00">api/IMutex.h</text>
</a>
</g>
</g>
<!-- Node20&#45;&gt;Node21 -->
<g id="edge29_Node000020_Node000021" class="edge">
<title>Node20&#45;&gt;Node21</title>
<g id="a_edge29_Node000020_Node000021"><a xlink:title=" ">
<path fill="none" stroke="#63b8ff" d="M1502.76,-109.75C1498.65,-102.49 1492.68,-91.95 1487.61,-82.98"/>
<polygon fill="#63b8ff" stroke="#63b8ff" points="1490.54,-81.07 1482.57,-74.09 1484.45,-84.52 1490.54,-81.07"/>
</a>
</g>
</g>
<!-- Node22 -->
<g id="Node000022" class="node">
<title>Node22</title>
<g id="a_Node000022"><a xlink:title=" ">
<polygon fill="#e0e0e0" stroke="#999999" points="1676.21,-74 1573.21,-74 1573.21,-55 1676.21,-55 1676.21,-74"/>
<text text-anchor="middle" x="1624.71" y="-62" font-family="Helvetica,sans-Serif" font-size="10.00">freertos/semphr.h</text>
</a>
</g>
</g>
<!-- Node20&#45;&gt;Node22 -->
<g id="edge32_Node000020_Node000022" class="edge">
<title>Node20&#45;&gt;Node22</title>
<g id="a_edge32_Node000020_Node000022"><a xlink:title=" ">
<path fill="none" stroke="#63b8ff" d="M1526.51,-109.98C1545.33,-101.46 1574.53,-88.23 1596.21,-78.41"/>
<polygon fill="#63b8ff" stroke="#63b8ff" points="1597.91,-81.48 1605.57,-74.17 1595.02,-75.11 1597.91,-81.48"/>
</a>
</g>
</g>
<!-- Node21&#45;&gt;Node9 -->
<g id="edge30_Node000021_Node000009" class="edge">
<title>Node21&#45;&gt;Node9</title>
<g id="a_edge30_Node000021_Node000009"><a xlink:title=" ">
<path fill="none" stroke="#63b8ff" d="M1438.79,-59.25C1424.05,-57.75 1407.12,-56.15 1391.71,-55 1062.6,-30.46 663.44,-15.75 544.06,-11.67"/>
<polygon fill="#63b8ff" stroke="#63b8ff" points="544.14,-8.17 534.03,-11.33 543.9,-15.17 544.14,-8.17"/>
</a>
</g>
</g>
<!-- Node23&#45;&gt;Node7 -->
<g id="edge36_Node000023_Node000007" class="edge">
<title>Node23&#45;&gt;Node7</title>
<g id="a_edge36_Node000023_Node000007"><a xlink:title=" ">
<path fill="none" stroke="#63b8ff" d="M1725.3,-111.99C1770.22,-103.15 1832.94,-84.91 1805.71,-55 1778.97,-25.62 1524.09,-15.24 1400.4,-11.92"/>
<polygon fill="#63b8ff" stroke="#63b8ff" points="1400.38,-8.42 1390.29,-11.65 1400.19,-15.41 1400.38,-8.42"/>
</a>
</g>
</g>
<!-- Node23&#45;&gt;Node22 -->
<g id="edge37_Node000023_Node000022" class="edge">
<title>Node23&#45;&gt;Node22</title>
<g id="a_edge37_Node000023_Node000022"><a xlink:title=" ">
<path fill="none" stroke="#63b8ff" d="M1675.07,-109.98C1666.2,-102.15 1652.84,-90.34 1642.1,-80.86"/>
<polygon fill="#63b8ff" stroke="#63b8ff" points="1644.34,-78.17 1634.53,-74.17 1639.7,-83.41 1644.34,-78.17"/>
</a>
</g>
</g>
<!-- Node24 -->
<g id="Node000024" class="node">
<title>Node24</title>
<g id="a_Node000024"><a xlink:href="ISemaphore_8h.html" target="_top" xlink:title=" ">
<polygon fill="white" stroke="#666666" points="1796.71,-74 1694.71,-74 1694.71,-55 1796.71,-55 1796.71,-74"/>
<text text-anchor="middle" x="1745.71" y="-62" font-family="Helvetica,sans-Serif" font-size="10.00">api/ISemaphore.h</text>
</a>
</g>
</g>
<!-- Node23&#45;&gt;Node24 -->
<g id="edge34_Node000023_Node000024" class="edge">
<title>Node23&#45;&gt;Node24</title>
<g id="a_edge34_Node000023_Node000024"><a xlink:title=" ">
<path fill="none" stroke="#63b8ff" d="M1694.51,-109.98C1703.53,-102.15 1717.12,-90.34 1728.03,-80.86"/>
<polygon fill="#63b8ff" stroke="#63b8ff" points="1730.48,-83.37 1735.73,-74.17 1725.89,-78.09 1730.48,-83.37"/>
</a>
</g>
</g>
<!-- Node24&#45;&gt;Node9 -->
<g id="edge35_Node000024_Node000009" class="edge">
<title>Node24&#45;&gt;Node9</title>
<g id="a_edge35_Node000024_Node000009"><a xlink:title=" ">
<path fill="none" stroke="#63b8ff" d="M1694.69,-55.91C1691.65,-55.57 1688.64,-55.26 1685.71,-55 1236.6,-14.81 687.93,-10.84 544.41,-10.51"/>
<polygon fill="#63b8ff" stroke="#63b8ff" points="544.04,-7.01 534.03,-10.49 544.03,-14.01 544.04,-7.01"/>
</a>
</g>
</g>
<!-- Node25&#45;&gt;Node3 -->
<g id="edge42_Node000025_Node000003" class="edge">
<title>Node25&#45;&gt;Node3</title>
<g id="a_edge42_Node000025_Node000003"><a xlink:title=" ">
<path fill="none" stroke="#63b8ff" d="M1076.86,-109.98C1064.57,-101.84 1045.8,-89.41 1031.23,-79.76"/>
<polygon fill="#63b8ff" stroke="#63b8ff" points="1033.07,-76.78 1022.8,-74.17 1029.2,-82.61 1033.07,-76.78"/>
</a>
</g>
</g>
<!-- Node25&#45;&gt;Node7 -->
<g id="edge39_Node000025_Node000007" class="edge">
<title>Node25&#45;&gt;Node7</title>
<g id="a_edge39_Node000025_Node000007"><a xlink:title=" ">
<path fill="none" stroke="#63b8ff" d="M1113.23,-112.33C1149.04,-102.78 1215.42,-84.45 1237.71,-74 1266.45,-60.53 1296.49,-39.33 1315.14,-25.18"/>
<polygon fill="#63b8ff" stroke="#63b8ff" points="1317.32,-27.92 1323.1,-19.04 1313.04,-22.37 1317.32,-27.92"/>
</a>
</g>
</g>
<!-- Node25&#45;&gt;Node19 -->
<g id="edge41_Node000025_Node000019" class="edge">
<title>Node25&#45;&gt;Node19</title>
<g id="a_edge41_Node000025_Node000019"><a xlink:title=" ">
<path fill="none" stroke="#63b8ff" d="M1089.71,-109.75C1089.71,-102.8 1089.71,-92.85 1089.71,-84.13"/>
<polygon fill="#63b8ff" stroke="#63b8ff" points="1093.21,-84.09 1089.71,-74.09 1086.21,-84.09 1093.21,-84.09"/>
</a>
</g>
</g>
<!-- Node26 -->
<g id="Node000026" class="node">
<title>Node26</title>
<g id="a_Node000026"><a xlink:title=" ">
<polygon fill="#e0e0e0" stroke="#999999" points="1228.71,-74 1140.71,-74 1140.71,-55 1228.71,-55 1228.71,-74"/>
<text text-anchor="middle" x="1184.71" y="-62" font-family="Helvetica,sans-Serif" font-size="10.00">freertos/task.h</text>
</a>
</g>
</g>
<!-- Node25&#45;&gt;Node26 -->
<g id="edge40_Node000025_Node000026" class="edge">
<title>Node25&#45;&gt;Node26</title>
<g id="a_edge40_Node000025_Node000026"><a xlink:title=" ">
<path fill="none" stroke="#63b8ff" d="M1104.97,-109.98C1119.84,-101.69 1142.69,-88.94 1160.13,-79.22"/>
<polygon fill="#63b8ff" stroke="#63b8ff" points="1162.14,-82.1 1169.17,-74.17 1158.73,-75.99 1162.14,-82.1"/>
</a>
</g>
</g>
<!-- Node27&#45;&gt;Node3 -->
<g id="edge47_Node000027_Node000003" class="edge">
<title>Node27&#45;&gt;Node3</title>
<g id="a_edge47_Node000027_Node000003"><a xlink:title=" ">
<path fill="none" stroke="#63b8ff" d="M1133.93,-109.98C1109.48,-101.23 1071.18,-87.51 1043.56,-77.62"/>
<polygon fill="#63b8ff" stroke="#63b8ff" points="1044.52,-74.25 1033.92,-74.17 1042.16,-80.84 1044.52,-74.25"/>
</a>
</g>
</g>
<!-- Node27&#45;&gt;Node7 -->
<g id="edge44_Node000027_Node000007" class="edge">
<title>Node27&#45;&gt;Node7</title>
<g id="a_edge44_Node000027_Node000007"><a xlink:title=" ">
<path fill="none" stroke="#63b8ff" d="M1184.28,-117.54C1239.9,-114.91 1365.61,-105.54 1391.71,-74 1406.46,-56.19 1382.13,-36.69 1360.61,-24.06"/>
<polygon fill="#63b8ff" stroke="#63b8ff" points="1362.13,-20.9 1351.69,-19.09 1358.72,-27.01 1362.13,-20.9"/>
</a>
</g>
</g>
<!-- Node27&#45;&gt;Node19 -->
<g id="edge46_Node000027_Node000019" class="edge">
<title>Node27&#45;&gt;Node19</title>
<g id="a_edge46_Node000027_Node000019"><a xlink:title=" ">
<path fill="none" stroke="#63b8ff" d="M1146.78,-109.98C1136.63,-102.07 1121.29,-90.11 1109.06,-80.58"/>
<polygon fill="#63b8ff" stroke="#63b8ff" points="1110.87,-77.56 1100.83,-74.17 1106.57,-83.08 1110.87,-77.56"/>
</a>
</g>
</g>
<!-- Node28 -->
<g id="Node000028" class="node">
<title>Node28</title>
<g id="a_Node000028"><a xlink:title=" ">
<polygon fill="#e0e0e0" stroke="#999999" points="1382.71,-74 1284.71,-74 1284.71,-55 1382.71,-55 1382.71,-74"/>
<text text-anchor="middle" x="1333.71" y="-62" font-family="Helvetica,sans-Serif" font-size="10.00">freertos/timers.h</text>
</a>
</g>
</g>
<!-- Node27&#45;&gt;Node28 -->
<g id="edge45_Node000027_Node000028" class="edge">
<title>Node27&#45;&gt;Node28</title>
<g id="a_edge45_Node000027_Node000028"><a xlink:title=" ">
<path fill="none" stroke="#63b8ff" d="M1184.44,-110.45C1213.98,-101.55 1261.82,-87.15 1295.35,-77.05"/>
<polygon fill="#63b8ff" stroke="#63b8ff" points="1296.7,-80.3 1305.27,-74.07 1294.68,-73.6 1296.7,-80.3"/>
</a>
</g>
</g>
</g>
</svg>
