<?xml version="1.0" encoding="UTF-8" standalone="no"?>
<!DOCTYPE svg PUBLIC "-//W3C//DTD SVG 1.1//EN"
 "http://www.w3.org/Graphics/SVG/1.1/DTD/svg11.dtd">
<!-- Generated by graphviz version 2.43.0 (0)
 -->
<!-- Title: components/rtos_cpp/include/MessageQueue.h Pages: 1 -->
<svg width="639pt" height="148pt"
 viewBox="0.00 0.00 638.50 148.00" xmlns="http://www.w3.org/2000/svg" xmlns:xlink="http://www.w3.org/1999/xlink">
<g id="graph0" class="graph" transform="scale(1 1) rotate(0) translate(4 144)">
<title>components/rtos_cpp/include/MessageQueue.h</title>
<!-- Node1 -->
<g id="Node000001" class="node">
<title>Node1</title>
<g id="a_Node000001"><a xlink:title=" ">
<polygon fill="#999999" stroke="#666666" points="416.5,-140 274.5,-140 274.5,-110 416.5,-110 416.5,-140"/>
<text text-anchor="start" x="282.5" y="-128" font-family="Helvetica,sans-Serif" font-size="10.00">components/rtos_cpp</text>
<text text-anchor="middle" x="345.5" y="-117" font-family="Helvetica,sans-Serif" font-size="10.00">/include/MessageQueue.h</text>
</a>
</g>
</g>
<!-- Node2 -->
<g id="Node000002" class="node">
<title>Node2</title>
<g id="a_Node000002"><a xlink:href="IItemReceiver_8h.html" target="_top" xlink:title=" ">
<polygon fill="white" stroke="#666666" points="111,-74 0,-74 0,-55 111,-55 111,-74"/>
<text text-anchor="middle" x="55.5" y="-62" font-family="Helvetica,sans-Serif" font-size="10.00">api/IItemReceiver.h</text>
</a>
</g>
</g>
<!-- Node1&#45;&gt;Node2 -->
<g id="edge1_Node000001_Node000002" class="edge">
<title>Node1&#45;&gt;Node2</title>
<g id="a_edge1_Node000001_Node000002"><a xlink:title=" ">
<path fill="none" stroke="#63b8ff" d="M276.04,-109.99C224.36,-99.56 154.94,-85.56 107.88,-76.07"/>
<polygon fill="#63b8ff" stroke="#63b8ff" points="108.4,-72.6 97.9,-74.05 107.01,-79.46 108.4,-72.6"/>
</a>
</g>
</g>
<!-- Node4 -->
<g id="Node000004" class="node">
<title>Node4</title>
<g id="a_Node000004"><a xlink:href="IItemSender_8h.html" target="_top" xlink:title=" ">
<polygon fill="white" stroke="#666666" points="231.5,-74 129.5,-74 129.5,-55 231.5,-55 231.5,-74"/>
<text text-anchor="middle" x="180.5" y="-62" font-family="Helvetica,sans-Serif" font-size="10.00">api/IItemSender.h</text>
</a>
</g>
</g>
<!-- Node1&#45;&gt;Node4 -->
<g id="edge3_Node000001_Node000004" class="edge">
<title>Node1&#45;&gt;Node4</title>
<g id="a_edge3_Node000001_Node000004"><a xlink:title=" ">
<path fill="none" stroke="#63b8ff" d="M305.98,-109.99C278.08,-100.1 241.09,-86.98 214.5,-77.56"/>
<polygon fill="#63b8ff" stroke="#63b8ff" points="215.46,-74.18 204.87,-74.14 213.12,-80.78 215.46,-74.18"/>
</a>
</g>
</g>
<!-- Node5 -->
<g id="Node000005" class="node">
<title>Node5</title>
<g id="a_Node000005"><a xlink:href="Core_8h.html" target="_top" xlink:title=" ">
<polygon fill="white" stroke="#666666" points="317,-74 250,-74 250,-55 317,-55 317,-74"/>
<text text-anchor="middle" x="283.5" y="-62" font-family="Helvetica,sans-Serif" font-size="10.00">util/Core.h</text>
</a>
</g>
</g>
<!-- Node1&#45;&gt;Node5 -->
<g id="edge5_Node000001_Node000005" class="edge">
<title>Node1&#45;&gt;Node5</title>
<g id="a_edge5_Node000001_Node000005"><a xlink:title=" ">
<path fill="none" stroke="#63b8ff" d="M330.49,-109.84C321.31,-101.17 309.55,-90.08 300.09,-81.15"/>
<polygon fill="#63b8ff" stroke="#63b8ff" points="302.47,-78.58 292.79,-74.27 297.66,-83.67 302.47,-78.58"/>
</a>
</g>
</g>
<!-- Node6 -->
<g id="Node000006" class="node">
<title>Node6</title>
<g id="a_Node000006"><a xlink:title=" ">
<polygon fill="#e0e0e0" stroke="#999999" points="371,-19 258,-19 258,0 371,0 371,-19"/>
<text text-anchor="middle" x="314.5" y="-7" font-family="Helvetica,sans-Serif" font-size="10.00">freertos/FreeRTOS.h</text>
</a>
</g>
</g>
<!-- Node1&#45;&gt;Node6 -->
<g id="edge7_Node000001_Node000006" class="edge">
<title>Node1&#45;&gt;Node6</title>
<g id="a_edge7_Node000001_Node000006"><a xlink:title=" ">
<path fill="none" stroke="#63b8ff" d="M341.57,-109.63C335.97,-89.12 325.69,-51.47 319.54,-28.93"/>
<polygon fill="#63b8ff" stroke="#63b8ff" points="322.9,-27.95 316.88,-19.23 316.14,-29.8 322.9,-27.95"/>
</a>
</g>
</g>
<!-- Node7 -->
<g id="Node000007" class="node">
<title>Node7</title>
<g id="a_Node000007"><a xlink:title=" ">
<polygon fill="#e0e0e0" stroke="#999999" points="471,-74 374,-74 374,-55 471,-55 471,-74"/>
<text text-anchor="middle" x="422.5" y="-62" font-family="Helvetica,sans-Serif" font-size="10.00">freertos/queue.h</text>
</a>
</g>
</g>
<!-- Node1&#45;&gt;Node7 -->
<g id="edge8_Node000001_Node000007" class="edge">
<title>Node1&#45;&gt;Node7</title>
<g id="a_edge8_Node000001_Node000007"><a xlink:title=" ">
<path fill="none" stroke="#63b8ff" d="M364.14,-109.84C375.89,-100.91 391.03,-89.41 402.95,-80.35"/>
<polygon fill="#63b8ff" stroke="#63b8ff" points="405.12,-83.1 410.96,-74.27 400.88,-77.53 405.12,-83.1"/>
</a>
</g>
</g>
<!-- Node8 -->
<g id="Node000008" class="node">
<title>Node8</title>
<g id="a_Node000008"><a xlink:title=" ">
<polygon fill="#e0e0e0" stroke="#999999" points="554,-74 489,-74 489,-55 554,-55 554,-74"/>
<text text-anchor="middle" x="521.5" y="-62" font-family="Helvetica,sans-Serif" font-size="10.00">functional</text>
</a>
</g>
</g>
<!-- Node1&#45;&gt;Node8 -->
<g id="edge9_Node000001_Node000008" class="edge">
<title>Node1&#45;&gt;Node8</title>
<g id="a_edge9_Node000001_Node000008"><a xlink:title=" ">
<path fill="none" stroke="#63b8ff" d="M387.66,-109.99C417.77,-99.98 457.81,-86.67 486.23,-77.22"/>
<polygon fill="#63b8ff" stroke="#63b8ff" points="487.38,-80.53 495.77,-74.05 485.17,-73.89 487.38,-80.53"/>
</a>
</g>
</g>
<!-- Node9 -->
<g id="Node000009" class="node">
<title>Node9</title>
<g id="a_Node000009"><a xlink:title=" ">
<polygon fill="#e0e0e0" stroke="#999999" points="630.5,-74 572.5,-74 572.5,-55 630.5,-55 630.5,-74"/>
<text text-anchor="middle" x="601.5" y="-62" font-family="Helvetica,sans-Serif" font-size="10.00">memory</text>
</a>
</g>
</g>
<!-- Node1&#45;&gt;Node9 -->
<g id="edge10_Node000001_Node000009" class="edge">
<title>Node1&#45;&gt;Node9</title>
<g id="a_edge10_Node000001_Node000009"><a xlink:title=" ">
<path fill="none" stroke="#63b8ff" d="M406.82,-109.99C455.09,-98.96 520.92,-83.91 562.31,-74.46"/>
<polygon fill="#63b8ff" stroke="#63b8ff" points="563.31,-77.82 572.28,-72.18 561.76,-70.99 563.31,-77.82"/>
</a>
</g>
</g>
<!-- Node3 -->
<g id="Node000003" class="node">
<title>Node3</title>
<g id="a_Node000003"><a xlink:title=" ">
<polygon fill="#e0e0e0" stroke="#999999" points="143.5,-19 93.5,-19 93.5,0 143.5,0 143.5,-19"/>
<text text-anchor="middle" x="118.5" y="-7" font-family="Helvetica,sans-Serif" font-size="10.00">cstdint</text>
</a>
</g>
</g>
<!-- Node2&#45;&gt;Node3 -->
<g id="edge2_Node000002_Node000003" class="edge">
<title>Node2&#45;&gt;Node3</title>
<g id="a_edge2_Node000002_Node000003"><a xlink:title=" ">
<path fill="none" stroke="#63b8ff" d="M65.62,-54.98C74.94,-47.15 88.97,-35.34 100.24,-25.86"/>
<polygon fill="#63b8ff" stroke="#63b8ff" points="102.79,-28.29 108.19,-19.17 98.29,-22.93 102.79,-28.29"/>
</a>
</g>
</g>
<!-- Node4&#45;&gt;Node3 -->
<g id="edge4_Node000004_Node000003" class="edge">
<title>Node4&#45;&gt;Node3</title>
<g id="a_edge4_Node000004_Node000003"><a xlink:title=" ">
<path fill="none" stroke="#63b8ff" d="M170.54,-54.98C161.37,-47.15 147.56,-35.34 136.47,-25.86"/>
<polygon fill="#63b8ff" stroke="#63b8ff" points="138.52,-23.01 128.64,-19.17 133.97,-28.33 138.52,-23.01"/>
</a>
</g>
</g>
<!-- Node5&#45;&gt;Node6 -->
<g id="edge6_Node000005_Node000006" class="edge">
<title>Node5&#45;&gt;Node6</title>
<g id="a_edge6_Node000005_Node000006"><a xlink:title=" ">
<path fill="none" stroke="#63b8ff" d="M288.62,-54.75C292.86,-47.49 299.03,-36.95 304.28,-27.98"/>
<polygon fill="#63b8ff" stroke="#63b8ff" points="307.45,-29.49 309.48,-19.09 301.41,-25.95 307.45,-29.49"/>
</a>
</g>
</g>
</g>
</svg>
