<?xml version="1.0" encoding="UTF-8" standalone="no"?>
<!DOCTYPE svg PUBLIC "-//W3C//DTD SVG 1.1//EN"
 "http://www.w3.org/Graphics/SVG/1.1/DTD/svg11.dtd">
<!-- Generated by graphviz version 2.43.0 (0)
 -->
<!-- Title: components/rtos_cpp/src/Mutex.cpp Pages: 1 -->
<svg width="1870pt" height="258pt"
 viewBox="0.00 0.00 1869.57 258.00" xmlns="http://www.w3.org/2000/svg" xmlns:xlink="http://www.w3.org/1999/xlink">
<g id="graph0" class="graph" transform="scale(1 1) rotate(0) translate(4 254)">
<title>components/rtos_cpp/src/Mutex.cpp</title>
<!-- Node1 -->
<g id="Node000001" class="node">
<title>Node1</title>
<g id="a_Node000001"><a xlink:title=" ">
<polygon fill="#999999" stroke="#666666" points="1041,-250 920,-250 920,-220 1041,-220 1041,-250"/>
<text text-anchor="start" x="928" y="-238" font-family="Helvetica,sans-Serif" font-size="10.00">components/rtos_cpp</text>
<text text-anchor="middle" x="980.5" y="-227" font-family="Helvetica,sans-Serif" font-size="10.00">/src/Mutex.cpp</text>
</a>
</g>
</g>
<!-- Node2 -->
<g id="Node000002" class="node">
<title>Node2</title>
<g id="a_Node000002"><a xlink:href="rtos_8h.html" target="_top" xlink:title=" ">
<polygon fill="white" stroke="#666666" points="1027.5,-184 983.5,-184 983.5,-165 1027.5,-165 1027.5,-184"/>
<text text-anchor="middle" x="1005.5" y="-172" font-family="Helvetica,sans-Serif" font-size="10.00">rtos.h</text>
</a>
</g>
</g>
<!-- Node1&#45;&gt;Node2 -->
<g id="edge1_Node000001_Node000002" class="edge">
<title>Node1&#45;&gt;Node2</title>
<g id="a_edge1_Node000001_Node000002"><a xlink:title=" ">
<path fill="none" stroke="#63b8ff" d="M986.55,-219.84C989.92,-211.95 994.15,-202.05 997.76,-193.61"/>
<polygon fill="#63b8ff" stroke="#63b8ff" points="1001.04,-194.84 1001.75,-184.27 994.61,-192.09 1001.04,-194.84"/>
</a>
</g>
</g>
<!-- Node4 -->
<g id="Node000004" class="node">
<title>Node4</title>
<g id="a_Node000004"><a xlink:href="Core_8h.html" target="_top" xlink:title=" ">
<polygon fill="white" stroke="#666666" points="1007,-74 940,-74 940,-55 1007,-55 1007,-74"/>
<text text-anchor="middle" x="973.5" y="-62" font-family="Helvetica,sans-Serif" font-size="10.00">util/Core.h</text>
</a>
</g>
</g>
<!-- Node1&#45;&gt;Node4 -->
<g id="edge49_Node000001_Node000004" class="edge">
<title>Node1&#45;&gt;Node4</title>
<g id="a_edge49_Node000001_Node000004"><a xlink:title=" ">
<path fill="none" stroke="#63b8ff" d="M978.34,-219.6C976.95,-209.63 975.27,-196.04 974.5,-184 972.25,-148.87 972.56,-107.77 973.01,-84.37"/>
<polygon fill="#63b8ff" stroke="#63b8ff" points="976.52,-84.21 973.25,-74.14 969.52,-84.05 976.52,-84.21"/>
</a>
</g>
</g>
<!-- Node19 -->
<g id="Node000019" class="node">
<title>Node19</title>
<g id="a_Node000019"><a xlink:href="Mutex_8h.html" target="_top" xlink:title=" ">
<polygon fill="white" stroke="#666666" points="739.5,-129 683.5,-129 683.5,-110 739.5,-110 739.5,-129"/>
<text text-anchor="middle" x="711.5" y="-117" font-family="Helvetica,sans-Serif" font-size="10.00">Mutex.h</text>
</a>
</g>
</g>
<!-- Node1&#45;&gt;Node19 -->
<g id="edge48_Node000001_Node000019" class="edge">
<title>Node1&#45;&gt;Node19</title>
<g id="a_edge48_Node000001_Node000019"><a xlink:title=" ">
<path fill="none" stroke="#63b8ff" d="M947.25,-219.97C894.4,-197.67 792.06,-154.49 741.4,-133.12"/>
<polygon fill="#63b8ff" stroke="#63b8ff" points="742.56,-129.81 731.99,-129.14 739.84,-136.26 742.56,-129.81"/>
</a>
</g>
</g>
<!-- Node28 -->
<g id="Node000028" class="node">
<title>Node28</title>
<g id="a_Node000028"><a xlink:title=" ">
<polygon fill="#e0e0e0" stroke="#999999" points="1101.5,-184 1045.5,-184 1045.5,-165 1101.5,-165 1101.5,-184"/>
<text text-anchor="middle" x="1073.5" y="-172" font-family="Helvetica,sans-Serif" font-size="10.00">assert.h</text>
</a>
</g>
</g>
<!-- Node1&#45;&gt;Node28 -->
<g id="edge50_Node000001_Node000028" class="edge">
<title>Node1&#45;&gt;Node28</title>
<g id="a_edge50_Node000001_Node000028"><a xlink:title=" ">
<path fill="none" stroke="#63b8ff" d="M1003.01,-219.84C1017.56,-210.68 1036.43,-198.82 1050.99,-189.66"/>
<polygon fill="#63b8ff" stroke="#63b8ff" points="1053.24,-192.38 1059.84,-184.09 1049.51,-186.46 1053.24,-192.38"/>
</a>
</g>
</g>
<!-- Node3 -->
<g id="Node000003" class="node">
<title>Node3</title>
<g id="a_Node000003"><a xlink:href="EventFlags_8h.html" target="_top" xlink:title=" ">
<polygon fill="white" stroke="#666666" points="428.5,-129 348.5,-129 348.5,-110 428.5,-110 428.5,-129"/>
<text text-anchor="middle" x="388.5" y="-117" font-family="Helvetica,sans-Serif" font-size="10.00">EventFlags.h</text>
</a>
</g>
</g>
<!-- Node2&#45;&gt;Node3 -->
<g id="edge2_Node000002_Node000003" class="edge">
<title>Node2&#45;&gt;Node3</title>
<g id="a_edge2_Node000002_Node000003"><a xlink:title=" ">
<path fill="none" stroke="#63b8ff" d="M983.18,-171.58C894.5,-163.96 565.81,-135.73 438.93,-124.83"/>
<polygon fill="#63b8ff" stroke="#63b8ff" points="438.98,-121.32 428.71,-123.95 438.38,-128.3 438.98,-121.32"/>
</a>
</g>
</g>
<!-- Node5 -->
<g id="Node000005" class="node">
<title>Node5</title>
<g id="a_Node000005"><a xlink:title=" ">
<polygon fill="#e0e0e0" stroke="#999999" points="1243,-19 1130,-19 1130,0 1243,0 1243,-19"/>
<text text-anchor="middle" x="1186.5" y="-7" font-family="Helvetica,sans-Serif" font-size="10.00">freertos/FreeRTOS.h</text>
</a>
</g>
</g>
<!-- Node2&#45;&gt;Node5 -->
<g id="edge46_Node000002_Node000005" class="edge">
<title>Node2&#45;&gt;Node5</title>
<g id="a_edge46_Node000002_Node000005"><a xlink:title=" ">
<path fill="none" stroke="#63b8ff" d="M1027.73,-166.79C1030.66,-166.09 1033.64,-165.46 1036.5,-165 1335.71,-116.65 1421.3,-193.24 1717.5,-129 1782.83,-114.83 1819.85,-129.24 1857.5,-74 1862.26,-67.02 1863.27,-61.17 1857.5,-55 1816.83,-11.55 1415.28,-9.08 1253.51,-9.88"/>
<polygon fill="#63b8ff" stroke="#63b8ff" points="1253.19,-6.38 1243.21,-9.94 1253.23,-13.38 1253.19,-6.38"/>
</a>
</g>
</g>
<!-- Node7 -->
<g id="Node000007" class="node">
<title>Node7</title>
<g id="a_Node000007"><a xlink:title=" ">
<polygon fill="#e0e0e0" stroke="#999999" points="589.5,-19 539.5,-19 539.5,0 589.5,0 589.5,-19"/>
<text text-anchor="middle" x="564.5" y="-7" font-family="Helvetica,sans-Serif" font-size="10.00">cstdint</text>
</a>
</g>
</g>
<!-- Node2&#45;&gt;Node7 -->
<g id="edge47_Node000002_Node000007" class="edge">
<title>Node2&#45;&gt;Node7</title>
<g id="a_edge47_Node000002_Node000007"><a xlink:title=" ">
<path fill="none" stroke="#63b8ff" d="M983.33,-173.54C882.01,-173.47 462.73,-170.65 339.5,-129 297.58,-114.83 277.44,-112.99 256.5,-74 252.51,-66.56 250.97,-61.38 256.5,-55 291.47,-14.61 456.23,-10.07 529.38,-10.09"/>
<polygon fill="#63b8ff" stroke="#63b8ff" points="529.46,-13.59 539.48,-10.12 529.49,-6.59 529.46,-13.59"/>
</a>
</g>
</g>
<!-- Node13 -->
<g id="Node000013" class="node">
<title>Node13</title>
<g id="a_Node000013"><a xlink:href="MessageQueue_8h.html" target="_top" xlink:title=" ">
<polygon fill="white" stroke="#666666" points="1315,-129 1214,-129 1214,-110 1315,-110 1315,-129"/>
<text text-anchor="middle" x="1264.5" y="-117" font-family="Helvetica,sans-Serif" font-size="10.00">MessageQueue.h</text>
</a>
</g>
</g>
<!-- Node2&#45;&gt;Node13 -->
<g id="edge16_Node000002_Node000013" class="edge">
<title>Node2&#45;&gt;Node13</title>
<g id="a_edge16_Node000002_Node000013"><a xlink:title=" ">
<path fill="none" stroke="#63b8ff" d="M1027.8,-167.17C1030.72,-166.41 1033.67,-165.66 1036.5,-165 1093.27,-151.7 1158.63,-139.23 1204.78,-130.89"/>
<polygon fill="#63b8ff" stroke="#63b8ff" points="1205.68,-134.29 1214.9,-129.07 1204.44,-127.4 1205.68,-134.29"/>
</a>
</g>
</g>
<!-- Node2&#45;&gt;Node19 -->
<g id="edge26_Node000002_Node000019" class="edge">
<title>Node2&#45;&gt;Node19</title>
<g id="a_edge26_Node000002_Node000019"><a xlink:title=" ">
<path fill="none" stroke="#63b8ff" d="M983.4,-169.52C933.66,-160.55 812.4,-138.69 750,-127.44"/>
<polygon fill="#63b8ff" stroke="#63b8ff" points="750.25,-123.93 739.79,-125.6 749.01,-130.82 750.25,-123.93"/>
</a>
</g>
</g>
<!-- Node22 -->
<g id="Node000022" class="node">
<title>Node22</title>
<g id="a_Node000022"><a xlink:href="Semaphore_8h.html" target="_top" xlink:title=" ">
<polygon fill="white" stroke="#666666" points="891,-129 810,-129 810,-110 891,-110 891,-129"/>
<text text-anchor="middle" x="850.5" y="-117" font-family="Helvetica,sans-Serif" font-size="10.00">Semaphore.h</text>
</a>
</g>
</g>
<!-- Node2&#45;&gt;Node22 -->
<g id="edge31_Node000002_Node000022" class="edge">
<title>Node2&#45;&gt;Node22</title>
<g id="a_edge31_Node000002_Node000022"><a xlink:title=" ">
<path fill="none" stroke="#63b8ff" d="M983.29,-165.91C957.65,-157.14 915.15,-142.6 885.14,-132.35"/>
<polygon fill="#63b8ff" stroke="#63b8ff" points="886.09,-128.97 875.49,-129.05 883.82,-135.59 886.09,-128.97"/>
</a>
</g>
</g>
<!-- Node24 -->
<g id="Node000024" class="node">
<title>Node24</title>
<g id="a_Node000024"><a xlink:href="Task_8h.html" target="_top" xlink:title=" ">
<polygon fill="white" stroke="#666666" points="1572,-129 1525,-129 1525,-110 1572,-110 1572,-129"/>
<text text-anchor="middle" x="1548.5" y="-117" font-family="Helvetica,sans-Serif" font-size="10.00">Task.h</text>
</a>
</g>
</g>
<!-- Node2&#45;&gt;Node24 -->
<g id="edge36_Node000002_Node000024" class="edge">
<title>Node2&#45;&gt;Node24</title>
<g id="a_edge36_Node000002_Node000024"><a xlink:title=" ">
<path fill="none" stroke="#63b8ff" d="M1027.74,-166.88C1030.67,-166.17 1033.64,-165.51 1036.5,-165 1214.88,-133.06 1432.48,-123.79 1514.8,-121.32"/>
<polygon fill="#63b8ff" stroke="#63b8ff" points="1514.93,-124.82 1524.83,-121.04 1514.73,-117.82 1514.93,-124.82"/>
</a>
</g>
</g>
<!-- Node26 -->
<g id="Node000026" class="node">
<title>Node26</title>
<g id="a_Node000026"><a xlink:href="Timer_8h.html" target="_top" xlink:title=" ">
<polygon fill="white" stroke="#666666" points="1708,-129 1655,-129 1655,-110 1708,-110 1708,-129"/>
<text text-anchor="middle" x="1681.5" y="-117" font-family="Helvetica,sans-Serif" font-size="10.00">Timer.h</text>
</a>
</g>
</g>
<!-- Node2&#45;&gt;Node26 -->
<g id="edge41_Node000002_Node000026" class="edge">
<title>Node2&#45;&gt;Node26</title>
<g id="a_edge41_Node000002_Node000026"><a xlink:title=" ">
<path fill="none" stroke="#63b8ff" d="M1027.73,-166.83C1030.66,-166.12 1033.64,-165.48 1036.5,-165 1275.88,-124.7 1339.44,-147.28 1581.5,-129 1602.46,-127.42 1625.88,-125.44 1644.78,-123.79"/>
<polygon fill="#63b8ff" stroke="#63b8ff" points="1645.12,-127.27 1654.77,-122.91 1644.5,-120.3 1645.12,-127.27"/>
</a>
</g>
</g>
<!-- Node3&#45;&gt;Node4 -->
<g id="edge3_Node000003_Node000004" class="edge">
<title>Node3&#45;&gt;Node4</title>
<g id="a_edge3_Node000003_Node000004"><a xlink:title=" ">
<path fill="none" stroke="#63b8ff" d="M428.7,-115.18C514.13,-108.07 720.04,-90.66 892.5,-74 904.47,-72.84 917.44,-71.52 929.41,-70.26"/>
<polygon fill="#63b8ff" stroke="#63b8ff" points="930.04,-73.71 939.62,-69.18 929.31,-66.75 930.04,-73.71"/>
</a>
</g>
</g>
<!-- Node3&#45;&gt;Node5 -->
<g id="edge12_Node000003_Node000005" class="edge">
<title>Node3&#45;&gt;Node5</title>
<g id="a_edge12_Node000003_Node000005"><a xlink:title=" ">
<path fill="none" stroke="#63b8ff" d="M405.76,-109.99C423.89,-101.05 453.22,-86.57 478.5,-74 495.41,-65.59 498.28,-59.95 516.5,-55 628.77,-24.53 973.22,-14.52 1119.59,-11.59"/>
<polygon fill="#63b8ff" stroke="#63b8ff" points="1119.85,-15.09 1129.78,-11.39 1119.71,-8.09 1119.85,-15.09"/>
</a>
</g>
</g>
<!-- Node6 -->
<g id="Node000006" class="node">
<title>Node6</title>
<g id="a_Node000006"><a xlink:href="Flags_8h.html" target="_top" xlink:title=" ">
<polygon fill="white" stroke="#666666" points="119,-74 48,-74 48,-55 119,-55 119,-74"/>
<text text-anchor="middle" x="83.5" y="-62" font-family="Helvetica,sans-Serif" font-size="10.00">util/Flags.h</text>
</a>
</g>
</g>
<!-- Node3&#45;&gt;Node6 -->
<g id="edge5_Node000003_Node000006" class="edge">
<title>Node3&#45;&gt;Node6</title>
<g id="a_edge5_Node000003_Node000006"><a xlink:title=" ">
<path fill="none" stroke="#63b8ff" d="M348.38,-111.85C299.22,-103.66 213.12,-89.15 129.3,-74.12"/>
<polygon fill="#63b8ff" stroke="#63b8ff" points="129.81,-70.65 119.35,-72.33 128.57,-77.54 129.81,-70.65"/>
</a>
</g>
</g>
<!-- Node8 -->
<g id="Node000008" class="node">
<title>Node8</title>
<g id="a_Node000008"><a xlink:title=" ">
<polygon fill="#e0e0e0" stroke="#999999" points="170,-19 87,-19 87,0 170,0 170,-19"/>
<text text-anchor="middle" x="128.5" y="-7" font-family="Helvetica,sans-Serif" font-size="10.00">initializer_list</text>
</a>
</g>
</g>
<!-- Node3&#45;&gt;Node8 -->
<g id="edge15_Node000003_Node000008" class="edge">
<title>Node3&#45;&gt;Node8</title>
<g id="a_edge15_Node000003_Node000008"><a xlink:title=" ">
<path fill="none" stroke="#63b8ff" d="M348.49,-116.34C260.98,-111.22 58.74,-96.98 38.5,-74 19.08,-51.96 55.37,-33.51 87.51,-22.27"/>
<polygon fill="#63b8ff" stroke="#63b8ff" points="88.9,-25.5 97.28,-19.02 86.69,-18.85 88.9,-25.5"/>
</a>
</g>
</g>
<!-- Node10 -->
<g id="Node000010" class="node">
<title>Node10</title>
<g id="a_Node000010"><a xlink:href="Types_8h.html" target="_top" xlink:title=" ">
<polygon fill="white" stroke="#666666" points="209.5,-74 137.5,-74 137.5,-55 209.5,-55 209.5,-74"/>
<text text-anchor="middle" x="173.5" y="-62" font-family="Helvetica,sans-Serif" font-size="10.00">util/Types.h</text>
</a>
</g>
</g>
<!-- Node3&#45;&gt;Node10 -->
<g id="edge9_Node000003_Node000010" class="edge">
<title>Node3&#45;&gt;Node10</title>
<g id="a_edge9_Node000003_Node000010"><a xlink:title=" ">
<path fill="none" stroke="#63b8ff" d="M353.96,-109.98C317.08,-100.89 258.51,-86.46 218.16,-76.51"/>
<polygon fill="#63b8ff" stroke="#63b8ff" points="218.86,-73.08 208.31,-74.08 217.19,-79.87 218.86,-73.08"/>
</a>
</g>
</g>
<!-- Node11 -->
<g id="Node000011" class="node">
<title>Node11</title>
<g id="a_Node000011"><a xlink:title=" ">
<polygon fill="#e0e0e0" stroke="#999999" points="399,-74 266,-74 266,-55 399,-55 399,-74"/>
<text text-anchor="middle" x="332.5" y="-62" font-family="Helvetica,sans-Serif" font-size="10.00">freertos/event_groups.h</text>
</a>
</g>
</g>
<!-- Node3&#45;&gt;Node11 -->
<g id="edge13_Node000003_Node000011" class="edge">
<title>Node3&#45;&gt;Node11</title>
<g id="a_edge13_Node000003_Node000011"><a xlink:title=" ">
<path fill="none" stroke="#63b8ff" d="M379.5,-109.98C371.31,-102.23 358.99,-90.58 349.03,-81.14"/>
<polygon fill="#63b8ff" stroke="#63b8ff" points="351.33,-78.5 341.66,-74.17 346.52,-83.59 351.33,-78.5"/>
</a>
</g>
</g>
<!-- Node12 -->
<g id="Node000012" class="node">
<title>Node12</title>
<g id="a_Node000012"><a xlink:title=" ">
<polygon fill="#e0e0e0" stroke="#999999" points="469.5,-74 417.5,-74 417.5,-55 469.5,-55 469.5,-74"/>
<text text-anchor="middle" x="443.5" y="-62" font-family="Helvetica,sans-Serif" font-size="10.00">cassert</text>
</a>
</g>
</g>
<!-- Node3&#45;&gt;Node12 -->
<g id="edge14_Node000003_Node000012" class="edge">
<title>Node3&#45;&gt;Node12</title>
<g id="a_edge14_Node000003_Node000012"><a xlink:title=" ">
<path fill="none" stroke="#63b8ff" d="M397.58,-109.75C405.59,-102.03 417.46,-90.6 427.12,-81.28"/>
<polygon fill="#63b8ff" stroke="#63b8ff" points="429.81,-83.55 434.59,-74.09 424.96,-78.51 429.81,-83.55"/>
</a>
</g>
</g>
<!-- Node4&#45;&gt;Node5 -->
<g id="edge4_Node000004_Node000005" class="edge">
<title>Node4&#45;&gt;Node5</title>
<g id="a_edge4_Node000004_Node000005"><a xlink:title=" ">
<path fill="none" stroke="#63b8ff" d="M1007.25,-55.1C1043.8,-46.01 1102.25,-31.46 1142.41,-21.47"/>
<polygon fill="#63b8ff" stroke="#63b8ff" points="1143.34,-24.85 1152.2,-19.03 1141.65,-18.05 1143.34,-24.85"/>
</a>
</g>
</g>
<!-- Node6&#45;&gt;Node7 -->
<g id="edge6_Node000006_Node000007" class="edge">
<title>Node6&#45;&gt;Node7</title>
<g id="a_edge6_Node000006_Node000007"><a xlink:title=" ">
<path fill="none" stroke="#63b8ff" d="M119.32,-56.45C122.42,-55.93 125.51,-55.43 128.5,-55 276.7,-33.48 454.74,-18.75 529.13,-13.08"/>
<polygon fill="#63b8ff" stroke="#63b8ff" points="529.63,-16.56 539.34,-12.32 529.11,-9.58 529.63,-16.56"/>
</a>
</g>
</g>
<!-- Node6&#45;&gt;Node8 -->
<g id="edge7_Node000006_Node000008" class="edge">
<title>Node6&#45;&gt;Node8</title>
<g id="a_edge7_Node000006_Node000008"><a xlink:title=" ">
<path fill="none" stroke="#63b8ff" d="M90.93,-54.75C97.35,-47.18 106.81,-36.05 114.62,-26.84"/>
<polygon fill="#63b8ff" stroke="#63b8ff" points="117.4,-28.98 121.21,-19.09 112.07,-24.45 117.4,-28.98"/>
</a>
</g>
</g>
<!-- Node9 -->
<g id="Node000009" class="node">
<title>Node9</title>
<g id="a_Node000009"><a xlink:title=" ">
<polygon fill="#e0e0e0" stroke="#999999" points="69,-19 0,-19 0,0 69,0 69,-19"/>
<text text-anchor="middle" x="34.5" y="-7" font-family="Helvetica,sans-Serif" font-size="10.00">type_traits</text>
</a>
</g>
</g>
<!-- Node6&#45;&gt;Node9 -->
<g id="edge8_Node000006_Node000009" class="edge">
<title>Node6&#45;&gt;Node9</title>
<g id="a_edge8_Node000006_Node000009"><a xlink:title=" ">
<path fill="none" stroke="#63b8ff" d="M75.41,-54.75C68.34,-47.11 57.91,-35.82 49.35,-26.56"/>
<polygon fill="#63b8ff" stroke="#63b8ff" points="51.8,-24.06 42.44,-19.09 46.66,-28.81 51.8,-24.06"/>
</a>
</g>
</g>
<!-- Node10&#45;&gt;Node7 -->
<g id="edge10_Node000010_Node000007" class="edge">
<title>Node10&#45;&gt;Node7</title>
<g id="a_edge10_Node000010_Node000007"><a xlink:title=" ">
<path fill="none" stroke="#63b8ff" d="M209.52,-57.21C214.22,-56.43 218.97,-55.68 223.5,-55 334.85,-38.28 467.2,-22.04 529.18,-14.65"/>
<polygon fill="#63b8ff" stroke="#63b8ff" points="529.7,-18.12 539.21,-13.46 528.87,-11.17 529.7,-18.12"/>
</a>
</g>
</g>
<!-- Node10&#45;&gt;Node8 -->
<g id="edge11_Node000010_Node000008" class="edge">
<title>Node10&#45;&gt;Node8</title>
<g id="a_edge11_Node000010_Node000008"><a xlink:title=" ">
<path fill="none" stroke="#63b8ff" d="M166.07,-54.75C159.65,-47.18 150.19,-36.05 142.38,-26.84"/>
<polygon fill="#63b8ff" stroke="#63b8ff" points="144.93,-24.45 135.79,-19.09 139.6,-28.98 144.93,-24.45"/>
</a>
</g>
</g>
<!-- Node13&#45;&gt;Node4 -->
<g id="edge21_Node000013_Node000004" class="edge">
<title>Node13&#45;&gt;Node4</title>
<g id="a_edge21_Node000013_Node000004"><a xlink:title=" ">
<path fill="none" stroke="#63b8ff" d="M1214.83,-109.97C1166.69,-101.62 1091.34,-88.35 1017.37,-74.33"/>
<polygon fill="#63b8ff" stroke="#63b8ff" points="1017.89,-70.86 1007.41,-72.43 1016.58,-77.74 1017.89,-70.86"/>
</a>
</g>
</g>
<!-- Node13&#45;&gt;Node5 -->
<g id="edge22_Node000013_Node000005" class="edge">
<title>Node13&#45;&gt;Node5</title>
<g id="a_edge22_Node000013_Node000005"><a xlink:title=" ">
<path fill="none" stroke="#63b8ff" d="M1314.01,-109.99C1355.3,-100.71 1404.05,-83.28 1381.5,-55 1365.55,-35 1303.36,-23.28 1253.44,-16.93"/>
<polygon fill="#63b8ff" stroke="#63b8ff" points="1253.67,-13.44 1243.32,-15.7 1252.82,-20.39 1253.67,-13.44"/>
</a>
</g>
</g>
<!-- Node14 -->
<g id="Node000014" class="node">
<title>Node14</title>
<g id="a_Node000014"><a xlink:href="IItemReceiver_8h.html" target="_top" xlink:title=" ">
<polygon fill="white" stroke="#666666" points="1136,-74 1025,-74 1025,-55 1136,-55 1136,-74"/>
<text text-anchor="middle" x="1080.5" y="-62" font-family="Helvetica,sans-Serif" font-size="10.00">api/IItemReceiver.h</text>
</a>
</g>
</g>
<!-- Node13&#45;&gt;Node14 -->
<g id="edge17_Node000013_Node000014" class="edge">
<title>Node13&#45;&gt;Node14</title>
<g id="a_edge17_Node000013_Node000014"><a xlink:title=" ">
<path fill="none" stroke="#63b8ff" d="M1234.94,-109.98C1203.78,-101.01 1154.53,-86.82 1120.04,-76.89"/>
<polygon fill="#63b8ff" stroke="#63b8ff" points="1120.87,-73.49 1110.29,-74.08 1118.93,-80.21 1120.87,-73.49"/>
</a>
</g>
</g>
<!-- Node15 -->
<g id="Node000015" class="node">
<title>Node15</title>
<g id="a_Node000015"><a xlink:href="IItemSender_8h.html" target="_top" xlink:title=" ">
<polygon fill="white" stroke="#666666" points="1256.5,-74 1154.5,-74 1154.5,-55 1256.5,-55 1256.5,-74"/>
<text text-anchor="middle" x="1205.5" y="-62" font-family="Helvetica,sans-Serif" font-size="10.00">api/IItemSender.h</text>
</a>
</g>
</g>
<!-- Node13&#45;&gt;Node15 -->
<g id="edge19_Node000013_Node000015" class="edge">
<title>Node13&#45;&gt;Node15</title>
<g id="a_edge19_Node000013_Node000015"><a xlink:title=" ">
<path fill="none" stroke="#63b8ff" d="M1255.02,-109.98C1246.3,-102.15 1233.16,-90.34 1222.6,-80.86"/>
<polygon fill="#63b8ff" stroke="#63b8ff" points="1224.93,-78.25 1215.15,-74.17 1220.25,-83.46 1224.93,-78.25"/>
</a>
</g>
</g>
<!-- Node16 -->
<g id="Node000016" class="node">
<title>Node16</title>
<g id="a_Node000016"><a xlink:title=" ">
<polygon fill="#e0e0e0" stroke="#999999" points="1372,-74 1275,-74 1275,-55 1372,-55 1372,-74"/>
<text text-anchor="middle" x="1323.5" y="-62" font-family="Helvetica,sans-Serif" font-size="10.00">freertos/queue.h</text>
</a>
</g>
</g>
<!-- Node13&#45;&gt;Node16 -->
<g id="edge23_Node000013_Node000016" class="edge">
<title>Node13&#45;&gt;Node16</title>
<g id="a_edge23_Node000013_Node000016"><a xlink:title=" ">
<path fill="none" stroke="#63b8ff" d="M1273.98,-109.98C1282.7,-102.15 1295.84,-90.34 1306.4,-80.86"/>
<polygon fill="#63b8ff" stroke="#63b8ff" points="1308.75,-83.46 1313.85,-74.17 1304.07,-78.25 1308.75,-83.46"/>
</a>
</g>
</g>
<!-- Node17 -->
<g id="Node000017" class="node">
<title>Node17</title>
<g id="a_Node000017"><a xlink:title=" ">
<polygon fill="#e0e0e0" stroke="#999999" points="1714,-74 1649,-74 1649,-55 1714,-55 1714,-74"/>
<text text-anchor="middle" x="1681.5" y="-62" font-family="Helvetica,sans-Serif" font-size="10.00">functional</text>
</a>
</g>
</g>
<!-- Node13&#45;&gt;Node17 -->
<g id="edge24_Node000013_Node000017" class="edge">
<title>Node13&#45;&gt;Node17</title>
<g id="a_edge24_Node000013_Node000017"><a xlink:title=" ">
<path fill="none" stroke="#63b8ff" d="M1315.22,-112.05C1398.03,-101.53 1560.83,-80.84 1638.41,-70.98"/>
<polygon fill="#63b8ff" stroke="#63b8ff" points="1639.3,-74.39 1648.78,-69.66 1638.42,-67.45 1639.3,-74.39"/>
</a>
</g>
</g>
<!-- Node18 -->
<g id="Node000018" class="node">
<title>Node18</title>
<g id="a_Node000018"><a xlink:title=" ">
<polygon fill="#e0e0e0" stroke="#999999" points="1486.5,-74 1428.5,-74 1428.5,-55 1486.5,-55 1486.5,-74"/>
<text text-anchor="middle" x="1457.5" y="-62" font-family="Helvetica,sans-Serif" font-size="10.00">memory</text>
</a>
</g>
</g>
<!-- Node13&#45;&gt;Node18 -->
<g id="edge25_Node000013_Node000018" class="edge">
<title>Node13&#45;&gt;Node18</title>
<g id="a_edge25_Node000013_Node000018"><a xlink:title=" ">
<path fill="none" stroke="#63b8ff" d="M1295.51,-109.98C1329.01,-100.78 1382.46,-86.11 1418.72,-76.15"/>
<polygon fill="#63b8ff" stroke="#63b8ff" points="1419.75,-79.5 1428.46,-73.47 1417.89,-72.75 1419.75,-79.5"/>
</a>
</g>
</g>
<!-- Node14&#45;&gt;Node7 -->
<g id="edge18_Node000014_Node000007" class="edge">
<title>Node14&#45;&gt;Node7</title>
<g id="a_edge18_Node000014_Node000007"><a xlink:title=" ">
<path fill="none" stroke="#63b8ff" d="M1024.85,-56.1C1021.68,-55.72 1018.55,-55.35 1015.5,-55 860.96,-37.28 676.14,-20.39 599.97,-13.61"/>
<polygon fill="#63b8ff" stroke="#63b8ff" points="600.23,-10.12 589.96,-12.73 599.61,-17.1 600.23,-10.12"/>
</a>
</g>
</g>
<!-- Node15&#45;&gt;Node7 -->
<g id="edge20_Node000015_Node000007" class="edge">
<title>Node15&#45;&gt;Node7</title>
<g id="a_edge20_Node000015_Node000007"><a xlink:title=" ">
<path fill="none" stroke="#63b8ff" d="M1154.27,-56.13C1150.97,-55.72 1147.69,-55.34 1144.5,-55 938.54,-32.77 690.25,-17.59 599.71,-12.44"/>
<polygon fill="#63b8ff" stroke="#63b8ff" points="599.89,-8.94 589.71,-11.88 599.49,-15.93 599.89,-8.94"/>
</a>
</g>
</g>
<!-- Node19&#45;&gt;Node5 -->
<g id="edge29_Node000019_Node000005" class="edge">
<title>Node19&#45;&gt;Node5</title>
<g id="a_edge29_Node000019_Node000005"><a xlink:title=" ">
<path fill="none" stroke="#63b8ff" d="M692.83,-109.98C668.76,-97.9 632.07,-75.02 650.5,-55 681.66,-21.14 982.61,-13.04 1119.41,-11.11"/>
<polygon fill="#63b8ff" stroke="#63b8ff" points="1119.81,-14.6 1129.76,-10.97 1119.72,-7.6 1119.81,-14.6"/>
</a>
</g>
</g>
<!-- Node20 -->
<g id="Node000020" class="node">
<title>Node20</title>
<g id="a_Node000020"><a xlink:href="IMutex_8h.html" target="_top" xlink:title=" ">
<polygon fill="white" stroke="#666666" points="603,-74 526,-74 526,-55 603,-55 603,-74"/>
<text text-anchor="middle" x="564.5" y="-62" font-family="Helvetica,sans-Serif" font-size="10.00">api/IMutex.h</text>
</a>
</g>
</g>
<!-- Node19&#45;&gt;Node20 -->
<g id="edge27_Node000019_Node000020" class="edge">
<title>Node19&#45;&gt;Node20</title>
<g id="a_edge27_Node000019_Node000020"><a xlink:title=" ">
<path fill="none" stroke="#63b8ff" d="M687.88,-109.98C663.6,-101.23 625.55,-87.51 598.13,-77.62"/>
<polygon fill="#63b8ff" stroke="#63b8ff" points="599.14,-74.27 588.55,-74.17 596.77,-80.85 599.14,-74.27"/>
</a>
</g>
</g>
<!-- Node21 -->
<g id="Node000021" class="node">
<title>Node21</title>
<g id="a_Node000021"><a xlink:title=" ">
<polygon fill="#e0e0e0" stroke="#999999" points="763,-74 660,-74 660,-55 763,-55 763,-74"/>
<text text-anchor="middle" x="711.5" y="-62" font-family="Helvetica,sans-Serif" font-size="10.00">freertos/semphr.h</text>
</a>
</g>
</g>
<!-- Node19&#45;&gt;Node21 -->
<g id="edge30_Node000019_Node000021" class="edge">
<title>Node19&#45;&gt;Node21</title>
<g id="a_edge30_Node000019_Node000021"><a xlink:title=" ">
<path fill="none" stroke="#63b8ff" d="M711.5,-109.75C711.5,-102.8 711.5,-92.85 711.5,-84.13"/>
<polygon fill="#63b8ff" stroke="#63b8ff" points="715,-84.09 711.5,-74.09 708,-84.09 715,-84.09"/>
</a>
</g>
</g>
<!-- Node20&#45;&gt;Node7 -->
<g id="edge28_Node000020_Node000007" class="edge">
<title>Node20&#45;&gt;Node7</title>
<g id="a_edge28_Node000020_Node000007"><a xlink:title=" ">
<path fill="none" stroke="#63b8ff" d="M564.5,-54.75C564.5,-47.8 564.5,-37.85 564.5,-29.13"/>
<polygon fill="#63b8ff" stroke="#63b8ff" points="568,-29.09 564.5,-19.09 561,-29.09 568,-29.09"/>
</a>
</g>
</g>
<!-- Node22&#45;&gt;Node5 -->
<g id="edge34_Node000022_Node000005" class="edge">
<title>Node22&#45;&gt;Node5</title>
<g id="a_edge34_Node000022_Node000005"><a xlink:title=" ">
<path fill="none" stroke="#63b8ff" d="M858.42,-109.88C871.81,-95.9 900.4,-68.49 930.5,-55 991.12,-27.82 1066.7,-17.19 1119.98,-13.05"/>
<polygon fill="#63b8ff" stroke="#63b8ff" points="1120.27,-16.54 1129.99,-12.33 1119.77,-9.56 1120.27,-16.54"/>
</a>
</g>
</g>
<!-- Node22&#45;&gt;Node21 -->
<g id="edge35_Node000022_Node000021" class="edge">
<title>Node22&#45;&gt;Node21</title>
<g id="a_edge35_Node000022_Node000021"><a xlink:title=" ">
<path fill="none" stroke="#63b8ff" d="M828.17,-109.98C805.3,-101.27 769.54,-87.63 743.64,-77.75"/>
<polygon fill="#63b8ff" stroke="#63b8ff" points="744.83,-74.46 734.24,-74.17 742.34,-81 744.83,-74.46"/>
</a>
</g>
</g>
<!-- Node23 -->
<g id="Node000023" class="node">
<title>Node23</title>
<g id="a_Node000023"><a xlink:href="ISemaphore_8h.html" target="_top" xlink:title=" ">
<polygon fill="white" stroke="#666666" points="883.5,-74 781.5,-74 781.5,-55 883.5,-55 883.5,-74"/>
<text text-anchor="middle" x="832.5" y="-62" font-family="Helvetica,sans-Serif" font-size="10.00">api/ISemaphore.h</text>
</a>
</g>
</g>
<!-- Node22&#45;&gt;Node23 -->
<g id="edge32_Node000022_Node000023" class="edge">
<title>Node22&#45;&gt;Node23</title>
<g id="a_edge32_Node000022_Node000023"><a xlink:title=" ">
<path fill="none" stroke="#63b8ff" d="M847.53,-109.75C845.14,-102.72 841.71,-92.62 838.73,-83.84"/>
<polygon fill="#63b8ff" stroke="#63b8ff" points="841.95,-82.43 835.42,-74.09 835.32,-84.68 841.95,-82.43"/>
</a>
</g>
</g>
<!-- Node23&#45;&gt;Node7 -->
<g id="edge33_Node000023_Node000007" class="edge">
<title>Node23&#45;&gt;Node7</title>
<g id="a_edge33_Node000023_Node000007"><a xlink:title=" ">
<path fill="none" stroke="#63b8ff" d="M789.44,-54.98C736.78,-44.57 648.65,-27.14 599.8,-17.48"/>
<polygon fill="#63b8ff" stroke="#63b8ff" points="600.2,-13.99 589.71,-15.49 598.84,-20.86 600.2,-13.99"/>
</a>
</g>
</g>
<!-- Node24&#45;&gt;Node5 -->
<g id="edge37_Node000024_Node000005" class="edge">
<title>Node24&#45;&gt;Node5</title>
<g id="a_edge37_Node000024_Node000005"><a xlink:title=" ">
<path fill="none" stroke="#63b8ff" d="M1564.66,-109.91C1585.92,-97.55 1618.68,-74.12 1601.5,-55 1578.69,-29.62 1364.76,-17.5 1253.31,-12.86"/>
<polygon fill="#63b8ff" stroke="#63b8ff" points="1253.32,-9.36 1243.18,-12.45 1253.03,-16.35 1253.32,-9.36"/>
</a>
</g>
</g>
<!-- Node24&#45;&gt;Node17 -->
<g id="edge39_Node000024_Node000017" class="edge">
<title>Node24&#45;&gt;Node17</title>
<g id="a_edge39_Node000024_Node000017"><a xlink:title=" ">
<path fill="none" stroke="#63b8ff" d="M1569.87,-109.98C1591.65,-101.3 1625.66,-87.75 1650.42,-77.88"/>
<polygon fill="#63b8ff" stroke="#63b8ff" points="1651.75,-81.12 1659.74,-74.17 1649.16,-74.62 1651.75,-81.12"/>
</a>
</g>
</g>
<!-- Node24&#45;&gt;Node18 -->
<g id="edge40_Node000024_Node000018" class="edge">
<title>Node24&#45;&gt;Node18</title>
<g id="a_edge40_Node000024_Node000018"><a xlink:title=" ">
<path fill="none" stroke="#63b8ff" d="M1533.88,-109.98C1519.64,-101.69 1497.75,-88.94 1481.05,-79.22"/>
<polygon fill="#63b8ff" stroke="#63b8ff" points="1482.79,-76.18 1472.39,-74.17 1479.27,-82.23 1482.79,-76.18"/>
</a>
</g>
</g>
<!-- Node25 -->
<g id="Node000025" class="node">
<title>Node25</title>
<g id="a_Node000025"><a xlink:title=" ">
<polygon fill="#e0e0e0" stroke="#999999" points="1592.5,-74 1504.5,-74 1504.5,-55 1592.5,-55 1592.5,-74"/>
<text text-anchor="middle" x="1548.5" y="-62" font-family="Helvetica,sans-Serif" font-size="10.00">freertos/task.h</text>
</a>
</g>
</g>
<!-- Node24&#45;&gt;Node25 -->
<g id="edge38_Node000024_Node000025" class="edge">
<title>Node24&#45;&gt;Node25</title>
<g id="a_edge38_Node000024_Node000025"><a xlink:title=" ">
<path fill="none" stroke="#63b8ff" d="M1548.5,-109.75C1548.5,-102.8 1548.5,-92.85 1548.5,-84.13"/>
<polygon fill="#63b8ff" stroke="#63b8ff" points="1552,-84.09 1548.5,-74.09 1545,-84.09 1552,-84.09"/>
</a>
</g>
</g>
<!-- Node26&#45;&gt;Node5 -->
<g id="edge42_Node000026_Node000005" class="edge">
<title>Node26&#45;&gt;Node5</title>
<g id="a_edge42_Node000026_Node000005"><a xlink:title=" ">
<path fill="none" stroke="#63b8ff" d="M1708.31,-116.79C1763.09,-112.37 1879.46,-97.77 1839.5,-55 1800.08,-12.8 1411.5,-9.56 1253.14,-10.02"/>
<polygon fill="#63b8ff" stroke="#63b8ff" points="1253.04,-6.52 1243.05,-10.05 1253.06,-13.52 1253.04,-6.52"/>
</a>
</g>
</g>
<!-- Node26&#45;&gt;Node17 -->
<g id="edge44_Node000026_Node000017" class="edge">
<title>Node26&#45;&gt;Node17</title>
<g id="a_edge44_Node000026_Node000017"><a xlink:title=" ">
<path fill="none" stroke="#63b8ff" d="M1681.5,-109.75C1681.5,-102.8 1681.5,-92.85 1681.5,-84.13"/>
<polygon fill="#63b8ff" stroke="#63b8ff" points="1685,-84.09 1681.5,-74.09 1678,-84.09 1685,-84.09"/>
</a>
</g>
</g>
<!-- Node26&#45;&gt;Node18 -->
<g id="edge45_Node000026_Node000018" class="edge">
<title>Node26&#45;&gt;Node18</title>
<g id="a_edge45_Node000026_Node000018"><a xlink:title=" ">
<path fill="none" stroke="#63b8ff" d="M1654.92,-112.21C1615.6,-102.91 1541.68,-85.42 1496.3,-74.68"/>
<polygon fill="#63b8ff" stroke="#63b8ff" points="1497.05,-71.26 1486.52,-72.37 1495.44,-78.07 1497.05,-71.26"/>
</a>
</g>
</g>
<!-- Node27 -->
<g id="Node000027" class="node">
<title>Node27</title>
<g id="a_Node000027"><a xlink:title=" ">
<polygon fill="#e0e0e0" stroke="#999999" points="1830.5,-74 1732.5,-74 1732.5,-55 1830.5,-55 1830.5,-74"/>
<text text-anchor="middle" x="1781.5" y="-62" font-family="Helvetica,sans-Serif" font-size="10.00">freertos/timers.h</text>
</a>
</g>
</g>
<!-- Node26&#45;&gt;Node27 -->
<g id="edge43_Node000026_Node000027" class="edge">
<title>Node26&#45;&gt;Node27</title>
<g id="a_edge43_Node000026_Node000027"><a xlink:title=" ">
<path fill="none" stroke="#63b8ff" d="M1697.57,-109.98C1713.36,-101.61 1737.72,-88.7 1756.13,-78.95"/>
<polygon fill="#63b8ff" stroke="#63b8ff" points="1757.94,-81.95 1765.14,-74.17 1754.67,-75.76 1757.94,-81.95"/>
</a>
</g>
</g>
</g>
</svg>
