<?xml version="1.0" encoding="UTF-8" standalone="no"?>
<!DOCTYPE svg PUBLIC "-//W3C//DTD SVG 1.1//EN"
 "http://www.w3.org/Graphics/SVG/1.1/DTD/svg11.dtd">
<!-- Generated by graphviz version 2.43.0 (0)
 -->
<!-- Title: rtos::msToTicks Pages: 1 -->
<svg width="441pt" height="272pt"
 viewBox="0.00 0.00 441.00 271.50" xmlns="http://www.w3.org/2000/svg" xmlns:xlink="http://www.w3.org/1999/xlink">

<svg id="main" version="1.1" xmlns="http://www.w3.org/2000/svg" xmlns:xlink="http://www.w3.org/1999/xlink" xml:space="preserve" onload="init(evt)">
<style type="text/css"><![CDATA[
.node, .edge {opacity: 0.7;}
.node.selected, .edge.selected {opacity: 1;}
.edge:hover path { stroke: red; }
.edge:hover polygon { stroke: red; fill: red; }
]]></style>
<script type="application/ecmascript" xlink:href="svg.min.js"/>
<svg id="graph" class="graph">
<g id="graph0" class="graph" transform="scale(1 1) rotate(0) translate(4 267.5)">
<title>rtos::msToTicks</title>
<!-- Node1 -->
<g id="Node000001" class="node">
<title>Node1</title>
<g id="a_Node000001"><a xlink:title=" ">
<polygon fill="#999999" stroke="#666666" points="433,-152.5 341,-152.5 341,-133.5 433,-133.5 433,-152.5"/>
<text text-anchor="middle" x="387" y="-140.5" font-family="Helvetica,sans-Serif" font-size="10.00">rtos::msToTicks</text>
</a>
</g>
</g>
<!-- Node2 -->
<g id="Node000002" class="node">
<title>Node2</title>
<g id="a_Node000002"><a xlink:href="classrtos_1_1EventFlags.html#ab116cd2d7ececd95692d7d072196e750" target="_top" xlink:title=" ">
<polygon fill="white" stroke="#666666" points="299,-263.5 158,-263.5 158,-244.5 299,-244.5 299,-263.5"/>
<text text-anchor="middle" x="228.5" y="-251.5" font-family="Helvetica,sans-Serif" font-size="10.00">rtos::EventFlags::awaitAll</text>
</a>
</g>
</g>
<!-- Node1&#45;&gt;Node2 -->
<g id="edge1_Node000001_Node000002" class="edge">
<title>Node1&#45;&gt;Node2</title>
<g id="a_edge1_Node000001_Node000002"><a xlink:title=" ">
<path fill="none" stroke="#63b8ff" d="M375.04,-161.39C361.37,-182.7 335.98,-217.26 305,-236 299.35,-239.42 293.1,-242.19 286.68,-244.43"/>
<polygon fill="#63b8ff" stroke="#63b8ff" points="378.18,-162.98 380.48,-152.64 372.23,-159.29 378.18,-162.98"/>
</a>
</g>
</g>
<!-- Node3 -->
<g id="Node000003" class="node">
<title>Node3</title>
<g id="a_Node000003"><a xlink:href="classrtos_1_1EventFlags.html#a50debabc2b39bedcae7ef5309d3936f1" target="_top" xlink:title=" ">
<polygon fill="white" stroke="#666666" points="302,-226.5 155,-226.5 155,-207.5 302,-207.5 302,-226.5"/>
<text text-anchor="middle" x="228.5" y="-214.5" font-family="Helvetica,sans-Serif" font-size="10.00">rtos::EventFlags::awaitAny</text>
</a>
</g>
</g>
<!-- Node1&#45;&gt;Node3 -->
<g id="edge2_Node000001_Node000003" class="edge">
<title>Node1&#45;&gt;Node3</title>
<g id="a_edge2_Node000001_Node000003"><a xlink:title=" ">
<path fill="none" stroke="#63b8ff" d="M367.14,-159.08C351.46,-171.67 328.05,-188.72 305,-199 297.49,-202.35 289.28,-205.12 281.12,-207.41"/>
<polygon fill="#63b8ff" stroke="#63b8ff" points="369.51,-161.66 375.01,-152.61 365.06,-156.26 369.51,-161.66"/>
</a>
</g>
</g>
<!-- Node4 -->
<g id="Node000004" class="node">
<title>Node4</title>
<g id="a_Node000004"><a xlink:href="classrtos_1_1Task.html#a9dafe565e8f67f1320dc18b9bfde88fe" target="_top" xlink:title=" ">
<polygon fill="white" stroke="#666666" points="276,-189.5 181,-189.5 181,-170.5 276,-170.5 276,-189.5"/>
<text text-anchor="middle" x="228.5" y="-177.5" font-family="Helvetica,sans-Serif" font-size="10.00">rtos::Task::sleep</text>
</a>
</g>
</g>
<!-- Node1&#45;&gt;Node4 -->
<g id="edge3_Node000001_Node000004" class="edge">
<title>Node1&#45;&gt;Node4</title>
<g id="a_edge3_Node000001_Node000004"><a xlink:title=" ">
<path fill="none" stroke="#63b8ff" d="M335.85,-154.86C314.55,-159.89 290.05,-165.68 269.94,-170.44"/>
<polygon fill="#63b8ff" stroke="#63b8ff" points="336.77,-158.24 345.7,-152.53 335.16,-151.42 336.77,-158.24"/>
</a>
</g>
</g>
<!-- Node6 -->
<g id="Node000006" class="node">
<title>Node6</title>
<g id="a_Node000006"><a xlink:href="classrtos_1_1Semaphore.html#ae8d9dbad4634a1ff69f0dbee9e0ad553" target="_top" xlink:title=" ">
<polygon fill="white" stroke="#666666" points="305,-152.5 152,-152.5 152,-133.5 305,-133.5 305,-152.5"/>
<text text-anchor="middle" x="228.5" y="-140.5" font-family="Helvetica,sans-Serif" font-size="10.00">rtos::Semaphore::tryAcquire</text>
</a>
</g>
</g>
<!-- Node1&#45;&gt;Node6 -->
<g id="edge5_Node000001_Node000006" class="edge">
<title>Node1&#45;&gt;Node6</title>
<g id="a_edge5_Node000001_Node000006"><a xlink:title=" ">
<path fill="none" stroke="#63b8ff" d="M330.5,-143C322.25,-143 313.62,-143 305.04,-143"/>
<polygon fill="#63b8ff" stroke="#63b8ff" points="330.73,-146.5 340.73,-143 330.73,-139.5 330.73,-146.5"/>
</a>
</g>
</g>
<!-- Node7 -->
<g id="Node000007" class="node">
<title>Node7</title>
<g id="a_Node000007"><a xlink:href="classrtos_1_1Mutex.html#addf641dce7f9248af60efc72a1c3e6ef" target="_top" xlink:title=" ">
<polygon fill="white" stroke="#666666" points="285.5,-115.5 171.5,-115.5 171.5,-96.5 285.5,-96.5 285.5,-115.5"/>
<text text-anchor="middle" x="228.5" y="-103.5" font-family="Helvetica,sans-Serif" font-size="10.00">rtos::Mutex::tryLock</text>
</a>
</g>
</g>
<!-- Node1&#45;&gt;Node7 -->
<g id="edge6_Node000001_Node000007" class="edge">
<title>Node1&#45;&gt;Node7</title>
<g id="a_edge6_Node000001_Node000007"><a xlink:title=" ">
<path fill="none" stroke="#63b8ff" d="M335.85,-131.14C314.55,-126.11 290.05,-120.32 269.94,-115.56"/>
<polygon fill="#63b8ff" stroke="#63b8ff" points="335.16,-134.58 345.7,-133.47 336.77,-127.76 335.16,-134.58"/>
</a>
</g>
</g>
<!-- Node8 -->
<g id="Node000008" class="node">
<title>Node8</title>
<g id="a_Node000008"><a xlink:href="classrtos_1_1MessageQueue.html#a88aba7a35bda8c6023100b57744232a4" target="_top" xlink:title=" ">
<polygon fill="white" stroke="#666666" points="286.5,-78 170.5,-78 170.5,-48 286.5,-48 286.5,-78"/>
<text text-anchor="start" x="178.5" y="-66" font-family="Helvetica,sans-Serif" font-size="10.00">rtos::MessageQueue</text>
<text text-anchor="middle" x="228.5" y="-55" font-family="Helvetica,sans-Serif" font-size="10.00">::tryReceive</text>
</a>
</g>
</g>
<!-- Node1&#45;&gt;Node8 -->
<g id="edge7_Node000001_Node000008" class="edge">
<title>Node1&#45;&gt;Node8</title>
<g id="a_edge7_Node000001_Node000008"><a xlink:title=" ">
<path fill="none" stroke="#63b8ff" d="M366.03,-127.13C350.2,-115.13 327.12,-98.91 305,-88 297.57,-84.34 289.48,-81.02 281.44,-78.08"/>
<polygon fill="#63b8ff" stroke="#63b8ff" points="363.97,-129.96 374.03,-133.3 368.25,-124.42 363.97,-129.96"/>
</a>
</g>
</g>
<!-- Node10 -->
<g id="Node000010" class="node">
<title>Node10</title>
<g id="a_Node000010"><a xlink:href="classrtos_1_1MessageQueue.html#ab78416fbafa530b9a7fd8ca3eff7d403" target="_top" xlink:title=" ">
<polygon fill="white" stroke="#666666" points="286.5,-30 170.5,-30 170.5,0 286.5,0 286.5,-30"/>
<text text-anchor="start" x="178.5" y="-18" font-family="Helvetica,sans-Serif" font-size="10.00">rtos::MessageQueue</text>
<text text-anchor="middle" x="228.5" y="-7" font-family="Helvetica,sans-Serif" font-size="10.00">::trySend</text>
</a>
</g>
</g>
<!-- Node1&#45;&gt;Node10 -->
<g id="edge9_Node000001_Node000010" class="edge">
<title>Node1&#45;&gt;Node10</title>
<g id="a_edge9_Node000001_Node000010"><a xlink:title=" ">
<path fill="none" stroke="#63b8ff" d="M376.28,-124.53C363.13,-101.28 337.53,-61.66 305,-39 299.36,-35.07 293.04,-31.76 286.52,-28.98"/>
<polygon fill="#63b8ff" stroke="#63b8ff" points="373.26,-126.3 381.14,-133.39 379.4,-122.94 373.26,-126.3"/>
</a>
</g>
</g>
<!-- Node5 -->
<g id="Node000005" class="node">
<title>Node5</title>
<g id="a_Node000005"><a xlink:href="classrtos_1_1Task.html#a18067e1a8d17e835aab11b7fa10c05d4" target="_top" xlink:title=" ">
<polygon fill="white" stroke="#666666" points="108.5,-189.5 7.5,-189.5 7.5,-170.5 108.5,-170.5 108.5,-189.5"/>
<text text-anchor="middle" x="58" y="-177.5" font-family="Helvetica,sans-Serif" font-size="10.00">rtos::Task::sleepS</text>
</a>
</g>
</g>
<!-- Node4&#45;&gt;Node5 -->
<g id="edge4_Node000004_Node000005" class="edge">
<title>Node4&#45;&gt;Node5</title>
<g id="a_edge4_Node000004_Node000005"><a xlink:title=" ">
<path fill="none" stroke="#63b8ff" d="M170.33,-180C150.3,-180 127.99,-180 108.63,-180"/>
<polygon fill="#63b8ff" stroke="#63b8ff" points="170.56,-183.5 180.56,-180 170.56,-176.5 170.56,-183.5"/>
</a>
</g>
</g>
<!-- Node9 -->
<g id="Node000009" class="node">
<title>Node9</title>
<g id="a_Node000009"><a xlink:href="classrtos_1_1MessageQueue.html#a595587ac6a72ea32cfe7188a35166f7c" target="_top" xlink:title=" ">
<polygon fill="white" stroke="#666666" points="116,-78 0,-78 0,-48 116,-48 116,-78"/>
<text text-anchor="start" x="8" y="-66" font-family="Helvetica,sans-Serif" font-size="10.00">rtos::MessageQueue</text>
<text text-anchor="middle" x="58" y="-55" font-family="Helvetica,sans-Serif" font-size="10.00">::receive</text>
</a>
</g>
</g>
<!-- Node8&#45;&gt;Node9 -->
<g id="edge8_Node000008_Node000009" class="edge">
<title>Node8&#45;&gt;Node9</title>
<g id="a_edge8_Node000008_Node000009"><a xlink:title=" ">
<path fill="none" stroke="#63b8ff" d="M160.04,-63C145.54,-63 130.35,-63 116.27,-63"/>
<polygon fill="#63b8ff" stroke="#63b8ff" points="160.45,-66.5 170.45,-63 160.45,-59.5 160.45,-66.5"/>
</a>
</g>
</g>
<!-- Node11 -->
<g id="Node000011" class="node">
<title>Node11</title>
<g id="a_Node000011"><a xlink:href="classrtos_1_1MessageQueue.html#a3e7a02bd3bdf2bebcb3ef832632f1a7e" target="_top" xlink:title=" ">
<polygon fill="white" stroke="#666666" points="116,-30 0,-30 0,0 116,0 116,-30"/>
<text text-anchor="start" x="8" y="-18" font-family="Helvetica,sans-Serif" font-size="10.00">rtos::MessageQueue</text>
<text text-anchor="middle" x="58" y="-7" font-family="Helvetica,sans-Serif" font-size="10.00">::send</text>
</a>
</g>
</g>
<!-- Node10&#45;&gt;Node11 -->
<g id="edge10_Node000010_Node000011" class="edge">
<title>Node10&#45;&gt;Node11</title>
<g id="a_edge10_Node000010_Node000011"><a xlink:title=" ">
<path fill="none" stroke="#63b8ff" d="M160.04,-15C145.54,-15 130.35,-15 116.27,-15"/>
<polygon fill="#63b8ff" stroke="#63b8ff" points="160.45,-18.5 170.45,-15 160.45,-11.5 160.45,-18.5"/>
</a>
</g>
</g>
</g>
</svg>
</svg>

<style type='text/css'>
<![CDATA[
[data-mouse-over-selected='false'] { opacity: 0.7; }
[data-mouse-over-selected='true']  { opacity: 1.0; }
]]>
</style>
<script type="application/ecmascript"><![CDATA[
document.addEventListener('DOMContentLoaded', (event) => {
  highlightEdges();
  highlightAdjacentNodes();
});
]]></script>
</svg>
