<?xml version="1.0" encoding="UTF-8" standalone="no"?>
<!DOCTYPE svg PUBLIC "-//W3C//DTD SVG 1.1//EN"
 "http://www.w3.org/Graphics/SVG/1.1/DTD/svg11.dtd">
<!-- Generated by graphviz version 2.43.0 (0)
 -->
<!-- Title: rtos::isInterruptContextAcive Pages: 1 -->
<svg width="488pt" height="605pt"
 viewBox="0.00 0.00 488.00 605.00" xmlns="http://www.w3.org/2000/svg" xmlns:xlink="http://www.w3.org/1999/xlink">
<g id="graph0" class="graph" transform="scale(1 1) rotate(0) translate(4 601)">
<title>rtos::isInterruptContextAcive</title>
<!-- Node1 -->
<g id="Node000001" class="node">
<title>Node1</title>
<g id="a_Node000001"><a xlink:title=" ">
<polygon fill="#999999" stroke="#666666" points="480,-324.5 350,-324.5 350,-294.5 480,-294.5 480,-324.5"/>
<text text-anchor="start" x="358" y="-312.5" font-family="Helvetica,sans-Serif" font-size="10.00">rtos::isInterruptContext</text>
<text text-anchor="middle" x="415" y="-301.5" font-family="Helvetica,sans-Serif" font-size="10.00">Acive</text>
</a>
</g>
</g>
<!-- Node2 -->
<g id="Node000002" class="node">
<title>Node2</title>
<g id="a_Node000002"><a xlink:href="classrtos_1_1Semaphore.html#a44f87603f592d138fd974b4cf83c7ffe" target="_top" xlink:title=" ">
<polygon fill="white" stroke="#666666" points="307,-597 168,-597 168,-578 307,-578 307,-597"/>
<text text-anchor="middle" x="237.5" y="-585" font-family="Helvetica,sans-Serif" font-size="10.00">rtos::Semaphore::acquire</text>
</a>
</g>
</g>
<!-- Node1&#45;&gt;Node2 -->
<g id="edge1_Node000001_Node000002" class="edge">
<title>Node1&#45;&gt;Node2</title>
<g id="a_edge1_Node000001_Node000002"><a xlink:title=" ">
<path fill="none" stroke="#63b8ff" d="M411.94,-334.58C406.27,-386.63 385.7,-506.77 314,-569.5 310.15,-572.87 305.77,-575.64 301.12,-577.91"/>
<polygon fill="#63b8ff" stroke="#63b8ff" points="415.43,-334.85 412.94,-324.55 408.46,-334.15 415.43,-334.85"/>
</a>
</g>
</g>
<!-- Node3 -->
<g id="Node000003" class="node">
<title>Node3</title>
<g id="a_Node000003"><a xlink:href="classrtos_1_1EventFlags.html#ab116cd2d7ececd95692d7d072196e750" target="_top" xlink:title=" ">
<polygon fill="white" stroke="#666666" points="308,-560 167,-560 167,-541 308,-541 308,-560"/>
<text text-anchor="middle" x="237.5" y="-548" font-family="Helvetica,sans-Serif" font-size="10.00">rtos::EventFlags::awaitAll</text>
</a>
</g>
</g>
<!-- Node1&#45;&gt;Node3 -->
<g id="edge2_Node000001_Node000003" class="edge">
<title>Node1&#45;&gt;Node3</title>
<g id="a_edge2_Node000001_Node000003"><a xlink:title=" ">
<path fill="none" stroke="#63b8ff" d="M410.09,-334.87C401.53,-381.46 376.63,-480.64 314,-532.5 309.95,-535.85 305.39,-538.6 300.55,-540.85"/>
<polygon fill="#63b8ff" stroke="#63b8ff" points="413.59,-335.18 411.85,-324.73 406.69,-333.98 413.59,-335.18"/>
</a>
</g>
</g>
<!-- Node4 -->
<g id="Node000004" class="node">
<title>Node4</title>
<g id="a_Node000004"><a xlink:href="classrtos_1_1EventFlags.html#a50debabc2b39bedcae7ef5309d3936f1" target="_top" xlink:title=" ">
<polygon fill="white" stroke="#666666" points="311,-523 164,-523 164,-504 311,-504 311,-523"/>
<text text-anchor="middle" x="237.5" y="-511" font-family="Helvetica,sans-Serif" font-size="10.00">rtos::EventFlags::awaitAny</text>
</a>
</g>
</g>
<!-- Node1&#45;&gt;Node4 -->
<g id="edge3_Node000001_Node000004" class="edge">
<title>Node1&#45;&gt;Node4</title>
<g id="a_edge3_Node000001_Node000004"><a xlink:title=" ">
<path fill="none" stroke="#63b8ff" d="M407.76,-334.36C396.31,-374.67 368.02,-453.94 314,-495.5 309.62,-498.87 304.71,-501.62 299.54,-503.87"/>
<polygon fill="#63b8ff" stroke="#63b8ff" points="411.18,-335.11 410.43,-324.54 404.43,-333.27 411.18,-335.11"/>
</a>
</g>
</g>
<!-- Node5 -->
<g id="Node000005" class="node">
<title>Node5</title>
<g id="a_Node000005"><a xlink:href="classrtos_1_1EventFlags.html#a9c4644949dfc7976e94fa3b262f79d4c" target="_top" xlink:title=" ">
<polygon fill="white" stroke="#666666" points="300,-486 175,-486 175,-467 300,-467 300,-486"/>
<text text-anchor="middle" x="237.5" y="-474" font-family="Helvetica,sans-Serif" font-size="10.00">rtos::EventFlags::clear</text>
</a>
</g>
</g>
<!-- Node1&#45;&gt;Node5 -->
<g id="edge4_Node000001_Node000005" class="edge">
<title>Node1&#45;&gt;Node5</title>
<g id="a_edge4_Node000001_Node000005"><a xlink:title=" ">
<path fill="none" stroke="#63b8ff" d="M404.18,-334.49C389.66,-368.05 359.22,-427.1 314,-458.5 309.13,-461.88 303.7,-464.63 298.06,-466.87"/>
<polygon fill="#63b8ff" stroke="#63b8ff" points="407.54,-335.52 408.17,-324.95 401.08,-332.82 407.54,-335.52"/>
</a>
</g>
</g>
<!-- Node6 -->
<g id="Node000006" class="node">
<title>Node6</title>
<g id="a_Node000006"><a xlink:href="classrtos_1_1EventFlags.html#a388adf03e08b5dd485497583e05aca3a" target="_top" xlink:title=" ">
<polygon fill="white" stroke="#666666" points="296,-449 179,-449 179,-430 296,-430 296,-449"/>
<text text-anchor="middle" x="237.5" y="-437" font-family="Helvetica,sans-Serif" font-size="10.00">rtos::EventFlags::get</text>
</a>
</g>
</g>
<!-- Node1&#45;&gt;Node6 -->
<g id="edge5_Node000001_Node000006" class="edge">
<title>Node1&#45;&gt;Node6</title>
<g id="a_edge5_Node000001_Node000006"><a xlink:title=" ">
<path fill="none" stroke="#63b8ff" d="M399.23,-333.31C381.98,-359.07 351.04,-399.4 314,-421.5 308.21,-424.95 301.81,-427.74 295.25,-430"/>
<polygon fill="#63b8ff" stroke="#63b8ff" points="402.21,-335.15 404.75,-324.86 396.35,-331.32 402.21,-335.15"/>
</a>
</g>
</g>
<!-- Node9 -->
<g id="Node000009" class="node">
<title>Node9</title>
<g id="a_Node000009"><a xlink:href="classrtos_1_1Mutex.html#aed9d7b3d473537e335c572d85e847fc8" target="_top" xlink:title=" ">
<polygon fill="white" stroke="#666666" points="286.5,-412 188.5,-412 188.5,-393 286.5,-393 286.5,-412"/>
<text text-anchor="middle" x="237.5" y="-400" font-family="Helvetica,sans-Serif" font-size="10.00">rtos::Mutex::lock</text>
</a>
</g>
</g>
<!-- Node1&#45;&gt;Node9 -->
<g id="edge8_Node000001_Node000009" class="edge">
<title>Node1&#45;&gt;Node9</title>
<g id="a_edge8_Node000001_Node000009"><a xlink:title=" ">
<path fill="none" stroke="#63b8ff" d="M390.76,-331.34C371.57,-348.23 342.88,-370.95 314,-384.5 305.46,-388.51 295.95,-391.67 286.63,-394.15"/>
<polygon fill="#63b8ff" stroke="#63b8ff" points="393.27,-333.79 398.37,-324.5 388.59,-328.58 393.27,-333.79"/>
</a>
</g>
</g>
<!-- Node10 -->
<g id="Node000010" class="node">
<title>Node10</title>
<g id="a_Node000010"><a xlink:href="classrtos_1_1Task.html#aa207238bc81fd0592bf362edc2a0afca" target="_top" xlink:title=" ">
<polygon fill="white" stroke="#666666" points="289.5,-375 185.5,-375 185.5,-356 289.5,-356 289.5,-375"/>
<text text-anchor="middle" x="237.5" y="-363" font-family="Helvetica,sans-Serif" font-size="10.00">rtos::Task::priority</text>
</a>
</g>
</g>
<!-- Node1&#45;&gt;Node10 -->
<g id="edge9_Node000001_Node000010" class="edge">
<title>Node1&#45;&gt;Node10</title>
<g id="a_edge9_Node000001_Node000010"><a xlink:title=" ">
<path fill="none" stroke="#63b8ff" d="M368.21,-328.32C351.33,-334.88 331.95,-341.97 314,-347.5 303.95,-350.59 293.02,-353.47 282.67,-355.98"/>
<polygon fill="#63b8ff" stroke="#63b8ff" points="369.8,-331.46 377.82,-324.54 367.23,-324.95 369.8,-331.46"/>
</a>
</g>
</g>
<!-- Node12 -->
<g id="Node000012" class="node">
<title>Node12</title>
<g id="a_Node000012"><a xlink:href="classrtos_1_1Semaphore.html#ae6f1744be005de29b4c337e1bf08d470" target="_top" xlink:title=" ">
<polygon fill="white" stroke="#666666" points="307,-338 168,-338 168,-319 307,-319 307,-338"/>
<text text-anchor="middle" x="237.5" y="-326" font-family="Helvetica,sans-Serif" font-size="10.00">rtos::Semaphore::release</text>
</a>
</g>
</g>
<!-- Node1&#45;&gt;Node12 -->
<g id="edge11_Node000001_Node000012" class="edge">
<title>Node1&#45;&gt;Node12</title>
<g id="a_edge11_Node000001_Node000012"><a xlink:title=" ">
<path fill="none" stroke="#63b8ff" d="M339.5,-317.57C328.81,-318.72 317.85,-319.91 307.27,-321.05"/>
<polygon fill="#63b8ff" stroke="#63b8ff" points="340.08,-321.02 349.65,-316.47 339.33,-314.06 340.08,-321.02"/>
</a>
</g>
</g>
<!-- Node13 -->
<g id="Node000013" class="node">
<title>Node13</title>
<g id="a_Node000013"><a xlink:href="classrtos_1_1Task.html#a4f0a2bf046c926217760e4afbe5a8b1a" target="_top" xlink:title=" ">
<polygon fill="white" stroke="#666666" points="290.5,-301 184.5,-301 184.5,-282 290.5,-282 290.5,-301"/>
<text text-anchor="middle" x="237.5" y="-289" font-family="Helvetica,sans-Serif" font-size="10.00">rtos::Task::resume</text>
</a>
</g>
</g>
<!-- Node1&#45;&gt;Node13 -->
<g id="edge12_Node000001_Node000013" class="edge">
<title>Node1&#45;&gt;Node13</title>
<g id="a_edge12_Node000001_Node000013"><a xlink:title=" ">
<path fill="none" stroke="#63b8ff" d="M339.48,-301.86C322.99,-300.17 305.87,-298.41 290.5,-296.83"/>
<polygon fill="#63b8ff" stroke="#63b8ff" points="339.34,-305.36 349.65,-302.9 340.06,-298.4 339.34,-305.36"/>
</a>
</g>
</g>
<!-- Node14 -->
<g id="Node000014" class="node">
<title>Node14</title>
<g id="a_Node000014"><a xlink:href="classrtos_1_1EventFlags.html#ac6262ced9404c2f1a3987eea4b331ed0" target="_top" xlink:title=" ">
<polygon fill="white" stroke="#666666" points="295.5,-264 179.5,-264 179.5,-245 295.5,-245 295.5,-264"/>
<text text-anchor="middle" x="237.5" y="-252" font-family="Helvetica,sans-Serif" font-size="10.00">rtos::EventFlags::set</text>
</a>
</g>
</g>
<!-- Node1&#45;&gt;Node14 -->
<g id="edge13_Node000001_Node000014" class="edge">
<title>Node1&#45;&gt;Node14</title>
<g id="a_edge13_Node000001_Node000014"><a xlink:title=" ">
<path fill="none" stroke="#63b8ff" d="M365.11,-290.8C348.95,-284.92 330.81,-278.63 314,-273.5 302.88,-270.11 290.71,-266.85 279.45,-264.02"/>
<polygon fill="#63b8ff" stroke="#63b8ff" points="364.29,-294.23 374.88,-294.4 366.7,-287.66 364.29,-294.23"/>
</a>
</g>
</g>
<!-- Node15 -->
<g id="Node000015" class="node">
<title>Node15</title>
<g id="a_Node000015"><a xlink:href="classrtos_1_1Task.html#a9dafe565e8f67f1320dc18b9bfde88fe" target="_top" xlink:title=" ">
<polygon fill="white" stroke="#666666" points="285,-227 190,-227 190,-208 285,-208 285,-227"/>
<text text-anchor="middle" x="237.5" y="-215" font-family="Helvetica,sans-Serif" font-size="10.00">rtos::Task::sleep</text>
</a>
</g>
</g>
<!-- Node1&#45;&gt;Node15 -->
<g id="edge14_Node000001_Node000015" class="edge">
<title>Node1&#45;&gt;Node15</title>
<g id="a_edge14_Node000001_Node000015"><a xlink:title=" ">
<path fill="none" stroke="#63b8ff" d="M389.92,-287.78C370.65,-271.47 342.27,-249.76 314,-236.5 305.07,-232.31 295.09,-228.96 285.39,-226.32"/>
<polygon fill="#63b8ff" stroke="#63b8ff" points="387.73,-290.51 397.59,-294.39 392.3,-285.21 387.73,-290.51"/>
</a>
</g>
</g>
<!-- Node17 -->
<g id="Node000017" class="node">
<title>Node17</title>
<g id="a_Node000017"><a xlink:href="classrtos_1_1Semaphore.html#ae8d9dbad4634a1ff69f0dbee9e0ad553" target="_top" xlink:title=" ">
<polygon fill="white" stroke="#666666" points="314,-190 161,-190 161,-171 314,-171 314,-190"/>
<text text-anchor="middle" x="237.5" y="-178" font-family="Helvetica,sans-Serif" font-size="10.00">rtos::Semaphore::tryAcquire</text>
</a>
</g>
</g>
<!-- Node1&#45;&gt;Node17 -->
<g id="edge16_Node000001_Node000017" class="edge">
<title>Node1&#45;&gt;Node17</title>
<g id="a_edge16_Node000001_Node000017"><a xlink:title=" ">
<path fill="none" stroke="#63b8ff" d="M398.85,-285.87C381.43,-260.64 350.48,-221.35 314,-199.5 307.51,-195.61 300.24,-192.51 292.85,-190.05"/>
<polygon fill="#63b8ff" stroke="#63b8ff" points="396.15,-288.13 404.64,-294.47 401.96,-284.22 396.15,-288.13"/>
</a>
</g>
</g>
<!-- Node18 -->
<g id="Node000018" class="node">
<title>Node18</title>
<g id="a_Node000018"><a xlink:href="classrtos_1_1Mutex.html#addf641dce7f9248af60efc72a1c3e6ef" target="_top" xlink:title=" ">
<polygon fill="white" stroke="#666666" points="294.5,-153 180.5,-153 180.5,-134 294.5,-134 294.5,-153"/>
<text text-anchor="middle" x="237.5" y="-141" font-family="Helvetica,sans-Serif" font-size="10.00">rtos::Mutex::tryLock</text>
</a>
</g>
</g>
<!-- Node1&#45;&gt;Node18 -->
<g id="edge17_Node000001_Node000018" class="edge">
<title>Node1&#45;&gt;Node18</title>
<g id="a_edge17_Node000001_Node000018"><a xlink:title=" ">
<path fill="none" stroke="#63b8ff" d="M404.03,-284.93C389.34,-251.9 358.71,-193.75 314,-162.5 308.13,-158.4 301.45,-155.18 294.56,-152.65"/>
<polygon fill="#63b8ff" stroke="#63b8ff" points="400.9,-286.51 408.08,-294.31 407.33,-283.74 400.9,-286.51"/>
</a>
</g>
</g>
<!-- Node19 -->
<g id="Node000019" class="node">
<title>Node19</title>
<g id="a_Node000019"><a xlink:href="classrtos_1_1MessageQueue.html#a88aba7a35bda8c6023100b57744232a4" target="_top" xlink:title=" ">
<polygon fill="white" stroke="#666666" points="295.5,-115.5 179.5,-115.5 179.5,-85.5 295.5,-85.5 295.5,-115.5"/>
<text text-anchor="start" x="187.5" y="-103.5" font-family="Helvetica,sans-Serif" font-size="10.00">rtos::MessageQueue</text>
<text text-anchor="middle" x="237.5" y="-92.5" font-family="Helvetica,sans-Serif" font-size="10.00">::tryReceive</text>
</a>
</g>
</g>
<!-- Node1&#45;&gt;Node19 -->
<g id="edge18_Node000001_Node000019" class="edge">
<title>Node1&#45;&gt;Node19</title>
<g id="a_edge18_Node000001_Node000019"><a xlink:title=" ">
<path fill="none" stroke="#63b8ff" d="M407.09,-284.83C394.84,-245.5 365.59,-168.64 314,-125.5 308.6,-120.98 302.35,-117.27 295.81,-114.23"/>
<polygon fill="#63b8ff" stroke="#63b8ff" points="403.75,-285.85 409.97,-294.42 410.45,-283.84 403.75,-285.85"/>
</a>
</g>
</g>
<!-- Node21 -->
<g id="Node000021" class="node">
<title>Node21</title>
<g id="a_Node000021"><a xlink:href="classrtos_1_1MessageQueue.html#ab78416fbafa530b9a7fd8ca3eff7d403" target="_top" xlink:title=" ">
<polygon fill="white" stroke="#666666" points="295.5,-67.5 179.5,-67.5 179.5,-37.5 295.5,-37.5 295.5,-67.5"/>
<text text-anchor="start" x="187.5" y="-55.5" font-family="Helvetica,sans-Serif" font-size="10.00">rtos::MessageQueue</text>
<text text-anchor="middle" x="237.5" y="-44.5" font-family="Helvetica,sans-Serif" font-size="10.00">::trySend</text>
</a>
</g>
</g>
<!-- Node1&#45;&gt;Node21 -->
<g id="edge20_Node000001_Node000021" class="edge">
<title>Node1&#45;&gt;Node21</title>
<g id="a_edge20_Node000001_Node000021"><a xlink:title=" ">
<path fill="none" stroke="#63b8ff" d="M410.24,-284.46C401.8,-236.99 376.92,-133.56 314,-76.5 308.7,-71.7 302.44,-67.85 295.83,-64.78"/>
<polygon fill="#63b8ff" stroke="#63b8ff" points="406.82,-285.2 411.92,-294.48 413.72,-284.04 406.82,-285.2"/>
</a>
</g>
</g>
<!-- Node23 -->
<g id="Node000023" class="node">
<title>Node23</title>
<g id="a_Node000023"><a xlink:href="classrtos_1_1Mutex.html#a1783f9aa4c63a381c9dd5282e47330a6" target="_top" xlink:title=" ">
<polygon fill="white" stroke="#666666" points="292.5,-19 182.5,-19 182.5,0 292.5,0 292.5,-19"/>
<text text-anchor="middle" x="237.5" y="-7" font-family="Helvetica,sans-Serif" font-size="10.00">rtos::Mutex::unlock</text>
</a>
</g>
</g>
<!-- Node1&#45;&gt;Node23 -->
<g id="edge22_Node000001_Node000023" class="edge">
<title>Node1&#45;&gt;Node23</title>
<g id="a_edge22_Node000001_Node000023"><a xlink:title=" ">
<path fill="none" stroke="#63b8ff" d="M412.66,-284.06C408.35,-228.9 390.18,-97.74 314,-28.5 307.9,-22.95 300.42,-18.97 292.56,-16.12"/>
<polygon fill="#63b8ff" stroke="#63b8ff" points="409.19,-284.59 413.37,-294.33 416.18,-284.11 409.19,-284.59"/>
</a>
</g>
</g>
<!-- Node7 -->
<g id="Node000007" class="node">
<title>Node7</title>
<g id="a_Node000007"><a xlink:href="classrtos_1_1EventFlags.html#af22e5d379dd14fac839cfd289967d194" target="_top" xlink:title=" ">
<polygon fill="white" stroke="#666666" points="125,-467 0,-467 0,-448 125,-448 125,-467"/>
<text text-anchor="middle" x="62.5" y="-455" font-family="Helvetica,sans-Serif" font-size="10.00">rtos::EventFlags::isSet</text>
</a>
</g>
</g>
<!-- Node6&#45;&gt;Node7 -->
<g id="edge6_Node000006_Node000007" class="edge">
<title>Node6&#45;&gt;Node7</title>
<g id="a_edge6_Node000006_Node000007"><a xlink:title=" ">
<path fill="none" stroke="#63b8ff" d="M168.58,-446.57C154.21,-448.06 139.13,-449.63 125.01,-451.1"/>
<polygon fill="#63b8ff" stroke="#63b8ff" points="169.31,-450.01 178.89,-445.49 168.58,-443.05 169.31,-450.01"/>
</a>
</g>
</g>
<!-- Node8 -->
<g id="Node000008" class="node">
<title>Node8</title>
<g id="a_Node000008"><a xlink:href="classrtos_1_1EventFlags.html#a9574cf5cc66139268f7ea4cb980663d1" target="_top" xlink:title=" ">
<polygon fill="white" stroke="#666666" points="125,-430 0,-430 0,-411 125,-411 125,-430"/>
<text text-anchor="middle" x="62.5" y="-418" font-family="Helvetica,sans-Serif" font-size="10.00">rtos::EventFlags::isSet</text>
</a>
</g>
</g>
<!-- Node6&#45;&gt;Node8 -->
<g id="edge7_Node000006_Node000008" class="edge">
<title>Node6&#45;&gt;Node8</title>
<g id="a_edge7_Node000006_Node000008"><a xlink:title=" ">
<path fill="none" stroke="#63b8ff" d="M168.58,-432.04C154.21,-430.46 139.13,-428.81 125.01,-427.26"/>
<polygon fill="#63b8ff" stroke="#63b8ff" points="168.57,-435.56 178.89,-433.17 169.34,-428.6 168.57,-435.56"/>
</a>
</g>
</g>
<!-- Node11 -->
<g id="Node000011" class="node">
<title>Node11</title>
<g id="a_Node000011"><a xlink:href="classrtos_1_1Task.html#a95e8b278d6ce66d403b57e01a94be624" target="_top" xlink:title=" ">
<polygon fill="white" stroke="#666666" points="108,-375 17,-375 17,-356 108,-356 108,-375"/>
<text text-anchor="middle" x="62.5" y="-363" font-family="Helvetica,sans-Serif" font-size="10.00">rtos::Task::Task</text>
</a>
</g>
</g>
<!-- Node10&#45;&gt;Node11 -->
<g id="edge10_Node000010_Node000011" class="edge">
<title>Node10&#45;&gt;Node11</title>
<g id="a_edge10_Node000010_Node000011"><a xlink:title=" ">
<path fill="none" stroke="#63b8ff" d="M174.79,-365.5C152.73,-365.5 128.32,-365.5 108,-365.5"/>
<polygon fill="#63b8ff" stroke="#63b8ff" points="175.06,-369 185.06,-365.5 175.06,-362 175.06,-369"/>
</a>
</g>
</g>
<!-- Node16 -->
<g id="Node000016" class="node">
<title>Node16</title>
<g id="a_Node000016"><a xlink:href="classrtos_1_1Task.html#a18067e1a8d17e835aab11b7fa10c05d4" target="_top" xlink:title=" ">
<polygon fill="white" stroke="#666666" points="113,-227 12,-227 12,-208 113,-208 113,-227"/>
<text text-anchor="middle" x="62.5" y="-215" font-family="Helvetica,sans-Serif" font-size="10.00">rtos::Task::sleepS</text>
</a>
</g>
</g>
<!-- Node15&#45;&gt;Node16 -->
<g id="edge15_Node000015_Node000016" class="edge">
<title>Node15&#45;&gt;Node16</title>
<g id="a_edge15_Node000015_Node000016"><a xlink:title=" ">
<path fill="none" stroke="#63b8ff" d="M179.4,-217.5C157.96,-217.5 133.78,-217.5 113.08,-217.5"/>
<polygon fill="#63b8ff" stroke="#63b8ff" points="179.68,-221 189.68,-217.5 179.68,-214 179.68,-221"/>
</a>
</g>
</g>
<!-- Node20 -->
<g id="Node000020" class="node">
<title>Node20</title>
<g id="a_Node000020"><a xlink:href="classrtos_1_1MessageQueue.html#a595587ac6a72ea32cfe7188a35166f7c" target="_top" xlink:title=" ">
<polygon fill="white" stroke="#666666" points="120.5,-115.5 4.5,-115.5 4.5,-85.5 120.5,-85.5 120.5,-115.5"/>
<text text-anchor="start" x="12.5" y="-103.5" font-family="Helvetica,sans-Serif" font-size="10.00">rtos::MessageQueue</text>
<text text-anchor="middle" x="62.5" y="-92.5" font-family="Helvetica,sans-Serif" font-size="10.00">::receive</text>
</a>
</g>
</g>
<!-- Node19&#45;&gt;Node20 -->
<g id="edge19_Node000019_Node000020" class="edge">
<title>Node19&#45;&gt;Node20</title>
<g id="a_edge19_Node000019_Node000020"><a xlink:title=" ">
<path fill="none" stroke="#63b8ff" d="M169.01,-100.5C152.99,-100.5 136.06,-100.5 120.57,-100.5"/>
<polygon fill="#63b8ff" stroke="#63b8ff" points="169.37,-104 179.37,-100.5 169.37,-97 169.37,-104"/>
</a>
</g>
</g>
<!-- Node22 -->
<g id="Node000022" class="node">
<title>Node22</title>
<g id="a_Node000022"><a xlink:href="classrtos_1_1MessageQueue.html#a3e7a02bd3bdf2bebcb3ef832632f1a7e" target="_top" xlink:title=" ">
<polygon fill="white" stroke="#666666" points="120.5,-67.5 4.5,-67.5 4.5,-37.5 120.5,-37.5 120.5,-67.5"/>
<text text-anchor="start" x="12.5" y="-55.5" font-family="Helvetica,sans-Serif" font-size="10.00">rtos::MessageQueue</text>
<text text-anchor="middle" x="62.5" y="-44.5" font-family="Helvetica,sans-Serif" font-size="10.00">::send</text>
</a>
</g>
</g>
<!-- Node21&#45;&gt;Node22 -->
<g id="edge21_Node000021_Node000022" class="edge">
<title>Node21&#45;&gt;Node22</title>
<g id="a_edge21_Node000021_Node000022"><a xlink:title=" ">
<path fill="none" stroke="#63b8ff" d="M169.01,-52.5C152.99,-52.5 136.06,-52.5 120.57,-52.5"/>
<polygon fill="#63b8ff" stroke="#63b8ff" points="169.37,-56 179.37,-52.5 169.37,-49 169.37,-56"/>
</a>
</g>
</g>
</g>
</svg>
