<?xml version="1.0" encoding="UTF-8" standalone="no"?>
<!DOCTYPE svg PUBLIC "-//W3C//DTD SVG 1.1//EN"
 "http://www.w3.org/Graphics/SVG/1.1/DTD/svg11.dtd">
<!-- Generated by graphviz version 2.43.0 (0)
 -->
<!-- Title: components/rtos_cpp/include/rtos.h Pages: 1 -->
<!--zoomable 203 -->

<svg id="main" version="1.1" xmlns="http://www.w3.org/2000/svg" xmlns:xlink="http://www.w3.org/1999/xlink" xml:space="preserve" onload="init(evt)">
<style type="text/css"><![CDATA[
.node, .edge {opacity: 0.7;}
.node.selected, .edge.selected {opacity: 1;}
.edge:hover path { stroke: red; }
.edge:hover polygon { stroke: red; fill: red; }
]]></style>

<defs>
  <circle id="rim" cx="0" cy="0" r="7"/>
  <circle id="rim2" cx="0" cy="0" r="3.5"/>
  <g id="zoomPlus">
    <use xlink:href="#rim" fill="#404040"><set attributeName="fill" to="#808080" begin="zoomplus.mouseover" end="zoomplus.mouseout"/></use>
    <path d="M-4,0h8M0,-4v8" fill="none" stroke="white" stroke-width="1.5" pointer-events="none"/>
  </g>
  <g id="zoomMin">
    <use xlink:href="#rim" fill="#404040"><set attributeName="fill" to="#808080" begin="zoomminus.mouseover" end="zoomminus.mouseout"/></use>
    <path d="M-4,0h8" fill="none" stroke="white" stroke-width="1.5" pointer-events="none"/>
  </g>
  <g id="arrowUp" transform="translate(30 24)">
    <use xlink:href="#rim"/>
    <path pointer-events="none" fill="none" stroke="white" stroke-width="1.5" d="M0,-3.0v7 M-2.5,-0.5L0,-3.0L2.5,-0.5"/>
  </g>
  <g id="arrowRight" transform="rotate(90) translate(36 -43)">
    <use xlink:href="#rim"/>
    <path pointer-events="none" fill="none" stroke="white" stroke-width="1.5" d="M0,-3.0v7 M-2.5,-0.5L0,-3.0L2.5,-0.5"/>
  </g>
  <g id="arrowDown" transform="rotate(180) translate(-30 -48)">
    <use xlink:href="#rim"/>
    <path pointer-events="none" fill="none" stroke="white" stroke-width="1.5" d="M0,-3.0v7 M-2.5,-0.5L0,-3.0L2.5,-0.5"/>
  </g>
  <g id="arrowLeft" transform="rotate(270) translate(-36 17)">
    <use xlink:href="#rim"/>
    <path pointer-events="none" fill="none" stroke="white" stroke-width="1.5" d="M0,-3.0v7 M-2.5,-0.5L0,-3.0L2.5,-0.5"/>
  </g>
  <g id="resetDef">
    <use xlink:href="#rim2" fill="#404040"><set attributeName="fill" to="#808080" begin="reset.mouseover" end="reset.mouseout"/></use>
  </g>
</defs>
<script type="application/ecmascript">
var viewWidth = 1881;
var viewHeight = 203;
var sectionId = 'dynsection-0';
</script>
<script type="application/ecmascript" xlink:href="svg.min.js"/>
<svg id="graph" class="graph">
<g id="viewport">
<title>components/rtos_cpp/include/rtos.h</title>
<!-- Node1 -->
<g id="Node000001" class="node">
<title>Node1</title>
<g id="a_Node000001"><a xlink:title=" ">
<polygon fill="#999999" stroke="#666666" points="1156.9,-195 1035.9,-195 1035.9,-165 1156.9,-165 1156.9,-195"/>
<text text-anchor="start" x="1043.9" y="-183" font-family="Helvetica,sans-Serif" font-size="10.00">components/rtos_cpp</text>
<text text-anchor="middle" x="1096.4" y="-172" font-family="Helvetica,sans-Serif" font-size="10.00">/include/rtos.h</text>
</a>
</g>
</g>
<!-- Node2 -->
<g id="Node000002" class="node">
<title>Node2</title>
<g id="a_Node000002"><a xlink:href="EventFlags_8h.html" target="_top" xlink:title=" ">
<polygon fill="white" stroke="#666666" points="927.4,-129 847.4,-129 847.4,-110 927.4,-110 927.4,-129"/>
<text text-anchor="middle" x="887.4" y="-117" font-family="Helvetica,sans-Serif" font-size="10.00">EventFlags.h</text>
</a>
</g>
</g>
<!-- Node1&#45;&gt;Node2 -->
<g id="edge1_Node000001_Node000002" class="edge">
<title>Node1&#45;&gt;Node2</title>
<g id="a_edge1_Node000001_Node000002"><a xlink:title=" ">
<path fill="none" stroke="#63b8ff" d="M1046.34,-164.99C1010.11,-154.85 961.78,-141.32 927.96,-131.85"/>
<polygon fill="#63b8ff" stroke="#63b8ff" points="928.53,-128.38 917.96,-129.05 926.65,-135.12 928.53,-128.38"/>
</a>
</g>
</g>
<!-- Node4 -->
<g id="Node000004" class="node">
<title>Node4</title>
<g id="a_Node000004"><a xlink:title=" ">
<polygon fill="#e0e0e0" stroke="#999999" points="1276.9,-19 1163.9,-19 1163.9,0 1276.9,0 1276.9,-19"/>
<text text-anchor="middle" x="1220.4" y="-7" font-family="Helvetica,sans-Serif" font-size="10.00">freertos/FreeRTOS.h</text>
</a>
</g>
</g>
<!-- Node1&#45;&gt;Node4 -->
<g id="edge45_Node000001_Node000004" class="edge">
<title>Node1&#45;&gt;Node4</title>
<g id="a_edge45_Node000001_Node000004"><a xlink:title=" ">
<path fill="none" stroke="#63b8ff" d="M1128.19,-164.86C1160.92,-148.34 1210.07,-117.61 1231.4,-74 1238.38,-59.72 1234.23,-41.74 1229.15,-28.56"/>
<polygon fill="#63b8ff" stroke="#63b8ff" points="1232.27,-26.96 1225.07,-19.18 1225.85,-29.75 1232.27,-26.96"/>
</a>
</g>
</g>
<!-- Node6 -->
<g id="Node000006" class="node">
<title>Node6</title>
<g id="a_Node000006"><a xlink:title=" ">
<polygon fill="#e0e0e0" stroke="#999999" points="427.4,-19 377.4,-19 377.4,0 427.4,0 427.4,-19"/>
<text text-anchor="middle" x="402.4" y="-7" font-family="Helvetica,sans-Serif" font-size="10.00">cstdint</text>
</a>
</g>
</g>
<!-- Node1&#45;&gt;Node6 -->
<g id="edge46_Node000001_Node000006" class="edge">
<title>Node1&#45;&gt;Node6</title>
<g id="a_edge46_Node000001_Node000006"><a xlink:title=" ">
<path fill="none" stroke="#63b8ff" d="M1035.87,-177.96C816.53,-173.57 72.69,-152.91 5.4,-74 -42.6,-17.71 261.07,-11.1 366.95,-10.49"/>
<polygon fill="#63b8ff" stroke="#63b8ff" points="367.15,-13.99 377.14,-10.45 367.12,-6.99 367.15,-13.99"/>
</a>
</g>
</g>
<!-- Node12 -->
<g id="Node000012" class="node">
<title>Node12</title>
<g id="a_Node000012"><a xlink:href="MessageQueue_8h.html" target="_top" xlink:title=" ">
<polygon fill="white" stroke="#666666" points="1380.9,-129 1279.9,-129 1279.9,-110 1380.9,-110 1380.9,-129"/>
<text text-anchor="middle" x="1330.4" y="-117" font-family="Helvetica,sans-Serif" font-size="10.00">MessageQueue.h</text>
</a>
</g>
</g>
<!-- Node1&#45;&gt;Node12 -->
<g id="edge15_Node000001_Node000012" class="edge">
<title>Node1&#45;&gt;Node12</title>
<g id="a_edge15_Node000001_Node000012"><a xlink:title=" ">
<path fill="none" stroke="#63b8ff" d="M1152.45,-164.99C1193.53,-154.72 1248.53,-140.97 1286.45,-131.49"/>
<polygon fill="#63b8ff" stroke="#63b8ff" points="1287.33,-134.87 1296.19,-129.05 1285.64,-128.08 1287.33,-134.87"/>
</a>
</g>
</g>
<!-- Node18 -->
<g id="Node000018" class="node">
<title>Node18</title>
<g id="a_Node000018"><a xlink:href="Mutex_8h.html" target="_top" xlink:title=" ">
<polygon fill="white" stroke="#666666" points="524.4,-129 468.4,-129 468.4,-110 524.4,-110 524.4,-129"/>
<text text-anchor="middle" x="496.4" y="-117" font-family="Helvetica,sans-Serif" font-size="10.00">Mutex.h</text>
</a>
</g>
</g>
<!-- Node1&#45;&gt;Node18 -->
<g id="edge25_Node000001_Node000018" class="edge">
<title>Node1&#45;&gt;Node18</title>
<g id="a_edge25_Node000001_Node000018"><a xlink:title=" ">
<path fill="none" stroke="#63b8ff" d="M1035.85,-173.1C912.7,-161.09 636.18,-134.13 534.69,-124.23"/>
<polygon fill="#63b8ff" stroke="#63b8ff" points="534.88,-120.74 524.59,-123.25 534.2,-127.7 534.88,-120.74"/>
</a>
</g>
</g>
<!-- Node21 -->
<g id="Node000021" class="node">
<title>Node21</title>
<g id="a_Node000021"><a xlink:href="Semaphore_8h.html" target="_top" xlink:title=" ">
<polygon fill="white" stroke="#666666" points="439.9,-129 358.9,-129 358.9,-110 439.9,-110 439.9,-129"/>
<text text-anchor="middle" x="399.4" y="-117" font-family="Helvetica,sans-Serif" font-size="10.00">Semaphore.h</text>
</a>
</g>
</g>
<!-- Node1&#45;&gt;Node21 -->
<g id="edge30_Node000001_Node000021" class="edge">
<title>Node1&#45;&gt;Node21</title>
<g id="a_edge30_Node000001_Node000021"><a xlink:title=" ">
<path fill="none" stroke="#63b8ff" d="M1035.68,-175.5C922.25,-168.68 670.56,-152.22 459.4,-129 456.36,-128.67 453.24,-128.3 450.09,-127.91"/>
<polygon fill="#63b8ff" stroke="#63b8ff" points="450.39,-124.42 440.02,-126.6 449.49,-131.36 450.39,-124.42"/>
</a>
</g>
</g>
<!-- Node23 -->
<g id="Node000023" class="node">
<title>Node23</title>
<g id="a_Node000023"><a xlink:href="Task_8h.html" target="_top" xlink:title=" ">
<polygon fill="white" stroke="#666666" points="1576.9,-129 1529.9,-129 1529.9,-110 1576.9,-110 1576.9,-129"/>
<text text-anchor="middle" x="1553.4" y="-117" font-family="Helvetica,sans-Serif" font-size="10.00">Task.h</text>
</a>
</g>
</g>
<!-- Node1&#45;&gt;Node23 -->
<g id="edge35_Node000001_Node000023" class="edge">
<title>Node1&#45;&gt;Node23</title>
<g id="a_edge35_Node000001_Node000023"><a xlink:title=" ">
<path fill="none" stroke="#63b8ff" d="M1157.09,-171.23C1254.48,-158.76 1442.53,-134.69 1519.4,-124.85"/>
<polygon fill="#63b8ff" stroke="#63b8ff" points="1520.01,-128.3 1529.49,-123.56 1519.13,-121.36 1520.01,-128.3"/>
</a>
</g>
</g>
<!-- Node25 -->
<g id="Node000025" class="node">
<title>Node25</title>
<g id="a_Node000025"><a xlink:href="Timer_8h.html" target="_top" xlink:title=" ">
<polygon fill="white" stroke="#666666" points="1712.9,-129 1659.9,-129 1659.9,-110 1712.9,-110 1712.9,-129"/>
<text text-anchor="middle" x="1686.4" y="-117" font-family="Helvetica,sans-Serif" font-size="10.00">Timer.h</text>
</a>
</g>
</g>
<!-- Node1&#45;&gt;Node25 -->
<g id="edge40_Node000001_Node000025" class="edge">
<title>Node1&#45;&gt;Node25</title>
<g id="a_edge40_Node000001_Node000025"><a xlink:title=" ">
<path fill="none" stroke="#63b8ff" d="M1157.04,-172.99C1279.04,-160.89 1550.91,-133.93 1649.66,-124.14"/>
<polygon fill="#63b8ff" stroke="#63b8ff" points="1650.14,-127.61 1659.75,-123.14 1649.45,-120.65 1650.14,-127.61"/>
</a>
</g>
</g>
<!-- Node3 -->
<g id="Node000003" class="node">
<title>Node3</title>
<g id="a_Node000003"><a xlink:href="Core_8h.html" target="_top" xlink:title=" ">
<polygon fill="white" stroke="#666666" points="1222.9,-74 1155.9,-74 1155.9,-55 1222.9,-55 1222.9,-74"/>
<text text-anchor="middle" x="1189.4" y="-62" font-family="Helvetica,sans-Serif" font-size="10.00">util/Core.h</text>
</a>
</g>
</g>
<!-- Node2&#45;&gt;Node3 -->
<g id="edge2_Node000002_Node000003" class="edge">
<title>Node2&#45;&gt;Node3</title>
<g id="a_edge2_Node000002_Node000003"><a xlink:title=" ">
<path fill="none" stroke="#63b8ff" d="M927.44,-111.51C977.49,-102.76 1065.79,-87.32 1141.4,-74 1142.86,-73.74 1144.34,-73.48 1145.84,-73.22"/>
<polygon fill="#63b8ff" stroke="#63b8ff" points="1146.59,-76.64 1155.83,-71.45 1145.38,-69.75 1146.59,-76.64"/>
</a>
</g>
</g>
<!-- Node2&#45;&gt;Node4 -->
<g id="edge11_Node000002_Node000004" class="edge">
<title>Node2&#45;&gt;Node4</title>
<g id="a_edge11_Node000002_Node000004"><a xlink:title=" ">
<path fill="none" stroke="#63b8ff" d="M927.78,-114.17C972.71,-108.48 1046.95,-96.46 1107.4,-74 1125.59,-67.24 1170.58,-40.76 1197.98,-24.2"/>
<polygon fill="#63b8ff" stroke="#63b8ff" points="1199.81,-27.19 1206.54,-19.01 1196.18,-21.21 1199.81,-27.19"/>
</a>
</g>
</g>
<!-- Node5 -->
<g id="Node000005" class="node">
<title>Node5</title>
<g id="a_Node000005"><a xlink:href="Flags_8h.html" target="_top" xlink:title=" ">
<polygon fill="white" stroke="#666666" points="542.9,-74 471.9,-74 471.9,-55 542.9,-55 542.9,-74"/>
<text text-anchor="middle" x="507.4" y="-62" font-family="Helvetica,sans-Serif" font-size="10.00">util/Flags.h</text>
</a>
</g>
</g>
<!-- Node2&#45;&gt;Node5 -->
<g id="edge4_Node000002_Node000005" class="edge">
<title>Node2&#45;&gt;Node5</title>
<g id="a_edge4_Node000002_Node000005"><a xlink:title=" ">
<path fill="none" stroke="#63b8ff" d="M847.33,-113.9C786.23,-106.72 665.87,-91.96 553.39,-74.08"/>
<polygon fill="#63b8ff" stroke="#63b8ff" points="553.66,-70.58 543.23,-72.45 552.55,-77.49 553.66,-70.58"/>
</a>
</g>
</g>
<!-- Node7 -->
<g id="Node000007" class="node">
<title>Node7</title>
<g id="a_Node000007"><a xlink:title=" ">
<polygon fill="#e0e0e0" stroke="#999999" points="640.9,-19 557.9,-19 557.9,0 640.9,0 640.9,-19"/>
<text text-anchor="middle" x="599.4" y="-7" font-family="Helvetica,sans-Serif" font-size="10.00">initializer_list</text>
</a>
</g>
</g>
<!-- Node2&#45;&gt;Node7 -->
<g id="edge14_Node000002_Node000007" class="edge">
<title>Node2&#45;&gt;Node7</title>
<g id="a_edge14_Node000002_Node000007"><a xlink:title=" ">
<path fill="none" stroke="#63b8ff" d="M860.9,-109.99C834.33,-101.34 792.31,-87.35 756.4,-74 711.64,-57.36 660.48,-36.27 629.05,-23.08"/>
<polygon fill="#63b8ff" stroke="#63b8ff" points="630.15,-19.75 619.58,-19.09 627.44,-26.2 630.15,-19.75"/>
</a>
</g>
</g>
<!-- Node9 -->
<g id="Node000009" class="node">
<title>Node9</title>
<g id="a_Node000009"><a xlink:href="Types_8h.html" target="_top" xlink:title=" ">
<polygon fill="white" stroke="#666666" points="633.4,-74 561.4,-74 561.4,-55 633.4,-55 633.4,-74"/>
<text text-anchor="middle" x="597.4" y="-62" font-family="Helvetica,sans-Serif" font-size="10.00">util/Types.h</text>
</a>
</g>
</g>
<!-- Node2&#45;&gt;Node9 -->
<g id="edge8_Node000002_Node000009" class="edge">
<title>Node2&#45;&gt;Node9</title>
<g id="a_edge8_Node000002_Node000009"><a xlink:title=" ">
<path fill="none" stroke="#63b8ff" d="M847.38,-111.19C794.14,-101.46 700.19,-84.29 643.87,-73.99"/>
<polygon fill="#63b8ff" stroke="#63b8ff" points="644.28,-70.51 633.81,-72.15 643.02,-77.4 644.28,-70.51"/>
</a>
</g>
</g>
<!-- Node10 -->
<g id="Node000010" class="node">
<title>Node10</title>
<g id="a_Node000010"><a xlink:title=" ">
<polygon fill="#e0e0e0" stroke="#999999" points="898.9,-74 765.9,-74 765.9,-55 898.9,-55 898.9,-74"/>
<text text-anchor="middle" x="832.4" y="-62" font-family="Helvetica,sans-Serif" font-size="10.00">freertos/event_groups.h</text>
</a>
</g>
</g>
<!-- Node2&#45;&gt;Node10 -->
<g id="edge12_Node000002_Node000010" class="edge">
<title>Node2&#45;&gt;Node10</title>
<g id="a_edge12_Node000002_Node000010"><a xlink:title=" ">
<path fill="none" stroke="#63b8ff" d="M878.32,-109.75C870.31,-102.03 858.44,-90.6 848.78,-81.28"/>
<polygon fill="#63b8ff" stroke="#63b8ff" points="850.94,-78.51 841.31,-74.09 846.09,-83.55 850.94,-78.51"/>
</a>
</g>
</g>
<!-- Node11 -->
<g id="Node000011" class="node">
<title>Node11</title>
<g id="a_Node000011"><a xlink:title=" ">
<polygon fill="#e0e0e0" stroke="#999999" points="969.4,-74 917.4,-74 917.4,-55 969.4,-55 969.4,-74"/>
<text text-anchor="middle" x="943.4" y="-62" font-family="Helvetica,sans-Serif" font-size="10.00">cassert</text>
</a>
</g>
</g>
<!-- Node2&#45;&gt;Node11 -->
<g id="edge13_Node000002_Node000011" class="edge">
<title>Node2&#45;&gt;Node11</title>
<g id="a_edge13_Node000002_Node000011"><a xlink:title=" ">
<path fill="none" stroke="#63b8ff" d="M896.4,-109.98C904.59,-102.23 916.91,-90.58 926.87,-81.14"/>
<polygon fill="#63b8ff" stroke="#63b8ff" points="929.38,-83.59 934.24,-74.17 924.57,-78.5 929.38,-83.59"/>
</a>
</g>
</g>
<!-- Node3&#45;&gt;Node4 -->
<g id="edge3_Node000003_Node000004" class="edge">
<title>Node3&#45;&gt;Node4</title>
<g id="a_edge3_Node000003_Node000004"><a xlink:title=" ">
<path fill="none" stroke="#63b8ff" d="M1194.52,-54.75C1198.76,-47.49 1204.93,-36.95 1210.18,-27.98"/>
<polygon fill="#63b8ff" stroke="#63b8ff" points="1213.35,-29.49 1215.38,-19.09 1207.31,-25.95 1213.35,-29.49"/>
</a>
</g>
</g>
<!-- Node5&#45;&gt;Node6 -->
<g id="edge5_Node000005_Node000006" class="edge">
<title>Node5&#45;&gt;Node6</title>
<g id="a_edge5_Node000005_Node000006"><a xlink:title=" ">
<path fill="none" stroke="#63b8ff" d="M490.53,-54.98C473.79,-46.54 447.9,-33.47 428.51,-23.68"/>
<polygon fill="#63b8ff" stroke="#63b8ff" points="430.08,-20.55 419.58,-19.17 426.93,-26.8 430.08,-20.55"/>
</a>
</g>
</g>
<!-- Node5&#45;&gt;Node7 -->
<g id="edge6_Node000005_Node000007" class="edge">
<title>Node5&#45;&gt;Node7</title>
<g id="a_edge6_Node000005_Node000007"><a xlink:title=" ">
<path fill="none" stroke="#63b8ff" d="M522.18,-54.98C536.58,-46.69 558.71,-33.94 575.59,-24.22"/>
<polygon fill="#63b8ff" stroke="#63b8ff" points="577.43,-27.19 584.35,-19.17 573.94,-21.13 577.43,-27.19"/>
</a>
</g>
</g>
<!-- Node8 -->
<g id="Node000008" class="node">
<title>Node8</title>
<g id="a_Node000008"><a xlink:title=" ">
<polygon fill="#e0e0e0" stroke="#999999" points="539.9,-19 470.9,-19 470.9,0 539.9,0 539.9,-19"/>
<text text-anchor="middle" x="505.4" y="-7" font-family="Helvetica,sans-Serif" font-size="10.00">type_traits</text>
</a>
</g>
</g>
<!-- Node5&#45;&gt;Node8 -->
<g id="edge7_Node000005_Node000008" class="edge">
<title>Node5&#45;&gt;Node8</title>
<g id="a_edge7_Node000005_Node000008"><a xlink:title=" ">
<path fill="none" stroke="#63b8ff" d="M507.07,-54.75C506.81,-47.8 506.43,-37.85 506.1,-29.13"/>
<polygon fill="#63b8ff" stroke="#63b8ff" points="509.6,-28.95 505.72,-19.09 502.6,-29.21 509.6,-28.95"/>
</a>
</g>
</g>
<!-- Node9&#45;&gt;Node6 -->
<g id="edge9_Node000009_Node000006" class="edge">
<title>Node9&#45;&gt;Node6</title>
<g id="a_edge9_Node000009_Node000006"><a xlink:title=" ">
<path fill="none" stroke="#63b8ff" d="M566.07,-54.98C530.84,-45.41 473.79,-29.9 437.2,-19.96"/>
<polygon fill="#63b8ff" stroke="#63b8ff" points="438.02,-16.55 427.45,-17.31 436.19,-23.31 438.02,-16.55"/>
</a>
</g>
</g>
<!-- Node9&#45;&gt;Node7 -->
<g id="edge10_Node000009_Node000007" class="edge">
<title>Node9&#45;&gt;Node7</title>
<g id="a_edge10_Node000009_Node000007"><a xlink:title=" ">
<path fill="none" stroke="#63b8ff" d="M597.73,-54.75C597.99,-47.8 598.37,-37.85 598.7,-29.13"/>
<polygon fill="#63b8ff" stroke="#63b8ff" points="602.2,-29.21 599.08,-19.09 595.2,-28.95 602.2,-29.21"/>
</a>
</g>
</g>
<!-- Node12&#45;&gt;Node3 -->
<g id="edge20_Node000012_Node000003" class="edge">
<title>Node12&#45;&gt;Node3</title>
<g id="a_edge20_Node000012_Node000003"><a xlink:title=" ">
<path fill="none" stroke="#63b8ff" d="M1307.75,-109.98C1284.55,-101.27 1248.28,-87.63 1222,-77.75"/>
<polygon fill="#63b8ff" stroke="#63b8ff" points="1223.06,-74.41 1212.47,-74.17 1220.6,-80.97 1223.06,-74.41"/>
</a>
</g>
</g>
<!-- Node12&#45;&gt;Node4 -->
<g id="edge21_Node000012_Node000004" class="edge">
<title>Node12&#45;&gt;Node4</title>
<g id="a_edge21_Node000012_Node000004"><a xlink:title=" ">
<path fill="none" stroke="#63b8ff" d="M1347.37,-109.95C1368.8,-98 1401.1,-75.49 1385.4,-55 1373.13,-38.99 1327.35,-27.43 1287.11,-20.11"/>
<polygon fill="#63b8ff" stroke="#63b8ff" points="1287.48,-16.62 1277.02,-18.34 1286.27,-23.52 1287.48,-16.62"/>
</a>
</g>
</g>
<!-- Node13 -->
<g id="Node000013" class="node">
<title>Node13</title>
<g id="a_Node000013"><a xlink:href="IItemReceiver_8h.html" target="_top" xlink:title=" ">
<polygon fill="white" stroke="#666666" points="1098.9,-74 987.9,-74 987.9,-55 1098.9,-55 1098.9,-74"/>
<text text-anchor="middle" x="1043.4" y="-62" font-family="Helvetica,sans-Serif" font-size="10.00">api/IItemReceiver.h</text>
</a>
</g>
</g>
<!-- Node12&#45;&gt;Node13 -->
<g id="edge16_Node000012_Node000013" class="edge">
<title>Node12&#45;&gt;Node13</title>
<g id="a_edge16_Node000012_Node000013"><a xlink:title=" ">
<path fill="none" stroke="#63b8ff" d="M1284.29,-109.98C1234.12,-100.72 1153.89,-85.9 1099.96,-75.94"/>
<polygon fill="#63b8ff" stroke="#63b8ff" points="1100.34,-72.46 1089.87,-74.08 1099.07,-79.34 1100.34,-72.46"/>
</a>
</g>
</g>
<!-- Node14 -->
<g id="Node000014" class="node">
<title>Node14</title>
<g id="a_Node000014"><a xlink:href="IItemSender_8h.html" target="_top" xlink:title=" ">
<polygon fill="white" stroke="#666666" points="453.4,-74 351.4,-74 351.4,-55 453.4,-55 453.4,-74"/>
<text text-anchor="middle" x="402.4" y="-62" font-family="Helvetica,sans-Serif" font-size="10.00">api/IItemSender.h</text>
</a>
</g>
</g>
<!-- Node12&#45;&gt;Node14 -->
<g id="edge18_Node000012_Node000014" class="edge">
<title>Node12&#45;&gt;Node14</title>
<g id="a_edge18_Node000012_Node000014"><a xlink:title=" ">
<path fill="none" stroke="#63b8ff" d="M1279.9,-117.49C1147.65,-114.51 780.19,-104.05 463.72,-74.03"/>
<polygon fill="#63b8ff" stroke="#63b8ff" points="463.71,-70.51 453.43,-73.05 463.05,-77.48 463.71,-70.51"/>
</a>
</g>
</g>
<!-- Node15 -->
<g id="Node000015" class="node">
<title>Node15</title>
<g id="a_Node000015"><a xlink:title=" ">
<polygon fill="#e0e0e0" stroke="#999999" points="1376.9,-74 1279.9,-74 1279.9,-55 1376.9,-55 1376.9,-74"/>
<text text-anchor="middle" x="1328.4" y="-62" font-family="Helvetica,sans-Serif" font-size="10.00">freertos/queue.h</text>
</a>
</g>
</g>
<!-- Node12&#45;&gt;Node15 -->
<g id="edge22_Node000012_Node000015" class="edge">
<title>Node12&#45;&gt;Node15</title>
<g id="a_edge22_Node000012_Node000015"><a xlink:title=" ">
<path fill="none" stroke="#63b8ff" d="M1330.07,-109.75C1329.81,-102.8 1329.43,-92.85 1329.1,-84.13"/>
<polygon fill="#63b8ff" stroke="#63b8ff" points="1332.6,-83.95 1328.72,-74.09 1325.6,-84.21 1332.6,-83.95"/>
</a>
</g>
</g>
<!-- Node16 -->
<g id="Node000016" class="node">
<title>Node16</title>
<g id="a_Node000016"><a xlink:title=" ">
<polygon fill="#e0e0e0" stroke="#999999" points="1718.9,-74 1653.9,-74 1653.9,-55 1718.9,-55 1718.9,-74"/>
<text text-anchor="middle" x="1686.4" y="-62" font-family="Helvetica,sans-Serif" font-size="10.00">functional</text>
</a>
</g>
</g>
<!-- Node12&#45;&gt;Node16 -->
<g id="edge23_Node000012_Node000016" class="edge">
<title>Node12&#45;&gt;Node16</title>
<g id="a_edge23_Node000012_Node000016"><a xlink:title=" ">
<path fill="none" stroke="#63b8ff" d="M1381.03,-110.96C1451.36,-100.49 1577.42,-81.72 1643.42,-71.9"/>
<polygon fill="#63b8ff" stroke="#63b8ff" points="1644.11,-75.34 1653.48,-70.4 1643.08,-68.41 1644.11,-75.34"/>
</a>
</g>
</g>
<!-- Node17 -->
<g id="Node000017" class="node">
<title>Node17</title>
<g id="a_Node000017"><a xlink:title=" ">
<polygon fill="#e0e0e0" stroke="#999999" points="1491.4,-74 1433.4,-74 1433.4,-55 1491.4,-55 1491.4,-74"/>
<text text-anchor="middle" x="1462.4" y="-62" font-family="Helvetica,sans-Serif" font-size="10.00">memory</text>
</a>
</g>
</g>
<!-- Node12&#45;&gt;Node17 -->
<g id="edge24_Node000012_Node000017" class="edge">
<title>Node12&#45;&gt;Node17</title>
<g id="a_edge24_Node000012_Node000017"><a xlink:title=" ">
<path fill="none" stroke="#63b8ff" d="M1351.61,-109.98C1373.13,-101.34 1406.68,-87.87 1431.23,-78.02"/>
<polygon fill="#63b8ff" stroke="#63b8ff" points="1432.83,-81.14 1440.81,-74.17 1430.22,-74.65 1432.83,-81.14"/>
</a>
</g>
</g>
<!-- Node13&#45;&gt;Node6 -->
<g id="edge17_Node000013_Node000006" class="edge">
<title>Node13&#45;&gt;Node6</title>
<g id="a_edge17_Node000013_Node000006"><a xlink:title=" ">
<path fill="none" stroke="#63b8ff" d="M987.76,-56C984.59,-55.64 981.46,-55.31 978.4,-55 749.21,-32.06 690.43,-43.44 461.4,-19 453.67,-18.18 445.4,-17.1 437.57,-16"/>
<polygon fill="#63b8ff" stroke="#63b8ff" points="438.01,-12.53 427.61,-14.55 437.01,-19.45 438.01,-12.53"/>
</a>
</g>
</g>
<!-- Node14&#45;&gt;Node6 -->
<g id="edge19_Node000014_Node000006" class="edge">
<title>Node14&#45;&gt;Node6</title>
<g id="a_edge19_Node000014_Node000006"><a xlink:title=" ">
<path fill="none" stroke="#63b8ff" d="M402.4,-54.75C402.4,-47.8 402.4,-37.85 402.4,-29.13"/>
<polygon fill="#63b8ff" stroke="#63b8ff" points="405.9,-29.09 402.4,-19.09 398.9,-29.09 405.9,-29.09"/>
</a>
</g>
</g>
<!-- Node18&#45;&gt;Node4 -->
<g id="edge28_Node000018_Node000004" class="edge">
<title>Node18&#45;&gt;Node4</title>
<g id="a_edge28_Node000018_Node000004"><a xlink:title=" ">
<path fill="none" stroke="#63b8ff" d="M524.68,-111.48C589.64,-95.36 744.83,-56.96 756.4,-55 896.62,-31.28 1062.97,-19.16 1153.51,-13.89"/>
<polygon fill="#63b8ff" stroke="#63b8ff" points="1153.85,-17.37 1163.63,-13.31 1153.45,-10.38 1153.85,-17.37"/>
</a>
</g>
</g>
<!-- Node19 -->
<g id="Node000019" class="node">
<title>Node19</title>
<g id="a_Node000019"><a xlink:href="IMutex_8h.html" target="_top" xlink:title=" ">
<polygon fill="white" stroke="#666666" points="332.9,-74 255.9,-74 255.9,-55 332.9,-55 332.9,-74"/>
<text text-anchor="middle" x="294.4" y="-62" font-family="Helvetica,sans-Serif" font-size="10.00">api/IMutex.h</text>
</a>
</g>
</g>
<!-- Node18&#45;&gt;Node19 -->
<g id="edge26_Node000018_Node000019" class="edge">
<title>Node18&#45;&gt;Node19</title>
<g id="a_edge26_Node000018_Node000019"><a xlink:title=" ">
<path fill="none" stroke="#63b8ff" d="M468.31,-111.13C434.21,-102.18 376.35,-87 336.81,-76.63"/>
<polygon fill="#63b8ff" stroke="#63b8ff" points="337.49,-73.19 326.93,-74.03 335.71,-79.96 337.49,-73.19"/>
</a>
</g>
</g>
<!-- Node20 -->
<g id="Node000020" class="node">
<title>Node20</title>
<g id="a_Node000020"><a xlink:title=" ">
<polygon fill="#e0e0e0" stroke="#999999" points="237.9,-74 134.9,-74 134.9,-55 237.9,-55 237.9,-74"/>
<text text-anchor="middle" x="186.4" y="-62" font-family="Helvetica,sans-Serif" font-size="10.00">freertos/semphr.h</text>
</a>
</g>
</g>
<!-- Node18&#45;&gt;Node20 -->
<g id="edge29_Node000018_Node000020" class="edge">
<title>Node18&#45;&gt;Node20</title>
<g id="a_edge29_Node000018_Node000020"><a xlink:title=" ">
<path fill="none" stroke="#63b8ff" d="M468.23,-113.48C461.72,-112.33 454.82,-111.11 448.4,-110 379.43,-98.04 300.18,-84.62 247.07,-75.68"/>
<polygon fill="#63b8ff" stroke="#63b8ff" points="247.58,-72.22 237.13,-74.01 246.42,-79.12 247.58,-72.22"/>
</a>
</g>
</g>
<!-- Node19&#45;&gt;Node6 -->
<g id="edge27_Node000019_Node000006" class="edge">
<title>Node19&#45;&gt;Node6</title>
<g id="a_edge27_Node000019_Node000006"><a xlink:title=" ">
<path fill="none" stroke="#63b8ff" d="M311.75,-54.98C328.97,-46.54 355.6,-33.47 375.55,-23.68"/>
<polygon fill="#63b8ff" stroke="#63b8ff" points="377.3,-26.72 384.73,-19.17 374.21,-20.43 377.3,-26.72"/>
</a>
</g>
</g>
<!-- Node21&#45;&gt;Node4 -->
<g id="edge33_Node000021_Node000004" class="edge">
<title>Node21&#45;&gt;Node4</title>
<g id="a_edge33_Node000021_Node000004"><a xlink:title=" ">
<path fill="none" stroke="#63b8ff" d="M440.35,-112.66C499.53,-103.94 605.88,-87.14 642.4,-74 658.69,-68.14 659.84,-60.04 676.4,-55 763.8,-28.38 1028.18,-16.62 1153.34,-12.43"/>
<polygon fill="#63b8ff" stroke="#63b8ff" points="1153.68,-15.92 1163.56,-12.09 1153.45,-8.92 1153.68,-15.92"/>
</a>
</g>
</g>
<!-- Node21&#45;&gt;Node20 -->
<g id="edge34_Node000021_Node000020" class="edge">
<title>Node21&#45;&gt;Node20</title>
<g id="a_edge34_Node000021_Node000020"><a xlink:title=" ">
<path fill="none" stroke="#63b8ff" d="M365.18,-109.98C328.64,-100.89 270.62,-86.46 230.64,-76.51"/>
<polygon fill="#63b8ff" stroke="#63b8ff" points="231.44,-73.1 220.89,-74.08 229.75,-79.89 231.44,-73.1"/>
</a>
</g>
</g>
<!-- Node22 -->
<g id="Node000022" class="node">
<title>Node22</title>
<g id="a_Node000022"><a xlink:href="ISemaphore_8h.html" target="_top" xlink:title=" ">
<polygon fill="white" stroke="#666666" points="116.4,-74 14.4,-74 14.4,-55 116.4,-55 116.4,-74"/>
<text text-anchor="middle" x="65.4" y="-62" font-family="Helvetica,sans-Serif" font-size="10.00">api/ISemaphore.h</text>
</a>
</g>
</g>
<!-- Node21&#45;&gt;Node22 -->
<g id="edge31_Node000021_Node000022" class="edge">
<title>Node21&#45;&gt;Node22</title>
<g id="a_edge31_Node000021_Node000022"><a xlink:title=" ">
<path fill="none" stroke="#63b8ff" d="M358.78,-112.05C300.9,-102.87 194.26,-85.95 126.73,-75.23"/>
<polygon fill="#63b8ff" stroke="#63b8ff" points="127.08,-71.74 116.65,-73.63 125.98,-78.66 127.08,-71.74"/>
</a>
</g>
</g>
<!-- Node22&#45;&gt;Node6 -->
<g id="edge32_Node000022_Node000006" class="edge">
<title>Node22&#45;&gt;Node6</title>
<g id="a_edge32_Node000022_Node000006"><a xlink:title=" ">
<path fill="none" stroke="#63b8ff" d="M116.58,-55.45C185.72,-44.58 307.16,-25.48 367.01,-16.07"/>
<polygon fill="#63b8ff" stroke="#63b8ff" points="367.77,-19.49 377.1,-14.48 366.68,-12.58 367.77,-19.49"/>
</a>
</g>
</g>
<!-- Node23&#45;&gt;Node4 -->
<g id="edge36_Node000023_Node000004" class="edge">
<title>Node23&#45;&gt;Node4</title>
<g id="a_edge36_Node000023_Node000004"><a xlink:title=" ">
<path fill="none" stroke="#63b8ff" d="M1569.54,-109.93C1590.78,-97.59 1623.5,-74.19 1606.4,-55 1585.58,-31.64 1392.12,-18.76 1287.24,-13.45"/>
<polygon fill="#63b8ff" stroke="#63b8ff" points="1287.23,-9.94 1277.07,-12.94 1286.89,-16.93 1287.23,-9.94"/>
</a>
</g>
</g>
<!-- Node23&#45;&gt;Node16 -->
<g id="edge38_Node000023_Node000016" class="edge">
<title>Node23&#45;&gt;Node16</title>
<g id="a_edge38_Node000023_Node000016"><a xlink:title=" ">
<path fill="none" stroke="#63b8ff" d="M1574.77,-109.98C1596.55,-101.3 1630.56,-87.75 1655.32,-77.88"/>
<polygon fill="#63b8ff" stroke="#63b8ff" points="1656.65,-81.12 1664.64,-74.17 1654.06,-74.62 1656.65,-81.12"/>
</a>
</g>
</g>
<!-- Node23&#45;&gt;Node17 -->
<g id="edge39_Node000023_Node000017" class="edge">
<title>Node23&#45;&gt;Node17</title>
<g id="a_edge39_Node000023_Node000017"><a xlink:title=" ">
<path fill="none" stroke="#63b8ff" d="M1538.78,-109.98C1524.54,-101.69 1502.65,-88.94 1485.95,-79.22"/>
<polygon fill="#63b8ff" stroke="#63b8ff" points="1487.69,-76.18 1477.29,-74.17 1484.17,-82.23 1487.69,-76.18"/>
</a>
</g>
</g>
<!-- Node24 -->
<g id="Node000024" class="node">
<title>Node24</title>
<g id="a_Node000024"><a xlink:title=" ">
<polygon fill="#e0e0e0" stroke="#999999" points="1597.4,-74 1509.4,-74 1509.4,-55 1597.4,-55 1597.4,-74"/>
<text text-anchor="middle" x="1553.4" y="-62" font-family="Helvetica,sans-Serif" font-size="10.00">freertos/task.h</text>
</a>
</g>
</g>
<!-- Node23&#45;&gt;Node24 -->
<g id="edge37_Node000023_Node000024" class="edge">
<title>Node23&#45;&gt;Node24</title>
<g id="a_edge37_Node000023_Node000024"><a xlink:title=" ">
<path fill="none" stroke="#63b8ff" d="M1553.4,-109.75C1553.4,-102.8 1553.4,-92.85 1553.4,-84.13"/>
<polygon fill="#63b8ff" stroke="#63b8ff" points="1556.9,-84.09 1553.4,-74.09 1549.9,-84.09 1556.9,-84.09"/>
</a>
</g>
</g>
<!-- Node25&#45;&gt;Node4 -->
<g id="edge41_Node000025_Node000004" class="edge">
<title>Node25&#45;&gt;Node4</title>
<g id="a_edge41_Node000025_Node000004"><a xlink:title=" ">
<path fill="none" stroke="#63b8ff" d="M1699.26,-109.88C1716.87,-97.08 1744.56,-72.64 1728.4,-55 1699.18,-23.1 1418.45,-13.97 1287.3,-11.44"/>
<polygon fill="#63b8ff" stroke="#63b8ff" points="1287.04,-7.93 1276.98,-11.25 1286.91,-14.93 1287.04,-7.93"/>
</a>
</g>
</g>
<!-- Node25&#45;&gt;Node16 -->
<g id="edge43_Node000025_Node000016" class="edge">
<title>Node25&#45;&gt;Node16</title>
<g id="a_edge43_Node000025_Node000016"><a xlink:title=" ">
<path fill="none" stroke="#63b8ff" d="M1686.4,-109.75C1686.4,-102.8 1686.4,-92.85 1686.4,-84.13"/>
<polygon fill="#63b8ff" stroke="#63b8ff" points="1689.9,-84.09 1686.4,-74.09 1682.9,-84.09 1689.9,-84.09"/>
</a>
</g>
</g>
<!-- Node25&#45;&gt;Node17 -->
<g id="edge44_Node000025_Node000017" class="edge">
<title>Node25&#45;&gt;Node17</title>
<g id="a_edge44_Node000025_Node000017"><a xlink:title=" ">
<path fill="none" stroke="#63b8ff" d="M1659.83,-112.21C1620.5,-102.91 1546.58,-85.42 1501.2,-74.68"/>
<polygon fill="#63b8ff" stroke="#63b8ff" points="1501.95,-71.26 1491.42,-72.37 1500.34,-78.07 1501.95,-71.26"/>
</a>
</g>
</g>
<!-- Node26 -->
<g id="Node000026" class="node">
<title>Node26</title>
<g id="a_Node000026"><a xlink:title=" ">
<polygon fill="#e0e0e0" stroke="#999999" points="1873.4,-74 1775.4,-74 1775.4,-55 1873.4,-55 1873.4,-74"/>
<text text-anchor="middle" x="1824.4" y="-62" font-family="Helvetica,sans-Serif" font-size="10.00">freertos/timers.h</text>
</a>
</g>
</g>
<!-- Node25&#45;&gt;Node26 -->
<g id="edge42_Node000025_Node000026" class="edge">
<title>Node25&#45;&gt;Node26</title>
<g id="a_edge42_Node000025_Node000026"><a xlink:title=" ">
<path fill="none" stroke="#63b8ff" d="M1708.57,-109.98C1731.17,-101.3 1766.46,-87.75 1792.15,-77.88"/>
<polygon fill="#63b8ff" stroke="#63b8ff" points="1793.74,-81.02 1801.82,-74.17 1791.23,-74.49 1793.74,-81.02"/>
</a>
</g>
</g>
</g>
</svg>

<g id="navigator" transform="translate(0 0)" fill="#404254">
  <rect fill="#f2f5e9" fill-opacity="0.5" stroke="#606060" stroke-width=".5" x="0" y="0" width="60" height="60"/>
  <use id="zoomplus" xlink:href="#zoomPlus" x="17" y="9" onmousedown="handleZoom(evt,'in')"/>
  <use id="zoomminus" xlink:href="#zoomMin" x="42" y="9" onmousedown="handleZoom(evt,'out')"/>
  <use id="reset" xlink:href="#resetDef" x="30" y="36" onmousedown="handleReset()"/>
   <use id="arrowup" xlink:href="#arrowUp" x="0" y="0" onmousedown="handlePan(0,-1)"/>
  <use id="arrowright" xlink:href="#arrowRight" x="0" y="0" onmousedown="handlePan(1,0)"/>
  <use id="arrowdown" xlink:href="#arrowDown" x="0" y="0" onmousedown="handlePan(0,1)"/>
  <use id="arrowleft" xlink:href="#arrowLeft" x="0" y="0" onmousedown="handlePan(-1,0)"/>
</g>
<svg viewBox="0 0 15 15" width="100%" height="30px" preserveAspectRatio="xMaxYMin meet">
 <g id="arrow_out" transform="scale(0.3 0.3)">
  <a xlink:href="rtos_8h__incl_org.svg" target="_base">
   <rect id="button" ry="5" rx="5" y="6" x="6" height="38" width="38"
        fill="#f2f5e9" fill-opacity="0.5" stroke="#606060" stroke-width="1.0"/>
   <path id="arrow"
     d="M 11.500037,31.436501 C 11.940474,20.09759 22.043105,11.32322 32.158766,21.979434 L 37.068811,17.246167 C 37.068811,17.246167 37.088388,32 37.088388,32 L 22.160133,31.978069 C 22.160133,31.978069 26.997745,27.140456 26.997745,27.140456 C 18.528582,18.264221 13.291696,25.230495 11.500037,31.436501 z"
     style="fill:#404040;"/>
  </a>
 </g>
</svg>

<style type='text/css'>
<![CDATA[
[data-mouse-over-selected='false'] { opacity: 0.7; }
[data-mouse-over-selected='true']  { opacity: 1.0; }
]]>
</style>
<script type="application/ecmascript"><![CDATA[
document.addEventListener('DOMContentLoaded', (event) => {
  highlightEdges();
  highlightAdjacentNodes();
});
]]></script>
</svg>
