<?xml version="1.0" encoding="UTF-8" standalone="no"?>
<!DOCTYPE svg PUBLIC "-//W3C//DTD SVG 1.1//EN"
 "http://www.w3.org/Graphics/SVG/1.1/DTD/svg11.dtd">
<!-- Generated by graphviz version 2.43.0 (0)
 -->
<!-- Title: components/rtos_cpp/src/rtos.cpp Pages: 1 -->
<!--zoomable 258 -->

<svg id="main" version="1.1" xmlns="http://www.w3.org/2000/svg" xmlns:xlink="http://www.w3.org/1999/xlink" xml:space="preserve" onload="init(evt)">
<style type="text/css"><![CDATA[
.node, .edge {opacity: 0.7;}
.node.selected, .edge.selected {opacity: 1;}
.edge:hover path { stroke: red; }
.edge:hover polygon { stroke: red; fill: red; }
]]></style>

<defs>
  <circle id="rim" cx="0" cy="0" r="7"/>
  <circle id="rim2" cx="0" cy="0" r="3.5"/>
  <g id="zoomPlus">
    <use xlink:href="#rim" fill="#404040"><set attributeName="fill" to="#808080" begin="zoomplus.mouseover" end="zoomplus.mouseout"/></use>
    <path d="M-4,0h8M0,-4v8" fill="none" stroke="white" stroke-width="1.5" pointer-events="none"/>
  </g>
  <g id="zoomMin">
    <use xlink:href="#rim" fill="#404040"><set attributeName="fill" to="#808080" begin="zoomminus.mouseover" end="zoomminus.mouseout"/></use>
    <path d="M-4,0h8" fill="none" stroke="white" stroke-width="1.5" pointer-events="none"/>
  </g>
  <g id="arrowUp" transform="translate(30 24)">
    <use xlink:href="#rim"/>
    <path pointer-events="none" fill="none" stroke="white" stroke-width="1.5" d="M0,-3.0v7 M-2.5,-0.5L0,-3.0L2.5,-0.5"/>
  </g>
  <g id="arrowRight" transform="rotate(90) translate(36 -43)">
    <use xlink:href="#rim"/>
    <path pointer-events="none" fill="none" stroke="white" stroke-width="1.5" d="M0,-3.0v7 M-2.5,-0.5L0,-3.0L2.5,-0.5"/>
  </g>
  <g id="arrowDown" transform="rotate(180) translate(-30 -48)">
    <use xlink:href="#rim"/>
    <path pointer-events="none" fill="none" stroke="white" stroke-width="1.5" d="M0,-3.0v7 M-2.5,-0.5L0,-3.0L2.5,-0.5"/>
  </g>
  <g id="arrowLeft" transform="rotate(270) translate(-36 17)">
    <use xlink:href="#rim"/>
    <path pointer-events="none" fill="none" stroke="white" stroke-width="1.5" d="M0,-3.0v7 M-2.5,-0.5L0,-3.0L2.5,-0.5"/>
  </g>
  <g id="resetDef">
    <use xlink:href="#rim2" fill="#404040"><set attributeName="fill" to="#808080" begin="reset.mouseover" end="reset.mouseout"/></use>
  </g>
</defs>
<script type="application/ecmascript">
var viewWidth = 1914;
var viewHeight = 258;
var sectionId = 'dynsection-0';
</script>
<script type="application/ecmascript" xlink:href="svg.min.js"/>
<svg id="graph" class="graph">
<g id="viewport">
<title>components/rtos_cpp/src/rtos.cpp</title>
<!-- Node1 -->
<g id="Node000001" class="node">
<title>Node1</title>
<g id="a_Node000001"><a xlink:title=" ">
<polygon fill="#999999" stroke="#666666" points="1634,-250 1513,-250 1513,-220 1634,-220 1634,-250"/>
<text text-anchor="start" x="1521" y="-238" font-family="Helvetica,sans-Serif" font-size="10.00">components/rtos_cpp</text>
<text text-anchor="middle" x="1573.5" y="-227" font-family="Helvetica,sans-Serif" font-size="10.00">/src/rtos.cpp</text>
</a>
</g>
</g>
<!-- Node2 -->
<g id="Node000002" class="node">
<title>Node2</title>
<g id="a_Node000002"><a xlink:href="rtos_8h.html" target="_top" xlink:title=" ">
<polygon fill="white" stroke="#666666" points="1342.5,-184 1298.5,-184 1298.5,-165 1342.5,-165 1342.5,-184"/>
<text text-anchor="middle" x="1320.5" y="-172" font-family="Helvetica,sans-Serif" font-size="10.00">rtos.h</text>
</a>
</g>
</g>
<!-- Node1&#45;&gt;Node2 -->
<g id="edge1_Node000001_Node000002" class="edge">
<title>Node1&#45;&gt;Node2</title>
<g id="a_edge1_Node000001_Node000002"><a xlink:title=" ">
<path fill="none" stroke="#63b8ff" d="M1512.9,-219.99C1462.47,-208.33 1392.65,-192.18 1352.47,-182.89"/>
<polygon fill="#63b8ff" stroke="#63b8ff" points="1353.21,-179.47 1342.68,-180.63 1351.63,-186.29 1353.21,-179.47"/>
</a>
</g>
</g>
<!-- Node25 -->
<g id="Node000025" class="node">
<title>Node25</title>
<g id="a_Node000025"><a xlink:title=" ">
<polygon fill="#e0e0e0" stroke="#999999" points="1905.5,-74 1817.5,-74 1817.5,-55 1905.5,-55 1905.5,-74"/>
<text text-anchor="middle" x="1861.5" y="-62" font-family="Helvetica,sans-Serif" font-size="10.00">freertos/task.h</text>
</a>
</g>
</g>
<!-- Node1&#45;&gt;Node25 -->
<g id="edge48_Node000001_Node000025" class="edge">
<title>Node1&#45;&gt;Node25</title>
<g id="a_edge48_Node000001_Node000025"><a xlink:title=" ">
<path fill="none" stroke="#63b8ff" d="M1597.56,-219.92C1652.02,-188.06 1784.16,-110.75 1838.04,-79.23"/>
<polygon fill="#63b8ff" stroke="#63b8ff" points="1840,-82.13 1846.86,-74.06 1836.47,-76.09 1840,-82.13"/>
</a>
</g>
</g>
<!-- Node3 -->
<g id="Node000003" class="node">
<title>Node3</title>
<g id="a_Node000003"><a xlink:href="EventFlags_8h.html" target="_top" xlink:title=" ">
<polygon fill="white" stroke="#666666" points="349.5,-129 269.5,-129 269.5,-110 349.5,-110 349.5,-129"/>
<text text-anchor="middle" x="309.5" y="-117" font-family="Helvetica,sans-Serif" font-size="10.00">EventFlags.h</text>
</a>
</g>
</g>
<!-- Node2&#45;&gt;Node3 -->
<g id="edge2_Node000002_Node000003" class="edge">
<title>Node2&#45;&gt;Node3</title>
<g id="a_edge2_Node000002_Node000003"><a xlink:title=" ">
<path fill="none" stroke="#63b8ff" d="M1298.44,-172.34C1172.46,-165.74 543.12,-132.75 359.72,-123.13"/>
<polygon fill="#63b8ff" stroke="#63b8ff" points="359.72,-119.63 349.56,-122.6 359.36,-126.62 359.72,-119.63"/>
</a>
</g>
</g>
<!-- Node5 -->
<g id="Node000005" class="node">
<title>Node5</title>
<g id="a_Node000005"><a xlink:title=" ">
<polygon fill="#e0e0e0" stroke="#999999" points="1377,-19 1264,-19 1264,0 1377,0 1377,-19"/>
<text text-anchor="middle" x="1320.5" y="-7" font-family="Helvetica,sans-Serif" font-size="10.00">freertos/FreeRTOS.h</text>
</a>
</g>
</g>
<!-- Node2&#45;&gt;Node5 -->
<g id="edge46_Node000002_Node000005" class="edge">
<title>Node2&#45;&gt;Node5</title>
<g id="a_edge46_Node000002_Node000005"><a xlink:title=" ">
<path fill="none" stroke="#63b8ff" d="M1342.65,-173.94C1418.3,-175.01 1665.16,-174.85 1726.5,-129 1754.08,-108.38 1772.56,-80.58 1749.5,-55 1725.74,-28.65 1502.02,-16.93 1387.44,-12.61"/>
<polygon fill="#63b8ff" stroke="#63b8ff" points="1387.5,-9.11 1377.37,-12.24 1387.24,-16.11 1387.5,-9.11"/>
</a>
</g>
</g>
<!-- Node7 -->
<g id="Node000007" class="node">
<title>Node7</title>
<g id="a_Node000007"><a xlink:title=" ">
<polygon fill="#e0e0e0" stroke="#999999" points="589.5,-19 539.5,-19 539.5,0 589.5,0 589.5,-19"/>
<text text-anchor="middle" x="564.5" y="-7" font-family="Helvetica,sans-Serif" font-size="10.00">cstdint</text>
</a>
</g>
</g>
<!-- Node2&#45;&gt;Node7 -->
<g id="edge47_Node000002_Node000007" class="edge">
<title>Node2&#45;&gt;Node7</title>
<g id="a_edge47_Node000002_Node000007"><a xlink:title=" ">
<path fill="none" stroke="#63b8ff" d="M1298.16,-172.47C1173.73,-166.48 569.94,-134.46 516.5,-74 502.28,-57.91 523.01,-37.96 541.5,-24.76"/>
<polygon fill="#63b8ff" stroke="#63b8ff" points="543.64,-27.54 549.96,-19.04 539.72,-21.74 543.64,-27.54"/>
</a>
</g>
</g>
<!-- Node13 -->
<g id="Node000013" class="node">
<title>Node13</title>
<g id="a_Node000013"><a xlink:href="MessageQueue_8h.html" target="_top" xlink:title=" ">
<polygon fill="white" stroke="#666666" points="1225,-129 1124,-129 1124,-110 1225,-110 1225,-129"/>
<text text-anchor="middle" x="1174.5" y="-117" font-family="Helvetica,sans-Serif" font-size="10.00">MessageQueue.h</text>
</a>
</g>
</g>
<!-- Node2&#45;&gt;Node13 -->
<g id="edge16_Node000002_Node000013" class="edge">
<title>Node2&#45;&gt;Node13</title>
<g id="a_edge16_Node000002_Node000013"><a xlink:title=" ">
<path fill="none" stroke="#63b8ff" d="M1298.33,-165.45C1274.31,-156.73 1235.73,-142.73 1208.01,-132.67"/>
<polygon fill="#63b8ff" stroke="#63b8ff" points="1208.94,-129.28 1198.34,-129.15 1206.55,-135.86 1208.94,-129.28"/>
</a>
</g>
</g>
<!-- Node19 -->
<g id="Node000019" class="node">
<title>Node19</title>
<g id="a_Node000019"><a xlink:href="Mutex_8h.html" target="_top" xlink:title=" ">
<polygon fill="white" stroke="#666666" points="1068.5,-129 1012.5,-129 1012.5,-110 1068.5,-110 1068.5,-129"/>
<text text-anchor="middle" x="1040.5" y="-117" font-family="Helvetica,sans-Serif" font-size="10.00">Mutex.h</text>
</a>
</g>
</g>
<!-- Node2&#45;&gt;Node19 -->
<g id="edge26_Node000002_Node000019" class="edge">
<title>Node2&#45;&gt;Node19</title>
<g id="a_edge26_Node000002_Node000019"><a xlink:title=" ">
<path fill="none" stroke="#63b8ff" d="M1298.06,-169.25C1250.32,-160.22 1138.2,-138.99 1078.87,-127.76"/>
<polygon fill="#63b8ff" stroke="#63b8ff" points="1079.26,-124.27 1068.78,-125.85 1077.96,-131.15 1079.26,-124.27"/>
</a>
</g>
</g>
<!-- Node22 -->
<g id="Node000022" class="node">
<title>Node22</title>
<g id="a_Node000022"><a xlink:href="Semaphore_8h.html" target="_top" xlink:title=" ">
<polygon fill="white" stroke="#666666" points="1361,-129 1280,-129 1280,-110 1361,-110 1361,-129"/>
<text text-anchor="middle" x="1320.5" y="-117" font-family="Helvetica,sans-Serif" font-size="10.00">Semaphore.h</text>
</a>
</g>
</g>
<!-- Node2&#45;&gt;Node22 -->
<g id="edge31_Node000002_Node000022" class="edge">
<title>Node2&#45;&gt;Node22</title>
<g id="a_edge31_Node000002_Node000022"><a xlink:title=" ">
<path fill="none" stroke="#63b8ff" d="M1320.5,-164.75C1320.5,-157.8 1320.5,-147.85 1320.5,-139.13"/>
<polygon fill="#63b8ff" stroke="#63b8ff" points="1324,-139.09 1320.5,-129.09 1317,-139.09 1324,-139.09"/>
</a>
</g>
</g>
<!-- Node24 -->
<g id="Node000024" class="node">
<title>Node24</title>
<g id="a_Node000024"><a xlink:href="Task_8h.html" target="_top" xlink:title=" ">
<polygon fill="white" stroke="#666666" points="1718,-129 1671,-129 1671,-110 1718,-110 1718,-129"/>
<text text-anchor="middle" x="1694.5" y="-117" font-family="Helvetica,sans-Serif" font-size="10.00">Task.h</text>
</a>
</g>
</g>
<!-- Node2&#45;&gt;Node24 -->
<g id="edge36_Node000002_Node000024" class="edge">
<title>Node2&#45;&gt;Node24</title>
<g id="a_edge36_Node000002_Node000024"><a xlink:title=" ">
<path fill="none" stroke="#63b8ff" d="M1342.78,-170.34C1405.73,-161.42 1585.25,-135.98 1660.58,-125.31"/>
<polygon fill="#63b8ff" stroke="#63b8ff" points="1661.5,-128.71 1670.91,-123.84 1660.52,-121.78 1661.5,-128.71"/>
</a>
</g>
</g>
<!-- Node26 -->
<g id="Node000026" class="node">
<title>Node26</title>
<g id="a_Node000026"><a xlink:href="Timer_8h.html" target="_top" xlink:title=" ">
<polygon fill="white" stroke="#666666" points="1587,-129 1534,-129 1534,-110 1587,-110 1587,-129"/>
<text text-anchor="middle" x="1560.5" y="-117" font-family="Helvetica,sans-Serif" font-size="10.00">Timer.h</text>
</a>
</g>
</g>
<!-- Node2&#45;&gt;Node26 -->
<g id="edge41_Node000002_Node000026" class="edge">
<title>Node2&#45;&gt;Node26</title>
<g id="a_edge41_Node000002_Node000026"><a xlink:title=" ">
<path fill="none" stroke="#63b8ff" d="M1342.65,-168.61C1384.01,-159.47 1473.37,-139.74 1523.85,-128.59"/>
<polygon fill="#63b8ff" stroke="#63b8ff" points="1524.69,-131.99 1533.7,-126.42 1523.18,-125.16 1524.69,-131.99"/>
</a>
</g>
</g>
<!-- Node4 -->
<g id="Node000004" class="node">
<title>Node4</title>
<g id="a_Node000004"><a xlink:href="Core_8h.html" target="_top" xlink:title=" ">
<polygon fill="white" stroke="#666666" points="938,-74 871,-74 871,-55 938,-55 938,-74"/>
<text text-anchor="middle" x="904.5" y="-62" font-family="Helvetica,sans-Serif" font-size="10.00">util/Core.h</text>
</a>
</g>
</g>
<!-- Node3&#45;&gt;Node4 -->
<g id="edge3_Node000003_Node000004" class="edge">
<title>Node3&#45;&gt;Node4</title>
<g id="a_edge3_Node000003_Node000004"><a xlink:title=" ">
<path fill="none" stroke="#63b8ff" d="M349.5,-116.85C439.17,-112.82 663.19,-100.85 860.78,-73.93"/>
<polygon fill="#63b8ff" stroke="#63b8ff" points="861.33,-77.38 870.76,-72.55 860.38,-70.45 861.33,-77.38"/>
</a>
</g>
</g>
<!-- Node3&#45;&gt;Node5 -->
<g id="edge12_Node000003_Node000005" class="edge">
<title>Node3&#45;&gt;Node5</title>
<g id="a_edge12_Node000003_Node000005"><a xlink:title=" ">
<path fill="none" stroke="#63b8ff" d="M334.82,-109.89C381.78,-94.06 480.88,-61.35 516.5,-55 657.45,-29.86 1087.58,-16.46 1253.88,-12.11"/>
<polygon fill="#63b8ff" stroke="#63b8ff" points="1254.07,-15.61 1263.98,-11.85 1253.89,-8.61 1254.07,-15.61"/>
</a>
</g>
</g>
<!-- Node6 -->
<g id="Node000006" class="node">
<title>Node6</title>
<g id="a_Node000006"><a xlink:href="Flags_8h.html" target="_top" xlink:title=" ">
<polygon fill="white" stroke="#666666" points="119,-74 48,-74 48,-55 119,-55 119,-74"/>
<text text-anchor="middle" x="83.5" y="-62" font-family="Helvetica,sans-Serif" font-size="10.00">util/Flags.h</text>
</a>
</g>
</g>
<!-- Node3&#45;&gt;Node6 -->
<g id="edge5_Node000003_Node000006" class="edge">
<title>Node3&#45;&gt;Node6</title>
<g id="a_edge5_Node000003_Node000006"><a xlink:title=" ">
<path fill="none" stroke="#63b8ff" d="M273.19,-109.98C234.03,-100.8 171.61,-86.16 129.15,-76.21"/>
<polygon fill="#63b8ff" stroke="#63b8ff" points="129.88,-72.78 119.35,-73.91 128.28,-79.6 129.88,-72.78"/>
</a>
</g>
</g>
<!-- Node8 -->
<g id="Node000008" class="node">
<title>Node8</title>
<g id="a_Node000008"><a xlink:title=" ">
<polygon fill="#e0e0e0" stroke="#999999" points="170,-19 87,-19 87,0 170,0 170,-19"/>
<text text-anchor="middle" x="128.5" y="-7" font-family="Helvetica,sans-Serif" font-size="10.00">initializer_list</text>
</a>
</g>
</g>
<!-- Node3&#45;&gt;Node8 -->
<g id="edge15_Node000003_Node000008" class="edge">
<title>Node3&#45;&gt;Node8</title>
<g id="a_edge15_Node000003_Node000008"><a xlink:title=" ">
<path fill="none" stroke="#63b8ff" d="M269.25,-118C201.12,-116.21 67.63,-108.3 38.5,-74 19.6,-51.74 55.27,-33.44 87.13,-22.3"/>
<polygon fill="#63b8ff" stroke="#63b8ff" points="88.45,-25.55 96.83,-19.08 86.24,-18.91 88.45,-25.55"/>
</a>
</g>
</g>
<!-- Node10 -->
<g id="Node000010" class="node">
<title>Node10</title>
<g id="a_Node000010"><a xlink:href="Types_8h.html" target="_top" xlink:title=" ">
<polygon fill="white" stroke="#666666" points="209.5,-74 137.5,-74 137.5,-55 209.5,-55 209.5,-74"/>
<text text-anchor="middle" x="173.5" y="-62" font-family="Helvetica,sans-Serif" font-size="10.00">util/Types.h</text>
</a>
</g>
</g>
<!-- Node3&#45;&gt;Node10 -->
<g id="edge9_Node000003_Node000010" class="edge">
<title>Node3&#45;&gt;Node10</title>
<g id="a_edge9_Node000003_Node000010"><a xlink:title=" ">
<path fill="none" stroke="#63b8ff" d="M287.65,-109.98C265.38,-101.3 230.6,-87.75 205.28,-77.88"/>
<polygon fill="#63b8ff" stroke="#63b8ff" points="206.34,-74.54 195.75,-74.17 203.79,-81.06 206.34,-74.54"/>
</a>
</g>
</g>
<!-- Node11 -->
<g id="Node000011" class="node">
<title>Node11</title>
<g id="a_Node000011"><a xlink:title=" ">
<polygon fill="#e0e0e0" stroke="#999999" points="431,-74 298,-74 298,-55 431,-55 431,-74"/>
<text text-anchor="middle" x="364.5" y="-62" font-family="Helvetica,sans-Serif" font-size="10.00">freertos/event_groups.h</text>
</a>
</g>
</g>
<!-- Node3&#45;&gt;Node11 -->
<g id="edge13_Node000003_Node000011" class="edge">
<title>Node3&#45;&gt;Node11</title>
<g id="a_edge13_Node000003_Node000011"><a xlink:title=" ">
<path fill="none" stroke="#63b8ff" d="M318.58,-109.75C326.59,-102.03 338.46,-90.6 348.12,-81.28"/>
<polygon fill="#63b8ff" stroke="#63b8ff" points="350.81,-83.55 355.59,-74.09 345.96,-78.51 350.81,-83.55"/>
</a>
</g>
</g>
<!-- Node12 -->
<g id="Node000012" class="node">
<title>Node12</title>
<g id="a_Node000012"><a xlink:title=" ">
<polygon fill="#e0e0e0" stroke="#999999" points="279.5,-74 227.5,-74 227.5,-55 279.5,-55 279.5,-74"/>
<text text-anchor="middle" x="253.5" y="-62" font-family="Helvetica,sans-Serif" font-size="10.00">cassert</text>
</a>
</g>
</g>
<!-- Node3&#45;&gt;Node12 -->
<g id="edge14_Node000003_Node000012" class="edge">
<title>Node3&#45;&gt;Node12</title>
<g id="a_edge14_Node000003_Node000012"><a xlink:title=" ">
<path fill="none" stroke="#63b8ff" d="M300.5,-109.98C292.31,-102.23 279.99,-90.58 270.03,-81.14"/>
<polygon fill="#63b8ff" stroke="#63b8ff" points="272.33,-78.5 262.66,-74.17 267.52,-83.59 272.33,-78.5"/>
</a>
</g>
</g>
<!-- Node4&#45;&gt;Node5 -->
<g id="edge4_Node000004_Node000005" class="edge">
<title>Node4&#45;&gt;Node5</title>
<g id="a_edge4_Node000004_Node000005"><a xlink:title=" ">
<path fill="none" stroke="#63b8ff" d="M938.03,-57.32C942.88,-56.5 947.81,-55.7 952.5,-55 1057.52,-39.36 1180.03,-25.4 1253.86,-17.45"/>
<polygon fill="#63b8ff" stroke="#63b8ff" points="1254.38,-20.91 1263.95,-16.36 1253.63,-13.95 1254.38,-20.91"/>
</a>
</g>
</g>
<!-- Node6&#45;&gt;Node7 -->
<g id="edge6_Node000006_Node000007" class="edge">
<title>Node6&#45;&gt;Node7</title>
<g id="a_edge6_Node000006_Node000007"><a xlink:title=" ">
<path fill="none" stroke="#63b8ff" d="M119.32,-56.45C122.42,-55.93 125.51,-55.43 128.5,-55 276.7,-33.48 454.74,-18.75 529.13,-13.08"/>
<polygon fill="#63b8ff" stroke="#63b8ff" points="529.63,-16.56 539.34,-12.32 529.11,-9.58 529.63,-16.56"/>
</a>
</g>
</g>
<!-- Node6&#45;&gt;Node8 -->
<g id="edge7_Node000006_Node000008" class="edge">
<title>Node6&#45;&gt;Node8</title>
<g id="a_edge7_Node000006_Node000008"><a xlink:title=" ">
<path fill="none" stroke="#63b8ff" d="M90.93,-54.75C97.35,-47.18 106.81,-36.05 114.62,-26.84"/>
<polygon fill="#63b8ff" stroke="#63b8ff" points="117.4,-28.98 121.21,-19.09 112.07,-24.45 117.4,-28.98"/>
</a>
</g>
</g>
<!-- Node9 -->
<g id="Node000009" class="node">
<title>Node9</title>
<g id="a_Node000009"><a xlink:title=" ">
<polygon fill="#e0e0e0" stroke="#999999" points="69,-19 0,-19 0,0 69,0 69,-19"/>
<text text-anchor="middle" x="34.5" y="-7" font-family="Helvetica,sans-Serif" font-size="10.00">type_traits</text>
</a>
</g>
</g>
<!-- Node6&#45;&gt;Node9 -->
<g id="edge8_Node000006_Node000009" class="edge">
<title>Node6&#45;&gt;Node9</title>
<g id="a_edge8_Node000006_Node000009"><a xlink:title=" ">
<path fill="none" stroke="#63b8ff" d="M75.41,-54.75C68.34,-47.11 57.91,-35.82 49.35,-26.56"/>
<polygon fill="#63b8ff" stroke="#63b8ff" points="51.8,-24.06 42.44,-19.09 46.66,-28.81 51.8,-24.06"/>
</a>
</g>
</g>
<!-- Node10&#45;&gt;Node7 -->
<g id="edge10_Node000010_Node000007" class="edge">
<title>Node10&#45;&gt;Node7</title>
<g id="a_edge10_Node000010_Node000007"><a xlink:title=" ">
<path fill="none" stroke="#63b8ff" d="M209.82,-56.45C212.75,-55.94 215.67,-55.45 218.5,-55 331.59,-37.06 466.36,-21.35 529.1,-14.36"/>
<polygon fill="#63b8ff" stroke="#63b8ff" points="529.69,-17.81 539.25,-13.23 528.92,-10.86 529.69,-17.81"/>
</a>
</g>
</g>
<!-- Node10&#45;&gt;Node8 -->
<g id="edge11_Node000010_Node000008" class="edge">
<title>Node10&#45;&gt;Node8</title>
<g id="a_edge11_Node000010_Node000008"><a xlink:title=" ">
<path fill="none" stroke="#63b8ff" d="M166.07,-54.75C159.65,-47.18 150.19,-36.05 142.38,-26.84"/>
<polygon fill="#63b8ff" stroke="#63b8ff" points="144.93,-24.45 135.79,-19.09 139.6,-28.98 144.93,-24.45"/>
</a>
</g>
</g>
<!-- Node13&#45;&gt;Node4 -->
<g id="edge21_Node000013_Node000004" class="edge">
<title>Node13&#45;&gt;Node4</title>
<g id="a_edge21_Node000013_Node000004"><a xlink:title=" ">
<path fill="none" stroke="#63b8ff" d="M1131.12,-109.98C1080.91,-100.13 998.7,-83.99 948.31,-74.1"/>
<polygon fill="#63b8ff" stroke="#63b8ff" points="948.86,-70.64 938.37,-72.15 947.51,-77.51 948.86,-70.64"/>
</a>
</g>
</g>
<!-- Node13&#45;&gt;Node5 -->
<g id="edge22_Node000013_Node000005" class="edge">
<title>Node13&#45;&gt;Node5</title>
<g id="a_edge22_Node000013_Node000005"><a xlink:title=" ">
<path fill="none" stroke="#63b8ff" d="M1186.2,-109.84C1211.08,-91.44 1269.49,-48.23 1300.44,-25.34"/>
<polygon fill="#63b8ff" stroke="#63b8ff" points="1302.79,-27.96 1308.74,-19.2 1298.62,-22.33 1302.79,-27.96"/>
</a>
</g>
</g>
<!-- Node14 -->
<g id="Node000014" class="node">
<title>Node14</title>
<g id="a_Node000014"><a xlink:href="IItemReceiver_8h.html" target="_top" xlink:title=" ">
<polygon fill="white" stroke="#666666" points="732,-74 621,-74 621,-55 732,-55 732,-74"/>
<text text-anchor="middle" x="676.5" y="-62" font-family="Helvetica,sans-Serif" font-size="10.00">api/IItemReceiver.h</text>
</a>
</g>
</g>
<!-- Node13&#45;&gt;Node14 -->
<g id="edge17_Node000013_Node000014" class="edge">
<title>Node13&#45;&gt;Node14</title>
<g id="a_edge17_Node000013_Node000014"><a xlink:title=" ">
<path fill="none" stroke="#63b8ff" d="M1123.79,-113.75C1044.69,-106.23 886.9,-90.84 742.12,-74.04"/>
<polygon fill="#63b8ff" stroke="#63b8ff" points="742.49,-70.56 732.16,-72.88 741.68,-77.51 742.49,-70.56"/>
</a>
</g>
</g>
<!-- Node15 -->
<g id="Node000015" class="node">
<title>Node15</title>
<g id="a_Node000015"><a xlink:href="IItemSender_8h.html" target="_top" xlink:title=" ">
<polygon fill="white" stroke="#666666" points="852.5,-74 750.5,-74 750.5,-55 852.5,-55 852.5,-74"/>
<text text-anchor="middle" x="801.5" y="-62" font-family="Helvetica,sans-Serif" font-size="10.00">api/IItemSender.h</text>
</a>
</g>
</g>
<!-- Node13&#45;&gt;Node15 -->
<g id="edge19_Node000013_Node000015" class="edge">
<title>Node13&#45;&gt;Node15</title>
<g id="a_edge19_Node000013_Node000015"><a xlink:title=" ">
<path fill="none" stroke="#63b8ff" d="M1123.81,-111.3C1055.89,-101.65 935.49,-84.54 862.64,-74.19"/>
<polygon fill="#63b8ff" stroke="#63b8ff" points="863.07,-70.71 852.68,-72.77 862.09,-77.64 863.07,-70.71"/>
</a>
</g>
</g>
<!-- Node16 -->
<g id="Node000016" class="node">
<title>Node16</title>
<g id="a_Node000016"><a xlink:title=" ">
<polygon fill="#e0e0e0" stroke="#999999" points="1092,-74 995,-74 995,-55 1092,-55 1092,-74"/>
<text text-anchor="middle" x="1043.5" y="-62" font-family="Helvetica,sans-Serif" font-size="10.00">freertos/queue.h</text>
</a>
</g>
</g>
<!-- Node13&#45;&gt;Node16 -->
<g id="edge23_Node000013_Node000016" class="edge">
<title>Node13&#45;&gt;Node16</title>
<g id="a_edge23_Node000013_Node000016"><a xlink:title=" ">
<path fill="none" stroke="#63b8ff" d="M1153.45,-109.98C1132.09,-101.34 1098.8,-87.87 1074.44,-78.02"/>
<polygon fill="#63b8ff" stroke="#63b8ff" points="1075.51,-74.68 1064.93,-74.17 1072.89,-81.17 1075.51,-74.68"/>
</a>
</g>
</g>
<!-- Node17 -->
<g id="Node000017" class="node">
<title>Node17</title>
<g id="a_Node000017"><a xlink:title=" ">
<polygon fill="#e0e0e0" stroke="#999999" points="1493,-74 1428,-74 1428,-55 1493,-55 1493,-74"/>
<text text-anchor="middle" x="1460.5" y="-62" font-family="Helvetica,sans-Serif" font-size="10.00">functional</text>
</a>
</g>
</g>
<!-- Node13&#45;&gt;Node17 -->
<g id="edge24_Node000013_Node000017" class="edge">
<title>Node13&#45;&gt;Node17</title>
<g id="a_edge24_Node000013_Node000017"><a xlink:title=" ">
<path fill="none" stroke="#63b8ff" d="M1220.45,-109.98C1274.78,-99.92 1364.49,-83.29 1417.5,-73.47"/>
<polygon fill="#63b8ff" stroke="#63b8ff" points="1418.39,-76.86 1427.59,-71.6 1417.12,-69.98 1418.39,-76.86"/>
</a>
</g>
</g>
<!-- Node18 -->
<g id="Node000018" class="node">
<title>Node18</title>
<g id="a_Node000018"><a xlink:title=" ">
<polygon fill="#e0e0e0" stroke="#999999" points="1723.5,-74 1665.5,-74 1665.5,-55 1723.5,-55 1723.5,-74"/>
<text text-anchor="middle" x="1694.5" y="-62" font-family="Helvetica,sans-Serif" font-size="10.00">memory</text>
</a>
</g>
</g>
<!-- Node13&#45;&gt;Node18 -->
<g id="edge25_Node000013_Node000018" class="edge">
<title>Node13&#45;&gt;Node18</title>
<g id="a_edge25_Node000013_Node000018"><a xlink:title=" ">
<path fill="none" stroke="#63b8ff" d="M1225.13,-113.62C1307.58,-105.62 1475.98,-89.11 1618.5,-74 1630.45,-72.73 1643.44,-71.3 1655.26,-69.98"/>
<polygon fill="#63b8ff" stroke="#63b8ff" points="1655.73,-73.45 1665.28,-68.85 1654.95,-66.49 1655.73,-73.45"/>
</a>
</g>
</g>
<!-- Node14&#45;&gt;Node7 -->
<g id="edge18_Node000014_Node000007" class="edge">
<title>Node14&#45;&gt;Node7</title>
<g id="a_edge18_Node000014_Node000007"><a xlink:title=" ">
<path fill="none" stroke="#63b8ff" d="M658.51,-54.98C640.57,-46.5 612.78,-33.35 592.07,-23.54"/>
<polygon fill="#63b8ff" stroke="#63b8ff" points="593.36,-20.28 582.82,-19.17 590.36,-26.61 593.36,-20.28"/>
</a>
</g>
</g>
<!-- Node15&#45;&gt;Node7 -->
<g id="edge20_Node000015_Node000007" class="edge">
<title>Node15&#45;&gt;Node7</title>
<g id="a_edge20_Node000015_Node000007"><a xlink:title=" ">
<path fill="none" stroke="#63b8ff" d="M763.42,-54.98C718.24,-44.88 643.52,-28.17 599.65,-18.36"/>
<polygon fill="#63b8ff" stroke="#63b8ff" points="600.25,-14.91 589.73,-16.14 598.73,-21.74 600.25,-14.91"/>
</a>
</g>
</g>
<!-- Node19&#45;&gt;Node5 -->
<g id="edge29_Node000019_Node000005" class="edge">
<title>Node19&#45;&gt;Node5</title>
<g id="a_edge29_Node000019_Node000005"><a xlink:title=" ">
<path fill="none" stroke="#63b8ff" d="M1023.53,-109.85C1001.67,-97.6 968.39,-74.53 985.5,-55 1002.87,-35.17 1161.03,-21.24 1253.69,-14.71"/>
<polygon fill="#63b8ff" stroke="#63b8ff" points="1254.09,-18.19 1263.82,-14.01 1253.6,-11.21 1254.09,-18.19"/>
</a>
</g>
</g>
<!-- Node20 -->
<g id="Node000020" class="node">
<title>Node20</title>
<g id="a_Node000020"><a xlink:href="IMutex_8h.html" target="_top" xlink:title=" ">
<polygon fill="white" stroke="#666666" points="603,-74 526,-74 526,-55 603,-55 603,-74"/>
<text text-anchor="middle" x="564.5" y="-62" font-family="Helvetica,sans-Serif" font-size="10.00">api/IMutex.h</text>
</a>
</g>
</g>
<!-- Node19&#45;&gt;Node20 -->
<g id="edge27_Node000019_Node000020" class="edge">
<title>Node19&#45;&gt;Node20</title>
<g id="a_edge27_Node000019_Node000020"><a xlink:title=" ">
<path fill="none" stroke="#63b8ff" d="M1012.3,-116.32C945.04,-110.95 769.74,-96.04 613.46,-74.19"/>
<polygon fill="#63b8ff" stroke="#63b8ff" points="613.58,-70.67 603.19,-72.74 612.6,-77.6 613.58,-70.67"/>
</a>
</g>
</g>
<!-- Node21 -->
<g id="Node000021" class="node">
<title>Node21</title>
<g id="a_Node000021"><a xlink:title=" ">
<polygon fill="#e0e0e0" stroke="#999999" points="1213,-74 1110,-74 1110,-55 1213,-55 1213,-74"/>
<text text-anchor="middle" x="1161.5" y="-62" font-family="Helvetica,sans-Serif" font-size="10.00">freertos/semphr.h</text>
</a>
</g>
</g>
<!-- Node19&#45;&gt;Node21 -->
<g id="edge30_Node000019_Node000021" class="edge">
<title>Node19&#45;&gt;Node21</title>
<g id="a_edge30_Node000019_Node000021"><a xlink:title=" ">
<path fill="none" stroke="#63b8ff" d="M1059.94,-109.98C1079.49,-101.42 1109.88,-88.11 1132.32,-78.28"/>
<polygon fill="#63b8ff" stroke="#63b8ff" points="1133.95,-81.39 1141.71,-74.17 1131.14,-74.98 1133.95,-81.39"/>
</a>
</g>
</g>
<!-- Node20&#45;&gt;Node7 -->
<g id="edge28_Node000020_Node000007" class="edge">
<title>Node20&#45;&gt;Node7</title>
<g id="a_edge28_Node000020_Node000007"><a xlink:title=" ">
<path fill="none" stroke="#63b8ff" d="M564.5,-54.75C564.5,-47.8 564.5,-37.85 564.5,-29.13"/>
<polygon fill="#63b8ff" stroke="#63b8ff" points="568,-29.09 564.5,-19.09 561,-29.09 568,-29.09"/>
</a>
</g>
</g>
<!-- Node22&#45;&gt;Node5 -->
<g id="edge34_Node000022_Node000005" class="edge">
<title>Node22&#45;&gt;Node5</title>
<g id="a_edge34_Node000022_Node000005"><a xlink:title=" ">
<path fill="none" stroke="#63b8ff" d="M1340.08,-109.98C1354.17,-102.68 1372.1,-90.68 1380.5,-74 1390.61,-53.91 1368.88,-35.79 1348.8,-24.09"/>
<polygon fill="#63b8ff" stroke="#63b8ff" points="1350.26,-20.91 1339.81,-19.19 1346.91,-27.05 1350.26,-20.91"/>
</a>
</g>
</g>
<!-- Node22&#45;&gt;Node21 -->
<g id="edge35_Node000022_Node000021" class="edge">
<title>Node22&#45;&gt;Node21</title>
<g id="a_edge35_Node000022_Node000021"><a xlink:title=" ">
<path fill="none" stroke="#63b8ff" d="M1294.95,-109.98C1268.38,-101.13 1226.56,-87.19 1196.83,-77.28"/>
<polygon fill="#63b8ff" stroke="#63b8ff" points="1197.84,-73.92 1187.25,-74.08 1195.63,-80.56 1197.84,-73.92"/>
</a>
</g>
</g>
<!-- Node23 -->
<g id="Node000023" class="node">
<title>Node23</title>
<g id="a_Node000023"><a xlink:href="ISemaphore_8h.html" target="_top" xlink:title=" ">
<polygon fill="white" stroke="#666666" points="1371.5,-74 1269.5,-74 1269.5,-55 1371.5,-55 1371.5,-74"/>
<text text-anchor="middle" x="1320.5" y="-62" font-family="Helvetica,sans-Serif" font-size="10.00">api/ISemaphore.h</text>
</a>
</g>
</g>
<!-- Node22&#45;&gt;Node23 -->
<g id="edge32_Node000022_Node000023" class="edge">
<title>Node22&#45;&gt;Node23</title>
<g id="a_edge32_Node000022_Node000023"><a xlink:title=" ">
<path fill="none" stroke="#63b8ff" d="M1320.5,-109.75C1320.5,-102.8 1320.5,-92.85 1320.5,-84.13"/>
<polygon fill="#63b8ff" stroke="#63b8ff" points="1324,-84.09 1320.5,-74.09 1317,-84.09 1324,-84.09"/>
</a>
</g>
</g>
<!-- Node23&#45;&gt;Node7 -->
<g id="edge33_Node000023_Node000007" class="edge">
<title>Node23&#45;&gt;Node7</title>
<g id="a_edge33_Node000023_Node000007"><a xlink:title=" ">
<path fill="none" stroke="#63b8ff" d="M1269.39,-58.93C1254,-57.61 1237.07,-56.2 1221.5,-55 984.18,-36.78 698.33,-18.76 599.85,-12.67"/>
<polygon fill="#63b8ff" stroke="#63b8ff" points="599.77,-9.16 589.57,-12.04 599.34,-16.14 599.77,-9.16"/>
</a>
</g>
</g>
<!-- Node24&#45;&gt;Node5 -->
<g id="edge37_Node000024_Node000005" class="edge">
<title>Node24&#45;&gt;Node5</title>
<g id="a_edge37_Node000024_Node000005"><a xlink:title=" ">
<path fill="none" stroke="#63b8ff" d="M1706.37,-109.8C1722.61,-96.88 1748.04,-72.3 1732.5,-55 1709.9,-29.82 1498.02,-17.62 1387.26,-12.92"/>
<polygon fill="#63b8ff" stroke="#63b8ff" points="1387.33,-9.42 1377.19,-12.5 1387.04,-16.41 1387.33,-9.42"/>
</a>
</g>
</g>
<!-- Node24&#45;&gt;Node17 -->
<g id="edge39_Node000024_Node000017" class="edge">
<title>Node24&#45;&gt;Node17</title>
<g id="a_edge39_Node000024_Node000017"><a xlink:title=" ">
<path fill="none" stroke="#63b8ff" d="M1670.78,-113.13C1631.51,-104.23 1552.46,-86.33 1503.26,-75.18"/>
<polygon fill="#63b8ff" stroke="#63b8ff" points="1503.76,-71.71 1493.24,-72.92 1502.22,-78.54 1503.76,-71.71"/>
</a>
</g>
</g>
<!-- Node24&#45;&gt;Node18 -->
<g id="edge40_Node000024_Node000018" class="edge">
<title>Node24&#45;&gt;Node18</title>
<g id="a_edge40_Node000024_Node000018"><a xlink:title=" ">
<path fill="none" stroke="#63b8ff" d="M1694.5,-109.75C1694.5,-102.8 1694.5,-92.85 1694.5,-84.13"/>
<polygon fill="#63b8ff" stroke="#63b8ff" points="1698,-84.09 1694.5,-74.09 1691,-84.09 1698,-84.09"/>
</a>
</g>
</g>
<!-- Node24&#45;&gt;Node25 -->
<g id="edge38_Node000024_Node000025" class="edge">
<title>Node24&#45;&gt;Node25</title>
<g id="a_edge38_Node000024_Node000025"><a xlink:title=" ">
<path fill="none" stroke="#63b8ff" d="M1718.07,-111.02C1745.86,-102.2 1792.35,-87.44 1824.85,-77.13"/>
<polygon fill="#63b8ff" stroke="#63b8ff" points="1825.98,-80.45 1834.45,-74.08 1823.86,-73.77 1825.98,-80.45"/>
</a>
</g>
</g>
<!-- Node26&#45;&gt;Node5 -->
<g id="edge42_Node000026_Node000005" class="edge">
<title>Node26&#45;&gt;Node5</title>
<g id="a_edge42_Node000026_Node000005"><a xlink:title=" ">
<path fill="none" stroke="#63b8ff" d="M1578.59,-109.81C1601.42,-97.71 1635.75,-75.02 1618.5,-55 1589.29,-21.11 1466.05,-12.64 1387.49,-10.75"/>
<polygon fill="#63b8ff" stroke="#63b8ff" points="1387.26,-7.25 1377.19,-10.54 1387.12,-14.25 1387.26,-7.25"/>
</a>
</g>
</g>
<!-- Node26&#45;&gt;Node17 -->
<g id="edge44_Node000026_Node000017" class="edge">
<title>Node26&#45;&gt;Node17</title>
<g id="a_edge44_Node000026_Node000017"><a xlink:title=" ">
<path fill="none" stroke="#63b8ff" d="M1544.43,-109.98C1528.64,-101.61 1504.28,-88.7 1485.87,-78.95"/>
<polygon fill="#63b8ff" stroke="#63b8ff" points="1487.33,-75.76 1476.86,-74.17 1484.06,-81.95 1487.33,-75.76"/>
</a>
</g>
</g>
<!-- Node26&#45;&gt;Node18 -->
<g id="edge45_Node000026_Node000018" class="edge">
<title>Node26&#45;&gt;Node18</title>
<g id="a_edge45_Node000026_Node000018"><a xlink:title=" ">
<path fill="none" stroke="#63b8ff" d="M1582.03,-109.98C1603.97,-101.3 1638.24,-87.75 1663.19,-77.88"/>
<polygon fill="#63b8ff" stroke="#63b8ff" points="1664.57,-81.1 1672.58,-74.17 1661.99,-74.59 1664.57,-81.1"/>
</a>
</g>
</g>
<!-- Node27 -->
<g id="Node000027" class="node">
<title>Node27</title>
<g id="a_Node000027"><a xlink:title=" ">
<polygon fill="#e0e0e0" stroke="#999999" points="1609.5,-74 1511.5,-74 1511.5,-55 1609.5,-55 1609.5,-74"/>
<text text-anchor="middle" x="1560.5" y="-62" font-family="Helvetica,sans-Serif" font-size="10.00">freertos/timers.h</text>
</a>
</g>
</g>
<!-- Node26&#45;&gt;Node27 -->
<g id="edge43_Node000026_Node000027" class="edge">
<title>Node26&#45;&gt;Node27</title>
<g id="a_edge43_Node000026_Node000027"><a xlink:title=" ">
<path fill="none" stroke="#63b8ff" d="M1560.5,-109.75C1560.5,-102.8 1560.5,-92.85 1560.5,-84.13"/>
<polygon fill="#63b8ff" stroke="#63b8ff" points="1564,-84.09 1560.5,-74.09 1557,-84.09 1564,-84.09"/>
</a>
</g>
</g>
</g>
</svg>

<g id="navigator" transform="translate(0 0)" fill="#404254">
  <rect fill="#f2f5e9" fill-opacity="0.5" stroke="#606060" stroke-width=".5" x="0" y="0" width="60" height="60"/>
  <use id="zoomplus" xlink:href="#zoomPlus" x="17" y="9" onmousedown="handleZoom(evt,'in')"/>
  <use id="zoomminus" xlink:href="#zoomMin" x="42" y="9" onmousedown="handleZoom(evt,'out')"/>
  <use id="reset" xlink:href="#resetDef" x="30" y="36" onmousedown="handleReset()"/>
   <use id="arrowup" xlink:href="#arrowUp" x="0" y="0" onmousedown="handlePan(0,-1)"/>
  <use id="arrowright" xlink:href="#arrowRight" x="0" y="0" onmousedown="handlePan(1,0)"/>
  <use id="arrowdown" xlink:href="#arrowDown" x="0" y="0" onmousedown="handlePan(0,1)"/>
  <use id="arrowleft" xlink:href="#arrowLeft" x="0" y="0" onmousedown="handlePan(-1,0)"/>
</g>
<svg viewBox="0 0 15 15" width="100%" height="30px" preserveAspectRatio="xMaxYMin meet">
 <g id="arrow_out" transform="scale(0.3 0.3)">
  <a xlink:href="rtos_8cpp__incl_org.svg" target="_base">
   <rect id="button" ry="5" rx="5" y="6" x="6" height="38" width="38"
        fill="#f2f5e9" fill-opacity="0.5" stroke="#606060" stroke-width="1.0"/>
   <path id="arrow"
     d="M 11.500037,31.436501 C 11.940474,20.09759 22.043105,11.32322 32.158766,21.979434 L 37.068811,17.246167 C 37.068811,17.246167 37.088388,32 37.088388,32 L 22.160133,31.978069 C 22.160133,31.978069 26.997745,27.140456 26.997745,27.140456 C 18.528582,18.264221 13.291696,25.230495 11.500037,31.436501 z"
     style="fill:#404040;"/>
  </a>
 </g>
</svg>

<style type='text/css'>
<![CDATA[
[data-mouse-over-selected='false'] { opacity: 0.7; }
[data-mouse-over-selected='true']  { opacity: 1.0; }
]]>
</style>
<script type="application/ecmascript"><![CDATA[
document.addEventListener('DOMContentLoaded', (event) => {
  highlightEdges();
  highlightAdjacentNodes();
});
]]></script>
</svg>
