<?xml version="1.0" encoding="UTF-8" standalone="no"?>
<!DOCTYPE svg PUBLIC "-//W3C//DTD SVG 1.1//EN"
 "http://www.w3.org/Graphics/SVG/1.1/DTD/svg11.dtd">
<!-- Generated by graphviz version 2.43.0 (0)
 -->
<!-- Title: components/rtos_cpp/src/Semaphore.cpp Pages: 1 -->
<svg width="1860pt" height="258pt"
 viewBox="0.00 0.00 1859.78 258.00" xmlns="http://www.w3.org/2000/svg" xmlns:xlink="http://www.w3.org/1999/xlink">
<g id="graph0" class="graph" transform="scale(1 1) rotate(0) translate(4 254)">
<title>components/rtos_cpp/src/Semaphore.cpp</title>
<!-- Node1 -->
<g id="Node000001" class="node">
<title>Node1</title>
<g id="a_Node000001"><a xlink:title=" ">
<polygon fill="#999999" stroke="#666666" points="1284.51,-250 1163.51,-250 1163.51,-220 1284.51,-220 1284.51,-250"/>
<text text-anchor="start" x="1171.51" y="-238" font-family="Helvetica,sans-Serif" font-size="10.00">components/rtos_cpp</text>
<text text-anchor="middle" x="1224.01" y="-227" font-family="Helvetica,sans-Serif" font-size="10.00">/src/Semaphore.cpp</text>
</a>
</g>
</g>
<!-- Node2 -->
<g id="Node000002" class="node">
<title>Node2</title>
<g id="a_Node000002"><a xlink:href="rtos_8h.html" target="_top" xlink:title=" ">
<polygon fill="white" stroke="#666666" points="1221.01,-184 1177.01,-184 1177.01,-165 1221.01,-165 1221.01,-184"/>
<text text-anchor="middle" x="1199.01" y="-172" font-family="Helvetica,sans-Serif" font-size="10.00">rtos.h</text>
</a>
</g>
</g>
<!-- Node1&#45;&gt;Node2 -->
<g id="edge1_Node000001_Node000002" class="edge">
<title>Node1&#45;&gt;Node2</title>
<g id="a_edge1_Node000001_Node000002"><a xlink:title=" ">
<path fill="none" stroke="#63b8ff" d="M1217.95,-219.84C1214.58,-211.95 1210.35,-202.05 1206.74,-193.61"/>
<polygon fill="#63b8ff" stroke="#63b8ff" points="1209.9,-192.09 1202.75,-184.27 1203.46,-194.84 1209.9,-192.09"/>
</a>
</g>
</g>
<!-- Node4 -->
<g id="Node000004" class="node">
<title>Node4</title>
<g id="a_Node000004"><a xlink:href="Core_8h.html" target="_top" xlink:title=" ">
<polygon fill="white" stroke="#666666" points="558.51,-74 491.51,-74 491.51,-55 558.51,-55 558.51,-74"/>
<text text-anchor="middle" x="525.01" y="-62" font-family="Helvetica,sans-Serif" font-size="10.00">util/Core.h</text>
</a>
</g>
</g>
<!-- Node1&#45;&gt;Node4 -->
<g id="edge49_Node000001_Node000004" class="edge">
<title>Node1&#45;&gt;Node4</title>
<g id="a_edge49_Node000001_Node000004"><a xlink:title=" ">
<path fill="none" stroke="#63b8ff" d="M1165.91,-220C1029.19,-187.04 689.53,-105.16 568.61,-76.01"/>
<polygon fill="#63b8ff" stroke="#63b8ff" points="569.15,-72.54 558.6,-73.6 567.51,-79.35 569.15,-72.54"/>
</a>
</g>
</g>
<!-- Node22 -->
<g id="Node000022" class="node">
<title>Node22</title>
<g id="a_Node000022"><a xlink:href="Semaphore_8h.html" target="_top" xlink:title=" ">
<polygon fill="white" stroke="#666666" points="1718.51,-129 1637.51,-129 1637.51,-110 1718.51,-110 1718.51,-129"/>
<text text-anchor="middle" x="1678.01" y="-117" font-family="Helvetica,sans-Serif" font-size="10.00">Semaphore.h</text>
</a>
</g>
</g>
<!-- Node1&#45;&gt;Node22 -->
<g id="edge48_Node000001_Node000022" class="edge">
<title>Node1&#45;&gt;Node22</title>
<g id="a_edge48_Node000001_Node000022"><a xlink:title=" ">
<path fill="none" stroke="#63b8ff" d="M1228.71,-219.87C1234.93,-203.62 1247.55,-177.58 1268.01,-165 1334.01,-124.4 1533.21,-138.6 1627.26,-128.85"/>
<polygon fill="#63b8ff" stroke="#63b8ff" points="1627.86,-132.3 1637.38,-127.65 1627.04,-125.35 1627.86,-132.3"/>
</a>
</g>
</g>
<!-- Node28 -->
<g id="Node000028" class="node">
<title>Node28</title>
<g id="a_Node000028"><a xlink:title=" ">
<polygon fill="#e0e0e0" stroke="#999999" points="1333.01,-184 1277.01,-184 1277.01,-165 1333.01,-165 1333.01,-184"/>
<text text-anchor="middle" x="1305.01" y="-172" font-family="Helvetica,sans-Serif" font-size="10.00">assert.h</text>
</a>
</g>
</g>
<!-- Node1&#45;&gt;Node28 -->
<g id="edge50_Node000001_Node000028" class="edge">
<title>Node1&#45;&gt;Node28</title>
<g id="a_edge50_Node000001_Node000028"><a xlink:title=" ">
<path fill="none" stroke="#63b8ff" d="M1243.61,-219.84C1255.97,-210.91 1271.9,-199.41 1284.44,-190.35"/>
<polygon fill="#63b8ff" stroke="#63b8ff" points="1286.81,-192.96 1292.87,-184.27 1282.71,-187.28 1286.81,-192.96"/>
</a>
</g>
</g>
<!-- Node3 -->
<g id="Node000003" class="node">
<title>Node3</title>
<g id="a_Node000003"><a xlink:href="EventFlags_8h.html" target="_top" xlink:title=" ">
<polygon fill="white" stroke="#666666" points="310.01,-129 230.01,-129 230.01,-110 310.01,-110 310.01,-129"/>
<text text-anchor="middle" x="270.01" y="-117" font-family="Helvetica,sans-Serif" font-size="10.00">EventFlags.h</text>
</a>
</g>
</g>
<!-- Node2&#45;&gt;Node3 -->
<g id="edge2_Node000002_Node000003" class="edge">
<title>Node2&#45;&gt;Node3</title>
<g id="a_edge2_Node000002_Node000003"><a xlink:title=" ">
<path fill="none" stroke="#63b8ff" d="M1176.75,-172.27C1083.42,-167.13 714.34,-146.71 411.01,-129 380.96,-127.25 347.32,-125.22 320.44,-123.59"/>
<polygon fill="#63b8ff" stroke="#63b8ff" points="320.31,-120.07 310.12,-122.96 319.88,-127.06 320.31,-120.07"/>
</a>
</g>
</g>
<!-- Node5 -->
<g id="Node000005" class="node">
<title>Node5</title>
<g id="a_Node000005"><a xlink:title=" ">
<polygon fill="#e0e0e0" stroke="#999999" points="1437.51,-19 1324.51,-19 1324.51,0 1437.51,0 1437.51,-19"/>
<text text-anchor="middle" x="1381.01" y="-7" font-family="Helvetica,sans-Serif" font-size="10.00">freertos/FreeRTOS.h</text>
</a>
</g>
</g>
<!-- Node2&#45;&gt;Node5 -->
<g id="edge46_Node000002_Node000005" class="edge">
<title>Node2&#45;&gt;Node5</title>
<g id="a_edge46_Node000002_Node000005"><a xlink:title=" ">
<path fill="none" stroke="#63b8ff" d="M1221.33,-167.8C1288.59,-150.43 1485.73,-97.83 1503.01,-74 1522.51,-47.09 1484.73,-30.67 1446.2,-21.29"/>
<polygon fill="#63b8ff" stroke="#63b8ff" points="1446.95,-17.87 1436.42,-19.05 1445.39,-24.69 1446.95,-17.87"/>
</a>
</g>
</g>
<!-- Node7 -->
<g id="Node000007" class="node">
<title>Node7</title>
<g id="a_Node000007"><a xlink:title=" ">
<polygon fill="#e0e0e0" stroke="#999999" points="653.01,-19 603.01,-19 603.01,0 653.01,0 653.01,-19"/>
<text text-anchor="middle" x="628.01" y="-7" font-family="Helvetica,sans-Serif" font-size="10.00">cstdint</text>
</a>
</g>
</g>
<!-- Node2&#45;&gt;Node7 -->
<g id="edge47_Node000002_Node000007" class="edge">
<title>Node2&#45;&gt;Node7</title>
<g id="a_edge47_Node000002_Node000007"><a xlink:title=" ">
<path fill="none" stroke="#63b8ff" d="M1176.83,-172.14C1060.98,-164.79 528.81,-128.23 482.01,-74 448.65,-35.35 539.41,-19.42 592.56,-13.54"/>
<polygon fill="#63b8ff" stroke="#63b8ff" points="593.06,-17.01 602.65,-12.5 592.34,-10.05 593.06,-17.01"/>
</a>
</g>
</g>
<!-- Node13 -->
<g id="Node000013" class="node">
<title>Node13</title>
<g id="a_Node000013"><a xlink:href="MessageQueue_8h.html" target="_top" xlink:title=" ">
<polygon fill="white" stroke="#666666" points="963.51,-129 862.51,-129 862.51,-110 963.51,-110 963.51,-129"/>
<text text-anchor="middle" x="913.01" y="-117" font-family="Helvetica,sans-Serif" font-size="10.00">MessageQueue.h</text>
</a>
</g>
</g>
<!-- Node2&#45;&gt;Node13 -->
<g id="edge16_Node000002_Node000013" class="edge">
<title>Node2&#45;&gt;Node13</title>
<g id="a_edge16_Node000002_Node000013"><a xlink:title=" ">
<path fill="none" stroke="#63b8ff" d="M1176.56,-169.34C1132.28,-161.14 1032.47,-142.64 969.18,-130.91"/>
<polygon fill="#63b8ff" stroke="#63b8ff" points="969.44,-127.4 958.97,-129.02 968.16,-134.28 969.44,-127.4"/>
</a>
</g>
</g>
<!-- Node19 -->
<g id="Node000019" class="node">
<title>Node19</title>
<g id="a_Node000019"><a xlink:href="Mutex_8h.html" target="_top" xlink:title=" ">
<polygon fill="white" stroke="#666666" points="1619.01,-129 1563.01,-129 1563.01,-110 1619.01,-110 1619.01,-129"/>
<text text-anchor="middle" x="1591.01" y="-117" font-family="Helvetica,sans-Serif" font-size="10.00">Mutex.h</text>
</a>
</g>
</g>
<!-- Node2&#45;&gt;Node19 -->
<g id="edge26_Node000002_Node000019" class="edge">
<title>Node2&#45;&gt;Node19</title>
<g id="a_edge26_Node000002_Node000019"><a xlink:title=" ">
<path fill="none" stroke="#63b8ff" d="M1221.39,-167.78C1225.88,-166.76 1230.58,-165.77 1235.01,-165 1373.38,-140.82 1410.26,-150.95 1549.01,-129 1550.11,-128.83 1551.22,-128.64 1552.35,-128.45"/>
<polygon fill="#63b8ff" stroke="#63b8ff" points="1553.38,-131.82 1562.6,-126.59 1552.13,-124.93 1553.38,-131.82"/>
</a>
</g>
</g>
<!-- Node2&#45;&gt;Node22 -->
<g id="edge31_Node000002_Node000022" class="edge">
<title>Node2&#45;&gt;Node22</title>
<g id="a_edge31_Node000002_Node000022"><a xlink:title=" ">
<path fill="none" stroke="#63b8ff" d="M1221.38,-167.7C1225.87,-166.69 1230.57,-165.72 1235.01,-165 1404.91,-137.3 1452.33,-151.18 1627.32,-128.97"/>
<polygon fill="#63b8ff" stroke="#63b8ff" points="1627.92,-132.43 1637.39,-127.67 1627.02,-125.48 1627.92,-132.43"/>
</a>
</g>
</g>
<!-- Node24 -->
<g id="Node000024" class="node">
<title>Node24</title>
<g id="a_Node000024"><a xlink:href="Task_8h.html" target="_top" xlink:title=" ">
<polygon fill="white" stroke="#666666" points="1188.51,-129 1141.51,-129 1141.51,-110 1188.51,-110 1188.51,-129"/>
<text text-anchor="middle" x="1165.01" y="-117" font-family="Helvetica,sans-Serif" font-size="10.00">Task.h</text>
</a>
</g>
</g>
<!-- Node2&#45;&gt;Node24 -->
<g id="edge36_Node000002_Node000024" class="edge">
<title>Node2&#45;&gt;Node24</title>
<g id="a_edge36_Node000002_Node000024"><a xlink:title=" ">
<path fill="none" stroke="#63b8ff" d="M1193.39,-164.75C1188.69,-157.42 1181.83,-146.73 1176.04,-137.7"/>
<polygon fill="#63b8ff" stroke="#63b8ff" points="1178.86,-135.62 1170.52,-129.09 1172.97,-139.4 1178.86,-135.62"/>
</a>
</g>
</g>
<!-- Node26 -->
<g id="Node000026" class="node">
<title>Node26</title>
<g id="a_Node000026"><a xlink:href="Timer_8h.html" target="_top" xlink:title=" ">
<polygon fill="white" stroke="#666666" points="1259.51,-129 1206.51,-129 1206.51,-110 1259.51,-110 1259.51,-129"/>
<text text-anchor="middle" x="1233.01" y="-117" font-family="Helvetica,sans-Serif" font-size="10.00">Timer.h</text>
</a>
</g>
</g>
<!-- Node2&#45;&gt;Node26 -->
<g id="edge41_Node000002_Node000026" class="edge">
<title>Node2&#45;&gt;Node26</title>
<g id="a_edge41_Node000002_Node000026"><a xlink:title=" ">
<path fill="none" stroke="#63b8ff" d="M1204.62,-164.75C1209.32,-157.42 1216.18,-146.73 1221.97,-137.7"/>
<polygon fill="#63b8ff" stroke="#63b8ff" points="1225.04,-139.4 1227.5,-129.09 1219.15,-135.62 1225.04,-139.4"/>
</a>
</g>
</g>
<!-- Node3&#45;&gt;Node4 -->
<g id="edge3_Node000003_Node000004" class="edge">
<title>Node3&#45;&gt;Node4</title>
<g id="a_edge3_Node000003_Node000004"><a xlink:title=" ">
<path fill="none" stroke="#63b8ff" d="M310.13,-110.16C356.75,-100.47 433.39,-84.54 481.43,-74.56"/>
<polygon fill="#63b8ff" stroke="#63b8ff" points="482.15,-77.98 491.22,-72.52 480.72,-71.13 482.15,-77.98"/>
</a>
</g>
</g>
<!-- Node3&#45;&gt;Node5 -->
<g id="edge12_Node000003_Node000005" class="edge">
<title>Node3&#45;&gt;Node5</title>
<g id="a_edge12_Node000003_Node000005"><a xlink:title=" ">
<path fill="none" stroke="#63b8ff" d="M295.56,-110C343.53,-94.18 445.46,-61.28 482.01,-55 641.96,-27.5 1134.21,-15.33 1314.2,-11.72"/>
<polygon fill="#63b8ff" stroke="#63b8ff" points="1314.4,-15.21 1324.33,-11.52 1314.26,-8.22 1314.4,-15.21"/>
</a>
</g>
</g>
<!-- Node6 -->
<g id="Node000006" class="node">
<title>Node6</title>
<g id="a_Node000006"><a xlink:href="Flags_8h.html" target="_top" xlink:title=" ">
<polygon fill="white" stroke="#666666" points="154.51,-74 83.51,-74 83.51,-55 154.51,-55 154.51,-74"/>
<text text-anchor="middle" x="119.01" y="-62" font-family="Helvetica,sans-Serif" font-size="10.00">util/Flags.h</text>
</a>
</g>
</g>
<!-- Node3&#45;&gt;Node6 -->
<g id="edge5_Node000003_Node000006" class="edge">
<title>Node3&#45;&gt;Node6</title>
<g id="a_edge5_Node000003_Node000006"><a xlink:title=" ">
<path fill="none" stroke="#63b8ff" d="M245.74,-109.98C220.69,-101.19 181.37,-87.39 153.18,-77.49"/>
<polygon fill="#63b8ff" stroke="#63b8ff" points="154.3,-74.18 143.71,-74.17 151.98,-80.78 154.3,-74.18"/>
</a>
</g>
</g>
<!-- Node8 -->
<g id="Node000008" class="node">
<title>Node8</title>
<g id="a_Node000008"><a xlink:title=" ">
<polygon fill="#e0e0e0" stroke="#999999" points="205.51,-19 122.51,-19 122.51,0 205.51,0 205.51,-19"/>
<text text-anchor="middle" x="164.01" y="-7" font-family="Helvetica,sans-Serif" font-size="10.00">initializer_list</text>
</a>
</g>
</g>
<!-- Node3&#45;&gt;Node8 -->
<g id="edge15_Node000003_Node000008" class="edge">
<title>Node3&#45;&gt;Node8</title>
<g id="a_edge15_Node000003_Node000008"><a xlink:title=" ">
<path fill="none" stroke="#63b8ff" d="M229.96,-117.87C162.92,-115.87 32.48,-107.64 4.01,-74 -1.45,-67.56 -1.1,-61.72 4.01,-55 10.86,-45.98 69.57,-31.27 113.9,-21.25"/>
<polygon fill="#63b8ff" stroke="#63b8ff" points="114.69,-24.66 123.68,-19.06 113.16,-17.83 114.69,-24.66"/>
</a>
</g>
</g>
<!-- Node10 -->
<g id="Node000010" class="node">
<title>Node10</title>
<g id="a_Node000010"><a xlink:href="Types_8h.html" target="_top" xlink:title=" ">
<polygon fill="white" stroke="#666666" points="245.01,-74 173.01,-74 173.01,-55 245.01,-55 245.01,-74"/>
<text text-anchor="middle" x="209.01" y="-62" font-family="Helvetica,sans-Serif" font-size="10.00">util/Types.h</text>
</a>
</g>
</g>
<!-- Node3&#45;&gt;Node10 -->
<g id="edge9_Node000003_Node000010" class="edge">
<title>Node3&#45;&gt;Node10</title>
<g id="a_edge9_Node000003_Node000010"><a xlink:title=" ">
<path fill="none" stroke="#63b8ff" d="M260.2,-109.98C251.19,-102.15 237.6,-90.34 226.69,-80.86"/>
<polygon fill="#63b8ff" stroke="#63b8ff" points="228.83,-78.09 218.98,-74.17 224.24,-83.37 228.83,-78.09"/>
</a>
</g>
</g>
<!-- Node11 -->
<g id="Node000011" class="node">
<title>Node11</title>
<g id="a_Node000011"><a xlink:title=" ">
<polygon fill="#e0e0e0" stroke="#999999" points="396.51,-74 263.51,-74 263.51,-55 396.51,-55 396.51,-74"/>
<text text-anchor="middle" x="330.01" y="-62" font-family="Helvetica,sans-Serif" font-size="10.00">freertos/event_groups.h</text>
</a>
</g>
</g>
<!-- Node3&#45;&gt;Node11 -->
<g id="edge13_Node000003_Node000011" class="edge">
<title>Node3&#45;&gt;Node11</title>
<g id="a_edge13_Node000003_Node000011"><a xlink:title=" ">
<path fill="none" stroke="#63b8ff" d="M279.65,-109.98C288.51,-102.15 301.88,-90.34 312.61,-80.86"/>
<polygon fill="#63b8ff" stroke="#63b8ff" points="315.01,-83.41 320.19,-74.17 310.38,-78.17 315.01,-83.41"/>
</a>
</g>
</g>
<!-- Node12 -->
<g id="Node000012" class="node">
<title>Node12</title>
<g id="a_Node000012"><a xlink:title=" ">
<polygon fill="#e0e0e0" stroke="#999999" points="65.01,-74 13.01,-74 13.01,-55 65.01,-55 65.01,-74"/>
<text text-anchor="middle" x="39.01" y="-62" font-family="Helvetica,sans-Serif" font-size="10.00">cassert</text>
</a>
</g>
</g>
<!-- Node3&#45;&gt;Node12 -->
<g id="edge14_Node000003_Node000012" class="edge">
<title>Node3&#45;&gt;Node12</title>
<g id="a_edge14_Node000003_Node000012"><a xlink:title=" ">
<path fill="none" stroke="#63b8ff" d="M231.66,-109.97C194.2,-101.6 135.32,-88.34 75.38,-74.3"/>
<polygon fill="#63b8ff" stroke="#63b8ff" points="75.9,-70.83 65.37,-71.95 74.3,-77.64 75.9,-70.83"/>
</a>
</g>
</g>
<!-- Node4&#45;&gt;Node5 -->
<g id="edge4_Node000004_Node000005" class="edge">
<title>Node4&#45;&gt;Node5</title>
<g id="a_edge4_Node000004_Node000005"><a xlink:title=" ">
<path fill="none" stroke="#63b8ff" d="M558.73,-56.37C561.86,-55.85 564.99,-55.38 568.01,-55 843.38,-20.42 1174.57,-12.71 1313.98,-10.99"/>
<polygon fill="#63b8ff" stroke="#63b8ff" points="1314.13,-14.49 1324.08,-10.87 1314.04,-7.49 1314.13,-14.49"/>
</a>
</g>
</g>
<!-- Node6&#45;&gt;Node7 -->
<g id="edge6_Node000006_Node000007" class="edge">
<title>Node6&#45;&gt;Node7</title>
<g id="a_edge6_Node000006_Node000007"><a xlink:title=" ">
<path fill="none" stroke="#63b8ff" d="M154.82,-56.43C157.92,-55.91 161.01,-55.43 164.01,-55 323.17,-32.38 514.72,-18.07 592.55,-12.79"/>
<polygon fill="#63b8ff" stroke="#63b8ff" points="593.02,-16.27 602.76,-12.11 592.55,-9.29 593.02,-16.27"/>
</a>
</g>
</g>
<!-- Node6&#45;&gt;Node8 -->
<g id="edge7_Node000006_Node000008" class="edge">
<title>Node6&#45;&gt;Node8</title>
<g id="a_edge7_Node000006_Node000008"><a xlink:title=" ">
<path fill="none" stroke="#63b8ff" d="M126.44,-54.75C132.86,-47.18 142.31,-36.05 150.13,-26.84"/>
<polygon fill="#63b8ff" stroke="#63b8ff" points="152.91,-28.98 156.71,-19.09 147.57,-24.45 152.91,-28.98"/>
</a>
</g>
</g>
<!-- Node9 -->
<g id="Node000009" class="node">
<title>Node9</title>
<g id="a_Node000009"><a xlink:title=" ">
<polygon fill="#e0e0e0" stroke="#999999" points="104.51,-19 35.51,-19 35.51,0 104.51,0 104.51,-19"/>
<text text-anchor="middle" x="70.01" y="-7" font-family="Helvetica,sans-Serif" font-size="10.00">type_traits</text>
</a>
</g>
</g>
<!-- Node6&#45;&gt;Node9 -->
<g id="edge8_Node000006_Node000009" class="edge">
<title>Node6&#45;&gt;Node9</title>
<g id="a_edge8_Node000006_Node000009"><a xlink:title=" ">
<path fill="none" stroke="#63b8ff" d="M110.91,-54.75C103.85,-47.11 93.42,-35.82 84.86,-26.56"/>
<polygon fill="#63b8ff" stroke="#63b8ff" points="87.3,-24.06 77.95,-19.09 82.16,-28.81 87.3,-24.06"/>
</a>
</g>
</g>
<!-- Node10&#45;&gt;Node7 -->
<g id="edge10_Node000010_Node000007" class="edge">
<title>Node10&#45;&gt;Node7</title>
<g id="a_edge10_Node000010_Node000007"><a xlink:title=" ">
<path fill="none" stroke="#63b8ff" d="M245.32,-56.42C248.25,-55.92 251.18,-55.43 254.01,-55 377.98,-35.94 526.15,-20.46 592.65,-13.89"/>
<polygon fill="#63b8ff" stroke="#63b8ff" points="593.37,-17.34 602.98,-12.88 592.68,-10.37 593.37,-17.34"/>
</a>
</g>
</g>
<!-- Node10&#45;&gt;Node8 -->
<g id="edge11_Node000010_Node000008" class="edge">
<title>Node10&#45;&gt;Node8</title>
<g id="a_edge11_Node000010_Node000008"><a xlink:title=" ">
<path fill="none" stroke="#63b8ff" d="M201.57,-54.75C195.15,-47.18 185.7,-36.05 177.88,-26.84"/>
<polygon fill="#63b8ff" stroke="#63b8ff" points="180.44,-24.45 171.3,-19.09 175.1,-28.98 180.44,-24.45"/>
</a>
</g>
</g>
<!-- Node13&#45;&gt;Node4 -->
<g id="edge21_Node000013_Node000004" class="edge">
<title>Node13&#45;&gt;Node4</title>
<g id="a_edge21_Node000013_Node000004"><a xlink:title=" ">
<path fill="none" stroke="#63b8ff" d="M862.28,-113.03C796.85,-105.74 679.31,-91.84 568.76,-74.02"/>
<polygon fill="#63b8ff" stroke="#63b8ff" points="569.2,-70.55 558.77,-72.4 568.08,-77.45 569.2,-70.55"/>
</a>
</g>
</g>
<!-- Node13&#45;&gt;Node5 -->
<g id="edge22_Node000013_Node000005" class="edge">
<title>Node13&#45;&gt;Node5</title>
<g id="a_edge22_Node000013_Node000005"><a xlink:title=" ">
<path fill="none" stroke="#63b8ff" d="M918.22,-109.67C927.18,-95.39 946.99,-67.56 972.01,-55 1030.4,-25.68 1214.25,-15.54 1314.39,-12.14"/>
<polygon fill="#63b8ff" stroke="#63b8ff" points="1314.53,-15.64 1324.41,-11.81 1314.3,-8.64 1314.53,-15.64"/>
</a>
</g>
</g>
<!-- Node14 -->
<g id="Node000014" class="node">
<title>Node14</title>
<g id="a_Node000014"><a xlink:href="IItemReceiver_8h.html" target="_top" xlink:title=" ">
<polygon fill="white" stroke="#666666" points="808.51,-74 697.51,-74 697.51,-55 808.51,-55 808.51,-74"/>
<text text-anchor="middle" x="753.01" y="-62" font-family="Helvetica,sans-Serif" font-size="10.00">api/IItemReceiver.h</text>
</a>
</g>
</g>
<!-- Node13&#45;&gt;Node14 -->
<g id="edge17_Node000013_Node000014" class="edge">
<title>Node13&#45;&gt;Node14</title>
<g id="a_edge17_Node000013_Node000014"><a xlink:title=" ">
<path fill="none" stroke="#63b8ff" d="M887.3,-109.98C860.55,-101.13 818.48,-87.19 788.56,-77.28"/>
<polygon fill="#63b8ff" stroke="#63b8ff" points="789.51,-73.9 778.91,-74.08 787.31,-80.55 789.51,-73.9"/>
</a>
</g>
</g>
<!-- Node15 -->
<g id="Node000015" class="node">
<title>Node15</title>
<g id="a_Node000015"><a xlink:href="IItemSender_8h.html" target="_top" xlink:title=" ">
<polygon fill="white" stroke="#666666" points="679.01,-74 577.01,-74 577.01,-55 679.01,-55 679.01,-74"/>
<text text-anchor="middle" x="628.01" y="-62" font-family="Helvetica,sans-Serif" font-size="10.00">api/IItemSender.h</text>
</a>
</g>
</g>
<!-- Node13&#45;&gt;Node15 -->
<g id="edge19_Node000013_Node000015" class="edge">
<title>Node13&#45;&gt;Node15</title>
<g id="a_edge19_Node000013_Node000015"><a xlink:title=" ">
<path fill="none" stroke="#63b8ff" d="M867.22,-109.98C817.4,-100.72 737.73,-85.9 684.17,-75.94"/>
<polygon fill="#63b8ff" stroke="#63b8ff" points="684.63,-72.47 674.15,-74.08 683.35,-79.35 684.63,-72.47"/>
</a>
</g>
</g>
<!-- Node16 -->
<g id="Node000016" class="node">
<title>Node16</title>
<g id="a_Node000016"><a xlink:title=" ">
<polygon fill="#e0e0e0" stroke="#999999" points="923.51,-74 826.51,-74 826.51,-55 923.51,-55 923.51,-74"/>
<text text-anchor="middle" x="875.01" y="-62" font-family="Helvetica,sans-Serif" font-size="10.00">freertos/queue.h</text>
</a>
</g>
</g>
<!-- Node13&#45;&gt;Node16 -->
<g id="edge23_Node000013_Node000016" class="edge">
<title>Node13&#45;&gt;Node16</title>
<g id="a_edge23_Node000013_Node000016"><a xlink:title=" ">
<path fill="none" stroke="#63b8ff" d="M906.73,-109.75C901.42,-102.34 893.65,-91.5 887.13,-82.41"/>
<polygon fill="#63b8ff" stroke="#63b8ff" points="889.83,-80.18 881.16,-74.09 884.15,-84.26 889.83,-80.18"/>
</a>
</g>
</g>
<!-- Node17 -->
<g id="Node000017" class="node">
<title>Node17</title>
<g id="a_Node000017"><a xlink:title=" ">
<polygon fill="#e0e0e0" stroke="#999999" points="1045.51,-74 980.51,-74 980.51,-55 1045.51,-55 1045.51,-74"/>
<text text-anchor="middle" x="1013.01" y="-62" font-family="Helvetica,sans-Serif" font-size="10.00">functional</text>
</a>
</g>
</g>
<!-- Node13&#45;&gt;Node17 -->
<g id="edge24_Node000013_Node000017" class="edge">
<title>Node13&#45;&gt;Node17</title>
<g id="a_edge24_Node000013_Node000017"><a xlink:title=" ">
<path fill="none" stroke="#63b8ff" d="M929.07,-109.98C944.87,-101.61 969.22,-88.7 987.64,-78.95"/>
<polygon fill="#63b8ff" stroke="#63b8ff" points="989.45,-81.95 996.65,-74.17 986.17,-75.76 989.45,-81.95"/>
</a>
</g>
</g>
<!-- Node18 -->
<g id="Node000018" class="node">
<title>Node18</title>
<g id="a_Node000018"><a xlink:title=" ">
<polygon fill="#e0e0e0" stroke="#999999" points="1228.01,-74 1170.01,-74 1170.01,-55 1228.01,-55 1228.01,-74"/>
<text text-anchor="middle" x="1199.01" y="-62" font-family="Helvetica,sans-Serif" font-size="10.00">memory</text>
</a>
</g>
</g>
<!-- Node13&#45;&gt;Node18 -->
<g id="edge25_Node000013_Node000018" class="edge">
<title>Node13&#45;&gt;Node18</title>
<g id="a_edge25_Node000013_Node000018"><a xlink:title=" ">
<path fill="none" stroke="#63b8ff" d="M963.95,-110.01C1012.01,-101.85 1086.31,-88.87 1160.06,-74.12"/>
<polygon fill="#63b8ff" stroke="#63b8ff" points="1160.87,-77.53 1169.99,-72.12 1159.49,-70.67 1160.87,-77.53"/>
</a>
</g>
</g>
<!-- Node14&#45;&gt;Node7 -->
<g id="edge18_Node000014_Node000007" class="edge">
<title>Node14&#45;&gt;Node7</title>
<g id="a_edge18_Node000014_Node000007"><a xlink:title=" ">
<path fill="none" stroke="#63b8ff" d="M732.92,-54.98C712.63,-46.38 681.05,-32.99 657.83,-23.15"/>
<polygon fill="#63b8ff" stroke="#63b8ff" points="659.03,-19.85 648.45,-19.17 656.29,-26.3 659.03,-19.85"/>
</a>
</g>
</g>
<!-- Node15&#45;&gt;Node7 -->
<g id="edge20_Node000015_Node000007" class="edge">
<title>Node15&#45;&gt;Node7</title>
<g id="a_edge20_Node000015_Node000007"><a xlink:title=" ">
<path fill="none" stroke="#63b8ff" d="M628.01,-54.75C628.01,-47.8 628.01,-37.85 628.01,-29.13"/>
<polygon fill="#63b8ff" stroke="#63b8ff" points="631.51,-29.09 628.01,-19.09 624.51,-29.09 631.51,-29.09"/>
</a>
</g>
</g>
<!-- Node19&#45;&gt;Node5 -->
<g id="edge29_Node000019_Node000005" class="edge">
<title>Node19&#45;&gt;Node5</title>
<g id="a_edge29_Node000019_Node000005"><a xlink:title=" ">
<path fill="none" stroke="#63b8ff" d="M1588.9,-109.62C1585.14,-95.78 1575.94,-69.18 1558.01,-55 1526.9,-30.41 1483.91,-19.23 1448.08,-14.22"/>
<polygon fill="#63b8ff" stroke="#63b8ff" points="1448.06,-10.69 1437.7,-12.91 1447.18,-17.63 1448.06,-10.69"/>
</a>
</g>
</g>
<!-- Node20 -->
<g id="Node000020" class="node">
<title>Node20</title>
<g id="a_Node000020"><a xlink:href="IMutex_8h.html" target="_top" xlink:title=" ">
<polygon fill="white" stroke="#666666" points="1477.51,-74 1400.51,-74 1400.51,-55 1477.51,-55 1477.51,-74"/>
<text text-anchor="middle" x="1439.01" y="-62" font-family="Helvetica,sans-Serif" font-size="10.00">api/IMutex.h</text>
</a>
</g>
</g>
<!-- Node19&#45;&gt;Node20 -->
<g id="edge27_Node000019_Node000020" class="edge">
<title>Node19&#45;&gt;Node20</title>
<g id="a_edge27_Node000019_Node000020"><a xlink:title=" ">
<path fill="none" stroke="#63b8ff" d="M1566.58,-109.98C1541.29,-101.16 1501.55,-87.31 1473.15,-77.41"/>
<polygon fill="#63b8ff" stroke="#63b8ff" points="1474.21,-74.07 1463.62,-74.08 1471.91,-80.68 1474.21,-74.07"/>
</a>
</g>
</g>
<!-- Node21 -->
<g id="Node000021" class="node">
<title>Node21</title>
<g id="a_Node000021"><a xlink:title=" ">
<polygon fill="#e0e0e0" stroke="#999999" points="1713.51,-74 1610.51,-74 1610.51,-55 1713.51,-55 1713.51,-74"/>
<text text-anchor="middle" x="1662.01" y="-62" font-family="Helvetica,sans-Serif" font-size="10.00">freertos/semphr.h</text>
</a>
</g>
</g>
<!-- Node19&#45;&gt;Node21 -->
<g id="edge30_Node000019_Node000021" class="edge">
<title>Node19&#45;&gt;Node21</title>
<g id="a_edge30_Node000019_Node000021"><a xlink:title=" ">
<path fill="none" stroke="#63b8ff" d="M1602.41,-109.98C1613.11,-102 1629.35,-89.88 1642.17,-80.31"/>
<polygon fill="#63b8ff" stroke="#63b8ff" points="1644.47,-82.96 1650.39,-74.17 1640.28,-77.35 1644.47,-82.96"/>
</a>
</g>
</g>
<!-- Node20&#45;&gt;Node7 -->
<g id="edge28_Node000020_Node000007" class="edge">
<title>Node20&#45;&gt;Node7</title>
<g id="a_edge28_Node000020_Node000007"><a xlink:title=" ">
<path fill="none" stroke="#63b8ff" d="M1400.29,-56.24C1397.16,-55.78 1394.03,-55.35 1391.01,-55 1111.69,-22.24 771.89,-13.22 663.21,-11.09"/>
<polygon fill="#63b8ff" stroke="#63b8ff" points="663.19,-7.59 653.13,-10.9 663.06,-14.59 663.19,-7.59"/>
</a>
</g>
</g>
<!-- Node22&#45;&gt;Node5 -->
<g id="edge34_Node000022_Node000005" class="edge">
<title>Node22&#45;&gt;Node5</title>
<g id="a_edge34_Node000022_Node000005"><a xlink:title=" ">
<path fill="none" stroke="#63b8ff" d="M1718.83,-116.18C1779.13,-111.32 1880.98,-96.81 1843.01,-55 1816.98,-26.35 1569.74,-15.64 1448.03,-12.08"/>
<polygon fill="#63b8ff" stroke="#63b8ff" points="1447.81,-8.57 1437.72,-11.78 1447.62,-15.57 1447.81,-8.57"/>
</a>
</g>
</g>
<!-- Node22&#45;&gt;Node21 -->
<g id="edge35_Node000022_Node000021" class="edge">
<title>Node22&#45;&gt;Node21</title>
<g id="a_edge35_Node000022_Node000021"><a xlink:title=" ">
<path fill="none" stroke="#63b8ff" d="M1675.36,-109.75C1673.24,-102.72 1670.19,-92.62 1667.54,-83.84"/>
<polygon fill="#63b8ff" stroke="#63b8ff" points="1670.84,-82.65 1664.6,-74.09 1664.14,-84.67 1670.84,-82.65"/>
</a>
</g>
</g>
<!-- Node23 -->
<g id="Node000023" class="node">
<title>Node23</title>
<g id="a_Node000023"><a xlink:href="ISemaphore_8h.html" target="_top" xlink:title=" ">
<polygon fill="white" stroke="#666666" points="1834.01,-74 1732.01,-74 1732.01,-55 1834.01,-55 1834.01,-74"/>
<text text-anchor="middle" x="1783.01" y="-62" font-family="Helvetica,sans-Serif" font-size="10.00">api/ISemaphore.h</text>
</a>
</g>
</g>
<!-- Node22&#45;&gt;Node23 -->
<g id="edge32_Node000022_Node000023" class="edge">
<title>Node22&#45;&gt;Node23</title>
<g id="a_edge32_Node000022_Node000023"><a xlink:title=" ">
<path fill="none" stroke="#63b8ff" d="M1694.88,-109.98C1711.61,-101.54 1737.5,-88.47 1756.9,-78.68"/>
<polygon fill="#63b8ff" stroke="#63b8ff" points="1758.48,-81.8 1765.83,-74.17 1755.32,-75.55 1758.48,-81.8"/>
</a>
</g>
</g>
<!-- Node23&#45;&gt;Node7 -->
<g id="edge33_Node000023_Node000007" class="edge">
<title>Node23&#45;&gt;Node7</title>
<g id="a_edge33_Node000023_Node000007"><a xlink:title=" ">
<path fill="none" stroke="#63b8ff" d="M1731.98,-55.92C1728.95,-55.58 1725.94,-55.27 1723.01,-55 1307.46,-17.22 800.27,-11.51 663.43,-10.65"/>
<polygon fill="#63b8ff" stroke="#63b8ff" points="663.15,-7.15 653.13,-10.59 663.11,-14.15 663.15,-7.15"/>
</a>
</g>
</g>
<!-- Node24&#45;&gt;Node5 -->
<g id="edge37_Node000024_Node000005" class="edge">
<title>Node24&#45;&gt;Node5</title>
<g id="a_edge37_Node000024_Node000005"><a xlink:title=" ">
<path fill="none" stroke="#63b8ff" d="M1178.59,-109.91C1199.07,-97.14 1239.25,-72.74 1275.01,-55 1299.24,-42.98 1327.52,-31.21 1348.78,-22.8"/>
<polygon fill="#63b8ff" stroke="#63b8ff" points="1350.27,-25.98 1358.3,-19.07 1347.72,-19.46 1350.27,-25.98"/>
</a>
</g>
</g>
<!-- Node24&#45;&gt;Node17 -->
<g id="edge39_Node000024_Node000017" class="edge">
<title>Node24&#45;&gt;Node17</title>
<g id="a_edge39_Node000024_Node000017"><a xlink:title=" ">
<path fill="none" stroke="#63b8ff" d="M1141.26,-110.22C1116.01,-101.42 1075.86,-87.42 1047.21,-77.43"/>
<polygon fill="#63b8ff" stroke="#63b8ff" points="1048.19,-74.06 1037.6,-74.07 1045.89,-80.67 1048.19,-74.06"/>
</a>
</g>
</g>
<!-- Node24&#45;&gt;Node18 -->
<g id="edge40_Node000024_Node000018" class="edge">
<title>Node24&#45;&gt;Node18</title>
<g id="a_edge40_Node000024_Node000018"><a xlink:title=" ">
<path fill="none" stroke="#63b8ff" d="M1170.62,-109.75C1175.32,-102.42 1182.18,-91.73 1187.97,-82.7"/>
<polygon fill="#63b8ff" stroke="#63b8ff" points="1191.04,-84.4 1193.5,-74.09 1185.15,-80.62 1191.04,-84.4"/>
</a>
</g>
</g>
<!-- Node25 -->
<g id="Node000025" class="node">
<title>Node25</title>
<g id="a_Node000025"><a xlink:title=" ">
<polygon fill="#e0e0e0" stroke="#999999" points="1152.01,-74 1064.01,-74 1064.01,-55 1152.01,-55 1152.01,-74"/>
<text text-anchor="middle" x="1108.01" y="-62" font-family="Helvetica,sans-Serif" font-size="10.00">freertos/task.h</text>
</a>
</g>
</g>
<!-- Node24&#45;&gt;Node25 -->
<g id="edge38_Node000024_Node000025" class="edge">
<title>Node24&#45;&gt;Node25</title>
<g id="a_edge38_Node000024_Node000025"><a xlink:title=" ">
<path fill="none" stroke="#63b8ff" d="M1155.85,-109.98C1147.5,-102.23 1134.97,-90.58 1124.83,-81.14"/>
<polygon fill="#63b8ff" stroke="#63b8ff" points="1127.04,-78.42 1117.33,-74.17 1122.27,-83.54 1127.04,-78.42"/>
</a>
</g>
</g>
<!-- Node26&#45;&gt;Node5 -->
<g id="edge42_Node000026_Node000005" class="edge">
<title>Node26&#45;&gt;Node5</title>
<g id="a_edge42_Node000026_Node000005"><a xlink:title=" ">
<path fill="none" stroke="#63b8ff" d="M1259.57,-117.98C1318.68,-116.2 1458.14,-108.36 1487.01,-74 1507.59,-49.5 1468.19,-31.99 1431.73,-21.64"/>
<polygon fill="#63b8ff" stroke="#63b8ff" points="1432.64,-18.26 1422.07,-19.04 1430.82,-25.02 1432.64,-18.26"/>
</a>
</g>
</g>
<!-- Node26&#45;&gt;Node17 -->
<g id="edge44_Node000026_Node000017" class="edge">
<title>Node26&#45;&gt;Node17</title>
<g id="a_edge44_Node000026_Node000017"><a xlink:title=" ">
<path fill="none" stroke="#63b8ff" d="M1206.25,-112C1203.47,-111.32 1200.68,-110.65 1198.01,-110 1149.28,-98.22 1093.33,-84.77 1055.83,-75.77"/>
<polygon fill="#63b8ff" stroke="#63b8ff" points="1056.3,-72.29 1045.76,-73.36 1054.67,-79.09 1056.3,-72.29"/>
</a>
</g>
</g>
<!-- Node26&#45;&gt;Node18 -->
<g id="edge45_Node000026_Node000018" class="edge">
<title>Node26&#45;&gt;Node18</title>
<g id="a_edge45_Node000026_Node000018"><a xlink:title=" ">
<path fill="none" stroke="#63b8ff" d="M1227.39,-109.75C1222.69,-102.42 1215.83,-91.73 1210.04,-82.7"/>
<polygon fill="#63b8ff" stroke="#63b8ff" points="1212.86,-80.62 1204.52,-74.09 1206.97,-84.4 1212.86,-80.62"/>
</a>
</g>
</g>
<!-- Node27 -->
<g id="Node000027" class="node">
<title>Node27</title>
<g id="a_Node000027"><a xlink:title=" ">
<polygon fill="#e0e0e0" stroke="#999999" points="1382.01,-74 1284.01,-74 1284.01,-55 1382.01,-55 1382.01,-74"/>
<text text-anchor="middle" x="1333.01" y="-62" font-family="Helvetica,sans-Serif" font-size="10.00">freertos/timers.h</text>
</a>
</g>
</g>
<!-- Node26&#45;&gt;Node27 -->
<g id="edge43_Node000026_Node000027" class="edge">
<title>Node26&#45;&gt;Node27</title>
<g id="a_edge43_Node000026_Node000027"><a xlink:title=" ">
<path fill="none" stroke="#63b8ff" d="M1249.07,-109.98C1264.87,-101.61 1289.22,-88.7 1307.64,-78.95"/>
<polygon fill="#63b8ff" stroke="#63b8ff" points="1309.45,-81.95 1316.65,-74.17 1306.17,-75.76 1309.45,-81.95"/>
</a>
</g>
</g>
</g>
</svg>
