<?xml version="1.0" encoding="UTF-8" standalone="no"?>
<!DOCTYPE svg PUBLIC "-//W3C//DTD SVG 1.1//EN"
 "http://www.w3.org/Graphics/SVG/1.1/DTD/svg11.dtd">
<!-- Generated by graphviz version 2.43.0 (0)
 -->
<!-- Title: components/rtos_cpp/src/Task.cpp Pages: 1 -->
<svg width="388pt" height="148pt"
 viewBox="0.00 0.00 387.50 148.00" xmlns="http://www.w3.org/2000/svg" xmlns:xlink="http://www.w3.org/1999/xlink">
<g id="graph0" class="graph" transform="scale(1 1) rotate(0) translate(4 144)">
<title>components/rtos_cpp/src/Task.cpp</title>
<!-- Node1 -->
<g id="Node000001" class="node">
<title>Node1</title>
<g id="a_Node000001"><a xlink:title=" ">
<polygon fill="#999999" stroke="#666666" points="236,-140 115,-140 115,-110 236,-110 236,-140"/>
<text text-anchor="start" x="123" y="-128" font-family="Helvetica,sans-Serif" font-size="10.00">components/rtos_cpp</text>
<text text-anchor="middle" x="175.5" y="-117" font-family="Helvetica,sans-Serif" font-size="10.00">/src/Task.cpp</text>
</a>
</g>
</g>
<!-- Node2 -->
<g id="Node000002" class="node">
<title>Node2</title>
<g id="a_Node000002"><a xlink:href="Task_8h.html" target="_top" xlink:title=" ">
<polygon fill="white" stroke="#666666" points="199,-74 152,-74 152,-55 199,-55 199,-74"/>
<text text-anchor="middle" x="175.5" y="-62" font-family="Helvetica,sans-Serif" font-size="10.00">Task.h</text>
</a>
</g>
</g>
<!-- Node1&#45;&gt;Node2 -->
<g id="edge1_Node000001_Node000002" class="edge">
<title>Node1&#45;&gt;Node2</title>
<g id="a_edge1_Node000001_Node000002"><a xlink:title=" ">
<path fill="none" stroke="#63b8ff" d="M175.5,-109.84C175.5,-102.21 175.5,-92.7 175.5,-84.45"/>
<polygon fill="#63b8ff" stroke="#63b8ff" points="179,-84.27 175.5,-74.27 172,-84.27 179,-84.27"/>
</a>
</g>
</g>
<!-- Node7 -->
<g id="Node000007" class="node">
<title>Node7</title>
<g id="a_Node000007"><a xlink:href="Core_8h.html" target="_top" xlink:title=" ">
<polygon fill="white" stroke="#666666" points="112,-74 45,-74 45,-55 112,-55 112,-74"/>
<text text-anchor="middle" x="78.5" y="-62" font-family="Helvetica,sans-Serif" font-size="10.00">util/Core.h</text>
</a>
</g>
</g>
<!-- Node1&#45;&gt;Node7 -->
<g id="edge6_Node000001_Node000007" class="edge">
<title>Node1&#45;&gt;Node7</title>
<g id="a_edge6_Node000001_Node000007"><a xlink:title=" ">
<path fill="none" stroke="#63b8ff" d="M152.02,-109.84C136.7,-100.6 116.79,-88.59 101.55,-79.4"/>
<polygon fill="#63b8ff" stroke="#63b8ff" points="103.12,-76.26 92.75,-74.09 99.51,-82.26 103.12,-76.26"/>
</a>
</g>
</g>
<!-- Node8 -->
<g id="Node000008" class="node">
<title>Node8</title>
<g id="a_Node000008"><a xlink:title=" ">
<polygon fill="#e0e0e0" stroke="#999999" points="269.5,-74 217.5,-74 217.5,-55 269.5,-55 269.5,-74"/>
<text text-anchor="middle" x="243.5" y="-62" font-family="Helvetica,sans-Serif" font-size="10.00">cassert</text>
</a>
</g>
</g>
<!-- Node1&#45;&gt;Node8 -->
<g id="edge8_Node000001_Node000008" class="edge">
<title>Node1&#45;&gt;Node8</title>
<g id="a_edge8_Node000001_Node000008"><a xlink:title=" ">
<path fill="none" stroke="#63b8ff" d="M191.96,-109.84C202.13,-101.09 215.19,-89.85 225.62,-80.88"/>
<polygon fill="#63b8ff" stroke="#63b8ff" points="228.01,-83.44 233.31,-74.27 223.45,-78.13 228.01,-83.44"/>
</a>
</g>
</g>
<!-- Node3 -->
<g id="Node000003" class="node">
<title>Node3</title>
<g id="a_Node000003"><a xlink:title=" ">
<polygon fill="#e0e0e0" stroke="#999999" points="113,-19 0,-19 0,0 113,0 113,-19"/>
<text text-anchor="middle" x="56.5" y="-7" font-family="Helvetica,sans-Serif" font-size="10.00">freertos/FreeRTOS.h</text>
</a>
</g>
</g>
<!-- Node2&#45;&gt;Node3 -->
<g id="edge2_Node000002_Node000003" class="edge">
<title>Node2&#45;&gt;Node3</title>
<g id="a_edge2_Node000002_Node000003"><a xlink:title=" ">
<path fill="none" stroke="#63b8ff" d="M156.38,-54.98C137.15,-46.42 107.27,-33.11 85.19,-23.28"/>
<polygon fill="#63b8ff" stroke="#63b8ff" points="86.53,-20.04 75.97,-19.17 83.68,-26.44 86.53,-20.04"/>
</a>
</g>
</g>
<!-- Node4 -->
<g id="Node000004" class="node">
<title>Node4</title>
<g id="a_Node000004"><a xlink:title=" ">
<polygon fill="#e0e0e0" stroke="#999999" points="219.5,-19 131.5,-19 131.5,0 219.5,0 219.5,-19"/>
<text text-anchor="middle" x="175.5" y="-7" font-family="Helvetica,sans-Serif" font-size="10.00">freertos/task.h</text>
</a>
</g>
</g>
<!-- Node2&#45;&gt;Node4 -->
<g id="edge3_Node000002_Node000004" class="edge">
<title>Node2&#45;&gt;Node4</title>
<g id="a_edge3_Node000002_Node000004"><a xlink:title=" ">
<path fill="none" stroke="#63b8ff" d="M175.5,-54.75C175.5,-47.8 175.5,-37.85 175.5,-29.13"/>
<polygon fill="#63b8ff" stroke="#63b8ff" points="179,-29.09 175.5,-19.09 172,-29.09 179,-29.09"/>
</a>
</g>
</g>
<!-- Node5 -->
<g id="Node000005" class="node">
<title>Node5</title>
<g id="a_Node000005"><a xlink:title=" ">
<polygon fill="#e0e0e0" stroke="#999999" points="303,-19 238,-19 238,0 303,0 303,-19"/>
<text text-anchor="middle" x="270.5" y="-7" font-family="Helvetica,sans-Serif" font-size="10.00">functional</text>
</a>
</g>
</g>
<!-- Node2&#45;&gt;Node5 -->
<g id="edge4_Node000002_Node000005" class="edge">
<title>Node2&#45;&gt;Node5</title>
<g id="a_edge4_Node000002_Node000005"><a xlink:title=" ">
<path fill="none" stroke="#63b8ff" d="M190.76,-54.98C205.63,-46.69 228.48,-33.94 245.92,-24.22"/>
<polygon fill="#63b8ff" stroke="#63b8ff" points="247.93,-27.1 254.96,-19.17 244.52,-20.99 247.93,-27.1"/>
</a>
</g>
</g>
<!-- Node6 -->
<g id="Node000006" class="node">
<title>Node6</title>
<g id="a_Node000006"><a xlink:title=" ">
<polygon fill="#e0e0e0" stroke="#999999" points="379.5,-19 321.5,-19 321.5,0 379.5,0 379.5,-19"/>
<text text-anchor="middle" x="350.5" y="-7" font-family="Helvetica,sans-Serif" font-size="10.00">memory</text>
</a>
</g>
</g>
<!-- Node2&#45;&gt;Node6 -->
<g id="edge5_Node000002_Node000006" class="edge">
<title>Node2&#45;&gt;Node6</title>
<g id="a_edge5_Node000002_Node000006"><a xlink:title=" ">
<path fill="none" stroke="#63b8ff" d="M199.1,-56.35C228.23,-47.53 278.12,-32.42 312.63,-21.97"/>
<polygon fill="#63b8ff" stroke="#63b8ff" points="313.81,-25.27 322.36,-19.02 311.78,-18.57 313.81,-25.27"/>
</a>
</g>
</g>
<!-- Node7&#45;&gt;Node3 -->
<g id="edge7_Node000007_Node000003" class="edge">
<title>Node7&#45;&gt;Node3</title>
<g id="a_edge7_Node000007_Node000003"><a xlink:title=" ">
<path fill="none" stroke="#63b8ff" d="M74.87,-54.75C71.92,-47.65 67.67,-37.4 63.99,-28.56"/>
<polygon fill="#63b8ff" stroke="#63b8ff" points="67.13,-26.98 60.07,-19.09 60.67,-29.67 67.13,-26.98"/>
</a>
</g>
</g>
</g>
</svg>
