<?xml version="1.0" encoding="UTF-8" standalone="no"?>
<!DOCTYPE svg PUBLIC "-//W3C//DTD SVG 1.1//EN"
 "http://www.w3.org/Graphics/SVG/1.1/DTD/svg11.dtd">
<!-- Generated by graphviz version 2.43.0 (0)
 -->
<!-- Title: main/include/uart.hpp Pages: 1 -->
<svg width="234pt" height="82pt"
 viewBox="0.00 0.00 234.00 82.00" xmlns="http://www.w3.org/2000/svg" xmlns:xlink="http://www.w3.org/1999/xlink">
<g id="graph0" class="graph" transform="scale(1 1) rotate(0) translate(4 78)">
<title>main/include/uart.hpp</title>
<!-- Node1 -->
<g id="Node000001" class="node">
<title>Node1</title>
<g id="a_Node000001"><a xlink:title="Declaration of the Uart class for managing UART communication on the ESP32&#45;C6.">
<polygon fill="#999999" stroke="#666666" points="176,-74 53,-74 53,-55 176,-55 176,-74"/>
<text text-anchor="middle" x="114.5" y="-62" font-family="Helvetica,sans-Serif" font-size="10.00">main/include/uart.hpp</text>
</a>
</g>
</g>
<!-- Node2 -->
<g id="Node000002" class="node">
<title>Node2</title>
<g id="a_Node000002"><a xlink:href="main_8cpp.html" target="_top" xlink:title=" ">
<polygon fill="white" stroke="#666666" points="107,-19 0,-19 0,0 107,0 107,-19"/>
<text text-anchor="middle" x="53.5" y="-7" font-family="Helvetica,sans-Serif" font-size="10.00">main/src/main.cpp</text>
</a>
</g>
</g>
<!-- Node1&#45;&gt;Node2 -->
<g id="edge1_Node000001_Node000002" class="edge">
<title>Node1&#45;&gt;Node2</title>
<g id="a_edge1_Node000001_Node000002"><a xlink:title=" ">
<path fill="none" stroke="#63b8ff" d="M97.03,-48.32C86.16,-38.87 72.56,-27.06 63.48,-19.17"/>
<polygon fill="#63b8ff" stroke="#63b8ff" points="94.85,-51.07 104.7,-54.98 99.45,-45.78 94.85,-51.07"/>
</a>
</g>
</g>
<!-- Node3 -->
<g id="Node000003" class="node">
<title>Node3</title>
<g id="a_Node000003"><a xlink:href="uart_8cpp.html" target="_top" xlink:title="Implementation of the Uart class for UART communication on ESP32&#45;C6.">
<polygon fill="white" stroke="#666666" points="226,-19 125,-19 125,0 226,0 226,-19"/>
<text text-anchor="middle" x="175.5" y="-7" font-family="Helvetica,sans-Serif" font-size="10.00">main/src/uart.cpp</text>
</a>
</g>
</g>
<!-- Node1&#45;&gt;Node3 -->
<g id="edge2_Node000001_Node000003" class="edge">
<title>Node1&#45;&gt;Node3</title>
<g id="a_edge2_Node000001_Node000003"><a xlink:title=" ">
<path fill="none" stroke="#63b8ff" d="M131.97,-48.32C142.84,-38.87 156.44,-27.06 165.52,-19.17"/>
<polygon fill="#63b8ff" stroke="#63b8ff" points="129.55,-45.78 124.3,-54.98 134.15,-51.07 129.55,-45.78"/>
</a>
</g>
</g>
</g>
</svg>
